<?xml version="1.0" encoding="UTF-8" standalone="no"?>
<!-- Created with Inkscape (http://www.inkscape.org/) -->

<svg
   width="99.98999mm"
   height="99.98999mm"
   viewBox="0 0 99.98999 99.98999"
   version="1.1"
   id="svg845"
   xmlns="http://www.w3.org/2000/svg"
   xmlns:svg="http://www.w3.org/2000/svg">
  <defs
     id="defs842" />
  <g
     id="layer1"
     transform="translate(-51.222142,-65.392546)">
    <path
       d="m 99.043746,92.661843 c 1.445194,-0.140017 2.902794,-0.141005 4.348094,-0.0028 l 0.99077,-2.802608 0.044,0.0054 c 2.3296,0.289807 4.61017,0.903816 6.7751,1.810914 l 0.041,0.01718 -0.54539,2.931619 c 1.31977,0.603003 2.5818,1.331277 3.76399,2.172687 l 2.2611,-1.933398 0.0355,0.02688 c 1.8253,1.380631 3.458,3.008806 4.85411,4.821801 l 0.0384,0.04981 h -2.02617 l 0.06,-0.06999 c -0.84691,-0.99503 -1.77352,-1.921918 -2.76842,-2.768832 l -2.23538,1.910997 -0.0357,-0.02889 c -1.7388,-1.40649 -3.69302,-2.53171 -5.7774,-3.341088 l -0.0428,-0.01662 0.53788,-2.893307 c -1.23039,-0.439102 -2.49651,-0.777593 -3.78171,-1.011378 l -0.98108,2.775091 -0.0453,-0.0073 c -1.10299,-0.177412 -2.22017,-0.260315 -3.33706,-0.260315 -1.117,0 -2.234323,0.0829 -3.337318,0.260315 l -0.0454,0.0073 -0.980793,-2.775091 c -1.285205,0.233785 -2.551324,0.572205 -3.781707,1.011096 l 0.537916,2.893589 -0.04272,0.01662 c -2.084493,0.809378 -4.038706,1.934492 -5.777688,3.341088 l -0.0357,0.02889 -2.235095,-1.910891 c -0.994903,0.846913 -1.921827,1.77359 -2.768705,2.768494 l 0.06008,0.0702 h -2.026179 l 0.03838,-0.04981 c 1.396118,-1.813101 3.028914,-3.44117 4.854116,-4.821801 l 0.03549,-0.02688 2.257813,1.930506 c 1.182511,-0.842398 2.445702,-1.570108 3.767102,-2.171524 l -0.545007,-2.92989 0.04099,-0.01718 c 2.164891,-0.907098 4.445423,-1.521107 6.775097,-1.810914 l 0.04399,-0.0054 0.991834,2.805501 z"
       style="fill:#004b9d;fill-opacity:1;fill-rule:evenodd;stroke:none;stroke-width:0.352778"
       id="path12" />
    <path
       d="m 101.21725,95.539628 c 4.59817,0 8.83069,1.564111 12.19577,4.188707 h -1.2555 c -3.09898,-2.16909 -6.87059,-3.442794 -10.94027,-3.442794 -4.06972,0 -7.841337,1.273704 -10.940314,3.442794 h -1.2555 c 3.365076,-2.624596 7.597492,-4.188707 12.195814,-4.188707"
       style="fill:#004b9d;fill-opacity:1;fill-rule:evenodd;stroke:none;stroke-width:0.352778"
       id="path14" />
    <path
       d="m 126.60472,105.81714 c 1.50372,1.6771 2.48581,3.6837 2.44831,6.55919 0.76691,-0.5988 1.0479,-3.10747 2.37441,-4.05048 0.31757,3.55649 -1.05682,6.09808 -3.21052,8.36499 -0.14958,-2.27891 -1.93658,-0.8552 -2.43181,-6.44789 0.90061,0.5231 0.92873,1.93209 2.30862,2.70478 -1.5941,-2.8744 -1.438,-4.2219 -1.48901,-7.13059 z m -4.26508,27.55991 c 0.0236,0.31211 0.0678,0.61719 0.0992,0.7892 -0.8031,0.2333 -1.58711,0.5351 -2.33003,1.03798 1.15641,-1.49779 1.60373,-3.7791 1.34401,-5.4103 -1.89508,2.67571 -4.52261,4.74842 -4.26568,7.67672 -0.0229,0.1826 -0.0166,0.52109 -0.007,0.7838 -0.92742,0.2769 -1.80721,0.69018 -2.6567,1.37009 -0.15899,0.12731 -0.3611,0.37969 -0.39881,0.32561 -0.0377,-0.0542 0.18619,-0.28473 0.32339,-0.45953 1.07752,-1.37368 1.76371,-3.23758 2.3665,-4.69416 -4.02117,3.09767 -5.08328,2.97539 -7.19448,5.65118 -0.6,0.76041 -3.26929,1.3087 -4.13579,1.48149 -0.20672,0.0413 -0.20613,0.32402 -0.008,0.3067 0.98503,-0.0859 2.75241,0.0317 3.429,0.29101 3.51653,1.3481 6.26322,0.63652 9.93482,-1.3172 -1.93332,0.1682 -3.86912,0.052 -5.8082,-0.48631 0.31958,-0.10618 0.62389,-0.39578 0.95889,-0.3188 4.20359,0.96682 7.12501,-0.6071 10.00661,-3.62268 -2.50141,0.63649 -4.43632,0.86438 -6.36852,1.34938 l 0.003,-0.009 c 0.12252,-0.37074 0.70351,-0.64901 0.70499,-0.64971 2.87433,-1.25332 6.03331,-0.1391 9.00112,-4.95932 -1.49902,0.93462 -3.04221,1.14971 -4.57242,1.5651 0.003,-0.23869 -0.0223,-0.53929 0.14242,-0.8395 2.19061,-2.13138 4.96848,-1.20749 7.6841,-7.21099 -1.39319,0.1948 -2.80342,1.37841 -4.00491,2.277 0.0839,-0.3066 0.24571,-0.71109 0.44369,-1.0698 2.36421,-2.0931 4.6694,-3.65911 5.03159,-7.01961 -0.74817,0.75241 -2.02529,1.50563 -2.97197,2.05201 1.697,-2.54399 3.3238,-5.47169 2.9803,-9.18651 -0.66672,3.0571 -2.5467,3.40582 -3.63192,5.73881 -0.61217,-1.78939 -1.3009,-2.77879 -2.2758,-3.93471 -0.27598,5.23882 1.73672,5.04021 1.90792,8.81451 l -0.75649,0.59581 c 0.002,-1.81861 -0.63161,-3.68092 -1.54383,-5.1991 -0.1283,2.7445 -1.18459,6.02929 0.44972,8.3567 0.13918,0.46648 0.12178,0.8333 0.0811,1.06278 -0.632,0.45921 -1.19171,0.80691 -1.6378,0.84162 0.27799,-1.59812 0.27598,-3.40261 -0.3459,-5.01791 -0.43042,2.93649 -2.43932,5.29689 -1.9788,9.03782"
       style="fill:#004b9d;fill-opacity:1;fill-rule:evenodd;stroke:none;stroke-width:0.352778"
       id="path16" />
    <path
       d="m 75.829523,105.81714 c -1.50361,1.6771 -2.485778,3.6837 -2.448208,6.55919 -0.766974,-0.5988 -1.047891,-3.10747 -2.37437,-4.05048 -0.317712,3.55649 1.056675,6.09808 3.210383,8.36499 0.149684,-2.27891 1.936715,-0.8552 2.431909,-6.44789 -0.900606,0.5231 -0.928793,1.93209 -2.308613,2.70478 1.594097,-2.8744 1.437922,-4.2219 1.488899,-7.13059 z m 4.265189,27.55991 c -0.02357,0.31211 -0.06788,0.61719 -0.09917,0.7892 0.802993,0.2333 1.587076,0.5351 2.329991,1.03798 -1.156405,-1.49779 -1.603798,-3.7791 -1.344013,-5.4103 1.895017,2.67571 4.522611,4.74842 4.265719,7.67672 0.02279,0.1826 0.01658,0.52109 0.0067,0.7838 0.927383,0.2769 1.807175,0.69018 2.656699,1.37009 0.158997,0.12731 0.361068,0.37969 0.39878,0.32561 0.03782,-0.0542 -0.186196,-0.28473 -0.323285,-0.45953 -1.077595,-1.37368 -1.763713,-3.23758 -2.366504,-4.69416 4.021208,3.09767 5.08321,2.97539 7.194409,5.65118 0.600075,0.76041 3.269297,1.3087 4.135896,1.48149 0.206692,0.0413 0.205987,0.32402 0.0076,0.3067 -0.98499,-0.0859 -2.752407,0.0317 -3.428894,0.29101 -3.516594,1.3481 -6.263287,0.63652 -9.934892,-1.3172 1.933293,0.1682 3.86909,0.052 5.808274,-0.48631 -0.319581,-0.10618 -0.623993,-0.39578 -0.958991,-0.3188 -4.203488,0.96682 -7.124876,-0.6071 -10.006577,-3.62268 2.501371,0.63649 4.436287,0.86438 6.368592,1.34938 l -0.0032,-0.009 c -0.122485,-0.37074 -0.70358,-0.64901 -0.705097,-0.64971 -2.874187,-1.25332 -6.033206,-0.1391 -9.00109,-4.95932 1.498988,0.93462 3.042179,1.14971 4.572388,1.5651 -0.0032,-0.23869 0.0223,-0.53929 -0.14231,-0.8395 -2.19068,-2.13138 -4.968487,-1.20749 -7.68417,-7.21099 1.393295,0.1948 2.803383,1.37841 4.00498,2.277 -0.08389,-0.3066 -0.245781,-0.71109 -0.443689,-1.0698 -2.364316,-2.0931 -4.669508,-3.65911 -5.031599,-7.01961 0.748101,0.75241 2.025298,1.50563 2.971906,2.05201 -1.697002,-2.54399 -3.323801,-5.47169 -2.980231,-9.18651 0.666609,3.0571 2.546703,3.40582 3.631918,5.73881 0.61221,-1.78939 1.300797,-2.77879 2.275698,-3.93471 0.276014,5.23882 -1.736584,5.04021 -1.907787,8.81451 l 0.756391,0.59581 c -0.0021,-1.81861 0.631578,-3.68092 1.543897,-5.1991 0.128305,2.7445 1.184592,6.02929 -0.449686,8.3567 -0.139206,0.46648 -0.12192,0.8333 -0.0811,1.06278 0.631896,0.45921 1.191578,0.80691 1.637771,0.84162 -0.278094,-1.59812 -0.276084,-3.40261 0.345934,-5.01791 0.430389,2.93649 2.439282,5.29689 1.978766,9.03782"
       style="fill:#004b9d;fill-opacity:1;fill-rule:evenodd;stroke:none;stroke-width:0.352778"
       id="path18" />
    <path
       d="m 101.21943,142.43134 1.39961,-2.42429 H 99.819822 Z M 128.45331,99.728335 101.21943,146.90654 73.981143,99.728335 c 18.157402,0 36.314807,0 54.472167,0 z m -27.25367,33.565605 -1.292117,-2.23781 h -3.860977 l -0.69723,1.20791 0.594607,1.0299 z m -1.722718,-2.98362 -1.499905,-2.59768 -1.499694,2.59768 z m -4.722283,0 1.291978,-2.23767 h -3.117286 l 1.292084,2.23767 z m 1.722684,-2.98358 0.638493,-1.10599 -0.65338,-1.13182 h -3.452424 l -0.901595,1.56171 0.39042,0.6761 z m -0.445593,-2.98358 -1.291908,-2.23771 h -0.0072 l -1.291907,2.23771 z m -4.313485,0 1.291872,-2.23771 h -3.525872 l 1.291872,2.23771 h 1.06e-4 z m 1.722473,-2.98362 1.291907,-2.23781 h -6.970994 l 1.292013,2.23781 z m 1.29921,-2.23781 1.291907,2.23781 h 3.89061 l 1.291975,-2.23781 z m 1.722508,2.98372 1.514687,2.6234 1.514722,-2.6234 z m 4.759074,-2.98372 1.29202,2.23781 h 3.89061 l 1.2918,-2.23781 z m 1.72262,2.98372 1.51479,2.6235 1.51462,-2.6235 z m 4.75901,-2.98372 1.29197,2.23781 h 4.39011 l 1.29191,-2.23781 z m 1.72268,2.98372 1.2918,2.23771 h 1.1e-4 0.94491 l 1.29198,-2.23771 z m 0.903,4.54798 -0.903,-1.5645 h -3.45239 l -0.65331,1.13171 0.63842,1.1061 h 3.98149 z m -1.33371,-2.31027 -1.29197,-2.23771 h -0.007 l -1.29181,2.23771 z m -2.60579,3.72949 1.2918,2.23767 h 0.5364 l 1.29201,-2.23767 z m 0.69882,4.19389 -0.69882,-1.21041 h -3.86091 l -1.29208,2.23781 h 5.25868 z m -1.1296,-1.95622 -1.49962,-2.59778 -1.49998,2.59778 z m -7.12011,-4.08968 0.638598,1.1061 h 3.481992 l 0.63842,-1.10599 -0.65331,-1.13182 h -3.452391 z m 1.069198,1.85201 1.292012,2.23767 h 0.0367 l 1.29209,-2.23767 z m 2.605902,-3.72949 -1.29191,-2.23771 h -0.007 l -1.291872,2.23771 z M 77.856831,101.96593 h 46.725309 l -5.1677,8.95089 H 83.024425 Z m 6.459713,11.1886 h 33.805776 l -1.29191,2.2377 H 85.608346 Z m 18.733166,26.10661 1.29202,-2.2377 h -6.244487 l 1.291979,2.2377 z m 1.72251,-2.98351 1.29212,-2.23778 h -9.68971 l 1.292013,2.23778 z m 10.33551,-17.90167 H 87.331136 l -1.292119,-2.23781 h 30.360793 z"
       style="fill:#004b9d;fill-opacity:1;fill-rule:evenodd;stroke:none;stroke-width:0.352778"
       id="path20" />
    <path
       d="m 101.21714,65.392545 c 27.6116,0 49.995,22.383397 49.995,49.994995 0,27.6116 -22.3834,49.995 -49.995,49.995 -27.611599,0 -49.994996,-22.3834 -49.994996,-49.995 0,-27.611598 22.383397,-49.994995 49.994996,-49.994995 z m 0,2.983583 c -25.964727,0 -47.011413,21.046721 -47.011413,47.011412 0,25.96469 21.046686,47.01142 47.011413,47.01142 25.96469,0 47.01138,-21.04673 47.01138,-47.01142 0,-25.964691 -21.04669,-47.011412 -47.01138,-47.011412"
       style="fill:#004b9d;fill-opacity:1;fill-rule:evenodd;stroke:none;stroke-width:0.352778"
       id="path22" />
    <path
       d="m 110.82042,79.783126 c -0.15519,0.524898 -0.31009,0.894821 -0.37719,1.314521 -0.026,0.166088 1.06669,-0.11049 1.17299,-0.122202 0.0125,-0.0014 0.0245,-0.0025 0.0361,-0.0032 0.0157,-0.0043 0.0314,-0.0083 0.0473,-0.0121 0.19562,-0.04681 0.40542,-0.06611 0.60332,-0.121496 l 0.50409,-0.164395 0.0896,-0.03581 0.1004,-0.032 c 0.0327,-0.0133 0.0801,-0.04272 0.0825,-0.08061 0.002,-0.0375 -0.002,-0.07581 10e-4,-0.107492 0.003,-0.0326 -0.0396,-0.0442 -10e-4,-0.06562 0.0338,-0.0073 -0.0444,-0.0932 0.0645,-0.06798 l 0.0782,0.03609 0.0645,0.03461 c 0.0541,0.03489 0.10651,0.09839 0.15148,0.147602 0.0744,0.08199 0.13533,0.152083 0.17332,0.239607 0.0304,0.0684 0.0822,0.253294 0.0854,0.324697 l -0.008,0.0032 -0.004,0.04441 c 0.005,0.0114 -0.0684,0.185702 -0.0743,0.189195 -7e-4,0.03581 -0.0178,0.092 -0.0556,0.106892 l 0.002,0.0065 c -0.0464,0.0393 -0.0689,0.023 -0.12827,0.04978 -0.0249,0.09162 -0.28963,0.159103 -0.36279,0.153423 -0.005,-0.01312 -0.42542,0.06929 -0.80413,0.127494 -0.5504,0.120509 -1.12141,0.201013 -1.43869,0.250507 l -0.0322,0.01309 -0.0153,-0.0054 c -0.0487,0.0071 -0.0899,0.01369 -0.12252,0.01979 -0.0864,0.01619 -0.2691,0.01901 -0.2443,0.103117 0.0548,0.190182 0.006,0.395005 0.22511,0.805885 0.0648,0.119098 0.13081,0.577004 0.18299,0.740798 0.0626,0.196603 0.19011,0.568996 0.26042,0.757097 0.0604,0.161501 0.1767,0.389396 0.25019,0.557918 0.0536,0.123578 0.0898,0.258586 0.14781,0.377084 0.1602,0.325402 0.2775,0.513221 0.47138,0.760624 0.0645,0.08149 0.18063,0.23368 0.24931,0.303777 0.0684,0.06911 0.16909,0.156316 0.2401,0.215089 0.1621,0.133914 0.36671,0.23181 0.52882,0.319722 0.29118,0.158186 0.52839,0.260985 0.72407,0.321486 0.0952,0.02851 0.2129,0.05521 0.26741,0.07571 0.13811,0.05221 0.0837,0.08138 -0.20669,0.146296 -0.1784,0.03941 -0.47093,0.141817 -0.8769,0.166794 -0.14161,0.0086 -0.33751,0.01062 -0.50691,0.0423 -0.2002,0.03803 -0.46771,-0.07719 -0.64791,-0.183092 -0.2019,-0.118498 -0.32308,-0.191699 -0.48758,-0.415008 -0.0736,-0.09867 -0.13359,-0.255375 -0.19762,-0.363572 -0.21869,-0.369323 -0.3973,-0.686224 -0.47978,-0.975219 -0.0837,-0.26409 -0.14072,-0.586387 -0.20592,-0.8001 -0.1991,-0.653098 -0.32448,-1.086697 -0.45289,-1.40021 -0.0437,-0.106575 -0.0522,-0.141076 -0.12951,-0.156069 -0.0654,-0.01252 -0.0877,0.05888 -0.10629,0.08819 -0.18838,0.289207 -0.33059,0.638105 -0.5359,0.927206 -0.18049,0.253577 -0.41939,0.451167 -0.64231,0.658001 -0.27897,0.258198 -0.58518,0.486198 -1.01617,0.549381 -0.13522,0.0188 -0.32971,0.01711 -0.48391,0.01101 -0.27929,-0.01111 -0.57982,-0.115288 -0.98961,-0.204612 -0.43469,-0.09479 -1.1636,-0.157691 -1.61911,-0.311785 -0.45018,-0.151906 -0.4784,-0.236325 -0.2462,-0.335315 0.52609,-0.01129 1.79031,0.01252 2.28021,-0.0611 0.47131,-0.06988 0.8297,-0.257598 1.22449,-0.554602 0.19731,-0.148907 0.34371,-0.336797 0.52081,-0.550898 0.1415,-0.170391 0.34861,-0.416701 0.41779,-0.64329 0.0421,-0.02491 0.20783,-0.322897 0.3598,-0.643396 -0.11959,0.0091 -0.22729,-0.0036 -0.323,0.01 -0.176,0.02501 -0.30978,0.02011 -0.42101,0.04371 -0.22228,0.0477 -0.33799,0.112818 -0.40417,0.120191 -0.1149,0.01291 -0.13032,0.0133 -0.27542,0.0315 -0.1132,0.01439 -0.1253,0.069 -0.2389,0.08752 -0.10728,0.01718 -0.1144,0.02427 -0.1965,0.05567 -0.0557,0.02081 -0.14178,0.02593 -0.16619,0.05641 -0.1216,0.100612 -0.26931,0.06389 -0.36851,0.124707 -0.0968,0.0088 -0.29489,-0.06382 -0.36858,-0.209903 -0.001,-0.0036 -0.0764,-0.179599 -0.0842,-0.197697 -0.0536,-0.128517 -0.11218,-0.221897 -0.121,-0.224895 0.008,-0.326108 0.28151,-0.441819 0.4717,-0.472511 l 0.35189,-0.05701 c 0.1972,0.01962 0.4548,-0.07578 0.79149,-0.13469 0.44591,-0.07789 0.98023,-0.07539 1.46491,-0.203694 0.0971,-0.02529 0.18091,-0.04752 0.25531,-0.06629 0.0887,-0.223732 0.1923,-0.467007 0.29651,-0.724112 0.18401,-0.71381 0.82098,-2.393315 1.03187,-3.381093 l 0.18511,-1.176513 -0.016,-0.0021 c 0.0237,-0.149296 -0.15882,-0.376097 -0.13708,-0.514703 v 0 l 0.0161,0.02198 c 0.005,-0.03069 0.0104,-0.05267 -0.004,-0.08297 l 10e-4,-0.0014 0.006,0.0092 c 0.0132,-0.08512 0.0712,-0.166899 0.1397,-0.215406 l 0.10721,0.01051 -0.005,-0.0011 c 0.2788,0.04022 0.5655,0.171626 0.81632,0.282398 l -0.002,0.01323 0.0522,0.03729 c 0.0187,0.0032 0.0511,0.06869 0.0523,0.09349 0.0498,0.02163 0.10061,0.07041 0.10001,0.128411 0.0446,0.02801 0.1016,0.0908 0.0923,0.149084 l 0.01,0.0018 c 0.0142,0.08728 0.0721,0.111478 0.0621,0.205987 0.0955,0.0992 -0.10901,0.436421 -0.1712,0.523416 l -0.0194,-0.0025 c -0.0225,0.141887 -0.0875,0.339196 -0.17481,0.454307 l -0.0627,0.164183 c 3.5e-4,0 -0.0108,0.0224 -0.0131,0.032 -0.2631,0.535622 -0.63063,1.74251 -0.84981,2.4372 l 0.009,0.0021 z"
       style="fill:#004b9d;fill-opacity:1;fill-rule:evenodd;stroke:none;stroke-width:0.352778"
       id="path26" />
    <path
       d="m 123.22543,85.071124 c 0.1954,0.113206 0.1494,0.234209 0.17921,0.398216 0.0162,0.087 0.0718,0.158185 0.0506,0.262713 -0.0331,0.16577 -0.37479,0.522393 -0.48168,0.543772 -0.13783,0.02713 -0.2377,0.0085 -0.38651,0.01693 -0.0936,0.03298 -0.1875,0.0671 -0.28172,0.100365 -0.32428,0.116911 -0.6766,-0.594289 -0.578,-0.869068 0.21961,-0.146402 0.4589,-0.129822 0.7081,-0.189406 0.12802,-0.03041 0.21872,-0.135996 0.34202,-0.179317 0.12968,-0.0454 0.31528,-0.05577 0.44799,-0.08421 z m 8.4165,-0.676769 c -0.6295,0.150777 -1.44971,0.280988 -1.778,0.382094 -0.0652,0.0175 -0.10411,0.162877 -0.0882,0.207997 0.038,0.108585 0.0992,0.240383 0.097,0.346005 -0.0482,0.0399 -0.30787,0.0081 -0.4094,0.02999 -0.1693,0.0375 -0.24338,0.01489 -0.44898,0.01831 -0.29919,0.0051 -0.4095,-0.017 -0.53192,0.08989 -0.0811,0.07112 0.0429,0.640397 -0.0719,0.831603 -0.12548,0.207786 -0.51749,0.149895 -0.55837,0.389008 0.1034,0.109291 0.13038,0.214595 0.0773,0.339796 0.11288,0.04071 0.33647,-0.0081 0.54158,-0.0278 0.13271,-0.01231 0.21759,0.02939 0.3073,-0.04861 0.0185,-0.01669 0.038,-0.0332 0.057,-0.04967 -0.0316,-0.242429 -0.0807,-0.453425 0.0541,-0.702028 0.0225,-0.04258 0.104,-0.293582 0.31952,-0.380083 0.1404,-0.05609 0.19289,-0.2915 0.3164,-0.314395 0.1875,-0.03581 0.34131,0.0087 0.465,0.06258 0.26321,0.237807 -0.015,0.561304 0.12541,0.86942 0.17988,0.108479 1.02669,-0.252201 1.22608,-0.327624 0.002,-0.0092 0.004,-0.0187 0.006,-0.0272 -0.32639,-0.262607 -0.72771,-0.500274 -0.70369,-0.833578 0.29979,-0.325896 0.92657,0.117404 1.28549,0.263878 0.2685,0.10922 0.42069,-0.02748 0.63631,0.06251 0.31227,0.12961 0.45818,1.592192 0.0623,1.74378 -0.81192,-0.257669 -2.62672,0.121532 -3.56733,0.347028 -0.008,0.01598 -0.0146,0.03129 -0.0218,0.0465 0.0462,0.07458 0.0253,0.109008 0.009,0.18609 0.38661,0.314996 0.8594,0.554002 1.28891,0.871502 0.1372,0.1016 0.28998,0.340113 0.44602,0.830616 0.0957,0.300602 -0.28762,0.395887 -0.36273,0.486692 -0.1676,0.112501 -0.3229,0.02371 -0.6538,0.0139 -0.19177,-0.0051 -0.45519,-0.100012 -0.68189,-0.154199 -0.2239,-0.05472 -0.41059,-0.0684 -0.66071,-0.153317 -0.20028,-0.0684 -0.5744,-0.121179 -0.78649,-0.191206 -0.43391,-0.143898 -0.8776,-0.249978 -1.29279,-0.376766 -0.0794,-0.0081 -0.15441,-0.01813 -0.17441,-0.0339 -0.0467,0.004 -0.0945,-0.0296 -0.12869,-0.0581 l -0.007,0.0085 -0.13649,-0.0611 0.006,0.0018 c -0.005,-0.0051 -0.0139,-0.01062 -0.0228,-0.0164 -0.0376,-0.01461 -0.0735,-0.02879 -0.10919,-0.04442 -0.0671,-0.02819 -0.13229,-0.0574 -0.19741,-0.08548 -0.0649,-0.01803 -0.12079,-0.02491 -0.14898,-0.0096 l -0.0658,-0.05422 -0.0735,0.08922 0.17829,0.146473 0.003,-0.0032 0.001,7.06e-4 c 0.0266,0.112607 0.33959,0.136313 0.42581,0.206904 l 0.0102,-0.01231 0.2281,0.0865 c 0.0191,0.04142 0.2116,0.146015 0.2534,0.179988 0.003,0.0327 0.0117,0.06361 0.0374,0.08661 v 0 l -0.005,-0.0044 0.0115,0.102799 -3.5e-4,0.0011 c 0.0315,0.02558 0.0231,0.09169 0.0471,0.124178 l -0.0314,0.03803 c 0.0576,0.04759 0.0436,0.04068 0.0494,0.103082 v 0 c 0.002,0.01799 -0.0223,0.046 -0.0341,0.0598 l 0.009,0.0066 -0.005,0.156105 -0.0616,0.08922 0.0119,0.0092 -0.0736,0.08943 -0.0117,-0.0096 -0.0124,0.0151 -0.15028,0.0011 -0.005,0.0068 -0.1517,0.0133 -0.005,-0.0042 -0.0371,0.01658 -0.0843,0.03291 -0.0414,-0.03372 c -0.0504,0.06121 -0.0564,0.03461 -0.12972,0.04272 l -0.0327,-0.02699 -0.0164,0.02028 c -0.23946,-0.02392 -0.28017,-0.0514 -0.50768,-0.04949 -0.0487,0.0011 -0.13031,0.004 -0.19279,0.03069 -0.0507,0.02159 -0.0585,0.05461 -0.0929,0.08791 -0.0404,0.03838 -0.0991,0.0841 -0.0713,0.13769 0.0263,0.04999 0.15522,0.104316 0.19092,0.117404 l -0.001,-3.17e-4 c -0.0136,-0.01097 0.0253,0.01471 0.0419,0.01901 l -0.006,-0.0051 c 0.0457,0.0363 0.11741,0.03373 0.1608,0.0695 v 0 c 0.003,-0.0044 0.36639,0.138007 0.6882,0.282117 0.34219,0.153281 0.7838,0.382305 0.7929,0.384316 l -0.007,-0.0053 c 0.30628,0.244122 0.1936,0.196003 0.3338,0.545994 l -0.0182,0.02293 c 0.0502,0.04209 0.048,0.05637 0.0538,0.115288 l -0.0386,0.0472 0.0484,0.03969 c -0.002,0.111725 0.1156,0.338314 0.0296,0.432118 -0.21421,0.235091 -0.11801,0.18669 -0.42309,0.08149 -0.1173,-0.03979 -0.2964,-0.18669 -0.4064,-0.236609 -0.2304,-0.104492 -0.42933,-0.231704 -0.6544,-0.330588 -0.26582,-0.116698 -0.48401,-0.286702 -0.72281,-0.391089 -0.2498,-0.109114 -0.36202,-0.270404 -0.568,-0.33722 v 0 c 0.009,-0.01129 -0.1456,-0.007 -0.165,-0.02268 -0.43882,0.487892 -1.09841,1.577799 -1.48562,2.070276 -0.10188,0.301802 -0.32847,0.416525 -0.55537,0.590903 l -0.009,-0.0072 -0.19791,0.236114 0.005,-0.0025 c -0.0143,0.0072 -0.0235,0.01489 -0.0328,0.02632 l 0.005,-0.0021 -0.21672,0.130386 -0.0192,-0.0157 c -0.0633,0.07669 -0.13899,0.150918 -0.1821,0.110313 -0.11926,-0.113019 -0.47846,-0.448052 -0.84514,-0.774548 l 0.002,-0.0081 -0.0623,-0.187219 0.0174,-0.02127 -0.0472,-0.0382 c -0.004,-0.03581 -0.0796,-0.170604 -0.0577,-0.197697 l -0.005,-0.0035 c -0.004,-0.0471 -0.0693,-0.194804 -0.10199,-0.229588 l 0.002,-0.0025 -0.0606,-0.09772 c 0,0 -0.11762,-0.144675 -0.12341,-0.203589 v 0 c -0.0209,-0.220591 -0.098,-0.882685 -0.26289,-1.019316 0.001,-0.02889 -0.011,-0.05598 -0.0326,-0.07429 l 7e-4,7.06e-4 -0.0473,-0.219922 0.0392,-0.06869 -0.0606,-0.06442 c 0.003,-0.01228 0.005,-0.02349 0.008,-0.03619 0.0961,-0.01831 0.25728,0.180517 0.49841,0.435504 0.15398,0.162701 0.3187,0.265007 0.4815,0.44249 0.1269,0.138324 0.199,0.317923 0.3023,0.446016 0.0736,0.09201 0.13257,0.168311 0.19519,0.216289 0.0398,0.03002 0.0953,0.04459 0.1119,0.05842 0.0185,-0.02293 0.0369,-0.04611 0.0567,-0.0708 0.24779,-0.320322 0.5479,-0.814705 0.7511,-1.078124 0.1777,-0.230682 0.44831,-0.558306 0.69631,-0.825077 -0.23749,-0.195403 -1.87861,-0.849418 -1.95611,-0.815904 l 0.0255,-0.01171 c -0.2106,-0.172994 -0.75137,-0.287294 -0.7815,-0.627089 v 2.11e-4 c -0.0133,0.0062 -0.006,-0.0291 -0.0143,-0.04099 l 0.01,-0.0121 c -0.0703,-0.05793 -0.0799,-0.139632 -0.12689,-0.209835 l 0.0217,-0.02649 c -0.0555,-0.04879 -0.17011,-0.338 -0.12051,-0.398501 l -3.5e-4,-7.06e-4 -0.0236,-0.151694 0.009,-0.01041 -0.0335,-0.06879 v 0 c -0.0207,0.02582 -0.003,-0.06738 0.0175,-0.09349 l -0.0195,-0.01651 c -0.003,-0.03111 -0.002,-0.0465 -0.016,-0.0769 0.0358,-0.02798 0.11222,-0.189795 0.1747,-0.175507 0.14711,-0.177871 0.42831,0.1772 0.55802,0.176918 0.60879,0.300813 0.5418,0.406505 1.054,0.66361 0.56698,0.28508 1.30351,0.691303 1.39181,0.763975 l 0.0451,0.02103 v 0 c 0.1119,0.09257 0.50341,0.187572 0.74179,0.193499 0.28222,0.0059 0.4203,-0.180799 0.57083,-0.289701 l 0.10858,-0.0092 c 0.0815,-0.01319 0.15692,-0.05059 0.22342,-0.115006 l 0.18026,-0.151094 c -0.16337,-0.134797 -0.23787,-0.305188 -0.39017,-0.434199 l 0.001,7.05e-4 -0.0832,-0.0835 0.0104,-0.01281 c -0.18192,-0.150001 -0.3363,-0.22419 -0.37761,-0.449192 l 0.006,-0.0066 -0.008,-0.0065 0.0489,-0.146085 c 0.0448,0.0092 0.17738,-0.0032 0.21279,-0.0327 0.0505,0.0273 0.24871,0.06061 0.29849,0.05599 v 0 c 0.0354,-0.0048 0.0741,0.04593 0.0979,0.06523 l 0.0377,-0.0441 -7e-4,-0.0011 v 0 c 0.0962,0.07832 0.55509,0.0442 0.67211,0.02999 l 0.0301,0.02512 0.0171,-0.02032 c 0.073,0.02441 0.1434,0.02173 0.20637,0.05831 0.0156,-7.06e-4 0.0311,-0.0014 0.0462,-0.0021 l 0.006,-0.0073 0.0304,0.0043 c 0.0746,-0.0061 0.1506,-0.01517 0.22652,-0.01528 0.0816,1.77e-4 0.16941,0.03108 0.2424,0.04808 1.02711,0.242711 2.1082,0.338525 3.0529,0.361809 0.008,-0.0095 0.0161,-0.01919 0.0241,-0.02921 -3.5e-4,-0.0057 -7.1e-4,-0.01161 -0.002,-0.01729 -0.66061,-0.57531 -1.79631,-0.800806 -2.62319,-1.087403 -0.54232,-0.188207 -1.21592,-0.431412 -1.68342,-0.596018 -0.0705,-0.01027 -0.15381,-0.06068 -0.23639,-0.133279 v 0 c -0.012,-0.0069 -0.0242,-0.01199 -0.0368,-0.01461 -0.0157,-0.01231 -0.0303,-0.02131 -0.0548,-0.02311 -0.006,-0.0021 -0.0125,-0.0039 -0.0194,-0.0047 -0.0117,-0.0081 -0.0316,-0.0176 -0.0447,-0.02141 -0.007,-0.0043 -0.0142,-0.0086 -0.0234,-0.01139 -0.0106,-0.009 -0.0193,-0.01598 -0.0326,-0.02138 l -0.21351,-0.17653 -0.0134,0.01743 c -0.031,-0.02632 -0.0574,-0.05161 -0.0934,-0.06971 l -0.1096,-0.09081 c -0.005,-0.0062 -0.0113,-0.01351 -0.0166,-0.01909 -0.008,-0.0266 -0.022,-0.04441 -0.0428,-0.0617 l 0.001,-0.0018 -0.40259,-0.331118 c -0.004,-0.01048 -0.0106,-0.01958 -0.0184,-0.0278 -0.004,-0.0121 -0.0117,-0.0235 -0.0211,-0.03348 -0.007,-0.0182 -0.0174,-0.04152 -0.0289,-0.05503 -0.002,-0.02258 -0.0133,-0.04438 -0.0321,-0.06018 v 0 l 0.019,0.01559 c -7.1e-4,-0.01129 -0.002,-0.02138 -0.005,-0.03239 l 0.0153,-0.01901 -7.1e-4,-0.0011 0.104,-0.126294 c 0.008,-0.0097 0.0133,-0.02011 0.0165,-0.03002 0.007,-0.0087 0.0119,-0.01789 0.0151,-0.02808 l 0.0527,-0.06371 -0.0299,0.0025 v 0 c 0.0173,-0.0018 0.0342,-0.0084 0.0489,-0.01983 0.007,-0.0032 0.0127,-0.0055 0.0194,-0.0089 h 3.5e-4 c 0.0159,-0.01908 0.0636,-0.01951 0.0854,-0.02141 v 0 c 0.006,-7.06e-4 0.0253,0.0047 0.0369,0.0046 0.017,0.0038 0.0362,0.0074 0.0535,0.0077 l 0.0829,0.06812 0.0349,-0.04251 c 0.0111,0.0018 0.0224,0.0018 0.0336,-3.17e-4 0.0115,0.0053 0.0244,0.0086 0.0382,0.0092 0.009,0.0058 0.0257,0.01199 0.036,0.0152 0.0103,0.0083 0.0203,0.01521 0.0331,0.01909 0.0183,0.01492 0.0392,0.03542 0.0613,0.04283 0.006,0.0046 0.0122,0.0092 0.0186,0.01277 l 0.0941,0.07832 0.0207,-0.02589 c 0.007,0.0032 0.0157,0.006 0.0266,0.0085 0.0162,0.01048 0.0573,0.02491 0.0773,0.02939 0.0125,0.0062 0.0267,0.0099 0.0419,0.0103 0.0125,0.006 0.0274,0.0093 0.0429,0.0093 0.0235,0.0053 0.0301,0.01178 0.0488,0.0272 l 0.009,-0.01122 c 0.008,0.0014 0.0172,0.0025 0.0255,0.0021 0.0102,0.0037 0.0206,0.0053 0.0317,0.0057 0.0133,0.0069 0.0291,0.0102 0.0453,0.0089 0.0143,0.005 0.0242,0.0094 0.0393,0.01319 0.0141,0.007 0.03,0.01058 0.0461,0.0098 0.01,0.0028 0.0206,0.0049 0.0299,0.0073 0.0105,0.0083 0.0214,0.01461 0.0316,0.02339 l 0.003,-0.0043 c 0.009,0.0025 0.0185,0.0041 0.0276,0.004 0.01,0.0047 0.0212,0.0083 0.0333,0.009 0.01,0.0035 0.0227,0.0093 0.0316,0.01118 0.0225,0.0055 0.0429,0.0188 0.0682,0.01951 0.008,0.005 0.0177,0.0083 0.0279,0.01118 0.062,0.01242 0.12312,0.02533 0.18182,0.03433 0.76687,0.1161 1.61978,0.916976 2.16997,-0.133597 -0.0158,-0.07253 0.0357,-0.337925 -0.0755,-0.371827 -0.16238,0.0064 -0.42548,0.04822 -0.58758,0.05482 -0.15752,-0.0082 -0.49872,0.02889 -0.73561,-0.0315 -0.0986,-0.0248 -0.1856,-0.05362 -0.24501,-0.08491 -3.5e-4,-0.0063 -0.001,-0.0121 -0.001,-0.01778 0.0642,-0.0799 0.13801,-0.175119 0.22218,-0.231705 0.3659,-0.243205 0.88953,-0.276401 1.28732,-0.380612 -0.0253,-0.124213 -0.0717,-0.286914 -0.082,-0.45339 -0.0198,-0.318699 -0.23019,-0.0883 -0.3997,-0.127106 -0.17,-0.03919 0.0601,0.04939 0.002,0.242782 -0.059,0.194416 -0.54341,0.218828 -0.6726,0.253612 -0.12989,0.03489 -0.24758,-0.04198 -0.35849,0.0684 -0.22991,0.228317 -0.4474,0.802287 -0.8672,0.536892 -0.077,-0.04791 -0.55199,-0.662799 -0.4722,-0.713175 0.0477,-0.11483 0.20511,-0.321416 0.24899,-0.375215 0.16341,-0.197908 0.41992,-0.577109 0.49569,-0.884202 0.0313,-0.127 -0.007,-0.246909 -0.026,-0.339196 -0.0119,-0.0556 0.0438,-0.0701 0.0719,-0.07881 0.24162,0.162524 0.4602,0.603814 0.4747,0.864905 0.1603,0.337008 0.63782,-0.592808 0.84032,-0.747607 0.1646,-0.127 0.3521,0.03493 0.3944,0.129822 0.0424,0.09529 7.1e-4,0.464679 -0.10819,0.596795 -0.10873,0.132009 0.16287,0.194486 0.16287,0.194486 l 0.27492,-0.358704 c 0,0 0.0563,-0.215689 -0.0924,-0.378178 -0.10191,-0.111795 -0.17102,-0.500027 -0.1174,-0.663328 0.0689,-0.214383 0.3545,0.127705 0.40957,0.114829 0.19311,0.01799 0.32883,0.08237 0.51492,0.176671 0.13458,0.06872 0.1954,0.128799 0.31461,0.20193 0.2674,0.163195 0.012,0.756779 0.32109,0.776499 0.75431,-0.232727 1.58161,-0.451414 2.33511,-0.736811 l 1.1e-4,3.52e-4 0.0774,-0.02999 c 0.0688,-0.01161 0.25978,-0.03172 0.28726,-0.07362 0.0111,-0.0036 0.0215,-0.0095 0.0304,-0.0169 0.0154,-0.0062 0.0498,-0.02639 0.0606,-0.03679 0.0786,-0.04558 0.16119,-0.05697 0.2377,-0.117581 0.0104,-0.0048 0.0297,-0.01542 0.0387,-0.0229 0.0189,-0.0074 0.0423,-0.02222 0.0547,-0.03782 0.0856,-0.05958 0.26138,-0.187995 0.25908,-0.292206 -7e-4,-0.02829 0.0107,-0.03718 0.0257,-0.06149 0.10728,-0.175013 0.0803,-0.0581 0.11857,-0.228494 0.01,-0.01362 0.0268,-0.03362 0.0312,-0.04981 l 0.0255,-0.03891 c 0.005,0.0021 0.01,0.0035 0.0154,0.0044 0.13501,0.08939 0.0486,0.0028 0.15893,0.07472 0.006,0.0092 0.0146,0.01778 0.0246,0.0247 0.005,0.007 0.0106,0.01358 0.0173,0.01951 0.0241,0.04829 0.2032,0.199284 0.21611,0.207469 0.004,0.0055 0.007,0.01072 0.0112,0.01482 0.006,0.01739 0.0175,0.03052 0.0305,0.03969 0.0631,0.04889 0.0262,0.017 0.0663,0.08262 0.0246,0.04068 0.0622,0.07969 0.0952,0.101989 0.0107,0.0097 0.0163,0.0193 0.0296,0.02921 0.005,0.0096 0.0115,0.0187 0.0191,0.0267 0.003,0.0064 0.007,0.0127 0.0113,0.01838 0.004,0.02611 0.0187,0.04491 0.0345,0.06512 0.005,0.01097 0.0113,0.0223 0.0209,0.03217 0.005,0.01831 0.016,0.03521 0.0318,0.0484 0.008,0.01722 0.0199,0.03471 0.0343,0.04731 0.005,0.0074 0.012,0.01411 0.0191,0.02039 0.007,0.0095 0.0152,0.01831 0.0254,0.02551 0.003,0.0038 0.005,0.007 0.008,0.0103 0.002,0.0074 0.005,0.01372 0.008,0.02011 0.006,0.0267 0.009,0.03919 0.0222,0.0628 0.002,0.0043 0.005,0.0235 0.007,0.02949 0.005,0.02311 0.0172,0.04022 0.0223,0.06099 0.004,0.02103 0.008,0.04473 0.018,0.06343 0.006,0.03478 0.0173,0.0218 0.008,0.0538 -0.004,0.01408 -0.005,0.02819 -0.003,0.04198 -0.002,0.0218 0.005,0.0412 0.008,0.06251 -0.002,0.01739 -0.004,0.03228 2.8e-4,0.04988 -1.7e-4,0.0048 -7e-4,0.0092 -7e-4,0.01383 -0.003,0.01277 -0.004,0.02618 -0.002,0.04007 -0.001,0.0103 -0.001,0.02769 -7.1e-4,0.03941 -0.004,0.01242 -0.005,0.02491 -0.003,0.03789 -0.008,0.0224 -0.008,0.04702 1.1e-4,0.06932 7e-4,0.01379 -0.008,0.02939 -0.005,0.05429 -0.004,0.0158 -0.004,0.03238 -7e-5,0.04731 -10e-4,0.0095 -0.002,0.01919 -0.002,0.02868 -0.004,0.01662 -0.01,0.0338 -0.009,0.05122 -0.003,0.0103 -0.005,0.02459 -0.006,0.03577 l -0.0613,0.09342 c -0.0207,0.0074 -0.0335,0.02441 -0.0469,0.04448 -0.008,0.01291 -0.02,0.01852 -0.0298,0.03232 -0.0198,0.0099 -0.0459,0.0593 -0.0832,0.08389 -0.0214,0.0109 -0.0454,0.04082 -0.0683,0.04551 v 0 c -0.0166,0.0036 -0.0334,0.0065 -0.0485,0.01499 -0.006,0.0011 -0.0112,0.0025 -0.0167,0.0045 -0.0642,0.0041 -0.2086,0.0088 -0.26632,0.03821 -0.0138,-7.06e-4 -0.0508,0.0032 -0.0637,0.0076 -0.0343,-0.0025 -0.0302,-0.0052 -0.0607,0.014 -0.0118,-0.0025 -0.0334,7.05e-4 -0.0446,0.0048 -0.0163,-0.0041 -0.0332,-0.0043 -0.0488,-7.06e-4 -0.0132,-2.82e-4 -0.0261,7.06e-4 -0.04,3.53e-4 -0.1603,-0.0363 -0.31827,-0.02399 -0.48538,-0.0032 -0.0175,-0.0018 -0.0405,-0.01009 -0.0591,-0.009 -0.009,-1.06e-4 -0.019,-0.0021 -0.0283,-0.0025 -0.0109,-0.0039 -0.0216,-0.0056 -0.032,-0.0045 l -0.10488,-0.0032 0.002,0.0021 z"
       style="fill:#004b9d;fill-opacity:1;fill-rule:evenodd;stroke:none;stroke-width:0.352778"
       id="path30" />
    <path
       d="m 94.818139,83.029634 c 0.268287,-0.04928 0.48708,-0.182597 0.709506,-0.314007 0.137584,-0.08128 0.28247,-0.171979 0.434975,-0.201577 0.505108,-0.09772 0.848925,0.359586 0.658002,0.858802 -0.124707,0.325896 -0.255306,0.649287 -0.379201,0.975395 -0.04339,0.114406 -0.07479,0.233504 -0.122379,0.384704 0.147497,0.05359 0.271075,0.103999 0.398075,0.143299 0.130598,0.0405 0.265006,0.06907 0.397122,0.105304 0.382305,0.104881 0.463091,0.179599 0.471487,0.432893 0.0095,0.284092 -0.212901,0.594995 -0.484187,0.684283 -0.311397,0.102623 -0.588822,0.04501 -0.836895,-0.166793 -0.140124,-0.118886 -0.281129,-0.23689 -0.421711,-0.3556 -0.301201,0.352213 -0.587904,0.678709 -0.864693,1.013213 -0.25072,0.302683 -0.729404,0.386186 -1.064825,0.173602 -0.02099,-0.01312 -0.03979,-0.02981 -0.0599,-0.04463 -0.42799,-0.316583 -0.416878,-0.425697 0.03641,-0.705274 0.317606,-0.195721 0.625405,-0.408904 0.926818,-0.62932 0.116487,-0.0852 0.203588,-0.211208 0.305576,-0.320604 -0.06159,-0.147285 -0.122273,-0.269487 -0.164571,-0.397687 -0.07821,-0.237913 -0.01231,-0.328506 0.233892,-0.33341 0.133985,-0.0028 0.268287,0.0011 0.425803,0.0018 0.069,-0.258198 0.131903,-0.493783 0.190676,-0.713881 -0.179881,-0.152224 -0.340078,-0.166194 -0.515973,-0.0828 -0.07793,0.03697 -0.169897,0.09638 -0.243099,0.08198 -0.349708,-0.06809 -0.460198,0.174908 -0.628297,0.403508 -0.504825,0.6852 -0.910308,1.42501 -1.29921,2.177591 -0.164994,0.319511 -0.361597,0.623217 -0.557389,0.925512 -0.0648,0.100401 -0.166229,0.180305 -0.259927,0.25901 -0.124777,0.104493 -0.257774,0.09479 -0.365795,-0.02441 -0.141393,-0.156105 -0.288784,-0.311221 -0.400896,-0.487822 -0.101989,-0.160584 -0.118216,-0.348297 -0.0417,-0.538797 0.163795,-0.408376 0.384105,-0.786977 0.714798,-1.073185 0.595313,-0.515797 1.044611,-1.132205 1.391497,-1.83321 0.08209,-0.165488 0.199002,-0.313796 0.317112,-0.497205 -0.07112,-0.104987 -0.143616,-0.216994 -0.221192,-0.325402 -0.05803,-0.08057 -0.136207,-0.149402 -0.181998,-0.235973 -0.139805,-0.263702 -0.02893,-0.501015 0.260774,-0.555025 0.171097,-0.03179 0.347697,-0.03239 0.519712,-0.0605 0.363185,-0.05948 0.603708,-0.295769 0.69088,-0.649181 0.0309,-0.125907 0.01831,-0.223697 -0.104775,-0.282293 -0.111901,-0.05309 -0.176318,0.01178 -0.251319,0.09267 -0.415572,0.448028 -0.744079,0.487328 -1.23758,0.158821 0.0804,-0.192617 0.161184,-0.385904 0.239289,-0.573123 -0.271003,-0.197979 -0.276683,-0.203976 -0.467501,-0.01199 -0.134514,0.135325 -0.267194,0.217029 -0.480412,0.09723 0.02053,-0.132715 0.04621,-0.263419 0.05962,-0.395499 0.0133,-0.132397 0.0145,-0.2661 0.0205,-0.392606 -0.191911,-0.058 -0.256892,0.06601 -0.331505,0.157691 -0.0545,0.06661 -0.103082,0.144392 -0.13141,0.225002 -0.381388,1.092094 -1.04207,2.039514 -1.575082,3.052904 -0.382305,0.727286 -0.759107,1.457783 -1.128395,2.191702 -0.290724,0.577991 -0.552908,1.170093 -0.852311,1.743005 -0.253294,0.484575 -0.540914,0.951088 -0.81601,1.423881 -0.03718,0.06399 -0.08629,0.121708 -0.135784,0.176989 -0.328189,0.364208 -0.478614,0.335527 -0.671901,-0.123578 -0.029,-0.0683 -0.06071,-0.139806 -0.107914,-0.195404 -0.252977,-0.297991 -0.217382,-0.620607 -0.08597,-0.949713 0.129398,-0.323391 0.285996,-0.637399 0.39317,-0.967775 0.055,-0.170004 0.209021,-0.08671 0.283528,-0.175895 0.1911,-0.229306 0.421781,-0.433705 0.574287,-0.685624 1.317801,-2.174099 2.621209,-4.356911 3.931003,-6.535596 0.0907,-0.150989 0.160196,-0.291183 0.148801,-0.483905 -0.01542,-0.26289 0.188595,-0.44189 0.380189,-0.56321 0.146896,-0.09317 0.239007,-0.203588 0.326919,-0.337785 0.259397,-0.395181 0.524898,-0.786412 0.781403,-1.183181 0.0489,-0.07542 0.06907,-0.16951 0.13469,-0.337115 -0.250789,0.0986 -0.421499,0.160691 -0.588292,0.232481 -0.490502,0.211102 -0.980511,0.424109 -1.468508,0.641209 -0.124707,0.05581 -0.240806,0.13021 -0.361421,0.195509 -0.516502,0.279506 -1.051101,0.387597 -1.614381,0.152189 -0.346393,-0.14478 -0.45212,-0.310586 -0.432718,-0.630873 0.67303,-0.170427 1.355902,-0.302225 2.009916,-0.521017 0.652992,-0.218087 1.312298,-0.443512 1.963597,-0.835801 -0.441114,-0.284198 -0.829804,-0.541585 -1.226185,-0.787083 -0.195227,-0.121003 -0.318206,-0.277318 -0.323815,-0.509799 -0.0042,-0.188419 0.09779,-0.283916 0.281305,-0.234527 0.439385,0.117899 0.884484,0.112395 1.333288,0.126824 0.265219,0.0087 0.544125,0.0889 0.786413,0.202071 0.343993,0.160726 0.401496,0.366007 0.269804,0.786624 0.1264,-0.0418 0.226307,-0.06371 0.315983,-0.106715 0.302507,-0.14531 0.594395,-0.314502 0.903111,-0.444289 0.484188,-0.203517 0.653203,-0.04741 0.791492,0.312985 0.02671,0.06981 0.06301,0.136101 0.08802,0.20641 0.133103,0.375109 -0.01732,0.675111 -0.397404,0.783096 -0.357011,0.101318 -0.718714,0.186302 -1.072303,0.297392 -0.12312,0.0388 -0.26282,0.108726 -0.336091,0.208103 -0.533012,0.720126 -1.051631,1.451222 -1.572825,2.180202 -0.0284,0.03962 -0.04188,0.08982 -0.06629,0.144498 0.05041,0.06851 0.09409,0.145627 0.154411,0.205705 0.177094,0.175895 0.26797,0.162313 0.407388,-0.04251 0.09091,-0.133491 0.180093,-0.269981 0.284515,-0.392889 0.398992,-0.470887 0.74168,-0.966893 0.76387,-1.614099 0.233221,-0.146015 0.449615,-0.06911 0.64142,0.04501 0.0732,0.04378 0.134797,0.190571 0.122308,0.279083 -0.03591,0.254317 -0.112712,0.50292 -0.17533,0.762106 0.251707,0.179987 0.283704,0.190006 0.483799,-0.005 0.150601,-0.146191 0.299015,-0.306493 0.401109,-0.487292 0.08449,-0.150283 0.188312,-0.18101 0.331399,-0.172085 0.266806,0.0169 0.492407,0.213784 0.594219,0.499287 0.0962,0.269099 -0.01221,0.458293 -0.221121,0.613304 -0.200096,0.148202 -0.387774,0.318805 -0.604273,0.437092 -0.435328,0.238618 -0.703227,0.623605 -0.964212,1.020092 -0.02611,0.03951 -0.03401,0.0913 -0.05341,0.14612 0.149296,0.145204 0.286808,0.134585 0.415713,-0.01051 0.115888,-0.130281 0.212196,-0.280494 0.339302,-0.397898 0.115605,-0.106786 0.250578,-0.210891 0.395993,-0.262291 0.222709,-0.0787 0.367206,0.02558 0.458294,0.250684 0.05429,0.134197 0.123613,0.265818 0.207221,0.383717 0.145486,0.204893 0.143299,0.378283 -0.05461,0.556189 -0.14799,0.132715 -0.317323,0.241512 -0.472898,0.366007 -0.242112,0.193781 -0.254706,0.242394 -0.161819,0.53781 0.0943,0.299684 0.04921,0.429789 -0.227789,0.585187 -0.238584,0.133985 -0.488315,0.248709 -0.72771,0.381812 -0.281587,0.156386 -0.439385,0.391901 -0.485281,0.71568 z m -0.519501,-3.304081 c 0.147391,-0.262114 0.286879,-0.4826 0.394406,-0.717726 0.03097,-0.06819 -0.0011,-0.21389 -0.05651,-0.258375 -0.04741,-0.03771 -0.189089,-0.0073 -0.256187,0.03958 -0.244828,0.170991 -0.344523,0.442418 -0.475227,0.720619 0.126329,0.0695 0.233221,0.127988 0.393523,0.2159 z m -1.513593,2.182177 c -0.05052,0.191418 -0.08431,0.3193 -0.105904,0.400827 0.09141,0.236784 0.246275,0.446193 0.22599,0.636481 -0.023,0.212514 -0.174202,0.435716 -0.325191,0.604203 -0.279999,0.312702 -0.65412,0.375602 -1.214226,-0.072 0.166829,-0.727181 0.57591,-1.194188 1.419331,-1.569509"
       style="fill:#004b9d;fill-opacity:1;fill-rule:evenodd;stroke:none;stroke-width:0.352778"
       id="path34" />
    <path
       d="m 74.087012,79.149749 c 0.03732,-0.0025 0.02353,-0.03651 0.185208,-0.0099 0.130493,0.06269 0.136525,0.0533 0.268817,0.08869 0.132292,0.03542 0.373909,0.213607 0.601486,0.371405 0.227718,0.157727 0.546418,0.56702 0.634295,0.919515 0.08791,0.35239 0.06421,0.789905 -0.0145,1.097492 -0.01919,0.07539 -0.134972,0.358492 -0.218581,0.718291 -0.09659,0.415819 -0.169721,0.942728 -0.312914,1.504314 -0.06978,0.273192 -0.19251,0.597183 -0.25661,0.851888 -0.07109,0.282222 -0.106786,0.565327 -0.163901,0.779604 -0.06759,0.2534 -0.147496,0.447322 -0.1766,0.53601 -0.160973,0.491208 -0.365478,1.160286 -0.494277,1.249081 0,0 0.04829,-0.876971 0.0786,-1.536771 0.01319,-0.285503 0.023,-0.530295 0.02409,-0.645795 -0.0099,-0.335315 0.0647,-0.687917 0.06981,-1.018117 0.01379,-0.897501 -0.0096,-1.769286 -0.01743,-2.734909 0.01192,-0.355882 -0.0357,-0.672783 -0.104281,-1.011908 -0.06911,-0.341771 -0.264513,-1.032969 -0.103223,-1.158875 z m 4.998826,10.309084 0.352107,0.369393 0.02769,0.01722 c 0.131375,0.205105 0.254706,0.454801 0.332705,0.641491 0.04198,0.100295 0.102799,0.164394 0.142699,0.209021 0.0562,0.06269 0.128587,0.02949 0.286596,-0.03013 0.08548,-0.03217 0.16189,0.0063 0.237808,-0.0042 0.09998,-0.0139 0.169086,0.0381 0.206586,0.06851 0.04431,0.03602 0.172685,0.138289 0.211103,0.24571 0.0471,0.13148 0.04978,0.277389 0.06579,0.363184 0.0291,0.156316 0.02141,0.265995 0.02141,0.265995 -0.0045,0.208103 -0.0045,0.310197 0.02829,0.496923 0.04459,0.253506 0.0387,0.442277 0.0387,0.442277 0.100788,0.0375 0.158609,-0.02889 0.229799,-0.0979 0.187184,-0.181398 0.336797,-0.556189 0.336797,-0.556189 0.104387,-0.343606 0.248603,-0.358493 0.349003,-0.4312 0.09779,-0.0708 0.476003,-0.0021 0.677087,0.161783 0.218193,0.1778 0.219322,0.482918 0.144921,0.588222 -0.200907,0.284586 -0.393101,0.494207 -0.598417,0.778087 -0.148978,0.206022 -0.311185,0.485598 -0.458294,0.694796 -0.01281,0.0465 -0.248214,0.236925 -0.304412,0.517913 -0.04911,0.245604 -0.451202,0.441113 -0.574004,0.41469 -0.2292,-0.04911 -0.825571,-0.202495 -0.908192,-0.448486 -0.0678,-0.201789 -0.165488,-0.542996 -0.190182,-0.597606 -0.03041,-0.0672 -0.0078,-0.648194 -0.163019,-0.978888 -0.102905,-0.219216 -0.186407,-0.349603 -0.235479,-0.493818 -0.03291,-0.09659 -0.06611,-0.120086 -0.141111,-0.143087 0,0 -0.135819,0.0082 -0.2915,0.02028 -0.09832,0.0076 -0.210714,0.102905 -0.31429,0.09592 -0.0659,-0.0044 -0.233609,7.1e-5 -0.284621,-0.0169 -0.06488,-0.02173 -0.08781,-0.09483 -0.0194,-0.213501 0.0206,-0.0357 0.03591,-0.14291 0.0719,-0.185102 0.03143,-0.03679 0.0714,-0.0798 0.09571,-0.108727 0.0164,-0.01937 0.05951,-0.06177 0.072,-0.07479 0.159103,-0.165594 0.38481,-0.276084 0.38481,-0.276084 l -0.0176,-0.0477 c -0.029,-0.06403 -0.04311,-0.10802 -0.112501,-0.179211 -0.05352,-0.05482 -0.171591,-0.142522 -0.267793,-0.254917 -0.07881,-0.09207 -0.329495,-0.543983 -0.461292,-0.838906 l -0.179917,-0.260491 7.06e-4,-3.53e-4 -0.0025,-0.0038 -0.07909,0.09331 c -0.06248,0.110596 -0.0616,0.282998 -0.175295,0.369394 0.01559,0.02261 -0.141287,0.21089 -0.105904,0.262219 l -0.03418,0.121674 -0.01711,0.01182 c 0.0285,0.05768 -0.0099,0.08579 0.0014,0.142487 -0.03761,0.026 -0.304306,0.97162 -0.340607,0.919021 v 0 c -0.0028,0.01457 -0.0046,0.02618 -0.0032,0.03937 -0.113488,0.09543 -0.221685,0.114617 -0.364313,0.152329 -0.0302,-0.04371 -0.147285,0.0326 -0.197097,0.05207 l -0.08329,-0.04269 -0.0042,0.0032 c -0.322016,-0.222109 -0.400403,-0.582789 -0.366289,-0.93539 0.0081,-0.0056 0.05147,-0.285715 0.04269,-0.316618 0.02512,-0.07659 -0.05831,-0.0985 -0.01429,-0.277389 l -7.05e-4,-0.0011 c 0.0321,-0.08421 0.0599,-0.219815 0.03238,-0.30801 l -0.0021,-0.06339 c 0.02791,-0.09042 0.0345,-0.169898 -0.0035,-0.284621 0.0077,-0.03619 7.06e-4,-0.06629 0.02671,-0.0974 -0.0069,-0.01707 0.04992,-0.274003 0.05729,-0.326778 0.01062,-0.09282 0.03951,-0.234809 0.05951,-0.328225 0.02868,-0.01979 0.05429,-0.280281 0.06071,-0.328965 0.0035,-0.0025 0.0084,-0.522605 0.0108,-0.581907 l 0.0028,-0.0272 0.0418,-0.147214 c -0.03803,-0.06071 0.0569,-0.333093 0.0538,-0.337608 0.0071,-0.03958 0.04819,-0.345793 0.04769,-0.346393 l 0.0211,-0.118604 c -0.0182,-0.03648 -0.01362,-0.0713 -0.03189,-0.107809 -0.01732,-0.03468 -0.0575,-0.07098 -0.07493,-0.105692 l -0.09708,0.0671 c 0.03189,0.04621 -0.07761,0.197027 -0.127212,0.231211 0.0053,0.0077 -0.190676,0.418888 -0.254282,0.462703 0.01549,0.02251 -0.118498,0.369006 -0.157198,0.395711 0.01189,0.01707 -0.262396,0.45078 -0.218616,0.51428 -0.01528,0.06699 -0.180587,0.361808 -0.176001,0.368405 -0.06241,0.0514 -0.179,0.363996 -0.152682,0.402096 -0.01711,0.03739 -0.0188,0.110914 -0.0514,0.133421 l 0.004,0.0058 c -0.0278,0.05221 -0.133879,0.221509 -0.110807,0.254987 -0.02067,0.035 -0.01418,0.109926 -0.05038,0.134797 l 0.0021,0.0032 c -0.0442,0.143404 -0.126683,0.232092 -0.148308,0.385021 l -0.01097,0.0076 0.0069,0.01002 -0.03468,0.0961 c -0.02103,0.114582 -0.09243,0.294499 -0.132116,0.434975 l -0.0089,0.04551 c -0.0163,0.05542 -0.08209,0.296616 -0.06061,0.327801 -0.0211,0.03542 -0.0091,0.11169 -0.0478,0.138395 l 0.0036,0.0053 c -0.04829,0.26363 -0.302895,0.695113 -0.335985,0.894009 l -1.06e-4,-1.06e-4 c -0.02681,0.147003 -0.483517,0.499322 -0.625017,0.519606 -0.0063,-0.0091 -0.226201,0.03221 -0.258586,0.04092 -0.0053,-0.0076 -0.308116,0.09479 -0.359516,0.102376 -0.0021,-0.0028 -0.636975,0.188418 -0.723088,0.199002 -0.01221,-0.01771 -0.244299,0.07881 -0.275484,-0.06661 l -0.07221,-0.334398 c 0.04628,-0.06188 0.0435,-0.425591 0.106504,-0.469088 l -0.0039,-0.0056 c 0.01471,-0.0593 0.148096,-0.408904 0.143721,-0.415184 0.01849,-0.0375 0.142981,-0.208421 0.134303,-0.221015 l 0.04258,-0.05161 7.06e-4,0.0011 c 0.189618,-0.172614 1.656997,-2.680617 1.656891,-2.680794 0.157304,-0.19752 0.276719,-0.620818 0.479108,-0.760412 l -0.0048,-0.0069 c 0.02872,-0.06212 0.351014,-0.530331 0.348403,-0.534106 0.03249,-0.07669 0.348298,-0.534211 0.345687,-0.537915 0.03471,-0.0447 0.237032,-0.280176 0.223626,-0.299579 0.140406,-0.09691 0.152682,-0.361915 0.268605,-0.441925 l -0.0039,-0.0056 c 0.0362,-0.07101 0.0605,-0.177024 0.130987,-0.225707 l -0.004,-0.0058 c 0.0302,-0.04378 0.06089,-0.103787 0.0272,-0.153776 l 0.0069,-0.0047 -0.413315,-0.598875 c 0.0199,-0.03842 0.161784,-0.389008 0.158891,-0.393207 0.01602,-0.0569 0.501509,-0.881591 0.524828,-0.897713 -0.06241,-0.01129 0.09849,-0.04018 0.142981,-0.09239 l 0.09581,0.05211 c 0.01658,0.0388 0.0592,0.05228 0.08248,0.0859 0.02222,-0.01531 0.09631,0.10608 0.112007,0.126612 l 0.0049,-0.0267 c -0.0058,0.03157 0.242994,0.421781 0.285785,0.483799 l 0.0732,-0.101706 c 0.10421,-0.0309 0.668796,-0.533894 0.629426,-0.591114 0.237702,-0.164006 0.183868,-0.126295 0.424568,-0.155681 l 0.138818,0.09638 c 0.340783,0.183021 0.04202,0.521229 0.07408,0.567725 -0.02589,0.07708 -0.03157,0.264478 -0.08079,0.298485 0.0333,0.04819 -0.0665,0.476603 -0.0901,0.492902 l 0.009,0.01302 -0.286809,0.514491 -0.0011,7.06e-4 c 0.0092,0.01337 -0.05189,0.460974 -0.0901,0.492971 0.01062,0.01531 0.0992,0.684707 0.252518,0.906816 -0.0028,0.0018 0.11497,0.194415 0.124777,0.210608 l 0.172121,-0.374191 -3.53e-4,-7.06e-4 c 0.137724,-0.095 0.132503,-0.493783 0.275625,-0.59249 -0.0285,-0.04131 0.416595,-0.367595 0.398286,-0.370981 0.321416,-0.127106 0.816716,-0.191312 1.045104,0.13977 0.0074,-0.0418 0.153494,0.269311 0.05669,0.336127 0.02589,0.0375 -0.0032,0.08177 -0.0081,0.14919 l 0.0014,0.755297 c -0.0058,0.004 2.12e-4,0.124813 0.0084,0.137689 -0.0291,0.02011 -0.0526,0.416207 -0.0551,0.493113 l -0.0046,0.146791 c -0.02699,0.01859 -0.0044,0.3423 -0.0059,0.422698 -0.0605,0.146791 -0.06611,0.232092 -0.13021,0.34611 -0.05789,0.103082 -0.179811,0.200202 -0.278307,0.326708 -0.141393,0.242499 -0.208209,0.258903 -0.423686,0.406082 z m 0.01609,-2.021276 c -0.02681,0.254282 0.02911,0.355389 -0.04611,0.556684 0.03941,0.05711 -0.10107,0.353412 -0.14097,0.4191 l -0.0018,0.0084 -0.185703,0.135713 -0.351296,-0.509199 c 0.01972,-0.01372 0.0108,-0.0877 0.08333,-0.195615 l 0.0025,0.0078 0.178188,-0.468877 0.112889,-0.182316 -0.0011,0.0021 0.0817,-0.162807 0.09712,-0.0671 0.125977,0.0586 c -0.01228,0.118498 0.02872,0.254706 0.0454,0.397616 z m -2.322089,2.631899 c -0.09239,-0.190324 -0.0303,-0.678004 -0.03941,-0.858908 -0.0048,-0.133809 0.07708,-0.408199 0.0901,-0.492901 l 0.0018,-0.0011 c 0.01192,-0.07401 0.104916,-0.467995 0.08851,-0.491807 l 0.0418,-0.05249 0.05528,-0.0146 0.0672,0.08378 0.201295,0.305294 c 0.05373,0.123825 0.175225,0.223802 0.03662,0.460128 -0.02021,0.05179 -0.0086,0.130987 -0.0896,0.294393 -0.0037,0.0025 -0.06558,0.116487 -0.126083,0.257105 -0.03923,0.09119 -0.06611,0.191981 -0.116417,0.286596 -0.04928,0.09278 -0.1016,0.177095 -0.152082,0.232481 -0.03471,0.0217 -0.04392,0.02261 -0.05881,-0.008"
       style="fill:#004b9d;fill-opacity:1;fill-rule:evenodd;stroke:none;stroke-width:0.352778"
       id="path38" />
    <path
       d="m 84.45822,109.53305 v -0.684 c 0.38862,-0.006 0.652321,-0.0571 0.790998,-0.15261 0.138712,-0.0955 0.20821,-0.27069 0.20821,-0.52441 v -2.97299 c 0,-0.27369 -0.05831,-0.45181 -0.173602,-0.5345 -0.115182,-0.0841 -0.38989,-0.12961 -0.825606,-0.13822 v -0.64138 c 0.394123,-0.006 0.743126,-0.0356 1.049126,-0.0898 0.305893,-0.0541 0.577285,-0.33662 0.815975,-0.44503 h 0.7608 v 4.82191 c 0,0.2534 0.07211,0.42929 0.215018,0.5244 0.144075,0.0957 0.419206,0.1469 0.825782,0.15261 v 0.684 z"
       style="fill:#004b9d;fill-opacity:1;fill-rule:evenodd;stroke:none;stroke-width:0.352778"
       id="path40" />
    <path
       d="m 96.543645,106.94663 c -0.267229,0.16531 -0.540914,0.2874 -0.819608,0.36502 -0.277001,0.079 -0.573899,0.11779 -0.890623,0.11779 -0.703968,0 -1.279595,-0.1796 -1.724872,-0.53739 -0.446898,-0.35782 -0.669431,-0.82042 -0.669431,-1.38663 0,-0.61499 0.262114,-1.11358 0.786624,-1.49436 0.524404,-0.3822 1.212004,-0.5733 2.061281,-0.5733 0.936625,0 1.658902,0.25287 2.166902,0.76009 0.509517,0.50578 0.763517,1.22717 0.763517,2.16108 0,1.0044 -0.280423,1.78471 -0.842716,2.34083 -0.562398,0.55597 -1.348987,0.83336 -2.363082,0.83336 -0.658001,0 -1.197292,-0.11208 -1.621013,-0.33478 -0.423792,-0.22278 -0.635,-0.49432 -0.635,-0.81481 0,-0.19968 0.06932,-0.35779 0.207892,-0.47558 0.1385,-0.1178 0.323109,-0.17671 0.55573,-0.17671 0.362797,0 0.619972,0.21981 0.766798,0.661 0.01979,0.056 0.03468,0.0977 0.04449,0.1221 0.03789,0.12072 0.100613,0.2026 0.184715,0.24712 0.08569,0.0431 0.2292,0.0647 0.428801,0.0647 0.496288,0 0.887201,-0.16673 1.170799,-0.50003 0.285291,-0.33338 0.428801,-0.79319 0.428801,-1.3795 z m -0.08742,-1.4986 c 0,-0.37938 -0.0973,-0.6725 -0.291888,-0.87937 -0.194628,-0.20842 -0.470006,-0.31182 -0.824512,-0.31182 -0.370982,0 -0.658107,0.10198 -0.862507,0.30751 -0.204505,0.20398 -0.306705,0.49428 -0.306705,0.86639 0,0.36209 0.09892,0.64798 0.295099,0.85781 0.196321,0.20839 0.463515,0.31331 0.801405,0.31331 0.390913,0 0.686118,-0.0977 0.887307,-0.29461 0.201189,-0.19681 0.301801,-0.48281 0.301801,-0.85922"
       style="fill:#004b9d;fill-opacity:1;fill-rule:nonzero;stroke:none;stroke-width:0.352778"
       id="path42" />
    <path
       d="m 117.07895,106.94663 c -0.26713,0.16531 -0.54092,0.2874 -0.81951,0.36502 -0.2771,0.079 -0.574,0.11779 -0.89062,0.11779 -0.70407,0 -1.2796,-0.1796 -1.72491,-0.53739 -0.4469,-0.35782 -0.66939,-0.82042 -0.66939,-1.38663 0,-0.61499 0.26211,-1.11358 0.78662,-1.49436 0.5243,-0.3822 1.212,-0.5733 2.06128,-0.5733 0.93659,0 1.6589,0.25287 2.1668,0.76009 0.50962,0.50578 0.76362,1.22717 0.76362,2.16108 0,1.0044 -0.28042,1.78471 -0.84271,2.34083 -0.5624,0.55597 -1.34899,0.83336 -2.36319,0.83336 -0.6579,0 -1.19722,-0.11208 -1.62091,-0.33478 -0.42379,-0.22278 -0.635,-0.49432 -0.635,-0.81481 0,-0.19968 0.0693,-0.35779 0.20779,-0.47558 0.1386,-0.1178 0.32321,-0.17671 0.55569,-0.17671 0.3629,0 0.62011,0.21981 0.7669,0.661 0.0197,0.056 0.0346,0.0977 0.0445,0.1221 0.0379,0.12072 0.1005,0.2026 0.18467,0.24712 0.0857,0.0431 0.2292,0.0647 0.42874,0.0647 0.49639,0 0.88727,-0.16673 1.17086,-0.50003 0.28533,-0.33338 0.42874,-0.79319 0.42874,-1.3795 z m -0.0873,-1.4986 c 0,-0.37938 -0.0973,-0.6725 -0.29199,-0.87937 -0.19452,-0.20842 -0.4699,-0.31182 -0.82441,-0.31182 -0.37109,0 -0.65811,0.10198 -0.8625,0.30751 -0.20451,0.20398 -0.30682,0.49428 -0.30682,0.86639 0,0.36209 0.099,0.64798 0.29521,0.85781 0.19632,0.20839 0.46341,0.31331 0.8014,0.31331 0.39092,0 0.68612,-0.0977 0.88731,-0.29461 0.20108,-0.19681 0.3018,-0.48281 0.3018,-0.85922"
       style="fill:#004b9d;fill-opacity:1;fill-rule:nonzero;stroke:none;stroke-width:0.352778"
       id="path44" />
    <path
       d="m 102.53233,109.53312 c 0.48288,-1.97368 1.16611,-2.18309 2.8841,-2.86716 0.84709,-0.33751 1.10779,-0.98401 1.10779,-1.49913 0,-0.31151 -0.19138,-0.5521 -0.37648,-0.72277 -0.1851,-0.17071 -0.4451,-0.25683 -0.78031,-0.25683 -0.26349,0 -0.49191,0.0551 -0.68361,0.16341 -0.19177,0.1082 -0.28688,0.2298 -0.28688,0.36209 0,0.0208 0.04,0.0994 0.1235,0.23742 0.0832,0.13797 0.12489,0.2775 0.12489,0.41998 0,0.1959 -0.0766,0.35483 -0.23181,0.47361 -0.15498,0.11871 -0.36019,0.1779 -0.6186,0.1779 -0.25008,0 -0.44848,-0.0756 -0.59358,-0.22539 -0.14503,-0.15141 -0.21671,-0.3563 -0.21671,-0.61302 0,-1.26351 1.6475,-1.83338 2.64371,-1.83338 0.81728,0 1.5747,0.2045 2.06347,0.5389 0.95342,0.6526 0.98273,2.32308 -0.0746,2.9192 -0.86099,0.48549 -3.30761,0.47699 -3.3426,1.3136 -0.008,0.199 0.0612,0.44489 0.54889,0.42581 0.43113,-0.017 2.29743,-0.0277 2.61411,-0.27143 0.1976,-0.15198 0.33349,-0.41049 0.48691,-0.73699 l 0.6035,0.001 0.13229,1.99309 h -6.128 z"
       style="fill:#004b9d;fill-opacity:1;fill-rule:evenodd;stroke:none;stroke-width:0.352778"
       id="path46" />
    <path
       d="m 133.84792,100.82364 c 0.0454,0.095 0.0956,0.18059 0.1481,0.25432 0.0543,0.0747 0.1156,0.14217 0.18499,0.20059 0.10771,0.0959 0.22952,0.17289 0.3665,0.2287 0.13572,0.058 0.28342,0.10869 0.44023,0.15311 0.32608,0.0893 0.67797,0.17917 1.0559,0.27149 0.37801,0.0921 0.79167,0.19089 1.244,0.2956 0.28791,0.0708 0.50197,0.10188 0.63998,0.0928 0.13871,-0.008 0.36339,-0.0657 0.6731,-0.17128 l 0.8382,-0.28599 c 0.0995,-0.034 0.17981,-0.0819 0.2425,-0.14443 0.0621,-0.0638 0.0989,-0.15529 0.10971,-0.27591 0.004,-0.0533 -0.005,-0.16097 -0.0256,-0.32289 -0.0195,-0.16228 -0.0392,-0.2787 -0.0583,-0.35278 l 0.32399,-0.11049 1.12589,3.26397 -0.32378,0.11059 c -0.0321,-0.0744 -0.0819,-0.18207 -0.14721,-0.32088 -0.0669,-0.13829 -0.12139,-0.23188 -0.16401,-0.28208 -0.0793,-0.0867 -0.16139,-0.13604 -0.24849,-0.14902 -0.0865,-0.0115 -0.18228,7.1e-4 -0.28741,0.0366 l -1.04151,0.35532 c -0.0909,0.0311 -0.17138,0.0602 -0.2401,0.0867 -0.0686,0.0266 -0.12347,0.0563 -0.16489,0.088 -0.0458,0.0376 -0.1023,0.0947 -0.16718,0.16909 -0.0663,0.0747 -0.15201,0.17169 -0.25541,0.2909 -0.30141,0.34131 -0.58589,0.66731 -0.854,0.9815 -0.26639,0.31372 -0.51672,0.61062 -0.74881,0.89041 -0.12079,0.14711 -0.21029,0.28349 -0.2715,0.4101 -0.0591,0.1276 -0.10128,0.24942 -0.12499,0.36961 -0.0167,0.0894 -0.0168,0.1905 -0.003,0.3042 0.0153,0.11331 0.0341,0.2142 0.0584,0.3024 l -0.32409,0.11049 -1.16121,-3.36578 0.3241,-0.11064 c 0.11522,0.30671 0.2081,0.50702 0.27933,0.60283 0.0731,0.0967 0.13998,0.13388 0.20098,0.113 0.0299,-0.0102 0.0836,-0.0522 0.16231,-0.1233 0.0773,-0.0706 0.19449,-0.1911 0.35119,-0.35821 0.14771,-0.15628 0.3477,-0.37779 0.60219,-0.66671 0.25443,-0.289 0.55023,-0.6331 0.88671,-1.03389 -1.01621,-0.23911 -1.72448,-0.40009 -2.12471,-0.4832 -0.39868,-0.0835 -0.63567,-0.11158 -0.71088,-0.0859 -0.0953,0.0326 -0.1463,0.11469 -0.15791,0.24659 -0.01,0.13282 0.0234,0.32992 0.0983,0.59341 l -0.32399,0.11059 -0.7517,-2.17889 0.3241,-0.1106 z m -22.18288,48.8884 c -0.0822,0.0251 -0.19942,0.0678 -0.35112,0.12908 -0.15349,0.0603 -0.27569,0.13893 -0.36749,0.23284 -0.0965,0.0934 -0.14929,0.23749 -0.15702,0.4324 -0.009,0.19349 0.0236,0.47868 0.0964,0.84878 l 0.44471,2.26519 c 0.13077,0.66633 0.009,1.2464 -0.36693,1.7411 -0.37556,0.49442 -0.9392,0.8159 -1.68769,0.96111 -0.87379,0.1694 -1.5894,0.10491 -2.1439,-0.19371 -0.55597,-0.29828 -0.9024,-0.7988 -1.03988,-1.49949 l -0.61133,-3.11411 c -0.0195,-0.0998 -0.0557,-0.1826 -0.10809,-0.24687 -0.0536,-0.0627 -0.13998,-0.11293 -0.26028,-0.14881 -0.0827,-0.0236 -0.17992,-0.0351 -0.29351,-0.0374 -0.11359,-7e-4 -0.2051,3.2e-4 -0.27608,0.005 l -0.0657,-0.33429 3.2021,-0.62251 0.0657,0.33461 c -0.0919,0.0238 -0.18313,0.0525 -0.27531,0.0869 -0.0924,0.0344 -0.1838,0.0766 -0.27672,0.12682 -0.1022,0.0564 -0.16457,0.12778 -0.18739,0.21438 -0.021,0.0879 -0.0224,0.18179 -0.003,0.28219 l 0.60328,3.07302 c 0.1185,0.60332 0.33909,1.0179 0.66132,1.2398 0.3235,0.2219 0.7402,0.2836 1.2513,0.1845 0.50239,-0.0973 0.86678,-0.32529 1.09308,-0.68421 0.22631,-0.35888 0.28163,-0.834 0.16602,-1.42349 l -0.40531,-2.06421 c -0.0719,-0.36657 -0.1512,-0.6362 -0.23671,-0.80789 -0.0854,-0.17181 -0.18958,-0.28748 -0.30858,-0.34798 -0.0872,-0.047 -0.22821,-0.079 -0.42432,-0.0957 -0.19589,-0.0151 -0.33161,-0.0208 -0.40908,-0.0179 l -0.0673,-0.34311 2.6712,-0.51912 0.0673,0.34311 z m 7.87799,-3.46731 c -0.0712,0.0427 -0.1705,0.1065 -0.2981,0.1917 -0.1282,0.0839 -0.22959,0.19311 -0.303,0.32731 -0.0646,0.11708 -0.0775,0.27111 -0.0383,0.46549 0.0398,0.19222 0.13811,0.45691 0.2951,0.7941 l 1.87762,4.03331 -0.72122,0.33249 -5.53568,-2.74059 1.23148,2.64549 c 0.1525,0.32762 0.29061,0.5673 0.4137,0.718 0.12442,0.15001 0.25389,0.24342 0.38879,0.27672 0.0994,0.025 0.23792,0.0237 0.41604,-0.002 0.17769,-0.0275 0.31679,-0.0555 0.41708,-0.0819 l 0.1439,0.30889 -2.44542,1.1273 -0.1439,-0.309 c 0.0998,-0.0559 0.20962,-0.12957 0.33003,-0.22299 0.1198,-0.0913 0.21078,-0.19088 0.27107,-0.29619 0.0676,-0.12492 0.0848,-0.2727 0.0519,-0.4469 -0.0338,-0.17222 -0.13599,-0.44111 -0.30681,-0.80842 l -1.24421,-2.67317 c -0.0617,-0.13282 -0.14108,-0.24952 -0.23668,-0.3484 -0.0956,-0.099 -0.20712,-0.1712 -0.33352,-0.21509 -0.1349,-0.0482 -0.27269,-0.0703 -0.4179,-0.0658 -0.1446,0.002 -0.29989,0.0246 -0.4658,0.0667 l -0.1439,-0.30921 2.13751,-0.98516 4.849,2.40037 -0.9962,-2.14009 c -0.15819,-0.34019 -0.29941,-0.58301 -0.4214,-0.72761 -0.12252,-0.14608 -0.25209,-0.23601 -0.38819,-0.26878 -0.10683,-0.0264 -0.24522,-0.0252 -0.41882,3.5e-4 -0.17138,0.0264 -0.30808,0.0531 -0.40958,0.0801 l -0.14023,-0.30088 2.44553,-1.1272 0.14009,0.30089 z m 7.11859,2.2648 -2.84561,1.94412 -0.19378,-0.2806 c 0.0621,-0.05 0.15251,-0.12252 0.27189,-0.21862 0.1203,-0.0949 0.19692,-0.1688 0.23142,-0.22158 0.0646,-0.0965 0.0922,-0.18612 0.0848,-0.268 -0.008,-0.0799 -0.0446,-0.16732 -0.10728,-0.2583 l -2.50631,-3.62991 c -0.0568,-0.0823 -0.12319,-0.14411 -0.19678,-0.1844 -0.0742,-0.0417 -0.17103,-0.0499 -0.28903,-0.0255 -0.074,0.0143 -0.17628,0.048 -0.30727,0.10132 -0.1306,0.0512 -0.24031,0.10079 -0.32893,0.14668 l -0.19378,-0.28081 2.84568,-1.94408 0.19382,0.28081 c -0.0666,0.0564 -0.15039,0.12809 -0.24991,0.21618 -0.0983,0.0869 -0.17731,0.1681 -0.23548,0.24232 -0.072,0.0963 -0.10192,0.18747 -0.087,0.27499 0.0149,0.0876 0.0508,0.17389 0.10862,0.2576 l 2.50451,3.6273 c 0.0594,0.086 0.12669,0.14901 0.2014,0.18849 0.076,0.0388 0.17269,0.047 0.29069,0.0226 0.0647,-0.0117 0.16348,-0.0483 0.29358,-0.10831 0.13191,-0.0593 0.23831,-0.1138 0.3211,-0.16302 z m 2.6487,-10.59939 c -0.0622,0.0737 -0.11677,0.15029 -0.15988,0.23019 -0.0441,0.081 -0.0799,0.17272 -0.10831,0.2782 -0.0383,0.1403 -0.0529,0.2636 -0.043,0.37151 0.01,0.10781 0.0429,0.237 0.0979,0.3883 0.0771,0.2056 0.19382,0.50441 0.34929,0.89521 0.15631,0.38979 0.33373,0.83489 0.53181,1.3328 0.17939,0.447 0.37761,0.93429 0.59461,1.46409 0.21798,0.52861 0.42679,1.03509 0.62611,1.51921 l -0.63031,0.61768 c -0.9985,-0.42641 -2.01401,-0.85948 -3.0461,-1.2989 -1.03229,-0.43928 -1.75129,-0.74139 -2.159,-0.90798 -0.15162,-0.0571 -0.27682,-0.0896 -0.37429,-0.0989 -0.0967,-0.008 -0.2232,0.007 -0.37642,0.0459 -0.1107,0.031 -0.2002,0.0641 -0.26938,0.1027 -0.0704,0.0375 -0.15582,0.0939 -0.2583,0.1694 l -0.24042,-0.24267 2.40722,-2.35952 0.23417,0.23611 c -0.19717,0.248 -0.32068,0.42559 -0.37137,0.534 -0.0497,0.10728 -0.0523,0.1856 -0.007,0.23128 0.0231,0.0233 0.0518,0.0436 0.0836,0.0629 0.0328,0.0183 0.0794,0.0418 0.13652,0.0718 0.24857,0.11688 0.6658,0.29739 1.2524,0.54028 0.58671,0.24289 1.47489,0.62001 2.66189,1.13242 -0.30262,-0.72471 -0.5606,-1.33393 -0.77449,-1.8288 -0.2141,-0.49481 -0.40302,-0.93261 -0.56921,-1.31071 -0.0794,-0.18451 -0.15889,-0.3519 -0.23961,-0.50151 -0.0795,-0.14849 -0.14897,-0.25249 -0.2069,-0.31101 -0.0652,-0.0658 -0.1693,-0.0752 -0.30988,-0.0254 -0.14171,0.0507 -0.3531,0.1929 -0.63532,0.42961 l -0.24659,-0.2491 1.80379,-1.76791 z m 4.35112,-4.68079 -0.17921,0.2904 c -0.24701,-0.0506 -0.52941,-0.0527 -0.846,-0.002 -0.31711,0.0487 -0.54708,0.15032 -0.69229,0.30011 -0.063,0.0651 -0.13892,0.16238 -0.2244,0.29259 -0.0856,0.13032 -0.15522,0.24032 -0.2086,0.32682 l -0.47381,0.76817 2.0587,1.2549 0.33631,-0.54529 c 0.0847,-0.13769 0.1452,-0.27248 0.18228,-0.40421 0.0358,-0.1324 0.0359,-0.27248 3.1e-4,-0.42048 -0.0223,-0.0925 -0.0886,-0.21339 -0.1972,-0.36022 -0.11049,-0.14619 -0.21371,-0.26179 -0.3103,-0.34508 l 0.17921,-0.29041 2.21989,1.35311 -0.17911,0.29041 c -0.1144,-0.0487 -0.2698,-0.0908 -0.46549,-0.12781 -0.19639,-0.0356 -0.34262,-0.044 -0.43529,-0.0252 -0.14122,0.0261 -0.26321,0.0867 -0.36551,0.17858 -0.10379,0.091 -0.1996,0.2094 -0.2909,0.35729 l -0.3362,0.54511 1.53631,0.93652 c 0.16119,0.0984 0.2951,0.16408 0.40347,0.19689 0.10883,0.0348 0.20811,0.034 0.29814,-3.6e-4 0.0857,-0.0336 0.17039,-0.0994 0.25117,-0.19921 0.0823,-0.0989 0.18091,-0.2419 0.29651,-0.42908 0.0535,-0.0868 0.1166,-0.19202 0.18941,-0.31581 0.0728,-0.1239 0.1312,-0.23562 0.17487,-0.3351 0.053,-0.11152 0.0942,-0.22141 0.1252,-0.32862 0.0314,-0.1053 0.0359,-0.1954 0.0162,-0.26888 -0.0492,-0.1947 -0.15413,-0.4445 -0.31439,-0.74712 -0.15963,-0.3042 -0.28723,-0.51689 -0.38361,-0.64057 l 0.16968,-0.27503 1.59703,1.11192 -3.06762,4.97459 -0.29181,-0.17801 c 0.038,-0.0731 0.086,-0.1736 0.1465,-0.30317 0.0585,-0.12923 0.0923,-0.22423 0.1033,-0.28752 0.0183,-0.1186 0.008,-0.21269 -0.0332,-0.28328 -0.0419,-0.0693 -0.10968,-0.13353 -0.20451,-0.1911 l -3.7562,-2.28961 c -0.0909,-0.0555 -0.17367,-0.0867 -0.24927,-0.0959 -0.0761,-0.008 -0.16941,0.0264 -0.28131,0.10199 -0.0707,0.0462 -0.1542,0.12142 -0.25199,0.22313 -0.0966,0.10248 -0.1682,0.1814 -0.21283,0.23668 l -0.29199,-0.17802 2.89881,-4.70069 1.35971,0.82882 z m 2.4643,-5.58832 c -0.38901,-0.15099 -0.71572,-0.15268 -0.98002,-0.005 -0.26561,0.147 -0.47727,0.42259 -0.63479,0.82349 l -0.12732,0.32409 2.44264,0.94841 0.12248,-0.31161 c 0.15812,-0.40227 0.17508,-0.75339 0.0509,-1.05678 -0.12442,-0.30321 -0.41501,-0.54419 -0.8739,-0.72242 z m 5.41499,-1.09291 -0.87182,2.21831 c -0.73977,0.15539 -1.33459,0.29023 -1.78297,0.40971 -0.44923,0.1173 -0.97631,0.277 -1.58341,0.47579 l -0.0902,0.2298 1.7641,0.68481 c 0.098,0.0381 0.18761,0.0519 0.2709,0.041 0.0828,-0.01 0.16799,-0.0582 0.25471,-0.14329 0.0426,-0.0428 0.0973,-0.11621 0.16291,-0.21749 0.067,-0.10082 0.11948,-0.18941 0.159,-0.2654 l 0.31898,0.12379 -1.21398,3.08949 -0.31891,-0.12379 c 0.0227,-0.0826 0.0525,-0.19131 0.0881,-0.32671 0.0355,-0.1355 0.0533,-0.23438 0.0528,-0.29869 -0.003,-0.11981 -0.0302,-0.21072 -0.083,-0.27291 -0.0536,-0.0608 -0.1318,-0.1119 -0.2352,-0.15219 l -4.10471,-1.59339 c -0.0994,-0.0386 -0.18648,-0.0548 -0.26377,-0.0511 -0.0777,0.005 -0.16362,0.0551 -0.25732,0.15032 -0.0709,0.0735 -0.14069,0.16517 -0.2123,0.27358 -0.0709,0.11052 -0.1258,0.1967 -0.16358,0.26059 l -0.31902,-0.12379 1.27681,-3.24968 c 0.2854,-0.72641 0.6169,-1.23292 0.993,-1.5216 0.37609,-0.28861 0.79558,-0.3423 1.2586,-0.16263 0.40718,0.15811 0.69,0.40273 0.84628,0.73113 0.15632,0.32858 0.2098,0.75847 0.16281,1.2887 0.3133,-0.0917 0.67659,-0.19943 1.08952,-0.32301 0.41289,-0.12361 0.83809,-0.25371 1.27268,-0.39119 0.13959,-0.0437 0.31471,-0.10732 0.52599,-0.19361 0.21061,-0.085 0.35613,-0.17631 0.4354,-0.2753 0.0442,-0.0552 0.0921,-0.12792 0.14252,-0.21901 0.0518,-0.0905 0.0875,-0.15688 0.10608,-0.19611 z m 0.85849,-3.69037 c -0.0521,0.37747 -0.14799,0.72178 -0.28649,1.03318 -0.14009,0.31281 -0.28829,0.57312 -0.4474,0.782 l 0.26371,0.3405 -0.0514,0.373 -2.23951,-0.25019 0.0515,-0.37289 c 0.22299,-0.0557 0.46091,-0.1319 0.71388,-0.23022 0.2515,-0.0985 0.482,-0.2194 0.6918,-0.3659 0.21922,-0.14958 0.404,-0.32498 0.55481,-0.52769 0.15202,-0.20091 0.24829,-0.44729 0.2885,-0.7403 0.0542,-0.39229 -7e-4,-0.70729 -0.1639,-0.94368 -0.1646,-0.23492 -0.39281,-0.37293 -0.6859,-0.41282 -0.23961,-0.0327 -0.4542,0.0287 -0.64241,0.184 -0.18828,0.15551 -0.36749,0.41148 -0.53957,0.76811 -0.11243,0.23357 -0.21622,0.44707 -0.31112,0.64068 -0.0951,0.1953 -0.19,0.37669 -0.2848,0.5479 -0.22359,0.39031 -0.5026,0.6659 -0.83978,0.8238 -0.33581,0.15942 -0.69501,0.21301 -1.07583,0.16129 -0.2412,-0.0328 -0.46609,-0.11617 -0.67497,-0.2516 -0.20881,-0.13398 -0.38721,-0.31348 -0.53672,-0.53749 -0.14051,-0.2135 -0.24211,-0.47618 -0.30529,-0.78779 -0.0645,-0.31178 -0.0721,-0.64311 -0.0236,-0.99398 0.0472,-0.34181 0.13871,-0.65501 0.27661,-0.93931 0.13617,-0.28473 0.26388,-0.50712 0.38417,-0.66421 l -0.22539,-0.3005 0.0515,-0.37299 2.11208,0.251 -0.0515,0.37299 c -0.23823,0.0565 -0.48432,0.1257 -0.73691,0.21051 -0.2528,0.0847 -0.46789,0.18199 -0.64209,0.291 -0.18751,0.1178 -0.34562,0.2637 -0.47082,0.43519 -0.1251,0.1699 -0.20571,0.38068 -0.24,0.62928 -0.0431,0.31253 0.0111,0.57902 0.16112,0.8001 0.14968,0.22233 0.3562,0.35141 0.61817,0.387 0.24712,0.0337 0.46122,-0.0248 0.64131,-0.17519 0.18161,-0.15169 0.35691,-0.40089 0.526,-0.7488 0.10269,-0.20458 0.2056,-0.41219 0.3078,-0.62601 0.10361,-0.21226 0.2008,-0.40107 0.2916,-0.56508 0.22179,-0.39811 0.49029,-0.68569 0.80779,-0.86578 0.31581,-0.17862 0.68651,-0.23993 1.11203,-0.18204 0.2679,0.0364 0.5183,0.13371 0.7512,0.2921 0.2328,0.15843 0.41819,0.35391 0.55559,0.58833 0.15131,0.25569 0.25559,0.54278 0.312,0.85958 0.0577,0.31852 0.058,0.67892 0.002,1.08292 z m 0.41599,-7.68311 -0.095,3.43171 -0.3424,-0.009 c -0.004,-0.0793 -0.01,-0.19459 -0.0174,-0.34709 -0.006,-0.15262 -0.0215,-0.2576 -0.0439,-0.31659 -0.0405,-0.10872 -0.097,-0.18341 -0.1681,-0.22581 -0.0694,-0.0407 -0.162,-0.0626 -0.27309,-0.0658 l -4.42651,-0.12121 c -0.10051,-0.003 -0.1898,0.0143 -0.26578,0.0496 -0.0777,0.0352 -0.14122,0.10809 -0.19093,0.21741 -0.0319,0.0678 -0.0648,0.17008 -0.0986,0.3066 -0.0352,0.13498 -0.0596,0.25238 -0.0744,0.3507 l -0.3423,-0.01 0.0951,-3.43147 0.3423,0.009 c 0.007,0.0868 0.0156,0.19621 0.0285,0.32822 0.0128,0.13029 0.0323,0.24137 0.0584,0.3319 0.0359,0.11447 0.0923,0.19219 0.17241,0.2317 0.08,0.0396 0.17099,0.0616 0.27312,0.0644 l 4.42358,0.12111 c 0.10509,0.003 0.19569,-0.0141 0.27189,-0.0508 0.0762,-0.0383 0.1398,-0.1113 0.18951,-0.22052 0.0286,-0.059 0.0569,-0.15988 0.0848,-0.29958 0.0295,-0.14122 0.0477,-0.25869 0.0564,-0.35412 z m -5.13626,-7.06639 0.0425,0.338 c -0.2527,0.12167 -0.51629,0.3005 -0.79248,0.5365 -0.27641,0.23449 -0.41582,0.43851 -0.41861,0.609 -3.2e-4,0.0934 0.005,0.2086 0.0133,0.34608 0.008,0.13599 0.0181,0.25372 0.0307,0.35302 l 0.0254,0.2031 4.8575,-0.60311 c 0.10439,-0.013 0.19442,-0.0437 0.2702,-0.0907 0.0758,-0.0471 0.12922,-0.12901 0.16171,-0.24441 0.0185,-0.0686 0.0323,-0.17561 0.0417,-0.31838 0.0106,-0.14432 0.0153,-0.26522 0.0148,-0.36463 l 0.33983,-0.0422 0.42979,3.42442 -0.3399,0.0421 c -0.0194,-0.0818 -0.046,-0.19901 -0.0815,-0.3482 -0.0354,-0.14919 -0.0676,-0.24909 -0.0968,-0.30109 -0.0619,-0.10679 -0.13392,-0.17459 -0.21612,-0.202 -0.0836,-0.0273 -0.1784,-0.0351 -0.28719,-0.0215 l -4.9009,0.6084 0.0255,0.20302 c 0.0124,0.0994 0.0317,0.2159 0.0576,0.34971 0.0259,0.13518 0.0493,0.24829 0.0727,0.3386 0.0448,0.16467 0.2304,0.32829 0.55619,0.4881 0.32611,0.16129 0.62583,0.27019 0.90082,0.32618 l 0.0425,0.33799 -1.77091,0.21982 -0.74909,-5.96791 z"
       style="fill:#004b9d;fill-opacity:1;fill-rule:evenodd;stroke:none;stroke-width:0.352778"
       id="path48" />
    <path
       d="m 61.384825,103.10435 c 0.145803,-0.43043 0.352213,-0.81051 0.620818,-1.13979 0.26797,-0.32802 0.582295,-0.58671 0.944387,-0.77601 0.355,-0.1869 0.750887,-0.29383 1.189884,-0.3218 0.439032,-0.0278 0.890129,0.035 1.351315,0.18958 0.45981,0.15402 0.858414,0.37603 1.195917,0.667 0.336197,0.28921 0.600568,0.62692 0.789375,1.01011 0.185914,0.37761 0.289207,0.78898 0.30861,1.23691 0.02088,0.44831 -0.04561,0.89739 -0.198614,1.34909 -0.110278,0.32551 -0.250895,0.60949 -0.423192,0.85129 -0.170709,0.24221 -0.33849,0.43822 -0.50098,0.5903 l 0.141887,0.3344 -0.120896,0.35673 -2.1723,-0.68993 0.123578,-0.3653 c 0.731908,0.0151 1.30182,-0.0714 1.710514,-0.25771 0.407211,-0.18669 0.681707,-0.48718 0.823312,-0.90487 0.175895,-0.5195 0.07899,-0.9917 -0.290618,-1.41662 -0.369605,-0.42499 -0.971197,-0.7778 -1.805305,-1.05731 -0.47117,-0.15797 -0.889882,-0.24616 -1.254196,-0.26588 -0.364207,-0.0194 -0.6731,0.0126 -0.926994,0.093 -0.266206,0.0889 -0.485704,0.22669 -0.659094,0.4114 -0.172121,0.185 -0.303495,0.40902 -0.393595,0.67512 -0.131021,0.3866 -0.140793,0.76619 -0.0308,1.1389 0.109502,0.37409 0.336303,0.75738 0.682272,1.14928 l -0.338772,0.28371 c -0.204506,-0.20102 -0.37772,-0.41032 -0.518619,-0.62622 -0.142205,-0.21629 -0.249308,-0.44767 -0.321098,-0.69409 -0.0786,-0.26899 -0.116593,-0.5497 -0.113701,-0.8436 0.0021,-0.29238 0.06519,-0.6182 0.186902,-0.97769 z m -0.105198,19.2974 c 0.283104,0.0974 0.594395,0.15349 0.938494,0.16958 0.342618,0.0162 0.724818,-0.001 1.148292,-0.0537 0.359128,-0.0447 0.706226,-0.11331 1.039813,-0.20599 0.333516,-0.0926 0.625192,-0.21752 0.8751,-0.372 0.251213,-0.15769 0.443689,-0.34862 0.577392,-0.57461 0.135219,-0.22599 0.183515,-0.49089 0.145097,-0.7978 -0.06597,-0.52469 -0.366395,-0.89239 -0.901488,-1.10289 -0.534811,-0.2092 -1.258394,-0.25792 -2.172088,-0.14439 -0.389114,0.0483 -0.7505,0.12319 -1.088814,0.22549 -0.337008,0.10199 -0.624804,0.23269 -0.866598,0.39208 -0.242994,0.1627 -0.424992,0.35232 -0.544513,0.5704 -0.119591,0.21813 -0.160196,0.47311 -0.123401,0.76663 0.03602,0.28599 0.140017,0.52309 0.31182,0.71098 0.171803,0.18631 0.392112,0.32611 0.660894,0.41621 z m 4.578491,0.5637 c -0.242182,0.33708 -0.548781,0.62068 -0.922796,0.84769 -0.374192,0.22709 -0.813188,0.37201 -1.319883,0.43501 -0.451697,0.056 -0.890517,0.0337 -1.316214,-0.0656 -0.427284,-0.1004 -0.804686,-0.2734 -1.135309,-0.51989 -0.343077,-0.25999 -0.624099,-0.5819 -0.845997,-0.96241 -0.220274,-0.38061 -0.365407,-0.84878 -0.435186,-1.40469 -0.0563,-0.44912 -0.0351,-0.8823 0.06241,-1.29942 0.0992,-0.4173 0.271074,-0.79548 0.514703,-1.13429 0.239395,-0.33538 0.5449,-0.61559 0.919198,-0.8413 0.374297,-0.2256 0.802781,-0.36908 1.290284,-0.42958 0.505213,-0.0627 0.976595,-0.0341 1.409594,0.0869 0.432823,0.1209 0.816116,0.31429 1.147304,0.5787 0.326602,0.26201 0.593196,0.58878 0.799501,0.9786 0.207997,0.38979 0.340218,0.81601 0.398391,1.27988 0.05772,0.45953 0.03581,0.90043 -0.06417,1.32232 -0.101212,0.42351 -0.269099,0.79819 -0.501826,1.12811 z m 3.35982,8.55328 c -0.03859,-0.0732 -0.09652,-0.17569 -0.174202,-0.30738 -0.07641,-0.1324 -0.179916,-0.23982 -0.310091,-0.3205 -0.113524,-0.0713 -0.267406,-0.0933 -0.46482,-0.0662 -0.195404,0.028 -0.466584,0.10961 -0.814882,0.24511 l -4.162601,1.6208 -0.289701,-0.73589 3.087899,-5.33012 -2.730324,1.06299 c -0.33849,0.1319 -0.586986,0.25442 -0.745701,0.36752 -0.158186,0.11441 -0.259786,0.23739 -0.301484,0.36908 -0.03119,0.0972 -0.03831,0.23481 -0.023,0.41332 0.0169,0.1779 0.03651,0.31788 0.0569,0.41899 l -0.318805,0.12421 -0.982416,-2.49562 0.318911,-0.12418 c 0.05002,0.10238 0.117299,0.2159 0.203694,0.341 0.08431,0.12449 0.178823,0.2208 0.280705,0.28698 0.121321,0.0748 0.268605,0.10083 0.445312,0.0785 0.174907,-0.0231 0.450991,-0.1083 0.830086,-0.25601 l 2.758299,-1.07389 c 0.137019,-0.0533 0.258903,-0.12481 0.364207,-0.21392 0.105199,-0.0891 0.184397,-0.1953 0.236115,-0.31821 0.05648,-0.13098 0.087,-0.26638 0.0914,-0.41098 0.0065,-0.14362 -0.0064,-0.29902 -0.03842,-0.4662 l 0.319017,-0.12432 0.85859,2.18133 -2.704606,4.66898 2.208707,-0.86 c 0.351084,-0.1367 0.603285,-0.26219 0.755791,-0.37451 0.154093,-0.11278 0.252306,-0.23608 0.293511,-0.36918 0.03309,-0.10439 0.04018,-0.2419 0.02498,-0.41579 -0.01598,-0.17173 -0.03439,-0.30903 -0.05539,-0.41151 l 0.310515,-0.1209 0.982381,2.49548 z m 1.45348,8.56339 c -0.05697,-0.0719 -0.108585,-0.1331 -0.156775,-0.18559 -0.04692,-0.0537 -0.114899,-0.11501 -0.20073,-0.18457 -0.09828,-0.081 -0.193569,-0.11272 -0.287973,-0.0987 -0.0949,0.016 -0.183903,0.0494 -0.265006,0.101 l -0.612493,0.3895 c -0.123896,0.0788 -0.221827,0.14287 -0.296228,0.19367 -0.07429,0.0507 -0.164288,0.11332 -0.272274,0.18913 -0.307198,-0.1505 -0.680226,-0.4257 -1.120104,-0.82152 -0.43942,-0.39789 -0.788388,-0.7966 -1.047292,-1.19941 -0.243628,-0.37888 -0.41342,-0.77078 -0.509905,-1.17587 -0.09722,-0.40623 -0.110807,-0.80723 -0.0388,-1.20573 0.06918,-0.39698 0.228212,-0.7765 0.476391,-1.13637 0.249414,-0.36082 0.594289,-0.6811 1.034803,-0.9611 0.409998,-0.26071 0.833402,-0.4341 1.269294,-0.52173 0.43681,-0.086 0.862013,-0.0818 1.278008,0.0136 0.411692,0.0913 0.8007,0.27482 1.168788,0.5478 0.366819,0.27379 0.691621,0.62939 0.973208,1.0674 0.190888,0.297 0.331506,0.59601 0.419418,0.89651 0.08918,0.29947 0.143792,0.55929 0.166194,0.77728 l 0.35119,0.0994 0.203905,0.31721 -1.901789,1.25169 -0.208809,-0.32469 c 0.458681,-0.55411 0.743584,-1.05082 0.857108,-1.49003 0.113101,-0.4372 0.04159,-0.85619 -0.2141,-1.25388 -0.302613,-0.47082 -0.744115,-0.70241 -1.324328,-0.69529 -0.581272,0.008 -1.235887,0.24328 -1.964902,0.70679 -0.774488,0.49248 -1.298575,1.00299 -1.574588,1.5331 -0.275978,0.53009 -0.2661,1.0256 0.0309,1.48749 0.139206,0.2165 0.29591,0.38802 0.468101,0.51442 0.174202,0.1269 0.334292,0.20948 0.480201,0.24797 l 1.067012,-0.67839 c 0.08848,-0.0564 0.152576,-0.12019 0.191876,-0.18948 0.03972,-0.0713 0.05232,-0.16803 0.03521,-0.29192 -0.01358,-0.096 -0.04491,-0.2055 -0.09331,-0.3307 -0.04829,-0.12541 -0.09218,-0.2269 -0.129787,-0.30758 l 0.288502,-0.18352 1.747696,2.71872 z m 3.423214,5.38851 c 0.281305,-0.10248 0.559294,-0.25569 0.835096,-0.45851 0.276895,-0.2038 0.563103,-0.45857 0.857885,-0.76538 0.251107,-0.26152 0.476426,-0.5328 0.676028,-0.81428 0.200695,-0.28233 0.347204,-0.56251 0.443794,-0.8406 0.09359,-0.27891 0.121285,-0.54783 0.08241,-0.80801 -0.03881,-0.2601 -0.169616,-0.4959 -0.394511,-0.70961 -0.384387,-0.36519 -0.8509,-0.4614 -1.400387,-0.28709 -0.547405,0.17399 -1.140319,0.59217 -1.77733,1.2555 -0.270792,0.28198 -0.504296,0.56829 -0.701675,0.86018 -0.196003,0.29079 -0.337326,0.574 -0.423509,0.84959 -0.08481,0.27873 -0.105305,0.54021 -0.05941,0.78434 0.046,0.24408 0.175295,0.46838 0.390419,0.67257 0.209585,0.19921 0.440796,0.3176 0.69349,0.3551 0.251602,0.0366 0.512304,0.005 0.777699,-0.0938 z m 3.911706,-2.44609 c 0.0266,0.41349 -0.03189,0.8268 -0.177518,1.23811 -0.144674,0.41 -0.393806,0.79918 -0.746584,1.1666 -0.501191,0.52169 -1.072515,0.85478 -1.714006,1.0015 -0.640503,0.14559 -1.283687,0.0778 -1.929906,-0.20549 -0.235197,0.25788 -0.368794,0.54828 -0.398497,0.87129 -0.0308,0.32399 0.05479,0.58088 0.254599,0.77078 0.122802,0.11659 0.238619,0.2122 0.344488,0.28589 0.106821,0.0726 0.206022,0.13593 0.297603,0.18761 l -0.265677,0.27672 c -0.16831,-0.065 -0.397404,-0.18553 -0.685024,-0.35962 -0.286596,-0.17519 -0.560281,-0.3857 -0.821972,-0.6343 -0.356306,-0.33849 -0.548922,-0.7239 -0.57591,-1.1545 -0.02589,-0.43159 0.129188,-0.85041 0.466196,-1.25529 -0.271709,-0.3139 -0.479213,-0.6537 -0.624699,-1.01699 -0.144392,-0.36442 -0.219886,-0.74002 -0.223484,-1.12761 -0.0025,-0.38249 0.07059,-0.76342 0.219075,-1.143 0.147496,-0.38051 0.378424,-0.73339 0.692714,-1.0606 0.352778,-0.36741 0.736388,-0.64131 1.148786,-0.81982 0.41342,-0.17949 0.83319,-0.27029 1.257899,-0.27358 0.419594,-0.002 0.833896,0.0835 1.241496,0.25591 0.408904,0.17138 0.782108,0.41868 1.122115,0.7415 0.336586,0.31997 0.599899,0.6754 0.790293,1.06518 0.190818,0.3919 0.298803,0.78772 0.328013,1.18971 z m 1.768087,7.95761 -2.906113,-1.8524 0.18482,-0.28681 c 0.07031,0.0377 0.172509,0.0922 0.307905,0.1645 0.13469,0.0734 0.233009,0.11469 0.295275,0.12601 0.114406,0.0215 0.208033,0.012 0.281128,-0.0266 0.07109,-0.0382 0.137795,-0.1058 0.197697,-0.19872 l 2.389399,-3.70791 c 0.05429,-0.0842 0.08569,-0.16877 0.09458,-0.25188 0.0097,-0.0844 -0.02039,-0.17621 -0.08879,-0.27492 -0.04191,-0.0622 -0.112889,-0.14287 -0.213078,-0.24218 -0.09811,-0.0998 -0.18662,-0.18119 -0.263631,-0.2443 l 0.18482,-0.28691 2.906184,1.8524 -0.184891,0.28691 c -0.07821,-0.0393 -0.176989,-0.0882 -0.29718,-0.1452 -0.118922,-0.0563 -0.22472,-0.0971 -0.315913,-0.1216 -0.117193,-0.0286 -0.213289,-0.0206 -0.288713,0.0272 -0.07539,0.0478 -0.141288,0.11401 -0.196391,0.19949 l -2.387812,3.7053 c -0.0568,0.088 -0.08879,0.17402 -0.09648,0.25781 -0.0065,0.0847 0.0235,0.1766 0.09201,0.2752 0.03598,0.0548 0.108302,0.1312 0.214206,0.22691 0.106292,0.098 0.198085,0.1743 0.275802,0.23089 z m 11.047306,-1.1985 c -0.07909,-0.0255 -0.192511,-0.0584 -0.340818,-0.0985 -0.147673,-0.0415 -0.296969,-0.0463 -0.44697,-0.0135 -0.131198,0.0281 -0.25661,0.11928 -0.378813,0.27598 -0.119909,0.156 -0.256504,0.4027 -0.410104,0.742 l -1.835891,4.05353 -0.724605,-0.32459 -1.540404,-5.95772 -1.204313,2.65871 c -0.149296,0.3296 -0.240771,0.59009 -0.274779,0.7813 -0.03249,0.19188 -0.01859,0.35049 0.0441,0.47368 0.04611,0.0912 0.137795,0.19442 0.274284,0.31122 0.137196,0.1155 0.249626,0.202 0.33521,0.2601 l -0.140582,0.31038 -2.457097,-1.1006 0.140687,-0.31058 c 0.10788,0.0384 0.235691,0.0728 0.385481,0.1022 0.147814,0.0302 0.282998,0.0334 0.402413,0.01 0.139312,-0.031 0.26289,-0.1149 0.373486,-0.25373 0.108726,-0.13811 0.24631,-0.39109 0.413526,-0.7602 l 1.21659,-2.68598 c 0.06039,-0.13342 0.0973,-0.26931 0.109784,-0.40622 0.0127,-0.13688 -0.0055,-0.2679 -0.05479,-0.39158 -0.05179,-0.133 -0.125201,-0.25111 -0.223591,-0.3574 -0.09652,-0.10721 -0.214912,-0.20931 -0.355494,-0.30671 l 0.140794,-0.31062 2.147393,0.96213 1.349798,5.21851 0.97409,-2.15082 c 0.154905,-0.34181 0.24691,-0.60699 0.277002,-0.7934 0.03073,-0.18782 0.01422,-0.34421 -0.04999,-0.468 -0.04971,-0.0976 -0.141217,-0.20101 -0.274391,-0.3146 -0.132221,-0.11162 -0.241794,-0.19682 -0.329,-0.25559 l 0.136983,-0.3024 2.456992,1.1007 z m 7.081308,4.6136 c -0.09183,-0.007 -0.18101,-0.0164 -0.252624,-0.0171 -0.0714,-0.002 -0.162877,0.006 -0.272485,0.0208 -0.126718,0.0166 -0.214807,0.0645 -0.268711,0.14287 -0.05278,0.0801 -0.08858,0.16771 -0.105692,0.2619 l -0.129399,0.71152 c -0.02621,0.1439 -0.04551,0.25901 -0.0587,0.34759 -0.01309,0.0888 -0.02808,0.19699 -0.0459,0.32731 -0.319687,0.1216 -0.776287,0.20641 -1.36719,0.25799 -0.592208,0.0498 -1.123527,0.0331 -1.596496,-0.052 -0.444817,-0.0801 -0.849312,-0.22271 -1.213626,-0.42789 -0.365478,-0.20542 -0.670278,-0.4682 -0.915176,-0.7917 -0.245428,-0.32032 -0.417195,-0.69452 -0.513715,-1.12011 -0.09631,-0.42728 -0.0979,-0.89658 -0.0048,-1.40829 0.08661,-0.47632 0.246698,-0.90283 0.478684,-1.28019 0.233433,-0.37691 0.525815,-0.68401 0.879122,-0.92252 0.347098,-0.23819 0.746902,-0.39709 1.198704,-0.47981 0.451203,-0.0812 0.934191,-0.0762 1.448576,0.0163 0.348827,0.0627 0.66481,0.16372 0.946115,0.30381 0.281587,0.13878 0.510011,0.27548 0.686011,0.40749 l 0.312173,-0.18848 0.372499,0.0671 -0.370488,2.23798 -0.381494,-0.0686 c -0.09648,-0.7113 -0.268887,-1.25702 -0.515514,-1.6383 -0.245392,-0.37969 -0.602897,-0.6126 -1.070081,-0.69659 -0.552591,-0.0995 -1.02369,0.0648 -1.413016,0.49269 -0.389502,0.42929 -0.661105,1.06669 -0.815304,1.91339 -0.163583,0.89952 -0.143687,1.62892 0.05951,2.19072 0.203094,0.5618 0.574993,0.8914 1.1176,0.98898 0.254106,0.0458 0.487292,0.0482 0.697618,0.009 0.211879,-0.0408 0.381671,-0.10139 0.5092,-0.18171 l 0.225495,-1.23917 c 0.0187,-0.10273 0.0152,-0.193 -0.0092,-0.26882 -0.02551,-0.0774 -0.0882,-0.1524 -0.191206,-0.22408 -0.08001,-0.0553 -0.181892,-0.1071 -0.307304,-0.15702 -0.125201,-0.0499 -0.229906,-0.087 -0.314996,-0.11441 l 0.061,-0.33517 3.14332,0.57457 -0.0025,0.34032 z m -38.361725,-38.8735 0.256399,-3.35143 0.341524,0.0258 c 3.53e-4,0.0734 0.0011,0.1813 0.0025,0.3223 -3.18e-4,0.14079 0.0103,0.23901 0.03037,0.29291 0.0351,0.1106 0.08781,0.18937 0.156527,0.23658 0.06879,0.0456 0.158574,0.0734 0.269382,0.0818 l 2.150815,0.1627 0.203094,-2.65441 -2.101321,-0.159 c -0.1004,-0.008 -0.191981,0.007 -0.273085,0.0438 -0.08259,0.0357 -0.149613,0.104 -0.202283,0.2019 -0.02681,0.0549 -0.05941,0.1469 -0.09652,0.2789 -0.03591,0.1336 -0.06071,0.24109 -0.0732,0.32548 l -0.341489,-0.0259 0.256399,-3.35139 0.341489,0.0257 c -0.0025,0.0734 -0.0018,0.18133 0.0038,0.32402 0.0056,0.14281 0.01718,0.2485 0.0363,0.31429 0.02928,0.10721 0.0822,0.18461 0.155398,0.2321 0.07479,0.0461 0.164501,0.0739 0.270898,0.0819 l 4.406406,0.3333 c 0.1034,0.008 0.190077,-0.004 0.263384,-0.0355 0.0732,-0.0304 0.1403,-0.10167 0.201401,-0.21089 0.04551,-0.082 0.0883,-0.1911 0.128799,-0.3259 0.04202,-0.13458 0.06759,-0.233 0.07821,-0.29368 l 0.341595,0.0258 -0.256293,3.35149 -0.341701,-0.0259 c 0.0011,-0.0912 -0.0058,-0.1996 -0.01841,-0.32801 -0.0145,-0.1269 -0.02949,-0.22529 -0.04389,-0.2939 -0.0303,-0.1161 -0.08431,-0.1966 -0.165418,-0.23869 -0.07969,-0.0435 -0.166793,-0.068 -0.260985,-0.0752 l -1.860197,-0.14079 -0.202988,2.65451 1.816699,0.1374 c 0.101883,0.008 0.190289,-0.005 0.26349,-0.037 0.07179,-0.0335 0.138995,-0.10481 0.201613,-0.21392 0.04029,-0.0734 0.081,-0.17219 0.120685,-0.29799 0.0412,-0.12418 0.0684,-0.22409 0.08311,-0.2993 l 0.341595,0.0258 -0.256328,3.35153 -0.341595,-0.0259 c 0.0011,-0.0943 -0.0028,-0.19939 -0.01319,-0.31859 -0.01058,-0.11758 -0.02649,-0.22529 -0.0478,-0.3211 -0.03048,-0.11321 -0.0847,-0.1923 -0.162701,-0.2371 -0.07938,-0.0435 -0.167782,-0.0697 -0.263596,-0.0769 l -4.412509,-0.33369 c -0.104775,-0.008 -0.19618,0.004 -0.272486,0.0361 -0.07631,0.0333 -0.143404,0.10318 -0.201295,0.20958 -0.03369,0.0678 -0.06862,0.1687 -0.102623,0.2993 -0.0326,0.13091 -0.05598,0.23851 -0.06837,0.323 l -0.34163,-0.0259 z"
       style="fill:#004b9d;fill-opacity:1;fill-rule:evenodd;stroke:none;stroke-width:0.352778"
       id="path50" />
  </g>
</svg>
