<?xml version="1.0" encoding="UTF-8" standalone="no"?>
<!-- Created with Inkscape (http://www.inkscape.org/) -->

<svg
   version="1.1"
   id="svg2"
   width="497.86609"
   height="163.90913"
   viewBox="0 0 497.86609 163.90914"
   xmlns="http://www.w3.org/2000/svg"
   xmlns:svg="http://www.w3.org/2000/svg">
  <defs
     id="defs6" />
  <g
     id="g10"
     transform="matrix(1.3333333,0,0,-1.3333333,-147.93884,880.15065)">
    <path
       d="m 180.7146,660.113 c 0.235,-0.1429 0.2948,0.1213 1.1651,-0.7183 0.5309,-0.9255 0.6091,-0.8932 1.26,-1.6653 0.6567,-0.7688 1.3782,-2.8653 2.101,-4.7761 0.7197,-1.9123 0.9422,-5.734 -0.003,-8.2432 -0.9423,-2.5078 -2.9206,-5.0678 -4.6885,-6.6056 -0.4346,-0.3792 -2.3239,-1.6132 -4.339,-3.4472 -2.3298,-2.1226 -4.9833,-5.0156 -8.2063,-7.8256 -1.5684,-1.3677 -3.6726,-2.8241 -5.1276,-4.1026 -1.6163,-1.4119 -3.0189,-2.9865 -4.2636,-4.047 -1.4735,-1.2572 -2.7734,-2.0982 -3.3228,-2.5172 -3.0342,-2.3082 -7.0798,-5.5159 -8.2355,-5.5159 0,0 3.9688,5.1276 6.9171,9.0077 1.2785,1.6772 2.365,3.1277 2.8531,3.8245 1.3459,2.0735 3.2783,3.903 4.6933,5.8872 3.8447,5.3949 7.3562,10.7896 11.3573,16.6876 1.5656,2.1104 2.6059,4.2375 3.6082,6.5843 1.0114,2.365 2.7227,7.382 4.2313,7.4727 z m -12.8457,-83.5756 0.5893,-3.7218 0.0949,-0.2194 c -0.0598,-1.7972 -0.3605,-3.8325 -0.6644,-5.2903 -0.169,-0.7875 -0.0692,-1.4307 -0.0108,-1.8681 0.0783,-0.6168 0.6568,-0.7183 1.8647,-1.0204 0.6553,-0.1628 0.9578,-0.7152 1.4643,-0.9701 0.6645,-0.3344 0.8671,-0.9377 0.9683,-1.2815 0.1182,-0.4037 0.468,-1.5639 0.2518,-2.3757 -0.2639,-0.9978 -0.8595,-1.897 -1.122,-2.4849 -0.4788,-1.0698 -0.9867,-1.705 -0.9867,-1.705 -0.898,-1.2464 -1.3278,-1.868 -1.9109,-3.1371 -0.7903,-1.7252 -1.6177,-2.8471 -1.6177,-2.8471 0.4544,-0.6523 1.0837,-0.491 1.8065,-0.37 1.8955,0.3178 4.377,1.9647 4.377,1.9647 2.0721,1.6529 3.0144,1.1373 3.926,1.1588 0.8903,0.0199 2.9007,-1.9831 3.4364,-3.8202 0.5772,-1.9967 -0.6922,-3.8537 -1.5854,-4.1805 -2.4143,-0.8887 -4.4586,-1.3553 -6.8973,-2.2193 -1.7679,-0.6279 -3.9259,-1.6452 -5.6939,-2.2992 -0.2747,-0.2287 -2.5002,-0.4005 -4.0195,-1.8694 -1.3306,-1.2875 -4.5922,-0.7889 -5.226,-0.1134 -1.1877,1.2583 -4.1669,4.6902 -3.6388,6.5288 0.4342,1.5117 1.269,3.992 1.349,4.428 0.0966,0.5371 2.6705,3.9702 3.1124,6.6299 0.2962,1.762 0.3362,2.9038 0.6415,3.9858 0.2044,0.726 0.0998,1.0083 -0.2562,1.4627 0,0 -0.8609,0.5173 -1.857,1.0973 -0.6307,0.3685 -1.7113,0.2593 -2.3114,0.7353 -0.3821,0.3038 -1.4213,0.9776 -1.6591,1.2968 -0.2993,0.4037 -0.1366,0.944 0.7781,1.3782 0.2747,0.1304 0.8181,0.7166 1.2141,0.8212 0.3438,0.0919 0.7673,0.1888 1.0343,0.2594 0.1826,0.049 0.6217,0.1259 0.749,0.1548 1.6636,0.3379 3.4993,0.0629 3.4993,0.0629 l 0.0904,0.3623 c 0.0922,0.5096 0.192,0.8396 0.0692,1.5624 -0.0966,0.557 -0.4467,1.584 -0.557,2.6705 -0.0952,0.887 0.2761,4.6857 0.7104,7.0263 v 2.3388 h 0.006 v 0.0355 l -0.8702,-0.235 c -0.8456,-0.4127 -1.5639,-1.4627 -2.6136,-1.5103 0,-0.2041 -1.7421,-0.6905 -1.7421,-1.1495 l -0.7183,-0.5969 h -0.1534 c -0.0675,-0.4697 -0.4221,-0.4788 -0.5879,-0.8703 -0.3407,0 -5.9241,-4.6273 -5.9241,-4.1544 v 0 c -0.0769,-0.0769 -0.1367,-0.1398 -0.1812,-0.2288 -1.091,-0.1043 -1.8263,0.2333 -2.8545,0.6032 0,0.3912 -1.0284,0.419 -1.4122,0.5094 l -0.3282,0.6063 h -0.0386 c -1.025,2.6998 0.009,5.2212 1.696,7.2196 0.0692,0 1.5103,1.5194 1.5854,1.745 0.4728,0.3606 0.0598,0.8442 1.0792,1.7433 v 0.0108 c 0.5462,0.3761 1.2829,1.0837 1.487,1.7345 l 0.2517,0.3912 c 0.5494,0.436 0.9238,0.8901 1.1741,1.7467 0.1979,0.1871 0.2824,0.3988 0.5678,0.4788 0.0292,0.1335 1.4519,1.4564 1.7189,1.7464 0.4544,0.5187 1.2249,1.2572 1.7374,1.7422 0.2548,0 1.5058,1.4748 1.7498,1.745 0.0306,0 2.2391,3.1385 2.5016,3.4883 l 0.1366,0.1536 0.8686,0.7183 c 0.0215,0.5278 1.7404,1.785 1.7404,1.8233 0.2104,0.2134 1.7419,1.8983 1.7419,1.9063 l 0.6248,0.6321 c 0.0428,0.2979 0.218,0.4927 0.2608,0.7889 0.0368,0.2823 -0.0536,0.6738 -0.0136,0.9547 h -0.872 c 0,-0.413 -1.2968,-0.8717 -1.7419,-0.8717 0,-0.0677 -2.9128,-1.7421 -3.4837,-1.7421 0,-0.2041 -2.2686,-1.745 -2.6124,-1.745 0,-0.1565 -3.4855,-1.6407 -3.4855,-2.2116 -0.3714,-0.3422 -2.6136,-1.4381 -2.6136,-1.4979 -0.5938,-0.049 -2.6121,-1.4612 -2.6121,-1.8048 -0.2594,-0.1519 -0.5802,-0.5924 -0.8702,-0.5924 v -0.0539 c -0.3898,-0.1995 -1.7419,-0.7826 -1.7419,-1.0834 -0.2719,-0.1244 -0.5465,-0.6077 -0.872,-0.6077 v -0.0261 c -0.8685,-0.6863 -1.7418,-0.8796 -2.5168,-1.7161 h -0.0967 v -0.0935 l -0.6126,-0.4406 c -0.6091,-0.6032 -1.7971,-1.398 -2.6274,-2.0857 l -0.2441,-0.2409 c -0.333,-0.2639 -1.7404,-1.4534 -1.7419,-1.7328 -0.2746,-0.1273 -0.5249,-0.6429 -0.8716,-0.6429 v -0.0446 c -1.3966,-1.4014 -4.7531,-2.9559 -5.7878,-4.0226 h -0.001 c -0.7798,-0.7798 -5.0278,-1.0054 -5.9749,-0.5372 0,0.0814 -1.5086,0.7535 -1.7419,0.8348 0,0.0692 -2.2668,0.7169 -2.6107,0.8842 0,0.0275 -4.6579,1.527 -5.2273,1.8218 0,0.161 -1.8125,0.5479 -1.3953,1.5607 l 0.9655,2.333 c 0.5417,0.1839 2.0458,2.4063 2.6122,2.4063 v 0.0493 c 0.3361,0.2977 2.6121,1.8601 2.6121,1.9168 0.2718,0.1519 1.7405,0.6661 1.7405,0.7812 l 0.4787,0.135 v -0.009 c 1.8726,0.2562 21.2996,9.3404 21.2996,9.3421 1.7818,0.5403 4.2834,2.6122 6.0993,2.6122 v 0.0615 c 0.4325,0.2576 4.3523,1.7478 4.3523,1.7801 0.5159,0.3317 4.3557,1.7881 4.3557,1.8204 0.4005,0.1259 2.6169,0.709 2.6169,0.8839 1.2569,0 2.4401,1.5579 3.4807,1.5579 v 0.0505 c 0.5173,0.2795 1.1098,0.8212 1.7422,0.8212 v 0.0521 c 0.3682,0.1398 0.8042,0.3745 0.8087,0.8212 h 0.0629 v 5.3685 c 0.2809,0.1506 2.6107,1.6867 2.6107,1.7204 0.3376,0.2809 6.7422,3.257 6.954,3.257 -0.3345,0.33 0.7642,-0.1721 1.2554,-0.0354 l 0.3606,-0.7215 c -0.0598,-0.3052 0.1443,-0.5663 0.1443,-0.8654 0.1964,0 0.1397,-1.0482 0.1488,-1.2432 l 0.1412,0.1442 c -0.1687,-0.1658 -0.29,-3.5807 -0.29,-4.136 l 0.8688,0.3098 c 0.7628,-0.2486 6.3,0.4391 6.3,0.9516 2.1334,0 1.6469,-0.003 3.2338,-0.8317 l 0.4391,-1.1681 c 1.3031,-2.5384 -1.9324,-3.3458 -1.9324,-3.7602 -0.4757,-0.3574 -1.2983,-1.4717 -1.7405,-1.4717 0,-0.4329 -2.4004,-2.6184 -2.6121,-2.6184 v -0.1182 l -3.8999,-1.923 h -0.008 c 0,-0.1213 -2.2498,-2.5815 -2.6135,-2.6138 0,-0.1381 -2.2686,-4.578 -2.2686,-6.5688 -0.0244,0 -0.1165,-1.6605 -0.1258,-1.8017 l 2.6152,1.5517 v 0.005 c 1.2342,0 2.8732,2.4431 4.1562,2.4431 0,0.3717 4.0734,0.4882 3.9767,0.5848 2.4831,-0.5723 5.7631,-2.2606 5.7631,-5.2288 0.2208,0.2209 -0.1996,-2.2807 -1.0653,-2.2807 0,-0.3362 -0.3636,-0.4833 -0.6752,-0.8703 l -3.1555,-4.5966 c -0.0539,0 -0.5219,-0.758 -0.5264,-0.8703 -0.2639,0 -2.0673,-2.3096 -2.4021,-2.7671 l -0.646,-0.8717 c -0.2378,0 -1.461,-2.0596 -1.8065,-2.5415 -0.9822,-0.6384 -1.372,-1.1311 -2.2408,-1.5577 -0.7841,-0.3838 -1.9321,-0.4637 -3.0586,-0.8166 -1.8771,-0.8825 -2.3527,-0.6999 -4.2757,-0.6906 z m 8.5685,12.2106 c -1.228,-1.4335 -1.3093,-2.2791 -2.6124,-3.1893 0,-0.5125 -2.0965,-1.722 -2.6152,-1.9522 l -0.0428,-0.0476 -1.6974,-0.0428 v 4.5643 c 0.1763,0 0.4311,0.4864 1.326,0.8379 l -0.0201,-0.0538 3.0495,2.0996 1.4491,0.6338 -0.0156,-0.009 1.1789,0.6477 h 0.8717 l 0.5201,-0.8827 c -0.5723,-0.6707 -0.8932,-1.6713 -1.3918,-2.6059 z m -25.1396,-6.2558 c 0.2409,1.544 2.6597,4.2483 3.3642,5.3824 0.5326,0.8334 2.1764,2.158 2.6124,2.6198 h 0.0153 c 0.3821,0.3977 2.5982,2.399 2.5982,2.6138 l 0.4742,0.1443 0.396,-0.1443 0.0567,-0.7889 -0.0567,-2.7011 c -0.1919,-0.9762 0.1273,-2.092 -1.7067,-2.9452 -0.3376,-0.2302 -0.6001,-0.7614 -1.777,-1.415 -0.0324,0 -0.8859,-0.4315 -1.8434,-1.0316 -0.6185,-0.3897 -1.2047,-0.8901 -1.9091,-1.2554 -0.6877,-0.3575 -1.3601,-0.6492 -1.8973,-0.7719 -0.3021,0.0122 -0.362,0.0459 -0.3268,0.2931 z m 121.3815,19.6665 c 1.3153,1.794 2.537,3.2876 3.5331,4.9204 0.29,0.4728 0.1826,1.5701 -0.1857,1.9445 -0.3146,0.3209 -1.3782,0.2242 -1.9139,-0.0598 -1.9508,-1.0375 -2.9222,-2.9421 -4.1315,-4.8696 0.8671,-0.6217 1.6007,-1.1481 2.698,-1.9355 z m 0.8702,-24.7266 c 2.0135,0.1275 3.7404,0.9116 5.4899,1.6775 1.0834,0.4742 2.2269,1.0114 3.3749,1.0928 3.7956,0.2687 5.9103,-3.3979 4.0641,-6.8911 -1.2065,-2.2807 -2.4512,-4.543 -3.6496,-6.8252 -0.4238,-0.8042 -0.7566,-1.6467 -1.2433,-2.7196 1.036,-0.5218 1.8986,-1.002 2.7932,-1.4043 0.9256,-0.4144 1.8879,-0.7398 2.8242,-1.125 2.715,-1.1112 3.2414,-1.7295 3.0756,-3.5989 -0.1843,-2.0951 -2.0903,-4.1791 -4.1607,-4.5935 -2.382,-0.4743 -4.3665,0.1947 -5.9978,1.972 -0.9241,0.9947 -1.8542,1.9877 -2.7811,2.9838 -2.5248,-2.3176 -4.9204,-4.4601 -7.2488,-6.6657 -2.1163,-2.0027 -5.703,-2.19 -7.973,-0.3314 -0.1474,0.1165 -0.2701,0.2563 -0.4022,0.3821 -2.8621,2.7088 -2.6841,3.4963 0.8932,5.1478 2.5078,1.1556 4.9575,2.4431 7.3684,3.7953 0.93,0.5187 1.6806,1.3674 2.5279,2.0826 -0.324,1.1358 -0.6585,2.0857 -0.8549,3.0651 -0.3592,1.8156 0.2027,2.4233 2.0137,2.2422 0.9882,-0.1012 1.9707,-0.2486 3.1278,-0.3943 0.735,1.8323 1.4074,3.5053 2.035,5.0723 -1.1895,1.2739 -2.3497,1.5225 -3.7171,1.0681 -0.6046,-0.2024 -1.3323,-0.557 -1.857,-0.3867 -2.5064,0.8119 -3.5348,-0.8747 -4.9711,-2.402 -4.3175,-4.5842 -7.9532,-9.652 -11.4817,-14.8366 -1.4948,-2.1945 -3.2108,-4.2511 -4.9142,-6.2971 -0.568,-0.6815 -1.3813,-1.1787 -2.1427,-1.6728 -1.0083,-0.6553 -1.9738,-0.4634 -2.6612,0.508 -0.9008,1.2722 -1.8447,2.5416 -2.5095,3.9382 -0.6077,1.2693 -0.557,2.6612 0.1721,3.9934 1.567,2.8548 3.5206,5.4363 6.205,7.2457 4.8314,3.2553 8.6806,7.3805 11.8514,12.2167 0.7475,1.1449 1.7391,2.1317 2.7689,3.3718 -0.4283,0.8334 -0.8595,1.7235 -1.334,2.5861 -0.3529,0.6432 -0.864,1.2186 -1.1248,1.8955 -0.7951,2.0611 0.2316,3.7063 2.4063,3.8429 1.2864,0.0814 2.5833,-0.072 3.8725,-0.0167 2.7195,0.112 4.6947,1.6314 5.6525,4.1485 0.3376,0.8978 0.33,1.6282 -0.5204,2.1702 -0.7719,0.4879 -1.3031,0.0675 -1.9262,-0.4589 -3.4517,-2.9191 -5.8966,-2.9163 -9.2284,-0.066 0.7596,1.3444 1.5256,2.6903 2.2654,3.9965 -1.8127,1.6957 -1.8496,1.7433 -3.4242,0.5049 -1.1067,-0.8734 -2.1532,-1.3553 -3.6097,-0.2869 0.2685,0.9544 0.5723,1.8938 0.7889,2.8483 0.2149,0.9654 0.3421,1.9431 0.4972,2.8669 -1.3552,0.5987 -1.9431,-0.2577 -2.5739,-0.8623 -0.4572,-0.4405 -0.8841,-0.9669 -1.1647,-1.5349 -3.7726,-7.68 -9.4666,-14.0463 -14.2841,-21.0155 -3.4548,-5.0004 -6.8712,-10.0282 -10.2353,-15.0869 -2.649,-3.9855 -5.1015,-8.0988 -7.8137,-12.0401 -2.2881,-3.3336 -4.8161,-6.5013 -7.2578,-9.7288 -0.33,-0.4374 -0.7427,-0.815 -1.154,-1.1787 -2.7352,-2.3819 -3.8155,-2.0367 -4.8254,1.5072 -0.1506,0.5264 -0.3192,1.0789 -0.6171,1.5302 -1.5914,2.4139 -1.0421,4.75 0.2148,7.0492 1.2356,2.2606 2.6677,4.426 3.7497,6.7575 0.5539,1.1985 1.6115,0.4512 2.2408,1.0389 1.6035,1.5117 3.4792,2.8071 4.8268,4.5215 11.6073,14.792 23.1242,29.6592 34.6825,44.4898 0.7982,1.0267 1.4349,1.995 1.5225,3.4225 0.1213,1.9429 1.7787,3.0756 3.2952,3.7953 1.1586,0.5542 1.9338,1.2833 2.6995,2.1887 2.2578,2.6705 4.5552,5.3073 6.7915,7.9914 0.4249,0.5097 0.6582,1.1835 1.2875,2.3576 -1.9276,-0.5035 -3.2383,-0.8042 -4.5261,-1.1835 -3.7908,-1.1171 -7.5756,-2.2422 -11.3493,-3.4024 -0.9686,-0.2979 -1.8893,-0.7413 -2.8319,-1.1129 -4.041,-1.59 -8.062,-1.9123 -11.9911,0.3195 -2.4111,1.3719 -3.0418,2.681 -2.6135,5.0184 5.0921,0.654 10.2245,1.0114 15.2217,2.0336 4.9879,1.0222 10.0313,2.0888 15.162,4.388 -2.9852,2.4832 -5.6098,4.7208 -8.3015,6.8743 -1.3247,1.0636 -2.092,2.319 -1.9231,4.0332 0.1381,1.3858 0.9698,1.9967 2.2729,1.4703 3.1203,-1.2583 6.3969,-1.6129 9.6797,-2.1209 1.9355,-0.2962 3.9152,-1.1358 5.5928,-2.1824 2.3833,-1.4842 2.6229,-3.045 1.2815,-6.0148 0.9655,0.1947 1.7158,0.2639 2.4126,0.5003 2.3527,0.7979 4.6457,1.7804 7.0276,2.4571 3.7372,1.0666 4.8407,-0.2333 5.533,-3.0036 0.1349,-0.5324 0.3421,-1.0528 0.4634,-1.59 0.6432,-2.8746 -0.729,-4.9433 -3.6158,-5.3977 -2.712,-0.4266 -5.444,-0.7291 -8.1375,-1.2308 -0.9391,-0.1735 -2.0287,-0.5618 -2.6521,-1.228 -4.5567,-4.8129 -9.0167,-9.7194 -13.4934,-14.6063 -0.2427,-0.2654 -0.3853,-0.6245 -0.614,-1.0007 0.3101,-0.5525 0.5601,-1.1571 0.9516,-1.6497 1.1418,-1.4519 1.8232,-1.429 3.0265,-0.0508 0.7889,0.9009 1.5656,1.8233 2.4387,2.6306 3.3519,3.1033 6.311,6.44 7.0492,11.173 1.8402,0.8643 3.3627,0.106 4.6672,-0.9054 0.502,-0.3821 0.8226,-1.5162 0.6491,-2.1563 -0.4878,-1.8357 -1.2721,-3.5915 -1.963,-5.4377 1.6869,-1.5471 1.9126,-1.6498 3.5547,-0.396 1.2384,0.9425 2.471,1.9845 3.3795,3.223 0.7551,1.0298 1.5457,1.1619 2.5877,0.9686 1.9429,-0.3623 3.424,-2.0075 3.9183,-4.1947 0.4666,-2.0642 -0.4974,-3.3548 -2.1688,-4.3081 -1.6021,-0.9116 -3.1308,-1.9981 -4.8268,-2.6719 -3.4101,-1.3644 -5.7186,-3.9521 -7.9869,-6.6303 -0.227,-0.267 -0.3345,-0.64 -0.5233,-1.0281 0.9652,-1.1974 1.986,-1.2433 3.0589,-0.2903 0.9683,0.8535 1.8094,1.8681 2.8468,2.617 0.944,0.6828 2.0291,1.3243 3.1417,1.5746 1.705,0.3807 2.675,-0.5156 3.1433,-2.2484 0.2778,-1.0361 0.669,-2.0628 1.1787,-3.0036 0.8869,-1.6331 0.7151,-2.9038 -0.8981,-4.0348 -1.2016,-0.8397 -2.5429,-1.4902 -3.7953,-2.2655 -1.9539,-1.2093 -2.0888,-1.5545 -1.6667,-3.803 0.4252,-2.2852 -0.023,-3.2017 -2.1949,-4.0963 -1.8737,-0.7722 -3.8075,-1.3921 -5.6846,-2.1532 -2.2071,-0.8994 -3.5745,-2.4911 -4.2007,-4.8285 z m -13.905,9.8546 c -0.5417,-1.3626 -0.904,-2.2714 -1.1325,-2.8482 0.4604,-1.8219 1.4103,-3.4949 1.0911,-4.8731 -0.3592,-1.5409 -1.6651,-3.0433 -2.9254,-4.1454 -2.3312,-2.0443 -5.1352,-2.1733 -8.8446,1.6084 1.8708,5.1891 5.2872,8.2539 11.8114,10.2583 z m 99.3192,15.4874 c -0.3929,-3.949 -0.993,-6.7927 -0.9009,-9.87 0.0369,-1.2141 7.4452,2.2315 8.1865,2.4633 0.0844,0.0244 0.1672,0.0477 0.2503,0.0689 0.1043,0.0493 0.2117,0.1015 0.3174,0.1474 1.3323,0.6001 2.7995,1.0284 4.1318,1.6869 l 3.3673,1.8525 0.5876,0.3758 0.6707,0.3668 c 0.2166,0.1429 0.5128,0.4099 0.4759,0.6877 -0.0323,0.2653 -0.1091,0.5326 -0.1335,0.7688 -0.0215,0.235 -0.3424,0.2579 -0.0952,0.462 0.227,0.0998 -0.4419,0.6032 0.3654,0.5678 l 0.6046,-0.1457 0.5048,-0.1613 c 0.4298,-0.1732 0.8949,-0.5556 1.2816,-0.847 0.6386,-0.479 1.1681,-0.9008 1.5579,-1.4689 0.3084,-0.4465 0.9284,-1.6897 1.0497,-2.1946 l -0.0553,-0.0323 0.0337,-0.3206 c 0.0508,-0.0754 -0.2333,-1.4167 -0.2701,-1.4474 0.0445,-0.261 -10e-4,-0.6783 -0.2531,-0.8379 l 0.0292,-0.0462 c -0.2778,-0.3421 -0.4604,-0.2517 -0.8487,-0.5278 -0.0508,-0.6832 -1.8403,-1.5242 -2.3743,-1.5823 -0.0553,0.0873 -2.9313,-1.0698 -5.5483,-1.9998 -3.7525,-1.607 -7.7136,-2.9577 -9.9054,-3.7372 l -0.2086,-0.1321 -0.1196,0.0139 c -0.3331,-0.1182 -0.6185,-0.2243 -0.8382,-0.307 -0.5953,-0.2288 -1.8922,-0.4989 -1.6039,-1.0681 0.6509,-1.2756 0.5772,-2.8009 2.6997,-5.4255 0.6186,-0.7628 1.7759,-3.4501 2.3698,-4.5414 0.7138,-1.3167 2.1288,-3.797 2.8837,-5.04 0.6463,-1.0653 1.7818,-2.5294 2.5356,-3.6298 0.551,-0.809 0.9898,-1.7206 1.5653,-2.4863 1.584,-2.0996 2.6753,-3.2723 4.3894,-4.7701 0.5664,-0.4958 1.6007,-1.4244 2.1886,-1.8295 0.5772,-0.3974 1.4106,-0.8793 1.9968,-1.2033 1.3382,-0.7336 2.9253,-1.1526 4.1961,-1.5562 2.2898,-0.7319 4.1207,-1.1463 5.5973,-1.3059 0.7106,-0.0768 1.5885,-0.1075 2.0044,-0.1766 1.0528,-0.1812 0.7044,-0.4666 -1.2725,-1.3184 -1.2183,-0.531 -3.1615,-1.6574 -6.0191,-2.382 -0.9915,-0.2517 -2.3868,-0.5326 -3.5484,-0.9915 -1.3737,-0.5417 -3.4333,-0.0828 -4.8591,0.4252 -1.5994,0.5709 -2.5663,0.93 -4.038,2.2915 -0.6568,0.606 -1.2937,1.639 -1.8969,2.3235 -2.0614,2.3313 -3.7619,4.3419 -4.741,6.2896 -0.953,1.771 -1.7989,3.9812 -2.5537,5.4161 -2.3023,4.3756 -3.7834,7.3009 -5.1217,9.356 -0.4512,0.6951 -0.5632,0.9301 -1.1355,0.9301 -0.4805,0 -0.5434,-0.5358 -0.637,-0.7659 -0.947,-2.319 -1.4842,-4.9989 -2.5554,-7.3347 -0.9377,-2.0474 -2.3712,-3.7771 -3.6819,-5.5528 -1.6345,-2.2147 -3.5039,-4.2559 -6.4874,-5.2871 -0.9317,-0.3209 -2.3207,-0.5726 -3.4274,-0.7385 -2.0058,-0.299 -4.2942,-0.1304 -7.3207,0.1106 -3.4793,0.2764 -9.1426,0.29 -13.6332,0.5142 -3.4087,0.4697 -3.8569,1.2384 -2.342,2.2547 2.3113,0.494 9.2007,0.9745 10.9766,1.2353 1.599,0.2347 5.4975,0.7903 7.3284,1.5993 3.1569,1.3966 5.2214,2.9636 7.6187,5.6081 1.2078,1.3306 1.9936,2.8698 2.9681,4.6332 0.7736,1.406 1.8493,2.9591 2.0336,4.6627 0.267,0.2333 1.042,2.5829 1.6897,5.0695 -0.8424,-0.2273 -1.6254,-0.2809 -2.2867,-0.5083 -1.2217,-0.4189 -2.181,-0.5615 -2.9406,-0.8824 -1.5135,-0.64 -2.2471,-1.2614 -2.7151,-1.4043 -0.7979,-0.25 -0.9102,-0.2715 -1.9153,-0.6001 -0.7844,-0.2548 -0.798,-0.6675 -1.584,-0.9484 -0.7336,-0.2639 -0.7796,-0.3286 -1.3213,-0.6568 -0.3685,-0.2242 -0.9762,-0.3793 -1.1035,-0.6324 -0.7322,-0.881 -1.8309,-0.8195 -2.4557,-1.3873 -0.6769,-0.195 -2.1869,0.0567 -2.91,0.9958 -0.0136,0.0184 -0.7841,1.1696 -0.8623,1.294 -0.5635,0.8394 -1.1035,1.4258 -1.1727,1.438 -0.3821,2.3281 1.4088,3.5224 2.7164,4.0011 l 2.4296,0.8856 c 1.4304,0.1273 3.1385,1.1494 5.4499,2.0245 3.0728,1.1616 6.8743,1.8754 10.154,3.4438 0.6525,0.3115 1.2248,0.5817 1.7237,0.8195 0.3314,1.7099 0.7382,3.5807 1.1265,5.5559 0.3453,5.3303 2.431,16.0492 2.5923,23.3654 l -0.2795,8.6284 -0.1182,-0.003 c -0.0337,1.0944 -1.6376,2.4602 -1.6727,3.4764 v 0 l 0.1426,-0.1352 c -0.008,0.2256 0.008,0.3929 -0.1412,0.5862 l 0.005,0.009 0.0616,-0.0538 c -0.0199,0.6202 0.2778,1.2815 0.7012,1.722 l 0.7767,0.0706 h -0.0382 c 2.0381,0.0935 4.2573,-0.4541 6.1957,-0.9008 l 0.003,-0.0981 0.4235,-0.1919 c 0.1383,0.003 0.4589,-0.4221 0.4958,-0.5942 0.3852,-0.089 0.8135,-0.3651 0.89,-0.7795 0.3546,-0.1397 0.8459,-0.5097 0.8581,-0.9377 l 0.072,10e-4 c 0.2228,-0.6032 0.6678,-0.695 0.7231,-1.3827 0.8118,-0.574 -0.186,-3.2522 -0.5097,-3.9612 l -0.1411,-0.002 c 0.0351,-1.0451 -0.1613,-2.537 -0.6279,-3.4747 l -0.2239,-1.2554 c 0.001,0.006 -0.0491,-0.1687 -0.0508,-0.2441 -1.1449,-4.1698 -1.9553,-11.1591 -2.5707,-16.4049 l 0.0706,10e-4 z m 95.1633,-65.1677 c -1.6195,0.1888 -7.3548,0.5573 -8.3064,0.5587 l -0.0859,0.006 -1.2231,0.7659 v 0.2024 h -0.4468 c -0.1888,0.1874 -1.2461,0.597 -1.2461,0.8487 h -0.0476 c -0.2378,0.244 -1.2983,0.7798 -1.6452,0.8198 v 0.0289 l -0.8028,0.2642 c 0,0 -1.3397,0.2746 -1.6421,0.5816 v 0 c -1.1512,1.1495 -4.6718,4.5383 -6.245,4.5491 -0.1242,0.1641 -0.3237,0.2625 -0.5278,0.2639 h 0.003 l -1.2892,1.0284 -0.0995,0.5692 -0.6446,0.083 c -0.0417,0.0859 -0.0831,0.1579 -0.1213,0.2441 0.4572,0.5508 2.2975,0.1732 4.8512,-0.146 1.633,-0.2027 3.0404,-0.0122 4.79,-0.2608 1.3629,-0.1933 2.6061,-0.8733 3.7865,-1.1188 0.8456,-0.1752 1.5378,-0.3317 2.1146,-0.3115 0.3668,0.0122 0.7475,0.1856 0.9057,0.1856 0,0.2149 -0.005,0.4388 -0.009,0.6676 -0.0891,2.9713 -0.6937,7.1674 -0.7674,9.606 -0.0674,2.1365 -0.066,5.2552 0.0998,7.9164 -2.2621,0 -14.6001,-3.9396 -14.8856,-4.4969 l 0.0936,0.1905 c -2.0044,0 -5.5987,-1.874 -7.3486,-0.0922 v -0.002 c -0.0473,-0.0966 -0.1703,0.1321 -0.2746,0.1673 v 0.1153 c -0.669,0 -1.105,0.4159 -1.6943,0.597 v 0.2486 c -0.5417,0.0167 -2.5416,1.122 -2.5416,1.6988 h -0.005 l -0.8396,0.7492 v 0.0998 l -0.5097,0.2361 v 0 c 0,-0.2486 -0.339,0.3654 -0.339,0.6095 h -0.1843 c -0.1672,0.1641 -0.2395,0.2517 -0.4527,0.3637 0.0737,0.3254 -0.2454,1.5976 0.1764,1.8079 0,1.6897 3.2462,0.9916 3.9798,1.5962 4.8529,1.1372 4.9649,0.2225 9.0626,1.1557 4.5369,1.0312 10.6039,2.1608 11.4432,2.1608 l 0.3561,0.0876 v 0 c 1.0621,0 3.7264,1.283 5.0986,2.365 1.6254,1.2801 1.5364,2.9792 1.8848,4.2973 l 0.574,0.5587 c 0.3957,0.4558 0.6523,1.0222 0.7274,1.6974 l 0.3146,1.6928 c -1.5531,0 -2.7689,0.6217 -4.2312,0.6432 h 0.0104 l -0.8563,0.089 v 0.1196 c -1.7311,0 -2.9529,-0.3007 -4.2358,0.783 v 0.0612 h -0.0706 l -0.4054,1.059 c 0.2948,0.1551 0.9902,0.8396 1.0514,1.1772 0.4144,0.0783 1.6929,0.8133 1.9491,1.0713 v 10e-4 c 0.1829,0.1888 0.6355,0.0862 0.8643,0.0862 l 0.006,0.428 h -0.006 v 0 c 0.9085,0.006 3.3489,2.3374 3.9427,2.9622 h 0.29 v 0.1919 c 0.5264,0.1996 0.9133,0.5479 1.4428,0.6369 0.0859,0.0706 0.1687,0.1472 0.2486,0.224 v 0.0691 l 0.1979,0.1151 c 0.3929,0.3836 0.7798,0.7889 1.2078,1.1418 0.4652,0.3853 1.1053,0.6154 1.5993,0.8581 6.9463,3.4149 13.5182,7.9115 18.9788,12.1844 0,0.0904 0,0.1826 0,0.2747 -0.032,0.0306 -0.0612,0.0615 -0.0935,0.0904 -6.423,0.1797 -13.9034,-3.8367 -19.9227,-6.0653 -3.9504,-1.4627 -8.9003,-3.2216 -12.3166,-4.4722 -0.4419,-0.2687 -1.1511,-0.3713 -1.9584,-0.3438 v -0.002 c -0.0967,-0.017 -0.1934,-0.0462 -0.2761,-0.0907 -0.1474,-0.003 -0.2702,-0.0215 -0.4145,-0.1227 -0.0476,-0.017 -0.0935,-0.0383 -0.138,-0.0644 -0.1029,-0.009 -0.2548,-0.0476 -0.347,-0.089 -0.0643,-0.006 -0.1241,-0.017 -0.1842,-0.0399 -0.1026,0 -0.1902,-0.005 -0.2883,-0.0306 h -2.0276 v -0.1568 c -0.2977,0 -0.5633,0.0215 -0.8533,-0.0428 l -1.0468,10e-4 c -0.0581,0.0122 -0.121,0.0278 -0.178,0.0323 -0.1718,0.1151 -0.3331,0.1488 -0.5326,0.1488 v 0.0171 h -3.826 c -0.0691,0.0365 -0.1505,0.0612 -0.2332,0.0674 -0.0814,0.0491 -0.1735,0.0828 -0.275,0.0921 -0.121,0.0737 -0.2914,0.1579 -0.4173,0.1795 -0.1199,0.1151 -0.284,0.1888 -0.4634,0.1902 v 0 h 0.1794 c -0.0584,0.0584 -0.1105,0.1137 -0.1794,0.1613 v 0.1794 h -0.0108 v 1.2033 c 0,0.089 -0.017,0.1704 -0.0431,0.2441 -0.003,0.0813 -0.0198,0.1613 -0.0459,0.2333 v 0.6063 l -0.1582,-0.1536 v 0 c 0.0907,0.089 0.1582,0.2041 0.1857,0.3362 0.0215,0.0507 0.0476,0.0907 0.0675,0.1428 h 0.005 c 0,0.1795 0.267,0.4082 0.379,0.5202 v 10e-4 c 0.0354,0.034 0.1703,0.0893 0.2364,0.146 0.1119,0.0553 0.2347,0.129 0.3345,0.2027 h 0.7888 v 0.405 c 0.0723,0.0414 0.1367,0.0936 0.1919,0.1596 0.0891,0.023 0.1766,0.0629 0.2563,0.1259 0.0768,0.0107 0.1996,0.0507 0.2747,0.0799 0.0966,0.001 0.1856,0.009 0.2778,0.049 0.1735,0 0.3869,-0.0229 0.5465,0.0414 0.0536,0 0.1105,0.005 0.1641,0.0122 h 0.8977 v 0.2396 c 0.0539,0.0167 0.1137,0.0382 0.1874,0.0768 0.1381,0.0153 0.4419,0.1272 0.5723,0.1933 0.1015,0.0215 0.2013,0.0706 0.2841,0.138 0.1043,0.0261 0.2026,0.0737 0.284,0.1474 0.1641,0.0797 0.2288,0.072 0.4113,0.072 v 0.1106 c 0.0522,0.0261 0.1029,0.0615 0.1534,0.1029 0.0722,0.0261 0.1411,0.0643 0.2041,0.1165 0.1074,0.0247 0.2103,0.0785 0.2962,0.1568 0.1043,0.0368 0.1797,0.0643 0.2809,0.1119 0.112,0.0261 0.2225,0.0797 0.3115,0.1596 0.0692,0.0275 0.1398,0.0629 0.2027,0.0998 0.0981,0 0.1871,0.0122 0.29,0.0122 v 0.0399 c 0.0598,0.0261 0.1168,0.0616 0.1689,0.1029 0.0814,0.0216 0.161,0.0567 0.2302,0.1075 0.0737,0.0215 0.1718,0.0553 0.2333,0.0827 0.1565,0.0738 0.3331,0.0936 0.4819,0.2104 0.0615,0.008 0.1321,0.0323 0.2041,0.0629 0.4099,0.218 0.818,0.4297 1.1911,0.6537 4.8821,2.9163 13.4475,2.3576 11.6688,10.8694 -0.4252,0.3391 -1.3754,2.0841 -2.1642,1.7558 -0.887,-0.7951 -2.1839,-2.2564 -3.0725,-3.0529 -0.9301,-0.6891 -2.6873,-2.4846 -4.3095,-3.2505 -0.6724,-0.3115 -1.3,-0.5542 -1.7867,-0.6554 -0.0292,0.0275 -0.0598,0.0584 -0.0921,0.089 -0.008,0.7566 -0.0338,1.6393 0.1842,2.3545 0.9349,3.0818 3.7435,5.7093 5.5114,8.151 -0.7197,0.5848 -1.7388,1.2938 -2.577,2.187 -1.5961,1.7129 -1.7112,-0.5724 -2.8544,-1.1433 -1.1418,-0.5726 0.574,0 1.1432,-1.3705 0.5726,-1.3706 -2.0566,-3.7678 -2.6275,-4.5675 -0.5709,-0.7996 -1.5993,-0.9147 -1.7127,-2.0565 -0.2364,-2.3667 1.2062,-6.6302 -2.4066,-7.0861 -0.6599,-0.0813 -6.2189,1.1832 -5.9992,1.8448 -0.2656,0.8686 -0.3379,2.7749 -0.3379,3.2828 0,1.8831 -0.3161,5.2229 -1.3153,7.3177 -0.4113,0.8688 -1.1894,1.366 -1.7311,1.8003 -0.3237,0.2579 -0.0768,0.5972 0.0445,0.7798 2.1257,0.2086 5.4193,-1.2753 6.7207,-2.6859 2.474,-1.1602 0.8487,6.3292 1.2707,8.1528 0.3408,1.4839 2.1549,1.4439 2.8409,1.1018 0.686,-0.3439 2.1688,-2.6274 2.1688,-3.886 0,-1.2555 1.8295,-0.3408 1.8295,-0.3408 l -0.1137,3.312 c 0,0 -0.6877,1.4874 -2.2853,1.7144 -1.1004,0.1551 -3.2998,2.0336 -3.7601,3.2046 -0.6064,1.5378 2.6059,0.9301 2.8547,1.2617 1.1801,0.8011 2.2513,1.065 3.7401,1.3981 1.0837,0.2409 1.7098,0.1811 2.7258,0.3223 2.2759,0.3191 3.5943,-4.2282 5.4346,-2.8993 3.1892,4.8331 7.4775,10.857 10.4133,15.9862 h 0.003 l 0.2994,0.5327 c 0.3359,0.3835 1.3212,1.3904 1.2846,1.7526 0.0445,0.0737 0.0783,0.1534 0.0936,0.2379 0.0584,0.1057 0.1564,0.3807 0.1686,0.4909 0.2333,0.6248 0.6509,1.0729 0.7951,1.7697 0.0446,0.0782 0.0981,0.2271 0.1183,0.3146 0.0705,0.129 0.1349,0.3223 0.1349,0.468 0.2012,0.7353 0.5972,2.2825 0.1046,2.8625 -0.1367,0.1613 -0.1137,0.261 -0.1443,0.4683 -0.2072,1.4901 0.1871,0.7058 -0.3915,1.8476 -0.0139,0.1199 -0.003,0.3177 -0.0567,0.4283 l -0.0399,0.3362 c 0.0414,0.0136 0.0768,0.0292 0.1105,0.0459 1.1832,0.1259 0.2869,0.2166 1.2475,0.3161 0.0814,-0.0199 0.1676,-0.029 0.2566,-0.0199 0.0612,-0.0167 0.1241,-0.0261 0.1888,-0.0275 0.362,-0.1627 2.0795,-0.1828 2.1914,-0.1703 0.0414,-0.0139 0.0876,-0.0278 0.1321,-0.0324 0.112,-0.0722 0.241,-0.0907 0.3592,-0.0844 0.5831,0.0184 0.2256,0.0261 0.7611,-0.1565 0.3285,-0.1151 0.72,-0.1641 1.0114,-0.1321 0.1091,-0.0108 0.1859,-0.0383 0.3039,-0.0306 0.0737,-0.0323 0.1519,-0.0522 0.2349,-0.0598 0.0477,-0.023 0.0981,-0.0414 0.1489,-0.0539 0.1443,-0.129 0.3146,-0.1686 0.4957,-0.2086 0.0828,-0.04 0.1718,-0.0737 0.2654,-0.0845 0.1199,-0.0813 0.2625,-0.1227 0.413,-0.1227 0.1241,-0.0584 0.2732,-0.1075 0.4113,-0.1075 0.066,-0.0198 0.1349,-0.0306 0.2055,-0.0306 0.0814,-0.0229 0.1721,-0.0323 0.2642,-0.0246 0.0306,-0.008 0.0629,-0.0153 0.0935,-0.0168 0.0445,-0.0323 0.0922,-0.0538 0.1412,-0.0737 0.1519,-0.1306 0.2364,-0.1828 0.4207,-0.2534 0.0351,-0.0136 0.1349,-0.1074 0.1732,-0.138 0.132,-0.1075 0.284,-0.1474 0.413,-0.2424 0.1227,-0.0983 0.2517,-0.218 0.3943,-0.2749 0.2026,-0.1656 0.2041,-0.0397 0.3055,-0.2622 0.04,-0.0984 0.0998,-0.1829 0.1749,-0.2566 0.0859,-0.1335 0.2211,-0.2072 0.3362,-0.3146 0.0689,-0.1075 0.1242,-0.2024 0.2333,-0.2807 0.0199,-0.0277 0.0369,-0.0569 0.0598,-0.0844 0.0414,-0.0845 0.0936,-0.169 0.1735,-0.2364 0.04,-0.0661 0.1227,-0.1642 0.1763,-0.224 0.04,-0.0861 0.0967,-0.1675 0.1627,-0.2304 0.0584,-0.1687 0.1752,-0.3053 0.3192,-0.3929 0.0754,-0.0751 0.0907,-0.2041 0.2305,-0.3314 0.0504,-0.1043 0.1272,-0.195 0.2177,-0.2656 0.0385,-0.0598 0.0768,-0.1196 0.123,-0.1749 0.0504,-0.1182 0.0998,-0.2347 0.1871,-0.3331 0.0323,-0.0691 0.089,-0.161 0.1366,-0.2256 l 0.0876,-0.8195 c -0.0814,-0.1335 -0.0754,-0.2931 -0.0584,-0.462 0.0139,-0.1197 -0.023,-0.201 -0.0139,-0.3238 -0.066,-0.1519 0.0122,-0.551 -0.0845,-0.8719 -0.0765,-0.1548 -0.0674,-0.4374 -0.1732,-0.5692 v 0 c -0.0813,-0.0967 -0.1598,-0.1933 -0.2058,-0.3101 -0.0274,-0.0337 -0.0521,-0.0643 -0.0737,-0.1029 -0.3483,-0.3254 -1.1417,-1.0205 -1.332,-1.461 -0.0799,-0.0567 -0.2718,-0.2503 -0.324,-0.3362 -0.2055,-0.1488 -0.1964,-0.1088 -0.2746,-0.3636 -0.08,-0.04 -0.1902,-0.1642 -0.2347,-0.2379 -0.1106,-0.0521 -0.2058,-0.1275 -0.2795,-0.2242 -0.0769,-0.0553 -0.1457,-0.1227 -0.2226,-0.1825 -1.0757,-0.5466 -1.9153,-1.3539 -2.764,-2.2499 -0.1089,-0.0692 -0.2778,-0.1338 -0.3731,-0.2256 -0.0581,-0.04 -0.1196,-0.0723 -0.178,-0.1168 -0.0737,-0.0261 -0.1457,-0.0692 -0.2024,-0.1242 l -0.6049,-0.4652 0.017,-0.008 c -2.8638,-3.7894 -7.5189,-9.2792 -8.9078,-11.3865 -0.29,-0.4036 0.1689,-1.4057 0.4711,-1.5868 0.72,-0.436 1.6806,-0.898 2.1594,-1.5086 -0.0859,-0.4499 -1.705,-1.478 -2.1779,-2.0767 -0.7888,-1.0023 -1.3121,-1.2186 -2.4539,-2.1917 -1.6775,-1.4259 -2.408,-1.8156 -2.5999,-2.9897 -0.1242,-0.7827 3.2323,-3.4285 3.4684,-5.0463 0.2594,-1.7634 -2.2328,-3.2644 -1.349,-4.8084 1.0973,-0.1366 1.736,-0.6109 2.0197,-1.5624 0.832,0.2979 1.8695,1.6163 2.9407,2.6798 0.6939,0.6906 1.3705,0.8501 1.5134,1.7065 0.0292,0.1811 0.0598,0.3654 0.089,0.5479 -1.3062,1.228 -2.5662,2.198 -2.9636,4.2285 -0.0675,0.3466 -0.7798,2.15 0.0351,3.6419 0.5358,0.9746 -0.2639,2.5492 0.3331,3.263 0.8918,1.0695 1.9723,1.5361 2.9222,1.8079 2.6,-0.1258 2.5308,-3.2539 4.7656,-4.3435 1.5222,0.2242 4.635,6.2175 5.4162,7.571 -0.0309,0.0616 -0.0601,0.1228 -0.0907,0.1826 -3.0756,-0.032 -6.4537,-0.5556 -7.8701,1.4442 0.1763,3.2432 5.7951,3.6514 8.507,4.4986 2.0291,0.6322 2.2592,2.1118 3.8954,2.6073 2.3681,0.7232 10.0174,-6.8816 8.4824,-9.5859 -5.7983,-2.3238 -14.3116,-12.9305 -18.5873,-18.5921 0.0292,-0.1214 0.0598,-0.2427 0.0921,-0.3668 0.6077,-0.2027 0.6491,-0.4944 0.9176,-1.0086 3.6544,0.0184 7.4469,0.8643 11.3572,1.0684 1.2524,0.0674 3.2307,-0.5757 6.4015,-2.626 1.9401,-1.2555 0.2166,-3.5791 0.2135,-4.4493 -0.4266,-1.4136 -1.7204,-1.6316 -3.6374,-3.1249 -1.1126,-0.8623 -3.0419,-1.5545 -4.5828,-2.3006 -1.5194,-0.735 -2.6445,-1.5285 -4.4524,-2.2116 -1.4564,-0.5494 -3.8217,-1.9919 -5.3487,-2.5829 -3.1323,-1.2093 -6.1359,-2.6768 -9.0811,-3.8937 -0.4867,-0.3192 -0.9578,-0.6171 -1.1435,-0.6171 -0.2471,-0.2455 -0.6737,-0.2747 -0.9992,-0.2747 v -0.0768 l -1.0542,-0.2959 0.0352,0.0229 c -0.0553,0 -0.1242,-0.009 -0.2072,-0.0184 -0.273,-0.0876 -0.5463,-0.1735 -0.8241,-0.2534 -0.5079,-0.152 -1.0159,-0.2914 -1.5134,-0.4374 -0.4513,-0.1979 -0.8025,-0.4235 -0.8901,-0.6353 h -0.6247 v -0.8486 h 1.6914 v 0.0291 l 0.0108,0.003 c 0.6738,-0.5139 2.5568,0.8166 3.3763,0.8166 v 0.1134 l 1.696,0.574 c 0.3008,-0.1471 1.8771,0.1582 2.2762,0.1582 0.1673,-0.1672 0.3606,-0.3053 0.6106,-0.3146 v 0 h -0.0459 l 0.5434,-0.525 v -0.006 c 0.2976,0 0.5615,-0.4144 0.847,-0.4895 v -0.3591 c 0.5465,0 0.4345,-0.0292 0.7568,-0.3532 v 0 c 0.0981,-0.0981 0.089,-0.3683 0.089,-0.4955 h 0.0766 l 0.7061,-0.9088 0.0643,-0.7889 h 0.1123 v -0.8487 h -0.1123 v -0.1412 l -0.847,-0.703 v -0.0629 l -0.7982,-0.7889 h -0.0476 l -0.1287,-0.267 -0.3285,-0.5768 h -0.3898 c 0,-0.5834 -0.1596,-0.4638 -0.5358,-0.849 h -0.3101 v -0.1902 c -1.4703,-0.9822 -1.8246,-1.016 -3.1048,-2.0872 -0.2778,-0.2304 -0.7197,-0.6293 -0.9498,-1.0715 -0.1874,-0.3591 -0.0769,-0.5845 -0.1183,-0.9283 -0.0521,-0.4082 -0.1703,-0.9408 0.2379,-1.1143 0.3869,-0.1627 1.3674,0.1335 1.6299,0.218 h -0.008 c -0.1272,0 0.2149,0.0351 0.3223,0.0904 h -0.0584 c 0.4284,0.006 0.8212,0.3546 1.234,0.3546 v 0 c 0,0.0369 2.7226,0.9255 5.2169,1.6084 2.6503,0.7276 6.2186,1.4856 6.2787,1.5194 h -0.0584 c 2.8684,0.0462 2.0044,-0.2073 4.4354,-1.5347 v -0.2194 c 0.4804,0 0.5357,-0.0936 0.8472,-0.3991 v -0.4496 h 0.4544 c 0.508,-0.6432 2.2329,-1.3754 2.1838,-2.3054 -0.1213,-2.3312 0.2027,-1.6098 -2.0137,-2.4373 -0.8515,-0.316 -2.5537,-0.3206 -3.4101,-0.5556 -1.7926,-0.4787 -3.5084,-0.6842 -5.2458,-1.1738 -2.0488,-0.5788 -4.0779,-0.6324 -5.9164,-1.1557 -1.9216,-0.5451 -3.3075,-0.1519 -4.7872,-0.7353 v 0 c 0,0.1043 -0.8546,-0.64 -1.0403,-0.64 -0.2134,-4.8116 1.1324,-14.0536 1.2308,-18.6489 0.8334,-2.1917 0.0873,-3.8937 -0.3852,-5.9349 h -0.089 l -0.0216,-2.2623 0.0216,0.0354 c -0.0476,-0.0966 -0.0615,-0.1919 -0.0615,-0.3007 l 0.017,0.0396 -0.6186,-1.7526 h -0.1856 c 0,-0.6585 -0.04,-1.1648 -0.5448,-1.5333 z m -34.6153,62.7826 c 1.6285,0.2687 1.9386,-0.6276 2.8686,-1.4133 0.4987,-0.4221 1.1433,-0.5678 1.5132,-1.2569 0.5848,-1.0945 0.3115,-4.7041 -0.1948,-5.3226 -0.6525,-0.7966 -1.3047,-1.1557 -2.1089,-1.897 -0.3745,-0.6262 -0.7504,-1.2555 -1.1248,-1.8833 -1.2986,-2.1716 -6.6059,0.2117 -7.3287,2.2317 0.5601,1.8493 1.9967,2.8715 3.1294,4.371 0.5831,0.7688 0.6032,1.7878 1.1004,2.609 0.525,0.864 1.5271,1.7819 2.1456,2.5614"
       style="fill:#004b9d;fill-opacity:1;fill-rule:evenodd;stroke:none"
       id="path62" />
  </g>
</svg>
