<?xml version="1.0" encoding="UTF-8" standalone="no"?>
<!-- Created with Inkscape (http://www.inkscape.org/) -->

<svg
   version="1.1"
   id="svg2"
   width="108.1512"
   height="483.86029"
   viewBox="0 0 108.1512 483.86031"
   xmlns="http://www.w3.org/2000/svg"
   xmlns:svg="http://www.w3.org/2000/svg">
  <defs
     id="defs6" />
  <g
     id="g10"
     transform="matrix(1.3333333,0,0,-1.3333333,-128.87466,817.68637)">
    <path
       d="m 125.7352,285.4142 c 0.9091,0.15 1.082,-0.3503 1.6013,-0.7888 0.2784,-0.2356 0.6381,-0.317 0.8445,-0.7016 0.3265,-0.6109 0.174,-2.6258 -0.1086,-2.971 -0.364,-0.4445 -0.7282,-0.6452 -1.1772,-1.0588 -0.2089,-0.3495 -0.419,-0.7007 -0.6279,-1.051 -0.7245,-1.2124 -3.687,0.1182 -4.0904,1.2455 0.3127,1.0324 1.1143,1.6027 1.7464,2.4398 0.3257,0.4291 0.3368,0.9978 0.6143,1.4561 0.2931,0.4825 0.8527,0.9947 1.1976,1.4298 z m 19.3213,-35.0436 c -0.9037,0.1055 -4.1052,0.3113 -4.6361,0.3119 l -0.0482,0.003 -0.6826,0.4277 v 0.1128 h -0.2491 c -0.1055,0.1046 -0.6959,0.3334 -0.6959,0.474 h -0.0264 c -0.1329,0.136 -0.7248,0.4351 -0.9184,0.4572 v 0.0164 l -0.4482,0.1474 c 0,0 -0.7478,0.1531 -0.9164,0.3246 v 0 c -0.6426,0.6418 -2.6079,2.5333 -3.4861,2.5393 -0.0691,0.0916 -0.1805,0.1463 -0.2945,0.1474 h 0.002 l -0.7197,0.5737 -0.0559,0.3181 -0.3597,0.0459 c -0.0229,0.0482 -0.0462,0.0884 -0.0677,0.1363 0.2551,0.3076 1.2824,0.0967 2.7079,-0.0813 0.9116,-0.1128 1.6971,-0.007 2.6736,-0.1454 0.7609,-0.108 1.4548,-0.4876 2.1133,-0.6245 0.4722,-0.0978 0.8586,-0.1854 1.1806,-0.1741 0.2047,0.007 0.4173,0.1038 0.5054,0.1038 0,0.1196 -0.002,0.2449 -0.005,0.3725 -0.0496,1.6585 -0.3872,4.0005 -0.4283,5.362 -0.0377,1.1922 -0.0368,2.9333 0.0556,4.4186 -1.2626,0 -8.1494,-2.1991 -8.3087,-2.51 l 0.0522,0.106 c -1.1188,0 -3.1252,-1.0457 -4.1017,-0.0513 v -6e-4 c -0.0267,-0.0541 -0.0953,0.0734 -0.1531,0.093 v 0.0643 c -0.3736,0 -0.6171,0.2322 -0.9459,0.3334 v 0.1389 c -0.3025,0.009 -1.4188,0.6261 -1.4188,0.9482 h -0.002 l -0.4686,0.4181 v 0.0555 l -0.2843,0.1321 v 0 c 0,-0.1389 -0.1894,0.2038 -0.1894,0.3402 h -0.1026 c -0.0935,0.0913 -0.1341,0.1403 -0.2528,0.2027 0.0411,0.1817 -0.1372,0.892 0.0983,1.0094 0,0.9431 1.8119,0.5533 2.2213,0.8906 2.709,0.635 2.7714,0.1245 5.0587,0.6452 2.5324,0.5757 5.9187,1.2064 6.3873,1.2064 l 0.199,0.0488 v 0 c 0.5927,0 2.0798,0.716 2.8457,1.3201 0.9073,0.7143 0.8575,1.6628 1.0519,2.3986 l 0.3203,0.3118 c 0.2211,0.2546 0.3643,0.5707 0.4062,0.9477 l 0.1758,0.9448 c -0.8671,0 -1.5458,0.3469 -2.3618,0.3588 h 0.006 l -0.4782,0.0496 v 0.0669 c -0.9663,0 -1.6481,-0.1678 -2.3644,0.4368 v 0.0343 h -0.0394 l -0.2262,0.5914 c 0.1644,0.0864 0.5528,0.4685 0.5868,0.6567 0.2313,0.044 0.9451,0.4542 1.0879,0.5982 v 8e-4 c 0.1021,0.1052 0.3546,0.0479 0.4825,0.0479 l 0.003,0.239 h -0.003 v 0 c 0.5071,0.004 1.8691,1.3048 2.2005,1.6534 h 0.1622 v 0.1072 c 0.2936,0.1114 0.5096,0.3058 0.8053,0.3554 0.0479,0.0394 0.0941,0.0822 0.1389,0.125 v 0.0386 l 0.1102,0.0643 c 0.2195,0.2141 0.4355,0.4403 0.6744,0.6375 0.2594,0.2149 0.6165,0.3433 0.8926,0.4785 3.8773,1.9063 7.5453,4.4161 10.5934,6.8012 0,0.0505 0,0.102 0,0.1536 -0.0179,0.0168 -0.034,0.0341 -0.0524,0.0505 -3.585,0.1001 -7.7605,-2.1419 -11.1201,-3.3857 -2.205,-0.8164 -4.968,-1.7983 -6.8748,-2.4965 -0.2469,-0.1496 -0.6427,-0.2072 -1.0931,-0.1919 v -6e-4 c -0.0541,-0.01 -0.108,-0.0257 -0.1542,-0.0507 -0.0822,-0.002 -0.1508,-0.0119 -0.2313,-0.0683 -0.0266,-0.01 -0.0522,-0.0215 -0.0771,-0.036 -0.0575,-0.005 -0.142,-0.0267 -0.1936,-0.0499 -0.036,-0.003 -0.0695,-0.009 -0.1029,-0.0221 -0.0573,0 -0.106,-0.003 -0.161,-0.0173 h -1.1316 v -0.0873 c -0.1664,0 -0.3144,0.0122 -0.4762,-0.0241 l -0.5845,10e-4 c -0.0323,0.007 -0.0675,0.0153 -0.0992,0.0179 -0.0961,0.0643 -0.186,0.083 -0.2974,0.083 v 0.009 h -2.1356 c -0.0386,0.0207 -0.0839,0.0346 -0.1304,0.0377 -0.0454,0.0275 -0.0967,0.0465 -0.1531,0.0516 -0.0677,0.0411 -0.1627,0.0882 -0.233,0.1001 -0.0669,0.0643 -0.1584,0.1054 -0.2588,0.1063 v 0 h 0.1004 c -0.0326,0.0326 -0.0618,0.0635 -0.1004,0.0898 v 0.1004 h -0.006 v 0.6718 c 0,0.0496 -0.009,0.0949 -0.0241,0.136 -0.002,0.0454 -0.0111,0.0899 -0.0258,0.1301 v 0.3385 l -0.0882,-0.0856 v 0 c 0.0508,0.0496 0.0882,0.1137 0.1038,0.1876 0.0119,0.0281 0.0266,0.0505 0.0377,0.0797 h 0.003 c 0,0.1001 0.1491,0.2276 0.2118,0.2903 v 8e-4 c 0.0195,0.019 0.0949,0.0499 0.1318,0.0814 0.0623,0.0309 0.1309,0.072 0.1868,0.1131 h 0.4402 v 0.2262 c 0.0402,0.0229 0.0762,0.0521 0.1071,0.089 0.0497,0.013 0.0987,0.0351 0.1432,0.0703 0.0428,0.006 0.1114,0.0283 0.1533,0.0448 0.0539,5e-4 0.1035,0.005 0.1548,0.0272 0.097,0 0.216,-0.0128 0.305,0.023 0.0301,0 0.0618,0.003 0.0919,0.007 h 0.5011 v 0.1335 c 0.0298,0.009 0.0632,0.0216 0.1044,0.0429 0.0773,0.009 0.2468,0.0711 0.3197,0.108 0.0564,0.0119 0.112,0.0394 0.1585,0.0771 0.0583,0.0144 0.1131,0.0411 0.1584,0.0822 0.0919,0.0445 0.1276,0.0402 0.2296,0.0402 v 0.0618 c 0.0292,0.0145 0.0573,0.034 0.0856,0.0573 0.0403,0.0147 0.0788,0.036 0.114,0.0652 0.0601,0.0136 0.1173,0.0436 0.1655,0.0873 0.0578,0.0207 0.1001,0.036 0.1568,0.0626 0.0623,0.0145 0.1239,0.0445 0.1737,0.0893 0.0383,0.015 0.078,0.0349 0.1129,0.0556 0.055,0 0.1048,0.007 0.1621,0.007 v 0.0221 c 0.0332,0.0144 0.0649,0.0343 0.0941,0.0575 0.0456,0.0119 0.0899,0.0315 0.1287,0.0598 0.0411,0.0122 0.0958,0.0309 0.1301,0.0465 0.0873,0.0411 0.186,0.0522 0.269,0.1174 0.0343,0.004 0.0737,0.0178 0.114,0.0348 0.2287,0.1219 0.4566,0.2401 0.6647,0.3651 2.7252,1.6277 7.5061,1.3159 6.5132,6.067 -0.2373,0.1891 -0.7677,1.1631 -1.2079,0.98 -0.4952,-0.4436 -1.2192,-1.2595 -1.7149,-1.7039 -0.5191,-0.3847 -1.5001,-1.387 -2.4055,-1.8145 -0.3753,-0.1738 -0.7257,-0.3092 -0.9972,-0.3659 -0.0162,0.0155 -0.0335,0.0326 -0.0514,0.0498 -0.004,0.4224 -0.0189,0.9148 0.1027,1.3142 0.5218,1.7203 2.0894,3.1867 3.0761,4.5499 -0.4017,0.3262 -0.9706,0.722 -1.4383,1.2206 -0.8906,0.9558 -0.955,-0.3198 -1.5933,-0.6384 -0.6373,-0.3194 0.3206,0 0.6383,-0.7648 0.3195,-0.765 -1.148,-2.103 -1.4666,-2.5495 -0.3186,-0.4464 -0.8926,-0.5105 -0.9561,-1.148 -0.1319,-1.3209 0.6735,-3.7009 -1.3434,-3.9552 -0.3682,-0.0453 -3.471,0.6605 -3.3486,1.0299 -0.1482,0.4847 -0.1882,1.5485 -0.1882,1.8323 0,1.0511 -0.1769,2.9151 -0.7344,4.0847 -0.2296,0.4847 -0.6639,0.7622 -0.9661,1.0046 -0.1811,0.144 -0.0428,0.3334 0.0247,0.4354 1.1866,0.1162 3.0248,-0.7121 3.7514,-1.4992 1.3807,-0.6478 0.4736,3.5328 0.7092,4.5504 0.1902,0.8286 1.203,0.8062 1.5857,0.6154 0.3829,-0.1919 1.2104,-1.4669 1.2104,-2.1693 0,-0.7008 1.0213,-0.1902 1.0213,-0.1902 l -0.0632,1.8487 c 0,0 -0.3841,0.8303 -1.2756,0.957 -0.6143,0.0864 -1.8422,1.135 -2.0991,1.7887 -0.3384,0.8586 1.4545,0.519 1.5934,0.7041 0.6588,0.447 1.2569,0.5947 2.0877,0.7806 0.6046,0.1341 0.9544,0.101 1.5214,0.1798 1.2705,0.1783 2.0063,-2.3602 3.0333,-1.6183 1.7805,2.6977 4.1738,6.0601 5.8127,8.9231 h 0.002 l 0.167,0.2971 c 0.1877,0.214 0.7376,0.7761 0.7172,0.9785 0.0246,0.0411 0.0436,0.0856 0.0521,0.1327 0.0326,0.0592 0.0873,0.2123 0.0941,0.2741 0.1304,0.3487 0.3634,0.599 0.4439,0.9879 0.025,0.0436 0.0548,0.1264 0.0661,0.1754 0.0391,0.072 0.0754,0.1798 0.0754,0.2614 0.1122,0.4104 0.3331,1.2739 0.0581,1.5976 -0.0762,0.0899 -0.0632,0.1457 -0.0805,0.2614 -0.1157,0.8316 0.1046,0.394 -0.2185,1.0312 -0.008,0.0669 -0.001,0.1774 -0.0318,0.239 l -0.0221,0.1876 c 0.0232,0.008 0.0428,0.0165 0.0615,0.0258 0.6608,0.0703 0.1602,0.1208 0.6965,0.1766 0.0456,-0.0111 0.0935,-0.0164 0.1431,-0.0111 0.0343,-0.01 0.0695,-0.0147 0.1055,-0.0155 0.2021,-0.0907 1.1608,-0.1018 1.2234,-0.0953 0.023,-0.008 0.0488,-0.0153 0.0734,-0.0178 0.0627,-0.0403 0.1347,-0.0508 0.2007,-0.0471 0.3254,0.0102 0.1259,0.0145 0.4249,-0.0876 0.1832,-0.0641 0.4017,-0.0913 0.5644,-0.0734 0.0607,-0.006 0.1035,-0.0215 0.1695,-0.0173 0.0414,-0.0179 0.0848,-0.0292 0.1313,-0.0334 0.0266,-0.0128 0.0547,-0.023 0.083,-0.0298 0.0805,-0.072 0.1755,-0.0944 0.2767,-0.1165 0.0465,-0.0224 0.0961,-0.0411 0.1482,-0.0474 0.0669,-0.0453 0.1466,-0.0683 0.2305,-0.0683 0.0694,-0.0328 0.1525,-0.0601 0.2296,-0.0601 0.0368,-0.011 0.0754,-0.017 0.1145,-0.017 0.0457,-0.013 0.0961,-0.0181 0.1477,-0.0136 0.017,-0.005 0.0352,-0.009 0.0522,-0.01 0.0249,-0.0179 0.0516,-0.0301 0.0788,-0.0411 0.0847,-0.0729 0.1318,-0.1018 0.2347,-0.1415 0.0198,-0.008 0.0754,-0.0598 0.0966,-0.0771 0.074,-0.0601 0.1588,-0.0822 0.2308,-0.1352 0.0683,-0.0547 0.1403,-0.1216 0.2199,-0.1533 0.1131,-0.0927 0.114,-0.0224 0.1707,-0.1466 0.0221,-0.0547 0.0555,-0.1017 0.0975,-0.1429 0.0479,-0.0748 0.1236,-0.1159 0.1877,-0.1757 0.0385,-0.0601 0.0694,-0.1131 0.1301,-0.1568 0.0113,-0.0153 0.0207,-0.0317 0.0334,-0.047 0.0233,-0.0473 0.0525,-0.0944 0.097,-0.1321 0.0221,-0.0369 0.0686,-0.0916 0.0983,-0.125 0.0224,-0.0479 0.0539,-0.0933 0.0907,-0.1284 0.0329,-0.0944 0.0978,-0.1707 0.1783,-0.2194 0.0423,-0.042 0.0505,-0.114 0.1287,-0.1851 0.0281,-0.0581 0.0709,-0.1089 0.1216,-0.1483 0.0213,-0.0334 0.0428,-0.0666 0.0683,-0.0975 0.0287,-0.066 0.0559,-0.1312 0.1049,-0.1859 0.0179,-0.0386 0.0493,-0.0902 0.076,-0.1259 l 0.0487,-0.4575 c -0.0453,-0.0746 -0.0419,-0.1636 -0.0323,-0.258 0.008,-0.0669 -0.013,-0.1122 -0.008,-0.1805 -0.0369,-0.0848 0.007,-0.3076 -0.0471,-0.4867 -0.0428,-0.0865 -0.0374,-0.2441 -0.0969,-0.3178 v 0 c -0.0454,-0.0541 -0.089,-0.108 -0.1145,-0.1732 -0.0156,-0.0187 -0.0292,-0.0357 -0.0411,-0.0573 -0.1948,-0.1817 -0.6375,-0.5697 -0.7436,-0.8155 -0.0447,-0.0317 -0.1519,-0.1397 -0.1811,-0.1876 -0.1145,-0.0831 -0.1094,-0.061 -0.1531,-0.203 -0.0447,-0.0224 -0.1063,-0.0916 -0.1312,-0.1327 -0.0618,-0.0292 -0.1148,-0.0714 -0.1559,-0.1253 -0.0428,-0.0309 -0.0811,-0.0683 -0.1242,-0.1017 -0.6003,-0.305 -1.0692,-0.7557 -1.5429,-1.2561 -0.0606,-0.0385 -0.155,-0.0745 -0.208,-0.1258 -0.0326,-0.0224 -0.0666,-0.0403 -0.0995,-0.0652 -0.0411,-0.0145 -0.0814,-0.0386 -0.1131,-0.0692 l -0.3373,-0.2596 0.009,-0.004 c -1.5984,-2.1152 -4.1967,-5.1794 -4.9722,-6.3555 -0.1616,-0.2254 0.0943,-0.7847 0.2633,-0.8859 0.4017,-0.2432 0.9377,-0.5011 1.2053,-0.8421 -0.0482,-0.2512 -0.9519,-0.8249 -1.2155,-1.1591 -0.4405,-0.5596 -0.7328,-0.6801 -1.37,-1.2235 -0.9363,-0.7956 -1.3442,-1.0133 -1.4513,-1.6687 -0.0695,-0.4368 1.8042,-1.9137 1.936,-2.8168 0.1449,-0.9842 -1.2464,-1.8221 -0.7529,-2.6838 0.6126,-0.0763 0.9689,-0.3408 1.1274,-0.872 0.4643,0.1661 1.0434,0.902 1.6412,1.4956 0.3873,0.3855 0.7651,0.4745 0.8448,0.9524 0.0164,0.1012 0.0334,0.2044 0.0499,0.3062 -0.7291,0.6851 -1.4324,1.2268 -1.6543,2.3601 -0.0377,0.1936 -0.4352,1.1999 0.0195,2.0327 0.2991,0.544 -0.1474,1.423 0.186,1.8216 0.4977,0.5969 1.1009,0.8572 1.631,1.0088 1.4514,-0.07 1.4128,-1.8162 2.6598,-2.4245 0.8501,0.1253 2.5874,3.4705 3.0231,4.2262 -0.0167,0.0343 -0.0331,0.0683 -0.0501,0.1018 -1.717,-0.0179 -3.6023,-0.3099 -4.3932,0.8061 0.0987,1.8102 3.2349,2.0382 4.7483,2.511 1.1328,0.3529 1.2615,1.1789 2.1745,1.4553 1.3218,0.4036 5.5913,-3.8412 4.7347,-5.3504 -3.2366,-1.2971 -7.9883,-7.2176 -10.3751,-10.3777 0.0165,-0.068 0.0335,-0.1354 0.0513,-0.2049 0.3393,-0.1131 0.3626,-0.2758 0.5125,-0.5627 2.0396,0.0102 4.1565,0.4822 6.3394,0.5962 0.6988,0.0377 1.8031,-0.3212 3.5731,-1.4658 1.0825,-0.7008 0.1208,-1.9979 0.1191,-2.4835 -0.2382,-0.7889 -0.9604,-0.9105 -2.0305,-1.7441 -0.6208,-0.4814 -1.698,-0.8677 -2.5577,-1.2841 -0.8484,-0.4102 -1.4763,-0.8533 -2.4854,-1.2345 -0.813,-0.3067 -2.1331,-1.112 -2.9855,-1.4417 -1.7484,-0.6752 -3.4248,-1.4942 -5.0689,-2.1733 -0.2715,-0.1783 -0.5346,-0.3444 -0.6381,-0.3444 -0.1377,-0.137 -0.3761,-0.1537 -0.5578,-0.1537 v -0.0425 l -0.5885,-0.1655 0.0196,0.013 c -0.0307,0 -0.0692,-0.005 -0.1157,-0.0105 -0.1525,-0.0488 -0.305,-0.0967 -0.4598,-0.1412 -0.2837,-0.0847 -0.5672,-0.1627 -0.8447,-0.2443 -0.2517,-0.1103 -0.4482,-0.2364 -0.4969,-0.3546 h -0.3487 v -0.4737 h 0.9443 v 0.0162 l 0.006,0.002 c 0.3759,-0.2871 1.427,0.4556 1.8845,0.4556 v 0.0635 l 0.9467,0.3203 c 0.1679,-0.0822 1.0474,0.0881 1.2703,0.0881 0.0935,-0.0932 0.2015,-0.1703 0.341,-0.1754 v 0 h -0.0258 l 0.3033,-0.2928 v -0.004 c 0.1664,0 0.3138,-0.231 0.4731,-0.2733 v -0.2004 c 0.305,0 0.2423,-0.0162 0.4223,-0.197 v 0 c 0.0547,-0.055 0.0496,-0.2055 0.0496,-0.2767 h 0.0428 l 0.3941,-0.5071 0.036,-0.4402 h 0.0626 v -0.474 h -0.0626 v -0.0788 l -0.4729,-0.3923 v -0.0351 l -0.4453,-0.4402 h -0.0266 l -0.072,-0.1491 -0.1834,-0.3221 h -0.2177 c 0,-0.3257 -0.089,-0.2588 -0.2988,-0.4736 h -0.1732 v -0.1066 c -0.8203,-0.5482 -1.0185,-0.5669 -1.7331,-1.1648 -0.1548,-0.1287 -0.4017,-0.3515 -0.5301,-0.5981 -0.1046,-0.2004 -0.0431,-0.3262 -0.0657,-0.5182 -0.0292,-0.2279 -0.0953,-0.5252 0.1323,-0.6219 0.216,-0.091 0.7637,0.0746 0.91,0.1216 h -0.004 c -0.0711,0 0.1199,0.0196 0.1797,0.0505 h -0.0323 c 0.239,0.003 0.4584,0.1978 0.6888,0.1978 v 0 c 0,0.0205 1.5197,0.5168 2.9118,0.8981 1.4794,0.4059 3.4713,0.8288 3.5044,0.8478 h -0.0326 c 1.6013,0.0258 1.1189,-0.1156 2.4761,-0.8566 v -0.1225 c 0.2682,0 0.2988,-0.0521 0.4725,-0.2228 v -0.2508 h 0.2537 c 0.2838,-0.3592 1.2464,-0.7677 1.2192,-1.2867 -0.0677,-1.3014 0.1131,-0.8986 -1.1242,-1.3603 -0.4754,-0.1766 -1.4253,-0.1792 -1.9032,-0.3104 -1.0009,-0.2671 -1.9584,-0.3819 -2.9282,-0.6554 -1.1435,-0.3229 -2.2762,-0.3526 -3.3026,-0.6449 -1.0724,-0.3041 -1.8459,-0.085 -2.6717,-0.4104 v 0 c 0,0.0583 -0.4773,-0.3572 -0.5808,-0.3572 -0.1193,-2.6856 0.6321,-7.8446 0.6869,-10.4094 0.4654,-1.2231 0.049,-2.1733 -0.2149,-3.3126 h -0.0496 l -0.0119,-1.2628 0.0119,0.0198 c -0.0267,-0.0541 -0.0346,-0.1071 -0.0346,-0.168 l 0.01,0.0221 -0.3452,-0.9783 h -0.1035 c 0,-0.3673 -0.0227,-0.65 -0.3044,-0.8558"
       style="fill:#231916;fill-opacity:1;fill-rule:evenodd;stroke:none"
       id="path200" />
    <path
       d="m 144.8926,359.4163 c -0.2191,-2.2025 -0.5536,-3.7887 -0.5023,-5.5048 0.0204,-0.6772 4.1522,1.2444 4.5661,1.3736 0.047,0.0139 0.093,0.0267 0.1394,0.0389 0.0582,0.0272 0.118,0.0561 0.1772,0.0819 0.743,0.3348 1.5613,0.5734 2.3043,0.9408 l 1.8782,1.0332 0.3277,0.2095 0.3742,0.2047 c 0.1205,0.0796 0.2857,0.2287 0.2653,0.3838 -0.0178,0.148 -0.0609,0.2968 -0.0745,0.4286 -0.0119,0.1309 -0.1908,0.144 -0.0531,0.2577 0.1268,0.0555 -0.2463,0.3364 0.2039,0.3169 l 0.337,-0.0814 0.2818,-0.0898 c 0.2398,-0.0967 0.4991,-0.3102 0.7146,-0.4726 0.356,-0.267 0.6517,-0.5026 0.8688,-0.8192 0.1723,-0.2492 0.5182,-0.9425 0.5856,-1.2243 l -0.0306,-0.0178 0.0187,-0.1789 c 0.0284,-0.0422 -0.1301,-0.79 -0.1508,-0.8073 0.025,-0.1454 -8e-4,-0.3781 -0.1409,-0.4674 l 0.0162,-0.0258 c -0.1551,-0.1908 -0.2571,-0.1401 -0.4734,-0.2946 -0.0283,-0.3806 -1.0264,-0.8498 -1.3243,-0.8824 -0.0306,0.0488 -1.6351,-0.5964 -3.0946,-1.1151 -2.0928,-0.8963 -4.3022,-1.6495 -5.5247,-2.0846 l -0.1163,-0.0734 -0.0669,0.008 c -0.1859,-0.066 -0.3449,-0.125 -0.4674,-0.1712 -0.3319,-0.1276 -1.0553,-0.2784 -0.8943,-0.5958 0.3628,-0.7113 0.3217,-1.5622 1.5055,-3.026 0.3452,-0.4252 0.9904,-1.9245 1.3218,-2.5331 0.3979,-0.7341 1.1874,-2.1177 1.6083,-2.8111 0.3603,-0.5938 0.9939,-1.4108 1.4142,-2.0245 0.3076,-0.451 0.5522,-0.9595 0.8731,-1.3864 0.8836,-1.1713 1.4922,-1.8252 2.4483,-2.6606 0.3158,-0.2767 0.8926,-0.7943 1.2206,-1.0205 0.322,-0.2217 0.7866,-0.4904 1.1137,-0.6712 0.7464,-0.4091 1.6316,-0.6429 2.3403,-0.8677 1.277,-0.4085 2.2983,-0.6398 3.1221,-0.7285 0.396,-0.0431 0.8858,-0.0598 1.118,-0.0987 0.587,-0.1009 0.3926,-0.2599 -0.7098,-0.7353 -0.6798,-0.2962 -1.7635,-0.9244 -3.3574,-1.3283 -0.553,-0.1403 -1.3311,-0.2971 -1.9791,-0.553 -0.766,-0.3022 -1.9148,-0.0462 -2.71,0.2369 -0.892,0.3184 -1.4314,0.5188 -2.2521,1.2782 -0.3665,0.3382 -0.7217,0.9142 -1.0581,1.296 -1.1495,1.3002 -2.0983,2.4216 -2.6442,3.5079 -0.5315,0.9878 -1.0032,2.2203 -1.4244,3.0208 -1.2841,2.4404 -2.1101,4.072 -2.8568,5.2183 -0.2514,0.3878 -0.3141,0.5188 -0.6332,0.5188 -0.2679,0 -0.3031,-0.2988 -0.3552,-0.4272 -0.5284,-1.2934 -0.8277,-2.7879 -1.4253,-4.091 -0.523,-1.1418 -1.3226,-2.1067 -2.0537,-3.0971 -0.9116,-1.235 -1.9542,-2.3737 -3.6184,-2.9486 -0.5193,-0.1791 -1.294,-0.3195 -1.9114,-0.4121 -1.1188,-0.1667 -2.395,-0.0726 -4.0833,0.062 -1.9403,0.154 -5.099,0.1616 -7.6037,0.2866 -1.9014,0.2619 -2.1512,0.6908 -1.3064,1.2575 1.2891,0.2755 5.1318,0.5437 6.1222,0.6891 0.8921,0.1309 3.0663,0.4408 4.0873,0.892 1.7609,0.779 2.9123,1.6529 4.2494,3.1278 0.6738,0.7421 1.112,1.6007 1.6557,2.5843 0.4312,0.7841 1.0313,1.6504 1.1342,2.6005 0.1488,0.1301 0.5811,1.4406 0.9422,2.8276 -0.4697,-0.127 -0.9062,-0.1568 -1.2753,-0.2838 -0.6812,-0.2335 -1.2166,-0.3129 -1.6401,-0.4921 -0.8442,-0.3568 -1.2532,-0.7035 -1.5143,-0.7832 -0.445,-0.1394 -0.5077,-0.1516 -1.0684,-0.3347 -0.4374,-0.1421 -0.445,-0.3722 -0.8835,-0.529 -0.4091,-0.1471 -0.4346,-0.1831 -0.737,-0.3662 -0.2053,-0.125 -0.5443,-0.2115 -0.6154,-0.3529 -0.4082,-0.4913 -1.0211,-0.457 -1.3695,-0.7736 -0.3775,-0.1089 -1.2197,0.0317 -1.6228,0.5556 -0.008,0.0102 -0.4377,0.6522 -0.4813,0.7214 -0.3141,0.4683 -0.6154,0.7954 -0.654,0.8022 -0.2131,1.2986 0.7858,1.9647 1.5151,2.2317 l 1.355,0.4938 c 0.7977,0.0709 1.7507,0.6412 3.0399,1.1291 1.7135,0.648 3.8341,1.0462 5.6633,1.921 0.3637,0.1735 0.6832,0.3243 0.9613,0.4569 0.1851,0.9536 0.4118,1.997 0.6281,3.0989 0.1928,2.973 1.3561,8.9512 1.446,13.0317 l -0.1557,4.8127 -0.066,-0.002 c -0.019,0.6103 -0.9133,1.3722 -0.9332,1.9386 v 0 l 0.0797,-0.0752 c -0.004,0.1259 0.004,0.2192 -0.0785,0.3269 l 0.002,0.005 0.0343,-0.0301 c -0.011,0.3458 0.1551,0.7146 0.3912,0.9604 l 0.4334,0.0394 h -0.0215 c 1.1367,0.0522 2.3746,-0.2531 3.4557,-0.5023 l 0.002,-0.055 0.2361,-0.1069 c 0.0771,0.002 0.256,-0.2352 0.2767,-0.3313 0.2149,-0.0496 0.4538,-0.2038 0.4963,-0.4349 0.1979,-0.0779 0.4717,-0.2843 0.4785,-0.523 l 0.0403,9e-4 c 0.1241,-0.3365 0.3724,-0.3878 0.4033,-0.771 0.4527,-0.3203 -0.1037,-1.8142 -0.2843,-2.2096 l -0.0788,-9e-4 c 0.0199,-0.5828 -0.0898,-1.415 -0.3501,-1.938 l -0.125,-0.7002 c 10e-4,0.003 -0.0275,-0.0941 -0.028,-0.1361 -0.6387,-2.3258 -1.0908,-6.224 -1.4341,-9.1499 l 0.0394,8e-4 z"
       style="fill:#231916;fill-opacity:1;fill-rule:evenodd;stroke:none"
       id="path204" />
    <path
       d="m 139.2035,408.0679 c -0.3019,-0.7594 -0.5037,-1.2656 -0.631,-1.5868 0.2565,-1.0151 0.7858,-1.9471 0.608,-2.715 -0.2001,-0.8584 -0.9277,-1.6951 -1.6296,-2.3094 -1.2988,-1.1387 -2.861,-1.2104 -4.9275,0.8963 1.0423,2.8908 2.9455,4.5981 6.5801,5.7149 z m 7.7465,-5.4901 c 1.1217,0.0711 2.0835,0.5077 3.0583,0.9346 0.6038,0.2639 1.2407,0.5635 1.8802,0.6089 2.1144,0.1493 3.2925,-1.8933 2.2641,-3.8393 -0.6721,-1.2705 -1.3655,-2.5308 -2.0333,-3.8021 -0.2362,-0.4482 -0.4215,-0.9176 -0.6925,-1.5151 0.5771,-0.2906 1.0576,-0.5584 1.5562,-0.7824 0.5153,-0.2307 1.0516,-0.4121 1.5732,-0.6267 1.5126,-0.6188 1.8057,-0.9635 1.7133,-2.005 -0.1026,-1.167 -1.1645,-2.3281 -2.3179,-2.5591 -1.3269,-0.2642 -2.4324,0.1086 -3.3415,1.099 -0.5145,0.5539 -1.0327,1.1069 -1.5491,1.662 -1.4066,-1.2912 -2.7414,-2.4846 -4.0383,-3.7134 -1.1792,-1.1157 -3.177,-1.2201 -4.4416,-0.1846 -0.0822,0.065 -0.1505,0.1426 -0.2242,0.2129 -1.5945,1.5092 -1.4953,1.9477 0.4978,2.8676 1.3969,0.644 2.7615,1.3612 4.1048,2.1146 0.5182,0.2889 0.9363,0.762 1.408,1.1602 -0.1803,0.6327 -0.3665,1.1619 -0.4759,1.7076 -0.2002,1.0114 0.1128,1.3499 1.1216,1.249 0.5508,-0.0565 1.0979,-0.1384 1.7425,-0.2197 0.4096,1.0207 0.784,1.9528 1.1338,2.8255 -0.6627,0.7098 -1.3093,0.8485 -2.0709,0.5953 -0.3368,-0.1128 -0.7422,-0.3104 -1.0344,-0.2154 -1.3964,0.4524 -1.9692,-0.4873 -2.7695,-1.3382 -2.4052,-2.5538 -4.4308,-5.3771 -6.3963,-8.2653 -0.8329,-1.2229 -1.7887,-2.3684 -2.7377,-3.5082 -0.3164,-0.3795 -0.7696,-0.6565 -1.1937,-0.9317 -0.5616,-0.3654 -1.0996,-0.2585 -1.4825,0.2829 -0.502,0.7086 -1.0279,1.4159 -1.3981,2.1937 -0.3384,0.7073 -0.3104,1.4825 0.0958,2.2249 0.8731,1.5903 1.9616,3.0283 3.4569,4.0366 2.6915,1.8133 4.8359,4.1116 6.6024,6.8057 0.4162,0.638 0.9686,1.1877 1.5424,1.8785 -0.2384,0.4643 -0.4788,0.9604 -0.743,1.4406 -0.1967,0.3583 -0.4813,0.6789 -0.6267,1.0561 -0.4431,1.1484 0.1289,2.0648 1.3408,2.1411 0.7163,0.045 1.4388,-0.0403 2.1568,-0.009 1.5152,0.0621 2.6156,0.9088 3.1491,2.3108 0.1882,0.5003 0.1839,0.9074 -0.2898,1.209 -0.43,0.2721 -0.7259,0.0377 -1.0729,-0.2557 -1.923,-1.6262 -3.285,-1.6245 -5.1414,-0.0366 0.4232,0.7489 0.8501,1.499 1.2622,2.2264 -1.0097,0.9447 -1.0304,0.9714 -1.9077,0.2814 -0.6162,-0.4864 -1.1996,-0.7551 -2.0109,-0.1598 0.1497,0.5315 0.3189,1.055 0.4394,1.5868 0.1199,0.5377 0.1908,1.0823 0.2769,1.597 -0.7546,0.3337 -1.0822,-0.1434 -1.4335,-0.4804 -0.2548,-0.2452 -0.4926,-0.5386 -0.6491,-0.855 -2.1016,-4.2786 -5.2738,-7.825 -7.9577,-11.7076 -1.9244,-2.7856 -3.8279,-5.5868 -5.7019,-8.4047 -1.4757,-2.2207 -2.842,-4.512 -4.3529,-6.7077 -1.2747,-1.8569 -2.683,-3.6218 -4.0433,-5.4198 -0.184,-0.2438 -0.4139,-0.4541 -0.6429,-0.6568 -1.5236,-1.3269 -2.1254,-1.1344 -2.6884,0.8396 -0.0836,0.2931 -0.1777,0.6013 -0.3435,0.8527 -0.8867,1.3447 -0.5806,2.6461 0.1196,3.9268 0.6882,1.2595 1.4862,2.4659 2.0888,3.7647 0.3087,0.6679 0.8978,0.2514 1.2484,0.5788 0.8935,0.8422 1.9383,1.5639 2.689,2.5189 6.4664,8.2406 12.8823,16.5229 19.3215,24.785 0.4444,0.5721 0.7996,1.1115 0.8481,1.9066 0.0675,1.0826 0.991,1.7135 1.8357,2.1144 0.6455,0.3087 1.0775,0.7149 1.5041,1.2194 1.2577,1.4877 2.5376,2.9566 3.7834,4.4521 0.2367,0.2838 0.3668,0.6591 0.7174,1.313 -1.074,-0.2803 -1.8042,-0.4478 -2.5214,-0.659 -2.1118,-0.6222 -4.2205,-1.2492 -6.323,-1.8955 -0.5394,-0.1659 -1.0525,-0.4131 -1.5774,-0.62 -2.2513,-0.8855 -4.4912,-1.0652 -6.6802,0.1777 -1.3433,0.7646 -1.6945,1.4939 -1.4561,2.7961 2.8369,0.3643 5.6959,0.5633 8.4801,1.1328 2.7788,0.5694 5.5882,1.1639 8.4464,2.4446 -1.6628,1.3833 -3.1249,2.6299 -4.6244,3.8296 -0.7382,0.5924 -1.1656,1.292 -1.0715,2.2467 0.0768,0.7722 0.5403,1.1126 1.2662,0.8192 1.7382,-0.701 3.5637,-0.8986 5.3926,-1.1815 1.0783,-0.1649 2.181,-0.6329 3.1156,-1.2157 1.3277,-0.8269 1.4613,-1.6963 0.714,-3.3509 0.5378,0.1086 0.9559,0.1469 1.3439,0.2787 1.3108,0.4444 2.5881,0.9918 3.9153,1.3688 2.082,0.5942 2.6966,-0.1298 3.0821,-1.6733 0.0754,-0.2965 0.1907,-0.5865 0.2585,-0.8858 0.3583,-1.6013 -0.4065,-2.7539 -2.0146,-3.007 -1.5106,-0.2375 -3.0325,-0.4059 -4.5332,-0.6857 -0.5232,-0.0964 -1.1304,-0.3129 -1.4774,-0.684 -2.5387,-2.6813 -5.0233,-5.4147 -7.5175,-8.1371 -0.1349,-0.148 -0.2143,-0.3478 -0.3418,-0.5576 0.1726,-0.3076 0.3121,-0.6446 0.5301,-0.919 0.6361,-0.8087 1.0156,-0.796 1.686,-0.0283 0.4397,0.502 0.8722,1.0159 1.3587,1.4655 1.8674,1.7288 3.5158,3.5875 3.9268,6.2246 1.0253,0.4813 1.8737,0.0589 2.6002,-0.5046 0.2795,-0.2129 0.4584,-0.8447 0.3617,-1.2013 -0.2718,-1.0225 -0.7086,-2.0007 -1.0936,-3.0294 0.9397,-0.8617 1.0655,-0.919 1.9803,-0.2203 0.6899,0.5247 1.3765,1.1053 1.8828,1.7955 0.4206,0.5737 0.8608,0.6472 1.4414,0.5394 1.0825,-0.2018 1.9077,-1.1182 2.1829,-2.3368 0.26,-1.1498 -0.2772,-1.8689 -1.2081,-2.3998 -0.8926,-0.508 -1.7441,-1.1132 -2.6889,-1.4888 -1.9001,-0.76 -3.1859,-2.2017 -4.4496,-3.6935 -0.1267,-0.1489 -0.1865,-0.3566 -0.2914,-0.5729 0.5378,-0.6667 1.1064,-0.6925 1.7039,-0.1616 0.5395,0.4754 1.008,1.0406 1.586,1.4579 0.5258,0.3804 1.1302,0.7378 1.7501,0.8773 0.9499,0.212 1.4902,-0.2875 1.7513,-1.2527 0.1545,-0.5774 0.3727,-1.1494 0.6565,-1.6732 0.4943,-0.91 0.3985,-1.6178 -0.5001,-2.2479 -0.6695,-0.4677 -1.417,-0.8303 -2.1143,-1.262 -1.0885,-0.6738 -1.1639,-0.866 -0.9287,-2.1186 0.2367,-1.2731 -0.013,-1.7836 -1.2225,-2.2822 -1.044,-0.43 -2.1215,-0.7755 -3.1672,-1.1993 -1.2294,-0.5012 -1.9913,-1.3879 -2.34,-2.6901 z m -0.4847,13.775 c 0.7327,0.9995 1.4133,1.8314 1.9681,2.7411 0.1616,0.2636 0.1017,0.8747 -0.1035,1.0834 -0.1754,0.1788 -0.7679,0.125 -1.0661,-0.0332 -1.0868,-0.578 -1.6279,-1.639 -2.3017,-2.713 0.483,-0.3464 0.8918,-0.6395 1.5032,-1.0783"
       style="fill:#231916;fill-opacity:1;fill-rule:evenodd;stroke:none"
       id="path208" />
    <path
       d="m 137.5333,476.5309 c 0.1344,0.86 1.4814,2.3658 1.8737,2.9976 0.2962,0.464 1.2118,1.2013 1.4545,1.4587 h 0.008 c 0.2131,0.2217 1.4471,1.336 1.4471,1.4556 l 0.2642,0.0802 0.2205,-0.0802 0.0315,-0.4394 -0.0315,-1.504 c -0.1069,-0.5437 0.0709,-1.1651 -0.9505,-1.6404 -0.1882,-0.1279 -0.3342,-0.4238 -0.9898,-0.7878 -0.0179,0 -0.4932,-0.2404 -1.0264,-0.5746 -0.3445,-0.2168 -0.671,-0.4955 -1.063,-0.699 -0.383,-0.199 -0.7575,-0.3614 -1.0568,-0.43 -0.1684,0.007 -0.2015,0.0258 -0.182,0.1633 z m 14.0001,3.4837 c -0.684,-0.7982 -0.7294,-1.269 -1.4548,-1.7761 0,-0.2852 -1.1676,-0.9587 -1.4564,-1.0871 l -0.0241,-0.0264 -0.9451,-0.0241 v 2.5418 c 0.0981,0 0.2401,0.271 0.7384,0.4669 l -0.011,-0.03 1.6982,1.1693 0.8068,0.3529 -0.008,-0.005 0.6565,0.3605 h 0.4855 l 0.2897,-0.4915 c -0.3189,-0.3733 -0.4975,-0.9306 -0.7752,-1.4511 z m -4.7719,-6.7997 0.3283,-2.0727 0.053,-0.1225 c -0.0335,-1.0006 -0.201,-2.1342 -0.3702,-2.946 -0.0939,-0.4385 -0.0383,-0.7965 -0.006,-1.04 0.0437,-0.3439 0.3657,-0.4 1.0383,-0.5687 0.3651,-0.0904 0.5335,-0.3982 0.8156,-0.54 0.3699,-0.1862 0.483,-0.5221 0.5391,-0.7137 0.0661,-0.2245 0.2608,-0.8708 0.1403,-1.323 -0.1471,-0.5555 -0.4785,-1.0564 -0.6247,-1.3838 -0.2665,-0.5956 -0.5497,-0.9494 -0.5497,-0.9494 -0.5,-0.6942 -0.7392,-1.0403 -1.0638,-1.7472 -0.4402,-0.9604 -0.9011,-1.5852 -0.9011,-1.5852 0.2531,-0.3634 0.6035,-0.2735 1.0063,-0.206 1.0553,0.1768 2.4372,1.0939 2.4372,1.0939 1.154,0.9206 1.679,0.6335 2.1866,0.6454 0.4955,0.0108 1.6152,-1.1044 1.9134,-2.1277 0.3215,-1.1117 -0.3855,-2.1461 -0.883,-2.3278 -1.3442,-0.4949 -2.4825,-0.7549 -3.8409,-1.2359 -0.9845,-0.3498 -2.1861,-0.9162 -3.1708,-1.2804 -0.1531,-0.1273 -1.3924,-0.2231 -2.2386,-1.0412 -0.7409,-0.7169 -2.5571,-0.4391 -2.91,-0.0632 -0.6616,0.701 -2.3205,2.6119 -2.0265,3.6357 0.2418,0.8422 0.707,2.2232 0.7512,2.4659 0.0538,0.2993 1.4873,2.2113 1.7334,3.6924 0.1649,0.9811 0.1871,1.6172 0.3571,2.2198 0.1137,0.4042 0.0556,0.5613 -0.1426,0.8144 0,0 -0.4796,0.288 -1.034,0.6111 -0.3515,0.205 -0.9533,0.1443 -1.2872,0.4094 -0.2132,0.1692 -0.7915,0.5442 -0.9241,0.7222 -0.1667,0.2245 -0.076,0.5256 0.4331,0.7677 0.1531,0.0725 0.4558,0.3988 0.6763,0.4569 0.1914,0.0513 0.4275,0.1052 0.576,0.1446 0.1018,0.0275 0.3462,0.0703 0.4173,0.0864 0.9264,0.188 1.9485,0.0349 1.9485,0.0349 l 0.0505,0.2018 c 0.0513,0.2838 0.1069,0.4675 0.0383,0.8703 -0.0536,0.3101 -0.2486,0.8818 -0.3101,1.4867 -0.0531,0.4944 0.1539,2.6096 0.3957,3.913 v 1.3028 h 0.003 v 0.0195 l -0.4845,-0.1306 c -0.4711,-0.2302 -0.8711,-0.8147 -1.4556,-0.8411 0,-0.1139 -0.97,-0.3846 -0.97,-0.6403 l -0.4002,-0.3325 h -0.0854 c -0.0377,-0.2617 -0.2349,-0.2668 -0.3274,-0.4848 -0.1899,0 -3.2989,-2.5766 -3.2989,-2.3133 v 0 c -0.0431,-0.0428 -0.0763,-0.078 -0.1009,-0.1276 -0.6078,-0.0581 -1.0174,0.1301 -1.5897,0.3359 0,0.218 -0.5729,0.2333 -0.7866,0.2838 l -0.1828,0.3376 h -0.0213 c -0.5712,1.5035 0.005,2.9078 0.9442,4.0207 0.0389,0 0.8411,0.8458 0.883,0.9717 0.2633,0.2007 0.0335,0.47 0.601,0.9708 v 0.006 c 0.3044,0.2095 0.7143,0.6032 0.8282,0.9658 l 0.1401,0.2179 c 0.3061,0.2427 0.5145,0.4958 0.6539,0.9726 0.1103,0.1043 0.1571,0.2222 0.3161,0.2667 0.0164,0.0743 0.8087,0.8113 0.9572,0.9726 0.2532,0.2891 0.6823,0.7002 0.9678,0.97 0.1417,0 0.8382,0.8215 0.9743,0.972 0.0173,0 1.2469,1.7479 1.3929,1.9426 l 0.0763,0.0856 0.4838,0.4 c 0.0119,0.2939 0.9692,0.9938 0.9692,1.0154 0.1171,0.1187 0.97,1.0573 0.97,1.0615 l 0.3478,0.3521 c 0.0241,0.1658 0.1216,0.2744 0.1454,0.4394 0.0204,0.157 -0.03,0.375 -0.008,0.5315 h -0.4856 c 0,-0.2299 -0.7223,-0.4856 -0.97,-0.4856 0,-0.0374 -1.6223,-0.97 -1.9403,-0.97 0,-0.1137 -1.2631,-0.9717 -1.4545,-0.9717 0,-0.0871 -1.9411,-0.9137 -1.9411,-1.2314 -0.207,-0.1908 -1.4556,-0.8011 -1.4556,-0.8345 -0.3306,-0.0272 -1.4548,-0.8136 -1.4548,-1.0052 -0.1443,-0.0845 -0.3231,-0.3297 -0.4844,-0.3297 v -0.03 c -0.2171,-0.1111 -0.97,-0.436 -0.97,-0.6032 -0.1514,-0.0695 -0.3045,-0.3388 -0.4856,-0.3388 v -0.0141 c -0.4839,-0.3824 -0.97,-0.4899 -1.4017,-0.9559 h -0.0539 v -0.0519 l -0.341,-0.2454 c -0.3393,-0.3359 -1.0006,-0.7784 -1.4632,-1.1614 l -0.1361,-0.1344 c -0.1851,-0.1468 -0.9689,-0.8092 -0.97,-0.9649 -0.1528,-0.0708 -0.2923,-0.358 -0.4856,-0.358 v -0.0249 c -0.7775,-0.7804 -2.6467,-1.6461 -3.2227,-2.2403 h -10e-4 c -0.434,-0.4342 -2.7998,-0.5595 -3.3271,-0.299 0,0.0453 -0.8404,0.4198 -0.97,0.4652 0,0.0382 -1.2625,0.3988 -1.4539,0.4921 0,0.0155 -2.5942,0.8506 -2.9112,1.0145 0,0.0898 -1.0094,0.305 -0.7769,0.8694 l 0.5377,1.2991 c 0.3016,0.1023 1.1392,1.3399 1.4545,1.3399 v 0.0275 c 0.187,0.1658 1.4547,1.0358 1.4547,1.0675 0.1514,0.0848 0.9694,0.3708 0.9694,0.4349 l 0.2665,0.0754 v -0.005 c 1.0429,0.1428 11.8616,5.2015 11.8616,5.2024 0.9921,0.3008 2.3853,1.4547 3.3965,1.4547 v 0.0343 c 0.2409,0.1435 2.4239,0.9735 2.4239,0.9913 0.2871,0.1848 2.4256,0.9958 2.4256,1.0137 0.2231,0.07 1.4573,0.3948 1.4573,0.4924 0.7001,0 1.3589,0.8674 1.9383,0.8674 v 0.0283 c 0.288,0.1556 0.6179,0.4572 0.9703,0.4572 v 0.0292 c 0.2049,0.0777 0.4479,0.2084 0.4504,0.457 h 0.0349 v 2.9897 c 0.1564,0.0839 1.4539,0.9394 1.4539,0.9581 0.1879,0.1565 3.7545,1.8139 3.8727,1.8139 -0.1866,0.1837 0.4254,-0.0958 0.699,-0.0196 l 0.201,-0.4019 c -0.0335,-0.1698 0.0802,-0.3155 0.0802,-0.4822 0.1094,0 0.0776,-0.5837 0.083,-0.6922 l 0.0786,0.0805 c -0.0942,-0.0924 -0.1616,-1.9939 -0.1616,-2.3035 l 0.4839,0.1727 c 0.4246,-0.1384 3.5084,0.2443 3.5084,0.5301 1.188,0 0.917,-0.002 1.8008,-0.4635 l 0.2444,-0.6506 c 0.7259,-1.4133 -1.076,-1.8629 -1.076,-2.0936 -0.2648,-0.1993 -0.7229,-0.8198 -0.9692,-0.8198 0,-0.241 -1.3368,-1.4582 -1.4547,-1.4582 v -0.0657 l -2.1717,-1.0709 h -0.005 c 0,-0.0678 -1.2526,-1.4375 -1.4553,-1.4556 0,-0.0769 -1.2631,-2.5498 -1.2631,-3.6581 -0.0139,0 -0.0652,-0.925 -0.0703,-1.0032 l 1.4564,0.8637 v 0.003 c 0.6871,0 1.5999,1.3607 2.3145,1.3607 0,0.2069 2.2683,0.2718 2.2144,0.3257 1.3831,-0.3189 3.2094,-1.2592 3.2094,-2.9121 0.1233,0.123 -0.1108,-1.2702 -0.593,-1.2702 0,-0.1871 -0.2027,-0.269 -0.3762,-0.4844 l -1.7571,-2.5597 c -0.0301,0 -0.2906,-0.4224 -0.2934,-0.485 -0.1469,0 -1.1512,-1.2861 -1.3374,-1.5409 l -0.3597,-0.4853 c -0.1327,0 -0.8139,-1.1472 -1.0061,-1.4154 -0.547,-0.3557 -0.7642,-0.6298 -1.2478,-0.8676 -0.4371,-0.2138 -1.0763,-0.258 -1.7036,-0.4544 -1.0451,-0.4916 -1.3102,-0.3901 -2.3811,-0.3847 z m 7.1538,46.5423 c 0.131,-0.0796 0.1641,0.0675 0.6489,-0.4002 0.2956,-0.5154 0.3393,-0.4972 0.7015,-0.9272 0.3657,-0.4284 0.7677,-1.5959 1.1699,-2.6598 0.4011,-1.065 0.525,-3.1932 -0.001,-4.5904 -0.525,-1.3966 -1.6265,-2.8225 -2.6113,-3.6788 -0.2418,-0.2112 -1.294,-0.8983 -2.4163,-1.9196 -1.2974,-1.1821 -2.7751,-2.7933 -4.57,-4.3583 -0.8733,-0.7614 -2.0452,-1.5724 -2.8553,-2.2844 -0.9,-0.7864 -1.6812,-1.6634 -2.3743,-2.2539 -0.8206,-0.6998 -1.5446,-1.1684 -1.8505,-1.4017 -1.6897,-1.2855 -3.943,-3.0719 -4.5864,-3.0719 0,0 2.2102,2.8556 3.8523,5.0162 0.712,0.9343 1.3169,1.7419 1.5888,2.1302 0.7495,1.1546 1.8255,2.1733 2.6135,3.2786 2.141,3.0041 4.0967,6.0086 6.325,9.2931 0.8716,1.1749 1.451,2.3595 2.0092,3.6666 0.5632,1.317 1.5162,4.1111 2.3564,4.1615"
       style="fill:#231916;fill-opacity:1;fill-rule:evenodd;stroke:none"
       id="path212" />
    <path
       d="m 135.4496,591.1435 c 1.1724,0.1137 2.3547,0.1145 3.5271,0.003 l 0.8039,2.2734 0.0357,-0.005 c 1.8899,-0.235 3.7398,-0.733 5.4961,-1.4689 l 0.0332,-0.0139 -0.4425,-2.3782 c 1.0707,-0.4893 2.0945,-1.08 3.0535,-1.7626 l 1.8343,1.5684 0.0289,-0.0218 c 1.4805,-1.12 2.8049,-2.4407 3.9376,-3.9113 l 0.0312,-0.0405 h -1.6438 l 0.0487,0.0567 c -0.6871,0.8073 -1.4385,1.559 -2.2458,2.2461 l -1.8134,-1.5502 -0.0289,0.0235 c -1.4105,1.1409 -2.9959,2.0537 -4.6868,2.7102 l -0.0346,0.0136 0.4363,2.3471 c -0.9981,0.356 -2.0251,0.6307 -3.0677,0.8203 l -0.7959,-2.2512 -0.0369,0.006 c -0.8946,0.144 -1.8008,0.2112 -2.7071,0.2112 -0.9059,0 -1.8124,-0.0672 -2.7071,-0.2112 l -0.0368,-0.006 -0.7957,2.2512 c -1.0426,-0.1896 -2.0696,-0.464 -3.0679,-0.82 l 0.4365,-2.3474 -0.0349,-0.0136 c -1.6908,-0.6565 -3.276,-1.5693 -4.6868,-2.7102 l -0.0289,-0.0235 -1.8133,1.5502 c -0.807,-0.6871 -1.5588,-1.4388 -2.2459,-2.2458 l 0.0488,-0.057 h -1.6436 l 0.0312,0.0405 c 1.1325,1.4706 2.4571,2.7913 3.9376,3.9113 l 0.0289,0.0218 1.8315,-1.5659 c 0.9592,0.6832 1.984,1.2736 3.056,1.7615 l -0.4422,2.3768 0.0332,0.0139 c 1.7561,0.7359 3.6062,1.2339 5.4961,1.4689 l 0.0357,0.005 0.8045,-2.276 z"
       style="fill:#231916;fill-opacity:1;fill-rule:evenodd;stroke:none"
       id="path214" />
    <path
       d="m 137.2127,588.8092 c 3.7301,0 7.1637,-1.2691 9.8935,-3.3982 h -1.0185 c -2.514,1.7598 -5.5735,2.793 -8.875,2.793 -3.3012,0 -6.3609,-1.0332 -8.875,-2.793 h -1.0182 c 2.7298,2.1291 6.1631,3.3982 9.8932,3.3982"
       style="fill:#231916;fill-opacity:1;fill-rule:evenodd;stroke:none"
       id="path216" />
    <path
       d="m 157.8076,580.4719 c 1.2197,-1.3606 2.0165,-2.9885 1.9859,-5.3209 0.6222,0.4856 0.8501,2.5206 1.9262,3.2857 0.2576,-2.8851 -0.8572,-4.9468 -2.6042,-6.7859 -0.1216,1.8488 -1.5713,0.6939 -1.9729,5.2308 0.7307,-0.4244 0.7534,-1.5673 1.8728,-2.1943 -1.2932,2.3318 -1.1665,3.4248 -1.2078,5.7846 z m -3.46,-22.3571 c 0.019,-0.2531 0.055,-0.5006 0.0805,-0.6403 -0.6514,-0.1891 -1.2875,-0.434 -1.8901,-0.8419 0.9379,1.2149 1.3011,3.0656 1.0902,4.3888 -1.5373,-2.1704 -3.6689,-3.852 -3.4603,-6.2274 -0.0187,-0.1482 -0.0136,-0.4226 -0.006,-0.6358 -0.7523,-0.2248 -1.466,-0.5598 -2.1551,-1.1115 -0.129,-0.1031 -0.2929,-0.3081 -0.3235,-0.2641 -0.0306,0.0439 0.1511,0.231 0.2625,0.3727 0.8739,1.1143 1.4307,2.6263 1.9196,3.8081 -3.2621,-2.5129 -4.1235,-2.4137 -5.8362,-4.5845 -0.4867,-0.6168 -2.6521,-1.0616 -3.3551,-1.2016 -0.1675,-0.0335 -0.1673,-0.2631 -0.006,-0.2489 0.799,0.0697 2.2328,-0.0258 2.7816,-0.2361 2.8528,-1.0936 5.0808,-0.5162 8.0592,1.0686 -1.5681,-0.1366 -3.1385,-0.0422 -4.7115,0.3943 0.2591,0.0862 0.506,0.3212 0.7778,0.2588 3.4098,-0.7843 5.7799,0.4924 8.1173,2.9387 -2.029,-0.5162 -3.5986,-0.7013 -5.1661,-1.0947 l 0.002,0.008 c 0.0995,0.3005 0.5709,0.5264 0.5721,0.527 2.3315,1.0168 4.8943,0.1128 7.3017,4.0229 -1.216,-0.758 -2.4678,-0.9326 -3.7091,-1.2696 0.003,0.1939 -0.0181,0.4377 0.1154,0.6812 1.7773,1.7291 4.0306,0.9796 6.2336,5.8495 -1.1301,-0.1579 -2.2742,-1.118 -3.249,-1.847 0.0683,0.2486 0.1995,0.5768 0.36,0.8679 1.9179,1.698 3.7879,2.9682 4.0819,5.6943 -0.6069,-0.6103 -1.643,-1.2212 -2.4112,-1.6645 1.3768,2.0636 2.6966,4.4387 2.4177,7.4523 -0.5409,-2.4801 -2.0659,-2.763 -2.9461,-4.6557 -0.4966,1.4517 -1.0553,2.2544 -1.8462,3.1921 -0.2239,-4.25 1.4088,-4.0887 1.5477,-7.1504 l -0.6137,-0.4836 c 0.002,1.4755 -0.5125,2.9861 -1.2523,4.2177 -0.104,-2.2263 -0.9609,-4.8912 0.3648,-6.779 0.1128,-0.3785 0.0987,-0.6761 0.0658,-0.8621 -0.5128,-0.3727 -0.9666,-0.6548 -1.3286,-0.6828 0.2253,1.2963 0.2239,2.7601 -0.2806,4.0705 -0.3493,-2.3819 -1.9789,-4.2967 -1.6053,-7.3315"
       style="fill:#231916;fill-opacity:1;fill-rule:evenodd;stroke:none"
       id="path218" />
    <path
       d="m 116.6179,580.4719 c -1.2198,-1.3606 -2.0166,-2.9885 -1.986,-5.3209 -0.6222,0.4856 -0.8501,2.5206 -1.9261,3.2857 -0.2577,-2.8851 0.8572,-4.9468 2.6042,-6.7859 0.1216,1.8488 1.5712,0.6939 1.9729,5.2308 -0.7305,-0.4244 -0.7535,-1.5673 -1.8729,-2.1943 1.2932,2.3318 1.1665,3.4248 1.2079,5.7846 z m 3.46,-22.3571 c -0.019,-0.2531 -0.055,-0.5006 -0.0805,-0.6403 0.6514,-0.1891 1.2875,-0.434 1.8901,-0.8419 -0.938,1.2149 -1.3008,3.0656 -1.0902,4.3888 1.5372,-2.1704 3.6689,-3.852 3.4605,-6.2274 0.0185,-0.1482 0.0133,-0.4226 0.005,-0.6358 0.7523,-0.2248 1.4661,-0.5598 2.1552,-1.1115 0.129,-0.1031 0.2928,-0.3081 0.3234,-0.2641 0.0306,0.0439 -0.1511,0.231 -0.2622,0.3727 -0.8742,1.1143 -1.4309,2.6263 -1.9199,3.8081 3.2621,-2.5129 4.1236,-2.4137 5.8363,-4.5845 0.4867,-0.6168 2.6521,-1.0616 3.3551,-1.2016 0.1678,-0.0335 0.1672,-0.2631 0.006,-0.2489 -0.7991,0.0697 -2.2329,-0.0258 -2.7816,-0.2361 -2.8528,-1.0936 -5.0809,-0.5162 -8.0592,1.0686 1.5681,-0.1366 3.1385,-0.0422 4.7117,0.3943 -0.2593,0.0862 -0.5062,0.3212 -0.7781,0.2588 -3.4098,-0.7843 -5.7798,0.4924 -8.1173,2.9387 2.0291,-0.5162 3.5986,-0.7013 5.1662,-1.0947 l -0.003,0.008 c -0.0995,0.3005 -0.5709,0.5264 -0.572,0.527 -2.3315,1.0168 -4.8943,0.1128 -7.3018,4.0229 1.2161,-0.758 2.4679,-0.9326 3.7091,-1.2696 -0.002,0.1939 0.0182,0.4377 -0.1153,0.6812 -1.7771,1.7291 -4.0306,0.9796 -6.2337,5.8495 1.1305,-0.1579 2.2742,-1.118 3.2491,-1.847 -0.0681,0.2486 -0.1996,0.5768 -0.36,0.8679 -1.9179,1.698 -3.788,2.9682 -4.0816,5.6943 0.6069,-0.6103 1.6429,-1.2212 2.4108,-1.6645 -1.3767,2.0636 -2.6963,4.4387 -2.4176,7.4523 0.5408,-2.4801 2.0659,-2.763 2.9463,-4.6557 0.4966,1.4517 1.0551,2.2544 1.8459,3.1921 0.224,-4.25 -1.4088,-4.0887 -1.5477,-7.1504 l 0.6137,-0.4836 c -0.002,1.4755 0.5125,2.9861 1.2524,4.2177 0.104,-2.2263 0.9609,-4.8912 -0.3649,-6.779 -0.1128,-0.3785 -0.0986,-0.6761 -0.0657,-0.8621 0.5128,-0.3727 0.9669,-0.6548 1.3286,-0.6828 -0.2254,1.2963 -0.224,2.7601 0.2806,4.0705 0.3492,-2.3819 1.9789,-4.2967 1.6053,-7.3315"
       style="fill:#231916;fill-opacity:1;fill-rule:evenodd;stroke:none"
       id="path220" />
    <path
       d="m 137.2147,550.7697 1.1353,1.9666 h -2.2709 z m 22.0924,34.6413 -22.0924,-38.2717 -22.0963,38.2717 c 14.7296,0 29.4593,0 44.1887,0 z m -22.1085,-27.2287 -1.0483,1.8153 h -3.132 l -0.5655,-0.98 0.4822,-0.8353 z m -1.3975,2.4202 -1.2167,2.1073 -1.2166,-2.1073 z m -3.8308,0 1.048,1.8153 h -2.5288 l 1.0483,-1.8153 z m 1.3975,2.4205 0.5179,0.8972 -0.5301,0.9181 h -2.8006 l -0.7313,-1.2668 0.3166,-0.5485 z m -0.3614,2.4202 -1.0483,1.8153 h -0.006 l -1.048,-1.8153 h 2.1019 z m -3.4994,0 1.048,1.8153 h -2.8602 l 1.048,-1.8153 v 0 z m 1.3975,2.4202 1.048,1.8153 h -5.6551 l 1.0482,-1.8153 z m 1.0539,1.8153 1.048,-1.8153 h 3.1561 l 1.048,1.8153 z m 1.3972,-2.4202 1.2288,-2.1282 1.2286,2.1282 z m 3.8608,2.4202 1.048,-1.8153 h 3.1561 l 1.0479,1.8153 z m 1.3972,-2.4202 1.2288,-2.1282 1.2288,2.1282 z m 3.8608,2.4202 1.048,-1.8153 h 3.5611 l 1.0483,1.8153 z m 1.3972,-2.4202 1.0482,-1.8153 v 0 h 0.7665 l 1.048,1.8153 z m 0.7327,-3.6893 -0.7327,1.2691 h -2.8004 l -0.53,-0.9181 0.5179,-0.8972 h 3.2298 z m -1.0819,1.874 -1.048,1.8153 h -0.006 l -1.0479,-1.8153 z m -2.1138,-3.0254 1.0479,-1.8153 h 0.4352 l 1.0479,1.8153 z m 0.5669,-3.4021 -0.5669,0.9819 h -3.132 l -1.0483,-1.8153 h 4.2659 z m -0.9164,1.5868 -1.2167,2.1075 -1.2166,-2.1075 z m -5.7759,3.3177 0.5179,-0.8972 h 2.8247 l 0.5179,0.8972 -0.5301,0.9181 h -2.8006 z m 0.8674,-1.5024 1.048,-1.8153 h 0.0297 l 1.0483,1.8153 z m 2.1138,3.0254 -1.048,1.8153 h -0.006 l -1.048,-1.8153 h 2.1019 z m -20.0018,18.1528 h 37.904 l -4.1919,-7.2612 h -29.5203 z m 5.2401,-9.0765 h 27.4238 l -1.048,-1.8151 h -25.3279 z m 15.1968,-21.178 1.048,1.8154 h -5.0655 l 1.0479,-1.8154 z m 1.3972,2.4203 1.0482,1.8153 h -7.8604 l 1.0479,-1.8153 z m 8.3843,14.5221 h -22.5329 l -1.0479,1.8153 h 24.6291 z"
       style="fill:#231916;fill-opacity:1;fill-rule:evenodd;stroke:none"
       id="path222" />
    <path
       d="m 137.2127,613.2648 c 22.3988,0 40.5567,-18.1579 40.5567,-40.5567 0,-22.3988 -18.1579,-40.5567 -40.5567,-40.5567 -22.3988,0 -40.5567,18.1579 -40.5567,40.5567 0,22.3988 18.1579,40.5567 40.5567,40.5567 z m 0,-2.4202 c -21.0628,0 -38.1364,-17.0736 -38.1364,-38.1365 0,-21.0628 17.0736,-38.1364 38.1364,-38.1364 21.0629,0 38.1365,17.0736 38.1365,38.1364 0,21.0629 -17.0736,38.1365 -38.1365,38.1365"
       style="fill:#231916;fill-opacity:1;fill-rule:evenodd;stroke:none"
       id="path224" />
    <path
       d="m 145.0029,601.5909 c -0.1259,-0.4258 -0.2514,-0.726 -0.3059,-1.0664 -0.0209,-0.1346 0.8655,0.0899 0.9516,0.0992 0.0102,10e-4 0.0199,0.002 0.0292,0.003 0.0128,0.003 0.0255,0.007 0.0386,0.01 0.1587,0.0377 0.3288,0.0536 0.4892,0.0984 l 0.4091,0.1335 0.0725,0.0289 0.0817,0.0261 c 0.0263,0.0107 0.0649,0.0345 0.0669,0.0654 0.002,0.0304 -0.001,0.0613 0.001,0.0871 0.003,0.0263 -0.0323,0.036 -0.001,0.0533 0.0275,0.006 -0.036,0.0754 0.0524,0.0549 l 0.0635,-0.0292 0.0522,-0.028 c 0.0439,-0.0284 0.0864,-0.08 0.123,-0.1196 0.0604,-0.0667 0.1097,-0.1236 0.1406,-0.1945 0.0247,-0.0556 0.0666,-0.2055 0.0692,-0.2633 l -0.007,-0.003 -0.003,-0.0363 c 0.004,-0.009 -0.0556,-0.1505 -0.0604,-0.1533 -5e-4,-0.0289 -0.0144,-0.0746 -0.045,-0.0868 l 0.002,-0.005 c -0.0377,-0.0318 -0.0558,-0.0185 -0.104,-0.0403 -0.0201,-0.0743 -0.235,-0.129 -0.2942,-0.1244 -0.005,0.0107 -0.3453,-0.0562 -0.6526,-0.1035 -0.4464,-0.0978 -0.9096,-0.163 -1.167,-0.2033 l -0.0261,-0.0104 -0.0124,0.004 c -0.0394,-0.006 -0.0729,-0.011 -0.0992,-0.0159 -0.0701,-0.0133 -0.2183,-0.0156 -0.1982,-0.0836 0.0442,-0.1545 0.005,-0.3206 0.1826,-0.6539 0.0524,-0.0964 0.106,-0.468 0.1482,-0.601 0.051,-0.1593 0.1545,-0.4615 0.2115,-0.614 0.0487,-0.1312 0.1431,-0.316 0.2029,-0.4527 0.0434,-0.1003 0.0729,-0.2097 0.1199,-0.3058 0.1299,-0.2639 0.2251,-0.4164 0.3824,-0.6171 0.0522,-0.0661 0.1466,-0.1897 0.2021,-0.2463 0.0556,-0.0562 0.1372,-0.127 0.1948,-0.1747 0.1315,-0.1085 0.2976,-0.1879 0.4289,-0.2593 0.2364,-0.1282 0.4289,-0.2118 0.5876,-0.2608 0.0771,-0.023 0.1726,-0.0448 0.2168,-0.0615 0.112,-0.0423 0.0681,-0.0661 -0.1675,-0.1185 -0.1448,-0.0321 -0.3821,-0.1151 -0.7115,-0.1352 -0.1148,-0.007 -0.2738,-0.009 -0.4113,-0.0343 -0.1624,-0.0309 -0.3793,0.0623 -0.5255,0.1482 -0.1636,0.0961 -0.262,0.1556 -0.3955,0.3368 -0.0598,0.0802 -0.1082,0.2072 -0.1604,0.2951 -0.1775,0.2996 -0.3223,0.5564 -0.3892,0.7911 -0.0678,0.214 -0.1142,0.4757 -0.167,0.6489 -0.1615,0.5298 -0.2633,0.8815 -0.3673,1.1358 -0.0355,0.0865 -0.0423,0.1145 -0.1052,0.1267 -0.053,0.0102 -0.0711,-0.0479 -0.0862,-0.0714 -0.1528,-0.2347 -0.2681,-0.5179 -0.4345,-0.7523 -0.1466,-0.2058 -0.3405,-0.366 -0.5213,-0.5338 -0.2262,-0.2095 -0.4745,-0.3943 -0.8243,-0.4456 -0.1097,-0.0153 -0.2673,-0.0139 -0.3926,-0.009 -0.2265,0.009 -0.4703,0.0936 -0.8028,0.1661 -0.3526,0.0769 -0.9439,0.1279 -1.3133,0.2529 -0.3654,0.1233 -0.3881,0.1916 -0.1998,0.2721 0.4269,0.009 1.4524,-0.0102 1.8499,0.0496 0.3821,0.0567 0.6729,0.2089 0.9932,0.4499 0.1602,0.1207 0.2787,0.273 0.4224,0.4467 0.1148,0.1383 0.2829,0.3382 0.339,0.5219 0.034,0.0201 0.1687,0.2619 0.292,0.5218 -0.0973,-0.007 -0.1846,0.003 -0.2622,-0.008 -0.1426,-0.0204 -0.2512,-0.0164 -0.3416,-0.0354 -0.1803,-0.0389 -0.2741,-0.0916 -0.3277,-0.0976 -0.0933,-0.0104 -0.1057,-0.0107 -0.2234,-0.0255 -0.0918,-0.0119 -0.1017,-0.0561 -0.1939,-0.0711 -0.087,-0.0139 -0.0926,-0.0196 -0.1593,-0.0451 -0.0453,-0.017 -0.115,-0.021 -0.1349,-0.0459 -0.0986,-0.0814 -0.2185,-0.0516 -0.299,-0.1009 -0.0786,-0.007 -0.2393,0.0516 -0.2988,0.1701 -0.001,0.003 -0.0621,0.1457 -0.0683,0.1604 -0.0437,0.1043 -0.091,0.18 -0.0984,0.1826 0.006,0.2644 0.2285,0.3583 0.3827,0.3832 l 0.2854,0.0462 c 0.1602,-0.0159 0.3691,0.0615 0.6421,0.1094 0.3617,0.0629 0.7954,0.061 1.1885,0.165 0.0788,0.0207 0.1466,0.0385 0.207,0.0539 0.072,0.1817 0.1562,0.3789 0.2406,0.5873 0.1491,0.5791 0.6659,1.9414 0.8371,2.7428 l 0.1502,0.9544 -0.013,0.002 c 0.0193,0.121 -0.129,0.305 -0.1114,0.4173 v 0 l 0.0133,-0.0176 c 0.004,0.0247 0.008,0.0425 -0.003,0.0672 l 9e-4,10e-4 0.005,-0.007 c 0.0107,0.0689 0.0578,0.1352 0.1134,0.1746 l 0.087,-0.009 -0.004,9e-4 c 0.2262,-0.0326 0.459,-0.1392 0.6622,-0.229 l -0.001,-0.0108 0.0422,-0.0301 c 0.0153,-0.002 0.0414,-0.0558 0.0425,-0.0759 0.0406,-0.0176 0.0817,-0.0573 0.0811,-0.1041 0.0363,-0.0226 0.0825,-0.0737 0.0749,-0.121 l 0.008,-10e-4 c 0.0116,-0.0706 0.0587,-0.0904 0.0504,-0.167 0.0777,-0.0805 -0.0884,-0.354 -0.1389,-0.4246 l -0.0155,0.002 c -0.0182,-0.1151 -0.0712,-0.2753 -0.1418,-0.3685 l -0.051,-0.1333 c 3e-4,0 -0.009,-0.0181 -0.0105,-0.0258 -0.2134,-0.4345 -0.5116,-1.4136 -0.6894,-1.9771 l 0.007,-0.002 z"
       style="fill:#231916;fill-opacity:1;fill-rule:evenodd;stroke:none"
       id="path228" />
    <path
       d="m 155.0662,597.3012 c 0.1584,-0.0918 0.1213,-0.1899 0.1454,-0.3231 0.013,-0.0706 0.0581,-0.1281 0.0411,-0.2129 -0.0269,-0.1346 -0.3042,-0.4238 -0.3909,-0.4414 -0.1117,-0.0218 -0.1928,-0.007 -0.3135,-0.0136 -0.076,-0.0266 -0.152,-0.0544 -0.2285,-0.0813 -0.263,-0.095 -0.5488,0.4819 -0.4688,0.705 0.178,0.1187 0.3721,0.1051 0.5743,0.1536 0.1037,0.0247 0.1774,0.1103 0.2775,0.1454 0.1051,0.0369 0.2557,0.0454 0.3634,0.0683 z m 6.8275,0.5491 c -0.5105,-0.1225 -1.1758,-0.2279 -1.4423,-0.3101 -0.053,-0.0142 -0.0844,-0.1321 -0.0714,-0.1687 0.0306,-0.0881 0.0805,-0.195 0.0785,-0.2806 -0.0391,-0.0323 -0.2497,-0.007 -0.3319,-0.0244 -0.1375,-0.0303 -0.1976,-0.0122 -0.3643,-0.0147 -0.2429,-0.004 -0.3322,0.0136 -0.4317,-0.0729 -0.0657,-0.0578 0.0349,-0.5196 -0.0581,-0.6746 -0.102,-0.1687 -0.4198,-0.1216 -0.453,-0.3158 0.0839,-0.0884 0.1058,-0.174 0.0627,-0.2755 0.0915,-0.0329 0.2729,0.007 0.4393,0.0227 0.1078,0.01 0.1766,-0.0239 0.2492,0.0394 0.015,0.0133 0.0309,0.0269 0.0462,0.0402 -0.0255,0.1967 -0.0652,0.3677 0.044,0.5695 0.0184,0.0346 0.0844,0.2381 0.259,0.3084 0.114,0.0454 0.1568,0.2364 0.2569,0.2548 0.1522,0.0292 0.2769,-0.007 0.3772,-0.0507 0.2135,-0.1928 -0.0121,-0.4553 0.1018,-0.7053 0.146,-0.0878 0.8328,0.2047 0.9944,0.2659 0.002,0.007 0.004,0.015 0.005,0.0218 -0.2647,0.2132 -0.5902,0.406 -0.5709,0.6764 0.2432,0.2645 0.7518,-0.0952 1.0429,-0.214 0.2177,-0.0887 0.3413,0.0224 0.5162,-0.0508 0.2534,-0.1051 0.3716,-1.2914 0.0507,-1.4144 -0.6588,0.2089 -2.1311,-0.0987 -2.8939,-0.2815 -0.006,-0.0131 -0.0119,-0.0255 -0.0178,-0.038 0.0374,-0.0604 0.0204,-0.0882 0.007,-0.1508 0.3136,-0.2557 0.6971,-0.4493 1.0455,-0.707 0.1114,-0.0825 0.2352,-0.2758 0.3619,-0.6738 0.0777,-0.2438 -0.2332,-0.3211 -0.2942,-0.3948 -0.1361,-0.0913 -0.2619,-0.0193 -0.5304,-0.0114 -0.1556,0.004 -0.3693,0.0814 -0.5533,0.1253 -0.1814,0.0442 -0.333,0.0553 -0.5357,0.1242 -0.1627,0.0555 -0.466,0.0983 -0.6381,0.1553 -0.3521,0.1165 -0.7121,0.2027 -1.0488,0.3056 -0.0644,0.007 -0.1253,0.0144 -0.1415,0.0275 -0.038,-0.003 -0.0768,0.0238 -0.1043,0.047 l -0.006,-0.007 -0.1108,0.0496 0.004,-10e-4 c -0.004,0.004 -0.0113,0.009 -0.0184,0.0133 -0.0306,0.0117 -0.0595,0.0233 -0.0887,0.036 -0.0544,0.0227 -0.1072,0.0465 -0.1599,0.0692 -0.0527,0.0147 -0.0981,0.0204 -0.121,0.008 l -0.0533,0.044 -0.0598,-0.0723 0.1448,-0.1191 0.002,0.003 8e-4,-6e-4 c 0.0216,-0.0913 0.2756,-0.1105 0.3453,-0.1678 l 0.008,0.01 0.1848,-0.07 c 0.0156,-0.0337 0.1718,-0.1185 0.2058,-0.1463 0.003,-0.0263 0.009,-0.0513 0.0304,-0.07 v 0 l -0.004,0.003 0.009,-0.0833 -3e-4,-9e-4 c 0.0255,-0.0207 0.0187,-0.0745 0.0382,-0.1006 l -0.0255,-0.0309 c 0.0468,-0.0385 0.0355,-0.0332 0.04,-0.0836 v 0 c 0.001,-0.0148 -0.0179,-0.0374 -0.0275,-0.0485 l 0.007,-0.005 -0.004,-0.1267 -0.0499,-0.0723 0.009,-0.007 -0.0596,-0.0726 -0.01,0.008 -0.01,-0.0122 -0.1219,-9e-4 -0.005,-0.005 -0.1231,-0.0107 -0.004,0.003 -0.0303,-0.0133 -0.0684,-0.0267 -0.0334,0.0272 c -0.0411,-0.0496 -0.0459,-0.028 -0.1055,-0.0346 l -0.0263,0.0219 -0.0133,-0.0165 c -0.1945,0.0196 -0.2274,0.0417 -0.4119,0.0403 -0.0394,-9e-4 -0.1058,-0.003 -0.1565,-0.025 -0.0411,-0.0175 -0.0473,-0.0442 -0.0754,-0.0711 -0.0326,-0.0312 -0.0802,-0.0683 -0.0578,-0.112 0.0215,-0.0405 0.1258,-0.0845 0.155,-0.095 h -0.001 c -0.0108,0.009 0.0207,-0.0119 0.034,-0.0153 l -0.005,0.004 c 0.0371,-0.0295 0.0953,-0.0275 0.1304,-0.0564 v 0 c 0.003,0.003 0.2974,-0.112 0.5584,-0.2291 0.2775,-0.1241 0.6358,-0.3101 0.6432,-0.3115 l -0.005,0.004 c 0.2483,-0.1982 0.1571,-0.1591 0.2707,-0.4431 l -0.0147,-0.0184 c 0.0408,-0.0343 0.0388,-0.0459 0.0437,-0.0936 l -0.0315,-0.0382 0.0394,-0.0323 c -0.002,-0.0907 0.0938,-0.2744 0.0241,-0.3504 -0.1738,-0.1908 -0.0958,-0.1517 -0.3433,-0.0663 -0.0952,0.0323 -0.2404,0.1513 -0.3297,0.1919 -0.187,0.0847 -0.3483,0.1879 -0.5309,0.2681 -0.2157,0.0947 -0.3926,0.2328 -0.5865,0.3175 -0.2024,0.0885 -0.2934,0.2191 -0.4606,0.2736 v 0 c 0.007,0.009 -0.1182,0.006 -0.1338,0.0184 -0.356,-0.396 -0.8909,-1.2801 -1.2053,-1.6795 -0.0825,-0.245 -0.2665,-0.3379 -0.4504,-0.4794 l -0.007,0.006 -0.1607,-0.1914 0.005,0.002 c -0.0116,-0.006 -0.0193,-0.0119 -0.0266,-0.0212 l 0.004,0.002 -0.1757,-0.106 -0.0156,0.0127 c -0.0516,-0.0621 -0.1128,-0.1222 -0.148,-0.0893 -0.0966,0.0916 -0.388,0.3631 -0.6854,0.6282 l 0.002,0.006 -0.0507,0.1519 0.0141,0.0173 -0.0382,0.0309 c -0.003,0.0292 -0.0647,0.1384 -0.0468,0.1605 l -0.004,0.003 c -0.003,0.038 -0.0561,0.1579 -0.0824,0.1862 l 0.001,0.002 -0.0491,0.0791 c 0,0 -0.0955,0.1174 -0.1003,0.1653 v 0 c -0.0167,0.1788 -0.0794,0.716 -0.2132,0.8268 10e-4,0.0236 -0.009,0.0454 -0.0263,0.0604 l 2e-4,-6e-4 -0.0382,0.1783 0.0317,0.0559 -0.049,0.0521 c 0.002,0.01 0.004,0.019 0.006,0.0295 0.078,0.0148 0.2086,-0.1465 0.4042,-0.3535 0.125,-0.1318 0.2585,-0.2148 0.3906,-0.3588 0.1032,-0.1123 0.1616,-0.258 0.2452,-0.3617 0.0598,-0.0746 0.1078,-0.1367 0.1585,-0.1755 0.0323,-0.0244 0.0774,-0.0363 0.0907,-0.0473 0.015,0.0184 0.03,0.0374 0.0459,0.0572 0.2013,0.26 0.4445,0.6611 0.6095,0.8748 0.144,0.1871 0.3637,0.4527 0.5649,0.6693 -0.1927,0.1584 -1.5239,0.6891 -1.5868,0.6619 l 0.0207,0.009 c -0.171,0.1403 -0.6098,0.2333 -0.6341,0.5088 v -3e-4 c -0.0108,-0.005 -0.005,0.0239 -0.0117,0.0335 l 0.008,0.01 c -0.0573,0.0471 -0.065,0.1134 -0.1032,0.1704 l 0.0178,0.0213 c -0.045,0.0396 -0.138,0.2743 -0.0978,0.3234 l -2e-4,6e-4 -0.0193,0.123 0.007,0.009 -0.0272,0.0558 v 0 c -0.0168,-0.021 -0.003,0.0547 0.0141,0.0757 l -0.0158,0.0133 c -0.002,0.0255 -0.002,0.038 -0.0131,0.0627 0.0292,0.0227 0.0913,0.1539 0.142,0.1423 0.1194,0.1443 0.3473,-0.1437 0.4524,-0.1435 0.4941,-0.244 0.4397,-0.3299 0.8553,-0.5385 0.4597,-0.2311 1.0573,-0.5607 1.129,-0.6197 l 0.0366,-0.017 v 0 c 0.0907,-0.0751 0.4082,-0.1522 0.6018,-0.157 0.2287,-0.005 0.341,0.1468 0.4629,0.235 l 0.0881,0.008 c 0.0661,0.0105 0.1273,0.0411 0.1811,0.0933 l 0.1463,0.1224 c -0.1324,0.1094 -0.193,0.2475 -0.3163,0.3524 l 0.001,-6e-4 -0.0675,0.0677 0.008,0.0103 c -0.1476,0.1218 -0.2729,0.1819 -0.3064,0.3645 l 0.005,0.005 -0.006,0.005 0.0397,0.1185 c 0.0363,-0.007 0.1437,0.002 0.1723,0.0266 0.0411,-0.0221 0.2019,-0.049 0.2424,-0.0453 v 0 c 0.0286,0.004 0.0601,-0.0375 0.0794,-0.0531 l 0.0306,0.0358 -6e-4,8e-4 v 0 c 0.0783,-0.0635 0.4505,-0.036 0.5454,-0.0244 l 0.0244,-0.0204 0.0139,0.0165 c 0.0592,-0.0196 0.1162,-0.0176 0.1672,-0.0471 0.0128,6e-4 0.0253,9e-4 0.0374,0.002 l 0.005,0.006 0.0247,-0.003 c 0.0607,0.005 0.1222,0.0125 0.184,0.0125 0.066,-3e-4 0.1375,-0.0253 0.1967,-0.0392 0.8331,-0.1967 1.7101,-0.2746 2.4763,-0.2933 0.007,0.008 0.0131,0.0155 0.0196,0.0235 -3e-4,0.005 -6e-4,0.01 -0.001,0.0142 -0.536,0.4665 -1.4573,0.6497 -2.128,0.8821 -0.4399,0.1525 -0.9864,0.3501 -1.3657,0.4836 -0.057,0.008 -0.1247,0.049 -0.1916,0.108 v 0 c -0.01,0.006 -0.0196,0.01 -0.0298,0.0119 -0.0128,0.01 -0.0247,0.0173 -0.0445,0.0187 -0.005,10e-4 -0.0102,0.003 -0.0159,0.004 -0.009,0.006 -0.0255,0.0144 -0.0363,0.0176 -0.006,0.003 -0.0113,0.007 -0.019,0.009 -0.008,0.007 -0.0155,0.0131 -0.0263,0.0173 l -0.1732,0.1432 -0.0108,-0.0139 c -0.0252,0.0212 -0.0465,0.0416 -0.076,0.0564 l -0.0887,0.0737 c -0.004,0.005 -0.009,0.011 -0.0136,0.0156 -0.006,0.0215 -0.0178,0.036 -0.0346,0.0499 l 9e-4,0.001 -0.3266,0.2687 c -0.003,0.009 -0.008,0.0159 -0.0147,0.0224 -0.004,0.01 -0.01,0.0193 -0.0173,0.0272 -0.005,0.0148 -0.0142,0.0338 -0.0235,0.0448 -0.002,0.0184 -0.0108,0.036 -0.0261,0.0488 v 0 l 0.0156,-0.0128 c -6e-4,0.009 -0.002,0.0176 -0.004,0.0264 l 0.0125,0.0156 -6e-4,5e-4 0.0845,0.1026 c 0.006,0.008 0.0108,0.0162 0.0133,0.0241 0.006,0.007 0.01,0.0148 0.0122,0.023 l 0.0428,0.0516 -0.0244,-0.002 v 0 c 0.0142,10e-4 0.0278,0.007 0.0397,0.0159 0.005,0.003 0.0102,0.005 0.0159,0.007 h 3e-4 c 0.0127,0.0154 0.0516,0.0159 0.0691,0.0173 v 0 c 0.005,6e-4 0.0207,-0.004 0.0301,-0.004 0.0136,-0.003 0.0292,-0.006 0.0434,-0.006 l 0.0671,-0.0553 0.0284,0.0346 c 0.009,-0.001 0.0181,-0.002 0.0272,0 0.009,-0.004 0.0198,-0.007 0.0309,-0.007 0.008,-0.005 0.021,-0.01 0.0295,-0.0122 0.008,-0.007 0.0164,-0.0125 0.0266,-0.0156 0.015,-0.0122 0.0318,-0.0287 0.0499,-0.0349 0.005,-0.004 0.01,-0.007 0.015,-0.0102 l 0.0763,-0.0635 0.017,0.021 c 0.006,-0.003 0.0125,-0.005 0.0213,-0.007 0.0133,-0.008 0.0467,-0.0201 0.0629,-0.0238 0.01,-0.005 0.0215,-0.008 0.034,-0.008 0.01,-0.005 0.0221,-0.008 0.0346,-0.008 0.0193,-0.004 0.0246,-0.009 0.0397,-0.0221 l 0.007,0.009 c 0.007,-0.002 0.0139,-0.002 0.0207,-0.002 0.008,-0.003 0.0168,-0.004 0.0258,-0.005 0.0108,-0.005 0.0236,-0.008 0.0369,-0.007 0.0113,-0.004 0.0195,-0.008 0.0317,-0.0107 0.0114,-0.006 0.0244,-0.009 0.0374,-0.008 0.008,-0.002 0.0168,-0.004 0.0241,-0.006 0.009,-0.006 0.0176,-0.0119 0.0258,-0.019 l 0.003,0.004 c 0.007,-0.002 0.015,-0.003 0.0224,-0.003 0.008,-0.004 0.0173,-0.007 0.0269,-0.007 0.008,-0.002 0.0184,-0.007 0.0258,-0.009 0.0181,-0.004 0.0349,-0.0153 0.0553,-0.0156 0.006,-0.004 0.0144,-0.007 0.0227,-0.009 0.0501,-0.01 0.0997,-0.0204 0.1474,-0.0278 0.6222,-0.0941 1.3138,-0.7438 1.7603,0.1086 -0.0128,0.0587 0.0289,0.2741 -0.0613,0.3016 -0.1318,-0.005 -0.3452,-0.0391 -0.4765,-0.0445 -0.1278,0.007 -0.4048,-0.0235 -0.5969,0.0255 -0.08,0.0201 -0.1506,0.0434 -0.1987,0.0689 -3e-4,0.005 -0.001,0.01 -0.001,0.0144 0.0522,0.0649 0.112,0.142 0.1803,0.188 0.2968,0.1973 0.7214,0.2242 1.0443,0.3087 -0.0207,0.1006 -0.0581,0.2327 -0.0666,0.3679 -0.0162,0.2585 -0.1868,0.0714 -0.3243,0.1029 -0.1378,0.032 0.0487,-0.04 0.002,-0.1967 -0.0479,-0.1579 -0.4408,-0.1778 -0.5457,-0.2058 -0.1054,-0.0284 -0.2007,0.034 -0.2908,-0.0556 -0.1865,-0.1851 -0.3629,-0.6508 -0.7033,-0.4354 -0.0626,0.0389 -0.4479,0.5375 -0.3832,0.5786 0.0388,0.0929 0.1664,0.2605 0.2021,0.3041 0.1324,0.1608 0.3404,0.4683 0.4019,0.7175 0.0255,0.1029 -0.005,0.2001 -0.0209,0.2752 -0.01,0.0451 0.0354,0.0567 0.0583,0.0638 0.1959,-0.1318 0.3734,-0.4898 0.385,-0.7016 0.1301,-0.2735 0.5173,0.4808 0.6817,0.6064 0.1335,0.1031 0.2855,-0.0284 0.3201,-0.1052 0.0343,-0.0774 2e-4,-0.377 -0.0879,-0.4842 -0.0882,-0.1071 0.1321,-0.1579 0.1321,-0.1579 l 0.2231,0.2912 c 0,0 0.0456,0.1749 -0.0752,0.3067 -0.0824,0.0907 -0.1386,0.4056 -0.0949,0.538 0.0555,0.174 0.2874,-0.1035 0.3322,-0.093 0.1565,-0.0147 0.2667,-0.0669 0.4175,-0.1434 0.1092,-0.0556 0.1585,-0.1043 0.2552,-0.1639 0.2171,-0.1323 0.01,-0.6137 0.2605,-0.6298 0.612,0.1888 1.2829,0.3662 1.8944,0.5978 v -6e-4 l 0.0629,0.0244 c 0.0558,0.009 0.2106,0.0258 0.233,0.0598 0.009,0.003 0.0173,0.008 0.0247,0.0136 0.0124,0.005 0.0402,0.0216 0.049,0.0298 0.0638,0.0371 0.131,0.0465 0.1928,0.0955 0.008,0.004 0.0243,0.0125 0.0314,0.0187 0.0156,0.006 0.0346,0.0179 0.0445,0.0306 0.0695,0.0482 0.2121,0.1525 0.2101,0.237 -6e-4,0.023 0.009,0.0301 0.0209,0.0499 0.0871,0.142 0.0652,0.0471 0.0961,0.1854 0.008,0.0111 0.0219,0.0272 0.0256,0.0402 l 0.0206,0.0318 c 0.004,-0.002 0.008,-0.003 0.0125,-0.004 0.1094,-0.0726 0.0394,-0.002 0.1287,-0.0607 0.005,-0.007 0.0119,-0.0141 0.0201,-0.0198 0.004,-0.006 0.008,-0.011 0.0139,-0.0159 0.0196,-0.0391 0.165,-0.1615 0.1755,-0.1683 0.003,-0.005 0.006,-0.009 0.009,-0.012 0.005,-0.0141 0.0141,-0.0249 0.0246,-0.0323 0.0513,-0.0397 0.0213,-0.0139 0.0539,-0.0669 0.0198,-0.0331 0.0504,-0.0646 0.0771,-0.0827 0.009,-0.008 0.0133,-0.0156 0.0241,-0.0238 0.004,-0.008 0.009,-0.0151 0.0156,-0.0216 0.002,-0.005 0.005,-0.0102 0.009,-0.015 0.003,-0.021 0.0153,-0.0363 0.0281,-0.0527 0.004,-0.009 0.009,-0.0182 0.0167,-0.0261 0.005,-0.015 0.0131,-0.0286 0.0261,-0.0394 0.006,-0.0139 0.0159,-0.0281 0.0278,-0.0383 0.004,-0.006 0.01,-0.0113 0.0153,-0.0164 0.006,-0.008 0.0125,-0.0151 0.0207,-0.0207 0.002,-0.003 0.005,-0.006 0.007,-0.009 0.002,-0.006 0.004,-0.0111 0.007,-0.0165 0.005,-0.0215 0.007,-0.0317 0.0181,-0.0507 0.002,-0.004 0.004,-0.019 0.006,-0.0238 0.004,-0.019 0.0139,-0.0329 0.0179,-0.0496 0.004,-0.017 0.007,-0.0363 0.0147,-0.0516 0.005,-0.0281 0.0142,-0.0176 0.007,-0.0437 -0.003,-0.0113 -0.004,-0.0226 -0.002,-0.034 -0.002,-0.0176 0.004,-0.0334 0.007,-0.0507 -0.002,-0.0139 -0.003,-0.0261 0,-0.0403 0,-0.004 -6e-4,-0.008 -6e-4,-0.0113 -0.003,-0.0105 -0.003,-0.0213 -0.002,-0.0326 -8e-4,-0.008 -8e-4,-0.0224 -3e-4,-0.032 -0.003,-0.01 -0.004,-0.0202 -0.003,-0.0307 -0.007,-0.0181 -0.006,-0.0379 3e-4,-0.0561 6e-4,-0.0113 -0.007,-0.0238 -0.004,-0.0442 -0.003,-0.0128 -0.003,-0.0261 0,-0.0383 -8e-4,-0.008 -0.002,-0.0156 -0.002,-0.0232 -0.004,-0.0136 -0.008,-0.0275 -0.007,-0.0417 -0.002,-0.008 -0.004,-0.0198 -0.004,-0.0289 l -0.0496,-0.0757 c -0.0167,-0.006 -0.0272,-0.0198 -0.038,-0.0363 -0.006,-0.0105 -0.0161,-0.015 -0.0244,-0.026 -0.0158,-0.008 -0.0371,-0.0482 -0.0674,-0.0681 -0.0173,-0.009 -0.0369,-0.0331 -0.0553,-0.0371 v 0 c -0.0136,-0.003 -0.0272,-0.005 -0.0394,-0.0119 -0.005,-10e-4 -0.009,-0.002 -0.0136,-0.004 -0.0519,-0.003 -0.1692,-0.007 -0.216,-0.0312 -0.0111,9e-4 -0.0411,-0.002 -0.0516,-0.006 -0.0278,0.002 -0.0244,0.004 -0.0493,-0.0114 -0.01,0.002 -0.0269,-5e-4 -0.036,-0.004 -0.0133,0.003 -0.0272,0.003 -0.0397,5e-4 -0.0108,0 -0.0213,-5e-4 -0.0326,-5e-4 -0.1298,0.0294 -0.2582,0.0195 -0.3937,0.003 -0.0142,10e-4 -0.0329,0.008 -0.0479,0.007 -0.007,0 -0.0153,0.002 -0.023,0.002 -0.009,0.003 -0.0176,0.004 -0.0258,0.004 l -0.0853,0.003 0.001,-0.002 z"
       style="fill:#231916;fill-opacity:1;fill-rule:evenodd;stroke:none"
       id="path232" />
    <path
       d="m 132.0216,598.9572 c 0.2177,0.0403 0.3955,0.1483 0.5758,0.2549 0.1116,0.066 0.229,0.1394 0.3529,0.1635 0.4096,0.0791 0.6885,-0.2917 0.5337,-0.6967 -0.1012,-0.2642 -0.2072,-0.5267 -0.3075,-0.7912 -0.0355,-0.093 -0.0607,-0.1893 -0.0995,-0.3121 0.1196,-0.0433 0.2199,-0.0845 0.3231,-0.1162 0.1058,-0.0329 0.2149,-0.0561 0.322,-0.0856 0.3102,-0.085 0.3756,-0.1454 0.3824,-0.3512 0.008,-0.2302 -0.1726,-0.4825 -0.3926,-0.555 -0.2525,-0.0831 -0.4776,-0.0363 -0.6789,0.1355 -0.1136,0.0963 -0.2281,0.1921 -0.3421,0.2882 -0.2443,-0.2857 -0.4771,-0.5504 -0.7016,-0.8217 -0.2032,-0.2458 -0.5916,-0.3135 -0.8637,-0.1409 -0.017,0.0105 -0.0323,0.0241 -0.0485,0.0363 -0.3472,0.2568 -0.3381,0.3452 0.0295,0.572 0.2577,0.1587 0.5074,0.3317 0.7518,0.5105 0.0946,0.0692 0.1652,0.1712 0.248,0.26 -0.0502,0.1196 -0.0992,0.2188 -0.1335,0.3228 -0.0635,0.1928 -0.0102,0.2662 0.1896,0.2705 0.1086,0.002 0.2177,-9e-4 0.3456,-10e-4 0.0558,0.2092 0.1068,0.4003 0.1545,0.5789 -0.146,0.1236 -0.2759,0.1349 -0.4184,0.0672 -0.0633,-0.0298 -0.1381,-0.078 -0.1973,-0.0664 -0.2838,0.0553 -0.3734,-0.142 -0.5097,-0.3274 -0.4096,-0.5559 -0.7384,-1.1559 -1.0539,-1.7665 -0.1338,-0.2591 -0.2934,-0.5054 -0.4522,-0.7506 -0.0527,-0.0817 -0.1349,-0.1463 -0.2108,-0.2101 -0.1012,-0.085 -0.2092,-0.0771 -0.2968,0.0196 -0.1148,0.1267 -0.2342,0.2525 -0.3252,0.3957 -0.0827,0.1304 -0.0958,0.2826 -0.034,0.4371 0.133,0.3314 0.3118,0.6386 0.58,0.8705 0.483,0.4184 0.8475,0.9187 1.1287,1.4873 0.0667,0.1341 0.1616,0.2546 0.2574,0.4031 -0.0578,0.0854 -0.1165,0.1763 -0.1794,0.2642 -0.0471,0.0652 -0.1106,0.1211 -0.1477,0.1914 -0.1134,0.214 -0.0235,0.4064 0.2115,0.4501 0.1389,0.0261 0.282,0.0264 0.4215,0.049 0.2948,0.0485 0.4898,0.2401 0.5607,0.5267 0.0249,0.1023 0.0147,0.1817 -0.0851,0.2291 -0.091,0.043 -0.1431,-0.009 -0.2038,-0.0752 -0.3373,-0.3634 -0.6038,-0.3951 -1.004,-0.1287 0.0652,0.1562 0.1307,0.313 0.1942,0.4649 -0.22,0.1605 -0.2245,0.1653 -0.3793,0.01 -0.1091,-0.1097 -0.2169,-0.1761 -0.3898,-0.0788 0.0168,0.1077 0.0374,0.2137 0.0482,0.3208 0.0111,0.1075 0.0119,0.2158 0.0167,0.3184 -0.1556,0.047 -0.2083,-0.0536 -0.2687,-0.1279 -0.0445,-0.0541 -0.0839,-0.117 -0.1066,-0.1825 -0.3095,-0.8858 -0.8455,-1.6546 -1.2778,-2.4766 -0.3101,-0.5899 -0.616,-1.1827 -0.9156,-1.7779 -0.2356,-0.4689 -0.4485,-0.9491 -0.6914,-1.414 -0.2052,-0.3931 -0.4385,-0.7715 -0.6619,-1.1551 -0.03,-0.0519 -0.07,-0.0986 -0.11,-0.1434 -0.2664,-0.2957 -0.3883,-0.2724 -0.5451,0.1001 -0.0235,0.0555 -0.0493,0.1133 -0.0876,0.1587 -0.2052,0.2415 -0.1763,0.5034 -0.0697,0.7702 0.1049,0.2625 0.2319,0.5173 0.3189,0.7852 0.0445,0.1377 0.1695,0.0703 0.2299,0.1425 0.1551,0.1863 0.3421,0.3521 0.466,0.5562 1.069,1.7637 2.1263,3.5345 3.189,5.3019 0.0734,0.1225 0.1298,0.2362 0.1205,0.3926 -0.0125,0.2132 0.153,0.3583 0.3087,0.457 0.119,0.0754 0.1936,0.1649 0.265,0.2738 0.2106,0.3206 0.4258,0.6381 0.6338,0.9598 0.0397,0.0612 0.0562,0.1375 0.1094,0.2735 -0.2035,-0.0799 -0.3421,-0.1303 -0.4773,-0.1885 -0.398,-0.1715 -0.7954,-0.3441 -1.1911,-0.5201 -0.1012,-0.0454 -0.1953,-0.1057 -0.2934,-0.1588 -0.419,-0.2267 -0.8527,-0.3143 -1.3096,-0.1233 -0.2809,0.1174 -0.3665,0.2518 -0.3509,0.5117 0.5459,0.1383 1.0998,0.2452 1.6304,0.4226 0.5298,0.1769 1.0644,0.3598 1.5928,0.6781 -0.3577,0.2304 -0.6729,0.4394 -0.9947,0.6383 -0.1581,0.0984 -0.2579,0.2251 -0.2627,0.4136 -0.003,0.1531 0.0793,0.2305 0.2285,0.1905 0.3563,-0.0958 0.7174,-0.0913 1.0814,-0.1029 0.2151,-0.007 0.4413,-0.0723 0.638,-0.1641 0.279,-0.1304 0.3257,-0.2968 0.2189,-0.6381 0.1026,0.034 0.1834,0.0516 0.2562,0.0867 0.2455,0.1177 0.4822,0.2552 0.7328,0.3603 0.3926,0.1653 0.5298,0.0386 0.642,-0.254 0.0216,-0.0564 0.0511,-0.1102 0.0715,-0.1672 0.1077,-0.3044 -0.0142,-0.5476 -0.3226,-0.6352 -0.2894,-0.0822 -0.5828,-0.1514 -0.8697,-0.2416 -0.1,-0.0311 -0.2134,-0.0881 -0.2727,-0.1686 -0.4325,-0.5842 -0.8532,-1.1772 -1.2758,-1.7685 -0.0233,-0.0324 -0.0341,-0.0729 -0.0539,-0.1174 0.0408,-0.0556 0.0762,-0.1182 0.1253,-0.167 0.1437,-0.1425 0.2174,-0.1315 0.3305,0.0346 0.0737,0.1083 0.146,0.2191 0.2307,0.3186 0.3238,0.3821 0.6018,0.7847 0.6197,1.3096 0.1891,0.1182 0.3648,0.0562 0.5202,-0.0365 0.0595,-0.0355 0.1094,-0.1548 0.0995,-0.2265 -0.0292,-0.2064 -0.0916,-0.4079 -0.1423,-0.6183 0.204,-0.1459 0.2301,-0.1542 0.3923,0.004 0.1221,0.1188 0.2426,0.2489 0.3254,0.3955 0.0686,0.1218 0.1528,0.1468 0.269,0.1397 0.2163,-0.0139 0.3994,-0.1735 0.4819,-0.4051 0.0782,-0.2182 -0.01,-0.3719 -0.1795,-0.4977 -0.1621,-0.1202 -0.3143,-0.2586 -0.4901,-0.3544 -0.3532,-0.1936 -0.5703,-0.506 -0.782,-0.8277 -0.0213,-0.032 -0.0278,-0.074 -0.0434,-0.1185 0.121,-0.1176 0.2327,-0.1091 0.337,0.008 0.0941,0.1058 0.1724,0.2277 0.2753,0.3229 0.0938,0.0867 0.2035,0.1709 0.3214,0.2129 0.1806,0.0638 0.2979,-0.021 0.3716,-0.2035 0.0443,-0.1089 0.1004,-0.2155 0.1681,-0.3113 0.1182,-0.1661 0.1163,-0.3067 -0.0442,-0.4513 -0.1199,-0.1074 -0.2574,-0.1958 -0.3835,-0.2968 -0.1965,-0.1573 -0.2067,-0.1967 -0.1313,-0.4362 0.0766,-0.2432 0.0397,-0.3487 -0.1848,-0.4748 -0.1936,-0.1086 -0.3963,-0.2018 -0.5904,-0.3096 -0.2285,-0.1269 -0.3563,-0.318 -0.3938,-0.5808 z m -0.4212,2.6805 c 0.1196,0.2126 0.2327,0.3914 0.3198,0.5822 0.0252,0.0553 -9e-4,0.1735 -0.0457,0.2095 -0.0385,0.0306 -0.1536,0.006 -0.208,-0.032 -0.1985,-0.1387 -0.2793,-0.3589 -0.3853,-0.5845 0.1024,-0.0565 0.1891,-0.1038 0.3192,-0.1752 z m -1.228,-1.7703 c -0.0408,-0.1553 -0.0683,-0.2591 -0.0858,-0.3251 0.0742,-0.1922 0.1998,-0.362 0.1834,-0.5165 -0.0188,-0.1723 -0.1415,-0.3532 -0.264,-0.4901 -0.227,-0.2534 -0.5306,-0.3047 -0.985,0.0587 0.1355,0.5899 0.4672,0.9686 1.1514,1.273"
       style="fill:#231916;fill-opacity:1;fill-rule:evenodd;stroke:none"
       id="path236" />
    <path
       d="m 115.2045,602.1048 c 0.0301,0.002 0.019,0.0295 0.1503,0.008 0.1057,-0.0508 0.1105,-0.0431 0.218,-0.072 0.1071,-0.0287 0.3033,-0.1732 0.4878,-0.3011 0.1848,-0.1281 0.4433,-0.46 0.5145,-0.7461 0.0714,-0.2857 0.0521,-0.6406 -0.0116,-0.8903 -0.0156,-0.0613 -0.1097,-0.2909 -0.1775,-0.5825 -0.0782,-0.3374 -0.1375,-0.7648 -0.2537,-1.2204 -0.0567,-0.2216 -0.1562,-0.4844 -0.2083,-0.691 -0.0576,-0.2291 -0.0865,-0.4587 -0.133,-0.6325 -0.0547,-0.2058 -0.1196,-0.3628 -0.1431,-0.4348 -0.1307,-0.3985 -0.2965,-0.9414 -0.4011,-1.0134 0,0 0.0394,0.7115 0.0638,1.2467 0.0107,0.2316 0.0187,0.4303 0.0195,0.5238 -0.008,0.2722 0.0527,0.5582 0.0567,0.8261 0.0113,0.7279 -0.008,1.4351 -0.0142,2.2184 0.01,0.2888 -0.0289,0.5459 -0.0844,0.8209 -0.0562,0.2772 -0.2146,0.8382 -0.0837,0.9402 z m 4.055,-8.363 0.2857,-0.2997 0.0224,-0.0138 c 0.1066,-0.1664 0.2067,-0.3691 0.2699,-0.5205 0.034,-0.0813 0.0833,-0.1332 0.1156,-0.1695 0.0457,-0.0507 0.1046,-0.0238 0.2328,0.0244 0.0691,0.0261 0.1312,-0.005 0.1927,0.003 0.0811,0.0113 0.1372,-0.0309 0.1675,-0.0556 0.036,-0.0292 0.1404,-0.1122 0.1715,-0.1993 0.038,-0.1065 0.0403,-0.225 0.0533,-0.2945 0.0236,-0.127 0.0173,-0.216 0.0173,-0.216 -0.004,-0.1686 -0.004,-0.2514 0.023,-0.4031 0.0363,-0.2055 0.0314,-0.3585 0.0314,-0.3585 0.0817,-0.0307 0.1285,0.0232 0.1863,0.0793 0.1519,0.1471 0.2732,0.451 0.2732,0.451 0.0848,0.2789 0.2019,0.2909 0.2832,0.3501 0.0794,0.0573 0.3861,10e-4 0.5494,-0.1315 0.1769,-0.144 0.1777,-0.3915 0.1173,-0.4771 -0.1627,-0.2307 -0.3189,-0.4008 -0.4853,-0.6313 -0.121,-0.1669 -0.2525,-0.3937 -0.3719,-0.5635 -0.0102,-0.0377 -0.2012,-0.1922 -0.2469,-0.4201 -0.0396,-0.1993 -0.3659,-0.3577 -0.4654,-0.3365 -0.186,0.04 -0.6698,0.1644 -0.737,0.364 -0.055,0.1636 -0.1341,0.4405 -0.1542,0.4847 -0.0247,0.0544 -0.006,0.5258 -0.1321,0.794 -0.0836,0.178 -0.1514,0.2838 -0.1911,0.4005 -0.0266,0.0786 -0.0535,0.0976 -0.1145,0.1163 0,0 -0.1103,-0.007 -0.2364,-0.0165 -0.0799,-0.006 -0.1709,-0.0836 -0.2551,-0.0779 -0.0533,0.004 -0.1894,0 -0.2308,0.0139 -0.0527,0.0175 -0.0714,0.0768 -0.0158,0.1732 0.0167,0.0289 0.0292,0.1159 0.0584,0.1499 0.0255,0.0301 0.0578,0.0649 0.0776,0.0882 0.0134,0.0158 0.0482,0.0501 0.0584,0.0609 0.129,0.1344 0.3121,0.2239 0.3121,0.2239 l -0.0142,0.0386 c -0.0235,0.0519 -0.0351,0.0876 -0.0912,0.1454 -0.0434,0.0445 -0.1392,0.1157 -0.2172,0.2069 -0.064,0.0746 -0.2676,0.4411 -0.3744,0.6804 l -0.1457,0.2114 3e-4,3e-4 -0.002,0.003 -0.0644,-0.0757 c -0.0504,-0.0898 -0.0499,-0.2296 -0.142,-0.2996 0.0125,-0.0184 -0.1148,-0.1712 -0.0859,-0.2129 l -0.0278,-0.0986 -0.0138,-0.01 c 0.0229,-0.0468 -0.008,-0.0695 10e-4,-0.1157 -0.0306,-0.021 -0.2469,-0.788 -0.2764,-0.7452 v 0 c -0.002,-0.0119 -0.004,-0.0213 -0.003,-0.0321 -0.0922,-0.0773 -0.1798,-0.0929 -0.2954,-0.1236 -0.0247,0.0355 -0.1196,-0.0263 -0.1599,-0.0422 l -0.0677,0.0346 -0.003,-0.002 c -0.2611,0.18 -0.3249,0.4726 -0.2971,0.7586 0.007,0.005 0.0417,0.2319 0.0346,0.2568 0.0204,0.0624 -0.0474,0.0799 -0.0116,0.2251 l -6e-4,8e-4 c 0.0263,0.0683 0.0487,0.1783 0.0263,0.25 l -0.001,0.0513 c 0.0224,0.0735 0.0278,0.1378 -0.003,0.2308 0.007,0.0295 9e-4,0.0538 0.0218,0.0791 -0.006,0.0139 0.0406,0.2222 0.0465,0.265 0.008,0.0754 0.0321,0.1905 0.0482,0.2665 0.0233,0.0158 0.0442,0.2273 0.0493,0.2667 0.003,0.002 0.007,0.4241 0.009,0.472 l 0.002,0.0221 0.034,0.1196 c -0.0309,0.049 0.0462,0.2701 0.0437,0.2738 0.006,0.0321 0.0391,0.2804 0.0388,0.2809 l 0.017,0.0961 c -0.0147,0.0298 -0.011,0.0581 -0.0258,0.0876 -0.0142,0.0281 -0.0468,0.0576 -0.0609,0.0856 l -0.0788,-0.0544 c 0.026,-0.0374 -0.063,-0.1596 -0.1032,-0.1874 0.005,-0.006 -0.1545,-0.3398 -0.2061,-0.3755 0.0125,-0.0182 -0.0961,-0.2991 -0.1276,-0.3209 0.01,-0.0139 -0.2128,-0.3657 -0.1774,-0.4173 -0.0125,-0.0544 -0.1466,-0.2934 -0.1429,-0.2988 -0.0504,-0.0416 -0.1451,-0.2953 -0.1236,-0.3262 -0.0138,-0.0304 -0.0153,-0.0899 -0.0419,-0.108 l 0.003,-0.005 c -0.0227,-0.0423 -0.1086,-0.1798 -0.0899,-0.207 -0.017,-0.0283 -0.0116,-0.089 -0.0408,-0.1094 l 0.002,-0.002 c -0.036,-0.1165 -0.1029,-0.1885 -0.1205,-0.3123 l -0.009,-0.006 0.005,-0.008 -0.028,-0.078 c -0.017,-0.0929 -0.0749,-0.2386 -0.1072,-0.3526 l -0.007,-0.0371 c -0.0133,-0.0448 -0.0666,-0.2404 -0.0493,-0.2659 -0.017,-0.0286 -0.007,-0.0904 -0.0388,-0.1123 l 0.003,-0.004 c -0.0394,-0.2137 -0.2458,-0.5638 -0.2727,-0.7251 v 0 c -0.0218,-0.1193 -0.3923,-0.4051 -0.5071,-0.4215 -0.005,0.007 -0.1834,-0.0261 -0.2098,-0.0332 -0.004,0.006 -0.25,-0.0771 -0.2917,-0.083 -0.001,0.002 -0.5167,-0.1528 -0.5864,-0.1616 -0.01,0.0144 -0.1982,-0.0638 -0.2237,0.0541 l -0.0584,0.2713 c 0.0374,0.0502 0.0352,0.3453 0.0865,0.3804 l -0.003,0.005 c 0.0119,0.0482 0.1199,0.3317 0.1165,0.3371 0.0151,0.0303 0.116,0.1689 0.1089,0.1791 l 0.0346,0.042 5e-4,-9e-4 c 0.1537,0.1401 1.3442,2.1745 1.344,2.1748 0.1275,0.1601 0.2245,0.5034 0.3886,0.6168 l -0.004,0.006 c 0.0232,0.0501 0.2846,0.4303 0.2826,0.4331 0.0264,0.0624 0.2826,0.4334 0.2804,0.4365 0.028,0.0363 0.1921,0.2271 0.1814,0.243 0.1139,0.0785 0.1238,0.2936 0.218,0.3585 l -0.003,0.005 c 0.0292,0.0575 0.0491,0.1434 0.1063,0.1831 l -0.003,0.005 c 0.0244,0.0355 0.0494,0.0842 0.0221,0.1248 l 0.005,0.004 -0.335,0.4859 c 0.0161,0.0312 0.1312,0.3155 0.129,0.3189 0.0127,0.0462 0.4067,0.7152 0.4254,0.7282 -0.0504,0.009 0.08,0.0326 0.1163,0.0748 l 0.0776,-0.0422 c 0.0133,-0.0315 0.0479,-0.0422 0.0669,-0.0697 0.0179,0.0124 0.078,-0.0859 0.091,-0.1026 l 0.004,0.0215 c -0.005,-0.0255 0.197,-0.3419 0.2316,-0.3923 l 0.0595,0.0825 c 0.0845,0.0252 0.5426,0.4331 0.5105,0.4796 0.1928,0.1329 0.1491,0.1023 0.3444,0.1261 l 0.1126,-0.0782 c 0.2766,-0.1483 0.0343,-0.4226 0.0601,-0.4603 -0.021,-0.0627 -0.0255,-0.2146 -0.0655,-0.2421 0.0269,-0.0391 -0.0539,-0.3867 -0.0732,-0.4 l 0.007,-0.0105 -0.2327,-0.4175 -9e-4,-6e-4 c 0.008,-0.0108 -0.0419,-0.3739 -0.0731,-0.3997 0.009,-0.0125 0.0805,-0.5556 0.205,-0.7359 -0.002,-10e-4 0.0932,-0.1576 0.1012,-0.1706 l 0.1394,0.3036 v 3e-4 c 0.1117,0.0771 0.1074,0.4005 0.2234,0.4807 -0.023,0.0335 0.3379,0.2982 0.3231,0.3008 0.2608,0.1032 0.6625,0.1553 0.8479,-0.1134 0.006,0.034 0.1244,-0.2183 0.0459,-0.2727 0.021,-0.0303 -0.003,-0.0663 -0.007,-0.1207 l 0.001,-0.6129 c -0.005,-0.003 3e-4,-0.1012 0.007,-0.1117 -0.0235,-0.0164 -0.0425,-0.3376 -0.0445,-0.4 l -0.004,-0.119 c -0.0218,-0.0153 -0.003,-0.2778 -0.004,-0.343 -0.0493,-0.1191 -0.0538,-0.1882 -0.1057,-0.2806 -0.0471,-0.0839 -0.146,-0.1625 -0.2259,-0.2654 -0.1146,-0.1964 -0.1687,-0.2097 -0.3436,-0.3293 z m 0.013,1.6398 c -0.0218,-0.2064 0.0236,-0.2883 -0.0374,-0.4516 0.032,-0.0462 -0.0819,-0.2868 -0.1142,-0.3401 l -0.001,-0.007 -0.1508,-0.11 -0.2849,0.413 c 0.0159,0.0111 0.009,0.0712 0.0674,0.1588 l 0.002,-0.006 0.1446,0.3804 0.0916,0.1477 -9e-4,-10e-4 0.0663,0.1321 0.0788,0.0541 0.1021,-0.0473 c -0.01,-0.0961 0.0232,-0.2067 0.0368,-0.3226 z m -1.8836,-2.135 c -0.0751,0.1542 -0.0246,0.5499 -0.032,0.6967 -0.004,0.1086 0.0626,0.3311 0.0731,0.4 l 10e-4,8e-4 c 0.01,0.0598 0.0851,0.3796 0.0718,0.3989 l 0.034,0.0425 0.0448,0.0119 0.0547,-0.068 0.1633,-0.2475 c 0.0436,-0.1006 0.142,-0.1817 0.0297,-0.3733 -0.0164,-0.042 -0.007,-0.1063 -0.0728,-0.239 -0.003,-0.002 -0.0533,-0.0944 -0.1024,-0.2083 -0.0317,-0.074 -0.0535,-0.1559 -0.0944,-0.2328 -0.0399,-0.0751 -0.0824,-0.1434 -0.1233,-0.1885 -0.028,-0.0175 -0.0357,-0.0184 -0.0476,0.007"
       style="fill:#231916;fill-opacity:1;fill-rule:evenodd;stroke:none"
       id="path240" />
    <path
       d="m 123.6178,577.4573 v 0.555 c 0.3152,0.005 0.5289,0.0462 0.6414,0.1236 0.1126,0.0777 0.169,0.2197 0.169,0.4255 v 2.4117 c 0,0.2222 -0.0473,0.3665 -0.1409,0.4337 -0.0933,0.0683 -0.3161,0.1052 -0.6695,0.1123 v 0.5201 c 0.3194,0.004 0.6026,0.0289 0.8509,0.0729 0.2481,0.0439 0.4683,0.2729 0.6619,0.3608 h 0.6171 v -3.9115 c 0,-0.2055 0.0587,-0.3481 0.1746,-0.4255 0.1168,-0.0774 0.3399,-0.119 0.6699,-0.1236 v -0.555 z"
       style="fill:#231916;fill-opacity:1;fill-rule:evenodd;stroke:none"
       id="path242" />
    <path
       d="m 133.4214,579.5555 c -0.2169,-0.1341 -0.4388,-0.2333 -0.6647,-0.2962 -0.2248,-0.0641 -0.4658,-0.0956 -0.7226,-0.0956 -0.5709,0 -1.0378,0.1457 -1.3992,0.436 -0.3625,0.2903 -0.5431,0.6656 -0.5431,1.1248 0,0.4989 0.2129,0.9034 0.6381,1.2121 0.4255,0.3101 0.9833,0.4652 1.6721,0.4652 0.76,0 1.3459,-0.2053 1.7578,-0.6166 0.4133,-0.4104 0.6194,-0.9955 0.6194,-1.7532 0,-0.8147 -0.2276,-1.4477 -0.6837,-1.8986 -0.4561,-0.451 -1.0942,-0.6761 -1.9168,-0.6761 -0.5338,0 -0.9712,0.091 -1.315,0.2716 -0.3436,0.1805 -0.5151,0.4011 -0.5151,0.661 0,0.1618 0.0562,0.29 0.1684,0.3858 0.1125,0.0955 0.2622,0.1431 0.451,0.1431 0.2945,0 0.5029,-0.1783 0.6219,-0.536 0.0165,-0.0456 0.0284,-0.0794 0.0363,-0.0992 0.0309,-0.0978 0.0816,-0.1641 0.15,-0.2004 0.0694,-0.0349 0.1856,-0.0525 0.3478,-0.0525 0.4025,0 0.7194,0.1353 0.9496,0.4057 0.2316,0.2704 0.3478,0.6434 0.3478,1.1191 z m -0.0709,1.2155 c 0,0.3078 -0.0791,0.5457 -0.2367,0.7135 -0.1579,0.1689 -0.3812,0.2528 -0.6689,0.2528 -0.3008,0 -0.5338,-0.0827 -0.6996,-0.2494 -0.1662,-0.1656 -0.2489,-0.4008 -0.2489,-0.7027 0,-0.294 0.0802,-0.5259 0.2392,-0.6959 0.1596,-0.169 0.3762,-0.2543 0.6506,-0.2543 0.3166,0 0.5564,0.0794 0.7194,0.239 0.1633,0.1598 0.2449,0.3917 0.2449,0.697"
       style="fill:#231916;fill-opacity:1;fill-rule:nonzero;stroke:none"
       id="path244" />
    <path
       d="m 150.08,579.5555 c -0.2168,-0.1341 -0.4388,-0.2333 -0.6647,-0.2962 -0.2248,-0.0641 -0.4657,-0.0956 -0.7225,-0.0956 -0.5712,0 -1.0378,0.1457 -1.3992,0.436 -0.3626,0.2903 -0.5431,0.6656 -0.5431,1.1248 0,0.4989 0.2128,0.9034 0.638,1.2121 0.4255,0.3101 0.9834,0.4652 1.6722,0.4652 0.76,0 1.3456,-0.2053 1.7575,-0.6166 0.4135,-0.4104 0.6193,-0.9955 0.6193,-1.7532 0,-0.8147 -0.2273,-1.4477 -0.6834,-1.8986 -0.4561,-0.451 -1.0942,-0.6761 -1.9168,-0.6761 -0.5337,0 -0.9714,0.091 -1.3153,0.2716 -0.3435,0.1805 -0.5147,0.4011 -0.5147,0.661 0,0.1618 0.0561,0.29 0.1684,0.3858 0.1125,0.0955 0.2622,0.1431 0.4509,0.1431 0.2943,0 0.5029,-0.1783 0.622,-0.536 0.0161,-0.0456 0.0283,-0.0794 0.036,-0.0992 0.0309,-0.0978 0.0819,-0.1641 0.1502,-0.2004 0.0695,-0.0349 0.1857,-0.0525 0.3475,-0.0525 0.4028,0 0.7197,0.1353 0.9496,0.4057 0.2316,0.2704 0.3481,0.6434 0.3481,1.1191 z m -0.0708,1.2155 c 0,0.3078 -0.0791,0.5457 -0.2367,0.7135 -0.1579,0.1689 -0.3813,0.2528 -0.669,0.2528 -0.3008,0 -0.5338,-0.0827 -0.6999,-0.2494 -0.1658,-0.1656 -0.2486,-0.4008 -0.2486,-0.7027 0,-0.294 0.0802,-0.5259 0.2393,-0.6959 0.1596,-0.169 0.3761,-0.2543 0.6502,-0.2543 0.3169,0 0.5568,0.0794 0.7198,0.239 0.1632,0.1598 0.2449,0.3917 0.2449,0.697"
       style="fill:#231916;fill-opacity:1;fill-rule:nonzero;stroke:none"
       id="path246" />
    <path
       d="m 138.2797,577.4573 c 0.3917,1.601 0.9459,1.7708 2.3397,2.3258 0.6871,0.2738 0.8986,0.7983 0.8986,1.2161 0,0.2528 -0.1554,0.4479 -0.3056,0.5865 -0.1499,0.1383 -0.3611,0.2083 -0.633,0.2083 -0.2137,0 -0.3991,-0.0448 -0.5544,-0.1326 -0.1556,-0.0876 -0.2327,-0.1866 -0.2327,-0.2937 0,-0.0167 0.0323,-0.0805 0.1,-0.1925 0.0675,-0.112 0.1015,-0.2253 0.1015,-0.3407 0,-0.159 -0.0621,-0.288 -0.1882,-0.3844 -0.1256,-0.0961 -0.292,-0.1443 -0.5018,-0.1443 -0.2029,0 -0.3639,0.0615 -0.4816,0.1829 -0.1176,0.123 -0.1757,0.2891 -0.1757,0.4974 0,1.0248 1.3365,1.4871 2.1447,1.4871 0.663,0 1.2773,-0.1658 1.6738,-0.4371 0.7736,-0.5295 0.7974,-1.8845 -0.0603,-2.3681 -0.6985,-0.3937 -2.6833,-0.3869 -2.7117,-1.0655 -0.007,-0.1616 0.0496,-0.3611 0.4454,-0.3456 0.3495,0.0139 1.8635,0.0227 2.1206,0.2203 0.1601,0.1233 0.2704,0.3331 0.3948,0.5978 l 0.4896,-8e-4 0.1074,-1.6169 z"
       style="fill:#231916;fill-opacity:1;fill-rule:evenodd;stroke:none"
       id="path248" />
    <path
       d="m 163.6832,584.5226 c 0.0369,-0.0771 0.0777,-0.1465 0.1202,-0.2063 0.0439,-0.0607 0.0938,-0.1154 0.1502,-0.1627 0.0873,-0.0777 0.186,-0.1403 0.2971,-0.1857 0.1103,-0.047 0.2302,-0.0882 0.3572,-0.1242 0.2647,-0.0722 0.5502,-0.1454 0.8566,-0.2202 0.3067,-0.0746 0.6423,-0.1548 1.0091,-0.2398 0.2336,-0.0573 0.4074,-0.0825 0.5193,-0.0751 0.1126,0.006 0.2948,0.0533 0.546,0.1389 l 0.68,0.2318 c 0.0805,0.0278 0.1457,0.0667 0.1965,0.1174 0.0504,0.0516 0.0805,0.1259 0.0893,0.2236 0.003,0.0434 -0.004,0.1307 -0.021,0.262 -0.0159,0.1318 -0.0318,0.2262 -0.0474,0.2863 l 0.2631,0.0895 0.9133,-2.6478 -0.2627,-0.0896 c -0.0261,0.0604 -0.0664,0.1477 -0.1194,0.2602 -0.0544,0.1123 -0.0986,0.1883 -0.1332,0.2288 -0.0641,0.0706 -0.1307,0.1106 -0.2016,0.121 -0.07,0.009 -0.1476,-5e-4 -0.233,-0.0297 l -0.845,-0.2883 c -0.0737,-0.0252 -0.1389,-0.0488 -0.1947,-0.0703 -0.0556,-0.0215 -0.1001,-0.0456 -0.1338,-0.0712 -0.0371,-0.0306 -0.0831,-0.0771 -0.1355,-0.1372 -0.0539,-0.0606 -0.1233,-0.1394 -0.2072,-0.2361 -0.2446,-0.2769 -0.4754,-0.5414 -0.6928,-0.7962 -0.2163,-0.2543 -0.4192,-0.4952 -0.6075,-0.7223 -0.098,-0.1193 -0.1706,-0.2299 -0.2202,-0.3328 -0.0479,-0.1035 -0.0822,-0.2021 -0.1015,-0.2996 -0.0133,-0.0726 -0.0136,-0.1545 -0.002,-0.2469 0.0125,-0.0918 0.0275,-0.1738 0.0474,-0.2452 l -0.2631,-0.0896 -0.9419,2.7304 0.263,0.0895 c 0.0933,-0.2486 0.1687,-0.4113 0.2265,-0.4889 0.0592,-0.0786 0.1137,-0.1086 0.163,-0.0916 0.0244,0.008 0.068,0.0422 0.1318,0.1001 0.0627,0.0572 0.1576,0.155 0.2849,0.2905 0.1199,0.1267 0.282,0.3064 0.4884,0.5409 0.2064,0.2344 0.4465,0.5136 0.7194,0.8384 -0.8243,0.1942 -1.3989,0.3249 -1.7237,0.3921 -0.3234,0.0677 -0.5156,0.0907 -0.5766,0.0697 -0.0774,-0.0264 -0.1188,-0.093 -0.1281,-0.2001 -0.008,-0.1077 0.019,-0.2676 0.0796,-0.4813 l -0.2627,-0.0896 -0.6098,1.7674 0.2628,0.0898 z m -17.9949,-39.6589 c -0.0669,-0.0204 -0.1618,-0.055 -0.2849,-0.1049 -0.1244,-0.049 -0.2236,-0.1125 -0.2982,-0.1888 -0.0782,-0.0757 -0.121,-0.1927 -0.1272,-0.3506 -0.008,-0.1571 0.0192,-0.3884 0.0782,-0.6888 l 0.3606,-1.8375 c 0.1063,-0.5405 0.007,-1.0111 -0.2977,-1.4125 -0.3047,-0.4011 -0.7617,-0.6619 -1.3688,-0.7795 -0.709,-0.1375 -1.2895,-0.0853 -1.7394,0.157 -0.451,0.2421 -0.7319,0.648 -0.8436,1.2164 l -0.4957,2.5262 c -0.0159,0.0811 -0.0454,0.1483 -0.0879,0.2004 -0.0434,0.0508 -0.1134,0.0916 -0.2112,0.1208 -0.0669,0.019 -0.1457,0.0283 -0.2381,0.0303 -0.0921,6e-4 -0.1661,-3e-4 -0.2239,-0.004 l -0.0531,0.2712 2.5974,0.5049 0.0533,-0.2713 c -0.0745,-0.0193 -0.1485,-0.0425 -0.2233,-0.0706 -0.0749,-0.0277 -0.1491,-0.062 -0.2245,-0.1029 -0.0828,-0.0456 -0.1336,-0.1034 -0.152,-0.1737 -0.017,-0.0715 -0.0181,-0.1477 -0.002,-0.2291 l 0.4896,-2.4928 c 0.0961,-0.4895 0.275,-0.8257 0.5363,-1.0057 0.2625,-0.18 0.6007,-0.2302 1.0151,-0.1497 0.4076,0.0791 0.7033,0.264 0.887,0.5551 0.1834,0.2911 0.2284,0.6766 0.1346,1.1548 l -0.3288,1.6744 c -0.0584,0.2974 -0.1228,0.5162 -0.1919,0.6554 -0.0695,0.1395 -0.1539,0.2333 -0.2506,0.2823 -0.0706,0.038 -0.1851,0.0641 -0.3441,0.0777 -0.1591,0.0122 -0.269,0.0167 -0.332,0.0145 l -0.0544,0.2783 2.1668,0.4212 0.0547,-0.2783 z m 6.3907,2.8125 c -0.0578,-0.0346 -0.1383,-0.0864 -0.2418,-0.1553 -0.104,-0.068 -0.1862,-0.1568 -0.2457,-0.2656 -0.0525,-0.095 -0.063,-0.22 -0.0312,-0.3776 0.0323,-0.1559 0.112,-0.3708 0.2392,-0.6443 l 1.5234,-3.2718 -0.5851,-0.2698 -4.4907,2.2232 0.999,-2.1461 c 0.1239,-0.2656 0.2358,-0.4601 0.3356,-0.5823 0.1009,-0.1216 0.2061,-0.1975 0.3155,-0.2245 0.0805,-0.0204 0.193,-0.0192 0.3373,0.002 0.1443,0.0224 0.2571,0.0451 0.3385,0.0664 l 0.1168,-0.2506 -1.984,-0.9145 -0.1165,0.2506 c 0.0808,0.0454 0.1698,0.1052 0.2676,0.1809 0.0972,0.0742 0.1709,0.155 0.22,0.2403 0.0547,0.1015 0.0688,0.2214 0.0422,0.3626 -0.0275,0.1397 -0.1106,0.3577 -0.2492,0.6556 l -1.0091,2.1683 c -0.0502,0.1077 -0.1145,0.2023 -0.1922,0.2826 -0.0774,0.0805 -0.1678,0.1389 -0.2704,0.1746 -0.1094,0.0391 -0.2214,0.057 -0.3391,0.0533 -0.1173,-0.002 -0.2432,-0.0199 -0.3778,-0.0542 l -0.1168,0.2509 1.734,0.7994 3.9336,-1.9474 -0.8082,1.7362 c -0.1281,0.2758 -0.2429,0.4728 -0.3418,0.5902 -0.0992,0.1184 -0.2044,0.1913 -0.315,0.2179 -0.0864,0.0216 -0.1989,0.0205 -0.3395,-2e-4 -0.1392,-0.0216 -0.2501,-0.0431 -0.3325,-0.0652 l -0.1137,0.2443 1.984,0.9142 z m 5.7748,-1.8371 -2.3086,-1.5772 -0.1573,0.2276 c 0.0505,0.0405 0.1239,0.0995 0.2208,0.1775 0.0975,0.0771 0.1596,0.1369 0.1877,0.1797 0.0524,0.0782 0.0748,0.1511 0.0689,0.2174 -0.006,0.0649 -0.0363,0.1358 -0.0873,0.2095 l -2.0331,2.9446 c -0.0462,0.0669 -0.1,0.1171 -0.1595,0.1497 -0.0601,0.0337 -0.1387,0.0405 -0.2345,0.0207 -0.0601,-0.0117 -0.1431,-0.0389 -0.2494,-0.0822 -0.1058,-0.0414 -0.1948,-0.0817 -0.2668,-0.1191 l -0.1573,0.2279 2.3086,1.5769 0.1573,-0.2276 c -0.0542,-0.0459 -0.1219,-0.104 -0.2027,-0.1755 -0.0799,-0.0703 -0.144,-0.1363 -0.1911,-0.1964 -0.0584,-0.0782 -0.0827,-0.1522 -0.0705,-0.2231 0.0119,-0.0711 0.0411,-0.1412 0.0881,-0.2089 l 2.0316,-2.9426 c 0.0482,-0.0698 0.1029,-0.1208 0.1633,-0.1531 0.0618,-0.0315 0.1403,-0.038 0.2358,-0.0182 0.0528,0.009 0.1327,0.0392 0.2381,0.0879 0.1072,0.0479 0.1934,0.0921 0.2605,0.1321 z m 2.1486,8.5983 c -0.0504,-0.0598 -0.0949,-0.1219 -0.1298,-0.1868 -0.0357,-0.0657 -0.0646,-0.14 -0.0879,-0.2256 -0.0309,-0.1137 -0.0428,-0.2138 -0.0348,-0.3013 0.008,-0.0874 0.0348,-0.1922 0.0793,-0.315 0.0627,-0.1669 0.1574,-0.4093 0.2835,-0.7262 0.1267,-0.3164 0.2707,-0.6772 0.4314,-1.0811 0.1454,-0.3629 0.3062,-0.758 0.4822,-1.1878 0.1769,-0.4288 0.3464,-0.8396 0.508,-1.2325 l -0.5114,-0.5011 c -0.8099,0.3461 -1.6336,0.6973 -2.471,1.0539 -0.8373,0.3563 -1.4207,0.6012 -1.7515,0.7364 -0.1227,0.0465 -0.2242,0.0729 -0.3036,0.0803 -0.0782,0.006 -0.1808,-0.006 -0.3053,-0.0372 -0.0895,-0.0252 -0.1624,-0.0521 -0.2185,-0.0833 -0.057,-0.0304 -0.1264,-0.0763 -0.2095,-0.1375 l -0.195,0.197 1.9528,1.914 0.1899,-0.1917 c -0.1599,-0.2009 -0.2602,-0.3452 -0.3013,-0.4331 -0.0403,-0.087 -0.0423,-0.1505 -0.006,-0.1877 0.0187,-0.0187 0.0419,-0.0351 0.0677,-0.051 0.0267,-0.0147 0.0644,-0.0337 0.1106,-0.0581 0.2018,-0.0949 0.5403,-0.2412 1.0162,-0.4382 0.4759,-0.1973 1.1965,-0.5032 2.1592,-0.9187 -0.2452,0.5879 -0.4547,1.082 -0.6282,1.4833 -0.1738,0.4017 -0.3268,0.7566 -0.4618,1.0636 -0.0643,0.1497 -0.1289,0.2854 -0.1944,0.4068 -0.0644,0.1204 -0.1208,0.2046 -0.1678,0.2523 -0.0528,0.0532 -0.1372,0.0609 -0.2515,0.0204 -0.1148,-0.0411 -0.2863,-0.1565 -0.5153,-0.3484 l -0.1998,0.2021 1.4632,1.434 0.2001,-0.2018 z m 3.5297,3.7973 -0.1454,-0.2358 c -0.2004,0.0411 -0.4294,0.0428 -0.6863,0.002 -0.2573,-0.0397 -0.4439,-0.1222 -0.5615,-0.2435 -0.0513,-0.0531 -0.1128,-0.1319 -0.1823,-0.2376 -0.0694,-0.1054 -0.1258,-0.1947 -0.1692,-0.265 l -0.3844,-0.6231 1.6702,-1.0179 0.2727,0.4422 c 0.0689,0.1117 0.1179,0.2211 0.148,0.328 0.0292,0.1071 0.0292,0.2211 2e-4,0.341 -0.0181,0.0751 -0.072,0.1732 -0.1598,0.2922 -0.0899,0.1185 -0.1735,0.2123 -0.2517,0.2801 l 0.1451,0.2356 1.8011,-1.0979 -0.1454,-0.2356 c -0.0927,0.0397 -0.2188,0.0737 -0.3776,0.1038 -0.1596,0.0289 -0.2781,0.0357 -0.3532,0.0204 -0.1145,-0.0213 -0.2134,-0.0703 -0.2965,-0.1449 -0.0842,-0.0737 -0.1618,-0.1698 -0.2361,-0.2899 l -0.2727,-0.4422 1.2464,-0.7597 c 0.1307,-0.0797 0.2392,-0.133 0.3274,-0.1596 0.0882,-0.0284 0.1687,-0.0275 0.2418,3e-4 0.0694,0.0272 0.138,0.0807 0.2038,0.1615 0.0666,0.0803 0.1466,0.1965 0.2404,0.3484 0.0434,0.0703 0.0947,0.1556 0.1536,0.256 0.0593,0.1006 0.1066,0.191 0.142,0.2718 0.0428,0.0904 0.0763,0.1797 0.1015,0.2668 0.0255,0.0853 0.0292,0.1584 0.0131,0.2179 -0.0397,0.1579 -0.125,0.3606 -0.2552,0.6061 -0.1292,0.2469 -0.2327,0.4192 -0.3109,0.5196 l 0.1375,0.2231 1.2957,-0.902 -2.4886,-4.0354 -0.2367,0.1446 c 0.0309,0.0592 0.0698,0.1406 0.1188,0.2457 0.0476,0.1049 0.0749,0.182 0.0839,0.2333 0.0148,0.0961 0.006,0.1726 -0.0269,0.2299 -0.034,0.0561 -0.089,0.1083 -0.1661,0.1551 l -3.047,1.8572 c -0.0737,0.0451 -0.1409,0.0703 -0.2021,0.0777 -0.0618,0.006 -0.1375,-0.0213 -0.2282,-0.0828 -0.0575,-0.0374 -0.1253,-0.0984 -0.2046,-0.1808 -0.0783,-0.0831 -0.1364,-0.1472 -0.1727,-0.1919 l -0.2367,0.1442 2.3514,3.8132 z m 1.999,4.5332 c -0.3155,0.1224 -0.5805,0.1238 -0.7951,0.004 -0.2154,-0.1193 -0.3869,-0.3427 -0.5148,-0.6681 l -0.1034,-0.2628 1.9817,-0.7693 0.0992,0.2529 c 0.1284,0.3262 0.142,0.6111 0.0414,0.8572 -0.101,0.2457 -0.3368,0.4413 -0.709,0.5859 z m 4.3929,0.8867 -0.7073,-1.7995 c -0.6004,-0.1261 -1.0828,-0.2355 -1.4465,-0.3325 -0.3642,-0.0952 -0.792,-0.2248 -1.2844,-0.3861 l -0.0731,-0.1862 1.4309,-0.5556 c 0.0794,-0.0309 0.1522,-0.0422 0.2197,-0.0334 0.0672,0.008 0.1364,0.0473 0.2067,0.1165 0.0345,0.0345 0.079,0.0941 0.132,0.1763 0.0545,0.0819 0.097,0.1536 0.129,0.2154 l 0.2588,-0.1006 -0.9847,-2.5061 -0.2588,0.1003 c 0.0184,0.0672 0.0428,0.1554 0.0717,0.2651 0.0286,0.1099 0.0431,0.1902 0.0428,0.2423 -0.003,0.0972 -0.0247,0.1709 -0.0675,0.2214 -0.0433,0.0493 -0.1068,0.0907 -0.1907,0.1236 l -3.3299,1.2923 c -0.0805,0.0315 -0.1511,0.0445 -0.214,0.0417 -0.063,-0.004 -0.1327,-0.0448 -0.2087,-0.1219 -0.0575,-0.0598 -0.1142,-0.1341 -0.1723,-0.222 -0.0573,-0.0898 -0.1018,-0.1596 -0.1327,-0.2114 l -0.2588,0.1003 1.0358,2.6362 c 0.2316,0.5894 0.5006,1.0001 0.8056,1.2342 0.305,0.2345 0.6455,0.2778 1.0211,0.1321 0.3302,-0.1281 0.5595,-0.3268 0.6865,-0.593 0.1267,-0.2667 0.1701,-0.6154 0.1321,-1.0454 0.254,0.0743 0.5488,0.1616 0.8838,0.2619 0.3348,0.1004 0.6798,0.2058 1.0324,0.3172 0.1131,0.0357 0.2551,0.0873 0.4266,0.1574 0.171,0.0688 0.2889,0.1428 0.3532,0.223 0.036,0.0448 0.0749,0.1038 0.1157,0.1778 0.0419,0.0734 0.0709,0.1272 0.0862,0.159 z m 0.6962,2.9936 c -0.0423,-0.3061 -0.1199,-0.5856 -0.2322,-0.8382 -0.114,-0.2537 -0.2341,-0.4649 -0.3631,-0.6344 l 0.214,-0.2761 -0.0417,-0.3027 -1.8167,0.2029 0.0417,0.3025 c 0.1808,0.0454 0.3739,0.1072 0.5791,0.1868 0.2041,0.0799 0.3912,0.178 0.5613,0.2968 0.1777,0.1216 0.3276,0.2636 0.4501,0.4283 0.1233,0.163 0.2013,0.3628 0.2339,0.6004 0.0439,0.3183 -6e-4,0.5737 -0.133,0.7656 -0.1335,0.1905 -0.3186,0.3025 -0.5564,0.3348 -0.1945,0.0266 -0.3683,-0.0232 -0.521,-0.1494 -0.1528,-0.1258 -0.2982,-0.3336 -0.4377,-0.623 -0.0913,-0.1894 -0.1755,-0.3626 -0.2526,-0.5196 -0.0771,-0.1585 -0.1539,-0.3056 -0.231,-0.4445 -0.1811,-0.3166 -0.4076,-0.5403 -0.6812,-0.6684 -0.2724,-0.1293 -0.5638,-0.1726 -0.8728,-0.1307 -0.1955,0.0267 -0.3781,0.0941 -0.5473,0.2041 -0.1695,0.1086 -0.3144,0.2543 -0.4354,0.436 -0.114,0.1732 -0.1965,0.3863 -0.2478,0.6389 -0.0524,0.2531 -0.0584,0.5219 -0.0193,0.8065 0.0383,0.2772 0.1126,0.5315 0.2246,0.7619 0.1105,0.231 0.214,0.4113 0.3115,0.5389 l -0.1829,0.2438 0.042,0.3027 1.7133,-0.2038 -0.0417,-0.3025 c -0.1933,-0.0459 -0.3929,-0.102 -0.5978,-0.1709 -0.205,-0.0686 -0.3796,-0.1477 -0.5208,-0.2361 -0.1522,-0.0956 -0.2806,-0.2138 -0.3821,-0.3529 -0.1015,-0.1378 -0.1669,-0.3087 -0.1947,-0.5106 -0.0349,-0.2534 0.009,-0.4697 0.1307,-0.6491 0.1216,-0.1803 0.2891,-0.2849 0.5014,-0.3138 0.2004,-0.0275 0.3742,0.0201 0.5205,0.142 0.1471,0.1233 0.2894,0.3252 0.4266,0.6075 0.0833,0.1661 0.1666,0.3345 0.2497,0.508 0.0839,0.172 0.163,0.3251 0.2364,0.4583 0.18,0.3229 0.3977,0.5562 0.6554,0.7022 0.2562,0.1451 0.557,0.1947 0.902,0.1476 0.2174,-0.0294 0.4206,-0.1082 0.6094,-0.2369 0.1891,-0.1284 0.3393,-0.2869 0.4507,-0.4771 0.1228,-0.2075 0.2075,-0.4405 0.2532,-0.6973 0.0467,-0.2585 0.047,-0.5508 0.002,-0.8785 z m 0.3376,6.2326 -0.0771,-2.7839 -0.2778,0.008 c -0.003,0.0644 -0.008,0.1579 -0.0142,0.2818 -0.005,0.1238 -0.0173,0.2089 -0.0354,0.2568 -0.0329,0.0881 -0.0788,0.1488 -0.1364,0.1831 -0.0564,0.0329 -0.1315,0.0507 -0.2217,0.0533 l -3.5909,0.0984 c -0.0813,0.002 -0.1539,-0.0117 -0.2154,-0.0403 -0.0632,-0.0286 -0.1145,-0.0876 -0.1551,-0.1763 -0.0258,-0.055 -0.0524,-0.1381 -0.0799,-0.2486 -0.0286,-0.1097 -0.0482,-0.205 -0.0604,-0.2846 l -0.2775,0.008 0.0771,2.7837 0.2778,-0.007 c 0.005,-0.0706 0.0125,-0.1593 0.023,-0.2665 0.0104,-0.1054 0.0263,-0.1955 0.0473,-0.269 0.0292,-0.0929 0.0748,-0.1559 0.14,-0.1879 0.0649,-0.0323 0.1386,-0.0502 0.2214,-0.0524 l 3.5887,-0.0981 c 0.085,-0.003 0.1587,0.0113 0.2205,0.0411 0.0618,0.0312 0.1134,0.0904 0.1536,0.1788 0.0233,0.048 0.0463,0.1299 0.0689,0.2433 0.0238,0.1142 0.0386,0.2097 0.0457,0.2871 l 0.2778,-0.008 z m -4.1667,5.7325 0.0346,-0.2742 c -0.2052,-0.0989 -0.419,-0.2437 -0.6432,-0.4354 -0.2239,-0.1902 -0.337,-0.3557 -0.3393,-0.494 -3e-4,-0.0757 0.004,-0.1693 0.0108,-0.2807 0.006,-0.1102 0.0144,-0.2058 0.0246,-0.2863 l 0.0207,-0.1649 3.9405,0.4892 c 0.0847,0.0108 0.1579,0.0355 0.2194,0.0737 0.0615,0.0383 0.1046,0.1046 0.1309,0.1982 0.0151,0.0558 0.0264,0.1425 0.0341,0.2585 0.008,0.1171 0.0121,0.2151 0.0119,0.2956 l 0.2758,0.0343 0.3484,-2.7779 -0.2756,-0.0343 c -0.0158,0.0666 -0.0374,0.1616 -0.066,0.2826 -0.0289,0.121 -0.055,0.2021 -0.0788,0.2441 -0.0502,0.0867 -0.1086,0.1417 -0.1752,0.1641 -0.0678,0.0221 -0.1449,0.0283 -0.233,0.0173 l -3.9756,-0.4935 0.0207,-0.1647 c 0.01,-0.0805 0.0255,-0.1752 0.0468,-0.2838 0.0209,-0.1097 0.0399,-0.2012 0.0589,-0.2746 0.0363,-0.1336 0.1868,-0.2662 0.451,-0.396 0.2648,-0.1307 0.5077,-0.2192 0.7308,-0.2645 l 0.0346,-0.2741 -1.4366,-0.1783 -0.6078,4.8413 z"
       style="fill:#231916;fill-opacity:1;fill-rule:evenodd;stroke:none"
       id="path250" />
    <path
       d="m 104.9003,582.6725 c 0.1182,0.3492 0.2855,0.6573 0.5034,0.9246 0.2175,0.2662 0.4723,0.476 0.7663,0.6296 0.288,0.1514 0.6091,0.2381 0.9651,0.2608 0.3561,0.0227 0.722,-0.0284 1.0962,-0.1536 0.373,-0.125 0.6965,-0.305 0.97,-0.5412 0.273,-0.2347 0.4873,-0.5085 0.6407,-0.8195 0.1508,-0.3061 0.2344,-0.64 0.2503,-1.0032 0.017,-0.3636 -0.0372,-0.7282 -0.1611,-1.0944 -0.0895,-0.2642 -0.2035,-0.4944 -0.3435,-0.6908 -0.1383,-0.1965 -0.2744,-0.3555 -0.4065,-0.4788 l 0.1154,-0.2713 -0.0981,-0.2894 -1.7623,0.5599 0.1003,0.2962 c 0.5936,-0.0122 1.0559,0.0581 1.3876,0.2092 0.3302,0.1514 0.553,0.3951 0.6678,0.7339 0.1426,0.4215 0.0641,0.8044 -0.2358,1.1491 -0.2996,0.345 -0.7878,0.631 -1.4644,0.8578 -0.3824,0.1281 -0.722,0.1998 -1.0173,0.2157 -0.2957,0.0159 -0.546,-0.0102 -0.7521,-0.0754 -0.216,-0.072 -0.394,-0.184 -0.5349,-0.3336 -0.1394,-0.1503 -0.246,-0.332 -0.3191,-0.5477 -0.1063,-0.3138 -0.1143,-0.6216 -0.025,-0.9241 0.0887,-0.3033 0.2727,-0.6142 0.5536,-0.9323 l -0.2749,-0.2302 c -0.1659,0.1633 -0.3065,0.3328 -0.4207,0.508 -0.1154,0.1755 -0.2021,0.3634 -0.2605,0.5633 -0.0638,0.2179 -0.0947,0.4458 -0.0921,0.6842 0.002,0.2373 0.0527,0.5015 0.1516,0.7932 z m -0.0856,-15.6544 c 0.2299,-0.079 0.4822,-0.1247 0.7614,-0.1374 0.2781,-0.0134 0.5879,8e-4 0.9315,0.0433 0.2914,0.0363 0.5728,0.0919 0.8435,0.1673 0.2708,0.0751 0.5072,0.1763 0.7101,0.3016 0.2036,0.1281 0.3597,0.2829 0.4683,0.4663 0.1097,0.1834 0.1488,0.3982 0.1176,0.6471 -0.0535,0.4255 -0.297,0.724 -0.7313,0.8946 -0.4337,0.1698 -1.0207,0.2092 -1.762,0.1171 -0.3158,-0.0391 -0.6089,-0.0998 -0.8833,-0.1828 -0.2732,-0.0828 -0.5068,-0.1888 -0.703,-0.3181 -0.197,-0.1321 -0.3447,-0.2857 -0.4416,-0.4629 -0.097,-0.1768 -0.1301,-0.3835 -0.1001,-0.6216 0.0292,-0.2322 0.1134,-0.4243 0.2529,-0.5769 0.1394,-0.151 0.318,-0.2644 0.536,-0.3376 z m 3.7142,-0.4572 c -0.1964,-0.2735 -0.445,-0.5037 -0.7486,-0.6877 -0.3036,-0.1842 -0.6596,-0.3019 -1.0706,-0.3529 -0.3666,-0.0453 -0.7223,-0.0275 -1.0678,0.0533 -0.3467,0.0814 -0.6529,0.2217 -0.921,0.4215 -0.2781,0.2112 -0.5063,0.4723 -0.6863,0.781 -0.1786,0.3087 -0.2962,0.6885 -0.3529,1.1395 -0.0456,0.3642 -0.0286,0.7157 0.0505,1.0539 0.0805,0.3385 0.2199,0.6455 0.4175,0.9201 0.1945,0.2722 0.4422,0.4995 0.7458,0.6826 0.3036,0.1831 0.6511,0.2994 1.0465,0.3484 0.4099,0.051 0.7923,0.0278 1.1438,-0.0703 0.351,-0.0981 0.6619,-0.2551 0.9306,-0.4694 0.2651,-0.2126 0.4811,-0.4777 0.6486,-0.794 0.1687,-0.3161 0.2758,-0.6619 0.3232,-1.0383 0.0467,-0.3728 0.0289,-0.7305 -0.0522,-1.0727 -0.0819,-0.3435 -0.2183,-0.6474 -0.4071,-0.915 z m 2.7256,-6.9386 c -0.0312,0.0595 -0.0783,0.1426 -0.1412,0.2494 -0.0621,0.1074 -0.146,0.1945 -0.2517,0.26 -0.0922,0.0578 -0.2169,0.0756 -0.377,0.0535 -0.1585,-0.0226 -0.3785,-0.0887 -0.6611,-0.1987 l -3.3769,-1.3147 -0.235,0.5967 2.505,4.324 -2.2147,-0.8623 c -0.2747,-0.1069 -0.4762,-0.2064 -0.6049,-0.2982 -0.1284,-0.0927 -0.2109,-0.1925 -0.2447,-0.2994 -0.0252,-0.0788 -0.0311,-0.1905 -0.0187,-0.3353 0.0139,-0.1443 0.0298,-0.2577 0.0462,-0.3399 l -0.2585,-0.1006 -0.7971,2.0245 0.2588,0.1006 c 0.0406,-0.083 0.095,-0.1752 0.1653,-0.2766 0.0683,-0.101 0.1448,-0.1792 0.2276,-0.2328 0.0984,-0.0606 0.218,-0.0819 0.3614,-0.0637 0.1418,0.0187 0.3657,0.0878 0.6733,0.2077 l 2.2376,0.8711 c 0.1111,0.0434 0.2101,0.1012 0.2954,0.1735 0.0853,0.0723 0.1497,0.1585 0.1916,0.2582 0.0457,0.1063 0.0706,0.216 0.074,0.3334 0.005,0.1165 -0.005,0.2426 -0.0312,0.3781 l 0.2588,0.1009 0.6965,-1.7693 -2.194,-3.7877 1.7918,0.6976 c 0.2848,0.1108 0.4895,0.2126 0.6131,0.3039 0.125,0.0915 0.2047,0.1913 0.2381,0.2993 0.0269,0.0848 0.0326,0.1965 0.0204,0.3374 -0.013,0.1394 -0.0281,0.2505 -0.0451,0.3339 l 0.2518,0.0981 0.7971,-2.0246 z m 1.1792,-6.9469 c -0.0465,0.0584 -0.0882,0.108 -0.1273,0.1508 -0.038,0.0434 -0.0933,0.0933 -0.1627,0.1497 -0.08,0.0657 -0.1571,0.0912 -0.2336,0.0799 -0.0771,-0.013 -0.1494,-0.04 -0.2151,-0.0819 l -0.497,-0.3161 c -0.1003,-0.0638 -0.18,-0.1156 -0.24,-0.157 -0.0604,-0.0411 -0.1336,-0.0919 -0.2211,-0.1534 -0.2492,0.1222 -0.5517,0.3453 -0.9086,0.6665 -0.3566,0.3228 -0.6394,0.6463 -0.8495,0.9728 -0.1979,0.3076 -0.3353,0.6253 -0.4139,0.9542 -0.0788,0.3293 -0.0898,0.6548 -0.0314,0.9779 0.0561,0.322 0.1854,0.6299 0.3866,0.9218 0.2024,0.2928 0.4822,0.5525 0.8394,0.7798 0.3328,0.2115 0.676,0.3521 1.0298,0.4233 0.3543,0.0697 0.6993,0.0663 1.0366,-0.0111 0.3339,-0.0743 0.6494,-0.2231 0.9482,-0.4445 0.2974,-0.2222 0.561,-0.5105 0.7895,-0.866 0.1547,-0.2409 0.2687,-0.4833 0.3401,-0.727 0.0723,-0.243 0.1168,-0.4539 0.1349,-0.6308 l 0.2849,-0.0805 0.1653,-0.2573 -1.5426,-1.0154 -0.1695,0.2633 c 0.3722,0.4496 0.6032,0.8524 0.6953,1.2087 0.0918,0.3546 0.0337,0.6945 -0.1738,1.0174 -0.2454,0.3818 -0.6035,0.5697 -1.074,0.5641 -0.4717,-0.007 -1.0026,-0.1976 -1.5942,-0.5735 -0.6282,-0.3997 -1.0534,-0.8138 -1.2773,-1.2438 -0.2239,-0.43 -0.2157,-0.832 0.0252,-1.2067 0.1128,-0.1755 0.2401,-0.3147 0.3796,-0.4173 0.1414,-0.1029 0.2713,-0.1698 0.3897,-0.201 l 0.8655,0.5502 c 0.0717,0.046 0.1238,0.0975 0.1556,0.1537 0.0323,0.0578 0.0425,0.1363 0.0286,0.2369 -0.011,0.0777 -0.0363,0.1667 -0.0757,0.2682 -0.0391,0.1018 -0.0748,0.184 -0.1054,0.2495 l 0.2341,0.1491 1.4179,-2.2057 z m 2.7768,-4.371 c 0.2282,0.083 0.4538,0.2072 0.6775,0.3719 0.2248,0.1652 0.4569,0.3719 0.6959,0.6208 0.2038,0.212 0.3866,0.4323 0.5485,0.6604 0.1627,0.2291 0.2817,0.4564 0.36,0.6821 0.0759,0.2262 0.0983,0.4444 0.0669,0.6553 -0.0315,0.2112 -0.1378,0.4023 -0.3201,0.5757 -0.3121,0.2963 -0.6902,0.3745 -1.1361,0.2331 -0.4442,-0.1412 -0.9249,-0.4805 -1.4417,-1.0185 -0.2197,-0.2288 -0.409,-0.4612 -0.5692,-0.6979 -0.159,-0.2359 -0.2738,-0.4658 -0.3435,-0.6891 -0.0689,-0.2262 -0.0856,-0.4383 -0.0482,-0.6364 0.0371,-0.1979 0.142,-0.3798 0.3166,-0.5457 0.1701,-0.1615 0.3575,-0.2576 0.5627,-0.288 0.2041,-0.0297 0.4155,-0.004 0.6307,0.0763 z m 3.1734,1.9842 c 0.0215,-0.3356 -0.0261,-0.6706 -0.144,-1.0043 -0.1174,-0.3328 -0.3195,-0.6486 -0.6058,-0.9465 -0.4065,-0.4232 -0.8699,-0.6933 -1.3904,-0.8124 -0.5196,-0.1182 -1.0414,-0.0632 -1.5656,0.1667 -0.1907,-0.2092 -0.299,-0.4448 -0.3231,-0.7067 -0.0252,-0.263 0.0442,-0.4714 0.2064,-0.6253 0.0997,-0.0947 0.1936,-0.1721 0.2795,-0.2322 0.0867,-0.0586 0.1669,-0.1099 0.2415,-0.1519 l -0.2158,-0.2245 c -0.1363,0.0527 -0.3223,0.1505 -0.5555,0.2917 -0.2325,0.142 -0.4544,0.3129 -0.6668,0.5145 -0.2891,0.2746 -0.4453,0.5873 -0.4671,0.9365 -0.021,0.3501 0.1046,0.69 0.3781,1.0182 -0.2205,0.2549 -0.3889,0.5304 -0.5068,0.8252 -0.1171,0.2957 -0.1783,0.6004 -0.1814,0.9147 -0.002,0.3104 0.0572,0.6194 0.1777,0.9273 0.1196,0.3087 0.307,0.595 0.5621,0.8603 0.286,0.2979 0.5973,0.5201 0.9318,0.665 0.3353,0.1457 0.676,0.2194 1.0204,0.2219 0.3405,0.002 0.6767,-0.0677 1.0072,-0.2075 0.3317,-0.1391 0.6344,-0.3396 0.9102,-0.6015 0.2733,-0.2596 0.4867,-0.5479 0.6412,-0.864 0.1548,-0.318 0.2424,-0.6392 0.2662,-0.9652 z m 1.4343,-6.4553 -2.3576,1.5026 0.15,0.2328 c 0.057,-0.0307 0.1397,-0.0749 0.2497,-0.1336 0.1091,-0.0595 0.1891,-0.0929 0.2395,-0.102 0.093,-0.0176 0.1687,-0.01 0.2282,0.0215 0.0576,0.0309 0.1117,0.0857 0.1602,0.1611 l 1.9383,3.0078 c 0.0442,0.0683 0.0695,0.1372 0.0768,0.2044 0.008,0.0686 -0.0164,0.1428 -0.072,0.2231 -0.034,0.0504 -0.0915,0.1159 -0.1729,0.1964 -0.0796,0.0811 -0.1513,0.1471 -0.2137,0.1981 l 0.1497,0.2328 2.3575,-1.5027 -0.1499,-0.2327 c -0.0635,0.032 -0.1434,0.0714 -0.241,0.1179 -0.0966,0.0457 -0.1822,0.0785 -0.2562,0.0987 -0.0953,0.0232 -0.1732,0.0167 -0.2344,-0.0221 -0.061,-0.0389 -0.1146,-0.0925 -0.1593,-0.1619 l -1.937,-3.0059 c -0.0459,-0.0714 -0.072,-0.1411 -0.0782,-0.2092 -0.005,-0.0686 0.019,-0.1431 0.0746,-0.223 0.0292,-0.0445 0.0878,-0.1066 0.1737,-0.1843 0.0862,-0.0794 0.1607,-0.1412 0.2237,-0.1871 z m 8.9617,0.9723 c -0.0643,0.0207 -0.1562,0.0473 -0.2766,0.0799 -0.1196,0.0337 -0.241,0.0374 -0.3626,0.0108 -0.1063,-0.0227 -0.208,-0.0967 -0.3073,-0.224 -0.0972,-0.1264 -0.208,-0.3265 -0.3327,-0.6017 l -1.4894,-3.2882 -0.5876,0.2633 -1.2498,4.8328 -0.9768,-2.1566 c -0.121,-0.2676 -0.1953,-0.4788 -0.2228,-0.6338 -0.0264,-0.1559 -0.0153,-0.2844 0.0357,-0.3844 0.0374,-0.074 0.1117,-0.1576 0.2225,-0.2526 0.1112,-0.0935 0.2024,-0.1635 0.2719,-0.2109 l -0.114,-0.2517 -1.9933,0.8929 0.1142,0.2517 c 0.0876,-0.0309 0.1911,-0.0589 0.3127,-0.0827 0.1199,-0.0244 0.2296,-0.0273 0.3266,-0.008 0.1128,0.025 0.2131,0.093 0.3027,0.2058 0.0884,0.112 0.1998,0.3172 0.3356,0.6166 l 0.9868,2.1789 c 0.049,0.1083 0.079,0.2186 0.0892,0.3297 0.0102,0.1109 -0.005,0.2172 -0.0445,0.3175 -0.0422,0.108 -0.1017,0.2038 -0.1814,0.29 -0.0782,0.087 -0.1743,0.1698 -0.2883,0.2489 l 0.114,0.252 1.7422,-0.7807 1.095,-4.2333 0.79,1.7448 c 0.1259,0.2772 0.2004,0.4923 0.2248,0.6437 0.0249,0.1522 0.0116,0.2792 -0.0405,0.3796 -0.0403,0.0791 -0.1146,0.163 -0.2226,0.2551 -0.1074,0.0907 -0.1961,0.1599 -0.267,0.2075 l 0.1111,0.2452 1.9934,-0.8929 z m 5.7444,-3.7426 c -0.0745,0.006 -0.1468,0.0133 -0.2049,0.0136 -0.0578,0.002 -0.1321,-0.005 -0.2211,-0.0167 -0.1029,-0.0136 -0.1743,-0.0525 -0.218,-0.116 -0.0428,-0.0649 -0.0717,-0.136 -0.0856,-0.2123 l -0.1052,-0.5774 c -0.0212,-0.1168 -0.0368,-0.21 -0.0476,-0.282 -0.0105,-0.072 -0.0227,-0.1596 -0.0371,-0.2654 -0.2594,-0.0986 -0.6299,-0.1675 -1.1092,-0.2092 -0.4805,-0.0405 -0.9113,-0.0269 -1.2952,0.042 -0.3608,0.0652 -0.6888,0.1808 -0.9844,0.3472 -0.2965,0.1667 -0.5437,0.3799 -0.7424,0.6424 -0.199,0.2596 -0.3385,0.5632 -0.4167,0.9085 -0.078,0.3466 -0.0794,0.7273 -0.004,1.1423 0.0703,0.3864 0.2001,0.7325 0.3884,1.0386 0.1893,0.3059 0.4266,0.5551 0.7132,0.7484 0.2817,0.1933 0.606,0.322 0.9725,0.3892 0.366,0.0658 0.7577,0.0618 1.175,-0.0131 0.2829,-0.051 0.5394,-0.1329 0.7676,-0.2466 0.2285,-0.1125 0.4136,-0.2233 0.5564,-0.3305 l 0.2532,0.1528 0.3022,-0.0544 -0.3005,-1.8153 -0.3096,0.0555 c -0.0782,0.5769 -0.2179,1.0197 -0.4181,1.3292 -0.199,0.3078 -0.4889,0.4969 -0.8679,0.5649 -0.4485,0.0808 -0.8306,-0.0524 -1.1464,-0.3996 -0.316,-0.3484 -0.5363,-0.8655 -0.6613,-1.5523 -0.1327,-0.7296 -0.1165,-1.3212 0.0482,-1.777 0.1647,-0.4558 0.4666,-0.7232 0.9065,-0.8022 0.2064,-0.0372 0.3954,-0.0392 0.5661,-0.007 0.1718,0.0331 0.3095,0.0822 0.413,0.1474 l 0.1828,1.0051 c 0.0153,0.0834 0.0125,0.1568 -0.007,0.2183 -0.0207,0.0627 -0.0715,0.1236 -0.1551,0.1817 -0.0649,0.0448 -0.1477,0.0867 -0.2494,0.1273 -0.1015,0.0405 -0.1866,0.0706 -0.2554,0.0927 l 0.0496,0.2721 2.5497,-0.466 -0.002,-0.2761 z m -31.1195,31.5346 0.208,2.7187 0.277,-0.021 c 2e-4,-0.0595 8e-4,-0.1471 0.002,-0.2613 -2e-4,-0.1143 0.009,-0.1939 0.0247,-0.2376 0.0286,-0.0898 0.0712,-0.1536 0.127,-0.1919 0.0558,-0.0371 0.1287,-0.0595 0.2186,-0.0663 l 1.7447,-0.1321 0.1647,2.1532 -1.7045,0.129 c -0.0816,0.006 -0.1559,-0.005 -0.2217,-0.0355 -0.0669,-0.0289 -0.1213,-0.0845 -0.1641,-0.1638 -0.0218,-0.0445 -0.0482,-0.1191 -0.0782,-0.2262 -0.0292,-0.1083 -0.0494,-0.1956 -0.0596,-0.2639 l -0.2769,0.0209 0.2081,2.7188 0.2769,-0.021 c -0.002,-0.0596 -0.001,-0.1471 0.003,-0.2628 0.005,-0.1159 0.0142,-0.2015 0.0295,-0.2551 0.0238,-0.0868 0.0666,-0.1497 0.1261,-0.1882 0.0607,-0.0375 0.1336,-0.0598 0.2197,-0.0664 l 3.5745,-0.2704 c 0.0839,-0.006 0.1542,0.003 0.2137,0.0289 0.0593,0.0247 0.1137,0.0825 0.1636,0.171 0.0366,0.0666 0.0714,0.155 0.1043,0.2644 0.034,0.1092 0.0547,0.1891 0.0635,0.2381 l 0.277,-0.0209 -0.2078,-2.7188 -0.2772,0.021 c 8e-4,0.074 -0.005,0.1619 -0.0151,0.2662 -0.0116,0.1029 -0.0238,0.1828 -0.0354,0.2384 -0.0247,0.0941 -0.0686,0.1596 -0.1344,0.1936 -0.0646,0.0354 -0.1352,0.0553 -0.2117,0.0609 l -1.5089,0.1143 -0.1647,-2.1532 1.4737,-0.1114 c 0.0828,-0.006 0.1545,0.004 0.2138,0.0297 0.0584,0.0273 0.1128,0.0851 0.1635,0.1735 0.0326,0.0598 0.0658,0.1398 0.0978,0.2418 0.0335,0.1009 0.0556,0.182 0.0675,0.2429 l 0.2772,-0.0209 -0.208,-2.7187 -0.277,0.0209 c 9e-4,0.0766 -0.002,0.1619 -0.0108,0.2586 -0.008,0.0952 -0.0215,0.1825 -0.0388,0.2605 -0.0247,0.0915 -0.0686,0.1559 -0.1318,0.1922 -0.0646,0.0351 -0.1363,0.0564 -0.214,0.0623 l -3.5793,0.2707 c -0.0851,0.006 -0.1593,-0.004 -0.2211,-0.0292 -0.0621,-0.0272 -0.1162,-0.0836 -0.1633,-0.1701 -0.0275,-0.0549 -0.0558,-0.1369 -0.0833,-0.2429 -0.0264,-0.106 -0.0454,-0.1933 -0.0556,-0.2619 z"
       style="fill:#231916;fill-opacity:1;fill-rule:evenodd;stroke:none"
       id="path252" />
  </g>
</svg>
