<?xml version="1.0" encoding="UTF-8" standalone="no"?>
<!-- Created with Inkscape (http://www.inkscape.org/) -->

<svg
   version="1.1"
   id="svg2"
   width="351.49609"
   height="351.49612"
   viewBox="0 0 351.4961 351.49614"
   sodipodi:docname="黑色校徽页面.pdf"
   xmlns:inkscape="http://www.inkscape.org/namespaces/inkscape"
   xmlns:sodipodi="http://sodipodi.sourceforge.net/DTD/sodipodi-0.dtd"
   xmlns="http://www.w3.org/2000/svg"
   xmlns:svg="http://www.w3.org/2000/svg">
  <defs
     id="defs6" />
  <sodipodi:namedview
     id="namedview4"
     pagecolor="#ffffff"
     bordercolor="#000000"
     borderopacity="0.25"
     inkscape:showpageshadow="2"
     inkscape:pageopacity="0.0"
     inkscape:pagecheckerboard="0"
     inkscape:deskcolor="#d1d1d1"
     showgrid="false" />
  <g
     id="g10"
     inkscape:groupmode="layer"
     inkscape:label="Page 1"
     transform="matrix(1.3333333,0,0,-1.3333333,-220.44507,869.63266)">
    <path
       d="m 291.4146,580.3296 c 3.8103,0.3691 7.6533,0.3717 11.4636,0.008 l 2.6124,7.3888 0.116,-0.0145 c 6.1421,-0.7639 12.1549,-2.3828 17.8625,-4.7741 l 0.108,-0.0453 -1.4378,-7.7293 c 3.4796,-1.5896 6.8069,-3.5101 9.9236,-5.7285 l 5.9615,5.0975 0.0936,-0.0708 c 4.812,-3.64 9.1167,-7.9328 12.7978,-12.7126 l 0.1012,-0.1315 h -5.3419 l 0.1582,0.1848 c -2.2331,2.6235 -4.676,5.067 -7.2989,7.2998 l -5.8935,-5.0383 -0.0942,0.0763 c -4.5844,3.7082 -9.7367,6.6747 -15.2322,8.8086 l -0.1128,0.044 1.4181,7.628 c -3.2439,1.1577 -6.582,2.05 -9.9705,2.6665 l -2.5864,-7.3165 -0.1196,0.0193 c -2.9081,0.4677 -5.8535,0.6863 -8.7982,0.6863 -2.9449,0 -5.8906,-0.2186 -8.7987,-0.6863 l -0.1196,-0.0193 -2.5858,7.3165 c -3.3888,-0.6165 -6.7266,-1.5086 -9.9706,-2.6657 l 1.4182,-7.6288 -0.1128,-0.044 c -5.4955,-2.1339 -10.6478,-5.1001 -15.2326,-8.8086 l -0.0941,-0.0763 -5.8929,5.038 c -2.6232,-2.2328 -5.0667,-4.6757 -7.2995,-7.2989 l 0.1584,-0.1854 h -5.3418 l 0.1012,0.1315 c 3.6805,4.7801 7.9854,9.0726 12.7975,12.7126 l 0.0939,0.0708 5.9524,-5.0899 c 3.1176,2.2213 6.448,4.1398 9.9321,5.7255 l -1.4372,7.7247 0.1083,0.0453 c 5.7075,2.3913 11.7201,4.0102 17.8625,4.7741 l 0.1159,0.0145 2.6147,-7.3965 z"
       style="fill:#231916;fill-opacity:1;fill-rule:evenodd;stroke:none"
       id="path118" />
    <path
       d="m 297.1451,572.7421 c 12.1232,0 23.2821,-4.1238 32.154,-11.0432 h -3.31 c -8.1706,5.7186 -18.1143,9.0766 -28.844,9.0766 -10.7297,0 -20.6736,-3.358 -28.8439,-9.0766 h -3.31 c 8.8719,6.9194 20.0307,11.0432 32.1539,11.0432"
       style="fill:#231916;fill-opacity:1;fill-rule:evenodd;stroke:none"
       id="path120" />
    <path
       d="m 364.0791,545.6458 c 3.9642,-4.4218 6.5537,-9.7121 6.4547,-17.2934 2.022,1.5787 2.7627,8.1927 6.2601,10.679 0.8373,-9.3764 -2.7862,-16.0773 -8.4646,-22.0541 -0.3946,6.0083 -5.1057,2.2547 -6.4114,16.9999 2.3743,-1.379 2.4486,-5.0938 6.0866,-7.1314 -4.203,7.5785 -3.7911,11.1311 -3.9254,18.8 z M 352.834,472.9844 c 0.0621,-0.8229 0.1789,-1.6273 0.2614,-2.0809 -2.1172,-0.6151 -4.1843,-1.4108 -6.143,-2.7363 3.049,3.9487 4.2285,9.9635 3.5436,14.2643 -4.9963,-7.0546 -11.9239,-12.5192 -11.2467,-20.2397 -0.0601,-0.4816 -0.0437,-1.3739 -0.0176,-2.0664 -2.4452,-0.7303 -4.7648,-1.8199 -7.0044,-3.6122 -0.4193,-0.3357 -0.9522,-1.0015 -1.0514,-0.8586 -0.0995,0.1428 0.491,0.7506 0.8524,1.2115 2.8411,3.6215 4.6499,8.5357 6.2393,12.376 -10.6018,-8.1669 -13.4019,-7.8446 -18.968,-14.8991 -1.582,-2.005 -8.6193,-3.4504 -10.904,-3.9062 -0.5451,-0.1085 -0.5434,-0.8541 -0.0202,-0.8084 2.5969,0.2265 7.2564,-0.0836 9.0403,-0.7674 9.2713,-3.5543 16.5129,-1.6781 26.193,3.4728 -5.097,-0.4434 -10.2008,-0.1372 -15.3134,1.2824 0.8428,0.2797 1.645,1.0434 2.5283,0.8404 11.0826,-2.5489 18.7849,1.6005 26.3823,9.5514 -6.5951,-1.6784 -11.6963,-2.2791 -16.7905,-3.5578 l 0.008,0.0241 c 0.3231,0.9774 1.8549,1.711 1.8589,1.713 7.5779,3.3043 15.9066,0.3668 23.7311,13.0751 -3.9521,-2.4639 -8.0206,-3.0311 -12.0549,-4.1264 0.009,0.6295 -0.0587,1.4218 0.3753,2.2133 5.7756,5.6194 13.0992,3.1836 20.2589,19.0116 -3.6731,-0.5133 -7.391,-3.6343 -10.5587,-6.0032 0.2211,0.8085 0.648,1.8749 1.1698,2.8208 6.2331,5.5182 12.3109,9.6469 13.2656,18.5065 -1.9723,-1.9834 -5.3396,-3.969 -7.8355,-5.4099 4.4742,6.7074 8.7633,14.4264 7.8573,24.2204 -1.7575,-8.0601 -6.7141,-8.9793 -9.5754,-15.1305 -1.6141,4.7177 -3.4296,7.3264 -5.9998,10.3736 -0.7277,-13.8118 4.5785,-13.2882 5.0298,-23.2389 l -1.9942,-1.571 c 0.005,4.7945 -1.6653,9.7047 -4.0703,13.7072 -0.3384,-7.2357 -3.1232,-15.8961 1.1855,-22.0323 0.3671,-1.2299 0.3214,-2.1968 0.214,-2.8017 -1.6662,-1.2107 -3.1419,-2.1277 -4.3183,-2.2193 0.733,4.2134 0.7279,8.9711 -0.9119,13.2299 -1.1347,-7.742 -6.4312,-13.9652 -5.2169,-23.8281"
       style="fill:#231916;fill-opacity:1;fill-rule:evenodd;stroke:none"
       id="path122" />
    <path
       d="m 230.2109,545.6458 c -3.9642,-4.4218 -6.554,-9.7121 -6.4547,-17.2934 -2.0223,1.5787 -2.763,8.1927 -6.2601,10.679 -0.8376,-9.3764 2.7862,-16.0773 8.4643,-22.0541 0.3946,6.0083 5.106,2.2547 6.4114,16.9999 -2.3743,-1.379 -2.4486,-5.0938 -6.0863,-7.1314 4.2027,7.5785 3.7908,11.1311 3.9254,18.8 z m 11.2451,-72.6614 c -0.0624,-0.8229 -0.1789,-1.6273 -0.2617,-2.0809 2.1172,-0.6151 4.1845,-1.4108 6.143,-2.7363 -3.0487,3.9487 -4.2282,9.9635 -3.5433,14.2643 4.9963,-7.0546 11.9236,-12.5192 11.2464,-20.2397 0.0604,-0.4816 0.0437,-1.3739 0.0176,-2.0664 2.4455,-0.7303 4.7648,-1.8199 7.0044,-3.6122 0.4193,-0.3357 0.9522,-1.0015 1.0514,-0.8586 0.0998,0.1428 -0.4907,0.7506 -0.8524,1.2115 -2.8409,3.6215 -4.6499,8.5357 -6.239,12.376 10.6015,-8.1669 13.4016,-7.8446 18.9677,-14.8991 1.5823,-2.005 8.6196,-3.4504 10.9043,-3.9062 0.5448,-0.1085 0.5431,-0.8541 0.0202,-0.8084 -2.5969,0.2265 -7.2567,-0.0836 -9.0403,-0.7674 -9.2716,-3.5543 -16.5129,-1.6781 -26.1933,3.4728 5.0973,-0.4434 10.2008,-0.1372 15.3134,1.2824 -0.8425,0.2797 -1.645,1.0434 -2.5283,0.8404 -11.0826,-2.5489 -18.7849,1.6005 -26.382,9.5514 6.5948,-1.6784 11.696,-2.2791 16.7905,-3.5578 l -0.009,0.0241 c -0.3228,0.9774 -1.8547,1.711 -1.8586,1.713 -7.5779,3.3043 -15.9066,0.3668 -23.7314,13.0751 3.9521,-2.4639 8.0206,-3.0311 12.0552,-4.1264 -0.009,0.6295 0.0587,1.4218 -0.3756,2.2133 -5.7753,5.6194 -13.0992,3.1836 -20.2589,19.0116 3.6734,-0.5133 7.391,-3.6343 10.559,-6.0032 -0.2214,0.8085 -0.648,1.8749 -1.1698,2.8208 -6.2334,5.5182 -12.3112,9.6469 -13.2659,18.5065 1.9726,-1.9834 5.3399,-3.969 7.8355,-5.4099 -4.4742,6.7074 -8.7633,14.4264 -7.8573,24.2204 1.7577,-8.0601 6.7144,-8.9793 9.5754,-15.1305 1.6141,4.7177 3.4296,7.3264 6.0001,10.3736 0.7277,-13.8118 -4.5788,-13.2882 -5.0301,-23.2389 l 1.9945,-1.571 c -0.005,4.7945 1.665,9.7047 4.0702,13.7072 0.3382,-7.2357 3.1233,-15.8961 -1.1857,-22.0323 -0.3668,-1.2299 -0.3212,-2.1968 -0.2137,-2.8017 1.6662,-1.2107 3.1416,-2.1277 4.318,-2.2193 -0.733,4.2134 -0.7279,8.9711 0.9119,13.2299 1.1347,-7.742 6.4312,-13.9652 5.2172,-23.8281"
       style="fill:#231916;fill-opacity:1;fill-rule:evenodd;stroke:none"
       id="path124" />
    <path
       d="m 297.1508,449.113 3.6901,6.3916 h -7.38 z m 71.8019,112.5859 -71.8019,-124.3848 -71.8132,124.3848 c 47.8718,0 95.7433,0 143.6151,0 z m -71.8541,-88.4953 -3.4063,5.8997 h -10.1795 l -1.8383,-3.1844 1.5675,-2.7153 z m -4.5419,7.8661 -3.9543,6.8491 -3.9541,-6.8491 z m -12.4501,0 3.4064,5.8997 h -8.2187 l 3.4064,-5.8997 z m 4.5417,7.8661 1.6835,2.916 -1.7226,2.9841 h -9.1023 l -2.3769,-4.1173 1.029,-1.7828 z m -1.1747,7.8665 -3.4061,5.8994 h -0.019 l -3.4061,-5.8994 z m -11.3723,0 3.4058,5.8994 h -9.2959 l 3.4061,-5.8994 h 3e-4 z m 4.5411,7.8661 3.4061,5.8998 h -18.3787 l 3.4061,-5.8998 z m 3.4254,5.8998 3.4061,-5.8998 h 10.2575 l 3.4064,5.8998 z m 4.5414,-7.8665 3.9934,-6.9162 3.9935,6.9162 z m 12.5473,7.8665 3.4061,-5.8998 h 10.2577 l 3.4058,5.8998 z m 4.5416,-7.8665 3.9935,-6.9165 3.9934,6.9165 z m 12.547,7.8665 3.4064,-5.8998 h 11.5742 l 3.4064,5.8998 z m 4.5417,-7.8665 3.4061,-5.8994 h 3e-4 2.4911 l 3.4064,5.8994 z m 2.3808,-11.9905 -2.3808,4.1247 h -9.102 l -1.7224,-2.9838 1.6832,-2.9163 h 10.497 z m -3.5161,6.0911 -3.4064,5.8994 h -0.019 l -3.4058,-5.8994 z m -6.8703,-9.8329 3.4061,-5.8997 h 1.4139 l 3.4064,5.8997 z m 1.8425,-11.0571 -1.8425,3.191 H 300.602 l -3.4067,-5.8997 h 13.8645 z m -2.9781,5.1574 -3.954,6.8491 -3.9546,-6.8491 z m -18.7721,10.7824 1.6835,-2.9163 h 9.1803 l 1.6832,2.916 -1.7224,2.9841 h -9.1023 z m 2.819,-4.8827 3.4061,-5.8997 h 0.0967 l 3.4067,5.8997 z m 6.8701,9.8329 -3.4058,5.8994 h -0.0193 l -3.4061,-5.8994 z m -65.0067,58.9969 h 123.1903 l -13.6244,-23.599 h -95.9417 z m 17.0306,-29.4985 h 89.1286 l -3.4061,-5.8997 h -82.3164 z m 49.39,-68.8297 3.4061,5.8997 h -16.4633 l 3.4064,-5.8997 z m 4.5414,7.8661 3.4064,5.8998 h -25.5467 l 3.4064,-5.8998 z m 27.2492,47.1975 h -73.2325 l -3.4064,5.9 h 80.0455 z"
       style="fill:#231916;fill-opacity:1;fill-rule:evenodd;stroke:none"
       id="path126" />
    <path
       d="m 297.1449,652.2245 c 72.7973,0 131.811,-59.0137 131.811,-131.8111 0,-72.7973 -59.0137,-131.811 -131.811,-131.811 -72.7974,0 -131.8111,59.0137 -131.8111,131.811 0,72.7974 59.0137,131.8111 131.8111,131.8111 z m 0,-7.8662 C 228.6893,644.3583 173.2,588.869 173.2,520.4134 c 0,-68.4555 55.4893,-123.9448 123.9449,-123.9448 68.4555,0 123.9448,55.4893 123.9448,123.9448 0,68.4556 -55.4893,123.9449 -123.9448,123.9449"
       style="fill:#231916;fill-opacity:1;fill-rule:evenodd;stroke:none"
       id="path128" />
    <path
       d="m 322.4636,614.2839 c -0.409,-1.3839 -0.8175,-2.3593 -0.9944,-3.4657 -0.0686,-0.4379 2.8126,0.2914 3.0926,0.3221 0.0332,0.004 0.0649,0.006 0.0953,0.009 0.0414,0.011 0.0827,0.0218 0.1247,0.0317 0.5159,0.1233 1.0687,0.1743 1.5905,0.3203 l 1.3292,0.4334 0.2361,0.0944 0.2648,0.0845 c 0.0861,0.0352 0.2111,0.1125 0.2177,0.2126 0.006,0.0986 -0.005,0.1996 0.003,0.2832 0.009,0.0859 -0.1044,0.1168 -0.003,0.1729 0.0893,0.0193 -0.1167,0.2458 0.1701,0.1794 l 0.2061,-0.0952 0.1701,-0.0913 c 0.1428,-0.0921 0.2809,-0.2594 0.3994,-0.3892 0.1961,-0.216 0.3569,-0.4008 0.4569,-0.6315 0.0802,-0.1803 0.2169,-0.6679 0.2254,-0.8561 l -0.0218,-0.009 -0.009,-0.1171 c 0.0119,-0.03 -0.1806,-0.4895 -0.1959,-0.4989 -0.002,-0.0944 -0.047,-0.2423 -0.1468,-0.2817 l 0.007,-0.0173 c -0.1225,-0.1035 -0.1817,-0.0604 -0.3385,-0.131 -0.0655,-0.2415 -0.7633,-0.4198 -0.9564,-0.4045 -0.0144,0.0343 -1.1214,-0.1828 -2.12,-0.3362 -1.4511,-0.3178 -2.9566,-0.5301 -3.7931,-0.6605 l -0.085,-0.0345 -0.0402,0.0141 c -0.1285,-0.0184 -0.237,-0.036 -0.3229,-0.0521 -0.2276,-0.0426 -0.7095,-0.0499 -0.644,-0.2719 0.1445,-0.5014 0.015,-1.0414 0.5932,-2.1248 0.171,-0.3138 0.345,-1.5211 0.4825,-1.9528 0.1653,-0.5185 0.5015,-1.5001 0.6866,-1.9962 0.1593,-0.4257 0.466,-1.0267 0.6596,-1.4709 0.1414,-0.326 0.2367,-0.682 0.39,-0.9941 0.4221,-0.858 0.7314,-1.3532 1.2424,-2.0055 0.1704,-0.2149 0.4766,-0.6162 0.6574,-0.8008 0.1803,-0.1822 0.4459,-0.4124 0.633,-0.5672 0.4274,-0.3529 0.9669,-0.6111 1.3943,-0.843 0.7677,-0.417 1.3933,-0.688 1.9092,-0.8476 0.2508,-0.0751 0.5612,-0.1457 0.7047,-0.1995 0.3645,-0.1375 0.2211,-0.2146 -0.5449,-0.3858 -0.4702,-0.1041 -1.2415,-0.3739 -2.3119,-0.4397 -0.373,-0.0227 -0.8898,-0.028 -1.3362,-0.1114 -0.5281,-0.1003 -1.2334,0.2035 -1.7085,0.4825 -0.532,0.3124 -0.8515,0.5054 -1.2852,1.0941 -0.1942,0.2606 -0.3524,0.6736 -0.5213,0.9587 -0.5766,0.9737 -1.0474,1.8091 -1.2648,2.5713 -0.2206,0.6962 -0.3711,1.5458 -0.5429,2.1093 -0.5249,1.7218 -0.8557,2.865 -1.1942,3.6916 -0.1151,0.2811 -0.1375,0.3721 -0.3413,0.4115 -0.1723,0.0332 -0.2313,-0.1553 -0.28,-0.2324 -0.497,-0.7625 -0.872,-1.6824 -1.4131,-2.4446 -0.476,-0.6687 -1.1058,-1.1897 -1.6934,-1.7348 -0.7356,-0.6806 -1.5429,-1.2818 -2.6793,-1.4485 -0.3566,-0.0496 -0.8691,-0.0451 -1.2756,-0.0289 -0.7368,0.0292 -1.5288,0.3041 -2.6093,0.5394 -1.1461,0.25 -3.0677,0.4159 -4.2687,0.8221 -1.1869,0.4002 -1.2614,0.623 -0.6491,0.8838 1.3872,0.0301 4.7202,-0.0329 6.0117,0.1613 1.2427,0.1842 2.1875,0.6789 3.2283,1.4621 0.5202,0.3926 0.9063,0.8878 1.3731,1.4525 0.3731,0.4493 0.919,1.0987 1.1016,1.6959 0.1108,0.0658 0.5479,0.8516 0.9487,1.6963 -0.3154,-0.0238 -0.5992,0.01 -0.8518,-0.0264 -0.4637,-0.0657 -0.8166,-0.0527 -1.1097,-0.115 -0.5862,-0.1256 -0.8912,-0.2974 -1.0659,-0.317 -0.303,-0.034 -0.3435,-0.0351 -0.7259,-0.083 -0.2985,-0.038 -0.3305,-0.182 -0.6299,-0.2308 -0.2829,-0.0453 -0.3016,-0.064 -0.5181,-0.1468 -0.1469,-0.0547 -0.3739,-0.0683 -0.4383,-0.1488 -0.3206,-0.265 -0.7098,-0.1684 -0.9714,-0.3288 -0.2551,-0.023 -0.7776,0.1683 -0.9717,0.5536 -0.004,0.009 -0.2016,0.4734 -0.2223,0.5213 -0.1411,0.3384 -0.2956,0.5848 -0.3189,0.593 0.021,0.8594 0.7422,1.1644 1.2439,1.2455 l 0.9275,0.1505 c 0.5199,-0.0518 1.199,0.1996 2.0868,0.3552 1.1756,0.205 2.5844,0.1984 3.8623,0.5366 0.2559,0.0669 0.477,0.1253 0.6732,0.1749 0.2336,0.5899 0.5068,1.2314 0.7815,1.9092 0.4853,1.8819 2.1648,6.3099 2.7207,8.9141 l 0.4881,3.1019 -0.0425,0.006 c 0.0626,0.3937 -0.4184,0.9915 -0.3614,1.3566 v 0 l 0.0428,-0.0578 c 0.0122,0.0811 0.0272,0.1389 -0.0111,0.2188 l 0.003,0.004 0.0168,-0.0247 c 0.0345,0.2245 0.1876,0.4403 0.3682,0.5681 l 0.2829,-0.0278 -0.0133,0.003 c 0.735,-0.1058 1.4907,-0.4524 2.152,-0.7444 l -0.005,-0.0349 0.1375,-0.0981 c 0.0493,-0.008 0.1346,-0.1814 0.138,-0.2466 0.1313,-0.0572 0.2651,-0.1856 0.2634,-0.3384 0.1179,-0.074 0.2681,-0.2396 0.2435,-0.3932 l 0.0261,-0.004 c 0.0374,-0.2301 0.1902,-0.2939 0.1638,-0.5431 0.2517,-0.2613 -0.2874,-1.1506 -0.4516,-1.3799 l -0.051,0.007 c -0.0592,-0.3738 -0.2307,-0.8943 -0.4609,-1.1979 l -0.1653,-0.4328 c 0.001,0 -0.0283,-0.059 -0.0345,-0.0842 -0.6937,-1.4122 -1.6626,-4.5944 -2.2405,-6.4256 l 0.0246,-0.006 z"
       style="fill:#231916;fill-opacity:1;fill-rule:evenodd;stroke:none"
       id="path132" />
    <path
       d="m 355.1692,600.342 c 0.5153,-0.2985 0.394,-0.6174 0.4728,-1.0497 0.0425,-0.2293 0.1891,-0.4173 0.1332,-0.6925 -0.0873,-0.4374 -0.9881,-1.3774 -1.2699,-1.4341 -0.3634,-0.0711 -0.6267,-0.0221 -1.019,-0.0442 -0.2469,-0.0873 -0.4944,-0.1772 -0.7427,-0.2647 -0.8552,-0.3085 -1.7839,1.5667 -1.5239,2.2912 0.5791,0.3861 1.2098,0.3421 1.8669,0.4995 0.3373,0.0799 0.5765,0.3585 0.9017,0.4728 0.3421,0.1196 0.8314,0.1471 1.1809,0.2217 z m 22.1902,1.7846 c -1.6597,-0.3977 -3.8223,-0.7409 -4.6877,-1.0074 -0.172,-0.0462 -0.2744,-0.4294 -0.2324,-0.5485 0.1,-0.2863 0.2616,-0.6338 0.2557,-0.9122 -0.1273,-0.1051 -0.8119,-0.0215 -1.0795,-0.0791 -0.4464,-0.0986 -0.6417,-0.0394 -1.1837,-0.0482 -0.7889,-0.0136 -1.0797,0.0448 -1.4023,-0.2369 -0.2138,-0.1877 0.1131,-1.6886 -0.1899,-2.1926 -0.3308,-0.548 -1.3641,-0.3952 -1.4721,-1.0256 0.2727,-0.2883 0.3439,-0.5658 0.2038,-0.8958 0.2977,-0.1074 0.8873,0.021 1.4281,0.0732 0.3498,0.0326 0.5735,-0.0774 0.8102,0.1281 0.0487,0.0442 0.1,0.0876 0.1502,0.1313 -0.0833,0.6389 -0.2126,1.195 0.1429,1.8504 0.0589,0.1125 0.2741,0.7741 0.8419,1.0023 0.3705,0.148 0.5088,0.7685 0.8345,0.8289 0.4941,0.0944 0.8997,-0.023 1.226,-0.1653 0.6939,-0.6267 -0.0397,-1.4797 0.3305,-2.2918 0.4742,-0.2863 2.7068,0.6647 3.2323,0.8635 0.006,0.0243 0.0117,0.0493 0.0165,0.0717 -0.8606,0.6925 -1.9185,1.3189 -1.8553,2.198 0.7903,0.8591 2.4429,-0.3096 3.3891,-0.696 0.7081,-0.288 1.1095,0.0726 1.6778,-0.1646 0.8232,-0.3416 1.2079,-4.1979 0.1644,-4.5976 -2.1407,0.6795 -6.9253,-0.3206 -9.4053,-0.9147 -0.0201,-0.0422 -0.0386,-0.0828 -0.0573,-0.1227 0.1216,-0.1968 0.0664,-0.2872 0.0224,-0.4907 1.0194,-0.8306 2.266,-1.4604 3.3982,-2.2978 0.362,-0.2679 0.7648,-0.8966 1.1758,-2.1897 0.2526,-0.7923 -0.758,-1.0438 -0.9561,-1.2833 -0.4419,-0.2965 -0.8513,-0.0624 -1.7238,-0.0366 -0.5054,0.0134 -1.1999,0.2637 -1.7977,0.4065 -0.5902,0.1443 -1.0826,0.1806 -1.7419,0.4043 -0.5284,0.1802 -1.5145,0.3194 -2.0735,0.5042 -1.1441,0.3793 -2.314,0.6591 -3.4087,0.9933 -0.2092,0.0213 -0.4068,0.0476 -0.4595,0.0893 -0.1233,-0.0105 -0.2494,0.0782 -0.3396,0.1533 l -0.0181,-0.0226 -0.36,0.1613 0.015,-0.005 c -0.0145,0.0133 -0.0369,0.0281 -0.0604,0.0434 -0.0989,0.0383 -0.1936,0.076 -0.2877,0.1168 -0.1769,0.0745 -0.3489,0.1513 -0.5204,0.2253 -0.1712,0.0479 -0.3187,0.0658 -0.3929,0.0255 l -0.1735,0.1432 -0.1939,-0.2356 0.47,-0.386 0.008,0.009 0.003,-10e-4 c 0.07,-0.297 0.8952,-0.3597 1.1225,-0.5456 l 0.0269,0.0323 0.6015,-0.2279 c 0.0505,-0.1092 0.5579,-0.385 0.6682,-0.4748 0.008,-0.0859 0.0306,-0.1676 0.0983,-0.2282 v 0 l -0.013,0.0116 0.0303,-0.271 -0.001,-0.003 c 0.083,-0.0678 0.0609,-0.2421 0.1241,-0.3274 l -0.0827,-0.1004 c 0.1516,-0.1256 0.1151,-0.1074 0.1301,-0.2718 v 0 c 0.004,-0.0476 -0.0587,-0.1211 -0.0896,-0.1579 l 0.0235,-0.0173 -0.0124,-0.4116 -0.1625,-0.235 0.0312,-0.0241 -0.1939,-0.2358 -0.0309,0.0252 -0.0328,-0.04 -0.3963,-0.002 -0.0145,-0.0182 -0.4,-0.0348 -0.0141,0.0107 -0.0978,-0.0436 -0.2223,-0.0868 -0.1091,0.0888 c -0.1329,-0.1613 -0.1488,-0.091 -0.3419,-0.1126 l -0.0861,0.0712 -0.0434,-0.0533 c -0.6316,0.0629 -0.7387,0.1355 -1.3385,0.1304 -0.1284,-0.003 -0.3433,-0.0105 -0.5083,-0.0808 -0.1335,-0.057 -0.1545,-0.144 -0.2452,-0.2319 -0.1063,-0.1012 -0.261,-0.2216 -0.1879,-0.3631 0.0694,-0.1318 0.4093,-0.275 0.5034,-0.3095 l -0.003,8e-4 c -0.0357,0.0292 0.0666,-0.0388 0.1105,-0.0502 l -0.0167,0.0136 c 0.1202,-0.0955 0.3093,-0.089 0.4238,-0.1831 v 0 c 0.009,0.0114 0.9661,-0.3639 1.8145,-0.7438 0.9019,-0.4042 2.0661,-1.008 2.0902,-1.0131 l -0.0175,0.0139 c 0.8075,-0.6437 0.5102,-0.5168 0.8798,-1.4397 l -0.0479,-0.0604 c 0.1324,-0.1108 0.1267,-0.1485 0.142,-0.3039 l -0.102,-0.1244 0.1278,-0.1046 c -0.007,-0.2945 0.3048,-0.8921 0.078,-1.1393 -0.5647,-0.6199 -0.3113,-0.492 -1.1154,-0.2148 -0.3093,0.1049 -0.7816,0.4921 -1.0713,0.6236 -0.6077,0.2755 -1.1321,0.6109 -1.7257,0.8717 -0.7007,0.3078 -1.2759,0.756 -1.9054,1.0309 -0.6585,0.288 -0.9545,0.7132 -1.4976,0.8892 v 0 c 0.0227,0.0298 -0.3841,0.0188 -0.4351,0.0601 -1.1568,-1.2866 -2.8956,-4.1598 -3.9166,-5.4584 -0.2688,-0.7956 -0.866,-1.0981 -1.4644,-1.5579 l -0.0241,0.0187 -0.5219,-0.6222 0.0142,0.007 c -0.0377,-0.019 -0.0621,-0.0392 -0.0864,-0.0692 l 0.0136,0.005 -0.5712,-0.3436 -0.0508,0.0414 c -0.1669,-0.2024 -0.3665,-0.398 -0.4799,-0.2908 -0.3146,0.2976 -1.2617,1.1809 -2.2283,2.0415 l 0.005,0.0215 -0.1644,0.4935 0.0462,0.0562 -0.1244,0.1006 c -0.009,0.0947 -0.2101,0.4501 -0.1523,0.5213 l -0.0136,0.009 c -0.01,0.1241 -0.1825,0.5136 -0.2687,0.6052 l 0.005,0.006 -0.1596,0.2577 c 0,0 -0.3101,0.3812 -0.3254,0.5368 v 0 c -0.055,0.5814 -0.2585,2.327 -0.6931,2.687 0.004,0.0765 -0.0291,0.148 -0.0861,0.1962 l 0.002,-0.002 -0.1247,0.58 0.1034,0.1809 -0.1599,0.1697 c 0.008,0.0326 0.0128,0.0621 0.0216,0.0953 0.2534,0.0485 0.678,-0.4757 1.3138,-1.148 0.406,-0.4289 0.8402,-0.6985 1.2694,-1.1665 0.3348,-0.3645 0.5247,-0.8385 0.7971,-1.1761 0.1939,-0.2424 0.3495,-0.4436 0.5145,-0.5703 0.1049,-0.0788 0.2514,-0.1174 0.2951,-0.1537 0.0487,0.0604 0.0975,0.1214 0.1494,0.1866 0.6536,0.8444 1.4448,2.1478 1.9805,2.8423 0.4683,0.6083 1.1821,1.472 1.8357,2.1753 -0.6264,0.5153 -4.9529,2.2396 -5.1573,2.1512 l 0.0675,0.0309 c -0.5554,0.4561 -1.9812,0.7574 -2.0606,1.6534 v -5e-4 c -0.0348,-0.0165 -0.0158,0.0765 -0.0377,0.108 l 0.0261,0.032 c -0.1854,0.1525 -0.2106,0.3679 -0.3345,0.553 l 0.0573,0.0698 c -0.1466,0.1287 -0.4487,0.8912 -0.3178,1.0508 l -10e-4,0.002 -0.0621,0.4 0.0227,0.0272 -0.0882,0.1814 v 0 c -0.0547,-0.068 -0.009,0.1778 0.0462,0.2467 l -0.0515,0.0433 c -0.008,0.082 -0.007,0.1228 -0.0423,0.203 0.0944,0.0737 0.296,0.5003 0.4607,0.4623 0.388,0.4692 1.1293,-0.4668 1.4711,-0.4663 1.6053,-0.7931 1.4287,-1.0715 2.7788,-1.7495 1.495,-0.7515 3.4368,-1.8224 3.6695,-2.014 l 0.119,-0.0556 v 0 c 0.2951,-0.2441 1.3272,-0.4946 1.9557,-0.5102 0.7441,-0.0153 1.1083,0.4768 1.5049,0.7636 l 0.2863,0.0244 c 0.2148,0.0349 0.4135,0.1335 0.589,0.303 l 0.4754,0.3986 c -0.4306,0.3554 -0.6273,0.8047 -1.0287,1.1446 l 0.004,-0.002 -0.2194,0.2203 0.0275,0.0337 c -0.4797,0.3954 -0.8867,0.591 -0.9956,1.1843 l 0.0153,0.0173 -0.0212,0.0173 0.1289,0.3852 c 0.118,-0.0244 0.4678,0.008 0.561,0.0862 0.1333,-0.0723 0.6557,-0.1599 0.7869,-0.148 v 0 c 0.0936,0.0128 0.1956,-0.1207 0.2583,-0.1718 l 0.0995,0.1165 -0.002,0.002 v 0 c 0.2537,-0.2064 1.4635,-0.1165 1.7719,-0.0791 l 0.0794,-0.066 0.045,0.0533 c 0.1928,-0.0644 0.3782,-0.0573 0.5443,-0.1537 0.0411,0.002 0.0822,0.003 0.1219,0.006 l 0.0164,0.0193 0.0802,-0.0114 c 0.1968,0.0162 0.3972,0.04 0.597,0.0403 0.2154,-6e-4 0.4468,-0.0822 0.6395,-0.127 2.7077,-0.6398 5.5582,-0.8923 8.0487,-0.9536 0.021,0.025 0.0425,0.0505 0.0635,0.0768 -9e-4,0.0151 -0.002,0.0307 -0.005,0.0457 -1.7416,1.5168 -4.7356,2.1112 -6.916,2.8669 -1.4295,0.4961 -3.2054,1.1373 -4.4382,1.5713 -0.1857,0.0272 -0.4053,0.1601 -0.6231,0.3515 v 0 c -0.0317,0.0181 -0.064,0.0314 -0.0972,0.0385 -0.0414,0.0323 -0.0796,0.0562 -0.1443,0.061 -0.017,0.005 -0.0331,0.0102 -0.0513,0.0124 -0.0309,0.0213 -0.0833,0.0463 -0.1179,0.0562 -0.0187,0.0113 -0.0374,0.0227 -0.0618,0.0303 -0.0278,0.0235 -0.0507,0.042 -0.0856,0.0561 l -0.563,0.4655 -0.0354,-0.0459 c -0.0816,0.0691 -0.1514,0.136 -0.2463,0.1839 l -0.2889,0.2393 c -0.0141,0.0164 -0.0297,0.0354 -0.0439,0.0504 -0.0207,0.07 -0.0578,0.1168 -0.1128,0.1625 l 0.003,0.005 -1.0616,0.873 c -0.0113,0.0278 -0.0278,0.0516 -0.0485,0.0732 -0.0113,0.032 -0.0309,0.0618 -0.0555,0.0881 -0.0176,0.0482 -0.0459,0.1097 -0.0763,0.1455 -0.007,0.0595 -0.0351,0.1167 -0.0847,0.1584 v 0 l 0.0501,-0.0411 c -0.002,0.0298 -0.005,0.0564 -0.0127,0.0856 l 0.0405,0.0502 -0.002,0.002 0.2744,0.333 c 0.0213,0.0253 0.0349,0.0527 0.0434,0.0791 0.0181,0.0227 0.0312,0.0471 0.0397,0.0737 l 0.1392,0.1684 -0.0788,-0.007 v 0 c 0.0456,0.004 0.0901,0.0221 0.1287,0.0522 0.0172,0.009 0.0334,0.0144 0.0513,0.0235 h 8e-4 c 0.042,0.0502 0.1678,0.0513 0.2254,0.0564 v 0 c 0.0164,0.002 0.0666,-0.0125 0.0972,-0.0122 0.0448,-0.01 0.0955,-0.0196 0.1409,-0.0201 l 0.2188,-0.1797 0.0919,0.1122 c 0.0291,-0.005 0.0592,-0.005 0.0884,6e-4 0.0303,-0.0139 0.0646,-0.0227 0.1009,-0.0241 0.0241,-0.0153 0.0678,-0.0318 0.095,-0.0403 0.0272,-0.0218 0.0535,-0.0399 0.0873,-0.0501 0.0482,-0.0394 0.1032,-0.0933 0.1615,-0.1131 0.0162,-0.0119 0.0321,-0.0241 0.0491,-0.0335 l 0.248,-0.2066 0.0547,0.0683 c 0.0193,-0.009 0.0414,-0.0159 0.07,-0.0224 0.0428,-0.0278 0.1511,-0.0658 0.2039,-0.0774 0.0328,-0.0164 0.0703,-0.0261 0.1105,-0.0275 0.0329,-0.0156 0.072,-0.0244 0.1131,-0.0244 0.0618,-0.0139 0.0791,-0.0309 0.1287,-0.0717 l 0.0238,0.0298 c 0.0221,-0.004 0.0454,-0.006 0.0672,-0.005 0.0269,-0.01 0.0544,-0.0142 0.0839,-0.015 0.0349,-0.0182 0.0765,-0.027 0.1193,-0.0236 0.0375,-0.0133 0.0638,-0.0246 0.1035,-0.0345 0.0371,-0.0185 0.0791,-0.0284 0.1216,-0.0258 0.0264,-0.007 0.0542,-0.0134 0.0788,-0.0196 0.0278,-0.0218 0.0564,-0.0385 0.0834,-0.0615 l 0.008,0.011 c 0.0243,-0.007 0.049,-0.0107 0.0728,-0.0104 0.0261,-0.0122 0.0559,-0.0219 0.0879,-0.0236 0.0261,-0.009 0.0598,-0.0246 0.0833,-0.0294 0.0596,-0.0145 0.1131,-0.0499 0.18,-0.0514 0.0202,-0.0133 0.0465,-0.0221 0.0735,-0.0297 0.1632,-0.0326 0.3245,-0.0669 0.4793,-0.0904 2.0217,-0.3062 4.2704,-2.4177 5.7209,0.3523 -0.0414,0.1911 0.0944,0.8906 -0.199,0.9802 -0.4281,-0.017 -1.1217,-0.1273 -1.5492,-0.1445 -0.4152,0.0215 -1.3147,-0.0763 -1.9391,0.083 -0.26,0.0655 -0.4896,0.1415 -0.6461,0.2239 -0.001,0.0165 -0.004,0.0321 -0.004,0.0468 0.1692,0.2106 0.3637,0.4618 0.5856,0.6112 0.9649,0.6409 2.3454,0.7285 3.3939,1.0034 -0.0666,0.3272 -0.1887,0.7563 -0.216,1.1951 -0.0521,0.8402 -0.6069,0.2327 -1.0536,0.3351 -0.4484,0.1034 0.1585,-0.1301 0.005,-0.6401 -0.1556,-0.5125 -1.4326,-0.5768 -1.7731,-0.6687 -0.3427,-0.0918 -0.6531,0.1109 -0.9453,-0.1803 -0.6061,-0.6018 -1.1798,-2.1152 -2.2864,-1.4153 -0.203,0.1261 -1.4554,1.7473 -1.245,1.8802 0.1258,0.3028 0.5408,0.8473 0.6565,0.9893 0.4308,0.5216 1.1069,1.5214 1.3068,2.3309 0.0824,0.3348 -0.0179,0.6512 -0.0686,0.8947 -0.0312,0.1465 0.1156,0.1845 0.1899,0.2077 0.6366,-0.4286 1.2132,-1.5919 1.2515,-2.2804 0.4223,-0.8887 1.6815,1.563 2.2152,1.9709 0.434,0.335 0.9284,-0.0919 1.0398,-0.3422 0.112,-0.2511 0.002,-1.2251 -0.2852,-1.5732 -0.2866,-0.3484 0.4295,-0.5131 0.4295,-0.5131 l 0.7248,0.9457 c 0,0 0.1482,0.5686 -0.2435,0.9972 -0.2687,0.2948 -0.451,1.3181 -0.3095,1.7487 0.1814,0.5655 0.9345,-0.3365 1.0797,-0.3025 0.5091,-0.0476 0.8671,-0.2174 1.3575,-0.466 0.3549,-0.1811 0.5153,-0.3396 0.8294,-0.5323 0.7053,-0.4303 0.0318,-1.9953 0.8467,-2.0472 1.9888,0.6137 4.1698,1.19 6.1566,1.9426 l 3e-4,-10e-4 0.2041,0.079 c 0.1811,0.0307 0.6848,0.0837 0.7574,0.1939 0.0289,0.009 0.0567,0.025 0.0799,0.0445 0.0405,0.0165 0.1315,0.0698 0.1599,0.097 0.2072,0.1202 0.4249,0.1505 0.6264,0.3101 0.0275,0.0127 0.0786,0.0405 0.1021,0.0604 0.0502,0.0195 0.112,0.0586 0.1443,0.0997 0.2256,0.1571 0.6891,0.4955 0.6834,0.7702 -0.002,0.0749 0.0281,0.0981 0.0678,0.1624 0.2826,0.4615 0.2114,0.1531 0.3126,0.6024 0.025,0.0357 0.0706,0.0884 0.0822,0.1313 l 0.0672,0.1026 c 0.0128,-0.005 0.0255,-0.009 0.0405,-0.0117 0.3561,-0.2358 0.1284,-0.007 0.419,-0.197 0.0173,-0.0243 0.0383,-0.0467 0.0646,-0.0649 0.0136,-0.0184 0.0284,-0.036 0.0459,-0.0516 0.0635,-0.1272 0.5358,-0.5252 0.5695,-0.5471 0.01,-0.0144 0.0196,-0.028 0.0298,-0.0391 0.015,-0.0456 0.0459,-0.0802 0.0805,-0.1046 0.1664,-0.1289 0.0689,-0.0448 0.1749,-0.2177 0.0646,-0.1074 0.1638,-0.2103 0.2506,-0.269 0.0283,-0.0255 0.0431,-0.0507 0.0779,-0.0768 0.0134,-0.0252 0.0306,-0.0493 0.0505,-0.0706 0.009,-0.017 0.0184,-0.0334 0.03,-0.0485 0.0105,-0.0688 0.0494,-0.1184 0.0907,-0.1717 0.0125,-0.0287 0.0298,-0.0587 0.0553,-0.0848 0.0142,-0.0482 0.0423,-0.093 0.0839,-0.1275 0.0219,-0.0454 0.0525,-0.0916 0.0904,-0.1248 0.0139,-0.0195 0.0315,-0.0371 0.0502,-0.0535 0.0182,-0.0253 0.0403,-0.0485 0.0669,-0.0675 0.007,-0.0102 0.0145,-0.0184 0.0224,-0.0272 0.006,-0.0193 0.0139,-0.036 0.0221,-0.053 0.0148,-0.07 0.0236,-0.1032 0.0584,-0.1656 0.007,-0.0113 0.0139,-0.0618 0.0184,-0.0776 0.0122,-0.061 0.0454,-0.1061 0.059,-0.1608 0.0111,-0.0555 0.0213,-0.1182 0.0473,-0.1672 0.017,-0.0916 0.0457,-0.0576 0.0219,-0.1417 -0.009,-0.0375 -0.0128,-0.0743 -0.008,-0.1109 -0.007,-0.0575 0.0136,-0.1085 0.0207,-0.165 -0.006,-0.0456 -0.0102,-0.085 9e-4,-0.1312 -6e-4,-0.0128 -0.002,-0.0244 -0.003,-0.0366 -0.009,-0.0337 -0.0107,-0.0691 -0.006,-0.1057 -0.004,-0.0272 -0.003,-0.0731 -0.002,-0.104 -0.01,-0.0326 -0.0127,-0.0655 -0.009,-0.0995 -0.021,-0.0593 -0.0204,-0.1242 2e-4,-0.1829 0.003,-0.0365 -0.0221,-0.0773 -0.0119,-0.1434 -0.0107,-0.0414 -0.009,-0.0853 -2e-4,-0.1244 -0.003,-0.025 -0.007,-0.0508 -0.007,-0.0757 -0.0116,-0.044 -0.0258,-0.0893 -0.0226,-0.135 -0.009,-0.0272 -0.0142,-0.0649 -0.0148,-0.0946 l -0.1616,-0.2461 c -0.0547,-0.0195 -0.0884,-0.0646 -0.1238,-0.1173 -0.0213,-0.0343 -0.0527,-0.0488 -0.0785,-0.0851 -0.0522,-0.0263 -0.1211,-0.1564 -0.2194,-0.2214 -0.0565,-0.0286 -0.1197,-0.1074 -0.18,-0.1199 v 0 c -0.0437,-0.01 -0.0882,-0.017 -0.1279,-0.0396 -0.0144,-0.003 -0.0295,-0.006 -0.0439,-0.0117 -0.1693,-0.011 -0.5502,-0.0232 -0.7022,-0.1009 -0.0363,0.002 -0.134,-0.008 -0.1681,-0.0201 -0.0904,0.007 -0.0793,0.0139 -0.1598,-0.0366 -0.0312,0.006 -0.0882,-0.002 -0.1177,-0.0127 -0.0431,0.0107 -0.0876,0.0113 -0.1287,10e-4 -0.0348,8e-4 -0.0688,-10e-4 -0.1054,-10e-4 -0.4227,0.0958 -0.8394,0.0635 -1.2799,0.008 -0.0462,0.004 -0.1065,0.0266 -0.1559,0.0238 -0.0243,3e-4 -0.0499,0.006 -0.0742,0.006 -0.0289,0.0105 -0.057,0.0148 -0.0845,0.0119 l -0.2767,0.008 0.005,-0.005 z"
       style="fill:#231916;fill-opacity:1;fill-rule:evenodd;stroke:none"
       id="path136" />
    <path
       d="m 280.2739,605.7244 c 0.7075,0.1301 1.2844,0.4816 1.8709,0.828 0.3625,0.2143 0.7446,0.4535 1.1466,0.5315 1.3317,0.2574 2.2382,-0.9482 1.7348,-2.2643 -0.3288,-0.8589 -0.673,-1.7116 -0.9998,-2.5716 -0.1142,-0.3016 -0.197,-0.6157 -0.3226,-1.014 0.3889,-0.1414 0.7146,-0.2744 1.0497,-0.3778 0.3441,-0.1069 0.6987,-0.1823 1.0468,-0.2778 1.008,-0.2767 1.2209,-0.4734 1.243,-1.1415 0.025,-0.749 -0.5613,-1.5687 -1.2764,-1.804 -0.8209,-0.2704 -1.5526,-0.1185 -2.2065,0.4396 -0.3694,0.3138 -0.7413,0.6248 -1.1118,0.9377 -0.7942,-0.9286 -1.55,-1.7895 -2.2799,-2.6713 -0.661,-0.798 -1.923,-1.0182 -2.8071,-0.4578 -0.0556,0.0346 -0.1052,0.0788 -0.1582,0.1176 -1.1285,0.8348 -1.099,1.1225 0.0961,1.8595 0.8374,0.5162 1.6489,1.0783 2.4435,1.6592 0.3072,0.2247 0.5368,0.557 0.8059,0.8452 -0.1628,0.3887 -0.3226,0.7107 -0.4343,1.0486 -0.2061,0.6273 -0.0323,0.866 0.6168,0.879 0.3532,0.007 0.7075,-0.002 1.1228,-0.005 0.1817,0.6806 0.3475,1.3016 0.5026,1.8819 -0.4742,0.4014 -0.8966,0.4382 -1.3604,0.2183 -0.2055,-0.0976 -0.4478,-0.254 -0.6412,-0.216 -0.9218,0.1794 -1.2132,-0.4612 -1.6562,-1.0639 -1.3309,-1.8068 -2.4001,-3.757 -3.4251,-5.7413 -0.4352,-0.8421 -0.9536,-1.6429 -1.4698,-2.44 -0.1709,-0.2648 -0.4382,-0.4754 -0.6851,-0.6826 -0.3291,-0.2758 -0.6801,-0.25 -0.9647,0.064 -0.3727,0.4116 -0.7614,0.8204 -1.0567,1.2864 -0.2693,0.4232 -0.3118,0.9181 -0.11,1.4204 0.432,1.0766 1.0125,2.075 1.8845,2.8293 1.5695,1.3598 2.7541,2.9852 3.6688,4.8334 0.2163,0.4362 0.5245,0.8271 0.836,1.3107 -0.1874,0.2767 -0.3787,0.572 -0.5834,0.858 -0.1528,0.2124 -0.3589,0.3938 -0.4796,0.6223 -0.3688,0.695 -0.0765,1.3209 0.6874,1.4632 0.4513,0.0839 0.9167,0.0853 1.3703,0.1593 0.9575,0.157 1.5916,0.7798 1.8215,1.7118 0.0814,0.3317 0.0482,0.5897 -0.2764,0.7441 -0.2951,0.1401 -0.4649,-0.0309 -0.6624,-0.2443 -1.0959,-1.1809 -1.9619,-1.2847 -3.263,-0.4187 0.212,0.508 0.4249,1.0174 0.631,1.5109 -0.7146,0.5221 -0.7296,0.538 -1.2328,0.0317 -0.3546,-0.3566 -0.7044,-0.572 -1.2662,-0.2562 0.0538,0.3498 0.1216,0.6945 0.157,1.0426 0.0349,0.3492 0.038,0.7015 0.0542,1.0352 -0.5063,0.153 -0.6775,-0.1741 -0.8742,-0.4156 -0.1438,-0.1757 -0.2719,-0.3807 -0.3464,-0.5936 -1.0058,-2.8791 -2.7474,-5.377 -4.1528,-8.0489 -1.008,-1.9174 -2.0013,-3.8432 -2.975,-5.7782 -0.7664,-1.5239 -1.4578,-3.0849 -2.2473,-4.5955 -0.6675,-1.2776 -1.4258,-2.5073 -2.1512,-3.7539 -0.0981,-0.1687 -0.2276,-0.3209 -0.358,-0.4666 -0.8654,-0.9604 -1.2617,-0.8847 -1.7714,0.3257 -0.0765,0.18 -0.1601,0.3688 -0.2846,0.5153 -0.667,0.7855 -0.5728,1.6362 -0.2267,2.5036 0.3413,0.8529 0.7543,1.6806 1.0366,2.5517 0.1448,0.4482 0.5511,0.2285 0.7475,0.4638 0.5037,0.6046 1.112,1.1435 1.5143,1.8074 3.4744,5.7322 6.9105,11.4871 10.364,17.2312 0.239,0.3983 0.4221,0.7676 0.3923,1.2759 -0.0408,0.693 0.4972,1.165 1.0023,1.4848 0.3872,0.2457 0.6299,0.5366 0.8618,0.8906 0.684,1.042 1.3841,2.0733 2.0602,3.1195 0.129,0.1987 0.1823,0.4468 0.3552,0.8887 -0.6611,-0.2599 -1.1115,-0.4238 -1.5511,-0.6129 -1.2932,-0.5567 -2.585,-1.1182 -3.8716,-1.6905 -0.3288,-0.1472 -0.635,-0.3436 -0.953,-0.5154 -1.3615,-0.737 -2.7712,-1.0219 -4.2562,-0.4014 -0.9134,0.3816 -1.192,0.819 -1.141,1.6631 1.7745,0.4496 3.5748,0.7971 5.2991,1.374 1.7218,0.5748 3.46,1.169 5.1772,2.2033 -1.1631,0.7492 -2.1878,1.4281 -3.2329,2.0753 -0.5148,0.3189 -0.8388,0.731 -0.8538,1.3439 -0.0111,0.4969 0.2579,0.7489 0.7418,0.6185 1.1585,-0.3109 2.3318,-0.2962 3.5153,-0.3345 0.6993,-0.0226 1.4343,-0.2341 2.0732,-0.5326 0.9071,-0.4238 1.0585,-0.9652 0.7112,-2.0738 0.3334,0.11 0.5967,0.1678 0.8334,0.2812 0.7974,0.3832 1.567,0.8291 2.3808,1.1712 1.2768,0.5369 1.7221,0.1251 2.0866,-0.8251 0.0706,-0.184 0.1664,-0.3589 0.2322,-0.5443 0.3509,-0.989 -0.0457,-1.7798 -1.0477,-2.0644 -0.9411,-0.2671 -1.895,-0.4913 -2.827,-0.7841 -0.3248,-0.1023 -0.6931,-0.2866 -0.8861,-0.5488 -1.4054,-1.8984 -2.7726,-3.8259 -4.1468,-5.7478 -0.0748,-0.1046 -0.1106,-0.237 -0.1749,-0.3813 0.1329,-0.1805 0.2483,-0.3838 0.4073,-0.5422 0.4669,-0.4635 0.7064,-0.4278 1.0741,0.1122 0.2398,0.3521 0.4745,0.7115 0.75,1.0358 1.052,1.2416 1.9557,2.5492 2.014,4.2556 0.6149,0.3847 1.1852,0.1823 1.6909,-0.1187 0.1933,-0.1154 0.3555,-0.5026 0.3226,-0.7359 -0.0947,-0.6704 -0.2971,-1.3258 -0.4621,-2.0092 0.6634,-0.4748 0.7478,-0.5009 1.2754,0.013 0.3971,0.3856 0.7886,0.8082 1.0576,1.285 0.2225,0.3963 0.4963,0.4771 0.8736,0.4538 0.7033,-0.0448 1.2983,-0.5641 1.5667,-1.3164 0.2537,-0.7098 -0.032,-1.2084 -0.5831,-1.6172 -0.5272,-0.3909 -1.0222,-0.8404 -1.5931,-1.1522 -1.1477,-0.629 -1.8541,-1.6441 -2.5421,-2.6896 -0.0688,-0.1043 -0.0898,-0.2406 -0.1408,-0.3852 0.3937,-0.3827 0.756,-0.3549 1.0958,0.0278 0.3056,0.3433 0.5596,0.7396 0.8946,1.0488 0.3051,0.2815 0.6608,0.5562 1.0443,0.6917 0.5871,0.2075 0.9681,-0.0675 1.2082,-0.6611 0.1431,-0.3537 0.3259,-0.7007 0.5462,-1.0114 0.3838,-0.5405 0.3778,-0.9975 -0.144,-1.4663 -0.3901,-0.3498 -0.8365,-0.637 -1.2467,-0.9652 -0.6383,-0.5108 -0.6715,-0.6392 -0.4266,-1.4179 0.2489,-0.79 0.1295,-1.1333 -0.6004,-1.5426 -0.6293,-0.3535 -1.2878,-0.656 -1.9188,-1.0069 -0.7423,-0.4124 -1.1585,-1.0332 -1.2795,-1.887 z m -1.3697,8.7114 c 0.3886,0.6908 0.7566,1.2722 1.0397,1.8921 0.082,0.1798 -0.002,0.5641 -0.1488,0.6812 -0.125,0.0995 -0.4986,0.0196 -0.6755,-0.1043 -0.6451,-0.4507 -0.9082,-1.1665 -1.2526,-1.8998 0.3331,-0.1831 0.6145,-0.3376 1.0372,-0.5692 z m -3.9906,-5.7535 c -0.133,-0.5045 -0.2223,-0.8416 -0.279,-1.0564 0.241,-0.6245 0.6492,-1.1764 0.5956,-1.6784 -0.0607,-0.5602 -0.4592,-1.1486 -0.8572,-1.5928 -0.7384,-0.8246 -1.7246,-0.9904 -3.2012,0.1899 0.4397,1.9171 1.5183,3.1482 3.7418,4.1377"
       style="fill:#231916;fill-opacity:1;fill-rule:evenodd;stroke:none"
       id="path140" />
    <path
       d="m 225.6168,615.9538 c 0.0984,0.006 0.0618,0.0961 0.4884,0.026 0.3439,-0.1652 0.3597,-0.1403 0.7084,-0.2338 0.349,-0.0933 0.9859,-0.5633 1.586,-0.9791 0.6001,-0.4158 1.4406,-1.495 1.6721,-2.4242 0.2319,-0.9292 0.1696,-2.0826 -0.0379,-2.8936 -0.0508,-0.199 -0.3561,-0.9451 -0.5763,-1.8938 -0.2549,-1.0962 -0.4476,-2.4854 -0.8252,-3.9663 -0.184,-0.72 -0.5074,-1.5743 -0.6763,-2.2456 -0.1877,-0.7441 -0.2818,-1.4907 -0.4323,-2.0557 -0.178,-0.6681 -0.3889,-1.1792 -0.4657,-1.413 -0.4244,-1.2952 -0.9635,-3.0592 -1.3031,-3.2933 0,0 0.1272,2.3122 0.2075,4.0518 0.0345,0.7526 0.0603,1.3981 0.0632,1.7028 -0.0261,0.8838 0.1706,1.8133 0.1842,2.6841 0.0363,2.3661 -0.0255,4.6647 -0.0462,7.2102 0.0315,0.9386 -0.0938,1.774 -0.2747,2.668 -0.1822,0.9011 -0.6976,2.7238 -0.2721,3.0555 z m 13.1794,-27.1798 0.9284,-0.9737 0.0728,-0.0456 c 0.3464,-0.5408 0.6715,-1.199 0.8771,-1.6911 0.1108,-0.2648 0.2709,-0.4335 0.3764,-0.5511 0.148,-0.1655 0.339,-0.0779 0.7554,0.0794 0.2254,0.0847 0.4269,-0.0168 0.6271,0.011 0.2636,0.0366 0.4456,-0.1006 0.5448,-0.1805 0.1168,-0.095 0.4552,-0.3649 0.5564,-0.648 0.1242,-0.3464 0.1313,-0.7311 0.1735,-0.9576 0.0768,-0.4119 0.0564,-0.7013 0.0564,-0.7013 -0.0119,-0.5485 -0.0119,-0.8178 0.0746,-1.3099 0.1176,-0.6684 0.102,-1.1661 0.102,-1.1661 0.2659,-0.0987 0.4181,0.0759 0.6058,0.2579 0.4938,0.4785 0.8881,1.4664 0.8881,1.4664 0.2752,0.9059 0.6553,0.9453 0.9201,1.137 0.2579,0.1868 1.2549,0.005 1.7852,-0.4267 0.5752,-0.4688 0.5783,-1.273 0.3822,-1.5505 -0.5298,-0.7503 -1.0367,-1.3031 -1.5781,-2.0517 -0.3926,-0.5429 -0.8203,-1.2802 -1.2081,-1.8315 -0.0337,-0.1227 -0.6545,-0.6247 -0.8025,-1.3657 -0.1295,-0.6475 -1.1897,-1.1628 -1.5131,-1.0933 -0.6044,0.1295 -2.177,0.534 -2.3947,1.1823 -0.1786,0.5323 -0.4366,1.4318 -0.5015,1.5758 -0.0802,0.1771 -0.0204,1.709 -0.4297,2.5809 -0.2713,0.578 -0.4916,0.9216 -0.6208,1.3017 -0.0868,0.2545 -0.1743,0.3166 -0.3722,0.3773 0,0 -0.358,-0.0216 -0.7685,-0.0533 -0.2593,-0.0204 -0.5556,-0.2716 -0.8285,-0.2532 -0.1738,0.012 -0.616,-2e-4 -0.7507,0.0448 -0.1709,0.0573 -0.2313,0.2498 -0.0507,0.563 0.0541,0.0941 0.0944,0.3767 0.1894,0.4878 0.0827,0.097 0.1882,0.2104 0.2522,0.2866 0.0434,0.0513 0.1568,0.1627 0.1897,0.1973 0.4195,0.4365 1.0148,0.7279 1.0148,0.7279 l -0.0465,0.1256 c -0.0765,0.169 -0.1137,0.2849 -0.2965,0.4726 -0.1412,0.1445 -0.4527,0.3755 -0.7061,0.6721 -0.2078,0.2429 -0.8688,1.4343 -1.2164,2.2115 l -0.4739,0.6872 0.001,8e-4 -0.007,0.01 -0.2083,-0.2457 c -0.1647,-0.2917 -0.1625,-0.7464 -0.4621,-0.974 0.0411,-0.0595 -0.3725,-0.5562 -0.2792,-0.6914 l -0.0904,-0.3209 -0.0448,-0.0309 c 0.0748,-0.1522 -0.0264,-0.2262 0.003,-0.3758 -0.0992,-0.0686 -0.8022,-2.5614 -0.8977,-2.4228 h -3e-4 c -0.007,-0.0388 -0.0122,-0.0692 -0.008,-0.104 -0.2993,-0.2515 -0.5845,-0.3022 -0.9606,-0.4017 -0.0797,0.1154 -0.3884,-0.0856 -0.5196,-0.1372 l -0.2194,0.1125 -0.0114,-0.008 c -0.8489,0.5853 -1.0556,1.5364 -0.9657,2.4658 0.0215,0.0148 0.1358,0.7535 0.1125,0.8348 0.0663,0.2019 -0.1536,0.2597 -0.0374,0.7314 l -0.002,0.003 c 0.0851,0.2223 0.1582,0.5797 0.0856,0.8121 l -0.005,0.1673 c 0.0734,0.2384 0.091,0.4479 -0.009,0.7503 0.0204,0.0956 0.002,0.1746 0.0703,0.2568 -0.0182,0.0451 0.1315,0.7226 0.1513,0.8615 0.0278,0.2446 0.1041,0.6191 0.1568,0.8654 0.0757,0.0522 0.1431,0.739 0.1599,0.8674 0.009,0.006 0.0224,1.3779 0.0286,1.5341 l 0.008,0.0717 0.1103,0.3884 c -0.1,0.1599 0.1503,0.8779 0.142,0.8898 0.0187,0.1046 0.127,0.9116 0.1259,0.9133 l 0.0556,0.3127 c -0.0482,0.0961 -0.036,0.1882 -0.0842,0.2843 -0.0457,0.0913 -0.1517,0.1871 -0.1973,0.2786 l -0.2563,-0.1769 c 0.0842,-0.1218 -0.2044,-0.5195 -0.3353,-0.6097 0.0142,-0.0201 -0.5029,-1.1044 -0.6704,-1.22 0.0408,-0.059 -0.3124,-0.9726 -0.4144,-1.0429 0.0311,-0.0453 -0.692,-1.1886 -0.5763,-1.3561 -0.0406,-0.1769 -0.4762,-0.9538 -0.4641,-0.9714 -0.1646,-0.1352 -0.4719,-0.9595 -0.4025,-1.0602 -0.045,-0.0983 -0.0496,-0.2922 -0.1355,-0.3515 l 0.0105,-0.0153 c -0.0734,-0.1375 -0.3532,-0.5842 -0.2922,-0.6724 -0.0547,-0.0921 -0.0375,-0.2897 -0.133,-0.3554 l 0.006,-0.008 c -0.1165,-0.3781 -0.3339,-0.612 -0.3912,-1.015 l -0.0289,-0.0202 0.0184,-0.0263 -0.0915,-0.2534 c -0.0556,-0.3022 -0.2438,-0.7765 -0.3484,-1.1469 l -0.0233,-0.12 c -0.043,-0.1459 -0.2168,-0.7817 -0.1601,-0.8642 -0.0556,-0.0933 -0.0238,-0.2943 -0.1259,-0.3649 l 0.009,-0.0138 c -0.1273,-0.6951 -0.7985,-1.8329 -0.8858,-2.3571 h -3e-4 c -0.0703,-0.3872 -1.2745,-1.3161 -1.6478,-1.3699 -0.0165,0.0241 -0.5964,-0.0848 -0.6817,-0.1078 -0.0139,0.0202 -0.8125,-0.2497 -0.9479,-0.2698 -0.005,0.007 -1.6793,-0.4966 -1.9063,-0.5247 -0.0324,0.0468 -0.6441,-0.2075 -0.7266,0.1757 l -0.1902,0.8816 c 0.1222,0.163 0.1148,1.122 0.2807,1.2368 l -0.01,0.0147 c 0.0386,0.1565 0.3904,1.078 0.3787,1.0948 0.0488,0.0989 0.3771,0.5493 0.3541,0.5828 l 0.1122,0.1357 0.002,-0.002 c 0.4998,0.4549 4.3685,7.0673 4.3682,7.0676 0.4147,0.521 0.7297,1.637 1.2632,2.0049 l -0.0125,0.0185 c 0.0757,0.1635 0.9255,1.398 0.9184,1.4079 0.0856,0.2021 0.9184,1.4086 0.9116,1.4182 0.0913,0.1176 0.6248,0.7387 0.5893,0.7897 0.3703,0.2554 0.4026,0.9542 0.7081,1.1651 l -0.0102,0.0147 c 0.0956,0.1874 0.1596,0.4669 0.3456,0.5953 l -0.0105,0.0153 c 0.0796,0.1154 0.1604,0.2735 0.0717,0.4054 l 0.0179,0.0124 -1.0894,1.5789 c 0.0525,0.1012 0.4266,1.0256 0.419,1.0367 0.0422,0.1502 1.3221,2.3244 1.3836,2.3669 -0.1647,0.0297 0.2593,0.106 0.377,0.2435 l 0.2525,-0.1372 c 0.0437,-0.1023 0.1559,-0.1378 0.2175,-0.2268 0.0584,0.0405 0.2539,-0.2795 0.2953,-0.3336 l 0.0131,0.0703 c -0.0156,-0.0834 0.6403,-1.1118 0.7531,-1.2753 l 0.1931,0.2678 c 0.2746,0.0817 1.7634,1.408 1.6594,1.5585 0.6267,0.4326 0.485,0.3331 1.1194,0.4105 l 0.3659,-0.254 c 0.8986,-0.4825 0.1109,-1.3742 0.1956,-1.4967 -0.0683,-0.2032 -0.0833,-0.6973 -0.2131,-0.7869 0.0878,-0.1273 -0.1752,-1.2566 -0.2376,-1.2994 l 0.0238,-0.0343 -0.7563,-1.3567 -0.003,-0.002 c 0.0244,-0.0355 -0.1369,-1.2152 -0.2375,-1.2997 0.028,-0.0406 0.2613,-1.8051 0.6655,-2.3908 -0.007,-0.005 0.3033,-0.5125 0.3291,-0.555 l 0.4539,0.9865 -9e-4,10e-4 c 0.3628,0.2506 0.3492,1.302 0.7265,1.5622 -0.0751,0.1091 1.0985,0.9694 1.05,0.9779 0.8473,0.3354 2.1532,0.5046 2.7555,-0.3685 0.0196,0.1103 0.4045,-0.7101 0.1494,-0.8861 0.0683,-0.0986 -0.008,-0.2157 -0.0212,-0.3931 l 0.004,-1.9914 c -0.0153,-0.0105 3e-4,-0.3291 0.0219,-0.3631 -0.0766,-0.053 -0.1384,-1.0973 -0.1449,-1.3003 l -0.0125,-0.3869 c -0.0708,-0.049 -0.0113,-0.9025 -0.0153,-1.1143 -0.1596,-0.3869 -0.1746,-0.612 -0.3432,-0.9125 -0.1528,-0.2718 -0.4743,-0.5278 -0.7339,-0.8614 -0.3728,-0.6392 -0.5491,-0.6826 -1.1169,-1.0707 z m 0.0423,5.3292 c -0.0706,-0.6704 0.0768,-0.9372 -0.1216,-1.4678 0.1037,-0.1502 -0.2665,-0.9317 -0.3717,-1.1049 l -0.005,-0.0222 -0.4896,-0.3577 -0.9263,1.3425 c 0.0521,0.036 0.0286,0.231 0.2197,0.5156 l 0.006,-0.0204 0.47,1.2362 0.2976,0.4805 -0.003,-0.005 0.2154,0.4291 0.256,0.1769 0.332,-0.1545 c -0.0321,-0.3123 0.0759,-0.6715 0.1199,-1.0482 z m -6.1223,-6.9389 c -0.2435,0.5014 -0.0799,1.7875 -0.1038,2.2646 -0.0124,0.3526 0.2033,1.076 0.2376,1.2994 l 0.004,0.003 c 0.0315,0.195 0.2764,1.2339 0.2333,1.2968 l 0.1103,0.1384 0.1457,0.0382 0.1772,-0.2208 0.5306,-0.805 c 0.1417,-0.3263 0.4621,-0.5902 0.0967,-1.213 -0.0533,-0.1366 -0.0227,-0.3452 -0.2364,-0.7761 -0.01,-0.007 -0.173,-0.3073 -0.3325,-0.678 -0.1032,-0.2401 -0.1741,-0.506 -0.3068,-0.7555 -0.1301,-0.2446 -0.2678,-0.4668 -0.4008,-0.6131 -0.0915,-0.057 -0.1159,-0.0595 -0.1553,0.0213"
       style="fill:#231916;fill-opacity:1;fill-rule:evenodd;stroke:none"
       id="path144" />
    <path
       d="m 252.9604,535.8487 v 1.8034 c 1.0244,0.0153 1.7195,0.1505 2.0854,0.4022 0.3657,0.2517 0.5488,0.7138 0.5488,1.3827 v 7.8384 c 0,0.7214 -0.1539,1.1911 -0.4575,1.4091 -0.3039,0.2217 -1.0281,0.3416 -2.1767,0.3645 v 1.6909 c 1.0389,0.0147 1.959,0.0938 2.7657,0.2367 0.8068,0.1426 1.5222,0.8875 2.1513,1.1733 h 2.006 V 539.437 c 0,-0.6681 0.1902,-1.1318 0.567,-1.3827 0.3798,-0.2523 1.1049,-0.3869 2.177,-0.4022 v -1.8034 z"
       style="fill:#231916;fill-opacity:1;fill-rule:evenodd;stroke:none"
       id="path146" />
    <path
       d="m 284.8232,542.6677 c -0.7044,-0.4357 -1.4264,-0.7577 -2.1608,-0.9624 -0.7302,-0.2083 -1.5132,-0.3107 -2.348,-0.3107 -1.8564,0 -3.3738,0.4737 -4.5476,1.4171 -1.1781,0.9431 -1.7651,2.1631 -1.7651,3.6555 0,1.6215 0.6913,2.9362 2.0741,3.9402 1.3824,1.0074 3.1955,1.5114 5.4343,1.5114 2.4695,0 4.3738,-0.6667 5.7129,-2.0041 1.3436,-1.3334 2.0132,-3.2351 2.0132,-5.6976 0,-2.6481 -0.7393,-4.7052 -2.2218,-6.1713 -1.4828,-1.4661 -3.5564,-2.1971 -6.2303,-2.1971 -1.7348,0 -3.1564,0.2953 -4.2738,0.8827 -1.1174,0.587 -1.6738,1.3031 -1.6738,2.1478 0,0.5267 0.1825,0.9434 0.5479,1.254 0.3648,0.3107 0.8518,0.466 1.4652,0.466 0.9564,0 1.6348,-0.5796 2.0214,-1.7427 0.0522,-0.1477 0.0916,-0.2577 0.1177,-0.322 0.0997,-0.3181 0.265,-0.5341 0.487,-0.6517 0.2259,-0.1134 0.604,-0.1704 1.1301,-0.1704 1.3088,0 2.3392,0.4394 3.087,1.3184 0.752,0.8788 1.1304,2.0912 1.1304,3.6369 z m -0.2304,3.9512 c 0,1.0001 -0.2566,1.7731 -0.7697,2.3185 -0.513,0.5493 -1.2393,0.822 -2.1738,0.822 -0.9783,0 -1.7346,-0.269 -2.274,-0.8107 -0.5389,-0.538 -0.8084,-1.3031 -0.8084,-2.2844 0,-0.9545 0.2608,-1.7085 0.7781,-2.2615 0.5173,-0.5494 1.2217,-0.826 2.1129,-0.826 1.0304,0 1.8088,0.2576 2.3392,0.7766 0.5303,0.5191 0.7957,1.2731 0.7957,2.2655"
       style="fill:#231916;fill-opacity:1;fill-rule:nonzero;stroke:none"
       id="path148" />
    <path
       d="m 338.9644,542.6677 c -0.7044,-0.4357 -1.4264,-0.7577 -2.1609,-0.9624 -0.7302,-0.2083 -1.5131,-0.3107 -2.3479,-0.3107 -1.8564,0 -3.3738,0.4737 -4.5476,1.4171 -1.1781,0.9431 -1.7652,2.1631 -1.7652,3.6555 0,1.6215 0.6914,2.9362 2.0741,3.9402 1.3825,1.0074 3.1955,1.5114 5.4343,1.5114 2.4696,0 4.3739,-0.6667 5.713,-2.0041 1.3436,-1.3334 2.0132,-3.2351 2.0132,-5.6976 0,-2.6481 -0.7393,-4.7052 -2.2218,-6.1713 -1.4828,-1.4661 -3.5564,-2.1971 -6.2303,-2.1971 -1.7348,0 -3.1564,0.2953 -4.2738,0.8827 -1.1174,0.587 -1.6739,1.3031 -1.6739,2.1478 0,0.5267 0.1826,0.9434 0.548,1.254 0.3648,0.3107 0.8521,0.466 1.4652,0.466 0.9564,0 1.6347,-0.5796 2.0214,-1.7427 0.0521,-0.1477 0.0915,-0.2577 0.1176,-0.322 0.0998,-0.3181 0.2651,-0.5341 0.487,-0.6517 0.2259,-0.1134 0.6041,-0.1704 1.1302,-0.1704 1.3087,0 2.3391,0.4394 3.0869,1.3184 0.7521,0.8788 1.1305,2.0912 1.1305,3.6369 z m -0.2305,3.9512 c 0,1.0001 -0.2565,1.7731 -0.7696,2.3185 -0.5131,0.5493 -1.2393,0.822 -2.1739,0.822 -0.9782,0 -1.7345,-0.269 -2.2739,-0.8107 -0.5389,-0.538 -0.8085,-1.3031 -0.8085,-2.2844 0,-0.9545 0.2608,-1.7085 0.7781,-2.2615 0.5174,-0.5494 1.2218,-0.826 2.113,-0.826 1.0304,0 1.8088,0.2576 2.3391,0.7766 0.5304,0.5191 0.7957,1.2731 0.7957,2.2655"
       style="fill:#231916;fill-opacity:1;fill-rule:nonzero;stroke:none"
       id="path150" />
    <path
       d="m 300.6125,535.8484 c 1.273,5.2035 3.0744,5.7557 7.6039,7.5594 2.2331,0.8901 2.9205,2.5943 2.9205,3.9524 0,0.8214 -0.5048,1.4555 -0.9926,1.9057 -0.4879,0.4498 -1.1736,0.6769 -2.0574,0.6769 -0.6945,0 -1.2969,-0.1451 -1.8023,-0.4306 -0.5057,-0.2854 -0.7563,-0.606 -0.7563,-0.9547 0,-0.055 0.1055,-0.2622 0.3257,-0.6259 0.2191,-0.3639 0.3294,-0.7316 0.3294,-1.1075 0,-0.5164 -0.2021,-0.9354 -0.6114,-1.2484 -0.4085,-0.3129 -0.9496,-0.4694 -1.6308,-0.4694 -0.6596,0 -1.1826,0.1996 -1.565,0.5945 -0.3824,0.3994 -0.5715,0.9394 -0.5715,1.6163 0,3.331 4.3438,4.8333 6.9704,4.8333 2.1546,0 4.1516,-0.5391 5.4403,-1.4204 2.5135,-1.7206 2.5908,-6.1248 -0.1968,-7.6966 -2.2702,-1.2799 -8.7205,-1.2578 -8.8126,-3.4631 -0.0218,-0.5247 0.1613,-1.1733 1.4471,-1.1228 1.1364,0.045 6.0571,0.0731 6.8922,0.7154 0.5207,0.4011 0.8793,1.0823 1.2835,1.9435 l 1.5914,-0.003 0.3483,-5.2548 h -16.156 z"
       style="fill:#231916;fill-opacity:1;fill-rule:evenodd;stroke:none"
       id="path152" />
    <path
       d="m 383.1755,558.811 c 0.1196,-0.2506 0.252,-0.4762 0.3903,-0.6704 0.1432,-0.197 0.3048,-0.375 0.4879,-0.5289 0.2837,-0.2529 0.6052,-0.4559 0.9663,-0.6033 0.3577,-0.1527 0.7472,-0.2863 1.1605,-0.4036 0.8598,-0.2353 1.7875,-0.4723 2.7839,-0.7155 0.9964,-0.2429 2.0872,-0.5034 3.2797,-0.7795 0.7591,-0.1865 1.3235,-0.2687 1.6875,-0.2446 0.3656,0.0207 0.9581,0.1732 1.7747,0.4515 l 2.2099,0.754 c 0.2622,0.0896 0.474,0.216 0.6389,0.3807 0.1639,0.1681 0.2608,0.4096 0.2895,0.7274 0.0102,0.1406 -0.0125,0.4246 -0.0675,0.8512 -0.0516,0.4281 -0.1035,0.7351 -0.1536,0.9304 l 0.854,0.2914 2.9685,-8.6057 -0.8535,-0.2914 c -0.0848,0.1961 -0.2163,0.4802 -0.3884,0.8461 -0.176,0.3646 -0.32,0.6115 -0.4323,0.7435 -0.2089,0.2288 -0.4254,0.3586 -0.655,0.3932 -0.2282,0.0301 -0.4808,-0.002 -0.7577,-0.0966 l -2.746,-0.9369 c -0.2398,-0.0819 -0.4518,-0.1585 -0.6329,-0.2285 -0.1812,-0.0703 -0.3257,-0.1485 -0.4349,-0.2318 -0.1207,-0.0995 -0.2698,-0.2498 -0.4408,-0.4459 -0.1749,-0.197 -0.4008,-0.453 -0.6735,-0.7671 -0.7945,-0.9 -1.5446,-1.7595 -2.2513,-2.5877 -0.7027,-0.8269 -1.3623,-1.6098 -1.9746,-2.3477 -0.3183,-0.3875 -0.5541,-0.7472 -0.7154,-1.0811 -0.1559,-0.3365 -0.2673,-0.6574 -0.3297,-0.9743 -0.0439,-0.2358 -0.0442,-0.5023 -0.008,-0.8022 0.0402,-0.2988 0.0901,-0.5647 0.1539,-0.7971 l -0.8544,-0.2914 -3.0614,8.8739 0.8544,0.2916 c 0.3036,-0.8087 0.5488,-1.3368 0.7364,-1.5893 0.1928,-0.2549 0.3691,-0.353 0.5298,-0.298 0.0788,0.027 0.2205,0.1378 0.428,0.3252 0.2038,0.1862 0.5128,0.5037 0.9258,0.9442 0.3895,0.4124 0.9168,0.9961 1.588,1.758 0.6704,0.7617 1.4502,1.6691 2.3377,2.7255 -2.6793,0.6308 -4.5467,1.0551 -5.6018,1.2742 -1.0514,0.22 -1.6761,0.2943 -1.8743,0.2265 -0.2514,-0.0859 -0.3858,-0.3024 -0.4164,-0.6503 -0.0255,-0.35 0.0615,-0.8696 0.2594,-1.5644 l -0.8544,-0.2914 -1.9817,5.7444 0.8544,0.2917 z M 324.6908,429.9174 c -0.2168,-0.0661 -0.5258,-0.1786 -0.9258,-0.3405 -0.4048,-0.159 -0.7271,-0.3659 -0.9692,-0.6137 -0.2542,-0.246 -0.3934,-0.6261 -0.4135,-1.1398 -0.0247,-0.5105 0.062,-1.2622 0.254,-2.2379 l 1.1724,-5.9723 c 0.3449,-1.7567 0.0232,-3.2862 -0.9672,-4.5902 -0.9904,-1.3036 -2.4764,-2.1512 -4.4498,-2.5339 -2.3038,-0.4467 -4.1905,-0.2769 -5.6523,0.5106 -1.4658,0.7863 -2.3791,2.1058 -2.7417,3.9534 l -1.6118,8.2103 c -0.0513,0.2631 -0.1468,0.4813 -0.2849,0.6508 -0.1414,0.1656 -0.3693,0.2977 -0.6862,0.3924 -0.2183,0.0623 -0.4743,0.0926 -0.7739,0.0986 -0.2993,0.002 -0.5406,-9e-4 -0.7279,-0.013 l -0.1732,0.8812 8.4424,1.641 0.1729,-0.8818 c -0.2421,-0.0627 -0.4824,-0.1386 -0.7257,-0.2294 -0.2434,-0.0907 -0.4847,-0.2018 -0.7296,-0.3342 -0.2693,-0.1488 -0.4337,-0.337 -0.4941,-0.5652 -0.0552,-0.2316 -0.0589,-0.4796 -0.007,-0.7441 l 1.5908,-8.102 c 0.3124,-1.5905 0.8941,-2.6835 1.7434,-3.2686 0.8529,-0.5851 1.9516,-0.7478 3.2992,-0.4864 1.3243,0.2565 2.2853,0.8577 2.882,1.8039 0.5964,0.9463 0.7424,2.1989 0.4374,3.7531 l -1.0684,5.4423 c -0.1896,0.9666 -0.3988,1.6772 -0.6239,2.1299 -0.2257,0.453 -0.5,0.758 -0.8138,0.9176 -0.2299,0.1239 -0.6018,0.208 -1.1186,0.252 -0.5165,0.0399 -0.8745,0.055 -1.0789,0.0473 l -0.1774,0.9046 7.0427,1.3688 0.1777,-0.9048 z m 20.77,9.1417 c -0.1879,-0.1125 -0.4496,-0.2809 -0.786,-0.5054 -0.3379,-0.2214 -0.6052,-0.5094 -0.7988,-0.8631 -0.1704,-0.3087 -0.2044,-0.7147 -0.1009,-1.2275 0.1048,-0.5065 0.3639,-1.2044 0.7778,-2.0933 l 4.9504,-10.6339 -1.9015,-0.8768 -14.5947,7.2258 3.2468,-6.9749 c 0.4022,-0.8634 0.7662,-1.4956 1.0908,-1.8927 0.3279,-0.3957 0.6695,-0.6421 1.025,-0.7296 0.2619,-0.0661 0.6273,-0.0627 1.0967,0.006 0.4686,0.0726 0.8354,0.1463 1.0998,0.216 l 0.3793,-0.8144 -6.4474,-2.9724 -0.3793,0.8149 c 0.2631,0.1474 0.5528,0.3416 0.87,0.588 0.3161,0.2406 0.5559,0.5034 0.7149,0.7809 0.1783,0.3294 0.2236,0.7189 0.1369,1.1781 -0.0893,0.4541 -0.3586,1.163 -0.809,2.1313 l -3.2803,7.0467 c -0.1627,0.3501 -0.3722,0.6579 -0.6242,0.9187 -0.252,0.2608 -0.5459,0.4513 -0.8793,0.5666 -0.3554,0.1273 -0.7188,0.1854 -1.1015,0.1738 -0.3813,-0.007 -0.7906,-0.0649 -1.2283,-0.1757 l -0.3792,0.8149 5.6355,2.5977 12.7843,-6.3286 -2.6263,5.6423 c -0.4173,0.8969 -0.7897,1.537 -1.1112,1.9182 -0.3229,0.385 -0.6647,0.6222 -1.0236,0.7087 -0.2815,0.0697 -0.6466,0.0666 -1.1041,-10e-4 -0.4518,-0.0695 -0.8124,-0.1398 -1.08,-0.2112 l -0.3693,0.7934 6.4471,2.9719 0.3696,-0.7932 z m 18.7682,-5.9712 -7.5024,-5.1256 -0.5111,0.7399 c 0.1638,0.1318 0.4022,0.3228 0.7168,0.5763 0.3172,0.25 0.5191,0.445 0.6103,0.5842 0.1701,0.2545 0.243,0.4907 0.2234,0.7064 -0.0201,0.2106 -0.1173,0.441 -0.2829,0.6809 l -6.6078,9.5703 c -0.1497,0.2171 -0.3249,0.3801 -0.5188,0.4864 -0.1956,0.1097 -0.4507,0.1315 -0.7619,0.0669 -0.195,-0.0374 -0.4649,-0.1261 -0.8104,-0.2667 -0.3442,-0.1352 -0.6333,-0.2659 -0.8669,-0.387 l -0.5111,0.7404 7.5028,5.1257 0.5111,-0.7405 c -0.1758,-0.1488 -0.3966,-0.3378 -0.6591,-0.57 -0.2591,-0.229 -0.4674,-0.4431 -0.6208,-0.6386 -0.1899,-0.254 -0.2687,-0.4944 -0.2296,-0.7254 0.0394,-0.2308 0.1341,-0.4584 0.2863,-0.6789 l 6.6033,-9.5633 c 0.1565,-0.227 0.3339,-0.3929 0.5309,-0.4972 0.2005,-0.1023 0.4553,-0.1238 0.7665,-0.0595 0.1707,0.0309 0.4309,0.1273 0.7739,0.2854 0.3478,0.1565 0.6284,0.3002 0.8467,0.4301 z m 6.9832,27.9451 c -0.1639,-0.1942 -0.3082,-0.3963 -0.4216,-0.6069 -0.1162,-0.2137 -0.2106,-0.4552 -0.2857,-0.7336 -0.1006,-0.3696 -0.1395,-0.6951 -0.1134,-0.9794 0.0258,-0.2843 0.1131,-0.6247 0.2583,-1.0238 0.2032,-0.542 0.5111,-1.3298 0.9207,-2.3602 0.4124,-1.0278 0.8798,-2.2011 1.4023,-3.5138 0.4728,-1.1786 0.9955,-2.4633 1.5675,-3.8599 0.5749,-1.3938 1.1254,-2.7292 1.6506,-4.0054 l -1.6616,-1.6288 c -2.6326,1.1242 -5.3096,2.266 -8.0309,3.4246 -2.7218,1.1585 -4.6173,1.9547 -5.6922,2.3941 -0.3997,0.1505 -0.7297,0.2361 -0.9868,0.2605 -0.2548,0.0216 -0.5884,-0.0181 -0.9924,-0.1207 -0.2917,-0.0817 -0.5278,-0.1693 -0.7103,-0.271 -0.1857,-0.099 -0.4108,-0.2475 -0.6809,-0.4465 l -0.6338,0.6398 6.3464,6.2209 0.6174,-0.6225 c -0.5198,-0.6539 -0.8453,-1.1222 -0.9791,-1.408 -0.1309,-0.2831 -0.138,-0.4892 -0.019,-0.6097 0.061,-0.0615 0.1367,-0.1151 0.2203,-0.1658 0.0865,-0.0482 0.2095,-0.1103 0.36,-0.1894 0.6554,-0.3084 1.7552,-0.784 3.3021,-1.4247 1.5466,-0.6403 3.8885,-1.6344 7.0177,-2.9854 -0.7977,1.9105 -1.4777,3.5166 -2.0418,4.8217 -0.5646,1.3045 -1.0624,2.4585 -1.5006,3.4557 -0.2095,0.4865 -0.419,0.9275 -0.6319,1.3218 -0.2095,0.3918 -0.3926,0.6662 -0.5454,0.8201 -0.1718,0.1738 -0.4464,0.1981 -0.8169,0.0669 -0.3739,-0.1335 -0.9312,-0.5085 -1.675,-1.1325 l -0.65,0.6566 4.7554,4.6612 z m 11.4715,12.3409 -0.4723,-0.7659 c -0.6514,0.1335 -1.3957,0.1392 -2.2305,0.006 -0.836,-0.1282 -1.4426,-0.3963 -1.8253,-0.7912 -0.1661,-0.1718 -0.3662,-0.4283 -0.5916,-0.7713 -0.2256,-0.3435 -0.4093,-0.6335 -0.5499,-0.8617 l -1.2492,-2.0254 5.4275,-3.3083 0.8867,1.4375 c 0.2236,0.3631 0.3829,0.7185 0.4807,1.0655 0.0944,0.3492 0.0947,0.7186 9e-4,1.1086 -0.059,0.2441 -0.2339,0.5627 -0.5199,0.9499 -0.2914,0.3855 -0.5635,0.69 -0.8181,0.9099 l 0.4723,0.7657 5.8529,-3.5677 -0.4722,-0.7656 c -0.3016,0.1287 -0.7115,0.2395 -1.2274,0.337 -0.5179,0.0938 -0.9034,0.1159 -1.1478,0.0663 -0.3722,-0.0686 -0.6939,-0.2284 -0.9635,-0.4708 -0.2735,-0.2398 -0.5264,-0.5519 -0.767,-0.942 l -0.8864,-1.4371 4.0507,-2.469 c 0.4249,-0.2594 0.7778,-0.4329 1.0636,-0.5193 0.2868,-0.0916 0.5487,-0.0896 0.7857,0.001 0.2262,0.0885 0.4496,0.2622 0.6628,0.5253 0.2165,0.2608 0.4767,0.6378 0.7815,1.1313 0.1409,0.2287 0.3072,0.5062 0.4994,0.8328 0.1919,0.3263 0.3459,0.6208 0.461,0.8833 0.1397,0.2939 0.2483,0.5836 0.3302,0.8662 0.0825,0.2776 0.0947,0.5154 0.0425,0.709 -0.1295,0.5133 -0.4062,1.1718 -0.8288,1.9698 -0.4207,0.8019 -0.7572,1.3629 -1.0114,1.6889 l 0.4475,0.7251 4.2106,-2.9316 -8.0878,-13.1154 -0.7693,0.4695 c 0.1003,0.1924 0.2265,0.4575 0.3861,0.7993 0.1545,0.3405 0.2435,0.5908 0.2724,0.7577 0.0485,0.3127 0.0207,0.5607 -0.0876,0.7472 -0.1103,0.1826 -0.2891,0.3518 -0.5392,0.5038 l -9.9031,6.0363 c -0.2395,0.1463 -0.4578,0.2288 -0.657,0.2529 -0.2007,0.021 -0.4468,-0.0698 -0.7419,-0.269 -0.1862,-0.1216 -0.4065,-0.3201 -0.6644,-0.5882 -0.2546,-0.2702 -0.4434,-0.4782 -0.561,-0.6239 l -0.7699,0.4694 7.6425,12.3931 3.585,-2.185 z m 6.4973,14.7334 c -1.0256,0.398 -1.887,0.4028 -2.5838,0.0139 -0.7004,-0.3878 -1.2586,-1.1143 -1.6736,-2.1714 l -0.3359,-0.8546 6.44,-2.5002 0.3229,0.8215 c 0.4167,1.0604 0.4618,1.9862 0.1341,2.7862 -0.328,0.7993 -1.0942,1.4349 -2.3037,1.9046 z m 14.2764,2.8814 -2.2983,-5.8484 c -1.9506,-0.4099 -3.5187,-0.7654 -4.701,-1.08 -1.1843,-0.3096 -2.5742,-0.7305 -4.1746,-1.2549 l -0.2378,-0.6055 4.6508,-1.8057 c 0.2585,-0.1003 0.4946,-0.1369 0.7146,-0.1083 0.2183,0.0258 0.4428,0.1537 0.6712,0.3779 0.1123,0.1128 0.2566,0.3067 0.4295,0.5737 0.1766,0.2656 0.3152,0.4995 0.4192,0.6996 l 0.8411,-0.3263 -3.2006,-8.1456 -0.8411,0.3265 c 0.0601,0.2177 0.1386,0.5043 0.2325,0.8615 0.0935,0.3572 0.1406,0.6179 0.1394,0.7872 -0.008,0.316 -0.0796,0.5556 -0.2191,0.7197 -0.1412,0.1602 -0.3472,0.2951 -0.6199,0.4014 l -10.8221,4.2006 c -0.262,0.1018 -0.4916,0.1446 -0.6954,0.1347 -0.2049,-0.0131 -0.4314,-0.1451 -0.6786,-0.396 -0.1868,-0.1939 -0.3708,-0.4354 -0.5595,-0.7214 -0.1868,-0.2911 -0.3317,-0.5188 -0.4315,-0.6871 l -0.841,0.3265 3.3664,8.5677 c 0.7523,1.9151 1.6262,3.2505 2.6178,4.0116 0.9918,0.7611 2.0976,0.9028 3.3185,0.4289 1.0735,-0.4167 1.819,-1.0619 2.2312,-1.9276 0.4121,-0.8662 0.553,-1.9998 0.4291,-3.3979 0.8261,0.2421 1.7839,0.5259 2.8727,0.8516 1.0885,0.326 2.2096,0.6689 3.3553,1.0315 0.368,0.1154 0.8297,0.2829 1.3867,0.5105 0.5554,0.224 0.9389,0.4646 1.1481,0.7257 0.1165,0.1457 0.2426,0.3373 0.3756,0.5774 0.1366,0.2387 0.2307,0.4139 0.2797,0.517 z m 2.2635,9.7296 c -0.1375,-0.9952 -0.3904,-1.9032 -0.7555,-2.7238 -0.3693,-0.8249 -0.76,-1.5111 -1.1795,-2.0619 l 0.6954,-0.8975 -0.1358,-0.9836 -5.9043,0.6596 0.1358,0.9831 c 0.5879,0.1468 1.2152,0.3478 1.8822,0.6072 0.6633,0.2594 1.2708,0.5783 1.8238,0.9643 0.578,0.3946 1.0653,0.8569 1.4627,1.3916 0.4011,0.5298 0.6548,1.1792 0.7608,1.9516 0.1429,1.0344 -0.002,1.8649 -0.432,2.488 -0.4343,0.6196 -1.0358,0.9833 -1.8085,1.0885 -0.6319,0.0862 -1.1974,-0.0757 -1.6937,-0.4853 -0.4964,-0.4096 -0.9689,-1.0848 -1.4227,-2.0251 -0.2965,-0.6157 -0.5701,-1.1786 -0.8204,-1.6891 -0.2506,-0.5148 -0.5006,-0.9933 -0.7506,-1.4446 -0.5896,-1.029 -1.3252,-1.7555 -2.2141,-2.1716 -0.8856,-0.4204 -1.8323,-0.5618 -2.8367,-0.4255 -0.6358,0.0868 -1.2288,0.3064 -1.7793,0.6633 -0.5507,0.3532 -1.021,0.8266 -1.415,1.4171 -0.3705,0.5629 -0.6384,1.2554 -0.8051,2.0769 -0.17,0.8223 -0.1899,1.6957 -0.062,2.6209 0.1244,0.9012 0.3656,1.7269 0.7293,2.4767 0.3592,0.7503 0.6956,1.3365 1.0128,1.7509 l -0.5941,0.7923 0.1355,0.9833 5.5687,-0.6616 -0.1358,-0.9836 c -0.6279,-0.1488 -1.2768,-0.3314 -1.9429,-0.555 -0.6664,-0.2231 -1.2336,-0.4799 -1.6928,-0.7671 -0.4944,-0.3106 -0.9111,-0.6953 -1.2413,-1.1474 -0.33,-0.4482 -0.5423,-1.0035 -0.6327,-1.6592 -0.1137,-0.8237 0.0292,-1.5267 0.4246,-2.1095 0.3949,-0.5859 0.9391,-0.9264 1.6299,-1.0202 0.6514,-0.089 1.2161,0.0652 1.6906,0.4618 0.4791,0.4002 0.9411,1.057 1.387,1.974 0.2707,0.5397 0.542,1.0871 0.8116,1.6509 0.2729,0.5593 0.5295,1.0573 0.7687,1.4896 0.5848,1.0497 1.2926,1.808 2.1297,2.2828 0.8325,0.4708 1.8099,0.6324 2.9319,0.4799 0.7063,-0.0961 1.3665,-0.3527 1.9805,-0.7702 0.614,-0.4175 1.1024,-0.9329 1.465,-1.5511 0.3985,-0.6741 0.6738,-1.4309 0.8223,-2.2663 0.1522,-0.8396 0.1531,-1.7898 0.006,-2.8551 z m 1.0967,20.2564 -0.2506,-9.0476 -0.9026,0.0246 c -0.0104,0.2092 -0.0255,0.5131 -0.0459,0.9154 -0.0167,0.4025 -0.0567,0.6791 -0.1156,0.8345 -0.1069,0.2866 -0.256,0.4838 -0.4434,0.5955 -0.1831,0.1075 -0.4272,0.165 -0.72,0.1735 l -11.6705,0.3195 c -0.265,0.007 -0.5,-0.0377 -0.7007,-0.1307 -0.2047,-0.093 -0.3722,-0.2852 -0.5032,-0.5732 -0.0842,-0.1788 -0.1709,-0.4484 -0.2599,-0.8084 -0.093,-0.356 -0.1573,-0.6653 -0.1962,-0.9244 l -0.9025,0.0247 0.2506,9.0473 0.9028,-0.0246 c 0.017,-0.2288 0.0408,-0.5174 0.0748,-0.8655 0.0341,-0.3432 0.0854,-0.6363 0.1542,-0.8747 0.0947,-0.3019 0.2433,-0.5069 0.4544,-0.6109 0.2109,-0.1046 0.451,-0.1624 0.72,-0.1698 l 11.6629,-0.3195 c 0.2769,-0.008 0.5159,0.0372 0.7166,0.1341 0.201,0.1009 0.3685,0.2934 0.4998,0.5814 0.0754,0.1556 0.1499,0.4215 0.2236,0.7897 0.0777,0.3722 0.1259,0.6823 0.1485,0.9338 z m -13.5417,18.6304 0.112,-0.8909 c -0.6662,-0.3209 -1.3615,-0.7923 -2.0894,-1.4145 -0.7288,-0.6182 -1.0962,-1.1562 -1.1036,-1.6058 -0.001,-0.2463 0.0131,-0.5499 0.0349,-0.9125 0.0207,-0.3586 0.0476,-0.669 0.0808,-0.9306 l 0.0672,-0.5355 12.8066,1.59 c 0.2755,0.0346 0.5128,0.1154 0.7126,0.2392 0.1999,0.1242 0.3405,0.3402 0.4261,0.6444 0.049,0.1808 0.085,0.4631 0.11,0.8393 0.028,0.3807 0.0402,0.6996 0.0391,0.9615 l 0.896,0.1111 1.133,-9.0283 -0.896,-0.1111 c -0.0513,0.216 -0.1216,0.5246 -0.2149,0.9181 -0.0935,0.3934 -0.1783,0.6568 -0.2554,0.794 -0.163,0.2815 -0.3529,0.4603 -0.5695,0.5326 -0.2205,0.0717 -0.4705,0.0924 -0.7574,0.0564 l -12.9211,-1.6038 0.0671,-0.5352 c 0.0329,-0.2622 0.0837,-0.5695 0.152,-0.9221 0.0683,-0.3563 0.1298,-0.6545 0.1916,-0.8929 0.1182,-0.434 0.6075,-0.8654 1.4664,-1.2867 0.8597,-0.4252 1.65,-0.7123 2.3751,-0.86 l 0.1117,-0.8912 -4.6687,-0.5794 -1.9749,15.7342 z"
       style="fill:#231916;fill-opacity:1;fill-rule:evenodd;stroke:none"
       id="path154" />
    <path
       d="m 192.1277,552.7979 c 0.3844,1.1347 0.9284,2.137 1.6368,3.0052 0.7064,0.8646 1.5349,1.5466 2.4896,2.0458 0.936,0.4927 1.98,0.7747 3.1374,0.8484 1.1571,0.0732 2.3465,-0.0921 3.5626,-0.4997 1.2121,-0.4062 2.2632,-0.9913 3.153,-1.7586 0.8864,-0.7626 1.5834,-1.6529 2.0812,-2.6632 0.4901,-0.9955 0.7622,-2.0801 0.8138,-3.2612 0.055,-1.1818 -0.1202,-2.3658 -0.5235,-3.5567 -0.2912,-0.858 -0.6617,-1.6069 -1.116,-2.2445 -0.4502,-0.6386 -0.8924,-1.1554 -1.321,-1.5565 l 0.3742,-0.8812 -0.3186,-0.9406 -5.7274,1.8187 0.3259,0.9632 c 1.9299,-0.0399 3.4322,0.1883 4.5097,0.6795 1.0735,0.4921 1.7974,1.2844 2.1705,2.3856 0.464,1.3697 0.2086,2.6147 -0.7659,3.735 -0.9746,1.1205 -2.5609,2.0506 -4.76,2.7876 -1.2421,0.4164 -2.3459,0.6491 -3.3063,0.701 -0.9604,0.0513 -1.7748,-0.0335 -2.4443,-0.2452 -0.7019,-0.2345 -1.2804,-0.5976 -1.7377,-1.0846 -0.4538,-0.4881 -0.8002,-1.0785 -1.0377,-1.7801 -0.3453,-1.0191 -0.3711,-2.02 -0.0811,-3.0025 0.2886,-0.9864 0.8864,-1.997 1.7989,-3.0299 l -0.8932,-0.7481 c -0.5395,0.5298 -0.9958,1.0814 -1.3672,1.6509 -0.3753,0.5703 -0.6573,1.1804 -0.8467,1.8298 -0.2072,0.7092 -0.3076,1.4493 -0.2999,2.2243 0.006,0.7708 0.1718,1.6297 0.4929,2.5776 z m -0.2775,-50.8771 c 0.7464,-0.2571 1.567,-0.4051 2.4744,-0.4473 0.9034,-0.0428 1.9111,0.003 3.0274,0.1417 0.9468,0.1177 1.8621,0.2985 2.7414,0.5428 0.8793,0.2444 1.6483,0.5738 2.3074,0.9811 0.6622,0.4156 1.1698,0.919 1.5222,1.5149 0.3563,0.5958 0.4839,1.2943 0.3827,2.1033 -0.1741,1.3833 -0.9661,2.3527 -2.3769,2.9077 -1.4099,0.5517 -3.3179,0.6801 -5.7265,0.3807 -1.0262,-0.1272 -1.9789,-0.3248 -2.871,-0.5947 -0.8883,-0.2687 -1.6472,-0.6131 -2.2847,-1.0335 -0.6406,-0.4289 -1.1205,-0.9289 -1.4357,-1.5041 -0.315,-0.5748 -0.4221,-1.2472 -0.3252,-2.0211 0.095,-0.7537 0.3691,-1.379 0.8221,-1.8742 0.453,-0.4915 1.0338,-0.8601 1.7424,-1.0973 z m 12.0711,-1.4862 c -0.6387,-0.889 -1.4468,-1.6365 -2.4327,-2.2351 -0.9867,-0.5987 -2.1441,-0.9808 -3.4801,-1.1466 -1.1908,-0.148 -2.3476,-0.0891 -3.4702,0.1726 -1.1265,0.2647 -2.1214,0.7208 -2.9931,1.3708 -0.9045,0.6854 -1.6455,1.5341 -2.2306,2.5373 -0.5808,1.0035 -0.9632,2.238 -1.1474,3.7035 -0.1483,1.184 -0.0924,2.3261 0.1647,3.4256 0.2613,1.1004 0.7146,2.0974 1.3569,2.9909 0.6313,0.8841 1.4366,1.6231 2.4234,2.2181 0.987,0.5947 2.1169,0.9731 3.4018,1.1327 1.3323,0.165 2.575,0.0896 3.7168,-0.2293 1.1409,-0.3186 2.1512,-0.8286 3.0246,-1.5256 0.8611,-0.6908 1.5641,-1.5526 2.1081,-2.5804 0.5479,-1.0273 0.8966,-2.1509 1.0499,-3.3744 0.1523,-1.2112 0.0944,-2.3737 -0.1689,-3.486 -0.2667,-1.1166 -0.7095,-2.1044 -1.3232,-2.9741 z m 8.8583,-22.5508 c -0.1018,0.1931 -0.2546,0.4632 -0.4595,0.8105 -0.2013,0.3492 -0.4743,0.6321 -0.8175,0.845 -0.2994,0.1879 -0.7047,0.246 -1.2255,0.1746 -0.515,-0.074 -1.2302,-0.2889 -2.1483,-0.6463 l -10.9749,-4.2732 -0.7637,1.94 8.1414,14.0527 -7.1983,-2.8026 c -0.8926,-0.3475 -1.5477,-0.6704 -1.9661,-0.9686 -0.4173,-0.3016 -0.6852,-0.6261 -0.7951,-0.9731 -0.082,-0.2565 -0.101,-0.6191 -0.0604,-1.0899 0.0445,-0.4689 0.0961,-0.8379 0.1499,-1.1047 l -0.8404,-0.3274 -2.5903,6.5795 0.8407,0.3277 c 0.1321,-0.2701 0.3093,-0.5692 0.5372,-0.8991 0.2222,-0.3283 0.4714,-0.582 0.7401,-0.7566 0.3198,-0.1973 0.7081,-0.2659 1.1741,-0.2069 0.4609,0.0609 1.1889,0.2854 2.1884,0.6746 l 7.2723,2.8315 c 0.3614,0.1406 0.6825,0.3291 0.96,0.5641 0.2776,0.2347 0.4862,0.5148 0.6228,0.8388 0.1488,0.3453 0.2293,0.7024 0.241,1.0834 0.0167,0.379 -0.017,0.7883 -0.1015,1.2294 l 0.841,0.3277 2.2638,-5.751 -7.1306,-12.31 5.8229,2.2675 c 0.9258,0.3605 1.5909,0.6913 1.9931,0.9875 0.4059,0.2974 0.665,0.6225 0.7736,0.9735 0.0873,0.2749 0.106,0.6378 0.066,1.0961 -0.0422,0.4527 -0.091,0.8147 -0.1463,1.0851 l 0.8187,0.3186 2.5903,-6.5795 z m 3.8321,-22.5773 c -0.1505,0.1896 -0.2866,0.3509 -0.4136,0.4895 -0.1235,0.1414 -0.3027,0.303 -0.5289,0.4864 -0.2594,0.2138 -0.5105,0.2974 -0.7594,0.2602 -0.2503,-0.0422 -0.485,-0.1301 -0.6985,-0.2661 l -1.6151,-1.027 c -0.3266,-0.2078 -0.5848,-0.3765 -0.7807,-0.5105 -0.1959,-0.1338 -0.4334,-0.2988 -0.718,-0.4987 -0.8102,0.3969 -1.7935,1.1223 -2.9532,2.166 -1.1585,1.0488 -2.0786,2.1002 -2.7612,3.162 -0.6423,0.999 -1.0899,2.0322 -1.3445,3.1003 -0.2562,1.0709 -0.2919,2.1283 -0.1023,3.1791 0.1826,1.0462 0.6018,2.0471 1.2563,2.9959 0.6574,0.951 1.5667,1.7957 2.7281,2.5339 1.0811,0.6874 2.1974,1.1446 3.3466,1.3754 1.1514,0.227 2.2725,0.2157 3.3695,-0.0358 1.0851,-0.2406 2.1107,-0.7245 3.0813,-1.4442 0.9672,-0.722 1.8235,-1.6594 2.5659,-2.8143 0.5031,-0.7832 0.8739,-1.5712 1.1055,-2.3635 0.2353,-0.7897 0.3793,-1.4746 0.4385,-2.0494 l 0.9258,-0.262 0.5375,-0.8365 -5.0139,-3.3001 -0.5505,0.8564 c 1.2092,1.4607 1.9604,2.7703 2.2595,3.9282 0.2982,1.1526 0.1097,2.2573 -0.5644,3.3061 -0.798,1.241 -1.9619,1.8516 -3.4912,1.8329 -1.5327,-0.021 -3.2587,-0.6415 -5.1808,-1.8635 -2.0418,-1.2986 -3.4234,-2.6442 -4.1511,-4.0419 -0.7279,-1.3975 -0.7016,-2.704 0.0814,-3.9221 0.367,-0.5703 0.78,-1.0227 1.2339,-1.3561 0.4595,-0.3344 0.8815,-0.5521 1.2662,-0.6536 l 2.8131,1.7886 c 0.2333,0.1489 0.4022,0.317 0.506,0.4995 0.1046,0.1879 0.138,0.4431 0.0927,0.7696 -0.0357,0.2531 -0.1182,0.542 -0.2458,0.8719 -0.1275,0.3306 -0.2432,0.5982 -0.3424,0.811 l 0.7608,0.4839 4.6077,-7.168 z m 9.0252,-14.2067 c 0.7416,0.2701 1.4743,0.6741 2.2017,1.2087 0.7299,0.5374 1.4845,1.2092 2.2618,2.0182 0.6619,0.6894 1.256,1.4046 1.7824,2.1467 0.5289,0.7444 0.9153,1.4831 1.1701,2.2164 0.2464,0.7353 0.3198,1.4443 0.2169,2.1303 -0.1021,0.6857 -0.447,1.3073 -1.04,1.8705 -1.0134,0.963 -2.2434,1.2167 -3.6922,0.7572 -1.4431,-0.4589 -3.0061,-1.5613 -4.6856,-3.31 -0.7141,-0.7436 -1.3295,-1.4984 -1.8499,-2.268 -0.5171,-0.7668 -0.8895,-1.5135 -1.1166,-2.24 -0.2236,-0.7347 -0.2778,-1.4244 -0.1567,-2.0678 0.1213,-0.6435 0.4623,-1.2348 1.0292,-1.7734 0.5528,-0.525 1.1622,-0.8374 1.8286,-0.936 0.6631,-0.0967 1.3505,-0.0142 2.0503,0.2472 z m 10.3131,6.4491 c 0.0703,-1.0902 -0.0842,-2.1799 -0.468,-3.2641 -0.3816,-1.0809 -1.0384,-2.1073 -1.9684,-3.0759 -1.3213,-1.3754 -2.8276,-2.2535 -4.519,-2.6402 -1.6886,-0.3841 -3.3846,-0.2052 -5.0879,0.5417 -0.6202,-0.68 -0.9726,-1.4456 -1.0508,-2.2972 -0.0814,-0.8541 0.1443,-1.5315 0.6712,-2.0321 0.3237,-0.3076 0.629,-0.5596 0.9082,-0.754 0.2818,-0.1911 0.5432,-0.3581 0.7847,-0.4947 l -0.7005,-0.7293 c -0.4439,0.1715 -1.0477,0.4889 -1.8062,0.9479 -0.7554,0.4623 -1.4771,1.017 -2.1671,1.6727 -0.9391,0.8923 -1.4471,1.9086 -1.5182,3.0435 -0.0683,1.1382 0.3404,2.242 1.2291,3.3098 -0.7163,0.8274 -1.2634,1.7232 -1.647,2.6813 -0.3807,0.9606 -0.5799,1.9508 -0.5893,2.9729 -0.007,1.0083 0.1863,2.0126 0.5774,3.0133 0.3889,1.0032 0.9978,1.9335 1.8267,2.7964 0.93,0.9685 1.9414,1.6908 3.0285,2.1614 1.0902,0.4731 2.1969,0.7126 3.3166,0.7214 1.1063,0.006 2.1985,-0.2203 3.2731,-0.6749 1.078,-0.4519 2.0622,-1.1036 2.9583,-1.9548 0.8878,-0.8439 1.5817,-1.7807 2.084,-2.8083 0.5029,-1.0332 0.7875,-2.0769 0.8646,-3.1368 z m 4.6615,-20.9801 -7.662,4.8838 0.4873,0.7563 c 0.1853,-0.0995 0.4546,-0.2432 0.8118,-0.4337 0.3552,-0.1936 0.6143,-0.3024 0.7787,-0.3322 0.3016,-0.0567 0.5485,-0.0318 0.7412,0.07 0.1871,0.1006 0.3629,0.2789 0.521,0.5239 l 6.2998,9.7758 c 0.1428,0.2219 0.2259,0.4453 0.2491,0.6642 0.0255,0.2225 -0.0535,0.4643 -0.2341,0.7248 -0.1103,0.1638 -0.2977,0.3767 -0.5618,0.6386 -0.2586,0.2631 -0.4919,0.4777 -0.6948,0.644 l 0.487,0.7563 7.6623,-4.8835 -0.4876,-0.7566 c -0.206,0.1035 -0.4665,0.2325 -0.7834,0.3827 -0.3136,0.1485 -0.5925,0.256 -0.8329,0.3206 -0.3092,0.0754 -0.5624,0.0544 -0.7611,-0.0717 -0.199,-0.1259 -0.3727,-0.3005 -0.5181,-0.5258 l -6.2952,-9.7691 c -0.1497,-0.2321 -0.2342,-0.4586 -0.2543,-0.6797 -0.0173,-0.2231 0.0618,-0.4658 0.2427,-0.7254 0.0949,-0.1446 0.2854,-0.3458 0.5646,-0.5984 0.2801,-0.2582 0.5224,-0.4595 0.7271,-0.6086 z m 29.126,3.1598 c -0.2083,0.0672 -0.5077,0.1539 -0.8983,0.2597 -0.3895,0.1097 -0.7832,0.1221 -1.1786,0.0357 -0.3461,-0.074 -0.6767,-0.3144 -0.9987,-0.7277 -0.316,-0.4113 -0.6763,-1.0616 -1.0814,-1.9562 l -4.8402,-10.6872 -1.9105,0.8561 -4.0612,15.7071 -3.1751,-7.0095 c -0.3934,-0.8689 -0.6349,-1.5557 -0.7242,-2.06 -0.0859,-0.506 -0.0494,-0.9241 0.1162,-1.2486 0.1213,-0.2407 0.3631,-0.5128 0.7228,-0.8207 0.362,-0.3047 0.6582,-0.5323 0.8841,-0.6857 l -0.3707,-0.8183 -6.478,2.9018 0.3707,0.8186 c 0.2846,-0.1012 0.6214,-0.1919 1.0162,-0.2693 0.3898,-0.0796 0.7461,-0.0878 1.0611,-0.026 0.3673,0.0816 0.6933,0.3027 0.9847,0.6689 0.2866,0.364 0.6494,1.031 1.0902,2.0041 l 3.2074,7.0815 c 0.1593,0.3518 0.2568,0.7101 0.2897,1.0713 0.0335,0.3608 -0.0144,0.7061 -0.1446,1.0323 -0.1366,0.3507 -0.3302,0.6619 -0.5896,0.9423 -0.2542,0.2823 -0.5663,0.5519 -0.9371,0.8084 l 0.3711,0.8192 5.6619,-2.5367 3.5583,-13.7585 2.5685,5.6704 c 0.4082,0.9014 0.6508,1.6004 0.7302,2.0917 0.0808,0.4952 0.0374,0.9076 -0.1318,1.2342 -0.131,0.2571 -0.3725,0.5298 -0.7234,0.8294 -0.3487,0.2942 -0.6375,0.5188 -0.8674,0.6738 l 0.3611,0.7971 6.4777,-2.9018 z m 18.6698,-12.1635 c -0.242,0.019 -0.4773,0.0431 -0.6661,0.0448 -0.1879,0.006 -0.4295,-0.0147 -0.7183,-0.0547 -0.3339,-0.0436 -0.5664,-0.1701 -0.7084,-0.3767 -0.1392,-0.2112 -0.2336,-0.4422 -0.2789,-0.6905 l -0.341,-1.8757 c -0.0692,-0.3796 -0.1199,-0.6829 -0.1548,-0.9167 -0.0346,-0.2342 -0.0743,-0.5193 -0.1207,-0.8629 -0.8431,-0.3206 -2.0469,-0.5443 -3.6049,-0.68 -1.5613,-0.1313 -2.9622,-0.0873 -4.2091,0.1369 -1.1727,0.2112 -2.2391,0.587 -3.1998,1.1282 -0.9635,0.5417 -1.7671,1.2345 -2.4128,2.0871 -0.6469,0.8447 -1.0999,1.8312 -1.3541,2.9534 -0.254,1.1262 -0.2583,2.3638 -0.0128,3.7128 0.2282,1.2558 0.6503,2.3803 1.262,3.3753 0.6154,0.9938 1.3864,1.8034 2.3179,2.4324 0.915,0.6278 1.9692,1.0465 3.16,1.2648 1.1897,0.214 2.4634,0.201 3.8194,-0.0428 0.9196,-0.1656 1.7527,-0.4317 2.4942,-0.8014 0.7424,-0.3656 1.3448,-0.7262 1.8088,-1.074 l 0.8232,0.4966 0.9819,-0.1766 -0.9768,-5.9006 -1.0057,0.1812 c -0.2543,1.8751 -0.709,3.3137 -1.3592,4.3191 -0.6469,1.0009 -1.5894,1.6152 -2.8211,1.8366 -1.457,0.2622 -2.6991,-0.171 -3.7255,-1.2989 -1.027,-1.1321 -1.7431,-2.8125 -2.1496,-5.0448 -0.4314,-2.3717 -0.3787,-4.2945 0.1571,-5.7759 0.5352,-1.4808 1.516,-2.3499 2.9463,-2.6073 0.6701,-0.1207 1.285,-0.127 1.8391,-0.0229 0.5587,0.1077 1.0066,0.2676 1.3428,0.4793 l 0.5944,3.2672 c 0.0494,0.2707 0.04,0.5088 -0.0241,0.7087 -0.0674,0.2038 -0.2327,0.4019 -0.5042,0.5907 -0.2109,0.146 -0.4797,0.2824 -0.8102,0.4139 -0.3302,0.1318 -0.6063,0.2293 -0.8305,0.3016 l 0.161,0.8838 8.2871,-1.5148 -0.007,-0.8972 z m -101.1398,102.4892 0.6757,8.8362 0.9003,-0.0684 c 0.001,-0.1933 0.003,-0.4779 0.006,-0.8495 -5e-4,-0.3713 0.0275,-0.6301 0.0803,-0.7722 0.0927,-0.2916 0.2316,-0.4994 0.4127,-0.6239 0.1814,-0.1202 0.4181,-0.1936 0.7104,-0.2157 l 5.6704,-0.4289 0.5354,6.9982 -5.54,0.4193 c -0.2647,0.0198 -0.5063,-0.0173 -0.72,-0.1157 -0.218,-0.0938 -0.3943,-0.2741 -0.5332,-0.5321 -0.0709,-0.1448 -0.157,-0.3872 -0.2548,-0.7353 -0.0947,-0.3523 -0.1596,-0.6358 -0.1928,-0.858 l -0.9003,0.068 0.6761,8.8359 0.9,-0.0678 c -0.007,-0.1936 -0.005,-0.4779 0.0102,-0.8543 0.0147,-0.3762 0.0454,-0.6551 0.0955,-0.8286 0.0774,-0.2823 0.2169,-0.4864 0.4099,-0.6117 0.197,-0.1216 0.434,-0.1947 0.7144,-0.216 l 11.6172,-0.8787 c 0.2727,-0.0207 0.5012,0.009 0.6945,0.0935 0.193,0.0802 0.3699,0.2682 0.5312,0.5562 0.1196,0.216 0.2327,0.5037 0.3393,0.8591 0.1108,0.3549 0.1783,0.6143 0.2064,0.7745 l 0.9005,-0.0684 -0.6758,-8.8358 -0.9008,0.068 c 0.003,0.2407 -0.0153,0.5264 -0.0488,0.8649 -0.0379,0.3344 -0.0776,0.5941 -0.1156,0.7747 -0.08,0.3064 -0.2223,0.5184 -0.436,0.6295 -0.21,0.1146 -0.4396,0.1792 -0.6882,0.1982 l -4.9043,0.3713 -0.5351,-6.9987 4.7897,-0.362 c 0.2684,-0.0204 0.5014,0.013 0.6947,0.0972 0.1894,0.0887 0.3663,0.2764 0.5315,0.5641 0.1063,0.1936 0.2135,0.4541 0.3181,0.7858 0.1085,0.3274 0.1805,0.5907 0.2194,0.7891 l 0.9003,-0.068 -0.6758,-8.8364 -0.9003,0.0683 c 0.003,0.2486 -0.007,0.5258 -0.0349,0.8402 -0.028,0.3098 -0.07,0.5938 -0.1258,0.8464 -0.0808,0.2985 -0.2237,0.5071 -0.4292,0.6253 -0.2095,0.1145 -0.4425,0.1834 -0.695,0.2027 l -11.6334,0.8799 c -0.2764,0.0207 -0.5174,-0.0122 -0.7183,-0.0956 -0.2016,-0.0875 -0.3782,-0.2718 -0.531,-0.5524 -0.089,-0.1789 -0.1808,-0.4448 -0.2704,-0.7892 -0.0862,-0.345 -0.1477,-0.6287 -0.1806,-0.8515 l -0.9002,0.0683 z"
       style="fill:#231916;fill-opacity:1;fill-rule:evenodd;stroke:none"
       id="path156" />
  </g>
</svg>
