<?xml version="1.0" encoding="UTF-8" standalone="no"?>
<!-- Created with Inkscape (http://www.inkscape.org/) -->

<svg
   version="1.1"
   id="svg2"
   width="88.218292"
   height="452.92368"
   viewBox="0 0 88.218293 452.92369"
   xmlns="http://www.w3.org/2000/svg"
   xmlns:svg="http://www.w3.org/2000/svg">
  <defs
     id="defs6" />
  <g
     id="g10"
     transform="matrix(1.3333333,0,0,-1.3333333,-286.77511,793.37347)">
    <path
       d="m 233.6905,299.5279 c 1.146,0.1888 1.3643,-0.4419 2.0191,-0.9949 0.3509,-0.2971 0.8044,-0.3997 1.065,-0.8844 0.4115,-0.7705 0.2194,-3.3112 -0.1372,-3.7466 -0.459,-0.5607 -0.9182,-0.8135 -1.4843,-1.3351 -0.2633,-0.4405 -0.5283,-0.8836 -0.7917,-1.3255 -0.9139,-1.5287 -4.6494,0.1491 -5.1582,1.5707 0.3943,1.3017 1.4054,2.0211 2.2025,3.0767 0.4105,0.5409 0.4247,1.258 0.7745,1.8363 0.3696,0.608 1.0751,1.254 1.5103,1.8028 z m 24.3637,-44.1895 c -1.1395,0.1329 -5.1766,0.3926 -5.8461,0.3934 l -0.0607,0.004 -0.8609,0.5391 v 0.1426 h -0.3143 c -0.1327,0.1315 -0.8774,0.4201 -0.8774,0.5973 h -0.0334 c -0.1675,0.1717 -0.9136,0.5487 -1.1577,0.5768 v 0.0204 l -0.5652,0.186 c 0,0 -0.9431,0.1933 -1.1557,0.4093 v 0 c -0.8101,0.8093 -3.2885,3.1944 -4.3957,3.202 -0.0873,0.1157 -0.2279,0.1845 -0.3716,0.186 h 0.002 l -0.9074,0.7234 -0.0703,0.4008 -0.4538,0.0584 c -0.0289,0.0604 -0.0581,0.1114 -0.0854,0.1718 0.3221,0.3877 1.6172,0.1218 3.4147,-0.1027 1.1494,-0.1425 2.1401,-0.009 3.3715,-0.1834 0.9595,-0.1363 1.8343,-0.6148 2.6648,-0.7874 0.5953,-0.1233 1.0826,-0.2336 1.4888,-0.2194 0.2582,0.008 0.5261,0.1306 0.6372,0.1306 0,0.1511 -0.003,0.309 -0.006,0.47 -0.0627,2.0912 -0.4887,5.0443 -0.5403,6.7609 -0.0473,1.5038 -0.0465,3.699 0.07,5.5721 -1.5922,0 -10.2761,-2.7731 -10.4771,-3.1652 l 0.066,0.1338 c -1.4108,0 -3.941,-1.3186 -5.1723,-0.0646 v -8e-4 c -0.0335,-0.0684 -0.12,0.0927 -0.1931,0.1173 v 0.0811 c -0.4711,0 -0.7781,0.2928 -1.1925,0.4201 v 0.1752 c -0.3818,0.0116 -1.7893,0.7897 -1.7893,1.1959 h -0.003 l -0.5907,0.527 v 0.0703 l -0.3586,0.1663 v 0 c 0,-0.1751 -0.239,0.2572 -0.239,0.4289 h -0.1295 c -0.1176,0.1154 -0.1687,0.1772 -0.3189,0.256 0.0519,0.229 -0.1726,1.1245 0.1242,1.2725 0,1.1894 2.285,0.6979 2.8012,1.1233 3.4157,0.8005 3.4948,0.1568 6.379,0.8136 3.193,0.7259 7.4634,1.5211 8.0541,1.5211 l 0.2506,0.0615 v 0 c 0.7475,0 2.6226,0.9031 3.5887,1.6648 1.144,0.9008 1.0814,2.0965 1.3263,3.0245 l 0.4042,0.3929 c 0.2787,0.3212 0.459,0.7197 0.512,1.1951 l 0.2216,1.1914 c -1.0936,0 -1.9491,0.4377 -2.9783,0.4527 h 0.008 l -0.6029,0.0626 v 0.0842 c -1.2183,0 -2.0784,-0.2117 -2.9815,0.5508 v 0.0434 h -0.0496 l -0.2852,0.7455 c 0.2073,0.1088 0.6968,0.5907 0.7399,0.8283 0.2917,0.0552 1.1917,0.5726 1.3719,0.754 v 10e-4 c 0.1287,0.1324 0.4471,0.0601 0.6081,0.0601 l 0.005,0.3016 h -0.005 v 0 c 0.6395,0.004 2.3573,1.6452 2.7751,2.0849 h 0.2044 v 0.1349 c 0.3705,0.1406 0.6426,0.3858 1.0153,0.4482 0.0607,0.0498 0.1188,0.104 0.1752,0.1578 v 0.0485 l 0.1392,0.0811 c 0.2767,0.2701 0.5488,0.5553 0.8501,0.8039 0.3274,0.271 0.7776,0.4331 1.1257,0.6038 4.8892,2.4035 9.5147,5.5684 13.3582,8.5759 0,0.0635 0,0.1287 0,0.1936 -0.0227,0.0213 -0.0431,0.0431 -0.066,0.0635 -4.5207,0.1264 -9.7858,-2.7005 -14.0224,-4.269 -2.7806,-1.0295 -6.2646,-2.2677 -8.669,-3.1478 -0.3112,-0.1891 -0.8104,-0.2614 -1.3784,-0.2421 v -9e-4 c -0.0681,-0.0122 -0.1364,-0.0326 -0.1945,-0.064 -0.1038,-0.002 -0.1902,-0.015 -0.2917,-0.0862 -0.0334,-0.0119 -0.0658,-0.0272 -0.0969,-0.0454 -0.0729,-0.007 -0.1795,-0.0334 -0.2441,-0.0629 -0.0456,-0.004 -0.0879,-0.0116 -0.1301,-0.0278 -0.0723,0 -0.1338,-0.003 -0.2027,-0.0218 h -1.4272 v -0.11 c -0.2098,0 -0.3966,0.0151 -0.6007,-0.0303 l -0.7367,0.001 c -0.0411,0.009 -0.0853,0.0193 -0.125,0.0227 -0.1213,0.0811 -0.2344,0.1049 -0.375,0.1049 v 0.0116 h -2.6932 c -0.0485,0.0258 -0.1058,0.0434 -0.1642,0.0476 -0.0572,0.0346 -0.1221,0.0584 -0.1933,0.0649 -0.0853,0.0516 -0.2052,0.1112 -0.2937,0.1262 -0.0844,0.0811 -0.1998,0.1329 -0.3265,0.1341 v 0 h 0.1267 c -0.0411,0.0411 -0.078,0.0799 -0.1267,0.1134 v 0.1264 h -0.007 v 0.847 c 0,0.0626 -0.0119,0.1199 -0.0303,0.1718 -0.002,0.0572 -0.0142,0.1133 -0.0323,0.1641 v 0.4266 l -0.1114,-0.108 v 0 c 0.064,0.0629 0.1114,0.1434 0.1309,0.2367 0.0151,0.0354 0.0335,0.0635 0.0477,0.1003 h 0.003 c 0,0.1265 0.1882,0.2872 0.267,0.3663 v 0.001 c 0.0247,0.0238 0.1199,0.0626 0.1664,0.1026 0.0788,0.0388 0.1653,0.0907 0.2356,0.1423 h 0.555 v 0.2855 c 0.051,0.0289 0.0961,0.0657 0.1349,0.1122 0.0627,0.0162 0.1245,0.0442 0.1806,0.0885 0.0538,0.008 0.1406,0.036 0.1936,0.0564 0.0677,8e-4 0.1304,0.007 0.1953,0.0343 0.1219,0 0.2724,-0.0159 0.3844,0.0294 0.038,0 0.0779,0.003 0.1159,0.009 h 0.6319 v 0.1687 c 0.0377,0.0116 0.0799,0.0269 0.1318,0.0539 0.0972,0.0107 0.3109,0.0898 0.4028,0.1363 0.0711,0.015 0.1414,0.0496 0.1998,0.097 0.0737,0.0184 0.1426,0.0518 0.1999,0.1037 0.1156,0.0564 0.161,0.0507 0.2897,0.0507 v 0.078 c 0.0365,0.0184 0.0722,0.0431 0.1077,0.0723 0.051,0.0184 0.0995,0.0453 0.144,0.0822 0.0754,0.0173 0.1479,0.055 0.2083,0.11 0.0734,0.0261 0.1264,0.0456 0.1979,0.0791 0.0785,0.0184 0.1564,0.0561 0.2191,0.1122 0.0485,0.0193 0.0981,0.0445 0.1426,0.0703 0.0691,0 0.1318,0.008 0.2041,0.008 v 0.0281 c 0.0419,0.0184 0.0822,0.0433 0.1187,0.0725 0.0573,0.0151 0.1134,0.0397 0.1622,0.0754 0.0519,0.0154 0.121,0.0389 0.1641,0.0584 0.1103,0.0519 0.2344,0.0661 0.3393,0.148 0.0431,0.005 0.0927,0.0227 0.1437,0.0442 0.2886,0.1537 0.5757,0.3028 0.8382,0.4604 3.4365,2.0523 9.4652,1.6591 8.2129,7.6501 -0.2988,0.2387 -0.9678,1.4669 -1.5228,1.2356 -0.6245,-0.5592 -1.5375,-1.5879 -2.1628,-2.1483 -0.6546,-0.485 -1.8913,-1.749 -3.0334,-2.2879 -0.4731,-0.2194 -0.915,-0.39 -1.2575,-0.4615 -0.0204,0.0196 -0.0419,0.0411 -0.0646,0.0627 -0.005,0.5326 -0.0238,1.1537 0.1296,1.6571 0.6579,2.1694 2.6348,4.0187 3.8792,5.7373 -0.5069,0.4113 -1.224,0.9105 -1.8139,1.5393 -1.1231,1.2055 -1.2042,-0.4031 -2.0092,-0.8048 -0.8036,-0.4028 0.4042,0 0.805,-0.9646 0.4028,-0.9647 -1.4476,-2.6518 -1.8496,-3.2148 -0.4019,-0.5627 -1.1253,-0.6438 -1.2056,-1.4477 -0.1663,-1.6656 0.8493,-4.6666 -1.6937,-4.9872 -0.4646,-0.0573 -4.3769,0.8328 -4.2227,1.2982 -0.1868,0.6118 -0.2376,1.9531 -0.2376,2.3108 0,1.3255 -0.2225,3.676 -0.9258,5.1506 -0.2897,0.6111 -0.837,0.9615 -1.2183,1.2671 -0.2282,0.1814 -0.0541,0.4201 0.0312,0.5488 1.4961,0.1468 3.8143,-0.8978 4.7302,-1.8905 1.7413,-0.8166 0.5972,4.455 0.8946,5.7382 0.2398,1.0446 1.5168,1.0165 1.9995,0.7759 0.4828,-0.2421 1.5262,-1.8497 1.5262,-2.7355 0,-0.8835 1.2878,-0.2398 1.2878,-0.2398 l -0.0797,2.3312 c 0,0 -0.4841,1.0469 -1.6086,1.2067 -0.7745,0.1092 -2.3227,1.4312 -2.6467,2.2556 -0.4267,1.0825 1.8343,0.6545 2.0094,0.8878 0.8306,0.5638 1.5846,0.7497 2.6326,0.9842 0.7625,0.1695 1.2033,0.1275 1.9182,0.2267 1.6021,0.2248 2.5302,-2.9758 3.8251,-2.0403 2.245,3.4015 5.263,7.6413 7.3295,11.2518 h 0.002 l 0.2106,0.3745 c 0.2367,0.2701 0.93,0.9788 0.9042,1.2339 0.0312,0.0518 0.055,0.108 0.0658,0.1672 0.0411,0.0749 0.11,0.2679 0.1188,0.3458 0.1644,0.4397 0.458,0.7552 0.5598,1.2456 0.0312,0.055 0.0689,0.1596 0.0831,0.2214 0.0493,0.0907 0.0949,0.2267 0.0949,0.3294 0.1418,0.5176 0.4201,1.6064 0.0734,2.0148 -0.0961,0.1134 -0.0796,0.1834 -0.1014,0.3294 -0.1457,1.0488 0.1318,0.4969 -0.2756,1.3005 -0.01,0.0842 -0.002,0.2237 -0.0399,0.3014 l -0.0281,0.2364 c 0.0292,0.0102 0.0539,0.0207 0.0777,0.0326 0.8331,0.0887 0.2021,0.1522 0.8784,0.2225 0.0573,-0.0139 0.1177,-0.0204 0.1803,-0.0139 0.0431,-0.0122 0.0876,-0.0184 0.133,-0.0196 0.2548,-0.1145 1.4635,-0.1284 1.5426,-0.1199 0.0292,-0.01 0.0615,-0.0192 0.0927,-0.0226 0.079,-0.0511 0.1698,-0.0638 0.2528,-0.0593 0.4105,0.0128 0.159,0.0182 0.536,-0.1105 0.2311,-0.0811 0.5066,-0.1154 0.7118,-0.0927 0.0766,-0.008 0.1304,-0.0272 0.2138,-0.0219 0.0521,-0.0223 0.1068,-0.0365 0.1652,-0.0419 0.0335,-0.0162 0.0692,-0.0289 0.1049,-0.0377 0.1015,-0.0907 0.2214,-0.1188 0.3489,-0.1468 0.0584,-0.0284 0.1211,-0.0519 0.1868,-0.0599 0.0842,-0.0572 0.1849,-0.0861 0.2909,-0.0861 0.0873,-0.0411 0.1922,-0.0757 0.2891,-0.0757 0.0465,-0.0142 0.0953,-0.0216 0.1449,-0.0216 0.0572,-0.0164 0.121,-0.0226 0.1859,-0.0172 0.0216,-0.005 0.0442,-0.0108 0.0661,-0.0119 0.0311,-0.0227 0.0646,-0.0377 0.0989,-0.0519 0.1071,-0.0916 0.1664,-0.1284 0.2959,-0.178 0.0253,-0.01 0.0953,-0.0757 0.1222,-0.0976 0.0933,-0.0756 0.2001,-0.1037 0.2908,-0.1706 0.0862,-0.0689 0.1769,-0.1534 0.2775,-0.1933 0.1426,-0.1168 0.1435,-0.0281 0.2149,-0.1848 0.0281,-0.0689 0.0703,-0.1284 0.1233,-0.1803 0.0604,-0.0941 0.1556,-0.1457 0.2367,-0.2214 0.0485,-0.0757 0.0873,-0.1426 0.1639,-0.1979 0.0141,-0.0192 0.026,-0.0397 0.0422,-0.0592 0.0292,-0.0595 0.066,-0.1188 0.1222,-0.1664 0.028,-0.0465 0.0864,-0.1154 0.1241,-0.1576 0.0284,-0.0607 0.0681,-0.1179 0.1145,-0.1622 0.0411,-0.1187 0.1234,-0.2148 0.2248,-0.2763 0.053,-0.053 0.0635,-0.1437 0.1622,-0.2336 0.0354,-0.0731 0.0895,-0.1372 0.1533,-0.1868 0.027,-0.0422 0.0539,-0.0842 0.0862,-0.123 0.036,-0.0831 0.0703,-0.1656 0.1321,-0.2345 0.0227,-0.0484 0.0624,-0.1136 0.0961,-0.159 l 0.0615,-0.5765 c -0.0573,-0.0942 -0.053,-0.2067 -0.0411,-0.3255 0.01,-0.0842 -0.0162,-0.1414 -0.01,-0.2276 -0.0465,-0.1071 0.009,-0.388 -0.0593,-0.6137 -0.0541,-0.1091 -0.0473,-0.3081 -0.1221,-0.4008 v 0 c -0.0573,-0.068 -0.1123,-0.1364 -0.1446,-0.2183 -0.0196,-0.0238 -0.0369,-0.045 -0.0519,-0.0723 -0.2455,-0.229 -0.8039,-0.7185 -0.9377,-1.0284 -0.0564,-0.0399 -0.1913,-0.1763 -0.2282,-0.2364 -0.1445,-0.1049 -0.138,-0.0771 -0.193,-0.2562 -0.0564,-0.0281 -0.1341,-0.1154 -0.1656,-0.1673 -0.0776,-0.0368 -0.1445,-0.0898 -0.1964,-0.1579 -0.0539,-0.0388 -0.1023,-0.0861 -0.1567,-0.1284 -0.7572,-0.3846 -1.3482,-0.953 -1.9455,-1.5837 -0.0765,-0.0487 -0.1956,-0.0941 -0.2625,-0.159 -0.0411,-0.0281 -0.0841,-0.0505 -0.1252,-0.0819 -0.0519,-0.0185 -0.1027,-0.0485 -0.1426,-0.0873 l -0.4255,-0.3274 0.0116,-0.005 c -2.0157,-2.6671 -5.292,-6.5313 -6.2697,-8.0144 -0.2041,-0.2841 0.1188,-0.9893 0.332,-1.1169 0.5065,-0.3067 1.1826,-0.6321 1.5199,-1.0621 -0.0606,-0.3164 -1.2005,-1.04 -1.533,-1.4613 -0.5553,-0.7055 -0.9238,-0.8577 -1.7274,-1.5429 -1.1806,-1.0032 -1.6951,-1.2778 -1.83,-2.1041 -0.0873,-0.5511 2.275,-2.4132 2.4414,-3.5518 0.1826,-1.241 -1.5718,-2.2978 -0.9496,-3.3846 0.7725,-0.0961 1.2218,-0.4297 1.4216,-1.0993 0.5856,0.2095 1.3159,1.1373 2.0699,1.8859 0.4884,0.4862 0.9646,0.5984 1.0652,1.201 0.0204,0.1276 0.042,0.2574 0.0627,0.3858 -0.9193,0.864 -1.8063,1.5469 -2.086,2.9761 -0.0477,0.2441 -0.5488,1.5135 0.0246,2.5634 0.377,0.686 -0.1859,1.7943 0.2347,2.2966 0.6273,0.7529 1.3882,1.0812 2.0566,1.2725 1.83,-0.0884 1.7815,-2.2901 3.3539,-3.0572 1.0718,0.1579 3.2627,4.3762 3.8123,5.3292 -0.0215,0.0431 -0.0419,0.0862 -0.0637,0.1284 -2.1649,-0.0227 -4.5423,-0.3909 -5.5392,1.0165 0.1241,2.2827 4.0787,2.5699 5.9873,3.1663 1.4284,0.4447 1.5905,1.4865 2.7417,1.8351 1.667,0.5086 7.0509,-4.8438 5.9709,-6.747 -4.0813,-1.6356 -10.0735,-9.1012 -13.083,-13.0861 0.0206,-0.0856 0.0422,-0.1707 0.0646,-0.2583 0.428,-0.1425 0.4572,-0.3478 0.6463,-0.7098 2.5719,0.0131 5.2412,0.6084 7.9937,0.7521 0.8813,0.0473 2.2739,-0.4051 4.5057,-1.8485 1.3654,-0.8836 0.1522,-2.5191 0.1502,-3.1314 -0.3002,-0.995 -1.211,-1.1483 -2.5603,-2.1997 -0.7829,-0.6069 -2.141,-1.0939 -3.2255,-1.6189 -1.0695,-0.5176 -1.8612,-1.076 -3.134,-1.5568 -1.025,-0.3869 -2.6895,-1.4023 -3.7644,-1.8181 -2.2048,-0.851 -4.3189,-1.8839 -6.3918,-2.7405 -0.3425,-0.2248 -0.6741,-0.4343 -0.8048,-0.4343 -0.1738,-0.1726 -0.4742,-0.1933 -0.7033,-0.1933 v -0.0542 l -0.7421,-0.2083 0.025,0.0161 c -0.0392,0 -0.0876,-0.006 -0.146,-0.013 -0.1922,-0.0615 -0.3847,-0.1219 -0.58,-0.178 -0.3577,-0.1069 -0.7152,-0.2053 -1.0653,-0.3081 -0.3174,-0.1392 -0.5649,-0.298 -0.6261,-0.4471 h -0.44 v -0.5975 h 1.1906 v 0.0207 l 0.008,0.002 c 0.474,-0.3619 1.7995,0.5746 2.3763,0.5746 v 0.08 l 1.1937,0.4039 c 0.2117,-0.1037 1.3209,0.1111 1.6019,0.1111 0.1179,-0.1173 0.2542,-0.2148 0.43,-0.2211 v 0 h -0.0323 l 0.3823,-0.3693 v -0.005 c 0.2098,0 0.3955,-0.2917 0.5965,-0.3447 v -0.2528 c 0.3846,0 0.3055,-0.0204 0.5326,-0.2483 v 0 c 0.0689,-0.0692 0.0626,-0.2591 0.0626,-0.349 h 0.0539 l 0.4969,-0.6395 0.0454,-0.5553 h 0.0788 v -0.5972 h -0.0788 v -0.0995 l -0.5962,-0.4947 v -0.0445 l -0.5618,-0.555 h -0.0334 l -0.0908,-0.1882 -0.2313,-0.4059 h -0.2744 c 0,-0.4105 -0.1125,-0.3263 -0.377,-0.5973 h -0.2182 v -0.1341 c -1.0347,-0.6914 -1.2841,-0.7152 -2.1853,-1.4689 -0.1953,-0.1621 -0.5068,-0.4431 -0.6686,-0.754 -0.1319,-0.2529 -0.0542,-0.4119 -0.0831,-0.6537 -0.0369,-0.2874 -0.1199,-0.6622 0.1672,-0.7843 0.2722,-0.1146 0.9627,0.0941 1.1475,0.1533 h -0.005 c -0.0898,0 0.1511,0.0247 0.2265,0.0638 h -0.0408 c 0.3013,0.005 0.578,0.2495 0.8685,0.2495 v 0 c 0,0.0257 1.9165,0.6516 3.6717,1.1321 1.8655,0.5122 4.3773,1.0457 4.4193,1.0695 h -0.0412 c 2.0189,0.0326 1.4109,-0.146 3.1221,-1.0803 v -0.1545 c 0.3382,0 0.377,-0.0657 0.5962,-0.2809 v -0.3166 h 0.3197 c 0.3577,-0.4524 1.5715,-0.9675 1.5372,-1.6223 -0.0853,-1.6409 0.1426,-1.133 -1.4173,-1.7155 -0.5995,-0.2225 -1.7974,-0.2256 -2.4001,-0.3912 -1.262,-0.3367 -2.4695,-0.4816 -3.6924,-0.8263 -1.442,-0.407 -2.8704,-0.4447 -4.1644,-0.8132 -1.3524,-0.3836 -2.3278,-0.1072 -3.3692,-0.5176 v 0 c 0,0.0734 -0.6018,-0.4502 -0.7322,-0.4502 -0.1505,-3.3868 0.7971,-9.892 0.866,-13.1261 0.5867,-1.5426 0.0618,-2.7405 -0.271,-4.1771 h -0.0627 l -0.015,-1.5925 0.015,0.0249 c -0.0334,-0.068 -0.0433,-0.1349 -0.0433,-0.2117 l 0.0121,0.0277 -0.4356,-1.2333 h -0.1304 c 0,-0.4635 -0.0284,-0.8198 -0.3836,-1.0794"
       style="fill:#231916;fill-opacity:1;fill-rule:evenodd;stroke:none"
       id="path14688" />
    <path
       d="m 257.8476,392.8431 c -0.2764,-2.7771 -0.6985,-4.7776 -0.6336,-6.9415 0.0258,-0.8541 5.2362,1.5692 5.7578,1.7322 0.0592,0.0173 0.1173,0.0338 0.1757,0.0488 0.0734,0.0343 0.1488,0.0711 0.2234,0.1034 0.9368,0.4221 1.9689,0.7232 2.9058,1.1863 l 2.3683,1.3028 0.4133,0.2645 0.4717,0.258 c 0.1522,0.1003 0.3606,0.2883 0.3348,0.4838 -0.0227,0.1866 -0.0768,0.3742 -0.0941,0.5406 -0.015,0.1653 -0.2407,0.1814 -0.0669,0.3249 0.1596,0.07 -0.3107,0.4243 0.2571,0.3997 l 0.4252,-0.1029 0.3549,-0.1131 c 0.3024,-0.1219 0.6296,-0.3909 0.9014,-0.5962 0.449,-0.3364 0.8215,-0.6335 1.0956,-1.0329 0.2171,-0.3141 0.6531,-1.1883 0.7384,-1.5435 l -0.0388,-0.0227 0.0238,-0.2256 c 0.0354,-0.053 -0.1641,-0.9961 -0.1902,-1.0179 0.0314,-0.1834 -0.001,-0.4771 -0.1778,-0.5893 l 0.0205,-0.0326 c -0.1956,-0.2404 -0.324,-0.1766 -0.597,-0.3711 -0.0357,-0.4805 -1.2943,-1.0721 -1.6699,-1.1129 -0.0388,0.0615 -2.0616,-0.7523 -3.9022,-1.4062 -2.639,-1.1305 -5.4249,-2.0801 -6.9667,-2.6286 l -0.1465,-0.0927 -0.0842,0.01 c -0.2345,-0.083 -0.4351,-0.1576 -0.5896,-0.216 -0.4184,-0.1607 -1.3306,-0.3509 -1.1277,-0.7514 0.4576,-0.8966 0.4057,-1.9698 1.8984,-3.8155 0.4351,-0.5363 1.2489,-2.4267 1.6668,-3.194 0.5017,-0.9261 1.4972,-2.6706 2.0282,-3.5448 0.4544,-0.7489 1.2532,-1.779 1.7832,-2.5529 0.3875,-0.5689 0.6962,-1.2101 1.101,-1.7484 1.114,-1.4768 1.8814,-2.3014 3.0872,-3.355 0.398,-0.3487 1.1257,-1.0015 1.5392,-1.2867 0.406,-0.2795 0.9919,-0.6182 1.4043,-0.8461 0.9414,-0.5159 2.0574,-0.8107 2.9512,-1.0945 1.6103,-0.515 2.8981,-0.8064 3.9367,-0.9187 0.4995,-0.0541 1.1169,-0.0754 1.4097,-0.1242 0.7404,-0.1275 0.4952,-0.3279 -0.8952,-0.9272 -0.8569,-0.3736 -2.2232,-1.1659 -4.2332,-1.675 -0.6974,-0.1771 -1.6787,-0.3747 -2.4957,-0.6976 -0.966,-0.3809 -2.4145,-0.0581 -3.4174,0.2991 -1.1248,0.4014 -1.8048,0.6542 -2.8398,1.6115 -0.462,0.4263 -0.9102,1.1528 -1.3345,1.6342 -1.4494,1.6398 -2.6456,3.0537 -3.3338,4.4234 -0.6704,1.2458 -1.2654,2.8001 -1.7966,3.8092 -1.6189,3.0776 -2.6606,5.135 -3.602,6.5801 -0.3172,0.4892 -0.396,0.6542 -0.7985,0.6542 -0.3379,0 -0.3824,-0.3767 -0.4479,-0.5386 -0.6662,-1.631 -1.0437,-3.5155 -1.7975,-5.1585 -0.6593,-1.44 -1.6676,-2.6566 -2.5894,-3.9055 -1.1495,-1.5574 -2.4645,-2.9931 -4.5627,-3.7182 -0.655,-0.226 -1.6319,-0.4026 -2.4105,-0.5196 -1.4106,-0.2101 -3.0198,-0.0913 -5.1489,0.0782 -2.4466,0.1942 -6.4298,0.2038 -9.5882,0.3614 -2.3975,0.3303 -2.7125,0.8711 -1.6472,1.5857 1.6254,0.3476 6.4709,0.6854 7.7199,0.8688 1.1248,0.165 3.8664,0.5559 5.1542,1.1248 2.2204,0.9825 3.6723,2.0844 5.3583,3.9442 0.8496,0.9357 1.4023,2.0182 2.0878,3.2587 0.5437,0.9887 1.3005,2.0812 1.43,3.2794 0.188,0.1641 0.7331,1.8164 1.1883,3.5654 -0.5924,-0.1602 -1.1429,-0.1976 -1.6081,-0.3577 -0.8591,-0.2946 -1.5341,-0.3946 -2.0684,-0.6205 -1.0641,-0.4499 -1.58,-0.8873 -1.9091,-0.9876 -0.5613,-0.1758 -0.6404,-0.1911 -1.3473,-0.4221 -0.5517,-0.1792 -0.561,-0.4694 -1.1141,-0.667 -0.5159,-0.1857 -0.5482,-0.231 -0.9294,-0.4621 -0.2588,-0.1576 -0.6863,-0.2664 -0.7759,-0.4447 -0.5148,-0.6197 -1.2878,-0.5766 -1.7271,-0.9757 -0.476,-0.1372 -1.5381,0.04 -2.0464,0.7007 -0.01,0.0128 -0.5516,0.8224 -0.6069,0.9097 -0.396,0.5907 -0.7761,1.0029 -0.8246,1.0117 -0.2687,1.6372 0.991,2.4771 1.9106,2.8139 l 1.7087,0.6228 c 1.006,0.0893 2.2074,0.8084 3.833,1.4238 2.1609,0.817 4.8348,1.319 7.1413,2.4222 0.459,0.2189 0.8615,0.4088 1.2124,0.5763 0.233,1.2025 0.5193,2.5183 0.792,3.9076 0.2429,3.7485 1.7099,11.2872 1.8233,16.4327 l -0.1965,6.0687 -0.083,-0.002 c -0.0238,0.7699 -1.1517,1.7306 -1.1767,2.4449 v 0 l 0.1004,-0.095 c -0.005,0.1588 0.005,0.2764 -0.0993,0.4122 l 0.003,0.007 0.0433,-0.038 c -0.0141,0.436 0.1953,0.9014 0.4933,1.2113 l 0.5462,0.0496 h -0.0269 c 1.4334,0.0657 2.9942,-0.3195 4.3577,-0.6336 l 0.002,-0.0691 0.298,-0.135 c 0.0972,0.002 0.3228,-0.2968 0.3486,-0.4178 0.271,-0.0626 0.5723,-0.2568 0.6262,-0.5485 0.2492,-0.0981 0.5947,-0.3583 0.6032,-0.6593 l 0.0508,10e-4 c 0.1567,-0.4244 0.4697,-0.489 0.5085,-0.9723 0.5709,-0.4039 -0.131,-2.2876 -0.3586,-2.7865 l -0.0992,-8e-4 c 0.0249,-0.735 -0.1134,-1.7844 -0.4416,-2.4437 l -0.1574,-0.883 c 10e-4,0.004 -0.0348,-0.1188 -0.0357,-0.1718 -0.8053,-2.9325 -1.3753,-7.8483 -1.8079,-11.5376 l 0.0496,9e-4 z"
       style="fill:#231916;fill-opacity:1;fill-rule:evenodd;stroke:none"
       id="path14692" />
    <path
       d="m 250.6734,454.1919 c -0.3804,-0.9576 -0.635,-1.5959 -0.7954,-2.001 0.3231,-1.2798 0.9907,-2.4551 0.7668,-3.4234 -0.2526,-1.0823 -1.1699,-2.1379 -2.0552,-2.912 -1.6378,-1.4361 -3.6076,-1.5265 -6.2132,1.1301 1.3141,3.6451 3.7142,5.798 8.297,7.2063 z m 9.7682,-6.9231 c 1.4147,0.0899 2.6274,0.6406 3.8565,1.1787 0.7614,0.333 1.5645,0.7103 2.3709,0.7676 2.6663,0.1885 4.1519,-2.3871 2.8551,-4.841 -0.8476,-1.6022 -1.7218,-3.1913 -2.564,-4.7945 -0.2976,-0.565 -0.5315,-1.1569 -0.8733,-1.9103 0.7279,-0.3668 1.3337,-0.7041 1.9624,-0.9867 0.65,-0.2912 1.326,-0.5196 1.9837,-0.7901 1.9074,-0.7806 2.2771,-1.2155 2.1605,-2.5282 -0.1292,-1.472 -1.4683,-2.9358 -2.9228,-3.2269 -1.6732,-0.3334 -3.067,0.1366 -4.2134,1.3852 -0.6488,0.6985 -1.3022,1.3961 -1.9536,2.096 -1.7734,-1.6282 -3.4566,-3.1332 -5.0922,-4.6826 -1.4867,-1.4071 -4.0062,-1.5383 -5.6007,-0.2327 -0.1034,0.0819 -0.1899,0.18 -0.2826,0.2684 -2.0109,1.9029 -1.8856,2.456 0.6276,3.6162 1.7615,0.8118 3.4824,1.7164 5.1761,2.6663 0.6534,0.3642 1.1806,0.9606 1.7756,1.4629 -0.2273,0.7977 -0.4623,1.4653 -0.6004,2.1532 -0.2523,1.2753 0.1423,1.7022 1.4142,1.575 0.6948,-0.0709 1.3848,-0.1744 2.1974,-0.277 0.5165,1.2875 0.9888,2.4625 1.4298,3.5632 -0.8356,0.8949 -1.6509,1.0698 -2.6112,0.7506 -0.4247,-0.1423 -0.9358,-0.3915 -1.3045,-0.2716 -1.7606,0.5701 -2.4832,-0.6145 -3.4923,-1.6877 -3.0328,-3.2202 -5.5871,-6.7802 -8.0657,-10.4222 -1.05,-1.542 -2.2553,-2.9866 -3.4523,-4.424 -0.3989,-0.4785 -0.9703,-0.8277 -1.5052,-1.175 -0.7081,-0.4603 -1.3865,-0.3257 -1.8695,0.3569 -0.6327,0.8938 -1.2957,1.7856 -1.7626,2.7664 -0.4269,0.892 -0.3914,1.8694 0.1205,2.8057 1.101,2.0049 2.4735,3.8185 4.3594,5.0896 3.3939,2.2867 6.0979,5.1851 8.3254,8.5822 0.5249,0.8044 1.2214,1.4978 1.9451,2.3689 -0.301,0.5853 -0.6038,1.2107 -0.9371,1.8164 -0.2478,0.4519 -0.6069,0.8561 -0.7903,1.3317 -0.5585,1.448 0.1627,2.6037 1.6905,2.6997 0.9037,0.057 1.8145,-0.0507 2.7202,-0.0119 1.9102,0.0786 3.2978,1.1461 3.9707,2.9143 0.2376,0.6308 0.2319,1.1438 -0.3653,1.5245 -0.5423,0.3427 -0.9153,0.0474 -1.353,-0.3226 -2.4248,-2.0505 -4.1423,-2.0483 -6.4831,-0.0462 0.5334,0.9445 1.0717,1.8902 1.5913,2.8075 -1.273,1.1914 -1.2991,1.2248 -2.4054,0.3546 -0.7773,-0.6132 -1.5126,-0.9519 -2.5356,-0.2016 0.1885,0.6707 0.4022,1.3306 0.5541,2.001 0.1508,0.6783 0.2401,1.3652 0.3493,2.0143 -0.9519,0.4204 -1.3649,-0.1811 -1.808,-0.606 -0.3211,-0.3093 -0.621,-0.6795 -0.8183,-1.0783 -2.6501,-5.3949 -6.6501,-9.8672 -10.0344,-14.7632 -2.427,-3.5124 -4.8271,-7.0446 -7.1904,-10.5978 -1.8606,-2.8004 -3.5838,-5.6897 -5.4887,-8.4583 -1.6075,-2.3417 -3.3834,-4.5669 -5.0984,-6.8344 -0.2319,-0.3075 -0.5218,-0.5726 -0.811,-0.8283 -1.9213,-1.6733 -2.6801,-1.4306 -3.3896,1.0591 -0.1058,0.3696 -0.2243,0.7579 -0.4335,1.0749 -1.1182,1.6959 -0.7319,3.3366 0.1508,4.9518 0.868,1.5883 1.874,3.1093 2.6343,4.7472 0.3892,0.8419 1.1319,0.3169 1.5741,0.7296 1.1264,1.0622 2.444,1.9721 3.3905,3.1765 8.1541,10.391 16.2448,20.8352 24.364,31.2534 0.5607,0.7211 1.0083,1.4017 1.0698,2.4041 0.0851,1.3651 1.2496,2.1608 2.3145,2.6662 0.8141,0.3895 1.3587,0.9017 1.8967,1.5378 1.586,1.8757 3.1997,3.7282 4.771,5.6138 0.2982,0.358 0.4623,0.8311 0.9045,1.656 -1.3544,-0.3535 -2.2751,-0.565 -3.1796,-0.8311 -2.6629,-0.785 -5.3218,-1.5753 -7.973,-2.3902 -0.6803,-0.2095 -1.3269,-0.521 -1.9891,-0.7818 -2.8389,-1.1169 -5.6633,-1.3434 -8.4237,0.2242 -1.6937,0.9641 -2.1368,1.8836 -1.836,3.5255 3.577,0.4594 7.1824,0.7106 10.6931,1.4286 3.5039,0.718 7.047,1.4675 10.6509,3.0824 -2.0968,1.7444 -3.9407,3.3165 -5.8314,4.8291 -0.9306,0.7472 -1.4698,1.6291 -1.3513,2.8332 0.0973,0.9737 0.6818,1.4029 1.5971,1.033 2.1917,-0.8841 4.4934,-1.133 6.7997,-1.4899 1.3598,-0.2081 2.7502,-0.798 3.9288,-1.533 1.6742,-1.0426 1.8425,-2.139 0.9003,-4.2253 0.6781,0.1366 1.2053,0.1851 1.6946,0.3512 1.6528,0.5607 3.2638,1.2507 4.9371,1.7263 2.6254,0.7492 3.4004,-0.1638 3.8865,-2.1101 0.0953,-0.3739 0.2407,-0.7393 0.3257,-1.1169 0.4519,-2.0194 -0.5122,-3.4727 -2.5401,-3.7919 -1.9049,-0.2996 -3.8239,-0.5119 -5.7163,-0.8645 -0.6596,-0.1216 -1.4253,-0.3946 -1.863,-0.8626 -3.2011,-3.3809 -6.3343,-6.8278 -9.4793,-10.2609 -0.1704,-0.1865 -0.2704,-0.4385 -0.4311,-0.703 0.2179,-0.388 0.3934,-0.8126 0.6684,-1.159 0.8022,-1.0197 1.2809,-1.0038 2.1262,-0.0355 0.5542,0.633 1.0996,1.281 1.7133,1.8479 2.3547,2.1802 4.4331,4.5241 4.9518,7.8492 1.2926,0.6069 2.3624,0.0742 3.2786,-0.6364 0.3526,-0.2682 0.578,-1.065 0.4561,-1.5148 -0.3427,-1.2892 -0.8938,-2.5229 -1.3791,-3.8197 1.1849,-1.0868 1.3437,-1.1591 2.4971,-0.2781 0.8702,0.6619 1.7359,1.3941 2.3743,2.264 0.5303,0.7237 1.0854,0.8161 1.8175,0.6803 1.3652,-0.2545 2.4055,-1.4102 2.7528,-2.9466 0.3274,-1.4499 -0.3495,-2.3567 -1.5237,-3.0265 -1.1256,-0.6404 -2.1994,-1.4035 -3.3905,-1.8768 -2.3958,-0.9584 -4.0175,-2.7766 -5.6109,-4.6577 -0.1596,-0.1876 -0.2352,-0.4495 -0.3676,-0.7225 0.678,-0.8408 1.3952,-0.8731 2.1486,-0.2035 0.6806,0.5995 1.2714,1.3118 2.0002,1.838 0.663,0.4799 1.4252,0.9306 2.207,1.1063 1.1977,0.2676 1.8791,-0.3623 2.2079,-1.5794 0.195,-0.728 0.47,-1.4491 0.828,-2.1102 0.6231,-1.1471 0.5026,-2.0395 -0.6304,-2.8343 -0.8444,-0.5899 -1.787,-1.0469 -2.6666,-1.5911 -1.3725,-0.8498 -1.4675,-1.0922 -1.1709,-2.6719 0.2987,-1.6053 -0.0162,-2.2491 -1.5415,-2.8778 -1.3167,-0.5422 -2.6751,-0.9776 -3.9938,-1.5123 -1.5502,-0.6321 -2.5109,-1.7501 -2.9508,-3.3922 z m -0.6112,17.3704 c 0.9241,1.2603 1.7822,2.3091 2.482,3.4563 0.2036,0.3322 0.1282,1.1033 -0.1306,1.366 -0.2211,0.2257 -0.9684,0.1576 -1.3442,-0.0419 -1.3706,-0.7288 -2.0532,-2.0667 -2.9024,-3.4209 0.6089,-0.4368 1.1242,-0.8064 1.8952,-1.3595"
       style="fill:#231916;fill-opacity:1;fill-rule:evenodd;stroke:none"
       id="path14696" />
    <path
       d="m 248.5675,540.5227 c 0.1693,1.0843 1.8681,2.9832 2.3627,3.7797 0.3736,0.5851 1.5279,1.5151 1.834,1.8394 h 0.0108 c 0.2687,0.2795 1.8247,1.6849 1.8247,1.8355 l 0.333,0.1014 0.2784,-0.1014 0.0397,-0.5539 -0.0397,-1.8967 c -0.1349,-0.6857 0.0893,-1.4692 -1.1988,-2.0684 -0.237,-0.1616 -0.4215,-0.5344 -1.2481,-0.9936 -0.0224,0 -0.6216,-0.303 -1.2943,-0.7242 -0.4342,-0.2736 -0.8458,-0.6251 -1.3405,-0.8816 -0.483,-0.2512 -0.955,-0.4558 -1.3323,-0.5423 -0.2123,0.009 -0.2542,0.0326 -0.2296,0.2061 z m 17.6536,4.3926 c -0.8623,-1.0063 -0.9192,-1.6002 -1.8343,-2.2394 0,-0.36 -1.4723,-1.209 -1.8362,-1.3708 l -0.0304,-0.0335 -1.1919,-0.0303 v 3.2054 c 0.1238,0 0.3027,0.3416 0.9311,0.5885 l -0.0141,-0.0377 2.1415,1.4743 1.0174,0.445 -0.0108,-0.006 0.8277,0.4544 h 0.6123 l 0.3654,-0.6197 c -0.4019,-0.4708 -0.6273,-1.1735 -0.9777,-1.83 z m -6.0168,-8.5743 0.4136,-2.6135 0.0669,-0.1542 c -0.0422,-1.262 -0.2531,-2.6912 -0.4669,-3.7151 -0.1185,-0.553 -0.0482,-1.0043 -0.007,-1.3116 0.0549,-0.4334 0.4611,-0.5043 1.3093,-0.7169 0.4606,-0.1139 0.6726,-0.502 1.0281,-0.6811 0.4669,-0.2347 0.6092,-0.6585 0.6803,-0.8997 0.0828,-0.2835 0.3286,-1.0982 0.1766,-1.6685 -0.1854,-0.7005 -0.6035,-1.332 -0.7877,-1.7447 -0.3362,-0.7512 -0.6931,-1.1974 -0.6931,-1.1974 -0.6304,-0.8753 -0.932,-1.3116 -1.3416,-2.2031 -0.5551,-1.2112 -1.1362,-1.999 -1.1362,-1.999 0.3192,-0.4583 0.7608,-0.345 1.2688,-0.2599 1.3309,0.2231 3.0736,1.3796 3.0736,1.3796 1.455,1.1608 2.1169,0.7985 2.757,0.8135 0.6248,0.0139 2.037,-1.3923 2.4131,-2.6827 0.4054,-1.402 -0.4864,-2.7059 -1.1134,-2.9355 -1.6954,-0.6239 -3.1309,-0.9516 -4.8436,-1.5585 -1.2415,-0.4408 -2.7567,-1.1551 -3.9982,-1.6143 -0.1931,-0.1605 -1.7558,-0.2815 -2.8228,-1.3128 -0.9343,-0.9042 -3.2247,-0.5539 -3.6697,-0.0796 -0.834,0.8835 -2.9259,3.2933 -2.5552,4.5845 0.3048,1.0618 0.8912,2.8034 0.9471,3.1093 0.068,0.3776 1.8754,2.7884 2.1858,4.6559 0.2081,1.2373 0.2358,2.0392 0.4504,2.7992 0.1434,0.5097 0.07,0.7078 -0.18,1.0267 0,0 -0.6046,0.3634 -1.3039,0.7707 -0.4431,0.2586 -1.2019,0.1823 -1.6231,0.5162 -0.2685,0.2135 -0.9981,0.6866 -1.1651,0.9108 -0.2103,0.2835 -0.0961,0.6627 0.5463,0.968 0.193,0.0913 0.5745,0.5032 0.8526,0.5763 0.2412,0.0649 0.5389,0.1327 0.7263,0.1823 0.1284,0.0346 0.4365,0.0884 0.5261,0.1088 1.1681,0.237 2.4573,0.0443 2.4573,0.0443 l 0.0635,0.2545 c 0.0646,0.3577 0.1347,0.5893 0.0482,1.097 -0.0675,0.3912 -0.3135,1.1123 -0.3912,1.8751 -0.0666,0.6231 0.1945,3.2905 0.4992,4.934 v 1.6427 h 0.004 v 0.0247 l -0.6109,-0.1647 c -0.5939,-0.2903 -1.0982,-1.0273 -1.8354,-1.0605 0,-0.1434 -1.2232,-0.485 -1.2232,-0.8076 l -0.5046,-0.4189 h -0.1077 c -0.0476,-0.33 -0.2965,-0.3365 -0.413,-0.6115 -0.2392,0 -4.1598,-3.249 -4.1598,-2.9171 v 0 c -0.0542,-0.0538 -0.0961,-0.0981 -0.1273,-0.1607 -0.7665,-0.0734 -1.2827,0.1638 -2.0047,0.4235 0,0.2747 -0.7222,0.2942 -0.9915,0.3577 l -0.2308,0.4258 h -0.0266 c -0.7203,1.8958 0.006,3.6666 1.1905,5.07 0.0488,0 1.0608,1.0667 1.1135,1.2252 0.3319,0.2531 0.0422,0.5927 0.7577,1.2245 v 0.007 c 0.3838,0.2639 0.9008,0.7608 1.0443,1.2178 l 0.1769,0.2749 c 0.3858,0.3062 0.6485,0.6251 0.8246,1.2266 0.1389,0.1312 0.1981,0.28 0.3985,0.3359 0.0204,0.0938 1.0196,1.023 1.207,1.2265 0.3192,0.3646 0.8603,0.883 1.2203,1.2232 0.1789,0 1.0571,1.036 1.2285,1.2257 0.0216,0 1.5724,2.2039 1.7567,2.4497 l 0.0958,0.1077 0.6103,0.5046 c 0.015,0.3707 1.2223,1.2532 1.2223,1.2804 0.1474,0.1496 1.2231,1.3331 1.2231,1.3385 l 0.4386,0.4439 c 0.0303,0.2092 0.153,0.3461 0.1831,0.5542 0.0261,0.1981 -0.0377,0.4728 -0.009,0.6701 h -0.6123 c 0,-0.2897 -0.9107,-0.6123 -1.2231,-0.6123 0,-0.0471 -2.0458,-1.2232 -2.4469,-1.2232 0,-0.1434 -1.5928,-1.2251 -1.834,-1.2251 0,-0.1103 -2.4477,-1.1523 -2.4477,-1.5531 -0.2611,-0.2407 -1.8354,-1.01 -1.8354,-1.0522 -0.417,-0.0343 -1.8346,-1.0259 -1.8346,-1.2674 -0.1817,-0.1066 -0.4074,-0.4158 -0.6109,-0.4158 v -0.038 c -0.2735,-0.14 -1.2231,-0.5496 -1.2231,-0.7605 -0.1911,-0.0876 -0.3839,-0.4272 -0.6123,-0.4272 v -0.0179 c -0.61,-0.4822 -1.2232,-0.6177 -1.7674,-1.2053 h -0.0681 v -0.0655 l -0.43,-0.3092 c -0.4277,-0.4238 -1.262,-0.9819 -1.8453,-1.4647 l -0.1712,-0.1695 c -0.2336,-0.1851 -1.2221,-1.0205 -1.2232,-1.2169 -0.1927,-0.0893 -0.3688,-0.4513 -0.6123,-0.4513 v -0.0312 c -0.9805,-0.9841 -3.3375,-2.0761 -4.064,-2.825 h -0.001 c -0.5474,-0.5476 -3.5309,-0.7055 -4.1956,-0.377 0,0.057 -1.0596,0.5293 -1.2231,0.5862 0,0.0485 -1.592,0.5032 -1.8335,0.6208 0,0.0196 -3.2712,1.0726 -3.6709,1.2793 0,0.1131 -1.2727,0.3847 -0.9796,1.0962 l 0.6777,1.6381 c 0.3805,0.1293 1.4369,1.6897 1.8343,1.6897 v 0.0346 c 0.2362,0.2092 1.8346,1.3062 1.8346,1.3462 0.1905,0.1068 1.2223,0.4677 1.2223,0.5485 l 0.3362,0.0949 v -0.007 c 1.3147,0.18 14.957,6.5591 14.957,6.5605 1.2512,0.379 3.0079,1.834 4.2829,1.834 v 0.0434 c 0.3039,0.1812 3.0566,1.2274 3.0566,1.2501 0.362,0.233 3.0586,1.2555 3.0586,1.2781 0.2815,0.0885 1.8374,0.4981 1.8374,0.6208 0.883,0 1.7138,1.0939 2.4443,1.0939 v 0.0357 c 0.3634,0.1962 0.7795,0.5766 1.2237,0.5766 v 0.0368 c 0.2585,0.0978 0.5647,0.2628 0.5678,0.5763 h 0.0439 v 3.7701 c 0.1973,0.1055 1.8335,1.1843 1.8335,1.2081 0.2372,0.1973 4.7344,2.287 4.8832,2.287 -0.235,0.2319 0.5369,-0.1204 0.8819,-0.0246 l 0.2531,-0.5066 c -0.0422,-0.2146 0.1012,-0.398 0.1012,-0.608 0.1381,0 0.0981,-0.7362 0.1046,-0.8731 l 0.0989,0.1015 c -0.1184,-0.1165 -0.2035,-2.5143 -0.2035,-2.9047 l 0.61,0.2177 c 0.5358,-0.1743 4.4241,0.3082 4.4241,0.6684 1.4981,0 1.1565,-0.002 2.2708,-0.5842 l 0.3084,-0.8203 c 0.915,-1.7824 -1.3569,-2.3491 -1.3569,-2.6402 -0.334,-0.2512 -0.9117,-1.0338 -1.2223,-1.0338 0,-0.3039 -1.6855,-1.8386 -1.8341,-1.8386 v -0.0827 l -2.7388,-1.3505 h -0.005 c 0,-0.0856 -1.5797,-1.813 -1.8354,-1.8357 0,-0.0969 -1.5925,-3.215 -1.5925,-4.6125 -0.0176,0 -0.0822,-1.1665 -0.0884,-1.2654 l 1.8362,1.0894 v 0.003 c 0.8666,0 2.0175,1.7158 2.9189,1.7158 0,0.2608 2.8598,0.3427 2.7921,0.4107 1.7439,-0.4022 4.047,-1.5877 4.047,-3.672 0.1554,0.1551 -0.14,-1.6016 -0.748,-1.6016 0,-0.2361 -0.2554,-0.3396 -0.474,-0.6111 l -2.2158,-3.2278 c -0.038,0 -0.3666,-0.5324 -0.37,-0.6112 -0.1851,0 -1.4516,-1.622 -1.6866,-1.9431 l -0.4535,-0.6123 c -0.1673,0 -1.0264,-1.4462 -1.2688,-1.7844 -0.6897,-0.4487 -0.9632,-0.7946 -1.5735,-1.0942 -0.5508,-0.2696 -1.357,-0.3254 -2.1481,-0.5732 -1.3178,-0.6196 -1.652,-0.4915 -3.0022,-0.485 z m 9.0204,58.6891 c 0.1653,-0.1003 0.207,0.085 0.8184,-0.5046 0.3727,-0.6497 0.4277,-0.6273 0.8844,-1.1692 0.4615,-0.54 0.968,-2.0124 1.4757,-3.354 0.5054,-1.3428 0.6616,-4.0266 -0.002,-5.7886 -0.6618,-1.7609 -2.0508,-3.5589 -3.2924,-4.6386 -0.305,-0.2665 -1.6319,-1.1328 -3.047,-2.4208 -1.6358,-1.4905 -3.4993,-3.5221 -5.7625,-5.4956 -1.1016,-0.9603 -2.579,-1.9828 -3.6009,-2.8808 -1.1347,-0.9913 -2.1197,-2.0971 -2.9939,-2.842 -1.0347,-0.8825 -1.9474,-1.4732 -2.3332,-1.7674 -2.1308,-1.6212 -4.972,-3.8736 -5.7835,-3.8736 0,0 2.787,3.6009 4.8577,6.3253 0.8977,1.178 1.6605,2.1965 2.0032,2.6861 0.9451,1.4558 2.3023,2.7405 3.2959,4.134 2.6997,3.7885 5.1656,7.5767 7.9755,11.7184 1.0993,1.482 1.8301,2.9759 2.5336,4.6239 0.7101,1.6605 1.912,5.1837 2.9713,5.2475"
       style="fill:#231916;fill-opacity:1;fill-rule:evenodd;stroke:none"
       id="path14700" />
  </g>
</svg>
