<?xml version="1.0" encoding="UTF-8"?>
<svg xmlns="http://www.w3.org/2000/svg" viewBox="0 0 2000 2000" fill="none">
  <title>CQU openlib</title>
  <circle cx="1000" cy="1000" r="999" fill="#FFFFFF"/>
  <path fill="#000000" d="M716.485 875.69L716.485 875.69Q716.485 902.923 724.266 906.813L724.266 906.813Q728.805 908.758 736.585 908.758L736.585 908.758L736.585 786.213L721.024 786.213Q687.956 893.197 588.753 893.845L588.753 893.845Q504.463 893.845 473.989 808.906L473.989 808.906Q459.076 767.41 459.076 711L459.076 711Q459.076 589.752 525.86 546.31L525.86 546.31Q555.037 528.155 590.698 528.155L590.698 528.155Q671.747 528.155 708.056 604.665L708.056 604.665Q714.54 618.281 719.079 632.545L719.079 632.545L734.64 632.545L732.695 513.242Q718.431 513.242 715.189 522.319L715.189 522.319Q713.244 530.1 713.244 547.606L713.244 547.606Q694.44 528.803 649.053 517.132L649.053 517.132Q619.227 510 588.105 510L588.105 510Q485.66 510 431.195 585.861L431.195 585.861Q393.589 639.677 393.589 709.703L393.589 709.703Q393.589 794.642 446.108 852.348L446.108 852.348Q501.869 912 591.347 912L591.347 912Q656.834 911.352 716.485 875.69M999.676 510L999.676 510Q921.221 510 865.46 561.871L865.46 561.871Q805.16 618.281 805.16 710.352L805.16 710.352Q805.16 811.5 875.834 869.206L875.834 869.206Q929.002 912 997.731 912L997.731 912Q1023.018 912 1050.25 904.868L1050.25 904.868Q1080.076 955.442 1093.692 969.706L1093.692 969.706Q1118.979 995.642 1147.508 996.29L1147.508 996.29Q1200.027 994.994 1233.095 921.077L1233.095 921.077L1219.479 913.297Q1185.115 953.497 1155.289 954.145L1155.289 954.145Q1128.705 954.145 1095.637 913.297L1095.637 913.297Q1091.098 907.461 1080.724 893.845L1080.724 893.845Q1153.344 860.129 1179.279 782.971L1179.279 782.971Q1190.95 748.606 1190.95 709.055L1190.95 709.055Q1190.95 605.313 1118.331 549.552L1118.331 549.552Q1066.46 510 999.676 510M989.95 828.358L989.95 828.358Q952.992 829.006 924.463 869.855L924.463 869.855Q869.998 825.765 869.998 710.352L869.998 710.352Q869.998 554.09 967.256 531.397L967.256 531.397Q982.818 528.155 999.027 528.155L999.027 528.155Q1103.418 528.155 1122.221 650.7L1122.221 650.7Q1126.111 677.284 1126.111 707.758L1126.111 707.758Q1125.463 832.248 1065.163 874.394L1065.163 874.394Q1026.908 829.006 989.95 828.358M997.731 893.845L997.731 893.845Q964.663 893.845 939.376 880.229L939.376 880.229Q964.015 851.7 988.005 851.052L988.005 851.052Q1013.94 851.7 1038.579 887.361L1038.579 887.361Q1020.424 893.845 997.731 893.845M1235.534 516.484L1235.534 533.342L1287.405 533.342L1287.405 759.629Q1288.702 911.352 1438.479 912L1438.479 912Q1552.595 912 1576.585 818.632L1576.585 818.632Q1583.718 790.103 1583.718 753.794L1583.718 753.794L1583.718 533.342L1635.589 533.342L1635.589 516.484L1509.153 516.484L1509.153 533.342L1561.024 533.342L1561.024 757.684Q1561.024 883.471 1467.656 893.197L1467.656 893.197Q1459.876 893.845 1452.095 893.845L1452.095 893.845Q1372.992 893.845 1352.244 827.061L1352.244 827.061Q1343.166 797.884 1343.166 755.739L1343.166 755.739L1343.166 533.342L1394.389 533.342L1394.389 516.484L1235.534 516.484"/>
  <path fill="#000000" d="M361.76 1306.285L361.76 1306.285Q361.76 1239.757 398.243 1225.164L398.243 1225.164Q407.685 1221.73 417.987 1221.73L417.987 1221.73Q465.629 1221.73 473.355 1281.82L473.355 1281.82Q474.643 1292.121 474.643 1304.569L474.643 1304.569Q474.643 1376.676 435.155 1389.124L435.155 1389.124Q427.429 1391.27 419.274 1391.27L419.274 1391.27Q375.924 1391.27 364.764 1339.764L364.764 1339.764Q361.76 1324.742 361.76 1306.285M419.274 1211L419.274 1211Q378.07 1211 350.6 1239.328L350.6 1239.328Q325.276 1265.51 325.276 1304.569L325.276 1304.569Q325.276 1358.649 364.764 1385.69L364.764 1385.69Q388.8 1402 417.987 1402L417.987 1402Q459.191 1402 486.231 1372.813L486.231 1372.813Q511.126 1346.202 511.126 1306.285L511.126 1306.285Q511.126 1252.204 471.209 1226.022L471.209 1226.022Q447.602 1211 419.274 1211M633.881 1468.528L603.836 1468.528L603.836 1379.681Q627.443 1400.283 658.346 1402L658.346 1402Q696.546 1402 722.299 1373.243L722.299 1373.243Q747.193 1345.344 747.193 1302.422L747.193 1302.422Q747.193 1253.492 720.153 1228.169L720.153 1228.169Q701.267 1211 674.227 1211L674.227 1211Q632.593 1211 611.991 1244.049L611.991 1244.049Q606.84 1252.634 603.407 1262.076L603.407 1262.076L601.261 1215.292L539.454 1215.292L539.454 1226.022L571.645 1226.022L571.645 1442.775Q571.645 1462.519 560.485 1466.382L560.485 1466.382Q554.047 1468.528 539.454 1468.528L539.454 1468.528L539.454 1479.258L644.611 1479.258Q644.611 1469.816 638.173 1468.957L638.173 1468.957Q636.456 1468.528 633.881 1468.528L633.881 1468.528M660.492 1228.169L660.492 1228.169Q697.834 1228.169 707.706 1274.953L707.706 1274.953Q710.71 1289.117 710.71 1306.715L710.71 1306.715Q710.71 1369.809 676.802 1386.548L676.802 1386.548Q666.93 1391.27 655.342 1391.27L655.342 1391.27Q622.292 1391.27 609.845 1356.503L609.845 1356.503Q603.407 1338.906 603.407 1314.87L603.407 1314.87Q603.407 1259.072 632.164 1237.611L632.164 1237.611Q645.04 1228.169 660.492 1228.169M871.236 1221.73L871.236 1221.73Q901.281 1221.73 911.153 1247.054L911.153 1247.054Q914.587 1255.209 914.587 1264.652L914.587 1264.652Q914.587 1286.112 893.984 1290.834L893.984 1290.834Q883.254 1292.98 863.51 1292.551L863.51 1292.551L818.013 1291.263Q820.16 1241.903 850.204 1226.881L850.204 1226.881Q860.076 1221.73 871.236 1221.73M945.919 1356.503L945.919 1356.503L935.189 1352.64Q920.166 1385.261 886.688 1389.553L886.688 1389.553Q882.396 1389.982 878.533 1389.982L878.533 1389.982Q833.465 1389.982 821.876 1336.33L821.876 1336.33Q818.443 1321.308 818.013 1303.281L818.013 1303.281L869.519 1304.139Q921.883 1304.998 936.906 1294.267L936.906 1294.267Q948.494 1285.683 948.494 1269.802L948.494 1269.802Q948.494 1240.616 918.879 1223.447L918.879 1223.447Q897.847 1211 870.378 1211L870.378 1211Q816.726 1211 793.548 1255.638L793.548 1255.638Q781.53 1278.816 781.53 1308.002L781.53 1308.002Q781.53 1361.225 819.73 1386.978L819.73 1386.978Q842.479 1402 871.665 1402L871.665 1402Q918.02 1402 939.91 1368.521L939.91 1368.521Q943.344 1362.512 945.919 1356.503M1060.09 1386.978L1060.09 1386.978L1040.775 1386.978L1040.775 1294.267Q1042.063 1254.351 1069.103 1236.753L1069.103 1236.753Q1080.692 1229.456 1092.71 1229.456L1092.71 1229.456Q1118.892 1229.456 1128.335 1253.921L1128.335 1253.921Q1132.198 1263.793 1132.198 1276.24L1132.198 1276.24L1132.198 1361.225Q1132.198 1380.969 1121.038 1384.831L1121.038 1384.831Q1114.6 1386.978 1100.007 1386.978L1100.007 1386.978L1100.007 1397.708L1196.58 1397.708Q1196.58 1388.265 1190.142 1387.407L1190.142 1387.407Q1188.425 1386.978 1185.849 1386.978L1185.849 1386.978L1164.389 1386.978L1164.389 1280.533Q1164.389 1237.611 1134.773 1219.155L1134.773 1219.155Q1121.038 1211 1105.157 1211L1105.157 1211Q1073.396 1211 1052.793 1236.324L1052.793 1236.324Q1045.067 1246.196 1040.346 1258.213L1040.346 1258.213L1038.629 1215.292L976.393 1215.292L976.393 1226.022L1008.584 1226.022L1008.584 1361.225Q1008.584 1380.969 997.425 1384.831L997.425 1384.831Q990.987 1386.978 976.393 1386.978L976.393 1386.978L976.393 1397.708L1070.82 1397.708Q1070.82 1388.265 1064.382 1387.407L1064.382 1387.407Q1062.665 1386.978 1060.09 1386.978M1309.034 1386.978L1309.034 1386.978L1285.856 1386.978L1285.856 1118.719L1221.474 1118.719L1221.474 1129.449L1253.665 1129.449L1253.665 1361.225Q1253.665 1380.969 1242.506 1384.831L1242.506 1384.831Q1236.067 1386.978 1221.474 1386.978L1221.474 1386.978L1221.474 1397.708L1319.764 1397.708Q1319.764 1388.265 1313.326 1387.407L1313.326 1387.407Q1311.609 1386.978 1309.034 1386.978M1432.218 1386.978L1432.218 1386.978L1410.757 1386.978L1410.757 1215.292L1344.229 1215.292L1344.229 1226.022L1378.566 1226.022L1378.566 1361.225Q1378.566 1380.969 1365.261 1385.261L1365.261 1385.261Q1358.822 1386.978 1344.229 1386.978L1344.229 1386.978L1344.229 1397.708L1442.948 1397.708Q1442.948 1388.265 1436.51 1387.407L1436.51 1387.407Q1434.364 1386.978 1432.218 1386.978M1415.908 1152.627L1415.908 1152.627Q1415.908 1137.604 1402.602 1131.166L1402.602 1131.166Q1397.452 1129.02 1392.73 1129.02L1392.73 1129.02Q1377.708 1129.02 1371.27 1142.755L1371.27 1142.755Q1369.124 1147.476 1369.124 1152.627L1369.124 1152.627Q1369.124 1168.508 1383.288 1174.517L1383.288 1174.517Q1388.009 1176.234 1392.73 1176.234L1392.73 1176.234Q1407.753 1176.234 1413.762 1162.499L1413.762 1162.499Q1415.908 1157.778 1415.908 1152.627M1587.164 1402L1587.164 1402Q1624.935 1402 1650.688 1373.672L1650.688 1373.672Q1674.724 1346.202 1674.724 1304.139L1674.724 1304.139Q1674.724 1256.926 1648.971 1230.315L1648.971 1230.315Q1629.656 1211 1601.328 1211L1601.328 1211Q1554.544 1211 1534.8 1253.063L1534.8 1253.063Q1532.654 1256.926 1531.366 1260.789L1531.366 1260.789L1531.366 1118.719L1466.984 1118.719L1466.984 1129.449L1499.175 1129.449L1499.175 1361.225Q1499.175 1380.969 1488.016 1384.831L1488.016 1384.831Q1481.578 1386.978 1466.984 1386.978L1466.984 1386.978L1466.984 1397.708L1521.065 1397.708L1524.928 1369.38Q1543.384 1398.996 1580.726 1401.571L1580.726 1401.571Q1584.16 1402 1587.164 1402M1588.022 1228.169L1588.022 1228.169Q1623.218 1228.169 1633.948 1271.09L1633.948 1271.09Q1638.24 1286.971 1638.24 1307.144L1638.24 1307.144Q1638.24 1367.663 1605.62 1385.69L1605.62 1385.69Q1595.319 1391.27 1582.872 1391.27L1582.872 1391.27Q1550.681 1391.27 1537.375 1356.933L1537.375 1356.933Q1530.937 1338.906 1530.937 1315.299L1530.937 1315.299Q1530.937 1263.364 1556.69 1240.187L1556.69 1240.187Q1570.425 1228.169 1588.022 1228.169"/>
</svg>
