<?xml version="1.0" encoding="UTF-8" standalone="no"?>
<!-- Created with Inkscape (http://www.inkscape.org/) -->

<svg
   version="1.1"
   id="svg2"
   width="88.218323"
   height="452.92368"
   viewBox="0 0 88.218323 452.92369"
   xmlns="http://www.w3.org/2000/svg"
   xmlns:svg="http://www.w3.org/2000/svg">
  <defs
     id="defs6" />
  <g
     id="g10"
     transform="matrix(1.3333333,0,0,-1.3333333,-166.61865,793.37347)">
    <path
       d="m 143.5731,299.5279 c 1.146,0.1888 1.3643,-0.4419 2.0191,-0.9949 0.3509,-0.2971 0.8045,-0.3997 1.065,-0.8844 0.4116,-0.7705 0.2194,-3.3112 -0.1372,-3.7466 -0.4589,-0.5607 -0.9181,-0.8135 -1.4842,-1.3351 -0.2634,-0.4405 -0.5284,-0.8836 -0.7917,-1.3255 -0.9139,-1.5287 -4.6494,0.1491 -5.1582,1.5707 0.3943,1.3017 1.4054,2.0211 2.2025,3.0767 0.4104,0.5409 0.4246,1.258 0.7744,1.8363 0.3696,0.608 1.0752,1.254 1.5103,1.8028 z m 24.3638,-44.1895 c -1.1395,0.1329 -5.1766,0.3926 -5.8462,0.3934 l -0.0607,0.004 -0.8608,0.5391 v 0.1426 h -0.3144 c -0.1327,0.1315 -0.8773,0.4201 -0.8773,0.5973 h -0.0335 c -0.1675,0.1717 -0.9136,0.5487 -1.1576,0.5768 v 0.0204 l -0.5653,0.186 c 0,0 -0.9431,0.1933 -1.1557,0.4093 v 0 c -0.8101,0.8093 -3.2884,3.1944 -4.3956,3.202 -0.0873,0.1157 -0.2279,0.1845 -0.3717,0.186 h 0.002 l -0.9074,0.7234 -0.0703,0.4008 -0.4538,0.0584 c -0.0289,0.0604 -0.0581,0.1114 -0.0853,0.1718 0.322,0.3877 1.6172,0.1218 3.4146,-0.1027 1.1495,-0.1425 2.1402,-0.009 3.3715,-0.1834 0.9596,-0.1363 1.8343,-0.6148 2.6649,-0.7874 0.5953,-0.1233 1.0825,-0.2336 1.4887,-0.2194 0.2583,0.008 0.5261,0.1306 0.6373,0.1306 0,0.1511 -0.003,0.309 -0.006,0.47 -0.0626,2.0912 -0.4887,5.0443 -0.5403,6.7609 -0.0473,1.5038 -0.0464,3.699 0.0701,5.5721 -1.5923,0 -10.2762,-2.7731 -10.4772,-3.1652 l 0.0661,0.1338 c -1.4108,0 -3.941,-1.3186 -5.1724,-0.0646 v -8e-4 c -0.0335,-0.0684 -0.1199,0.0927 -0.193,0.1173 v 0.0811 c -0.4712,0 -0.7782,0.2928 -1.1926,0.4201 v 0.1752 c -0.3818,0.0116 -1.7892,0.7897 -1.7892,1.1959 h -0.003 l -0.5908,0.527 v 0.0703 l -0.3585,0.1663 v 0 c 0,-0.1751 -0.239,0.2572 -0.239,0.4289 h -0.1295 c -0.1177,0.1154 -0.1687,0.1772 -0.3189,0.256 0.0518,0.229 -0.1727,1.1245 0.1241,1.2725 0,1.1894 2.285,0.6979 2.8012,1.1233 3.4158,0.8005 3.4948,0.1568 6.3791,0.8136 3.1929,0.7259 7.4633,1.5211 8.0541,1.5211 l 0.2506,0.0615 v 0 c 0.7475,0 2.6226,0.9031 3.5886,1.6648 1.1441,0.9008 1.0814,2.0965 1.3263,3.0245 l 0.4043,0.3929 c 0.2786,0.3212 0.4589,0.7197 0.5119,1.1951 l 0.2217,1.1914 c -1.0936,0 -1.9491,0.4377 -2.9784,0.4527 h 0.008 l -0.603,0.0626 v 0.0842 c -1.2183,0 -2.0783,-0.2117 -2.9814,0.5508 v 0.0434 h -0.0497 l -0.2851,0.7455 c 0.2072,0.1088 0.6967,0.5907 0.7398,0.8283 0.2917,0.0552 1.1917,0.5726 1.372,0.754 v 10e-4 c 0.1287,0.1324 0.447,0.0601 0.608,0.0601 l 0.005,0.3016 h -0.005 v 0 c 0.6395,0.004 2.3573,1.6452 2.7751,2.0849 h 0.2044 v 0.1349 c 0.3705,0.1406 0.6426,0.3858 1.0154,0.4482 0.0607,0.0498 0.1188,0.104 0.1752,0.1578 v 0.0485 l 0.1392,0.0811 c 0.2766,0.2701 0.5487,0.5553 0.8501,0.8039 0.3274,0.271 0.7775,0.4331 1.1256,0.6038 4.8892,2.4035 9.5148,5.5684 13.3583,8.5759 0,0.0635 0,0.1287 0,0.1936 -0.0227,0.0213 -0.0431,0.0431 -0.0661,0.0635 -4.5207,0.1264 -9.7857,-2.7005 -14.0224,-4.269 -2.7805,-1.0295 -6.2646,-2.2677 -8.6689,-3.1478 -0.3113,-0.1891 -0.8104,-0.2614 -1.3785,-0.2421 v -9e-4 c -0.068,-0.0122 -0.1363,-0.0326 -0.1945,-0.064 -0.1037,-0.002 -0.1902,-0.015 -0.2916,-0.0862 -0.0335,-0.0119 -0.0658,-0.0272 -0.097,-0.0454 -0.0728,-0.007 -0.1794,-0.0334 -0.2441,-0.0629 -0.0456,-0.004 -0.0878,-0.0116 -0.1301,-0.0278 -0.0722,0 -0.1338,-0.003 -0.2026,-0.0218 h -1.4273 v -0.11 c -0.2097,0 -0.3966,0.0151 -0.6006,-0.0303 l -0.7368,0.001 c -0.0411,0.009 -0.0853,0.0193 -0.125,0.0227 -0.1213,0.0811 -0.2344,0.1049 -0.375,0.1049 v 0.0116 h -2.6932 c -0.0485,0.0258 -0.1057,0.0434 -0.1641,0.0476 -0.0573,0.0346 -0.1222,0.0584 -0.1933,0.0649 -0.0854,0.0516 -0.2053,0.1112 -0.2937,0.1262 -0.0845,0.0811 -0.1999,0.1329 -0.3266,0.1341 v 0 h 0.1267 c -0.0411,0.0411 -0.0779,0.0799 -0.1267,0.1134 v 0.1264 h -0.007 v 0.847 c 0,0.0626 -0.0119,0.1199 -0.0304,0.1718 -0.002,0.0572 -0.0141,0.1133 -0.0323,0.1641 v 0.4266 l -0.1114,-0.108 v 0 c 0.0641,0.0629 0.1114,0.1434 0.131,0.2367 0.015,0.0354 0.0334,0.0635 0.0476,0.1003 h 0.003 c 0,0.1265 0.1883,0.2872 0.2671,0.3663 v 0.001 c 0.0246,0.0238 0.1199,0.0626 0.1663,0.1026 0.0789,0.0388 0.1653,0.0907 0.2356,0.1423 h 0.555 v 0.2855 c 0.0511,0.0289 0.0961,0.0657 0.135,0.1122 0.0626,0.0162 0.1244,0.0442 0.1805,0.0885 0.0539,0.008 0.1406,0.036 0.1936,0.0564 0.0678,8e-4 0.1304,0.007 0.1953,0.0343 0.1219,0 0.2725,-0.0159 0.3844,0.0294 0.038,0 0.078,0.003 0.116,0.009 h 0.6318 v 0.1687 c 0.0377,0.0116 0.0799,0.0269 0.1318,0.0539 0.0972,0.0107 0.311,0.0898 0.4028,0.1363 0.0712,0.015 0.1415,0.0496 0.1999,0.097 0.0737,0.0184 0.1425,0.0518 0.1998,0.1037 0.1157,0.0564 0.161,0.0507 0.2897,0.0507 v 0.078 c 0.0366,0.0184 0.0723,0.0431 0.1077,0.0723 0.051,0.0184 0.0995,0.0453 0.144,0.0822 0.0754,0.0173 0.148,0.055 0.2084,0.11 0.0734,0.0261 0.1264,0.0456 0.1978,0.0791 0.0785,0.0184 0.1565,0.0561 0.2191,0.1122 0.0485,0.0193 0.0981,0.0445 0.1426,0.0703 0.0692,0 0.1318,0.008 0.2041,0.008 v 0.0281 c 0.042,0.0184 0.0822,0.0433 0.1188,0.0725 0.0572,0.0151 0.1134,0.0397 0.1621,0.0754 0.0519,0.0154 0.1211,0.0389 0.1642,0.0584 0.1102,0.0519 0.2344,0.0661 0.3393,0.148 0.043,0.005 0.0927,0.0227 0.1437,0.0442 0.2885,0.1537 0.5757,0.3028 0.8382,0.4604 3.4364,2.0523 9.4651,1.6591 8.2128,7.6501 -0.2988,0.2387 -0.9677,1.4669 -1.5228,1.2356 -0.6244,-0.5592 -1.5375,-1.5879 -2.1628,-2.1483 -0.6545,-0.485 -1.8913,-1.749 -3.0334,-2.2879 -0.4731,-0.2194 -0.915,-0.39 -1.2574,-0.4615 -0.0204,0.0196 -0.042,0.0411 -0.0646,0.0627 -0.005,0.5326 -0.0238,1.1537 0.1295,1.6571 0.6579,2.1694 2.6348,4.0187 3.8792,5.7373 -0.5068,0.4113 -1.224,0.9105 -1.8139,1.5393 -1.1231,1.2055 -1.2041,-0.4031 -2.0092,-0.8048 -0.8036,-0.4028 0.4043,0 0.8051,-0.9646 0.4028,-0.9647 -1.4477,-2.6518 -1.8496,-3.2148 -0.402,-0.5627 -1.1254,-0.6438 -1.2056,-1.4477 -0.1664,-1.6656 0.8493,-4.6666 -1.6937,-4.9872 -0.4646,-0.0573 -4.377,0.8328 -4.2228,1.2982 -0.1868,0.6118 -0.2375,1.9531 -0.2375,2.3108 0,1.3255 -0.2225,3.676 -0.9258,5.1506 -0.2897,0.6111 -0.8371,0.9615 -1.2184,1.2671 -0.2281,0.1814 -0.0541,0.4201 0.0312,0.5488 1.4962,0.1468 3.8143,-0.8978 4.7302,-1.8905 1.7413,-0.8166 0.5973,4.455 0.8946,5.7382 0.2398,1.0446 1.5168,1.0165 1.9996,0.7759 0.4827,-0.2421 1.5261,-1.8497 1.5261,-2.7355 0,-0.8835 1.2878,-0.2398 1.2878,-0.2398 l -0.0796,2.3312 c 0,0 -0.4842,1.0469 -1.6087,1.2067 -0.7744,0.1092 -2.3227,1.4312 -2.6467,2.2556 -0.4266,1.0825 1.8343,0.6545 2.0095,0.8878 0.8305,0.5638 1.5846,0.7497 2.6325,0.9842 0.7625,0.1695 1.2033,0.1275 1.9182,0.2267 1.6022,0.2248 2.5302,-2.9758 3.8251,-2.0403 2.245,3.4015 5.2631,7.6413 7.3295,11.2518 h 0.002 l 0.2106,0.3745 c 0.2367,0.2701 0.9301,0.9788 0.9043,1.2339 0.0312,0.0518 0.055,0.108 0.0657,0.1672 0.0411,0.0749 0.11,0.2679 0.1188,0.3458 0.1644,0.4397 0.4581,0.7552 0.5599,1.2456 0.0311,0.055 0.0688,0.1596 0.083,0.2214 0.0493,0.0907 0.095,0.2267 0.095,0.3294 0.1417,0.5176 0.4201,1.6064 0.0734,2.0148 -0.0961,0.1134 -0.0797,0.1834 -0.1015,0.3294 -0.1457,1.0488 0.1318,0.4969 -0.2755,1.3005 -0.01,0.0842 -0.002,0.2237 -0.04,0.3014 l -0.0281,0.2364 c 0.0292,0.0102 0.0539,0.0207 0.0777,0.0326 0.8331,0.0887 0.2021,0.1522 0.8785,0.2225 0.0572,-0.0139 0.1176,-0.0204 0.1803,-0.0139 0.043,-0.0122 0.0875,-0.0184 0.1329,-0.0196 0.2548,-0.1145 1.4635,-0.1284 1.5426,-0.1199 0.0292,-0.01 0.0615,-0.0192 0.0927,-0.0226 0.0791,-0.0511 0.1698,-0.0638 0.2529,-0.0593 0.4104,0.0128 0.159,0.0182 0.536,-0.1105 0.231,-0.0811 0.5065,-0.1154 0.7118,-0.0927 0.0765,-0.008 0.1304,-0.0272 0.2137,-0.0219 0.0522,-0.0223 0.1069,-0.0365 0.1653,-0.0419 0.0334,-0.0162 0.0691,-0.0289 0.1048,-0.0377 0.1015,-0.0907 0.2214,-0.1188 0.349,-0.1468 0.0584,-0.0284 0.121,-0.0519 0.1868,-0.0599 0.0842,-0.0572 0.1848,-0.0861 0.2908,-0.0861 0.0873,-0.0411 0.1922,-0.0757 0.2892,-0.0757 0.0464,-0.0142 0.0952,-0.0216 0.1448,-0.0216 0.0573,-0.0164 0.121,-0.0226 0.186,-0.0172 0.0215,-0.005 0.0442,-0.0108 0.066,-0.0119 0.0312,-0.0227 0.0646,-0.0377 0.0989,-0.0519 0.1072,-0.0916 0.1664,-0.1284 0.296,-0.178 0.0252,-0.01 0.0952,-0.0757 0.1221,-0.0976 0.0933,-0.0756 0.2002,-0.1037 0.2909,-0.1706 0.0862,-0.0689 0.1769,-0.1534 0.2775,-0.1933 0.1426,-0.1168 0.1434,-0.0281 0.2149,-0.1848 0.028,-0.0689 0.0703,-0.1284 0.1233,-0.1803 0.0603,-0.0941 0.1556,-0.1457 0.2367,-0.2214 0.0484,-0.0757 0.0873,-0.1426 0.1638,-0.1979 0.0142,-0.0192 0.0261,-0.0397 0.0422,-0.0592 0.0292,-0.0595 0.0661,-0.1188 0.1222,-0.1664 0.0281,-0.0465 0.0865,-0.1154 0.1242,-0.1576 0.0283,-0.0607 0.068,-0.1179 0.1145,-0.1622 0.0411,-0.1187 0.1233,-0.2148 0.2248,-0.2763 0.053,-0.053 0.0635,-0.1437 0.1621,-0.2336 0.0355,-0.0731 0.0896,-0.1372 0.1534,-0.1868 0.0269,-0.0422 0.0538,-0.0842 0.0861,-0.123 0.036,-0.0831 0.0703,-0.1656 0.1321,-0.2345 0.0227,-0.0484 0.0624,-0.1136 0.0961,-0.159 l 0.0615,-0.5765 c -0.0572,-0.0942 -0.053,-0.2067 -0.0411,-0.3255 0.01,-0.0842 -0.0161,-0.1414 -0.01,-0.2276 -0.0465,-0.1071 0.009,-0.388 -0.0592,-0.6137 -0.0542,-0.1091 -0.0474,-0.3081 -0.1222,-0.4008 v 0 c -0.0573,-0.068 -0.1122,-0.1364 -0.1446,-0.2183 -0.0195,-0.0238 -0.0368,-0.045 -0.0518,-0.0723 -0.2455,-0.229 -0.8039,-0.7185 -0.9377,-1.0284 -0.0564,-0.0399 -0.1914,-0.1763 -0.2282,-0.2364 -0.1446,-0.1049 -0.1381,-0.0771 -0.1931,-0.2562 -0.0564,-0.0281 -0.134,-0.1154 -0.1655,-0.1673 -0.0777,-0.0368 -0.1446,-0.0898 -0.1964,-0.1579 -0.0539,-0.0388 -0.1024,-0.0861 -0.1568,-0.1284 -0.7571,-0.3846 -1.3482,-0.953 -1.9454,-1.5837 -0.0766,-0.0487 -0.1956,-0.0941 -0.2625,-0.159 -0.0411,-0.0281 -0.0842,-0.0505 -0.1253,-0.0819 -0.0519,-0.0185 -0.1026,-0.0485 -0.1426,-0.0873 l -0.4255,-0.3274 0.0117,-0.005 c -2.0158,-2.6671 -5.292,-6.5313 -6.2697,-8.0144 -0.2041,-0.2841 0.1188,-0.9893 0.3319,-1.1169 0.5066,-0.3067 1.1826,-0.6321 1.52,-1.0621 -0.0607,-0.3164 -1.2005,-1.04 -1.533,-1.4613 -0.5553,-0.7055 -0.9238,-0.8577 -1.7274,-1.5429 -1.1807,-1.0032 -1.6952,-1.2778 -1.8301,-2.1041 -0.0873,-0.5511 2.2751,-2.4132 2.4415,-3.5518 0.1825,-1.241 -1.5718,-2.2978 -0.9496,-3.3846 0.7724,-0.0961 1.2217,-0.4297 1.4216,-1.0993 0.5856,0.2095 1.3158,1.1373 2.0698,1.8859 0.4884,0.4862 0.9646,0.5984 1.0653,1.201 0.0204,0.1276 0.0419,0.2574 0.0626,0.3858 -0.9193,0.864 -1.8062,1.5469 -2.086,2.9761 -0.0476,0.2441 -0.5488,1.5135 0.0247,2.5634 0.377,0.686 -0.186,1.7943 0.2347,2.2966 0.6273,0.7529 1.3881,1.0812 2.0565,1.2725 1.8301,-0.0884 1.7816,-2.2901 3.354,-3.0572 1.0717,0.1579 3.2626,4.3762 3.8123,5.3292 -0.0216,0.0431 -0.042,0.0862 -0.0638,0.1284 -2.1648,-0.0227 -4.5422,-0.3909 -5.5392,1.0165 0.1242,2.2827 4.0788,2.5699 5.9874,3.1663 1.4283,0.4447 1.5905,1.4865 2.7416,1.8351 1.6671,0.5086 7.0509,-4.8438 5.9709,-6.747 -4.0813,-1.6356 -10.0735,-9.1012 -13.083,-13.0861 0.0207,-0.0856 0.0422,-0.1707 0.0646,-0.2583 0.4281,-0.1425 0.4573,-0.3478 0.6463,-0.7098 2.5719,0.0131 5.2413,0.6084 7.9937,0.7521 0.8813,0.0473 2.274,-0.4051 4.5057,-1.8485 1.3654,-0.8836 0.1522,-2.5191 0.1502,-3.1314 -0.3002,-0.995 -1.2109,-1.1483 -2.5602,-2.1997 -0.7829,-0.6069 -2.141,-1.0939 -3.2256,-1.6189 -1.0695,-0.5176 -1.8612,-1.076 -3.1339,-1.5568 -1.0251,-0.3869 -2.6896,-1.4023 -3.7645,-1.8181 -2.2047,-0.851 -4.3188,-1.8839 -6.3918,-2.7405 -0.3424,-0.2248 -0.6741,-0.4343 -0.8048,-0.4343 -0.1737,-0.1726 -0.4742,-0.1933 -0.7032,-0.1933 v -0.0542 l -0.7421,-0.2083 0.0249,0.0161 c -0.0391,0 -0.0876,-0.006 -0.146,-0.013 -0.1922,-0.0615 -0.3846,-0.1219 -0.5799,-0.178 -0.3578,-0.1069 -0.7152,-0.2053 -1.0653,-0.3081 -0.3175,-0.1392 -0.565,-0.298 -0.6262,-0.4471 h -0.4399 v -0.5975 h 1.1905 v 0.0207 l 0.008,0.002 c 0.4739,-0.3619 1.7994,0.5746 2.3763,0.5746 v 0.08 l 1.1936,0.4039 c 0.2118,-0.1037 1.321,0.1111 1.6019,0.1111 0.1179,-0.1173 0.2543,-0.2148 0.43,-0.2211 v 0 h -0.0323 l 0.3824,-0.3693 v -0.005 c 0.2098,0 0.3954,-0.2917 0.5964,-0.3447 v -0.2528 c 0.3847,0 0.3056,-0.0204 0.5326,-0.2483 v 0 c 0.0689,-0.0692 0.0627,-0.2591 0.0627,-0.349 h 0.0538 l 0.4969,-0.6395 0.0454,-0.5553 h 0.0788 v -0.5972 h -0.0788 v -0.0995 l -0.5961,-0.4947 v -0.0445 l -0.5618,-0.555 h -0.0335 l -0.0907,-0.1882 -0.2313,-0.4059 h -0.2744 c 0,-0.4105 -0.1125,-0.3263 -0.377,-0.5973 h -0.2183 v -0.1341 c -1.0346,-0.6914 -1.2841,-0.7152 -2.1852,-1.4689 -0.1953,-0.1621 -0.5068,-0.4431 -0.6687,-0.754 -0.1318,-0.2529 -0.0541,-0.4119 -0.0831,-0.6537 -0.0368,-0.2874 -0.1199,-0.6622 0.1673,-0.7843 0.2721,-0.1146 0.9626,0.0941 1.1474,0.1533 h -0.005 c -0.0899,0 0.1511,0.0247 0.2265,0.0638 h -0.0409 c 0.3014,0.005 0.578,0.2495 0.8686,0.2495 v 0 c 0,0.0257 1.9165,0.6516 3.6717,1.1321 1.8655,0.5122 4.3772,1.0457 4.4192,1.0695 h -0.0411 c 2.0188,0.0326 1.4108,-0.146 3.1221,-1.0803 v -0.1545 c 0.3381,0 0.377,-0.0657 0.5961,-0.2809 v -0.3166 h 0.3197 c 0.3578,-0.4524 1.5716,-0.9675 1.5373,-1.6223 -0.0853,-1.6409 0.1426,-1.133 -1.4173,-1.7155 -0.5996,-0.2225 -1.7975,-0.2256 -2.4001,-0.3912 -1.262,-0.3367 -2.4696,-0.4816 -3.6925,-0.8263 -1.4419,-0.407 -2.8703,-0.4447 -4.1643,-0.8132 -1.3524,-0.3836 -2.3278,-0.1072 -3.3693,-0.5176 v 0 c 0,0.0734 -0.6018,-0.4502 -0.7322,-0.4502 -0.1505,-3.3868 0.7971,-9.892 0.866,-13.1261 0.5868,-1.5426 0.0618,-2.7405 -0.271,-4.1771 h -0.0626 l -0.0151,-1.5925 0.0151,0.0249 c -0.0335,-0.068 -0.0434,-0.1349 -0.0434,-0.2117 l 0.0122,0.0277 -0.4357,-1.2333 h -0.1304 c 0,-0.4635 -0.0283,-0.8198 -0.3835,-1.0794"
       style="fill:#004b9d;fill-opacity:1;fill-rule:evenodd;stroke:none"
       id="path14704" />
    <path
       d="m 167.7302,392.8431 c -0.2763,-2.7771 -0.6984,-4.7776 -0.6335,-6.9415 0.0258,-0.8541 5.2362,1.5692 5.7577,1.7322 0.0593,0.0173 0.1174,0.0338 0.1758,0.0488 0.0734,0.0343 0.1488,0.0711 0.2233,0.1034 0.9369,0.4221 1.969,0.7232 2.9058,1.1863 l 2.3684,1.3028 0.4133,0.2645 0.4717,0.258 c 0.1522,0.1003 0.3605,0.2883 0.3347,0.4838 -0.0226,0.1866 -0.0768,0.3742 -0.0941,0.5406 -0.015,0.1653 -0.2406,0.1814 -0.0669,0.3249 0.1596,0.07 -0.3107,0.4243 0.2571,0.3997 l 0.4252,-0.1029 0.3549,-0.1131 c 0.3025,-0.1219 0.6296,-0.3909 0.9014,-0.5962 0.449,-0.3364 0.8215,-0.6335 1.0956,-1.0329 0.2172,-0.3141 0.6531,-1.1883 0.7385,-1.5435 l -0.0389,-0.0227 0.0238,-0.2256 c 0.0355,-0.053 -0.1641,-0.9961 -0.1902,-1.0179 0.0315,-0.1834 -10e-4,-0.4771 -0.1777,-0.5893 l 0.0204,-0.0326 c -0.1956,-0.2404 -0.324,-0.1766 -0.597,-0.3711 -0.0357,-0.4805 -1.2943,-1.0721 -1.6699,-1.1129 -0.0388,0.0615 -2.0616,-0.7523 -3.9021,-1.4062 -2.6391,-1.1305 -5.425,-2.0801 -6.9667,-2.6286 l -0.1466,-0.0927 -0.0842,0.01 c -0.2344,-0.083 -0.4351,-0.1576 -0.5896,-0.216 -0.4184,-0.1607 -1.3306,-0.3509 -1.1276,-0.7514 0.4575,-0.8966 0.4056,-1.9698 1.8983,-3.8155 0.4352,-0.5363 1.249,-2.4267 1.6668,-3.194 0.5018,-0.9261 1.4973,-2.6706 2.0282,-3.5448 0.4544,-0.7489 1.2532,-1.779 1.7833,-2.5529 0.3875,-0.5689 0.6962,-1.2101 1.101,-1.7484 1.114,-1.4768 1.8813,-2.3014 3.0872,-3.355 0.398,-0.3487 1.1256,-1.0015 1.5392,-1.2867 0.4059,-0.2795 0.9918,-0.6182 1.4043,-0.8461 0.9414,-0.5159 2.0574,-0.8107 2.9511,-1.0945 1.6104,-0.515 2.8982,-0.8064 3.9368,-0.9187 0.4994,-0.0541 1.1168,-0.0754 1.4096,-0.1242 0.7405,-0.1275 0.4953,-0.3279 -0.8951,-0.9272 -0.8569,-0.3736 -2.2232,-1.1659 -4.2333,-1.675 -0.6973,-0.1771 -1.6787,-0.3747 -2.4956,-0.6976 -0.9661,-0.3809 -2.4146,-0.0581 -3.4175,0.2991 -1.1248,0.4014 -1.8048,0.6542 -2.8397,1.6115 -0.4621,0.4263 -0.9102,1.1528 -1.3346,1.6342 -1.4493,1.6398 -2.6455,3.0537 -3.3338,4.4234 -0.6704,1.2458 -1.2654,2.8001 -1.7966,3.8092 -1.6189,3.0776 -2.6606,5.135 -3.602,6.5801 -0.3172,0.4892 -0.396,0.6542 -0.7985,0.6542 -0.3379,0 -0.3824,-0.3767 -0.4479,-0.5386 -0.6661,-1.631 -1.0437,-3.5155 -1.7974,-5.1585 -0.6594,-1.44 -1.6676,-2.6566 -2.5895,-3.9055 -1.1494,-1.5574 -2.4644,-2.9931 -4.5626,-3.7182 -0.6551,-0.226 -1.6319,-0.4026 -2.4106,-0.5196 -1.4105,-0.2101 -3.0197,-0.0913 -5.1488,0.0782 -2.4466,0.1942 -6.4299,0.2038 -9.5882,0.3614 -2.3976,0.3303 -2.7125,0.8711 -1.6472,1.5857 1.6253,0.3476 6.4709,0.6854 7.7198,0.8688 1.1248,0.165 3.8665,0.5559 5.1543,1.1248 2.2203,0.9825 3.6722,2.0844 5.3583,3.9442 0.8495,0.9357 1.4023,2.0182 2.0877,3.2587 0.5437,0.9887 1.3005,2.0812 1.4301,3.2794 0.1879,0.1641 0.733,1.8164 1.1883,3.5654 -0.5925,-0.1602 -1.143,-0.1976 -1.6081,-0.3577 -0.8592,-0.2946 -1.5341,-0.3946 -2.0685,-0.6205 -1.0641,-0.4499 -1.58,-0.8873 -1.9091,-0.9876 -0.5613,-0.1758 -0.6403,-0.1911 -1.3473,-0.4221 -0.5516,-0.1792 -0.561,-0.4694 -1.114,-0.667 -0.5159,-0.1857 -0.5482,-0.231 -0.9295,-0.4621 -0.2588,-0.1576 -0.6863,-0.2664 -0.7758,-0.4447 -0.5148,-0.6197 -1.2878,-0.5766 -1.7272,-0.9757 -0.4759,-0.1372 -1.5381,0.04 -2.0463,0.7007 -0.01,0.0128 -0.5516,0.8224 -0.6069,0.9097 -0.396,0.5907 -0.7761,1.0029 -0.8246,1.0117 -0.2687,1.6372 0.991,2.4771 1.9105,2.8139 l 1.7088,0.6228 c 1.006,0.0893 2.2073,0.8084 3.833,1.4238 2.1608,0.817 4.8347,1.319 7.1413,2.4222 0.4589,0.2189 0.8614,0.4088 1.2124,0.5763 0.233,1.2025 0.5193,2.5183 0.792,3.9076 0.2429,3.7485 1.7098,11.2872 1.8232,16.4327 l -0.1964,6.0687 -0.0831,-0.002 c -0.0238,0.7699 -1.1517,1.7306 -1.1766,2.4449 v 0 l 0.1003,-0.095 c -0.005,0.1588 0.005,0.2764 -0.0992,0.4122 l 0.003,0.007 0.0434,-0.038 c -0.0142,0.436 0.1953,0.9014 0.4932,1.2113 l 0.5462,0.0496 h -0.0269 c 1.4335,0.0657 2.9942,-0.3195 4.3577,-0.6336 l 0.002,-0.0691 0.2979,-0.135 c 0.0972,0.002 0.3229,-0.2968 0.3487,-0.4178 0.271,-0.0626 0.5723,-0.2568 0.6262,-0.5485 0.2491,-0.0981 0.5947,-0.3583 0.6032,-0.6593 l 0.0507,10e-4 c 0.1568,-0.4244 0.4697,-0.489 0.5085,-0.9723 0.5709,-0.4039 -0.1309,-2.2876 -0.3585,-2.7865 l -0.0993,-8e-4 c 0.025,-0.735 -0.1133,-1.7844 -0.4416,-2.4437 l -0.1573,-0.883 c 0.001,0.004 -0.0349,-0.1188 -0.0357,-0.1718 -0.8054,-2.9325 -1.3754,-7.8483 -1.808,-11.5376 l 0.0496,9e-4 z"
       style="fill:#004b9d;fill-opacity:1;fill-rule:evenodd;stroke:none"
       id="path14708" />
    <path
       d="m 160.556,454.1919 c -0.3804,-0.9576 -0.6349,-1.5959 -0.7954,-2.001 0.3232,-1.2798 0.9907,-2.4551 0.7668,-3.4234 -0.2526,-1.0823 -1.1699,-2.1379 -2.0551,-2.912 -1.6379,-1.4361 -3.6077,-1.5265 -6.2133,1.1301 1.3142,3.6451 3.7143,5.798 8.297,7.2063 z m 9.7682,-6.9231 c 1.4148,0.0899 2.6275,0.6406 3.8566,1.1787 0.7613,0.333 1.5644,0.7103 2.3709,0.7676 2.6662,0.1885 4.1519,-2.3871 2.855,-4.841 -0.8476,-1.6022 -1.7218,-3.1913 -2.5639,-4.7945 -0.2977,-0.565 -0.5315,-1.1569 -0.8734,-1.9103 0.728,-0.3668 1.3337,-0.7041 1.9624,-0.9867 0.65,-0.2912 1.3261,-0.5196 1.9837,-0.7901 1.9075,-0.7806 2.2771,-1.2155 2.1606,-2.5282 -0.1293,-1.472 -1.4684,-2.9358 -2.9228,-3.2269 -1.6733,-0.3334 -3.0671,0.1366 -4.2134,1.3852 -0.6489,0.6985 -1.3023,1.3961 -1.9537,2.096 -1.7733,-1.6282 -3.4565,-3.1332 -5.0921,-4.6826 -1.4868,-1.4071 -4.0062,-1.5383 -5.6007,-0.2327 -0.1035,0.0819 -0.1899,0.18 -0.2826,0.2684 -2.0109,1.9029 -1.8856,2.456 0.6276,3.6162 1.7614,0.8118 3.4823,1.7164 5.176,2.6663 0.6534,0.3642 1.1807,0.9606 1.7756,1.4629 -0.2273,0.7977 -0.4623,1.4653 -0.6003,2.1532 -0.2523,1.2753 0.1423,1.7022 1.4142,1.575 0.6947,-0.0709 1.3847,-0.1744 2.1974,-0.277 0.5165,1.2875 0.9887,2.4625 1.4298,3.5632 -0.8357,0.8949 -1.6509,1.0698 -2.6113,0.7506 -0.4246,-0.1423 -0.9357,-0.3915 -1.3045,-0.2716 -1.7606,0.5701 -2.4831,-0.6145 -3.4923,-1.6877 -3.0328,-3.2202 -5.5871,-6.7802 -8.0657,-10.4222 -1.0499,-1.542 -2.2552,-2.9866 -3.4523,-4.424 -0.3988,-0.4785 -0.9703,-0.8277 -1.5052,-1.175 -0.7081,-0.4603 -1.3864,-0.3257 -1.8694,0.3569 -0.6327,0.8938 -1.2958,1.7856 -1.7626,2.7664 -0.4269,0.892 -0.3915,1.8694 0.1205,2.8057 1.1009,2.0049 2.4735,3.8185 4.3594,5.0896 3.3939,2.2867 6.0978,5.1851 8.3253,8.5822 0.525,0.8044 1.2215,1.4978 1.9451,2.3689 -0.301,0.5853 -0.6037,1.2107 -0.9371,1.8164 -0.2477,0.4519 -0.6069,0.8561 -0.7903,1.3317 -0.5584,1.448 0.1627,2.6037 1.6906,2.6997 0.9037,0.057 1.8144,-0.0507 2.7201,-0.0119 1.9103,0.0786 3.2978,1.1461 3.9708,2.9143 0.2375,0.6308 0.2319,1.1438 -0.3654,1.5245 -0.5423,0.3427 -0.9153,0.0474 -1.353,-0.3226 -2.4247,-2.0505 -4.1422,-2.0483 -6.4831,-0.0462 0.5335,0.9445 1.0718,1.8902 1.5914,2.8075 -1.2731,1.1914 -1.2991,1.2248 -2.4055,0.3546 -0.7773,-0.6132 -1.5126,-0.9519 -2.5356,-0.2016 0.1885,0.6707 0.4022,1.3306 0.5542,2.001 0.1508,0.6783 0.2401,1.3652 0.3492,2.0143 -0.9519,0.4204 -1.3649,-0.1811 -1.8079,-0.606 -0.3212,-0.3093 -0.6211,-0.6795 -0.8184,-1.0783 -2.6501,-5.3949 -6.6501,-9.8672 -10.0344,-14.7632 -2.427,-3.5124 -4.8271,-7.0446 -7.1903,-10.5978 -1.8607,-2.8004 -3.5839,-5.6897 -5.4887,-8.4583 -1.6076,-2.3417 -3.3835,-4.5669 -5.0984,-6.8344 -0.2319,-0.3075 -0.5219,-0.5726 -0.811,-0.8283 -1.9213,-1.6733 -2.6802,-1.4306 -3.3897,1.0591 -0.1057,0.3696 -0.2242,0.7579 -0.4334,1.0749 -1.1183,1.6959 -0.7319,3.3366 0.1508,4.9518 0.868,1.5883 1.874,3.1093 2.6342,4.7472 0.3892,0.8419 1.1319,0.3169 1.5741,0.7296 1.1265,1.0622 2.444,1.9721 3.3905,3.1765 8.1542,10.391 16.2448,20.8352 24.3641,31.2534 0.5607,0.7211 1.0083,1.4017 1.0698,2.4041 0.085,1.3651 1.2495,2.1608 2.3145,2.6662 0.8141,0.3895 1.3586,0.9017 1.8966,1.5378 1.586,1.8757 3.1998,3.7282 4.771,5.6138 0.2982,0.358 0.4624,0.8311 0.9046,1.656 -1.3544,-0.3535 -2.2751,-0.565 -3.1797,-0.8311 -2.6628,-0.785 -5.3217,-1.5753 -7.973,-2.3902 -0.6803,-0.2095 -1.3269,-0.521 -1.989,-0.7818 -2.8389,-1.1169 -5.6634,-1.3434 -8.4238,0.2242 -1.6937,0.9641 -2.1367,1.8836 -1.836,3.5255 3.5771,0.4594 7.1825,0.7106 10.6932,1.4286 3.5039,0.718 7.0469,1.4675 10.6509,3.0824 -2.0968,1.7444 -3.9407,3.3165 -5.8315,4.8291 -0.9306,0.7472 -1.4697,1.6291 -1.3512,2.8332 0.0972,0.9737 0.6817,1.4029 1.597,1.033 2.1918,-0.8841 4.4935,-1.133 6.7998,-1.4899 1.3597,-0.2081 2.7501,-0.798 3.9288,-1.533 1.6741,-1.0426 1.8425,-2.139 0.9003,-4.2253 0.678,0.1366 1.2052,0.1851 1.6945,0.3512 1.6529,0.5607 3.2638,1.2507 4.9371,1.7263 2.6255,0.7492 3.4005,-0.1638 3.8866,-2.1101 0.0952,-0.3739 0.2407,-0.7393 0.3257,-1.1169 0.4518,-2.0194 -0.5122,-3.4727 -2.5401,-3.7919 -1.9049,-0.2996 -3.824,-0.5119 -5.7164,-0.8645 -0.6596,-0.1216 -1.4252,-0.3946 -1.8629,-0.8626 -3.2012,-3.3809 -6.3343,-6.8278 -9.4793,-10.2609 -0.1704,-0.1865 -0.2705,-0.4385 -0.4312,-0.703 0.218,-0.388 0.3935,-0.8126 0.6684,-1.159 0.8022,-1.0197 1.281,-1.0038 2.1263,-0.0355 0.5542,0.633 1.0995,1.281 1.7132,1.8479 2.3548,2.1802 4.4331,4.5241 4.9519,7.8492 1.2926,0.6069 2.3624,0.0742 3.2785,-0.6364 0.3527,-0.2682 0.578,-1.065 0.4561,-1.5148 -0.3427,-1.2892 -0.8937,-2.5229 -1.379,-3.8197 1.1849,-1.0868 1.3436,-1.1591 2.497,-0.2781 0.8703,0.6619 1.736,1.3941 2.3743,2.264 0.5304,0.7237 1.0854,0.8161 1.8176,0.6803 1.3652,-0.2545 2.4055,-1.4102 2.7527,-2.9466 0.3274,-1.4499 -0.3495,-2.3567 -1.5236,-3.0265 -1.1256,-0.6404 -2.1994,-1.4035 -3.3905,-1.8768 -2.3959,-0.9584 -4.0176,-2.7766 -5.6109,-4.6577 -0.1596,-0.1876 -0.2353,-0.4495 -0.3677,-0.7225 0.6781,-0.8408 1.3952,-0.8731 2.1487,-0.2035 0.6806,0.5995 1.2713,1.3118 2.0001,1.838 0.663,0.4799 1.4253,0.9306 2.2071,1.1063 1.1976,0.2676 1.879,-0.3623 2.2079,-1.5794 0.195,-0.728 0.47,-1.4491 0.828,-2.1102 0.623,-1.1471 0.5026,-2.0395 -0.6305,-2.8343 -0.8444,-0.5899 -1.7869,-1.0469 -2.6665,-1.5911 -1.3725,-0.8498 -1.4675,-1.0922 -1.171,-2.6719 0.2988,-1.6053 -0.0162,-2.2491 -1.5415,-2.8778 -1.3167,-0.5422 -2.675,-0.9776 -3.9937,-1.5123 -1.5503,-0.6321 -2.5109,-1.7501 -2.9509,-3.3922 z m -0.6111,17.3704 c 0.9241,1.2603 1.7821,2.3091 2.482,3.4563 0.2035,0.3322 0.1281,1.1033 -0.1307,1.366 -0.2211,0.2257 -0.9683,0.1576 -1.3442,-0.0419 -1.3705,-0.7288 -2.0531,-2.0667 -2.9024,-3.4209 0.6089,-0.4368 1.1242,-0.8064 1.8953,-1.3595"
       style="fill:#004b9d;fill-opacity:1;fill-rule:evenodd;stroke:none"
       id="path14712" />
    <path
       d="m 158.4502,540.5227 c 0.1692,1.0843 1.868,2.9832 2.3627,3.7797 0.3736,0.5851 1.5278,1.5151 1.834,1.8394 h 0.0107 c 0.2688,0.2795 1.8247,1.6849 1.8247,1.8355 l 0.3331,0.1014 0.2783,-0.1014 0.0397,-0.5539 -0.0397,-1.8967 c -0.1349,-0.6857 0.0893,-1.4692 -1.1987,-2.0684 -0.237,-0.1616 -0.4216,-0.5344 -1.2481,-0.9936 -0.0224,0 -0.6217,-0.303 -1.2943,-0.7242 -0.4343,-0.2736 -0.8459,-0.6251 -1.3405,-0.8816 -0.4831,-0.2512 -0.955,-0.4558 -1.3323,-0.5423 -0.2123,0.009 -0.2543,0.0326 -0.2296,0.2061 z m 17.6536,4.3926 c -0.8623,-1.0063 -0.9193,-1.6002 -1.8343,-2.2394 0,-0.36 -1.4723,-1.209 -1.8363,-1.3708 l -0.0303,-0.0335 -1.192,-0.0303 v 3.2054 c 0.1239,0 0.3027,0.3416 0.9312,0.5885 l -0.0142,-0.0377 2.1416,1.4743 1.0173,0.445 -0.0107,-0.006 0.8277,0.4544 h 0.6123 l 0.3653,-0.6197 c -0.4019,-0.4708 -0.6273,-1.1735 -0.9776,-1.83 z m -6.0168,-8.5743 0.4135,-2.6135 0.0669,-0.1542 c -0.0422,-1.262 -0.2531,-2.6912 -0.4668,-3.7151 -0.1185,-0.553 -0.0482,-1.0043 -0.007,-1.3116 0.055,-0.4334 0.4612,-0.5043 1.3093,-0.7169 0.4606,-0.1139 0.6727,-0.502 1.0281,-0.6811 0.4669,-0.2347 0.6092,-0.6585 0.6804,-0.8997 0.0827,-0.2835 0.3285,-1.0982 0.1766,-1.6685 -0.1854,-0.7005 -0.6035,-1.332 -0.7878,-1.7447 -0.3362,-0.7512 -0.6931,-1.1974 -0.6931,-1.1974 -0.6304,-0.8753 -0.932,-1.3116 -1.3416,-2.2031 -0.555,-1.2112 -1.1361,-1.999 -1.1361,-1.999 0.3192,-0.4583 0.7608,-0.345 1.2688,-0.2599 1.3308,0.2231 3.0736,1.3796 3.0736,1.3796 1.455,1.1608 2.1169,0.7985 2.7569,0.8135 0.6248,0.0139 2.037,-1.3923 2.4132,-2.6827 0.4053,-1.402 -0.4864,-2.7059 -1.1135,-2.9355 -1.6954,-0.6239 -3.1308,-0.9516 -4.8435,-1.5585 -1.2416,-0.4408 -2.7567,-1.1551 -3.9983,-1.6143 -0.193,-0.1605 -1.7558,-0.2815 -2.8227,-1.3128 -0.9343,-0.9042 -3.2247,-0.5539 -3.6698,-0.0796 -0.8339,0.8835 -2.9259,3.2933 -2.5551,4.5845 0.3047,1.0618 0.8912,2.8034 0.947,3.1093 0.0681,0.3776 1.8754,2.7884 2.1858,4.6559 0.2081,1.2373 0.2359,2.0392 0.4505,2.7992 0.1434,0.5097 0.07,0.7078 -0.18,1.0267 0,0 -0.6047,0.3634 -1.304,0.7707 -0.443,0.2586 -1.2019,0.1823 -1.6231,0.5162 -0.2684,0.2135 -0.9981,0.6866 -1.165,0.9108 -0.2104,0.2835 -0.0961,0.6627 0.5462,0.968 0.193,0.0913 0.5746,0.5032 0.8527,0.5763 0.2412,0.0649 0.5388,0.1327 0.7262,0.1823 0.1284,0.0346 0.4365,0.0884 0.5261,0.1088 1.1682,0.237 2.4574,0.0443 2.4574,0.0443 l 0.0635,0.2545 c 0.0646,0.3577 0.1346,0.5893 0.0481,1.097 -0.0674,0.3912 -0.3135,1.1123 -0.3911,1.8751 -0.0666,0.6231 0.1944,3.2905 0.4991,4.934 v 1.6427 h 0.004 v 0.0247 l -0.6109,-0.1647 c -0.5938,-0.2903 -1.0981,-1.0273 -1.8354,-1.0605 0,-0.1434 -1.2231,-0.485 -1.2231,-0.8076 l -0.5046,-0.4189 h -0.1077 c -0.0477,-0.33 -0.2965,-0.3365 -0.413,-0.6115 -0.2393,0 -4.1599,-3.249 -4.1599,-2.9171 v 0 c -0.0541,-0.0538 -0.0961,-0.0981 -0.1273,-0.1607 -0.7664,-0.0734 -1.2826,0.1638 -2.0046,0.4235 0,0.2747 -0.7223,0.2942 -0.9916,0.3577 l -0.2307,0.4258 h -0.0267 c -0.7202,1.8958 0.006,3.6666 1.1906,5.07 0.0487,0 1.0607,1.0667 1.1134,1.2252 0.332,0.2531 0.0423,0.5927 0.7577,1.2245 v 0.007 c 0.3838,0.2639 0.9009,0.7608 1.0443,1.2178 l 0.1769,0.2749 c 0.3858,0.3062 0.6486,0.6251 0.8246,1.2266 0.1389,0.1312 0.1981,0.28 0.3986,0.3359 0.0204,0.0938 1.0196,1.023 1.2069,1.2265 0.3192,0.3646 0.8604,0.883 1.2204,1.2232 0.1788,0 1.057,1.036 1.2285,1.2257 0.0215,0 1.5724,2.2039 1.7566,2.4497 l 0.0958,0.1077 0.6103,0.5046 c 0.0151,0.3707 1.2223,1.2532 1.2223,1.2804 0.1474,0.1496 1.2232,1.3331 1.2232,1.3385 l 0.4385,0.4439 c 0.0303,0.2092 0.1531,0.3461 0.1831,0.5542 0.0261,0.1981 -0.0377,0.4728 -0.009,0.6701 h -0.6123 c 0,-0.2897 -0.9108,-0.6123 -1.2232,-0.6123 0,-0.0471 -2.0457,-1.2232 -2.4468,-1.2232 0,-0.1434 -1.5928,-1.2251 -1.834,-1.2251 0,-0.1103 -2.4478,-1.1523 -2.4478,-1.5531 -0.261,-0.2407 -1.8354,-1.01 -1.8354,-1.0522 -0.417,-0.0343 -1.8346,-1.0259 -1.8346,-1.2674 -0.1817,-0.1066 -0.4073,-0.4158 -0.6108,-0.4158 v -0.038 c -0.2736,-0.14 -1.2232,-0.5496 -1.2232,-0.7605 -0.1911,-0.0876 -0.3838,-0.4272 -0.6123,-0.4272 v -0.0179 c -0.61,-0.4822 -1.2231,-0.6177 -1.7674,-1.2053 h -0.068 v -0.0655 l -0.43,-0.3092 c -0.4278,-0.4238 -1.262,-0.9819 -1.8454,-1.4647 l -0.1712,-0.1695 c -0.2336,-0.1851 -1.222,-1.0205 -1.2231,-1.2169 -0.1928,-0.0893 -0.3688,-0.4513 -0.6123,-0.4513 v -0.0312 c -0.9805,-0.9841 -3.3375,-2.0761 -4.0641,-2.825 h -0.001 c -0.5474,-0.5476 -3.5308,-0.7055 -4.1956,-0.377 0,0.057 -1.0595,0.5293 -1.2231,0.5862 0,0.0485 -1.5919,0.5032 -1.8335,0.6208 0,0.0196 -3.2711,1.0726 -3.6708,1.2793 0,0.1131 -1.2728,0.3847 -0.9797,1.0962 l 0.6778,1.6381 c 0.3804,0.1293 1.4369,1.6897 1.8343,1.6897 v 0.0346 c 0.2361,0.2092 1.8346,1.3062 1.8346,1.3462 0.1905,0.1068 1.2223,0.4677 1.2223,0.5485 l 0.3362,0.0949 v -0.007 c 1.3147,0.18 14.957,6.5591 14.957,6.5605 1.2512,0.379 3.0078,1.834 4.2828,1.834 v 0.0434 c 0.3039,0.1812 3.0566,1.2274 3.0566,1.2501 0.362,0.233 3.0586,1.2555 3.0586,1.2781 0.2815,0.0885 1.8374,0.4981 1.8374,0.6208 0.883,0 1.7139,1.0939 2.4443,1.0939 v 0.0357 c 0.3635,0.1962 0.7796,0.5766 1.2238,0.5766 v 0.0368 c 0.2585,0.0978 0.5646,0.2628 0.5677,0.5763 h 0.044 v 3.7701 c 0.1973,0.1055 1.8334,1.1843 1.8334,1.2081 0.2373,0.1973 4.7345,2.287 4.8833,2.287 -0.235,0.2319 0.5369,-0.1204 0.8818,-0.0246 l 0.2532,-0.5066 c -0.0423,-0.2146 0.1012,-0.398 0.1012,-0.608 0.138,0 0.098,-0.7362 0.1046,-0.8731 l 0.0989,0.1015 c -0.1185,-0.1165 -0.2035,-2.5143 -0.2035,-2.9047 l 0.61,0.2177 c 0.5357,-0.1743 4.424,0.3082 4.424,0.6684 1.4981,0 1.1565,-0.002 2.2708,-0.5842 l 0.3085,-0.8203 c 0.915,-1.7824 -1.357,-2.3491 -1.357,-2.6402 -0.3339,-0.2512 -0.9116,-1.0338 -1.2223,-1.0338 0,-0.3039 -1.6855,-1.8386 -1.834,-1.8386 v -0.0827 l -2.7388,-1.3505 h -0.005 c 0,-0.0856 -1.5798,-1.813 -1.8355,-1.8357 0,-0.0969 -1.5925,-3.215 -1.5925,-4.6125 -0.0175,0 -0.0822,-1.1665 -0.0884,-1.2654 l 1.8363,1.0894 v 0.003 c 0.8665,0 2.0174,1.7158 2.9188,1.7158 0,0.2608 2.8599,0.3427 2.7921,0.4107 1.7439,-0.4022 4.0471,-1.5877 4.0471,-3.672 0.1553,0.1551 -0.1401,-1.6016 -0.7481,-1.6016 0,-0.2361 -0.2554,-0.3396 -0.474,-0.6111 l -2.2158,-3.2278 c -0.038,0 -0.3665,-0.5324 -0.3699,-0.6112 -0.1851,0 -1.4516,-1.622 -1.6866,-1.9431 l -0.4536,-0.6123 c -0.1672,0 -1.0264,-1.4462 -1.2688,-1.7844 -0.6896,-0.4487 -0.9632,-0.7946 -1.5735,-1.0942 -0.5507,-0.2696 -1.3569,-0.3254 -2.1481,-0.5732 -1.3178,-0.6196 -1.652,-0.4915 -3.0021,-0.485 z m 9.0204,58.6891 c 0.1652,-0.1003 0.2069,0.085 0.8183,-0.5046 0.3728,-0.6497 0.4278,-0.6273 0.8844,-1.1692 0.4615,-0.54 0.9681,-2.0124 1.4758,-3.354 0.5054,-1.3428 0.6616,-4.0266 -0.002,-5.7886 -0.6619,-1.7609 -2.0509,-3.5589 -3.2925,-4.6386 -0.305,-0.2665 -1.6319,-1.1328 -3.0469,-2.4208 -1.6359,-1.4905 -3.4994,-3.5221 -5.7626,-5.4956 -1.1015,-0.9603 -2.5789,-1.9828 -3.6008,-2.8808 -1.1347,-0.9913 -2.1198,-2.0971 -2.994,-2.842 -1.0346,-0.8825 -1.9474,-1.4732 -2.3332,-1.7674 -2.1308,-1.6212 -4.9719,-3.8736 -5.7835,-3.8736 0,0 2.787,3.6009 4.8577,6.3253 0.8978,1.178 1.6606,2.1965 2.0033,2.6861 0.9451,1.4558 2.3023,2.7405 3.2958,4.134 2.6997,3.7885 5.1656,7.5767 7.9756,11.7184 1.0993,1.482 1.83,2.9759 2.5336,4.6239 0.7101,1.6605 1.912,5.1837 2.9713,5.2475"
       style="fill:#004b9d;fill-opacity:1;fill-rule:evenodd;stroke:none"
       id="path14716" />
  </g>
</svg>
