<?xml version="1.0" encoding="UTF-8" standalone="no"?>
<!-- Created with Inkscape (http://www.inkscape.org/) -->

<svg
   version="1.1"
   id="svg2"
   width="405.17471"
   height="113.21572"
   viewBox="0 0 405.17472 113.21573"
   xmlns="http://www.w3.org/2000/svg"
   xmlns:svg="http://www.w3.org/2000/svg">
  <defs
     id="defs6" />
  <g
     id="g10"
     transform="matrix(1.3333333,0,0,-1.3333333,-194.41666,849.92465)">
    <path
       d="m 283.3897,628.6524 c 0.1284,-0.0779 0.1613,0.0666 0.6378,-0.3932 0.2909,-0.5071 0.3339,-0.4892 0.6903,-0.9121 0.3597,-0.421 0.7548,-1.5693 1.1508,-2.6159 0.394,-1.0474 0.5159,-3.1405 -0.002,-4.5147 -0.5162,-1.3737 -1.5996,-2.7757 -2.5682,-3.6179 -0.2378,-0.2077 -1.2724,-0.8835 -2.3762,-1.8881 -1.2759,-1.1625 -2.7292,-2.7471 -4.4947,-4.286 -0.8589,-0.7489 -2.0114,-1.5469 -2.8082,-2.247 -0.8853,-0.7733 -1.6535,-1.6356 -2.3352,-2.2164 -0.807,-0.6886 -1.5188,-1.1492 -1.8199,-1.3788 -1.6619,-1.2643 -3.8775,-3.0209 -4.5105,-3.0209 0,0 2.1737,2.8083 3.7886,4.9334 0.7001,0.9187 1.2951,1.713 1.5624,2.0946 0.7373,1.1358 1.7955,2.1376 2.5707,3.2246 2.1056,2.9546 4.0289,5.9091 6.2201,9.1395 0.8575,1.156 1.4275,2.321 1.9763,3.6062 0.5539,1.2955 1.4913,4.0431 2.3176,4.0927 z m -7.0358,-45.7738 0.3228,-2.0384 0.0522,-0.1202 c -0.0329,-0.9845 -0.1976,-2.0991 -0.364,-2.8976 -0.0924,-0.4312 -0.038,-0.7835 -0.006,-1.023 0.0428,-0.3379 0.3597,-0.3935 1.0213,-0.559 0.3588,-0.089 0.5244,-0.3918 0.8019,-0.5312 0.364,-0.1834 0.4751,-0.5137 0.5304,-0.7019 0.0649,-0.2211 0.2565,-0.8566 0.138,-1.3014 -0.1446,-0.5462 -0.4708,-1.0389 -0.6145,-1.3609 -0.2622,-0.5859 -0.5406,-0.9337 -0.5406,-0.9337 -0.4918,-0.6826 -0.7271,-1.023 -1.0466,-1.7184 -0.4328,-0.9448 -0.8858,-1.559 -0.8858,-1.559 0.2486,-0.3575 0.5933,-0.269 0.9893,-0.2027 1.0381,0.174 2.3973,1.076 2.3973,1.076 1.135,0.9051 1.6509,0.6228 2.1503,0.6347 0.4876,0.0108 1.5886,-1.0862 1.882,-2.0923 0.316,-1.0936 -0.379,-2.1106 -0.8683,-2.2898 -1.3224,-0.4867 -2.4418,-0.7421 -3.7774,-1.2155 -0.9686,-0.3438 -2.1504,-0.9011 -3.1187,-1.2591 -0.1505,-0.1253 -1.3694,-0.2194 -2.2014,-1.0239 -0.7288,-0.7053 -2.5152,-0.432 -2.8624,-0.0621 -0.6506,0.6891 -2.2822,2.5688 -1.9931,3.5756 0.2381,0.828 0.6954,2.1864 0.739,2.4251 0.053,0.2942 1.4627,2.1747 1.7048,3.6314 0.1621,0.965 0.1839,1.5906 0.3512,2.183 0.112,0.3977 0.0547,0.5522 -0.1403,0.8011 0,0 -0.4714,0.2834 -1.0171,0.6009 -0.3455,0.2018 -0.9371,0.1423 -1.266,0.4028 -0.2092,0.1664 -0.7783,0.5355 -0.9087,0.7104 -0.1639,0.2211 -0.0746,0.5167 0.4263,0.7548 0.1505,0.0715 0.4479,0.3924 0.665,0.4496 0.1882,0.0505 0.4201,0.1035 0.5664,0.142 0.1,0.027 0.3404,0.0689 0.4101,0.0851 0.9114,0.1848 1.9165,0.0343 1.9165,0.0343 l 0.0496,0.1984 c 0.0505,0.2792 0.1052,0.4598 0.038,0.8558 -0.053,0.305 -0.2446,0.8674 -0.3053,1.4627 -0.0518,0.4858 0.1514,2.5662 0.3892,3.848 v 1.2812 h 0.003 v 0.0193 l -0.4765,-0.1287 c -0.4632,-0.2262 -0.8566,-0.801 -1.4315,-0.8271 0,-0.1117 -0.9541,-0.3782 -0.9541,-0.6296 l -0.3935,-0.3271 h -0.0839 c -0.0371,-0.2571 -0.2313,-0.2622 -0.322,-0.4765 -0.1865,0 -3.2445,-2.5345 -3.2445,-2.2754 v 0 c -0.0422,-0.0422 -0.0748,-0.0765 -0.0992,-0.1253 -0.5979,-0.0572 -1.0004,0.1279 -1.5636,0.3303 0,0.2143 -0.5633,0.2296 -0.7733,0.2792 l -0.18,0.3319 h -0.021 c -0.5615,1.4786 0.005,2.8596 0.9289,3.9541 0.0377,0 0.8272,0.8322 0.8683,0.9558 0.2588,0.1976 0.0329,0.4623 0.591,0.955 v 0.006 c 0.2991,0.206 0.7027,0.5935 0.8144,0.9499 l 0.138,0.2145 c 0.3008,0.2387 0.506,0.4873 0.6429,0.9564 0.1086,0.1027 0.1548,0.2186 0.311,0.2622 0.0162,0.0732 0.7954,0.798 0.9417,0.9567 0.2486,0.2841 0.6707,0.6886 0.9513,0.9542 0.1397,0 0.8246,0.8076 0.9584,0.9555 0.0167,0 1.2262,1.7193 1.3702,1.9109 l 0.0746,0.0839 0.4759,0.3934 c 0.0117,0.2892 0.9533,0.9777 0.9533,0.9987 0.1151,0.1168 0.9539,1.0397 0.9539,1.044 l 0.3421,0.3464 c 0.0235,0.163 0.1194,0.2698 0.1429,0.432 0.0204,0.1547 -0.0292,0.369 -0.007,0.5227 h -0.4776 c 0,-0.2259 -0.7101,-0.4774 -0.9539,-0.4774 0,-0.0368 -1.5956,-0.9541 -1.9083,-0.9541 0,-0.1117 -1.2424,-0.9556 -1.4306,-0.9556 0,-0.0859 -1.9089,-0.8986 -1.9089,-1.2112 -0.2035,-0.1877 -1.4315,-0.7878 -1.4315,-0.8207 -0.3254,-0.0269 -1.4309,-0.8002 -1.4309,-0.9884 -0.142,-0.0833 -0.3175,-0.3246 -0.4765,-0.3246 v -0.0292 c -0.2134,-0.1094 -0.9541,-0.4288 -0.9541,-0.5935 -0.1486,-0.0681 -0.2991,-0.3328 -0.4774,-0.3328 v -0.0145 c -0.4756,-0.3756 -0.9541,-0.4816 -1.3785,-0.9397 h -0.053 v -0.0513 l -0.3353,-0.2412 c -0.3337,-0.3302 -0.9845,-0.7656 -1.4392,-1.1424 l -0.1335,-0.1318 c -0.1825,-0.1448 -0.9533,-0.7962 -0.9541,-0.949 -0.1505,-0.07 -0.2875,-0.3524 -0.4777,-0.3524 v -0.0243 c -0.7647,-0.7674 -2.603,-1.6189 -3.1697,-2.2031 h -8e-4 c -0.4269,-0.4272 -2.7539,-0.5508 -3.2723,-0.2943 0,0.0445 -0.8263,0.4128 -0.9542,0.4573 0,0.038 -1.2415,0.3926 -1.4298,0.4841 0,0.0153 -2.5511,0.8365 -2.863,0.9978 0,0.0882 -0.9926,0.3002 -0.7642,0.855 l 0.5287,1.2775 c 0.2968,0.1009 1.1205,1.3181 1.4306,1.3181 v 0.027 c 0.1843,0.163 1.431,1.0187 1.431,1.0499 0.1485,0.0831 0.953,0.3648 0.953,0.4278 l 0.2625,0.074 v -0.005 c 1.0252,0.1403 11.6654,5.1159 11.6654,5.1168 0.9759,0.2956 2.3462,1.4306 3.3406,1.4306 v 0.0335 c 0.237,0.1414 2.3839,0.9575 2.3839,0.9751 0.2824,0.1817 2.3854,0.9794 2.3854,0.9969 0.2194,0.0689 1.4332,0.3884 1.4332,0.4842 0.6885,0 1.3365,0.8532 1.9066,0.8532 v 0.0278 c 0.2832,0.1531 0.6077,0.4496 0.9541,0.4496 v 0.0286 c 0.2016,0.0765 0.4405,0.2052 0.4428,0.4499 h 0.0346 v 2.9403 c 0.1539,0.0822 1.4298,0.9238 1.4298,0.9423 0.1851,0.1539 3.6927,1.7838 3.8086,1.7838 -0.1831,0.1806 0.4187,-0.0944 0.6877,-0.0195 l 0.1976,-0.3949 c -0.0329,-0.1675 0.079,-0.3104 0.079,-0.4742 0.1075,0 0.0766,-0.5741 0.0814,-0.6809 l 0.0774,0.0791 c -0.0924,-0.0908 -0.1588,-1.9611 -0.1588,-2.2655 l 0.4757,0.1698 c 0.4178,-0.1361 3.4506,0.2404 3.4506,0.5213 1.1685,0 0.902,-0.002 1.7711,-0.4558 l 0.2404,-0.6395 c 0.7137,-1.3904 -1.0582,-1.8326 -1.0582,-2.0594 -0.2605,-0.1959 -0.7112,-0.8062 -0.9533,-0.8062 0,-0.2372 -1.3147,-1.434 -1.4306,-1.434 v -0.0649 l -2.1359,-1.0531 h -0.004 c 0,-0.0663 -1.2322,-1.4139 -1.4315,-1.4315 0,-0.0757 -1.2424,-2.5075 -1.2424,-3.5977 -0.0133,0 -0.0638,-0.9097 -0.0689,-0.987 l 1.4324,0.8498 v 0.003 c 0.6757,0 1.5735,1.3383 2.2762,1.3383 0,0.2035 2.2311,0.2673 2.1781,0.3203 1.3601,-0.3135 3.1564,-1.2382 3.1564,-2.8639 0.121,0.1211 -0.1094,-1.2492 -0.5834,-1.2492 0,-0.1839 -0.1993,-0.2647 -0.3699,-0.4765 l -1.7283,-2.5174 c -0.0295,0 -0.2857,-0.4153 -0.2883,-0.4768 -0.1445,0 -1.1321,-1.2651 -1.3155,-1.5154 l -0.3538,-0.4777 c -0.1304,0 -0.8002,-1.1279 -0.9896,-1.3918 -0.5377,-0.3498 -0.7514,-0.6196 -1.2271,-0.8532 -0.4294,-0.2103 -1.0582,-0.254 -1.6753,-0.4473 -1.0281,-0.4833 -1.2886,-0.3833 -2.3419,-0.3781 z m 4.693,6.6874 c -0.6724,-0.7849 -0.7169,-1.248 -1.4306,-1.7467 0,-0.2806 -1.1484,-0.943 -1.4324,-1.0692 l -0.0235,-0.0261 -0.9298,-0.0235 v 2.4999 c 0.0967,0 0.2364,0.2664 0.7263,0.4592 l -0.0108,-0.0295 1.6702,1.1497 0.7934,0.3473 -0.008,-0.005 0.6455,0.3549 h 0.4776 l 0.2849,-0.4833 c -0.3135,-0.3674 -0.4892,-0.9156 -0.7625,-1.4276 z m -13.7687,-3.4262 c 0.1321,0.8459 1.4567,2.327 1.8425,2.948 0.2917,0.4564 1.192,1.1818 1.4306,1.4349 h 0.008 c 0.2092,0.2177 1.423,1.3139 1.423,1.4315 l 0.26,0.0791 0.2168,-0.0791 0.0309,-0.432 -0.0309,-1.4794 c -0.1051,-0.5346 0.0698,-1.1457 -0.9348,-1.6132 -0.1849,-0.1261 -0.3286,-0.4169 -0.9735,-0.775 -0.0175,0 -0.485,-0.2361 -1.0094,-0.5649 -0.3387,-0.2134 -0.6599,-0.4876 -1.0457,-0.6874 -0.3767,-0.1959 -0.7449,-0.3557 -1.0389,-0.4229 -0.1658,0.007 -0.1984,0.0252 -0.1791,0.1604 z m 66.4801,10.7714 c 0.7205,0.9828 1.3895,1.8005 1.9352,2.6949 0.1587,0.2588 0.1,0.86 -0.1018,1.065 -0.1723,0.1757 -0.7548,0.1227 -1.0482,-0.0326 -1.0684,-0.5684 -1.6005,-1.6115 -2.2629,-2.6674 0.4751,-0.3405 0.8767,-0.6288 1.4777,-1.0599 z m 0.4768,-13.5425 c 1.1026,0.0697 2.0483,0.4991 3.0067,0.9187 0.5935,0.2596 1.2197,0.5539 1.8484,0.5984 2.0787,0.1471 3.2372,-1.861 2.2258,-3.7744 -0.6608,-1.2489 -1.3425,-2.4879 -1.9987,-3.738 -0.2322,-0.4405 -0.4144,-0.902 -0.6809,-1.4893 0.5672,-0.2861 1.0398,-0.5491 1.5299,-0.7694 0.5068,-0.2267 1.0338,-0.405 1.5466,-0.6159 1.487,-0.6086 1.7753,-0.9474 1.6846,-1.9712 -0.1009,-1.1475 -1.1449,-2.289 -2.2791,-2.5161 -1.3045,-0.2596 -2.3913,0.1069 -3.2848,1.0803 -0.5062,0.5445 -1.0156,1.0885 -1.5233,1.6342 -1.3827,-1.2694 -2.6949,-2.4429 -3.9699,-3.6508 -1.1594,-1.097 -3.1238,-1.1996 -4.3671,-0.1817 -0.0805,0.0641 -0.1477,0.1406 -0.2199,0.2095 -1.5679,1.4837 -1.4704,1.9148 0.4889,2.8194 1.3737,0.6329 2.7153,1.3382 4.0357,2.0786 0.5094,0.284 0.9204,0.7489 1.3845,1.1407 -0.1772,0.6222 -0.3606,1.1423 -0.468,1.6786 -0.1968,0.9944 0.1108,1.3272 1.1026,1.2283 0.5415,-0.0556 1.0795,-0.1363 1.7133,-0.2163 0.4025,1.0038 0.7707,1.9199 1.1146,2.7783 -0.6514,0.6976 -1.287,0.8339 -2.0359,0.585 -0.3313,-0.1108 -0.7296,-0.305 -1.0173,-0.2117 -1.3726,0.4444 -1.9358,-0.4794 -2.7227,-1.3156 -2.3644,-2.5109 -4.3557,-5.2866 -6.2884,-8.1261 -0.8186,-1.2019 -1.7583,-2.3283 -2.6915,-3.4489 -0.3109,-0.373 -0.7565,-0.6454 -1.1735,-0.9161 -0.5522,-0.3589 -1.0809,-0.254 -1.4576,0.2783 -0.4932,0.6968 -1.0103,1.3918 -1.3742,2.1569 -0.3328,0.6951 -0.305,1.4576 0.0941,2.1872 0.8583,1.5633 1.9284,2.9773 3.3984,3.9682 2.6462,1.783 4.7546,4.0425 6.4911,6.6912 0.4093,0.627 0.9524,1.1676 1.5165,1.8468 -0.2347,0.4564 -0.4708,0.9439 -0.7305,1.4165 -0.1933,0.352 -0.4733,0.6672 -0.6162,1.038 -0.4354,1.1288 0.127,2.0299 1.3181,2.1047 0.7044,0.0445 1.4148,-0.0394 2.1209,-0.009 1.4893,0.0612 2.5713,0.8934 3.0957,2.2719 0.1848,0.4918 0.1809,0.8918 -0.2849,1.1886 -0.4229,0.2673 -0.7137,0.0371 -1.055,-0.2511 -1.8905,-1.5991 -3.2295,-1.5974 -5.0545,-0.0363 0.4161,0.7364 0.8357,1.4734 1.2407,2.1889 -0.9927,0.9289 -1.0128,0.955 -1.8754,0.2766 -0.606,-0.4784 -1.1792,-0.7423 -1.9769,-0.1573 0.1472,0.5227 0.3136,1.0372 0.432,1.5602 0.1177,0.5287 0.1874,1.0641 0.2725,1.5701 -0.7424,0.328 -1.0642,-0.1411 -1.4097,-0.4722 -0.2506,-0.2413 -0.4842,-0.5298 -0.6381,-0.8408 -2.0662,-4.2063 -5.1846,-7.6929 -7.8233,-11.5101 -1.8922,-2.7385 -3.7633,-5.4924 -5.6058,-8.263 -1.4508,-2.1829 -2.7941,-4.4356 -4.2795,-6.5942 -1.2532,-1.8258 -2.6376,-3.5609 -3.975,-5.3286 -0.1809,-0.2395 -0.4071,-0.4464 -0.6321,-0.6457 -1.4981,-1.3045 -2.0897,-1.1154 -2.6428,0.8257 -0.0825,0.2883 -0.1749,0.5908 -0.3382,0.838 -0.8716,1.3223 -0.5706,2.6016 0.118,3.8607 0.6766,1.2382 1.4607,2.4242 2.0534,3.7012 0.3036,0.6565 0.8827,0.2472 1.2274,0.569 0.8782,0.828 1.9054,1.5375 2.6436,2.4763 6.3572,8.1017 12.6649,16.2445 18.9955,24.3669 0.4371,0.5624 0.7858,1.0928 0.8337,1.8746 0.0666,1.0641 0.9742,1.6846 1.8048,2.0789 0.6347,0.3033 1.0593,0.7027 1.4785,1.1985 1.2365,1.4626 2.4951,2.9069 3.7197,4.3769 0.233,0.2793 0.3605,0.648 0.7052,1.2912 -1.0556,-0.2758 -1.7736,-0.4405 -2.4789,-0.648 -2.0761,-0.612 -4.149,-1.2282 -6.2161,-1.8638 -0.5303,-0.1629 -1.0346,-0.4059 -1.5508,-0.6094 -2.2133,-0.8708 -4.4155,-1.0471 -6.5676,0.1749 -1.3204,0.7515 -1.6659,1.4686 -1.4315,2.7488 2.789,0.358 5.6001,0.5538 8.337,1.1137 2.732,0.5598 5.4941,1.144 8.3041,2.4032 -1.635,1.3601 -3.0722,2.5858 -4.5468,3.765 -0.7254,0.5825 -1.1458,1.2702 -1.0531,2.209 0.0757,0.7591 0.5313,1.0936 1.2447,0.8053 1.709,-0.6891 3.5037,-0.8832 5.3017,-1.1616 1.0601,-0.1621 2.1444,-0.6219 3.0631,-1.1954 1.3053,-0.8127 1.4366,-1.6676 0.7018,-3.2941 0.5287,0.1066 0.94,0.1446 1.3216,0.2741 1.2886,0.4371 2.5443,0.9748 3.8488,1.3456 2.0469,0.5842 2.6513,-0.1278 3.0306,-1.6449 0.0739,-0.2917 0.1873,-0.5766 0.2537,-0.8708 0.3523,-1.5744 -0.3992,-2.7077 -1.9803,-2.9566 -1.4854,-0.2336 -2.9818,-0.3991 -4.4569,-0.6741 -0.5145,-0.0949 -1.1112,-0.3075 -1.4525,-0.6723 -2.4956,-2.6363 -4.9385,-5.3235 -7.3905,-8 -0.1327,-0.1454 -0.2109,-0.3421 -0.3362,-0.5479 0.1698,-0.3027 0.3067,-0.6338 0.5213,-0.9037 0.6253,-0.7951 0.9984,-0.7826 1.6574,-0.0278 0.4323,0.4935 0.8575,0.9987 1.3357,1.4409 1.836,1.6996 3.4566,3.5271 3.8608,6.1194 1.008,0.4731 1.842,0.0578 2.5563,-0.4961 0.2749,-0.2092 0.4507,-0.8305 0.3557,-1.1809 -0.2673,-1.0054 -0.697,-1.9669 -1.0752,-2.9783 0.9239,-0.8473 1.0474,-0.9034 1.9469,-0.2169 0.6783,0.5162 1.3532,1.0871 1.8507,1.7654 0.4136,0.5641 0.8467,0.6364 1.4173,0.5304 1.0642,-0.1984 1.8754,-1.0996 2.1462,-2.2975 0.2554,-1.1304 -0.2725,-1.8374 -1.1878,-2.3593 -0.8776,-0.4994 -1.7149,-1.0944 -2.6436,-1.4635 -1.868,-0.7472 -3.1322,-2.1645 -4.3744,-3.6314 -0.1244,-0.1463 -0.1834,-0.3504 -0.2868,-0.563 0.5289,-0.6557 1.0879,-0.6809 1.6752,-0.159 0.5307,0.4674 0.9913,1.023 1.5594,1.4332 0.517,0.3741 1.1112,0.7254 1.7206,0.8625 0.934,0.2084 1.4652,-0.2826 1.7218,-1.2316 0.1519,-0.5672 0.3662,-1.1296 0.6454,-1.645 0.4859,-0.8943 0.3918,-1.5905 -0.4918,-2.2098 -0.6582,-0.4598 -1.3927,-0.8161 -2.0786,-1.2408 -1.0701,-0.6624 -1.1441,-0.8515 -0.9131,-2.0829 0.233,-1.2517 -0.0125,-1.7535 -1.2019,-2.2436 -1.0264,-0.4226 -2.0854,-0.7625 -3.1135,-1.1792 -1.2087,-0.4927 -1.9577,-1.3643 -2.3006,-2.6444 z m -7.6159,5.3971 c -0.2968,-0.7463 -0.4949,-1.2438 -0.6202,-1.5599 0.252,-0.9978 0.7724,-1.9142 0.5975,-2.6691 -0.1967,-0.8439 -0.9119,-1.6668 -1.6021,-2.2702 -1.2767,-1.1197 -2.8125,-1.1903 -4.8441,0.881 1.0244,2.842 2.8956,4.5207 6.4689,5.6182 z m 54.3969,8.4824 c -0.2152,-2.1628 -0.544,-3.7205 -0.4935,-5.4056 0.0201,-0.6651 4.0776,1.222 4.4838,1.349 0.0462,0.0136 0.0916,0.026 0.1369,0.0379 0.0573,0.0267 0.1159,0.0553 0.1741,0.0805 0.7296,0.3289 1.5332,0.5633 2.2629,0.9239 l 1.8442,1.0145 0.322,0.2061 0.3674,0.2009 c 0.1184,0.0783 0.2806,0.2243 0.2605,0.3765 -0.0176,0.1454 -0.0598,0.2917 -0.0732,0.4212 -0.0119,0.1287 -0.1873,0.1412 -0.0521,0.2529 0.1244,0.0547 -0.2421,0.3305 0.2001,0.3112 l 0.3311,-0.0799 0.2766,-0.0882 c 0.2353,-0.095 0.4902,-0.3044 0.7019,-0.464 0.3495,-0.2625 0.6395,-0.4935 0.8532,-0.8045 0.169,-0.2446 0.5086,-0.9255 0.5749,-1.2022 l -0.0303,-0.0175 0.0184,-0.1758 c 0.0278,-0.0411 -0.1276,-0.7758 -0.1477,-0.7926 0.0244,-0.1428 -8e-4,-0.3716 -0.1389,-0.4589 l 0.0162,-0.0252 c -0.1523,-0.1874 -0.2523,-0.1381 -0.4649,-0.2892 -0.0278,-0.3741 -1.008,-0.8348 -1.3006,-0.8668 -0.03,0.0479 -1.6055,-0.5856 -3.0387,-1.0953 -2.0551,-0.8799 -4.2247,-1.6197 -5.4249,-2.0466 l -0.1146,-0.0723 -0.0654,0.007 c -0.1823,-0.0647 -0.3388,-0.1228 -0.459,-0.1681 -0.3262,-0.1253 -1.0363,-0.273 -0.8784,-0.5851 0.3563,-0.6984 0.316,-1.5338 1.4785,-2.9713 0.3388,-0.4178 0.9726,-1.8895 1.298,-2.4874 0.3909,-0.7211 1.1659,-2.0795 1.5795,-2.7603 0.3537,-0.5834 0.9759,-1.3853 1.3887,-1.988 0.3016,-0.443 0.542,-0.9425 0.8572,-1.3617 0.8677,-1.1501 1.4652,-1.7924 2.404,-2.6127 0.3104,-0.2716 0.8768,-0.7801 1.1988,-1.0021 0.3161,-0.2177 0.7724,-0.4816 1.0936,-0.6588 0.733,-0.4019 1.6022,-0.6312 2.2981,-0.8523 1.2543,-0.4011 2.2572,-0.6282 3.0656,-0.7155 0.3892,-0.042 0.87,-0.0587 1.0979,-0.0967 0.5766,-0.0992 0.3858,-0.2554 -0.6968,-0.7219 -0.6675,-0.2909 -1.7317,-0.908 -3.2969,-1.3048 -0.5429,-0.1378 -1.3071,-0.2917 -1.9435,-0.5429 -0.7523,-0.2968 -1.8802,-0.0453 -2.6611,0.2328 -0.876,0.3126 -1.4055,0.5093 -2.2116,1.2551 -0.3598,0.332 -0.7087,0.8978 -1.0389,1.2725 -1.1291,1.277 -2.0603,2.378 -2.5966,3.4447 -0.5221,0.97 -0.9853,2.1807 -1.3989,2.9664 -1.2608,2.3967 -2.0718,3.9989 -2.8048,5.1242 -0.2472,0.381 -0.3087,0.5094 -0.6223,0.5094 -0.263,0 -0.2973,-0.2934 -0.3486,-0.4192 -0.5188,-1.2702 -0.813,-2.738 -1.3998,-4.0173 -0.5136,-1.1214 -1.2985,-2.0687 -2.0165,-3.0413 -0.8952,-1.2129 -1.9191,-2.3309 -3.553,-2.8959 -0.5102,-0.1754 -1.271,-0.3135 -1.8771,-0.4042 -1.0987,-0.1638 -2.3519,-0.0714 -4.0096,0.0607 -1.9057,0.1511 -5.0074,0.1587 -7.467,0.2815 -1.8669,0.2571 -2.1124,0.6783 -1.2827,1.2347 1.266,0.2707 5.0394,0.5338 6.012,0.6767 0.8759,0.1286 3.011,0.4328 4.0136,0.8759 1.7291,0.765 2.8599,1.6231 4.1729,3.0716 0.6613,0.7288 1.0919,1.5718 1.6256,2.5376 0.4235,0.7701 1.0129,1.6208 1.1138,2.5537 0.1462,0.1278 0.5706,1.4148 0.9255,2.7765 -0.4615,-0.1244 -0.8904,-0.1539 -1.2526,-0.2783 -0.669,-0.2294 -1.1943,-0.3076 -1.6104,-0.4833 -0.8289,-0.3504 -1.2308,-0.6908 -1.4871,-0.7691 -0.4371,-0.1369 -0.4986,-0.1488 -1.0491,-0.3288 -0.4294,-0.1395 -0.4371,-0.3654 -0.8674,-0.5193 -0.4019,-0.1446 -0.4271,-0.18 -0.7237,-0.3597 -0.2018,-0.1228 -0.5346,-0.2078 -0.6046,-0.3464 -0.4008,-0.4825 -1.0026,-0.449 -1.3447,-0.76 -0.3708,-0.1066 -1.198,0.0312 -1.594,0.5457 -0.007,0.01 -0.4294,0.6403 -0.4722,0.7086 -0.3084,0.4598 -0.6044,0.7807 -0.6423,0.7875 -0.2092,1.2753 0.7715,1.9293 1.4879,2.1915 l 1.3305,0.485 c 0.7835,0.0697 1.719,0.6296 2.9849,1.1086 1.683,0.6364 3.765,1.0273 5.5613,1.8865 0.3575,0.1706 0.671,0.3186 0.9442,0.4487 0.1815,0.9366 0.4043,1.961 0.6169,3.043 0.189,2.9194 1.3314,8.7899 1.4198,12.797 l -0.153,4.7259 -0.0647,-0.002 c -0.0187,0.5993 -0.8968,1.3473 -0.9164,1.9038 v 0 l 0.0782,-0.074 c -0.004,0.1236 0.004,0.2154 -0.0774,0.3211 l 0.003,0.005 0.0337,-0.0294 c -0.011,0.3396 0.1522,0.7018 0.3841,0.943 l 0.4255,0.0389 h -0.0213 c 1.1163,0.0513 2.3318,-0.2489 3.3937,-0.4935 l 0.002,-0.0539 0.2319,-0.1049 c 0.0756,0.002 0.2514,-0.2313 0.2715,-0.3254 0.2109,-0.0487 0.4456,-0.2001 0.4876,-0.4269 0.1941,-0.0765 0.4632,-0.2792 0.47,-0.5136 l 0.0394,8e-4 c 0.1218,-0.3305 0.3656,-0.3809 0.396,-0.7574 0.4444,-0.3143 -0.1018,-1.7813 -0.2793,-2.1696 l -0.0773,-9e-4 c 0.0192,-0.5723 -0.0882,-1.3895 -0.3439,-1.9029 l -0.1227,-0.6877 c 8e-4,0.003 -0.0267,-0.0924 -0.0275,-0.1338 -0.6273,-2.2838 -1.0709,-6.1117 -1.408,-8.9849 l 0.0386,8e-4 z m 52.1206,-35.6921 c -0.887,0.1034 -4.0283,0.3053 -4.5493,0.3061 l -0.0471,0.003 -0.6701,0.4193 v 0.1111 h -0.2446 c -0.1032,0.1026 -0.6826,0.3268 -0.6826,0.4649 h -0.0258 c -0.1304,0.1335 -0.7112,0.4268 -0.9011,0.4487 v 0.0161 l -0.4397,0.1446 c 0,0 -0.7339,0.1502 -0.8994,0.3186 v 0 c -0.6304,0.6296 -2.5589,2.4854 -3.4203,2.4914 -0.0683,0.0898 -0.1775,0.1437 -0.2894,0.1446 h 0.002 l -0.7061,0.5632 -0.0545,0.3118 -0.3532,0.0454 c -0.0226,0.047 -0.0453,0.0867 -0.0663,0.1338 0.2506,0.3016 1.2583,0.0949 2.6572,-0.08 0.8943,-0.1111 1.6651,-0.007 2.6235,-0.1428 0.7463,-0.1061 1.4272,-0.4785 2.0735,-0.6129 0.4632,-0.0958 0.8425,-0.1817 1.1585,-0.1706 0.2007,0.007 0.4094,0.1017 0.4958,0.1017 0,0.1177 -0.002,0.2404 -0.005,0.3657 -0.0487,1.6274 -0.3798,3.9254 -0.4201,5.2611 -0.0371,1.1701 -0.0363,2.8783 0.0544,4.3359 -1.239,0 -7.9962,-2.1578 -8.1527,-2.4631 l 0.0513,0.1044 c -1.0978,0 -3.0665,-1.0265 -4.0246,-0.0505 v -9e-4 c -0.0261,-0.053 -0.0935,0.0723 -0.1505,0.0916 v 0.0632 c -0.3665,0 -0.6052,0.2276 -0.9281,0.3269 v 0.136 c -0.2968,0.009 -1.3921,0.6146 -1.3921,0.9306 h -0.002 l -0.4598,0.4102 v 0.0547 l -0.2789,0.1296 v 0 c 0,-0.1364 -0.186,0.1998 -0.186,0.3336 h -0.1006 c -0.0919,0.0899 -0.1313,0.1378 -0.2481,0.1993 0.0403,0.178 -0.1346,0.875 0.0967,0.9901 0,0.9255 1.7779,0.5431 2.1796,0.8742 2.658,0.6228 2.7192,0.1219 4.9637,0.633 2.4846,0.5649 5.8076,1.1835 6.2674,1.1835 l 0.195,0.0479 v 0 c 0.5817,0 2.041,0.7027 2.7925,1.2954 0.89,0.701 0.8413,1.6316 1.032,2.3536 l 0.3144,0.3059 c 0.2169,0.2497 0.3575,0.5598 0.3986,0.9297 l 0.1723,0.9272 c -0.8507,0 -1.5165,0.3405 -2.3176,0.3524 h 0.006 l -0.4692,0.0487 v 0.0655 c -0.9482,0 -1.6171,-0.1647 -2.3199,0.4286 v 0.0338 h -0.0388 l -0.2217,0.5799 c 0.1613,0.0848 0.542,0.4598 0.5758,0.6446 0.2267,0.0431 0.9272,0.4456 1.0675,0.5868 v 8e-4 c 0.1,0.1035 0.3481,0.0471 0.4731,0.0471 l 0.003,0.2347 h -0.003 v 0 c 0.4977,0.003 1.8343,1.2801 2.1597,1.6223 h 0.1587 v 0.1051 c 0.2883,0.1092 0.5001,0.2999 0.7901,0.3487 0.0473,0.0388 0.0927,0.0808 0.1363,0.1227 v 0.038 l 0.1083,0.063 c 0.2154,0.21 0.4272,0.432 0.6616,0.6253 0.2548,0.2112 0.6052,0.337 0.8759,0.47 3.8044,1.8703 7.4038,4.333 10.3946,6.6733 0,0.0496 0,0.1 0,0.1505 -0.0175,0.0167 -0.0334,0.0337 -0.0513,0.0496 -3.5178,0.0984 -7.6147,-2.1016 -10.9116,-3.3219 -2.1634,-0.8011 -4.8745,-1.7646 -6.7457,-2.4494 -0.242,-0.1471 -0.6304,-0.2036 -1.0726,-0.1885 v -9e-4 c -0.053,-0.009 -0.1057,-0.0252 -0.1511,-0.0496 -0.0808,-0.002 -0.1479,-0.0116 -0.227,-0.0672 -0.0261,-0.009 -0.0513,-0.0209 -0.0757,-0.0351 -0.0564,-0.005 -0.1395,-0.0261 -0.1899,-0.0488 -0.0355,-0.003 -0.0681,-0.009 -0.1009,-0.0221 -0.0565,0 -0.1044,-0.002 -0.1582,-0.0167 h -1.1103 v -0.0856 c -0.163,0 -0.3085,0.0116 -0.4675,-0.0235 l -0.5731,8e-4 c -0.0321,0.007 -0.0664,0.015 -0.0976,0.0176 -0.0941,0.0629 -0.1822,0.0816 -0.2916,0.0816 v 0.009 h -2.0957 c -0.0377,0.0201 -0.0822,0.0337 -0.1276,0.0371 -0.0447,0.027 -0.0952,0.0454 -0.1505,0.0505 -0.0666,0.0402 -0.1598,0.0864 -0.2287,0.0983 -0.0655,0.063 -0.1554,0.1032 -0.2537,0.1041 v 0 h 0.0983 c -0.032,0.032 -0.0606,0.0623 -0.0983,0.0884 v 0.0984 h -0.006 v 0.6587 c 0,0.0488 -0.009,0.0936 -0.0235,0.1338 -0.002,0.0445 -0.0111,0.0882 -0.0252,0.1279 v 0.3319 l -0.0868,-0.0842 v 0 c 0.0496,0.0488 0.0868,0.112 0.1018,0.1843 0.0119,0.0278 0.0261,0.0496 0.0371,0.0782 h 0.003 c 0,0.0984 0.1462,0.2234 0.2075,0.2849 v 9e-4 c 0.0192,0.0184 0.0932,0.0487 0.1295,0.0799 0.0612,0.03 0.1284,0.0706 0.1831,0.1108 h 0.432 v 0.222 c 0.0397,0.0227 0.0749,0.0513 0.1052,0.0873 0.0487,0.0127 0.0967,0.0346 0.1403,0.0689 0.0422,0.006 0.1094,0.0277 0.1505,0.0439 0.053,9e-4 0.1018,0.005 0.1522,0.0269 0.095,0 0.2118,-0.0127 0.2994,0.0227 0.0292,0 0.0604,0.003 0.0898,0.006 h 0.4919 v 0.1313 c 0.0292,0.009 0.062,0.021 0.1023,0.0419 0.0757,0.009 0.2421,0.0698 0.3135,0.106 0.0556,0.0117 0.1103,0.0386 0.1556,0.0757 0.0573,0.0142 0.1111,0.0403 0.1556,0.0805 0.0899,0.044 0.1253,0.0397 0.2251,0.0397 v 0.0604 c 0.0286,0.0145 0.0564,0.0337 0.0842,0.0564 0.0394,0.0142 0.0774,0.0354 0.1117,0.0638 0.0589,0.0136 0.1154,0.0431 0.1624,0.0859 0.057,0.0201 0.0984,0.0351 0.1536,0.0612 0.0616,0.0145 0.1219,0.0437 0.1707,0.0876 0.038,0.015 0.0765,0.0343 0.1111,0.0544 0.0539,0 0.1026,0.007 0.1588,0.007 v 0.0218 c 0.0328,0.0145 0.064,0.0338 0.0924,0.0565 0.0447,0.0116 0.0884,0.0311 0.1261,0.0589 0.0405,0.0116 0.0941,0.0301 0.1278,0.0454 0.0857,0.0402 0.1823,0.0513 0.264,0.1151 0.0337,0.004 0.0722,0.0175 0.1116,0.0343 0.2245,0.1196 0.4482,0.2355 0.6526,0.3583 2.6739,1.597 7.3649,1.2911 6.391,5.953 -0.233,0.1857 -0.7532,1.1415 -1.1855,0.9615 -0.4858,-0.4354 -1.1959,-1.2356 -1.6826,-1.6719 -0.5094,-0.3775 -1.4721,-1.3609 -2.3604,-1.7804 -0.3683,-0.1707 -0.7121,-0.3033 -0.9786,-0.3589 -0.0158,0.0151 -0.0328,0.0321 -0.0504,0.0488 -0.004,0.4144 -0.0184,0.8977 0.1009,1.2895 0.5119,1.6877 2.0503,3.1269 3.0186,4.4642 -0.3943,0.3204 -0.9524,0.7087 -1.4114,1.198 -0.8742,0.938 -0.9374,-0.3135 -1.5635,-0.6262 -0.6254,-0.3135 0.3143,0 0.6261,-0.7506 0.3135,-0.7509 -1.1262,-2.0639 -1.4388,-2.5019 -0.313,-0.4376 -0.8759,-0.5009 -0.9383,-1.1262 -0.1293,-1.2963 0.6607,-3.6314 -1.3181,-3.8809 -0.3614,-0.0448 -3.4058,0.648 -3.2857,1.0103 -0.1454,0.4756 -0.1851,1.5196 -0.1851,1.798 0,1.0315 -0.1732,2.8604 -0.7202,4.0079 -0.2254,0.4756 -0.6514,0.7481 -0.9482,0.9859 -0.1775,0.1414 -0.042,0.3271 0.0243,0.4272 1.1642,0.1142 2.9682,-0.6985 3.6811,-1.4712 1.355,-0.6353 0.4646,3.4668 0.6959,4.4654 0.1865,0.8127 1.1801,0.7909 1.556,0.6035 0.3755,-0.1882 1.1877,-1.4392 1.1877,-2.1285 0,-0.6874 1.002,-0.1866 1.002,-0.1866 l -0.0623,1.8139 c 0,0 -0.3765,0.8147 -1.2515,0.9391 -0.6027,0.0848 -1.8074,1.1138 -2.0594,1.755 -0.3322,0.8424 1.4272,0.5096 1.5633,0.6911 0.6466,0.4388 1.2331,0.5833 2.0486,0.7659 0.5933,0.1318 0.9363,0.0989 1.4927,0.1763 1.2467,0.1749 1.9687,-2.3156 2.9767,-1.5877 1.7467,2.647 4.0952,5.9463 5.7033,8.7554 h 0.002 l 0.1638,0.2917 c 0.1843,0.2103 0.724,0.7616 0.7036,0.9601 0.0244,0.0402 0.0431,0.0839 0.0513,0.1301 0.032,0.0581 0.0859,0.2086 0.0924,0.269 0.1279,0.3421 0.3566,0.5876 0.4354,0.9691 0.0244,0.0431 0.0539,0.1245 0.0649,0.1724 0.0386,0.0706 0.074,0.1766 0.074,0.2565 0.11,0.4026 0.3268,1.2498 0.057,1.5676 -0.0746,0.0884 -0.0621,0.1429 -0.0788,0.2565 -0.1137,0.8161 0.1023,0.3867 -0.2143,1.012 -0.008,0.0655 -0.002,0.174 -0.0312,0.2344 l -0.0218,0.1843 c 0.0227,0.007 0.0419,0.0158 0.0604,0.0252 0.6482,0.0689 0.1573,0.1185 0.6834,0.1732 0.0445,-0.0111 0.0915,-0.0162 0.1403,-0.0111 0.0337,-0.009 0.068,-0.0141 0.1035,-0.015 0.1984,-0.0893 1.1389,-0.1 1.2004,-0.0935 0.0227,-0.007 0.0479,-0.015 0.0723,-0.0176 0.0613,-0.0394 0.1318,-0.0496 0.1967,-0.0462 0.3192,0.0102 0.1234,0.0145 0.4167,-0.0856 0.18,-0.0632 0.3943,-0.0902 0.5542,-0.0723 0.0595,-0.006 0.1015,-0.0213 0.1664,-0.017 0.0403,-0.0176 0.0831,-0.0286 0.1284,-0.0326 0.0261,-0.0128 0.0539,-0.0227 0.0817,-0.0295 0.079,-0.0706 0.1723,-0.0924 0.2715,-0.1142 0.0454,-0.0221 0.0941,-0.0406 0.1454,-0.0465 0.0655,-0.0445 0.1437,-0.0672 0.2262,-0.0672 0.0681,-0.0317 0.1494,-0.0587 0.2251,-0.0587 0.0363,-0.011 0.074,-0.017 0.1128,-0.017 0.0445,-0.0124 0.0941,-0.0175 0.1446,-0.0133 0.0167,-0.004 0.0343,-0.009 0.0513,-0.009 0.0244,-0.0176 0.0505,-0.0292 0.0771,-0.0403 0.0833,-0.0714 0.1295,-0.1001 0.2305,-0.1386 0.0192,-0.008 0.0739,-0.059 0.0949,-0.0757 0.0723,-0.059 0.1556,-0.0808 0.2262,-0.1329 0.0672,-0.0539 0.1378,-0.1194 0.216,-0.1506 0.1109,-0.0907 0.1117,-0.0218 0.1673,-0.1437 0.0218,-0.0536 0.0547,-0.1 0.0958,-0.1403 0.047,-0.0731 0.121,-0.1134 0.1839,-0.1723 0.038,-0.0587 0.0684,-0.1109 0.1279,-0.1537 0.011,-0.0153 0.0201,-0.0312 0.0329,-0.0465 0.0226,-0.0462 0.0513,-0.0924 0.0949,-0.1292 0.0219,-0.0363 0.0672,-0.0902 0.0967,-0.1228 0.0218,-0.047 0.053,-0.0915 0.089,-0.1261 0.032,-0.0924 0.0958,-0.1673 0.1749,-0.2152 0.0411,-0.0411 0.0496,-0.1119 0.1261,-0.1817 0.0278,-0.0569 0.0698,-0.1065 0.1194,-0.1454 0.021,-0.0326 0.0419,-0.0655 0.0672,-0.0958 0.0277,-0.0646 0.0547,-0.1284 0.1026,-0.1823 0.0175,-0.0379 0.0487,-0.0884 0.0748,-0.1235 l 0.0479,-0.4491 c -0.0445,-0.0731 -0.0411,-0.1604 -0.032,-0.2528 0.008,-0.0658 -0.0125,-0.1103 -0.007,-0.1775 -0.0363,-0.083 0.007,-0.3016 -0.0465,-0.4773 -0.0419,-0.085 -0.0368,-0.2395 -0.0949,-0.3118 v 0 c -0.0445,-0.053 -0.0873,-0.106 -0.1126,-0.1698 -0.015,-0.0187 -0.0286,-0.0354 -0.0402,-0.0564 -0.1908,-0.1783 -0.6256,-0.559 -0.7297,-0.8002 -0.0436,-0.0312 -0.1488,-0.1372 -0.1774,-0.1843 -0.1125,-0.0814 -0.1077,-0.0595 -0.1505,-0.199 -0.0437,-0.0221 -0.1043,-0.0901 -0.1284,-0.1304 -0.0607,-0.0286 -0.1129,-0.0697 -0.1531,-0.1227 -0.042,-0.0304 -0.0799,-0.0672 -0.1219,-0.1001 -0.5893,-0.2993 -1.0491,-0.7412 -1.514,-1.2322 -0.0595,-0.038 -0.1522,-0.0731 -0.2041,-0.1236 -0.032,-0.0218 -0.0657,-0.0394 -0.0975,-0.0638 -0.0405,-0.0144 -0.0799,-0.038 -0.1111,-0.0683 l -0.3311,-0.2545 0.009,-0.004 c -1.5684,-2.0755 -4.1179,-5.0822 -4.8787,-6.2362 -0.1588,-0.2211 0.0924,-0.7702 0.2582,-0.8691 0.394,-0.239 0.9204,-0.4918 1.1826,-0.8263 -0.047,-0.2463 -0.934,-0.8096 -1.1928,-1.1376 -0.432,-0.5487 -0.7186,-0.6672 -1.3442,-1.2001 -0.9187,-0.781 -1.3187,-0.9944 -1.4238,-1.6376 -0.0681,-0.4286 1.7702,-1.878 1.8997,-2.7638 0.1421,-0.9658 -1.2231,-1.7878 -0.7389,-2.6337 0.6009,-0.0748 0.9507,-0.3345 1.1063,-0.8555 0.4555,0.163 1.0236,0.885 1.6104,1.4675 0.3801,0.3785 0.7506,0.4658 0.8288,0.9349 0.0162,0.0992 0.0329,0.1998 0.0488,0.2999 -0.7152,0.6727 -1.4054,1.2039 -1.6231,2.3159 -0.0369,0.1899 -0.4269,1.1778 0.0192,1.9947 0.2934,0.5338 -0.1445,1.3961 0.1826,1.787 0.4884,0.5859 1.08,0.8416 1.6004,0.9904 1.4239,-0.0691 1.3862,-1.7821 2.6099,-2.3791 0.8339,0.1228 2.5387,3.4053 2.9665,4.1468 -0.0168,0.0335 -0.0326,0.0672 -0.0497,0.1001 -1.6843,-0.0179 -3.5345,-0.3045 -4.3103,0.7908 0.0966,1.7762 3.1739,1.9999 4.6593,2.4639 1.1112,0.3461 1.2373,1.1566 2.1333,1.4281 1.2972,0.396 5.4865,-3.7692 4.646,-5.2503 -3.1756,-1.2728 -7.8383,-7.0818 -10.1803,-10.1829 0.0159,-0.0663 0.0329,-0.1327 0.0504,-0.201 0.3328,-0.1108 0.3555,-0.2704 0.5026,-0.5522 2.0016,0.0102 4.0785,0.4734 6.2204,0.5851 0.686,0.0371 1.7694,-0.3152 3.5061,-1.4383 1.0625,-0.6874 0.1185,-1.9602 0.1168,-2.4367 -0.2335,-0.7741 -0.9422,-0.8937 -1.9922,-1.7115 -0.6094,-0.4723 -1.6659,-0.8516 -2.51,-1.26 -0.832,-0.4025 -1.4483,-0.8374 -2.4384,-1.2113 -0.7977,-0.301 -2.0931,-1.091 -2.9296,-1.4147 -1.7155,-0.6625 -3.3605,-1.4661 -4.9737,-2.1325 -0.2664,-0.1749 -0.5244,-0.3379 -0.6262,-0.3379 -0.1354,-0.1347 -0.369,-0.1506 -0.5473,-0.1506 v -0.0419 l -0.5774,-0.1624 0.0192,0.0127 c -0.03,0 -0.068,-0.005 -0.1133,-0.0102 -0.1497,-0.0479 -0.2994,-0.0949 -0.4513,-0.1386 -0.2784,-0.0833 -0.5567,-0.1596 -0.8289,-0.2395 -0.2472,-0.1086 -0.4396,-0.2322 -0.4875,-0.3481 h -0.3422 v -0.4649 h 0.9264 v 0.0162 l 0.006,0.002 c 0.369,-0.2818 1.4006,0.447 1.8493,0.447 v 0.0623 l 0.9289,0.3144 c 0.1647,-0.0808 1.0281,0.0865 1.2467,0.0865 0.0915,-0.0916 0.1975,-0.1673 0.3345,-0.1724 v 0 h -0.0253 l 0.2977,-0.2874 v -0.003 c 0.163,0 0.3075,-0.2271 0.464,-0.2682 v -0.1967 c 0.2991,0 0.2378,-0.0159 0.4144,-0.1933 v 0 c 0.0536,-0.0539 0.0488,-0.2016 0.0488,-0.2716 h 0.0419 l 0.3867,-0.4975 0.0354,-0.432 h 0.0612 v -0.4648 h -0.0612 v -0.0774 l -0.464,-0.385 v -0.0346 l -0.4371,-0.432 h -0.0261 l -0.0706,-0.1462 -0.18,-0.3161 h -0.2134 c 0,-0.3195 -0.0876,-0.2537 -0.2934,-0.4649 h -0.1698 v -0.104 c -0.8053,-0.538 -0.9995,-0.5567 -1.7005,-1.1432 -0.1522,-0.1262 -0.3943,-0.3447 -0.5205,-0.5868 -0.1023,-0.1967 -0.0419,-0.3203 -0.0646,-0.5085 -0.0286,-0.2237 -0.0932,-0.5154 0.1304,-0.6103 0.2118,-0.0893 0.7489,0.0731 0.8926,0.1193 h -0.004 c -0.0697,0 0.1176,0.0193 0.1766,0.0496 h -0.0321 c 0.2345,0.003 0.4499,0.1942 0.6758,0.1942 v 0 c 0,0.0201 1.4913,0.5068 2.8574,0.881 1.4516,0.3983 3.4058,0.8135 3.4387,0.832 h -0.0321 c 1.5713,0.0252 1.0979,-0.1134 2.4293,-0.8405 v -0.1202 c 0.2634,0 0.2934,-0.0513 0.4641,-0.2185 v -0.2464 h 0.2488 c 0.2784,-0.3523 1.2232,-0.7531 1.1963,-1.2625 -0.0664,-1.2767 0.1108,-0.8819 -1.103,-1.3349 -0.4666,-0.1732 -1.3986,-0.1757 -1.8678,-0.3044 -0.9816,-0.2622 -1.9216,-0.3747 -2.8732,-0.6429 -1.1219,-0.3169 -2.2334,-0.3464 -3.2402,-0.633 -1.0525,-0.2985 -1.8117,-0.0833 -2.6218,-0.4025 v 0 c 0,0.057 -0.4683,-0.3506 -0.57,-0.3506 -0.1168,-2.6354 0.6205,-7.6972 0.674,-10.2141 0.4567,-1.2002 0.0479,-2.1325 -0.2109,-3.2505 h -0.0487 l -0.0116,-1.239 0.0116,0.0192 c -0.0261,-0.0527 -0.0338,-0.1048 -0.0338,-0.1646 l 0.009,0.0218 -0.3387,-0.9598 h -0.1018 c 0,-0.3606 -0.0218,-0.6381 -0.2982,-0.8399 z M 414.178,595.942 c 0.8918,0.1471 1.0616,-0.3438 1.571,-0.7741 0.2732,-0.2313 0.6261,-0.311 0.8288,-0.6886 0.3203,-0.5992 0.1707,-2.5764 -0.1066,-2.9151 -0.3574,-0.4363 -0.7146,-0.633 -1.1551,-1.0389 -0.2049,-0.343 -0.411,-0.6877 -0.6162,-1.0315 -0.711,-1.1895 -3.6179,0.1162 -4.0136,1.2223 0.3067,1.0128 1.0936,1.5726 1.7138,2.3941 0.3195,0.4209 0.3305,0.9791 0.6027,1.4289 0.2874,0.4732 0.8365,0.976 1.1752,1.4029"
       style="fill:#004b9d;fill-opacity:1;fill-rule:evenodd;stroke:none"
       id="path120" />
    <path
       d="m 186.4227,614.2864 c 1.2272,0.1188 2.465,0.1196 3.6924,0.002 l 0.8414,2.38 0.0374,-0.005 c 1.9783,-0.246 3.9149,-0.7676 5.7535,-1.5378 l 0.0348,-0.0144 -0.4631,-2.4897 c 1.1208,-0.5119 2.1923,-1.1305 3.1963,-1.8451 l 1.9202,1.6419 0.03,-0.023 c 1.55,-1.1721 2.9367,-2.5549 4.1222,-4.0944 l 0.0326,-0.0425 h -1.7207 l 0.0511,0.0595 c -0.7192,0.8451 -1.5061,1.632 -2.3511,2.3514 l -1.8983,-1.6229 -0.0301,0.0244 c -1.4768,1.1945 -3.1362,2.1501 -4.9062,2.8375 l -0.0366,0.0139 0.457,2.4571 c -1.0449,0.3727 -2.1201,0.6602 -3.2117,0.8589 l -0.8331,-2.3568 -0.0385,0.006 c -0.9366,0.1508 -1.8853,0.2211 -2.8338,0.2211 -0.9485,0 -1.8973,-0.0703 -2.8341,-0.2211 l -0.0386,-0.006 -0.8328,2.3568 c -1.0913,-0.1987 -2.1665,-0.4859 -3.2113,-0.8586 l 0.4566,-2.4574 -0.0363,-0.0139 c -1.7699,-0.6874 -3.4296,-1.643 -4.9062,-2.8375 l -0.0303,-0.0244 -1.8981,1.6226 c -0.845,-0.7191 -1.6319,-1.506 -2.3513,-2.3508 l 0.051,-0.0598 h -1.7206 l 0.0326,0.0425 c 1.1857,1.5395 2.5721,2.9223 4.1221,4.0944 l 0.0303,0.023 1.9171,-1.6393 c 1.0043,0.7152 2.077,1.3331 3.1992,1.8439 l -0.4629,2.4883 0.0349,0.0144 c 1.8385,0.7702 3.7752,1.2918 5.7534,1.5378 l 0.0375,0.005 0.8421,-2.3823 z"
       style="fill:#004b9d;fill-opacity:1;fill-rule:evenodd;stroke:none"
       id="path174" />
    <path
       d="m 188.2684,611.8424 c 3.905,0 7.499,-1.328 10.3566,-3.5569 h -1.0661 c -2.6317,1.8419 -5.8345,2.9236 -9.2905,2.9236 -3.456,0 -6.6589,-1.0817 -9.2906,-2.9236 h -1.0661 c 2.8576,2.2289 6.452,3.5569 10.3567,3.5569"
       style="fill:#004b9d;fill-opacity:1;fill-rule:evenodd;stroke:none"
       id="path176" />
    <path
       d="m 209.8276,603.1148 c 1.277,-1.4241 2.1109,-3.1283 2.0792,-5.5701 0.6511,0.5086 0.8898,2.6388 2.0163,3.4396 0.2698,-3.02 -0.8975,-5.1783 -2.7264,-7.1034 -0.127,1.9353 -1.6447,0.7263 -2.065,5.4754 0.7647,-0.4441 0.7886,-1.6406 1.9604,-2.2969 -1.3538,2.4409 -1.2212,3.5853 -1.2645,6.0554 z m -3.6219,-23.404 c 0.0199,-0.265 0.0576,-0.5241 0.0842,-0.6701 -0.682,-0.1981 -1.3479,-0.4544 -1.9786,-0.8816 0.982,1.272 1.3618,3.2094 1.1413,4.5944 -1.6093,-2.2722 -3.8407,-4.0322 -3.6224,-6.5191 -0.0196,-0.155 -0.0142,-0.4425 -0.006,-0.6655 -0.7877,-0.235 -1.5347,-0.586 -2.2561,-1.1634 -0.1352,-0.108 -0.3067,-0.3226 -0.3387,-0.2766 -0.0321,0.0462 0.1581,0.2417 0.2746,0.3903 0.9151,1.1664 1.4976,2.7493 2.0095,3.9863 -3.4146,-2.6305 -4.3166,-2.5268 -6.1095,-4.799 -0.5097,-0.6457 -2.7762,-1.1115 -3.5121,-1.258 -0.1755,-0.0352 -0.1749,-0.2753 -0.006,-0.2605 0.8365,0.0728 2.3374,-0.027 2.9117,-0.2472 2.9863,-1.1449 5.3189,-0.5406 8.4368,1.1185 -1.6416,-0.1428 -3.2857,-0.0442 -4.9323,0.413 0.2713,0.0902 0.5298,0.3362 0.8144,0.2708 3.5697,-0.821 6.0505,0.5156 8.4974,3.0764 -2.124,-0.5406 -3.7672,-0.7339 -5.4079,-1.1461 l 0.002,0.008 c 0.104,0.3146 0.5976,0.551 0.5987,0.5516 2.4409,1.0644 5.1236,0.1182 7.6439,4.2114 -1.273,-0.7934 -2.5835,-0.9762 -3.8829,-1.3288 0.003,0.2026 -0.019,0.4578 0.1208,0.7129 1.8603,1.8099 4.2193,1.0253 6.5253,6.1234 -1.1829,-0.1653 -2.3805,-1.1705 -3.401,-1.9335 0.0714,0.2602 0.2089,0.6037 0.377,0.9085 2.0075,1.7776 3.9651,3.1073 4.2727,5.9609 -0.6353,-0.6389 -1.7198,-1.2784 -2.5237,-1.7424 1.4411,2.1603 2.8224,4.6465 2.5308,7.8012 -0.5661,-2.5962 -2.1626,-2.8922 -3.0841,-4.8733 -0.5199,1.5194 -1.1047,2.3596 -1.9327,3.3412 -0.2344,-4.4487 1.4749,-4.28 1.6203,-7.4852 l -0.6426,-0.506 c 0.002,1.5444 -0.5363,3.1258 -1.3111,4.415 -0.1088,-2.3306 -1.0057,-5.1202 0.3822,-7.0965 0.1182,-0.396 0.1034,-0.7076 0.0688,-0.9026 -0.5368,-0.3898 -1.0119,-0.6851 -1.3909,-0.7146 0.2361,1.3569 0.2344,2.8894 -0.2937,4.2613 -0.3657,-2.4939 -2.0715,-4.4983 -1.6804,-7.6751"
       style="fill:#004b9d;fill-opacity:1;fill-rule:evenodd;stroke:none"
       id="path178" />
    <path
       d="m 166.7092,603.1148 c -1.277,-1.4241 -2.111,-3.1283 -2.0792,-5.5701 -0.6511,0.5086 -0.8898,2.6388 -2.0163,3.4396 -0.2696,-3.02 0.8974,-5.1783 2.7264,-7.1034 0.127,1.9353 1.6446,0.7263 2.065,5.4754 -0.7648,-0.4441 -0.7886,-1.6406 -1.9604,-2.2969 1.3538,2.4409 1.2211,3.5853 1.2645,6.0554 z m 3.6218,-23.404 c -0.0198,-0.265 -0.0575,-0.5241 -0.0842,-0.6701 0.6821,-0.1981 1.3479,-0.4544 1.9789,-0.8816 -0.9822,1.272 -1.362,3.2094 -1.1415,4.5944 1.6092,-2.2722 3.8407,-4.0322 3.6224,-6.5191 0.0195,-0.155 0.0142,-0.4425 0.006,-0.6655 0.7877,-0.235 1.5349,-0.586 2.256,-1.1634 0.1353,-0.108 0.3068,-0.3226 0.3388,-0.2766 0.032,0.0462 -0.1582,0.2417 -0.2747,0.3903 -0.915,1.1664 -1.4975,2.7493 -2.0095,3.9863 3.4149,-2.6305 4.3166,-2.5268 6.1095,-4.799 0.5097,-0.6457 2.7763,-1.1115 3.5122,-1.258 0.1754,-0.0352 0.1751,-0.2753 0.007,-0.2605 -0.8365,0.0728 -2.3372,-0.027 -2.9118,-0.2472 -2.9863,-1.1449 -5.3189,-0.5406 -8.4367,1.1185 1.6418,-0.1428 3.2856,-0.0442 4.9323,0.413 -0.2713,0.0902 -0.5298,0.3362 -0.8144,0.2708 -3.5697,-0.821 -6.0506,0.5156 -8.4974,3.0764 2.124,-0.5406 3.7672,-0.7339 5.4082,-1.1461 l -0.003,0.008 c -0.104,0.3146 -0.5975,0.551 -0.5986,0.5516 -2.4409,1.0644 -5.1237,0.1182 -7.6439,4.2114 1.273,-0.7934 2.5835,-0.9762 3.8829,-1.3288 -0.003,0.2026 0.0189,0.4578 -0.1208,0.7129 -1.8604,1.8099 -4.2194,1.0253 -6.5254,6.1234 1.1832,-0.1653 2.3806,-1.1705 3.4011,-1.9335 -0.0715,0.2602 -0.209,0.6037 -0.3771,0.9085 -2.0075,1.7776 -3.9651,3.1073 -4.2726,5.9609 0.6352,-0.6389 1.7198,-1.2784 2.5237,-1.7424 -1.4412,2.1603 -2.8225,4.6465 -2.5308,7.8012 0.5661,-2.5962 2.1625,-2.8922 3.0841,-4.8733 0.5199,1.5194 1.1047,2.3596 1.9327,3.3412 0.2344,-4.4487 -1.4749,-4.28 -1.62,-7.4852 l 0.6423,-0.506 c -0.002,1.5444 0.5363,3.1258 1.311,4.415 0.1089,-2.3306 1.006,-5.1202 -0.3818,-7.0965 -0.1182,-0.396 -0.1035,-0.7076 -0.0689,-0.9026 0.5366,-0.3898 1.012,-0.6851 1.3907,-0.7146 -0.2361,1.3569 -0.2344,2.8894 0.2936,4.2613 0.3657,-2.4939 2.0716,-4.4983 1.6804,-7.6751"
       style="fill:#004b9d;fill-opacity:1;fill-rule:evenodd;stroke:none"
       id="path180" />
    <path
       d="m 188.2704,572.0219 1.1885,2.0588 h -2.3771 z m 23.127,36.2636 -23.127,-40.0641 -23.131,40.0641 c 15.4193,0 30.8386,0 46.258,0 z m -23.1438,-28.5041 -1.0973,1.9004 h -3.2788 l -0.5921,-1.0259 0.5051,-0.8745 z m -1.4629,2.5336 -1.2739,2.2062 -1.2736,-2.2062 z m -4.0102,0 1.097,1.9004 h -2.6473 l 1.0973,-1.9004 z m 1.4627,2.5339 0.5422,0.9391 -0.5547,0.961 h -2.9319 l -0.7656,-1.3261 0.3317,-0.574 z m -0.3782,2.5336 -1.0973,1.9001 h -0.006 l -1.0973,-1.9001 h 2.2005 z m -3.6632,0 1.097,1.9001 h -2.9942 l 1.0973,-1.9001 v 0 z m 1.4627,2.5336 1.0973,1.9004 h -5.9199 l 1.0973,-1.9004 z m 1.1035,1.9004 1.097,-1.9004 h 3.3038 l 1.0973,1.9004 z m 1.4627,-2.5339 1.2864,-2.2278 1.286,2.2278 z m 4.0414,2.5339 1.0973,-1.9004 h 3.3037 l 1.097,1.9004 z m 1.4629,-2.5339 1.2864,-2.2278 1.2861,2.2278 z m 4.0414,2.5339 1.097,-1.9004 h 3.7281 l 1.0973,1.9004 z m 1.4629,-2.5339 1.097,-1.9001 v 0 h 0.8025 l 1.097,1.9001 z m 0.7668,-3.8619 -0.7668,1.3283 h -2.9318 l -0.5548,-0.961 0.542,-0.9391 h 3.3812 z m -1.1327,1.9618 -1.097,1.9001 h -0.006 l -1.097,-1.9001 h 2.2003 z m -2.2127,-3.1671 1.097,-1.9004 h 0.4555 l 1.097,1.9004 z m 0.5933,-3.5615 -0.5933,1.0279 h -3.2789 l -1.0973,-1.9004 h 4.4657 z m -0.9593,1.6611 -1.2733,2.2062 -1.2739,-2.2062 z m -6.0463,3.473 0.5423,-0.9391 h 2.9568 l 0.5423,0.9391 -0.5548,0.961 h -2.9319 z m 0.9079,-1.5726 1.0973,-1.9004 h 0.0309 l 1.0973,1.9004 z m 2.2131,3.1671 -1.0973,1.9001 h -0.006 l -1.0973,-1.9001 z m -20.9387,19.0026 H 208.11 l -4.3886,-7.6011 H 172.819 Z m 5.4856,-9.5011 h 28.7081 l -1.0973,-1.9004 h -26.5138 z m 15.9083,-22.1701 1.0973,1.9004 h -5.3031 l 1.0973,-1.9004 z m 1.4627,2.5336 1.0973,1.9004 h -8.2284 l 1.0972,-1.9004 z m 8.7769,15.2022 h -23.5879 l -1.0973,1.9004 h 25.7825 z"
       style="fill:#004b9d;fill-opacity:1;fill-rule:evenodd;stroke:none"
       id="path182" />
    <path
       d="m 188.2684,637.4435 c 23.4479,0 42.4559,-19.008 42.4559,-42.4559 0,-23.4479 -19.008,-42.4559 -42.4559,-42.4559 -23.4479,0 -42.4559,19.008 -42.4559,42.4559 0,23.4479 19.008,42.4559 42.4559,42.4559 z m 0,-2.5336 c -22.0493,0 -39.9223,-17.873 -39.9223,-39.9223 0,-22.0493 17.873,-39.9223 39.9223,-39.9223 22.0493,0 39.9223,17.873 39.9223,39.9223 0,22.0493 -17.873,39.9223 -39.9223,39.9223"
       style="fill:#004b9d;fill-opacity:1;fill-rule:evenodd;stroke:none"
       id="path184" />
    <path
       d="m 196.4234,625.2231 c -0.1316,-0.4459 -0.2631,-0.76 -0.3203,-1.1163 -0.0219,-0.1412 0.9059,0.0938 0.9963,0.1037 0.0105,10e-4 0.0207,0.002 0.0306,0.003 0.0134,0.004 0.0267,0.007 0.0403,0.0102 0.1661,0.0397 0.3441,0.0561 0.5122,0.1032 l 0.4281,0.1397 0.0762,0.0303 0.085,0.0272 c 0.0278,0.0114 0.0681,0.0363 0.0701,0.0684 0.002,0.032 -0.002,0.0643 10e-4,0.0912 0.003,0.0278 -0.0335,0.0377 -9e-4,0.0559 0.0287,0.006 -0.0377,0.0791 0.0548,0.0578 l 0.0663,-0.0306 0.055,-0.0295 c 0.0459,-0.0298 0.0904,-0.0836 0.1287,-0.1253 0.0629,-0.0697 0.1148,-0.1292 0.1471,-0.2035 0.0258,-0.0581 0.0697,-0.2152 0.0726,-0.2758 l -0.007,-0.003 -0.003,-0.0377 c 0.004,-0.01 -0.0581,-0.1576 -0.0632,-0.1604 -5e-4,-0.0306 -0.015,-0.0782 -0.0473,-0.091 l 0.002,-0.005 c -0.0394,-0.0334 -0.0586,-0.0195 -0.1091,-0.0422 -0.021,-0.0777 -0.2458,-0.1352 -0.3078,-0.1304 -0.005,0.0111 -0.3614,-0.0587 -0.6829,-0.1083 -0.4674,-0.1023 -0.9524,-0.1706 -1.2217,-0.2126 l -0.0275,-0.011 -0.0131,0.004 c -0.0413,-0.006 -0.0762,-0.0116 -0.104,-0.017 -0.0731,-0.0136 -0.2285,-0.0159 -0.2072,-0.0873 0.0465,-0.1616 0.005,-0.3356 0.191,-0.6846 0.055,-0.1009 0.1112,-0.4898 0.1554,-0.629 0.0533,-0.167 0.1616,-0.4833 0.2211,-0.6429 0.0513,-0.1372 0.1502,-0.3308 0.2126,-0.4737 0.0453,-0.1051 0.0762,-0.2196 0.1256,-0.3203 0.1357,-0.2764 0.2355,-0.4359 0.4002,-0.646 0.0547,-0.0692 0.1534,-0.1984 0.2115,-0.2579 0.0581,-0.0587 0.1437,-0.1327 0.2041,-0.1826 0.1377,-0.1137 0.3115,-0.197 0.449,-0.2716 0.2472,-0.1343 0.4487,-0.2216 0.6148,-0.2729 0.0808,-0.0244 0.1809,-0.0471 0.2271,-0.0644 0.1173,-0.0442 0.0711,-0.0691 -0.1755,-0.1241 -0.1514,-0.0335 -0.4,-0.1205 -0.7447,-0.1418 -0.1201,-0.007 -0.2865,-0.009 -0.4303,-0.036 -0.17,-0.032 -0.3974,0.0658 -0.5502,0.1557 -0.1715,0.1006 -0.2744,0.1627 -0.4141,0.3523 -0.0626,0.0839 -0.1134,0.2169 -0.1678,0.3087 -0.1857,0.3138 -0.3373,0.5828 -0.4074,0.8283 -0.0711,0.2242 -0.1196,0.4977 -0.1748,0.6794 -0.1693,0.5545 -0.2759,0.9227 -0.3847,1.1892 -0.0371,0.0904 -0.0442,0.1196 -0.11,0.1324 -0.0556,0.0107 -0.0745,-0.0499 -0.0901,-0.0749 -0.1602,-0.2455 -0.2809,-0.542 -0.4553,-0.7874 -0.1533,-0.2152 -0.356,-0.383 -0.5454,-0.5588 -0.2369,-0.2191 -0.4969,-0.413 -0.8631,-0.4665 -0.1148,-0.0159 -0.2798,-0.0145 -0.4108,-0.009 -0.2372,0.009 -0.4923,0.0981 -0.8404,0.1738 -0.3691,0.0805 -0.9882,0.1341 -1.3748,0.2647 -0.3824,0.129 -0.4065,0.2007 -0.2092,0.2849 0.4467,0.01 1.5205,-0.0108 1.9363,0.0519 0.4003,0.0592 0.7047,0.2185 1.0398,0.4708 0.1678,0.1264 0.2919,0.286 0.4425,0.468 0.1201,0.1446 0.2959,0.3538 0.3546,0.5463 0.0357,0.0209 0.1766,0.2741 0.3055,0.5462 -0.1014,-0.008 -0.193,0.003 -0.2741,-0.009 -0.1496,-0.0213 -0.263,-0.017 -0.3577,-0.0371 -0.1888,-0.0403 -0.2869,-0.0956 -0.3433,-0.1021 -0.0975,-0.0108 -0.1105,-0.0113 -0.2338,-0.0266 -0.0961,-0.0122 -0.1063,-0.0587 -0.2027,-0.0743 -0.0913,-0.0147 -0.0972,-0.0207 -0.167,-0.0473 -0.0473,-0.0176 -0.1204,-0.0222 -0.1411,-0.0479 -0.1032,-0.0854 -0.2288,-0.0542 -0.313,-0.1061 -0.0822,-0.007 -0.2503,0.0542 -0.3129,0.1783 -0.001,0.003 -0.0649,0.1525 -0.0715,0.1681 -0.0456,0.1089 -0.0952,0.1882 -0.1029,0.1908 0.007,0.2769 0.239,0.3753 0.4006,0.4014 l 0.2988,0.0485 c 0.1675,-0.0168 0.3863,0.064 0.6723,0.1142 0.3787,0.066 0.8323,0.0641 1.2439,0.1729 0.0825,0.0216 0.1536,0.0405 0.2168,0.0564 0.0754,0.1899 0.1633,0.3966 0.2517,0.6149 0.1565,0.6063 0.6974,2.0324 0.8765,2.8712 l 0.157,0.9992 -0.0136,0.002 c 0.0202,0.127 -0.1346,0.3194 -0.1165,0.4371 v 0 l 0.0139,-0.0187 c 0.004,0.0261 0.009,0.0448 -0.004,0.0706 l 0.001,10e-4 0.005,-0.008 c 0.011,0.0723 0.0603,0.1418 0.1185,0.1829 l 0.0912,-0.009 -0.004,8e-4 c 0.2367,-0.0343 0.4802,-0.1457 0.693,-0.2398 l -0.002,-0.0113 0.0445,-0.0315 c 0.0159,-0.003 0.0434,-0.0584 0.0443,-0.0796 0.0425,-0.0182 0.0856,-0.0598 0.085,-0.1089 0.0377,-0.0238 0.0862,-0.0771 0.0782,-0.1267 l 0.008,-0.001 c 0.012,-0.074 0.0613,-0.0947 0.0528,-0.1749 0.081,-0.0842 -0.0927,-0.3705 -0.1454,-0.4445 l -0.0165,0.002 c -0.019,-0.1205 -0.0743,-0.288 -0.1485,-0.3858 l -0.0533,-0.1395 c 6e-4,0 -0.009,-0.019 -0.0111,-0.0272 -0.2233,-0.4549 -0.5354,-1.4797 -0.7217,-2.0696 l 0.008,-0.002 z"
       style="fill:#004b9d;fill-opacity:1;fill-rule:evenodd;stroke:none"
       id="path188" />
    <path
       d="m 206.9578,620.7324 c 0.1661,-0.0961 0.127,-0.199 0.1522,-0.3382 0.0139,-0.0739 0.0609,-0.1343 0.0431,-0.2231 -0.0281,-0.1408 -0.3184,-0.4436 -0.4091,-0.4617 -0.117,-0.023 -0.2018,-0.007 -0.3282,-0.0145 -0.0797,-0.028 -0.1593,-0.0569 -0.2393,-0.0853 -0.2755,-0.0992 -0.5745,0.5049 -0.4906,0.7381 0.1862,0.1245 0.3894,0.1103 0.6012,0.1608 0.1086,0.0258 0.1857,0.1156 0.2903,0.1525 0.1102,0.0385 0.2678,0.0473 0.3804,0.0714 z m 7.1475,0.5746 c -0.5346,-0.1279 -1.2311,-0.2384 -1.51,-0.3243 -0.0553,-0.015 -0.0884,-0.1383 -0.0748,-0.1766 0.0323,-0.0924 0.0842,-0.2044 0.0822,-0.2939 -0.0408,-0.0338 -0.2614,-0.007 -0.3476,-0.0256 -0.1437,-0.0317 -0.2066,-0.0127 -0.3812,-0.0155 -0.2543,-0.004 -0.3478,0.0144 -0.4519,-0.0763 -0.0688,-0.0604 0.0366,-0.5437 -0.0609,-0.7061 -0.1066,-0.1766 -0.4394,-0.1273 -0.4742,-0.3305 0.0878,-0.0927 0.1108,-0.182 0.0657,-0.2886 0.0958,-0.0346 0.2858,0.007 0.4598,0.0238 0.1128,0.0105 0.1848,-0.0249 0.2611,0.0411 0.0156,0.0142 0.0323,0.0284 0.0482,0.0423 -0.0267,0.2058 -0.0683,0.3849 0.0462,0.5961 0.019,0.0363 0.0881,0.2494 0.2712,0.3228 0.1191,0.0477 0.1639,0.2475 0.2688,0.2671 0.159,0.0303 0.2897,-0.007 0.3948,-0.0533 0.2234,-0.2018 -0.0127,-0.4765 0.1063,-0.7382 0.1528,-0.0921 0.872,0.2141 1.0412,0.2781 0.002,0.008 0.004,0.0159 0.005,0.023 -0.2772,0.2231 -0.618,0.4249 -0.5976,0.7081 0.2546,0.2766 0.7869,-0.0998 1.0917,-0.2242 0.2279,-0.0927 0.3571,0.0235 0.5403,-0.0531 0.2653,-0.1099 0.3891,-1.3521 0.053,-1.4808 -0.6894,0.2189 -2.2306,-0.1032 -3.0294,-0.2945 -0.006,-0.0139 -0.0125,-0.0266 -0.0185,-0.0397 0.0392,-0.0632 0.0213,-0.0924 0.007,-0.1579 0.3283,-0.2676 0.7297,-0.4705 1.0945,-0.7401 0.1165,-0.0865 0.2463,-0.2888 0.3787,-0.7055 0.0813,-0.2552 -0.2444,-0.3362 -0.3081,-0.4133 -0.1423,-0.0956 -0.2742,-0.0199 -0.5551,-0.0117 -0.163,0.004 -0.3866,0.0848 -0.5791,0.131 -0.1902,0.0462 -0.3486,0.0581 -0.561,0.1301 -0.1703,0.0581 -0.4878,0.1029 -0.6681,0.1624 -0.3685,0.1222 -0.7452,0.2124 -1.0978,0.3198 -0.0672,0.007 -0.131,0.0156 -0.148,0.0289 -0.0397,-0.003 -0.0802,0.0252 -0.1094,0.0493 l -0.006,-0.007 -0.1159,0.0519 0.005,-10e-4 c -0.005,0.004 -0.0119,0.009 -0.0196,0.0139 -0.0317,0.0125 -0.0623,0.0244 -0.0927,0.0377 -0.0569,0.0238 -0.1122,0.0487 -0.1675,0.0726 -0.0553,0.0153 -0.1026,0.0212 -0.1267,0.008 l -0.0558,0.0459 -0.0624,-0.0757 0.1514,-0.1244 0.002,0.003 9e-4,-6e-4 c 0.0224,-0.0955 0.2882,-0.1156 0.3614,-0.1757 l 0.009,0.0105 0.1936,-0.0734 c 0.0164,-0.0352 0.1797,-0.1239 0.2154,-0.1528 0.003,-0.0278 0.01,-0.0542 0.0318,-0.0737 v 0 l -0.004,0.004 0.01,-0.0873 -2e-4,-0.001 c 0.0266,-0.0215 0.0195,-0.078 0.0399,-0.1054 l -0.0266,-0.0324 c 0.0487,-0.0402 0.0368,-0.0345 0.0419,-0.0876 v 0 c 10e-4,-0.0153 -0.019,-0.0388 -0.0289,-0.0507 l 0.007,-0.005 -0.004,-0.1326 -0.0521,-0.0757 0.01,-0.008 -0.0624,-0.0759 -0.01,0.008 -0.0105,-0.0128 -0.1278,-8e-4 -0.005,-0.006 -0.1289,-0.011 -0.005,0.003 -0.0314,-0.0142 -0.0715,-0.0278 -0.0354,0.0287 c -0.0425,-0.0522 -0.0476,-0.0295 -0.11,-0.0363 l -0.0278,0.0229 -0.0139,-0.0173 c -0.2035,0.0204 -0.2381,0.0437 -0.4311,0.042 -0.0414,-9e-4 -0.1106,-0.003 -0.1639,-0.0261 -0.0428,-0.0181 -0.0496,-0.0462 -0.0788,-0.0745 -0.0343,-0.0326 -0.0841,-0.0715 -0.0606,-0.1171 0.0224,-0.0422 0.1318,-0.0884 0.1621,-0.0995 l -8e-4,3e-4 c -0.0116,0.009 0.0215,-0.0125 0.0357,-0.0162 l -0.005,0.004 c 0.0386,-0.0309 0.0995,-0.0287 0.1364,-0.059 v 0 c 0.003,0.004 0.3112,-0.1173 0.5845,-0.2395 0.2905,-0.1304 0.6655,-0.3249 0.6732,-0.3266 l -0.006,0.005 c 0.2602,-0.2072 0.1644,-0.1664 0.2835,-0.4635 l -0.0153,-0.0196 c 0.0425,-0.0357 0.0405,-0.0479 0.0456,-0.0977 l -0.0329,-0.0403 0.0411,-0.0337 c -0.002,-0.0947 0.0981,-0.2872 0.0253,-0.3668 -0.182,-0.1999 -0.1004,-0.1585 -0.3595,-0.0692 -0.0995,0.0337 -0.2517,0.1585 -0.345,0.2007 -0.1955,0.0887 -0.3645,0.1967 -0.5558,0.2809 -0.2257,0.0989 -0.411,0.2435 -0.6137,0.3319 -0.2121,0.0927 -0.3073,0.2296 -0.4825,0.2866 v 0 c 0.007,0.009 -0.1236,0.006 -0.14,0.0193 -0.3725,-0.4144 -0.9326,-1.3399 -1.2617,-1.7583 -0.0865,-0.2563 -0.2787,-0.3535 -0.4714,-0.5018 l -0.008,0.006 -0.168,-0.2004 0.004,0.002 c -0.0119,-0.006 -0.0199,-0.0124 -0.0278,-0.0223 l 0.005,0.002 -0.1839,-0.1106 -0.0165,0.0133 c -0.0538,-0.0652 -0.1179,-0.1281 -0.1547,-0.0938 -0.1012,0.0958 -0.4062,0.3804 -0.7175,0.6576 l 0.002,0.007 -0.053,0.1588 0.0147,0.0181 -0.0399,0.0326 c -0.003,0.0303 -0.0678,0.1449 -0.0491,0.1678 l -0.004,0.003 c -0.003,0.0399 -0.059,0.1655 -0.0868,0.195 l 0.002,0.002 -0.0515,0.083 c 0,0 -0.0998,0.1228 -0.1046,0.1729 v 0 c -0.0179,0.1874 -0.0834,0.7495 -0.2234,0.8654 0.001,0.0247 -0.009,0.0477 -0.0278,0.0633 l 6e-4,-3e-4 -0.0403,0.1865 0.0335,0.0584 -0.0516,0.0547 c 0.002,0.0105 0.004,0.0198 0.007,0.0306 0.0816,0.0156 0.2182,-0.1531 0.4232,-0.3696 0.1307,-0.1384 0.2704,-0.2251 0.4087,-0.3759 0.1078,-0.1174 0.169,-0.2699 0.2569,-0.3787 0.0623,-0.0782 0.1125,-0.1429 0.1655,-0.1837 0.034,-0.0255 0.0811,-0.038 0.0952,-0.0496 0.0156,0.0196 0.0312,0.0391 0.0482,0.0601 0.2104,0.2721 0.4652,0.6919 0.6378,0.9156 0.1508,0.1959 0.3807,0.4739 0.5913,0.7007 -0.2018,0.1658 -1.5953,0.7211 -1.6611,0.6928 l 0.0216,0.01 c -0.1789,0.1469 -0.6381,0.2441 -0.6636,0.5326 v -2e-4 c -0.0114,-0.005 -0.005,0.0246 -0.0122,0.0348 l 0.008,0.0102 c -0.0598,0.0494 -0.068,0.1185 -0.108,0.1783 l 0.0187,0.0224 c -0.0473,0.0414 -0.1446,0.2872 -0.1026,0.3385 l -3e-4,5e-4 -0.0198,0.129 0.007,0.009 -0.0286,0.0584 v 0 c -0.0176,-0.0221 -0.003,0.0573 0.015,0.0794 l -0.0167,0.0139 c -0.002,0.0266 -0.002,0.0397 -0.0136,0.0654 0.0306,0.0239 0.0955,0.1611 0.1485,0.1489 0.125,0.1511 0.3637,-0.1503 0.4737,-0.15 0.517,-0.2557 0.4604,-0.3452 0.8952,-0.5638 0.4816,-0.2421 1.1069,-0.5868 1.182,-0.6486 l 0.0383,-0.0178 v 0 c 0.095,-0.0788 0.4275,-0.1593 0.6299,-0.1644 0.2395,-0.005 0.3568,0.1536 0.4847,0.246 l 0.0921,0.008 c 0.0692,0.0113 0.1332,0.0431 0.1899,0.0978 l 0.1531,0.1284 c -0.1389,0.1145 -0.2021,0.2591 -0.3314,0.3685 l 0.001,-3e-4 -0.0706,0.0709 0.009,0.0107 c -0.1545,0.1273 -0.2855,0.1905 -0.3206,0.3816 l 0.005,0.005 -0.007,0.006 0.0417,0.1242 c 0.0379,-0.008 0.1505,0.002 0.1805,0.0278 0.0431,-0.0233 0.2112,-0.0516 0.2534,-0.0477 v 0 c 0.0304,0.004 0.063,-0.0391 0.0834,-0.0555 l 0.032,0.0377 -6e-4,6e-4 v 0 c 0.0817,-0.0664 0.4714,-0.0375 0.5707,-0.0256 l 0.0258,-0.0212 0.0144,0.0173 c 0.0621,-0.0207 0.1216,-0.0185 0.1752,-0.0496 0.0133,8e-4 0.0264,10e-4 0.0394,0.002 l 0.005,0.006 0.0258,-0.004 c 0.0635,0.005 0.1281,0.0128 0.1925,0.013 0.0694,-2e-4 0.144,-0.0266 0.2058,-0.0411 0.8722,-0.206 1.7903,-0.2874 2.5925,-0.307 0.007,0.008 0.0136,0.0162 0.0204,0.0247 -2e-4,0.005 -5e-4,0.01 -0.001,0.0147 -0.561,0.4885 -1.5253,0.6801 -2.2277,0.9236 -0.4604,0.1596 -1.0324,0.3662 -1.4295,0.506 -0.0599,0.009 -0.1304,0.0516 -0.2007,0.1131 v 0 c -0.0102,0.006 -0.0207,0.0102 -0.0312,0.0124 -0.0133,0.0105 -0.0258,0.0182 -0.0465,0.0196 -0.005,0.002 -0.0108,0.003 -0.0167,0.004 -0.01,0.007 -0.0267,0.015 -0.038,0.0181 -0.006,0.004 -0.0119,0.007 -0.0199,0.01 -0.009,0.007 -0.0161,0.0133 -0.0275,0.0182 l -0.1814,0.1496 -0.0113,-0.0147 c -0.0264,0.0224 -0.0488,0.0439 -0.0794,0.0592 l -0.093,0.0771 c -0.005,0.005 -0.01,0.0114 -0.0141,0.0162 -0.007,0.0227 -0.0187,0.0377 -0.0363,0.0524 l 0.001,0.002 -0.3421,0.281 c -0.003,0.009 -0.009,0.0167 -0.0156,0.0238 -0.003,0.0102 -0.01,0.0198 -0.0179,0.0283 -0.006,0.0156 -0.0147,0.0354 -0.0246,0.0468 -0.002,0.0193 -0.0111,0.0377 -0.0272,0.051 v 0 l 0.0161,-0.013 c -6e-4,0.009 -0.001,0.0181 -0.004,0.0275 l 0.0131,0.0161 -6e-4,6e-4 0.0882,0.1074 c 0.007,0.008 0.0113,0.017 0.0142,0.0255 0.006,0.007 0.01,0.0151 0.0127,0.0238 l 0.0448,0.0542 -0.0255,-0.002 v 0 c 0.0147,0.001 0.0292,0.007 0.0417,0.0167 0.005,0.003 0.0107,0.005 0.0164,0.008 h 3e-4 c 0.0136,0.0162 0.0541,0.0164 0.0725,0.0181 v 0 c 0.005,6e-4 0.0216,-0.004 0.0315,-0.004 0.0142,-0.003 0.0306,-0.006 0.0454,-0.006 l 0.0703,-0.0579 0.0297,0.036 c 0.009,-0.001 0.019,-0.001 0.0284,3e-4 0.01,-0.005 0.0207,-0.007 0.0326,-0.008 0.008,-0.005 0.0218,-0.0103 0.0306,-0.0131 0.008,-0.007 0.017,-0.013 0.028,-0.0161 0.0154,-0.0128 0.0332,-0.0301 0.0519,-0.0366 0.005,-0.004 0.0105,-0.008 0.0159,-0.0108 l 0.0799,-0.0663 0.0176,0.0218 c 0.006,-0.003 0.0133,-0.005 0.0227,-0.007 0.0136,-0.009 0.0485,-0.0212 0.0655,-0.0249 0.0107,-0.005 0.0226,-0.009 0.0357,-0.009 0.0105,-0.005 0.0232,-0.008 0.0363,-0.008 0.0201,-0.005 0.0255,-0.01 0.0416,-0.0233 l 0.008,0.01 c 0.007,-10e-4 0.0144,-0.002 0.0215,-0.002 0.009,-0.003 0.0176,-0.005 0.027,-0.005 0.0113,-0.006 0.0246,-0.009 0.0385,-0.008 0.0122,-0.004 0.0204,-0.008 0.0335,-0.0111 0.0119,-0.006 0.0252,-0.009 0.0391,-0.008 0.008,-0.003 0.0173,-0.004 0.0252,-0.006 0.009,-0.007 0.0181,-0.0125 0.0269,-0.0202 l 0.003,0.004 c 0.008,-0.002 0.0159,-0.003 0.0235,-0.003 0.008,-0.004 0.0182,-0.007 0.0284,-0.008 0.008,-0.003 0.0192,-0.008 0.0269,-0.009 0.019,-0.005 0.0363,-0.0161 0.0578,-0.0164 0.007,-0.005 0.015,-0.007 0.0235,-0.01 0.0528,-0.0104 0.1046,-0.0215 0.1545,-0.0292 0.6512,-0.0986 1.3757,-0.7786 1.8428,0.1134 -0.0133,0.0618 0.0304,0.2872 -0.064,0.3158 -0.1381,-0.005 -0.3614,-0.0408 -0.4989,-0.0465 -0.1338,0.007 -0.4238,-0.0246 -0.6248,0.0267 -0.0836,0.0212 -0.1576,0.0456 -0.208,0.0722 -3e-4,0.005 -0.001,0.0103 -0.001,0.0151 0.0547,0.0677 0.1174,0.1488 0.1888,0.1967 0.3107,0.2066 0.7555,0.2347 1.0931,0.3234 -0.0213,0.1052 -0.0607,0.2435 -0.0695,0.385 -0.0167,0.2704 -0.1956,0.0748 -0.3396,0.1077 -0.1443,0.0334 0.0513,-0.0417 0.002,-0.2061 -0.0499,-0.165 -0.4612,-0.1857 -0.5709,-0.2154 -0.1105,-0.0295 -0.2103,0.0357 -0.3044,-0.0581 -0.1953,-0.1939 -0.3801,-0.6812 -0.7365,-0.4558 -0.0654,0.0405 -0.4688,0.5626 -0.4011,0.6057 0.0406,0.0972 0.1741,0.2727 0.2115,0.3186 0.1386,0.1678 0.3566,0.4899 0.421,0.7506 0.0266,0.108 -0.006,0.2098 -0.0222,0.2883 -0.0102,0.0471 0.0372,0.0596 0.061,0.0669 0.2052,-0.138 0.3909,-0.5128 0.4034,-0.7344 0.136,-0.2863 0.5414,0.5034 0.7134,0.6347 0.1398,0.108 0.2991,-0.0295 0.3348,-0.11 0.036,-0.0811 6e-4,-0.3949 -0.0918,-0.5069 -0.0924,-0.1122 0.1383,-0.1652 0.1383,-0.1652 l 0.2336,0.3044 c 0,0 0.0476,0.1834 -0.0785,0.3212 -0.0865,0.0952 -0.1452,0.4246 -0.0998,0.5635 0.0587,0.182 0.301,-0.1086 0.3478,-0.0975 0.1641,-0.0153 0.2792,-0.07 0.4374,-0.1502 0.1142,-0.0582 0.1658,-0.1092 0.267,-0.1715 0.2273,-0.1387 0.0102,-0.6427 0.2727,-0.6594 0.6406,0.1976 1.343,0.3833 1.9831,0.6259 v -6e-4 l 0.0658,0.0256 c 0.0584,0.01 0.2205,0.0269 0.244,0.0626 0.009,0.003 0.0182,0.008 0.0258,0.0142 0.0131,0.005 0.0423,0.0224 0.0513,0.0312 0.0669,0.0388 0.1369,0.0484 0.2019,0.1 0.009,0.004 0.0252,0.0131 0.0328,0.0193 0.0162,0.006 0.036,0.019 0.0465,0.032 0.0729,0.0508 0.222,0.1599 0.2203,0.2483 -9e-4,0.0241 0.009,0.0315 0.0215,0.0522 0.0913,0.1485 0.0683,0.0493 0.1009,0.1942 0.008,0.0113 0.0227,0.0283 0.0264,0.0422 l 0.0218,0.0329 c 0.004,-0.002 0.008,-0.003 0.0131,-0.004 0.1145,-0.076 0.0411,-0.002 0.1349,-0.0635 0.005,-0.008 0.0122,-0.015 0.0207,-0.021 0.005,-0.006 0.009,-0.0113 0.0147,-0.0164 0.0207,-0.0411 0.1727,-0.1692 0.1837,-0.1763 0.003,-0.005 0.006,-0.009 0.009,-0.0125 0.005,-0.0147 0.015,-0.0258 0.026,-0.0337 0.0536,-0.0414 0.0222,-0.0145 0.0562,-0.07 0.021,-0.0346 0.053,-0.0678 0.0808,-0.0868 0.009,-0.008 0.0139,-0.0164 0.0252,-0.0249 0.004,-0.008 0.01,-0.0156 0.0161,-0.0224 0.003,-0.006 0.006,-0.0108 0.01,-0.0159 0.003,-0.0221 0.0159,-0.038 0.0292,-0.0553 0.004,-0.009 0.01,-0.0187 0.0178,-0.0272 0.005,-0.0156 0.0136,-0.03 0.027,-0.0411 0.007,-0.0144 0.017,-0.0295 0.0292,-0.0402 0.005,-0.006 0.0102,-0.0119 0.0161,-0.0173 0.006,-0.008 0.0131,-0.0156 0.0216,-0.0216 0.002,-0.003 0.005,-0.006 0.007,-0.009 0.002,-0.006 0.004,-0.0116 0.007,-0.017 0.005,-0.0226 0.008,-0.0334 0.0187,-0.0533 0.002,-0.004 0.005,-0.0201 0.006,-0.0252 0.004,-0.0195 0.0147,-0.034 0.019,-0.0519 0.004,-0.0178 0.007,-0.0379 0.0153,-0.0538 0.005,-0.0295 0.0147,-0.0184 0.007,-0.0457 -0.003,-0.0119 -0.004,-0.0238 -0.003,-0.0357 -0.002,-0.0184 0.004,-0.0348 0.007,-0.053 -0.002,-0.0147 -0.003,-0.0275 3e-4,-0.0422 0,-0.004 -5e-4,-0.008 -8e-4,-0.0119 -0.003,-0.0108 -0.003,-0.0221 -0.002,-0.034 -0.001,-0.009 -0.001,-0.0236 -6e-4,-0.0335 -0.003,-0.0105 -0.004,-0.021 -0.003,-0.032 -0.007,-0.019 -0.006,-0.04 0,-0.059 8e-4,-0.0116 -0.007,-0.0249 -0.004,-0.0462 -0.004,-0.0133 -0.003,-0.0275 -3e-4,-0.04 -8e-4,-0.008 -0.002,-0.0164 -0.002,-0.0243 -0.004,-0.0142 -0.008,-0.0289 -0.007,-0.0437 -0.003,-0.009 -0.005,-0.0207 -0.005,-0.0303 l -0.0518,-0.0794 c -0.0176,-0.006 -0.0287,-0.0207 -0.04,-0.0377 -0.007,-0.011 -0.017,-0.0156 -0.0252,-0.0275 -0.0168,-0.008 -0.0392,-0.0502 -0.0706,-0.0711 -0.0184,-0.009 -0.0386,-0.0346 -0.0581,-0.0389 v 0 c -0.0142,-0.003 -0.0284,-0.005 -0.0411,-0.0124 -0.005,-10e-4 -0.01,-0.002 -0.0142,-0.004 -0.0547,-0.003 -0.1772,-0.007 -0.2262,-0.0323 -0.0116,5e-4 -0.0431,-0.003 -0.0542,-0.007 -0.0292,0.002 -0.0255,0.005 -0.0515,-0.0119 -0.01,0.002 -0.0284,-6e-4 -0.0377,-0.004 -0.0139,0.003 -0.0284,0.004 -0.0417,3e-4 -0.0111,3e-4 -0.0221,-3e-4 -0.0337,-3e-4 -0.1361,0.0309 -0.2705,0.0204 -0.4125,0.003 -0.0147,10e-4 -0.0343,0.009 -0.0502,0.008 -0.008,0 -0.0161,0.002 -0.0238,0.002 -0.009,0.003 -0.0184,0.005 -0.0272,0.004 l -0.0893,0.003 0.002,-0.002 z"
       style="fill:#004b9d;fill-opacity:1;fill-rule:evenodd;stroke:none"
       id="path192" />
    <path
       d="m 182.8344,622.4661 c 0.2279,0.0419 0.4135,0.155 0.6023,0.2664 0.1171,0.0692 0.2401,0.1463 0.3697,0.1712 0.4288,0.0831 0.7208,-0.3052 0.5587,-0.729 -0.106,-0.277 -0.2169,-0.5514 -0.322,-0.8283 -0.0369,-0.0972 -0.0635,-0.1984 -0.1041,-0.3268 0.1253,-0.0454 0.2302,-0.0882 0.3382,-0.1216 0.1108,-0.0346 0.2251,-0.0587 0.337,-0.0896 0.3249,-0.089 0.3935,-0.1525 0.4006,-0.3677 0.008,-0.2412 -0.1809,-0.5051 -0.4113,-0.5811 -0.2645,-0.087 -0.5001,-0.038 -0.7107,0.1418 -0.119,0.1009 -0.2387,0.2012 -0.358,0.3018 -0.256,-0.299 -0.4992,-0.5762 -0.7345,-0.8603 -0.2128,-0.2571 -0.6193,-0.3279 -0.9042,-0.1474 -0.0176,0.0111 -0.0337,0.0253 -0.0507,0.038 -0.3634,0.2687 -0.3541,0.3614 0.0309,0.5987 0.2698,0.1664 0.5312,0.3475 0.7868,0.5346 0.0993,0.0723 0.173,0.1794 0.2597,0.2721 -0.0524,0.1253 -0.1037,0.2291 -0.1397,0.3379 -0.0664,0.2018 -0.0105,0.2789 0.1987,0.2829 0.1136,0.003 0.2279,-6e-4 0.3614,-10e-4 0.0587,0.2191 0.1119,0.4192 0.1621,0.6063 -0.1528,0.1293 -0.2888,0.1412 -0.4382,0.0703 -0.0663,-0.0314 -0.1443,-0.0819 -0.2067,-0.0697 -0.2967,0.0578 -0.3906,-0.1485 -0.5334,-0.3427 -0.4286,-0.582 -0.773,-1.2101 -1.1033,-1.8491 -0.14,-0.2712 -0.307,-0.5292 -0.4734,-0.786 -0.055,-0.0853 -0.1411,-0.1531 -0.2205,-0.22 -0.106,-0.0887 -0.2191,-0.0805 -0.3107,0.0207 -0.1202,0.1327 -0.2452,0.2642 -0.3404,0.4145 -0.0868,0.1363 -0.1004,0.2956 -0.0355,0.4575 0.1392,0.3466 0.3263,0.6684 0.6069,0.9113 0.5057,0.438 0.8873,0.9615 1.1818,1.5568 0.0697,0.1406 0.169,0.2664 0.2693,0.4221 -0.0604,0.0893 -0.1219,0.1842 -0.1879,0.2763 -0.0494,0.0684 -0.1157,0.127 -0.1545,0.2005 -0.1188,0.2239 -0.0247,0.4254 0.2214,0.4714 0.1454,0.0269 0.2953,0.0275 0.4413,0.0513 0.3084,0.0504 0.5128,0.2511 0.5868,0.5513 0.0263,0.1069 0.0156,0.1899 -0.089,0.2398 -0.095,0.0451 -0.1497,-0.0102 -0.2135,-0.0788 -0.3529,-0.3804 -0.6318,-0.4138 -1.0511,-0.1349 0.0684,0.1635 0.137,0.3277 0.2033,0.4867 -0.2299,0.1681 -0.235,0.1732 -0.3969,0.0102 -0.1142,-0.1148 -0.227,-0.1843 -0.4079,-0.0825 0.0173,0.1125 0.0391,0.2237 0.0505,0.3359 0.0113,0.1123 0.0125,0.2259 0.0176,0.3334 -0.163,0.0493 -0.2183,-0.0562 -0.2815,-0.1341 -0.0465,-0.0564 -0.0876,-0.1225 -0.1117,-0.1911 -0.324,-0.9272 -0.885,-1.7319 -1.3377,-2.5925 -0.3245,-0.6174 -0.6446,-1.2379 -0.9581,-1.861 -0.2469,-0.4909 -0.4697,-0.9938 -0.724,-1.4802 -0.2148,-0.4116 -0.4592,-0.8076 -0.6927,-1.2093 -0.0318,-0.0544 -0.0735,-0.1032 -0.1154,-0.1502 -0.2787,-0.3093 -0.4065,-0.2849 -0.5706,0.1049 -0.0247,0.0581 -0.0516,0.1187 -0.0916,0.1661 -0.2149,0.2528 -0.1845,0.5269 -0.0731,0.8064 0.11,0.2747 0.2429,0.5412 0.3339,0.8218 0.0468,0.1443 0.1775,0.0737 0.2407,0.1494 0.1624,0.1947 0.3583,0.3682 0.4878,0.5822 1.1191,1.8462 2.2258,3.6998 3.3384,5.55 0.0768,0.1284 0.1357,0.2471 0.1261,0.411 -0.013,0.2231 0.1602,0.3753 0.3229,0.4782 0.1247,0.0791 0.2029,0.1729 0.2778,0.2869 0.2202,0.3356 0.4456,0.6678 0.6636,1.0048 0.0413,0.0641 0.0584,0.144 0.1142,0.2861 -0.2129,-0.0837 -0.358,-0.1364 -0.4995,-0.1973 -0.4167,-0.1792 -0.8328,-0.36 -1.2472,-0.5446 -0.1057,-0.0473 -0.2044,-0.1105 -0.3067,-0.1658 -0.4388,-0.2375 -0.8926,-0.3294 -1.3711,-0.1293 -0.2943,0.1228 -0.3838,0.2637 -0.3674,0.5355 0.5715,0.1449 1.1514,0.2568 1.7067,0.4425 0.5545,0.1854 1.1146,0.3767 1.6677,0.7098 -0.3748,0.2415 -0.7047,0.46 -1.0415,0.6684 -0.1658,0.1029 -0.2701,0.2356 -0.275,0.4328 -0.003,0.1602 0.0831,0.2413 0.239,0.1993 0.373,-0.1 0.7512,-0.0955 1.1322,-0.1077 0.2253,-0.007 0.462,-0.0754 0.6678,-0.1715 0.2923,-0.1366 0.341,-0.311 0.229,-0.6681 0.1075,0.0354 0.1922,0.0541 0.2685,0.0907 0.2568,0.1233 0.5048,0.267 0.767,0.3773 0.4111,0.1729 0.5545,0.0402 0.6721,-0.2659 0.0227,-0.0593 0.0536,-0.1154 0.0746,-0.1752 0.1131,-0.3186 -0.0148,-0.5734 -0.3373,-0.665 -0.3033,-0.0859 -0.6103,-0.1582 -0.9108,-0.2526 -0.1043,-0.0328 -0.2231,-0.0924 -0.2852,-0.1768 -0.4527,-0.6115 -0.8932,-1.2323 -1.3357,-1.8514 -0.0241,-0.0337 -0.0357,-0.0762 -0.0564,-0.1227 0.0428,-0.0581 0.08,-0.1236 0.1313,-0.1746 0.1502,-0.1494 0.2276,-0.1378 0.3458,0.036 0.0774,0.1134 0.1531,0.2293 0.2415,0.3336 0.339,0.4 0.6302,0.8212 0.6489,1.3709 0.1981,0.1238 0.3818,0.0586 0.5445,-0.0383 0.0624,-0.0371 0.1145,-0.1619 0.104,-0.237 -0.0306,-0.216 -0.0958,-0.4272 -0.1488,-0.6471 0.2137,-0.1531 0.241,-0.1613 0.4108,0.004 0.1278,0.1242 0.2539,0.2602 0.3407,0.4139 0.0717,0.1275 0.1599,0.1536 0.2812,0.146 0.2267,-0.0145 0.4184,-0.1814 0.5048,-0.4241 0.0817,-0.2285 -0.0105,-0.3892 -0.1879,-0.5207 -0.1698,-0.1259 -0.3291,-0.2707 -0.5131,-0.3711 -0.3696,-0.2027 -0.5972,-0.5295 -0.8189,-0.8662 -0.0221,-0.0338 -0.0289,-0.0777 -0.0454,-0.1242 0.127,-0.1233 0.2435,-0.1142 0.3532,0.009 0.0984,0.1108 0.18,0.2384 0.288,0.3379 0.0984,0.0907 0.2129,0.1791 0.3365,0.2228 0.1891,0.0669 0.3118,-0.0218 0.3889,-0.2129 0.0462,-0.114 0.1052,-0.2256 0.176,-0.3257 0.1236,-0.174 0.1217,-0.3215 -0.0462,-0.4725 -0.1258,-0.1126 -0.2695,-0.205 -0.4016,-0.3107 -0.2055,-0.1647 -0.2163,-0.2058 -0.1375,-0.4567 0.0802,-0.2545 0.0417,-0.3651 -0.1933,-0.4969 -0.2027,-0.1139 -0.4147,-0.2115 -0.618,-0.3243 -0.2392,-0.1329 -0.3733,-0.3328 -0.4121,-0.6077 z m -0.4414,2.8057 c 0.1253,0.2225 0.2438,0.4099 0.3351,0.6095 0.0263,0.0581 -9e-4,0.1817 -0.0479,0.2194 -0.0403,0.032 -0.1608,0.006 -0.2177,-0.0335 -0.2078,-0.1451 -0.2926,-0.3759 -0.4034,-0.612 0.1071,-0.0589 0.1978,-0.1088 0.3339,-0.1834 z m -1.2852,-1.853 c -0.0428,-0.1627 -0.0717,-0.2713 -0.0899,-0.3404 0.0777,-0.201 0.2092,-0.379 0.1919,-0.5406 -0.0195,-0.1803 -0.1479,-0.3699 -0.2761,-0.5131 -0.2378,-0.2656 -0.5556,-0.3189 -1.0312,0.0613 0.1417,0.6176 0.489,1.0139 1.2053,1.3328"
       style="fill:#004b9d;fill-opacity:1;fill-rule:evenodd;stroke:none"
       id="path196" />
    <path
       d="m 165.2295,625.7608 c 0.0315,0.002 0.0199,0.0309 0.1573,0.009 0.1106,-0.0533 0.1157,-0.0454 0.2282,-0.0754 0.1123,-0.0301 0.3175,-0.1814 0.5108,-0.3152 0.1933,-0.1341 0.4641,-0.4816 0.5386,-0.781 0.0746,-0.2993 0.0544,-0.6709 -0.0122,-0.932 -0.0164,-0.0641 -0.1148,-0.3044 -0.1856,-0.61 -0.0823,-0.3532 -0.1443,-0.8005 -0.2659,-1.2776 -0.0593,-0.2319 -0.1633,-0.5071 -0.2177,-0.7234 -0.0604,-0.2395 -0.0907,-0.4799 -0.1392,-0.6619 -0.0576,-0.2151 -0.1253,-0.3798 -0.1503,-0.4552 -0.1366,-0.417 -0.3101,-0.9853 -0.4195,-1.0607 0,0 0.0408,0.7446 0.0666,1.305 0.0114,0.2424 0.0196,0.4504 0.0204,0.5485 -0.008,0.2846 0.055,0.584 0.0593,0.8646 0.0119,0.7619 -0.008,1.5024 -0.0148,2.3224 0.0102,0.3022 -0.0303,0.5712 -0.0884,0.8592 -0.0587,0.2903 -0.2248,0.8773 -0.0876,0.9842 z m 4.2449,-8.7545 0.299,-0.3135 0.0236,-0.0148 c 0.1117,-0.174 0.2163,-0.3861 0.2826,-0.5448 0.0354,-0.085 0.087,-0.1395 0.121,-0.1775 0.0477,-0.0532 0.1092,-0.0249 0.2435,0.0256 0.0726,0.0275 0.1375,-0.005 0.2019,0.004 0.085,0.0117 0.1437,-0.0323 0.1754,-0.0581 0.0377,-0.0306 0.1466,-0.1176 0.1795,-0.2089 0.0396,-0.1114 0.0422,-0.2353 0.0558,-0.3084 0.0247,-0.1326 0.0181,-0.2256 0.0181,-0.2256 -0.004,-0.1769 -0.004,-0.2636 0.0241,-0.4221 0.0377,-0.2152 0.0326,-0.3756 0.0326,-0.3756 0.0856,-0.0317 0.1347,0.0244 0.1953,0.0831 0.1591,0.1542 0.2861,0.4722 0.2861,0.4722 0.0887,0.292 0.2111,0.3045 0.2962,0.3662 0.083,0.0604 0.4042,0.002 0.5751,-0.1371 0.1851,-0.1511 0.1863,-0.4102 0.123,-0.4998 -0.1706,-0.2415 -0.3339,-0.4195 -0.5082,-0.6608 -0.1264,-0.1749 -0.2642,-0.4121 -0.3892,-0.5898 -0.0108,-0.0394 -0.2106,-0.2013 -0.2585,-0.44 -0.0417,-0.2083 -0.383,-0.3744 -0.4873,-0.352 -0.1947,0.0416 -0.7013,0.172 -0.7713,0.3809 -0.0576,0.1712 -0.1406,0.4609 -0.1616,0.5074 -0.0258,0.057 -0.007,0.5505 -0.1383,0.8314 -0.0873,0.186 -0.1585,0.2968 -0.2001,0.4193 -0.0278,0.0819 -0.0562,0.102 -0.1199,0.1213 0,0 -0.1151,-0.007 -0.2475,-0.017 -0.0833,-0.006 -0.1789,-0.0876 -0.2667,-0.0816 -0.0562,0.004 -0.1985,0 -0.2418,0.0144 -0.055,0.0184 -0.0746,0.0805 -0.0165,0.1814 0.0176,0.0304 0.0306,0.1214 0.061,0.1571 0.0269,0.0312 0.0606,0.0677 0.0813,0.0924 0.0139,0.0164 0.0505,0.0524 0.0612,0.0635 0.135,0.1406 0.3269,0.2344 0.3269,0.2344 l -0.015,0.0405 c -0.0247,0.0545 -0.0366,0.0916 -0.0956,0.1523 -0.0453,0.0464 -0.1457,0.121 -0.2273,0.2162 -0.0672,0.0783 -0.2801,0.4621 -0.392,0.7127 l -0.1525,0.2211 2e-4,3e-4 -0.002,0.003 -0.0672,-0.0794 c -0.053,-0.0938 -0.0525,-0.2404 -0.1488,-0.3138 0.013,-0.019 -0.1202,-0.1789 -0.0902,-0.2225 l -0.0289,-0.1035 -0.0145,-0.01 c 0.0241,-0.0491 -0.008,-0.0729 0.001,-0.1211 -0.0321,-0.0221 -0.2585,-0.8251 -0.2894,-0.7803 v 0 c -0.002,-0.0125 -0.004,-0.0224 -0.003,-0.0335 -0.0964,-0.081 -0.1882,-0.0972 -0.3093,-0.1292 -0.0258,0.0371 -0.1252,-0.0278 -0.1675,-0.0443 l -0.0706,0.0363 -0.004,-0.002 c -0.2735,0.1885 -0.3398,0.4949 -0.3109,0.7942 0.007,0.005 0.0436,0.2427 0.0363,0.2688 0.0212,0.0652 -0.0496,0.0836 -0.0122,0.2355 l -6e-4,9e-4 c 0.0272,0.0717 0.051,0.1868 0.0275,0.2616 l -0.002,0.0539 c 0.0238,0.0768 0.0295,0.1443 -0.003,0.2415 0.006,0.0309 5e-4,0.0564 0.0227,0.0828 -0.006,0.0147 0.0422,0.2327 0.0484,0.2775 0.009,0.0788 0.0338,0.1995 0.0508,0.2789 0.0243,0.0167 0.0459,0.2378 0.0513,0.2792 0.003,0.002 0.007,0.4439 0.009,0.4941 l 0.003,0.0232 0.0354,0.125 c -0.0323,0.0516 0.0485,0.2829 0.0457,0.2866 0.006,0.0338 0.0408,0.2937 0.0405,0.2943 l 0.0178,0.1006 c -0.0153,0.0312 -0.0116,0.0606 -0.0269,0.0915 -0.0147,0.0295 -0.049,0.0604 -0.0638,0.0899 l -0.0825,-0.057 c 0.0273,-0.0391 -0.0657,-0.1672 -0.108,-0.1964 0.005,-0.006 -0.1618,-0.3558 -0.216,-0.3929 0.0134,-0.019 -0.1003,-0.3132 -0.1332,-0.3359 0.01,-0.0147 -0.2231,-0.383 -0.1857,-0.4368 -0.013,-0.057 -0.1533,-0.3073 -0.1496,-0.313 -0.0527,-0.0436 -0.152,-0.3089 -0.1296,-0.3413 -0.0144,-0.0317 -0.0158,-0.0943 -0.0436,-0.1133 l 0.003,-0.005 c -0.0235,-0.0445 -0.1137,-0.1882 -0.0941,-0.2165 -0.0176,-0.0298 -0.0119,-0.0933 -0.0428,-0.1145 l 0.002,-0.003 c -0.0374,-0.1219 -0.1075,-0.1973 -0.1259,-0.3271 l -0.009,-0.006 0.006,-0.009 -0.0295,-0.0814 c -0.0178,-0.0975 -0.0785,-0.2503 -0.1122,-0.3693 l -0.007,-0.0389 c -0.0139,-0.047 -0.07,-0.2517 -0.0516,-0.2783 -0.0178,-0.0301 -0.008,-0.0947 -0.0405,-0.1174 l 0.003,-0.005 c -0.0408,-0.224 -0.2571,-0.5905 -0.2851,-0.7592 v 0 c -0.023,-0.125 -0.4108,-0.424 -0.531,-0.4413 -0.005,0.008 -0.1922,-0.0272 -0.2197,-0.0349 -0.004,0.006 -0.2616,-0.0805 -0.3053,-0.0867 -10e-4,0.002 -0.5408,-0.1602 -0.6139,-0.169 -0.0102,0.0151 -0.2075,-0.0669 -0.2339,0.0565 l -0.0615,0.284 c 0.0394,0.0524 0.0371,0.3614 0.0907,0.3983 l -0.003,0.005 c 0.0125,0.0504 0.1259,0.3472 0.1219,0.3526 0.0159,0.0317 0.1216,0.1769 0.1142,0.1877 l 0.036,0.0439 6e-4,-9e-4 c 0.161,0.1466 1.4071,2.2763 1.4071,2.2765 0.1335,0.1679 0.235,0.5273 0.4068,0.6458 l -0.004,0.006 c 0.0244,0.0528 0.2979,0.4502 0.296,0.4536 0.0274,0.0649 0.2956,0.4535 0.2933,0.4566 0.0295,0.038 0.2013,0.2379 0.19,0.2546 0.1193,0.0822 0.1295,0.3073 0.2281,0.3753 l -0.003,0.005 c 0.0309,0.0604 0.0514,0.1505 0.1114,0.1919 l -0.003,0.005 c 0.0256,0.0371 0.0516,0.0881 0.023,0.1306 l 0.006,0.004 -0.351,0.5085 c 0.0168,0.0326 0.1372,0.3303 0.135,0.334 0.0136,0.0481 0.4257,0.7486 0.4456,0.7622 -0.053,0.01 0.0836,0.0343 0.1213,0.0785 l 0.0813,-0.0442 c 0.0142,-0.0329 0.0505,-0.0445 0.0701,-0.0731 0.019,0.013 0.0819,-0.0899 0.0952,-0.1075 l 0.004,0.0227 c -0.005,-0.0269 0.206,-0.358 0.2426,-0.4107 l 0.0621,0.0861 c 0.0884,0.0264 0.568,0.4536 0.5343,0.502 0.2021,0.1395 0.1565,0.1075 0.3606,0.1324 l 0.1179,-0.0819 c 0.2894,-0.1553 0.0357,-0.4425 0.0629,-0.4822 -0.0218,-0.0654 -0.0266,-0.2245 -0.0686,-0.2534 0.0284,-0.0408 -0.0564,-0.4048 -0.0762,-0.4184 l 0.007,-0.011 -0.2434,-0.4371 -9e-4,-6e-4 c 0.008,-0.0113 -0.0442,-0.3915 -0.0765,-0.4187 0.009,-0.013 0.0842,-0.5814 0.2143,-0.7699 -0.002,-0.002 0.0978,-0.1652 0.106,-0.1788 l 0.1462,0.3177 -2e-4,3e-4 c 0.1168,0.0808 0.1125,0.4193 0.2338,0.5032 -0.0241,0.0351 0.3538,0.3123 0.3382,0.3149 0.273,0.108 0.6936,0.1627 0.8875,-0.1185 0.006,0.0354 0.1304,-0.2288 0.0482,-0.2854 0.0221,-0.0318 -0.002,-0.0695 -0.007,-0.1268 l 0.001,-0.6414 c -0.005,-0.003 0,-0.1061 0.007,-0.1168 -0.0246,-0.017 -0.0448,-0.3535 -0.0468,-0.419 l -0.004,-0.1244 c -0.023,-0.0159 -0.004,-0.2909 -0.005,-0.3592 -0.0513,-0.1244 -0.0562,-0.197 -0.1106,-0.2936 -0.049,-0.0876 -0.1525,-0.1701 -0.2364,-0.2776 -0.1199,-0.206 -0.1766,-0.2199 -0.3597,-0.3449 z m 0.0136,1.7166 c -0.0227,-0.216 0.0247,-0.3019 -0.0391,-0.4728 0.0334,-0.0485 -0.0859,-0.3002 -0.1196,-0.356 l -10e-4,-0.007 -0.1578,-0.1151 -0.2983,0.4323 c 0.0168,0.0116 0.009,0.0745 0.0706,0.1661 l 0.002,-0.007 0.1514,0.398 0.0958,0.1547 -9e-4,-10e-4 0.0695,0.1381 0.0825,0.0569 0.1068,-0.0496 c -0.0102,-0.1006 0.0244,-0.2162 0.0386,-0.3376 z m -1.9718,-2.2351 c -0.0785,0.1616 -0.0258,0.5757 -0.0334,0.7294 -0.004,0.1136 0.0655,0.3466 0.0765,0.4186 l 0.001,9e-4 c 0.0102,0.0629 0.0893,0.3974 0.0752,0.4175 l 0.0357,0.0448 0.0467,0.0122 0.0573,-0.0711 0.1709,-0.2591 c 0.0457,-0.1052 0.1489,-0.1902 0.0309,-0.3909 -0.017,-0.044 -0.007,-0.1111 -0.0759,-0.25 -0.003,-0.002 -0.0559,-0.099 -0.1072,-0.2183 -0.0331,-0.0774 -0.0561,-0.163 -0.0986,-0.2435 -0.042,-0.0788 -0.0865,-0.1502 -0.1293,-0.1973 -0.0295,-0.0184 -0.0374,-0.0193 -0.0499,0.007"
       style="fill:#004b9d;fill-opacity:1;fill-rule:evenodd;stroke:none"
       id="path200" />
    <path
       d="m 174.0368,599.9593 v 0.5808 c 0.3299,0.005 0.5538,0.0485 0.6715,0.1295 0.1179,0.0811 0.1769,0.2299 0.1769,0.4454 v 2.5248 c 0,0.2324 -0.0496,0.3835 -0.1474,0.4538 -0.0978,0.0714 -0.3311,0.11 -0.701,0.1174 v 0.5448 c 0.3344,0.005 0.6309,0.03 0.8909,0.0759 0.2596,0.0463 0.4901,0.2861 0.6928,0.3782 h 0.646 v -4.0949 c 0,-0.2152 0.0612,-0.3646 0.1828,-0.4454 0.1222,-0.081 0.3558,-0.1247 0.701,-0.1295 v -0.5808 z"
       style="fill:#004b9d;fill-opacity:1;fill-rule:evenodd;stroke:none"
       id="path202" />
    <path
       d="m 184.2996,602.1556 c -0.2268,-0.1404 -0.4592,-0.2438 -0.6959,-0.3099 -0.2356,-0.0671 -0.4873,-0.1 -0.7563,-0.1 -0.5978,0 -1.0865,0.1525 -1.4649,0.4563 -0.3793,0.3039 -0.5684,0.6968 -0.5684,1.1776 0,0.5221 0.2225,0.9456 0.6679,1.269 0.4453,0.3246 1.0292,0.4867 1.7506,0.4867 0.7954,0 1.4086,-0.2145 1.84,-0.6454 0.4326,-0.4295 0.6483,-1.042 0.6483,-1.8352 0,-0.8529 -0.2381,-1.5154 -0.7155,-1.9876 -0.4773,-0.4723 -1.1457,-0.7078 -2.0066,-0.7078 -0.559,0 -1.0168,0.0952 -1.3768,0.2843 -0.36,0.1891 -0.5392,0.4198 -0.5392,0.6919 0,0.1695 0.059,0.3039 0.1766,0.404 0.1177,0.1 0.2744,0.1499 0.4717,0.1499 0.3081,0 0.5267,-0.1865 0.6514,-0.5612 0.017,-0.0477 0.0292,-0.0831 0.0377,-0.1038 0.0323,-0.1026 0.0856,-0.1721 0.1568,-0.2098 0.0728,-0.0365 0.195,-0.0549 0.3639,-0.0549 0.4218,0 0.7535,0.1414 0.9947,0.4246 0.2421,0.2832 0.364,0.6735 0.364,1.1713 z m -0.0743,1.2727 c 0,0.3223 -0.0825,0.5712 -0.2477,0.7469 -0.1653,0.1769 -0.3991,0.2648 -0.7002,0.2648 -0.3152,0 -0.559,-0.0867 -0.7325,-0.2611 -0.1737,-0.1735 -0.2602,-0.4198 -0.2602,-0.7358 0,-0.3076 0.0839,-0.5505 0.2503,-0.7285 0.1667,-0.1769 0.3938,-0.2659 0.6806,-0.2659 0.332,0 0.5828,0.0827 0.7535,0.25 0.1709,0.1672 0.2562,0.4099 0.2562,0.7296"
       style="fill:#004b9d;fill-opacity:1;fill-rule:nonzero;stroke:none"
       id="path204" />
    <path
       d="m 201.7383,602.1556 c -0.2267,-0.1404 -0.4595,-0.2438 -0.6959,-0.3099 -0.2355,-0.0671 -0.4873,-0.1 -0.7563,-0.1 -0.5981,0 -1.0865,0.1525 -1.4649,0.4563 -0.3793,0.3039 -0.5683,0.6968 -0.5683,1.1776 0,0.5221 0.2225,0.9456 0.6678,1.269 0.4453,0.3246 1.0293,0.4867 1.7507,0.4867 0.7954,0 1.4085,-0.2145 1.8399,-0.6454 0.4326,-0.4295 0.6483,-1.042 0.6483,-1.8352 0,-0.8529 -0.2381,-1.5154 -0.7154,-1.9876 -0.4774,-0.4723 -1.1458,-0.7078 -2.007,-0.7078 -0.5587,0 -1.0165,0.0952 -1.3765,0.2843 -0.36,0.1891 -0.5391,0.4198 -0.5391,0.6919 0,0.1695 0.0589,0.3039 0.1766,0.404 0.1173,0.1 0.2744,0.1499 0.4717,0.1499 0.3081,0 0.5266,-0.1865 0.6514,-0.5612 0.0167,-0.0477 0.0292,-0.0831 0.0377,-0.1038 0.0323,-0.1026 0.0856,-0.1721 0.1567,-0.2098 0.0729,-0.0365 0.195,-0.0549 0.364,-0.0549 0.4218,0 0.7534,0.1414 0.9947,0.4246 0.242,0.2832 0.3639,0.6735 0.3639,1.1713 z m -0.0742,1.2727 c 0,0.3223 -0.0825,0.5712 -0.2478,0.7469 -0.1652,0.1769 -0.3991,0.2648 -0.7001,0.2648 -0.3153,0 -0.559,-0.0867 -0.7328,-0.2611 -0.1735,-0.1735 -0.2602,-0.4198 -0.2602,-0.7358 0,-0.3076 0.0839,-0.5505 0.2506,-0.7285 0.1666,-0.1769 0.3937,-0.2659 0.6806,-0.2659 0.3319,0 0.5825,0.0827 0.7534,0.25 0.1707,0.1672 0.2563,0.4099 0.2563,0.7296"
       style="fill:#004b9d;fill-opacity:1;fill-rule:nonzero;stroke:none"
       id="path206" />
    <path
       d="m 189.3852,599.9593 c 0.4102,1.6758 0.9905,1.8538 2.4492,2.4347 0.7194,0.2865 0.9408,0.8356 0.9408,1.273 0,0.2645 -0.1627,0.4688 -0.3198,0.614 -0.157,0.1448 -0.3778,0.218 -0.6627,0.218 -0.2237,0 -0.4176,-0.0468 -0.5805,-0.1389 -0.1628,-0.0919 -0.2435,-0.1951 -0.2435,-0.3073 0,-0.0179 0.034,-0.0845 0.1048,-0.2018 0.0706,-0.1171 0.1061,-0.2356 0.1061,-0.3566 0,-0.1664 -0.065,-0.3014 -0.1968,-0.4023 -0.1318,-0.1006 -0.3058,-0.1511 -0.5252,-0.1511 -0.2126,0 -0.381,0.0644 -0.5043,0.1917 -0.123,0.1284 -0.184,0.3024 -0.184,0.5204 0,1.0729 1.3992,1.5568 2.2451,1.5568 0.6939,0 1.3373,-0.1735 1.7523,-0.4575 0.8096,-0.5542 0.8346,-1.9727 -0.0635,-2.4789 -0.731,-0.4125 -2.8088,-0.4051 -2.8383,-1.1155 -0.007,-0.1692 0.0519,-0.3778 0.466,-0.3617 0.366,0.0145 1.9511,0.0236 2.2198,0.2305 0.1679,0.129 0.2835,0.3487 0.4136,0.6259 l 0.5125,-10e-4 0.1123,-1.6923 h -5.2039 z"
       style="fill:#004b9d;fill-opacity:1;fill-rule:evenodd;stroke:none"
       id="path208" />
    <path
       d="m 215.9785,607.3551 c 0.0385,-0.0805 0.0813,-0.1533 0.1258,-0.2157 0.0462,-0.0635 0.0981,-0.1207 0.1571,-0.1703 0.0915,-0.0817 0.195,-0.1469 0.3112,-0.1945 0.1154,-0.049 0.2407,-0.0921 0.3739,-0.1298 0.2769,-0.0757 0.5757,-0.1522 0.8966,-0.2305 0.3212,-0.0782 0.6724,-0.1621 1.0565,-0.2511 0.2443,-0.0601 0.4263,-0.0865 0.5434,-0.0788 0.1179,0.007 0.3087,0.0558 0.5717,0.1454 l 0.7118,0.2429 c 0.0845,0.0289 0.1525,0.0695 0.2058,0.1228 0.0527,0.0541 0.0842,0.1318 0.0932,0.2341 0.003,0.0454 -0.004,0.1366 -0.0218,0.2741 -0.0164,0.1381 -0.0331,0.237 -0.0493,0.2996 l 0.275,0.0941 0.9561,-2.772 -0.275,-0.0938 c -0.0272,0.0632 -0.0694,0.1545 -0.125,0.2724 -0.0567,0.1174 -0.1032,0.197 -0.1392,0.2396 -0.0674,0.0737 -0.1372,0.1156 -0.2112,0.1267 -0.0734,0.01 -0.1547,-6e-4 -0.2437,-0.0312 l -0.8847,-0.3016 c -0.0771,-0.0264 -0.1454,-0.0513 -0.2038,-0.0737 -0.0584,-0.0227 -0.1049,-0.0479 -0.1401,-0.0749 -0.0388,-0.0317 -0.087,-0.0802 -0.142,-0.1434 -0.0564,-0.0635 -0.129,-0.146 -0.2168,-0.2472 -0.256,-0.2897 -0.4975,-0.5666 -0.7251,-0.8334 -0.2265,-0.2664 -0.4388,-0.5187 -0.6361,-0.7562 -0.1026,-0.1248 -0.1786,-0.2407 -0.2305,-0.3481 -0.0502,-0.1086 -0.0862,-0.2118 -0.106,-0.3138 -0.0142,-0.076 -0.0145,-0.1619 -0.003,-0.2585 0.0128,-0.0961 0.029,-0.1817 0.0494,-0.2569 l -0.275,-0.0938 -0.9862,2.8585 0.2753,0.0938 c 0.0978,-0.2605 0.1766,-0.4306 0.2372,-0.5119 0.0621,-0.0823 0.1188,-0.1137 0.1707,-0.0961 0.0252,0.009 0.0709,0.0445 0.1378,0.1048 0.0654,0.0599 0.1652,0.1622 0.2982,0.3042 0.1252,0.1327 0.2953,0.3209 0.5113,0.5661 0.216,0.2455 0.4672,0.5377 0.7532,0.8779 -0.8632,0.2032 -1.4647,0.3398 -1.8045,0.4104 -0.3385,0.0709 -0.5398,0.0947 -0.6035,0.0729 -0.0811,-0.0275 -0.1245,-0.0973 -0.1341,-0.2092 -0.008,-0.1128 0.0195,-0.2804 0.0833,-0.504 l -0.2752,-0.0939 -0.6384,1.8502 0.2753,0.0938 z m -18.8377,-41.5159 c -0.0697,-0.0212 -0.1695,-0.0575 -0.2982,-0.1097 -0.1304,-0.0513 -0.2341,-0.1179 -0.3121,-0.1978 -0.0819,-0.0791 -0.1267,-0.2016 -0.1332,-0.3671 -0.008,-0.1644 0.0201,-0.4065 0.0816,-0.7209 l 0.3779,-1.9236 c 0.1111,-0.5658 0.007,-1.0584 -0.3115,-1.4785 -0.3192,-0.4198 -0.7977,-0.6928 -1.4332,-0.8161 -0.7421,-0.1437 -1.3499,-0.089 -1.8207,0.1644 -0.4723,0.2534 -0.7662,0.6783 -0.883,1.2736 l -0.5193,2.6444 c -0.0165,0.0848 -0.0474,0.1551 -0.0919,0.2095 -0.0453,0.0533 -0.1187,0.0961 -0.2211,0.1264 -0.07,0.0202 -0.1525,0.0298 -0.2491,0.0318 -0.0964,8e-4 -0.1741,-3e-4 -0.2345,-0.004 l -0.0558,0.2841 2.7193,0.5283 0.0558,-0.284 c -0.0779,-0.0201 -0.1553,-0.0445 -0.2338,-0.0737 -0.0786,-0.0292 -0.1562,-0.0652 -0.235,-0.1077 -0.0868,-0.0479 -0.1398,-0.1086 -0.1591,-0.182 -0.0178,-0.0748 -0.019,-0.1545 -0.002,-0.2398 l 0.5122,-2.6096 c 0.1006,-0.5122 0.288,-0.8643 0.5615,-1.0528 0.2747,-0.1885 0.6288,-0.2409 1.0627,-0.1567 0.4267,0.0828 0.7362,0.2764 0.9284,0.5811 0.1922,0.3047 0.2389,0.7081 0.1409,1.209 l -0.3442,1.7526 c -0.0612,0.3116 -0.1284,0.5403 -0.2009,0.6863 -0.0726,0.1457 -0.161,0.2441 -0.2622,0.2954 -0.074,0.0399 -0.1939,0.0671 -0.3603,0.0813 -0.1664,0.0128 -0.2818,0.0176 -0.3475,0.015 l -0.057,0.2914 2.2683,0.4411 0.0572,-0.2914 z m 6.6901,2.9444 c -0.0607,-0.0363 -0.1449,-0.0905 -0.2532,-0.1627 -0.1088,-0.0715 -0.195,-0.1642 -0.2574,-0.2781 -0.0549,-0.0995 -0.0657,-0.2302 -0.0326,-0.3952 0.0338,-0.1633 0.1174,-0.388 0.2506,-0.6743 l 1.5945,-3.4251 -0.6123,-0.2824 -4.7009,2.3273 1.0457,-2.2468 c 0.1295,-0.278 0.2469,-0.4816 0.3512,-0.6094 0.1057,-0.1276 0.2157,-0.2069 0.3302,-0.235 0.0845,-0.0213 0.2021,-0.0201 0.3532,0.002 0.1511,0.0232 0.2693,0.047 0.3543,0.0694 l 0.1222,-0.2622 -2.0767,-0.9575 -0.1221,0.2625 c 0.0847,0.0476 0.178,0.1099 0.2803,0.1893 0.1018,0.0777 0.1789,0.1622 0.2302,0.2517 0.0573,0.106 0.072,0.2316 0.0439,0.3793 -0.0286,0.1463 -0.1153,0.3747 -0.2605,0.6866 l -1.0564,2.2697 c -0.0525,0.1128 -0.12,0.212 -0.201,0.2959 -0.0814,0.0839 -0.1761,0.1454 -0.2832,0.1825 -0.1148,0.0412 -0.2316,0.0599 -0.3549,0.0559 -0.123,-0.002 -0.2548,-0.0207 -0.3957,-0.0564 l -0.1222,0.2625 1.8153,0.8368 4.1176,-2.0387 -0.8458,1.8176 c -0.1344,0.2888 -0.2543,0.4949 -0.3578,0.6176 -0.1043,0.1242 -0.2143,0.2004 -0.3299,0.2285 -0.0904,0.0224 -0.2081,0.0213 -0.3555,-6e-4 -0.1457,-0.0224 -0.2616,-0.045 -0.3478,-0.068 l -0.1191,0.2557 2.0767,0.9572 z m 6.0451,-1.9233 -2.4165,-1.6509 -0.1647,0.2383 c 0.0527,0.0423 0.1295,0.1041 0.231,0.1854 0.1021,0.0808 0.167,0.1435 0.1965,0.1883 0.0547,0.0822 0.0782,0.1581 0.072,0.2276 -0.007,0.068 -0.038,0.142 -0.091,0.2194 l -2.1286,3.0824 c -0.0481,0.07 -0.1046,0.1224 -0.1669,0.1567 -0.0632,0.0355 -0.1454,0.0423 -0.2455,0.0216 -0.0629,-0.0119 -0.1497,-0.0406 -0.2611,-0.0859 -0.1108,-0.0434 -0.2041,-0.0856 -0.2792,-0.1247 l -0.1647,0.2386 2.4166,1.6509 0.1647,-0.2386 c -0.0567,-0.048 -0.1276,-0.1086 -0.2124,-0.1834 -0.0833,-0.0737 -0.1505,-0.1429 -0.1998,-0.2058 -0.0612,-0.082 -0.0865,-0.1593 -0.074,-0.2336 0.0128,-0.0743 0.0431,-0.1477 0.0924,-0.2189 l 2.1269,-3.0801 c 0.0504,-0.0731 0.1074,-0.1267 0.1709,-0.1601 0.0646,-0.0329 0.1465,-0.04 0.2469,-0.0193 0.055,0.01 0.1389,0.0411 0.2491,0.0921 0.112,0.0502 0.2024,0.0967 0.2727,0.1383 z m 2.2493,9.0011 c -0.053,-0.0627 -0.0992,-0.1279 -0.1358,-0.1956 -0.0377,-0.0689 -0.068,-0.1466 -0.0921,-0.2361 -0.0323,-0.1191 -0.0448,-0.224 -0.0365,-0.3155 0.009,-0.0916 0.0365,-0.2013 0.0833,-0.33 0.0655,-0.1743 0.1644,-0.428 0.2965,-0.7599 0.1327,-0.3311 0.2835,-0.709 0.4516,-1.1319 0.1525,-0.3796 0.3206,-0.7934 0.5048,-1.2433 0.1854,-0.449 0.3626,-0.879 0.5318,-1.29 l -0.5352,-0.5247 c -0.8478,0.3619 -1.7104,0.7299 -2.5869,1.1029 -0.8765,0.3731 -1.4871,0.6296 -1.8334,0.7713 -0.1287,0.0485 -0.235,0.076 -0.3178,0.0839 -0.0819,0.007 -0.1896,-0.006 -0.3195,-0.0391 -0.0941,-0.0261 -0.1701,-0.0544 -0.229,-0.0873 -0.0598,-0.0317 -0.1321,-0.0796 -0.2191,-0.1437 l -0.2041,0.2061 2.044,2.0038 0.1987,-0.2004 c -0.1672,-0.2106 -0.2721,-0.3617 -0.3152,-0.4536 -0.0422,-0.0912 -0.0445,-0.1576 -0.006,-0.1964 0.0198,-0.0199 0.0442,-0.0371 0.0711,-0.0536 0.0278,-0.0153 0.0675,-0.0354 0.116,-0.0609 0.2112,-0.0992 0.5652,-0.2526 1.0635,-0.4587 0.4981,-0.2063 1.2524,-0.5267 2.2604,-0.9618 -0.2568,0.6154 -0.4759,1.1328 -0.6576,1.5531 -0.182,0.4201 -0.3422,0.792 -0.4834,1.1132 -0.0674,0.1565 -0.1349,0.2988 -0.2035,0.4258 -0.0674,0.1261 -0.1264,0.2143 -0.1757,0.2641 -0.0553,0.0559 -0.1437,0.0638 -0.2631,0.0216 -0.1205,-0.0431 -0.2999,-0.1638 -0.5394,-0.3648 l -0.2095,0.2114 1.5318,1.5013 0.2095,-0.2112 z m 3.6947,3.975 -0.1519,-0.2469 c -0.2098,0.0431 -0.4496,0.0451 -0.7186,0.002 -0.2693,-0.0414 -0.4646,-0.1276 -0.5879,-0.2548 -0.0533,-0.0553 -0.1179,-0.1381 -0.1905,-0.2486 -0.0726,-0.1106 -0.1318,-0.2041 -0.1772,-0.2775 l -0.4022,-0.6523 1.7481,-1.0658 0.2857,0.4632 c 0.072,0.117 0.1234,0.2313 0.1548,0.3432 0.0303,0.1123 0.0303,0.2313 3e-4,0.3572 -0.019,0.0785 -0.0754,0.1811 -0.1675,0.3059 -0.0939,0.1241 -0.1814,0.2222 -0.2637,0.2931 l 0.1523,0.2466 1.8853,-1.1492 -0.1522,-0.2466 c -0.0973,0.0414 -0.2291,0.0771 -0.3955,0.1086 -0.1666,0.03 -0.2908,0.0374 -0.3696,0.0212 -0.1199,-0.0221 -0.2234,-0.0734 -0.3104,-0.1516 -0.0879,-0.0771 -0.1695,-0.1778 -0.2469,-0.3033 l -0.2854,-0.4629 1.3045,-0.7954 c 0.1369,-0.0834 0.2505,-0.1392 0.3427,-0.1673 0.0924,-0.0295 0.1766,-0.0286 0.2531,6e-4 0.0729,0.0286 0.1449,0.0845 0.2135,0.1692 0.0697,0.0839 0.1536,0.2052 0.2517,0.3643 0.0453,0.0737 0.0989,0.163 0.1607,0.2681 0.0618,0.1052 0.1114,0.2001 0.1485,0.2846 0.0451,0.0947 0.08,0.188 0.1063,0.2792 0.0267,0.0893 0.0306,0.1659 0.0139,0.2282 -0.0416,0.1653 -0.1309,0.3776 -0.267,0.6344 -0.1355,0.2585 -0.2438,0.4391 -0.3257,0.544 l 0.144,0.2336 1.3564,-0.9443 -2.6051,-4.2244 -0.248,0.1513 c 0.0323,0.0621 0.0731,0.1474 0.1244,0.2574 0.0499,0.1097 0.0786,0.1905 0.0879,0.2441 0.0156,0.1006 0.007,0.1805 -0.0283,0.2406 -0.0355,0.059 -0.093,0.1134 -0.1735,0.1622 l -3.1898,1.9446 c -0.0771,0.047 -0.1474,0.0734 -0.2118,0.0813 -0.0646,0.007 -0.144,-0.0224 -0.2389,-0.0867 -0.0599,-0.0392 -0.131,-0.1029 -0.2141,-0.1894 -0.0819,-0.087 -0.1428,-0.1539 -0.1805,-0.201 l -0.2481,0.1511 2.4616,3.9918 z m 2.0928,4.7455 c -0.3302,0.1281 -0.6077,0.1298 -0.8322,0.005 -0.2254,-0.125 -0.4054,-0.3591 -0.5389,-0.6996 l -0.1083,-0.2752 2.0744,-0.8053 0.104,0.2647 c 0.1341,0.3416 0.1486,0.6398 0.0431,0.8975 -0.1057,0.2574 -0.3523,0.462 -0.7421,0.6134 z m 4.5984,0.9281 -0.7401,-1.8837 c -0.6285,-0.1321 -1.1333,-0.2466 -1.5143,-0.3481 -0.3813,-0.0995 -0.8291,-0.2352 -1.3445,-0.4039 l -0.0768,-0.1953 1.4981,-0.5814 c 0.0833,-0.0323 0.1593,-0.0442 0.2302,-0.0349 0.0703,0.008 0.1426,0.0494 0.2163,0.1216 0.036,0.0363 0.0825,0.0987 0.1383,0.1849 0.057,0.0856 0.1015,0.1607 0.1349,0.2253 l 0.271,-0.1051 -1.0309,-2.6238 -0.2708,0.1052 c 0.0193,0.0703 0.0445,0.1627 0.0746,0.2775 0.0303,0.1151 0.0454,0.199 0.0451,0.2537 -0.003,0.1017 -0.0258,0.1789 -0.0706,0.2316 -0.0454,0.0518 -0.112,0.0952 -0.1996,0.1295 l -3.4857,1.353 c -0.0845,0.0326 -0.1585,0.0465 -0.2243,0.0434 -0.066,-0.004 -0.1389,-0.0468 -0.2182,-0.1276 -0.0604,-0.0624 -0.1196,-0.1403 -0.1806,-0.2324 -0.0601,-0.0939 -0.1066,-0.167 -0.1389,-0.2214 l -0.2707,0.1051 1.0843,2.7599 c 0.2423,0.6168 0.5238,1.0468 0.8433,1.292 0.3191,0.2452 0.6755,0.2908 1.0686,0.138 0.3458,-0.134 0.5859,-0.3418 0.7189,-0.6208 0.1326,-0.2789 0.178,-0.644 0.138,-1.0944 0.2662,0.0779 0.5746,0.1695 0.9253,0.2744 0.3506,0.1049 0.7117,0.2154 1.0808,0.3322 0.1185,0.0371 0.2673,0.091 0.4465,0.1644 0.1788,0.0723 0.3027,0.1497 0.3699,0.2339 0.0374,0.0467 0.0782,0.1085 0.121,0.1859 0.044,0.0768 0.0743,0.1333 0.0902,0.1664 z m 0.7291,3.1339 c -0.0443,-0.3206 -0.1256,-0.6131 -0.2433,-0.8773 -0.119,-0.2659 -0.2449,-0.4867 -0.3798,-0.6641 l 0.2239,-0.2892 -0.0436,-0.3169 -1.9018,0.2126 0.0437,0.3166 c 0.1893,0.0474 0.3914,0.112 0.6063,0.1956 0.2134,0.0837 0.4093,0.1863 0.5873,0.3107 0.1863,0.127 0.343,0.2758 0.4712,0.4482 0.1292,0.1706 0.2109,0.3798 0.2452,0.6284 0.0459,0.3334 -9e-4,0.6007 -0.1392,0.8016 -0.1401,0.1993 -0.3337,0.3167 -0.5825,0.3504 -0.2036,0.0278 -0.3858,-0.0244 -0.5457,-0.1562 -0.1599,-0.1321 -0.3121,-0.3495 -0.4581,-0.6522 -0.0955,-0.1985 -0.1837,-0.3796 -0.2642,-0.5443 -0.0808,-0.1655 -0.1613,-0.3197 -0.2421,-0.4652 -0.1896,-0.3313 -0.4266,-0.5655 -0.7129,-0.6995 -0.2854,-0.1353 -0.5901,-0.1809 -0.9136,-0.137 -0.2049,0.0278 -0.396,0.0987 -0.5734,0.2138 -0.1772,0.1136 -0.3288,0.2661 -0.4556,0.4564 -0.1193,0.1814 -0.2058,0.4042 -0.2593,0.6689 -0.0547,0.2648 -0.0613,0.5463 -0.0202,0.8442 0.0403,0.2903 0.118,0.5561 0.235,0.7977 0.1157,0.2418 0.224,0.4305 0.3263,0.564 l -0.1913,0.2552 0.0436,0.3166 1.7935,-0.2132 -0.0437,-0.3166 c -0.2021,-0.0479 -0.4113,-0.1069 -0.6258,-0.1789 -0.2146,-0.0717 -0.3972,-0.1545 -0.5451,-0.2471 -0.1594,-0.0998 -0.2934,-0.2237 -0.4,-0.3694 -0.106,-0.1443 -0.1746,-0.3234 -0.2038,-0.5346 -0.0366,-0.2653 0.01,-0.4915 0.1369,-0.6792 0.1273,-0.1888 0.3024,-0.2985 0.525,-0.3288 0.2097,-0.0286 0.3917,0.021 0.5445,0.1488 0.1542,0.129 0.303,0.3404 0.4467,0.6358 0.0873,0.1738 0.1747,0.3501 0.2614,0.5318 0.0882,0.1803 0.1706,0.3404 0.2477,0.4799 0.1883,0.3379 0.4165,0.5822 0.686,0.735 0.2682,0.1517 0.5828,0.2038 0.9442,0.1548 0.2277,-0.0309 0.4403,-0.1137 0.6381,-0.2483 0.1976,-0.1344 0.3549,-0.3005 0.4717,-0.4995 0.1284,-0.2171 0.2171,-0.4609 0.2651,-0.7299 0.049,-0.2704 0.049,-0.5766 0.002,-0.9196 z m 0.3531,6.5245 -0.0805,-2.9143 -0.2908,0.008 c -0.003,0.0674 -0.008,0.1652 -0.0147,0.2948 -0.005,0.1295 -0.0182,0.2188 -0.0372,0.2687 -0.0345,0.0924 -0.0825,0.1559 -0.1428,0.1919 -0.059,0.0346 -0.1375,0.0533 -0.2319,0.0559 l -3.759,0.1029 c -0.0854,0.002 -0.1613,-0.012 -0.2259,-0.042 -0.0658,-0.03 -0.1197,-0.0918 -0.1619,-0.1848 -0.0272,-0.0576 -0.055,-0.1443 -0.0839,-0.2602 -0.0298,-0.1148 -0.0505,-0.2143 -0.0629,-0.298 l -0.2909,0.008 0.0808,2.914 0.2906,-0.008 c 0.006,-0.0737 0.0133,-0.1666 0.0243,-0.2786 0.0108,-0.1108 0.0275,-0.2052 0.0496,-0.2818 0.0304,-0.0975 0.0783,-0.1632 0.1463,-0.197 0.068,-0.0334 0.1454,-0.0521 0.2319,-0.0547 l 3.7567,-0.1026 c 0.0891,-0.003 0.1662,0.0119 0.2308,0.0431 0.0646,0.0326 0.1188,0.0944 0.161,0.1871 0.0241,0.0501 0.0482,0.1358 0.072,0.2545 0.0249,0.1199 0.0405,0.2197 0.0479,0.3008 l 0.2905,-0.008 z m -4.3616,6.0007 0.0363,-0.2869 c -0.2146,-0.1034 -0.4386,-0.2551 -0.6733,-0.4555 -0.2347,-0.1993 -0.3529,-0.3725 -0.3554,-0.5173 -3e-4,-0.0794 0.004,-0.1772 0.0113,-0.294 0.007,-0.1153 0.0153,-0.2154 0.0261,-0.2996 l 0.0215,-0.1726 4.125,0.5122 c 0.0887,0.0111 0.1653,0.0371 0.2296,0.0771 0.0644,0.04 0.1097,0.1094 0.1372,0.2075 0.0159,0.0581 0.0275,0.1491 0.0354,0.2704 0.009,0.1225 0.0131,0.2251 0.0125,0.3096 l 0.2889,0.0357 0.3648,-2.9078 -0.2886,-0.036 c -0.0164,0.0697 -0.0391,0.1692 -0.0691,0.2959 -0.0301,0.1268 -0.0576,0.2115 -0.0823,0.2557 -0.0527,0.0905 -0.1139,0.1483 -0.1836,0.1715 -0.0709,0.0233 -0.1514,0.0298 -0.2438,0.0182 l -4.1618,-0.5165 0.0215,-0.1724 c 0.0105,-0.0844 0.0269,-0.1834 0.049,-0.297 0.0219,-0.1148 0.0417,-0.2109 0.0616,-0.2877 0.0382,-0.1398 0.1958,-0.2787 0.4725,-0.4145 0.2769,-0.1369 0.5312,-0.2293 0.7648,-0.2769 l 0.0363,-0.2872 -1.5041,-0.1865 -0.6361,5.0681 z"
       style="fill:#004b9d;fill-opacity:1;fill-rule:evenodd;stroke:none"
       id="path210" />
    <path
       d="m 154.4426,605.4185 c 0.1238,0.3654 0.299,0.6883 0.5272,0.9681 0.2276,0.2783 0.4946,0.498 0.8019,0.6587 0.3016,0.1588 0.6378,0.2498 1.0106,0.2733 0.3727,0.0238 0.756,-0.0295 1.1474,-0.1607 0.3906,-0.131 0.7291,-0.3195 1.0157,-0.5667 0.2854,-0.2455 0.5099,-0.5323 0.6704,-0.8578 0.1579,-0.3205 0.2455,-0.6701 0.2622,-1.0502 0.0176,-0.3807 -0.0389,-0.7622 -0.1687,-1.1458 -0.0938,-0.2763 -0.2131,-0.5176 -0.3594,-0.7228 -0.1451,-0.2058 -0.2874,-0.3722 -0.4255,-0.5014 l 0.1205,-0.2838 -0.1026,-0.303 -1.8448,0.5859 0.1049,0.3101 c 0.6216,-0.0127 1.1055,0.0607 1.4524,0.2189 0.3459,0.1584 0.5792,0.4135 0.6993,0.7684 0.1494,0.4411 0.0672,0.8422 -0.2469,1.2031 -0.3138,0.3608 -0.8246,0.6604 -1.5329,0.8977 -0.4003,0.1344 -0.7557,0.2092 -1.065,0.2259 -0.3096,0.0165 -0.5718,-0.0108 -0.7875,-0.0791 -0.2259,-0.0754 -0.4121,-0.1924 -0.5595,-0.3492 -0.1463,-0.1573 -0.2577,-0.3475 -0.3342,-0.5735 -0.1112,-0.3282 -0.1197,-0.6505 -0.0261,-0.9671 0.093,-0.3175 0.2854,-0.6432 0.5794,-0.976 l -0.2877,-0.2409 c -0.1738,0.1709 -0.3209,0.3483 -0.4405,0.5317 -0.1208,0.1837 -0.2118,0.3804 -0.2727,0.5896 -0.0666,0.2285 -0.099,0.4669 -0.0967,0.7164 0.002,0.2483 0.0556,0.5249 0.1588,0.8302 z m -0.0893,-16.3874 c 0.2403,-0.0827 0.5048,-0.1303 0.7971,-0.144 0.2908,-0.0138 0.6154,9e-4 0.9751,0.0457 0.305,0.038 0.5998,0.0961 0.883,0.1749 0.2832,0.0785 0.5309,0.1845 0.7432,0.3158 0.2132,0.134 0.3767,0.2962 0.4901,0.4881 0.1148,0.1919 0.1559,0.4167 0.1233,0.6775 -0.0561,0.4456 -0.3112,0.7577 -0.7656,0.9365 -0.4541,0.1778 -1.0687,0.2189 -1.8445,0.1225 -0.3305,-0.0408 -0.6372,-0.1046 -0.9247,-0.1913 -0.286,-0.0868 -0.5303,-0.1976 -0.7358,-0.3331 -0.2064,-0.1381 -0.3609,-0.2991 -0.4624,-0.4845 -0.1015,-0.1851 -0.136,-0.4016 -0.1049,-0.6508 0.0307,-0.2429 0.1191,-0.4442 0.2648,-0.6038 0.146,-0.1584 0.3331,-0.2769 0.5613,-0.3535 z m 3.8882,-0.4787 c -0.2058,-0.2863 -0.4663,-0.527 -0.7837,-0.7197 -0.3178,-0.1931 -0.6906,-0.3161 -1.1209,-0.3694 -0.3835,-0.0476 -0.7562,-0.0289 -1.1177,0.0556 -0.3628,0.0853 -0.6834,0.2321 -0.9643,0.4413 -0.2911,0.2208 -0.5298,0.4944 -0.7183,0.8175 -0.1871,0.3232 -0.3101,0.7209 -0.3696,1.1929 -0.0477,0.3812 -0.0298,0.7491 0.053,1.1032 0.0842,0.3546 0.2301,0.6758 0.4371,0.9635 0.2035,0.2846 0.4629,0.5227 0.7806,0.7143 0.3178,0.1916 0.6818,0.3135 1.0956,0.3648 0.4292,0.0533 0.8294,0.029 1.1974,-0.0737 0.3673,-0.1026 0.6928,-0.267 0.9742,-0.4915 0.2773,-0.2225 0.5038,-0.5 0.6789,-0.8311 0.1766,-0.3308 0.2889,-0.6928 0.3382,-1.0868 0.0491,-0.3901 0.0303,-0.7645 -0.0544,-1.1228 -0.0859,-0.3597 -0.2285,-0.6781 -0.4261,-0.9581 z m 2.8531,-7.2635 c -0.0329,0.0623 -0.0819,0.1494 -0.148,0.2611 -0.0649,0.1125 -0.1527,0.2035 -0.2633,0.2721 -0.0964,0.0606 -0.227,0.0793 -0.3949,0.0564 -0.1658,-0.0238 -0.396,-0.0933 -0.6919,-0.2084 l -3.5348,-1.3762 -0.246,0.6248 2.6223,4.5263 -2.3188,-0.9025 c -0.2874,-0.112 -0.4983,-0.216 -0.6332,-0.3121 -0.1344,-0.0972 -0.2206,-0.2018 -0.256,-0.3135 -0.0263,-0.0825 -0.0326,-0.1993 -0.0195,-0.3509 0.0144,-0.1511 0.0311,-0.2699 0.0484,-0.3561 l -0.2707,-0.1054 -0.8342,2.1194 0.2707,0.1055 c 0.0425,-0.087 0.0995,-0.1834 0.1729,-0.2897 0.0717,-0.1057 0.1519,-0.1874 0.2384,-0.2435 0.1032,-0.0635 0.2282,-0.0856 0.3781,-0.0669 0.1486,0.0198 0.383,0.0921 0.705,0.2174 l 2.3423,0.9119 c 0.1165,0.0454 0.22,0.106 0.3092,0.1817 0.0896,0.0757 0.1568,0.1658 0.2007,0.2702 0.0479,0.1114 0.0737,0.2264 0.0774,0.3492 0.006,0.1219 -0.005,0.2537 -0.0326,0.396 l 0.271,0.1054 0.7291,-1.8524 -2.2966,-3.9648 1.8756,0.7302 c 0.298,0.1162 0.5123,0.2225 0.6418,0.318 0.1307,0.0958 0.2143,0.2004 0.2492,0.3135 0.028,0.0888 0.0343,0.2055 0.0212,0.3532 -0.0136,0.1457 -0.0292,0.2622 -0.047,0.3495 l 0.2636,0.1027 0.8342,-2.1192 z m 1.2342,-7.272 c -0.0485,0.0609 -0.0921,0.1131 -0.1332,0.1576 -0.0397,0.0456 -0.0975,0.0975 -0.1704,0.1567 -0.0833,0.0689 -0.1644,0.0959 -0.2443,0.0839 -0.0808,-0.0136 -0.1565,-0.0419 -0.2251,-0.0858 l -0.5201,-0.3308 c -0.1055,-0.0669 -0.1886,-0.1214 -0.2518,-0.1645 -0.0629,-0.043 -0.1394,-0.096 -0.2313,-0.1604 -0.2608,0.1276 -0.5774,0.3614 -0.951,0.6976 -0.373,0.3376 -0.6695,0.6764 -0.8895,1.0185 -0.2067,0.3217 -0.3509,0.6545 -0.4329,0.9984 -0.0824,0.3449 -0.0941,0.6857 -0.0328,1.0241 0.0586,0.3371 0.1936,0.6594 0.4045,0.9649 0.2117,0.3065 0.5045,0.5783 0.8787,0.8161 0.3481,0.2214 0.7078,0.3688 1.078,0.4431 0.3708,0.0731 0.7319,0.0694 1.0851,-0.0116 0.3495,-0.0774 0.6801,-0.2333 0.9924,-0.4652 0.3116,-0.2324 0.5874,-0.5343 0.8266,-0.9062 0.1622,-0.2523 0.2815,-0.5063 0.356,-0.7614 0.076,-0.2546 0.1222,-0.4751 0.1412,-0.6602 l 0.2982,-0.0845 0.1732,-0.2693 -1.6149,-1.063 -0.1771,0.2758 c 0.3894,0.4706 0.6312,0.8924 0.7276,1.2654 0.0961,0.3711 0.0354,0.7271 -0.1817,1.0647 -0.2571,0.4 -0.6321,0.5964 -1.1245,0.5905 -0.4938,-0.007 -1.0497,-0.2067 -1.6688,-0.6001 -0.6576,-0.4184 -1.1026,-0.8518 -1.3371,-1.302 -0.2344,-0.4501 -0.2259,-0.8711 0.0261,-1.2634 0.1182,-0.1837 0.2515,-0.3294 0.3977,-0.4368 0.148,-0.1077 0.2838,-0.1777 0.4076,-0.2103 l 0.9063,0.576 c 0.0751,0.0479 0.1295,0.102 0.163,0.161 0.0334,0.0604 0.0442,0.1426 0.0297,0.2477 -0.0116,0.0817 -0.0379,0.1746 -0.0791,0.2809 -0.0411,0.1063 -0.0785,0.1928 -0.1102,0.2611 l 0.2449,0.1559 1.4842,-2.3088 z m 2.9072,-4.576 c 0.2387,0.087 0.4748,0.2171 0.709,0.3895 0.2353,0.1729 0.4782,0.3892 0.7285,0.65 0.2131,0.2219 0.4048,0.4524 0.5743,0.6913 0.1703,0.2399 0.2948,0.4777 0.3767,0.7138 0.0794,0.237 0.1032,0.4652 0.07,0.6863 -0.0329,0.2208 -0.144,0.4209 -0.335,0.6026 -0.3266,0.3101 -0.7226,0.3918 -1.1892,0.2438 -0.4649,-0.148 -0.9683,-0.5029 -1.5094,-1.0661 -0.2299,-0.2395 -0.428,-0.4827 -0.5959,-0.7305 -0.1664,-0.2472 -0.2863,-0.4876 -0.3594,-0.7217 -0.0723,-0.2364 -0.0896,-0.4586 -0.0507,-0.6659 0.0391,-0.2072 0.1491,-0.3977 0.3316,-0.5711 0.178,-0.1693 0.3742,-0.2699 0.5891,-0.3016 0.2134,-0.0312 0.4348,-0.005 0.6604,0.0796 z m 3.3217,2.0772 c 0.0226,-0.3512 -0.0272,-0.7021 -0.1508,-1.0513 -0.1228,-0.3481 -0.3342,-0.6786 -0.6339,-0.9907 -0.4257,-0.4431 -0.9107,-0.726 -1.4556,-0.8504 -0.5439,-0.1236 -1.0902,-0.0661 -1.6389,0.1746 -0.1996,-0.2191 -0.3133,-0.4657 -0.3382,-0.7401 -0.0264,-0.275 0.0465,-0.4933 0.216,-0.6546 0.1043,-0.0989 0.2027,-0.1802 0.2925,-0.2429 0.0907,-0.0615 0.1749,-0.1154 0.2529,-0.1593 l -0.2257,-0.2347 c -0.1428,0.055 -0.3376,0.1573 -0.5816,0.3053 -0.2435,0.1488 -0.476,0.3274 -0.6982,0.5386 -0.3025,0.2874 -0.466,0.6148 -0.489,0.9805 -0.0221,0.3665 0.1097,0.722 0.396,1.0658 -0.2307,0.2667 -0.407,0.5553 -0.5306,0.8637 -0.1228,0.3096 -0.1868,0.6285 -0.1897,0.9576 -0.002,0.3248 0.0598,0.6482 0.186,0.9705 0.1253,0.3232 0.3211,0.6228 0.5882,0.9009 0.2996,0.3118 0.6253,0.5445 0.9757,0.6962 0.3509,0.1522 0.7075,0.2293 1.0681,0.2321 0.3563,0.002 0.708,-0.0708 1.0542,-0.2171 0.3472,-0.1457 0.6641,-0.3555 0.953,-0.6299 0.2857,-0.2715 0.5093,-0.5734 0.6712,-0.9045 0.1619,-0.3328 0.2537,-0.669 0.2784,-1.0103 z m 1.5015,-6.7575 -2.4679,1.573 0.1568,0.2435 c 0.0598,-0.0321 0.1465,-0.0783 0.2616,-0.1395 0.1143,-0.0624 0.1979,-0.0975 0.2509,-0.1071 0.0969,-0.0182 0.1766,-0.0102 0.2387,0.0226 0.0604,0.0323 0.1168,0.0899 0.1678,0.1687 l 2.029,3.1487 c 0.0462,0.0715 0.0729,0.1435 0.0802,0.214 0.008,0.0718 -0.017,0.1494 -0.0754,0.2333 -0.0354,0.053 -0.0958,0.1213 -0.1808,0.2058 -0.0833,0.0848 -0.1585,0.1539 -0.2239,0.2075 l 0.157,0.2435 2.4678,-1.5729 -0.1567,-0.2438 c -0.0666,0.0334 -0.1505,0.0748 -0.2526,0.1233 -0.1009,0.0479 -0.1908,0.0825 -0.2681,0.1035 -0.0995,0.0241 -0.1812,0.0173 -0.2452,-0.0233 -0.0641,-0.0405 -0.1202,-0.0966 -0.167,-0.1692 l -2.0276,-3.1468 c -0.0482,-0.0748 -0.0754,-0.1476 -0.0819,-0.2188 -0.005,-0.072 0.0198,-0.1499 0.0782,-0.2338 0.0306,-0.0465 0.0918,-0.1114 0.1817,-0.1925 0.0904,-0.0834 0.1684,-0.148 0.2344,-0.1962 z m 9.3812,1.0177 c -0.0669,0.0215 -0.1632,0.0496 -0.2891,0.0836 -0.1256,0.0354 -0.2523,0.0394 -0.3796,0.0116 -0.1116,-0.0238 -0.2179,-0.1015 -0.3217,-0.2344 -0.102,-0.1324 -0.218,-0.3422 -0.3484,-0.6302 l -1.559,-3.4423 -0.6154,0.2758 -1.3082,5.0592 -1.0225,-2.2578 c -0.1267,-0.2797 -0.2046,-0.5011 -0.2333,-0.6635 -0.0277,-0.1628 -0.0158,-0.2977 0.0375,-0.4023 0.0391,-0.0774 0.1167,-0.165 0.2327,-0.2642 0.1165,-0.0981 0.212,-0.1715 0.2849,-0.2208 l -0.1197,-0.2636 -2.0865,0.9346 0.1196,0.2639 c 0.0915,-0.0326 0.2001,-0.0618 0.3274,-0.0868 0.1253,-0.0258 0.2401,-0.0283 0.3416,-0.009 0.1184,0.0264 0.2233,0.0975 0.3172,0.2155 0.0924,0.1173 0.2092,0.3319 0.3512,0.6454 l 1.0332,2.2811 c 0.0513,0.1133 0.0825,0.2287 0.0933,0.3449 0.0107,0.1162 -0.005,0.2274 -0.0468,0.3325 -0.0439,0.1129 -0.1063,0.2132 -0.1897,0.3036 -0.0822,0.091 -0.1825,0.1778 -0.3021,0.2602 l 0.1196,0.2639 1.8238,-0.8169 1.1461,-4.4317 0.8271,1.8267 c 0.1315,0.2902 0.2098,0.5153 0.2353,0.6735 0.0261,0.1596 0.0122,0.2925 -0.0423,0.3977 -0.0422,0.0827 -0.1201,0.1703 -0.233,0.267 -0.1125,0.0947 -0.2055,0.1672 -0.2795,0.2171 l 0.1163,0.2566 2.0865,-0.9346 -0.1165,-0.2568 z m 6.0137,-3.9178 c -0.0779,0.006 -0.1539,0.0139 -0.2145,0.0145 -0.0607,0.002 -0.1384,-0.005 -0.2313,-0.0176 -0.1078,-0.0142 -0.1826,-0.055 -0.2282,-0.1213 -0.0451,-0.0684 -0.0754,-0.1426 -0.0899,-0.2226 l -0.11,-0.604 c -0.0221,-0.1225 -0.0385,-0.22 -0.0499,-0.2954 -0.011,-0.0754 -0.0238,-0.1672 -0.0388,-0.2778 -0.2716,-0.1034 -0.6593,-0.1754 -1.1611,-0.2191 -0.5028,-0.0422 -0.9541,-0.0281 -1.3558,0.0442 -0.3776,0.0678 -0.7211,0.1891 -1.0304,0.3631 -0.3104,0.1746 -0.5695,0.3977 -0.7772,0.6724 -0.2084,0.2721 -0.3544,0.5899 -0.4363,0.9513 -0.0819,0.3629 -0.083,0.7614 -0.004,1.196 0.0737,0.4042 0.2094,0.7664 0.4064,1.087 0.1985,0.3201 0.4468,0.5809 0.7467,0.7835 0.2948,0.2022 0.6344,0.3371 1.0179,0.4074 0.3833,0.0689 0.7934,0.0646 1.2302,-0.0139 0.2963,-0.0533 0.5647,-0.1389 0.8034,-0.258 0.2392,-0.1179 0.4331,-0.2338 0.5825,-0.3461 l 0.2653,0.1602 0.3164,-0.057 -0.3147,-1.9006 -0.324,0.0584 c -0.0819,0.604 -0.2284,1.0672 -0.4379,1.3912 -0.2084,0.3223 -0.512,0.5202 -0.9085,0.5916 -0.4694,0.0845 -0.8694,-0.055 -1.1999,-0.4184 -0.3308,-0.3645 -0.5616,-0.9059 -0.6925,-1.6248 -0.1389,-0.7639 -0.1219,-1.3833 0.0504,-1.8604 0.1727,-0.4771 0.4884,-0.7571 0.9491,-0.8399 0.216,-0.0388 0.4138,-0.0411 0.5924,-0.007 0.18,0.0346 0.3243,0.0862 0.4326,0.1542 l 0.1913,1.0525 c 0.0159,0.0874 0.013,0.1639 -0.008,0.2282 -0.0219,0.0658 -0.0749,0.1296 -0.1625,0.1905 -0.068,0.0468 -0.1545,0.0907 -0.261,0.1333 -0.1063,0.0422 -0.1951,0.0737 -0.2674,0.0969 l 0.0516,0.2846 2.6694,-0.4878 -0.002,-0.2889 z m -32.5768,33.0114 0.2177,2.846 0.2899,-0.0218 c 3e-4,-0.0624 9e-4,-0.1539 0.002,-0.2738 -3e-4,-0.1197 0.009,-0.203 0.0258,-0.2486 0.0301,-0.0939 0.0746,-0.161 0.133,-0.201 0.0584,-0.0388 0.1346,-0.0624 0.2287,-0.0695 l 1.8267,-0.138 0.1723,2.2541 -1.7844,0.1349 c -0.0853,0.006 -0.163,-0.006 -0.2319,-0.0371 -0.0703,-0.0303 -0.127,-0.0884 -0.1717,-0.1715 -0.0227,-0.0468 -0.0505,-0.1247 -0.082,-0.237 -0.0306,-0.1134 -0.0516,-0.2046 -0.0623,-0.2763 l -0.29,0.0221 0.218,2.8459 0.2897,-0.0218 c -0.002,-0.0623 -0.001,-0.1539 0.003,-0.2752 0.005,-0.1213 0.0147,-0.2109 0.0309,-0.2668 0.0249,-0.091 0.0697,-0.1567 0.1318,-0.1973 0.0635,-0.0391 0.1397,-0.0626 0.2302,-0.0694 l 3.7417,-0.2832 c 0.0879,-0.006 0.1616,0.003 0.2236,0.0303 0.0624,0.0258 0.1194,0.0865 0.1713,0.1792 0.0385,0.0694 0.0751,0.1621 0.1094,0.2767 0.0357,0.1142 0.0572,0.1978 0.0663,0.2494 l 0.29,-0.0221 -0.2174,-2.846 -0.2903,0.0221 c 9e-4,0.0774 -0.005,0.1695 -0.0156,0.2784 -0.0125,0.1077 -0.0252,0.1913 -0.0374,0.2497 -0.0258,0.0987 -0.0714,0.167 -0.1403,0.2027 -0.0678,0.0368 -0.1418,0.0578 -0.2217,0.0638 l -1.5797,0.1196 -0.1724,-2.2541 1.5429,-0.1168 c 0.0865,-0.006 0.1613,0.004 0.2237,0.0315 0.0609,0.0283 0.1179,0.089 0.1712,0.1817 0.0343,0.0623 0.0686,0.1459 0.1023,0.2531 0.0352,0.1054 0.0581,0.1902 0.0706,0.254 l 0.2903,-0.0218 -0.2177,-2.8463 -0.29,0.0221 c 8e-4,0.0799 -0.002,0.1692 -0.0114,0.2704 -0.009,0.1001 -0.0224,0.1914 -0.0405,0.2727 -0.0261,0.0961 -0.072,0.1633 -0.138,0.2016 -0.0675,0.0368 -0.1426,0.0589 -0.224,0.0652 l -3.7471,0.2834 c -0.089,0.007 -0.1667,-0.004 -0.2313,-0.0309 -0.0649,-0.028 -0.1219,-0.0873 -0.1712,-0.1777 -0.0287,-0.0578 -0.0581,-0.1434 -0.087,-0.2543 -0.0278,-0.1111 -0.0477,-0.2027 -0.0582,-0.2744 l -0.2899,0.0221 z"
       style="fill:#004b9d;fill-opacity:1;fill-rule:evenodd;stroke:none"
       id="path212" />
  </g>
</svg>
