<?xml version="1.0" encoding="UTF-8" standalone="no"?>
<!-- Created with Inkscape (http://www.inkscape.org/) -->

<svg
   version="1.1"
   id="svg2"
   width="107.72786"
   height="391.89917"
   viewBox="0 0 107.72786 391.89919"
   xmlns="http://www.w3.org/2000/svg"
   xmlns:svg="http://www.w3.org/2000/svg">
  <defs
     id="defs6" />
  <g
     id="g10"
     transform="matrix(1.3333333,0,0,-1.3333333,-152.8528,781.86667)">
    <path
       d="m 147.3344,467.1309 c -0.0312,0.2684 -0.0989,0.6545 -0.2084,1.1588 -0.1043,0.5088 -0.2919,0.9329 -0.5524,1.2722 -0.2554,0.3532 -0.7138,0.6029 -1.3754,0.7441 -0.6565,0.1463 -1.6517,0.2168 -2.9699,0.2168 h -8.0501 c -2.3709,0 -4.2729,0.7254 -5.716,2.1813 -1.4431,1.4559 -2.1674,3.3826 -2.1674,5.7759 0,2.7938 0.6979,4.9563 2.0894,6.4825 1.391,1.5313 3.3344,2.2944 5.8252,2.2944 h 11.067 c 0.3544,0 0.6616,0.0615 0.917,0.184 0.2501,0.1269 0.4791,0.3625 0.6826,0.7112 0.1352,0.2403 0.2396,0.5323 0.3229,0.881 0.0782,0.3489 0.1355,0.6315 0.1667,0.8526 h 1.188 v -10.2328 h -1.188 c -0.0207,0.2971 -0.0573,0.5939 -0.1145,0.9 -0.0573,0.3062 -0.1409,0.6126 -0.2501,0.9281 -0.125,0.3487 -0.3285,0.5845 -0.6097,0.707 -0.2863,0.1176 -0.6046,0.1788 -0.9641,0.1788 h -10.921 c -2.1464,0 -3.7097,-0.4288 -4.6842,-1.286 -0.9743,-0.8623 -1.4641,-2.1062 -1.4641,-3.7409 0,-1.6064 0.5366,-2.8644 1.6154,-3.7783 1.0783,-0.9139 2.6677,-1.3709 4.7622,-1.3709 h 7.3364 c 1.3028,0 2.277,0.08 2.9228,0.2404 0.6463,0.1602 1.1103,0.4096 1.3966,0.7393 0.2188,0.2404 0.4221,0.6551 0.6097,1.2487 0.1823,0.5935 0.2917,1.0082 0.3334,1.2486 h 1.2192 v -8.5368 z"
       style="fill:#004b9d;fill-opacity:1;fill-rule:nonzero;stroke:none"
       id="path174" />
    <path
       d="m 147.397,443.4681 c -0.0314,0.2588 -0.0887,0.6265 -0.172,1.1021 -0.0783,0.476 -0.2761,0.9094 -0.5942,1.2958 -0.2761,0.339 -0.7446,0.5794 -1.417,0.7256 -0.667,0.1415 -1.6467,0.2118 -2.9438,0.2118 h -15.5063 v 2.4925 l 16.7516,12.1218 h -10.171 c -1.2609,0 -2.2195,-0.0754 -2.876,-0.2262 -0.6566,-0.1557 -1.1413,-0.4006 -1.4434,-0.7396 -0.224,-0.2497 -0.4218,-0.6454 -0.599,-1.1871 -0.1721,-0.542 -0.2869,-0.9752 -0.3492,-1.2958 h -1.188 v 8.4518 h 1.188 c 0.0314,-0.358 0.104,-0.7676 0.2239,-1.2342 0.1148,-0.4615 0.2971,-0.8526 0.542,-1.1636 0.2971,-0.358 0.7398,-0.6029 1.3388,-0.7396 0.5941,-0.1321 1.5948,-0.1978 3.0064,-0.1978 h 10.2753 c 0.5105,0 0.995,0.0703 1.4485,0.2117 0.4533,0.1415 0.8442,0.3629 1.167,0.6642 0.3493,0.3203 0.6203,0.6834 0.8181,1.1027 0.2033,0.4144 0.3597,0.8855 0.4689,1.4133 h 1.188 v -7.3871 l -14.6727,-10.6191 h 8.2273 c 1.3081,0 2.2824,0.0799 2.9179,0.2355 0.641,0.1557 1.1149,0.4051 1.4174,0.7492 0.2398,0.2685 0.4376,0.6642 0.6097,1.1917 0.1667,0.5233 0.2812,0.9471 0.3438,1.2722 h 1.1566 v -8.4518 z"
       style="fill:#004b9d;fill-opacity:1;fill-rule:nonzero;stroke:none"
       id="path176" />
    <path
       d="m 126.8887,431.2579 v 10.8264 h 1.188 c 0.0207,-0.2495 0.0521,-0.6123 0.0938,-1.0928 0.0366,-0.4808 0.0989,-0.8107 0.1823,-0.9941 0.1513,-0.3393 0.3543,-0.5701 0.6046,-0.6976 0.2446,-0.1225 0.5678,-0.1834 0.9533,-0.1834 h 15.3604 c 0.3492,0 0.6567,0.0609 0.917,0.1788 0.2656,0.118 0.4793,0.3535 0.6409,0.7022 0.104,0.2166 0.2086,0.5417 0.3126,0.9751 0.1095,0.4286 0.1823,0.8008 0.224,1.1118 h 1.188 v -10.8264 h -1.188 c -0.0312,0.2732 -0.0729,0.6174 -0.1301,1.0318 -0.0573,0.4099 -0.1355,0.7586 -0.2345,1.0412 -0.1355,0.358 -0.3387,0.5984 -0.6199,0.716 -0.2818,0.1179 -0.5995,0.1794 -0.9539,0.1794 h -15.3498 c -0.3646,0 -0.6772,-0.0615 -0.9377,-0.1839 -0.2606,-0.1273 -0.4743,-0.3629 -0.6356,-0.7115 -0.0941,-0.1885 -0.1828,-0.5089 -0.2659,-0.9516 -0.0884,-0.4476 -0.1408,-0.8198 -0.1615,-1.1214 z"
       style="fill:#004b9d;fill-opacity:1;fill-rule:nonzero;stroke:none"
       id="path178" />
    <path
       d="m 147.3344,408.0379 c -0.0312,0.3016 -0.0887,0.5936 -0.1823,0.8671 -0.0938,0.2778 -0.2344,0.5604 -0.4272,0.8572 -0.2554,0.3957 -0.5263,0.7021 -0.818,0.9187 -0.292,0.2169 -0.6931,0.4289 -1.2036,0.6406 -0.6985,0.2827 -1.7249,0.6832 -3.0745,1.2014 -1.3493,0.5136 -2.8865,1.1026 -4.606,1.762 -1.5474,0.589 -3.2408,1.2251 -5.0854,1.9128 -1.8445,0.6832 -3.6104,1.3382 -5.299,1.9647 v 2.7748 c 3.4911,1.2861 7.0395,2.596 10.6452,3.9291 3.6057,1.3332 6.1064,2.2709 7.5132,2.8126 0.5108,0.2123 0.8963,0.4195 1.1568,0.6174 0.2554,0.1978 0.5264,0.5136 0.8022,0.9419 0.1931,0.3158 0.3286,0.589 0.4014,0.8294 0.0783,0.2401 0.146,0.5559 0.2084,0.9516 h 1.188 v -10.6001 h -1.1566 c -0.1355,0.9895 -0.2761,1.6582 -0.422,2.0117 -0.146,0.3487 -0.3334,0.5275 -0.5576,0.5275 -0.1145,0 -0.2344,-0.0187 -0.3594,-0.047 -0.1251,-0.0332 -0.2971,-0.0848 -0.5109,-0.1463 -0.896,-0.2965 -2.3601,-0.8288 -4.3922,-1.6019 -2.0319,-0.7724 -5.1322,-1.9218 -9.2957,-3.4389 2.5379,-0.9281 4.6792,-1.7008 6.4298,-2.3179 1.7507,-0.6171 3.2981,-1.1637 4.6426,-1.63 0.6514,-0.231 1.2609,-0.424 1.8289,-0.5748 0.5627,-0.1508 0.9902,-0.2259 1.2765,-0.2259 0.3228,0 0.5992,0.2117 0.8183,0.6358 0.2186,0.4286 0.3802,1.2155 0.4791,2.3697 h 1.2192 v -7.9432 z"
       style="fill:#004b9d;fill-opacity:1;fill-rule:nonzero;stroke:none"
       id="path180" />
    <path
       d="m 143.0203,390.0662 v 1.0741 c 0.8229,0.2684 1.662,0.7257 2.5059,1.3805 0.8495,0.6502 1.3444,1.3002 1.5006,1.9411 0.0681,0.2778 0.1148,0.6639 0.1304,1.1543 0.0159,0.4898 0.021,0.8997 0.021,1.22 v 2.8409 h -8.3786 v -2.0163 c 0,-0.5091 0.068,-0.9706 0.1981,-1.3853 0.1355,-0.4144 0.3909,-0.7914 0.7659,-1.1307 0.2344,-0.2118 0.6514,-0.4286 1.2402,-0.6452 0.5941,-0.2123 1.1097,-0.3535 1.5474,-0.4195 v -1.0743 h -9.0349 v 1.0743 c 0.4275,0.0567 0.9641,0.1979 1.6098,0.4195 0.6463,0.2259 1.0945,0.4428 1.334,0.6452 0.3702,0.3016 0.62,0.6644 0.7557,1.0789 0.1406,0.4147 0.2084,0.8903 0.2084,1.4371 v 2.0163 h -6.2527 c -0.6565,0 -1.1724,-0.0425 -1.5525,-0.1321 -0.3858,-0.0847 -0.6775,-0.2494 -0.8807,-0.4898 -0.1928,-0.2308 -0.3229,-0.5465 -0.3804,-0.9471 -0.0624,-0.4002 -0.0939,-0.947 -0.0939,-1.6392 0,-0.3206 0.005,-0.707 0.0156,-1.1591 0.0108,-0.4522 0.0417,-0.8479 0.0941,-1.1875 0.0468,-0.386 0.1248,-0.7486 0.2294,-1.0882 0.0989,-0.3342 0.2497,-0.5842 0.4427,-0.7489 0.5001,-0.4431 1.266,-0.9422 2.2927,-1.4936 1.0264,-0.5559 1.7923,-0.9187 2.3029,-1.0927 v -1.018 l -6.7527,0.3725 v 18.3972 h 1.188 c 0.0207,-0.2591 0.0623,-0.6081 0.1199,-1.0554 0.0623,-0.4428 0.1355,-0.754 0.2188,-0.9422 0.1613,-0.3487 0.3648,-0.5842 0.6146,-0.7067 0.2503,-0.1179 0.568,-0.1789 0.9535,-0.1789 h 15.2876 c 0.3699,0 0.672,0.0516 0.9119,0.1506 0.2398,0.1037 0.4532,0.3486 0.646,0.735 0.1253,0.2404 0.2344,0.5794 0.3387,1.0128 0.0989,0.4334 0.1667,0.7634 0.1979,0.9848 h 1.188 v -17.3844 z"
       style="fill:#004b9d;fill-opacity:1;fill-rule:nonzero;stroke:none"
       id="path182" />
    <path
       d="m 126.8887,364.3492 v 7.5095 c 2.1937,1.3003 3.9441,2.3743 5.2418,3.2366 1.3025,0.8575 2.8032,1.927 4.5122,3.2038 v 0.7772 h -6.5704 c -0.3649,0 -0.6721,-0.0612 -0.9275,-0.1885 -0.2554,-0.1227 -0.4692,-0.3628 -0.6407,-0.7112 -0.0836,-0.1746 -0.1669,-0.4527 -0.2503,-0.8246 -0.0887,-0.3722 -0.1457,-0.6925 -0.1771,-0.9612 h -1.188 v 10.459 h 1.188 c 0.0314,-0.2685 0.0731,-0.622 0.1304,-1.0602 0.0569,-0.4379 0.125,-0.7492 0.2083,-0.9374 0.1613,-0.3487 0.3648,-0.5842 0.6146,-0.7067 0.2503,-0.1179 0.568,-0.1789 0.9535,-0.1789 h 15.2876 c 0.3699,0 0.672,0.0516 0.917,0.1506 0.2449,0.1037 0.4586,0.3486 0.6409,0.735 0.1355,0.2968 0.2449,0.6454 0.3387,1.046 0.0887,0.405 0.1562,0.7208 0.1979,0.9516 h 1.188 v -11.0007 c 0,-2.4594 -0.4272,-4.3248 -1.2765,-5.6019 -0.8492,-1.2767 -2.1362,-1.9125 -3.8608,-1.9125 -1.5165,0 -2.7408,0.3957 -3.6632,1.1826 -0.9221,0.7866 -1.6412,1.988 -2.1622,3.5992 -0.8961,-0.6265 -1.9333,-1.3567 -3.1105,-2.1906 -1.1778,-0.8337 -2.3865,-1.7008 -3.6161,-2.6008 -0.396,-0.2872 -0.8808,-0.6735 -1.4539,-1.1682 -0.5732,-0.4898 -0.9273,-0.9235 -1.0576,-1.3051 -0.0732,-0.212 -0.1355,-0.4804 -0.1823,-0.8056 -0.0522,-0.3251 -0.0834,-0.5607 -0.0938,-0.697 z m 16.1107,9.3847 c 1.4485,0 2.5061,0.3673 3.1731,1.1024 0.6721,0.735 1.0057,1.7855 1.0057,3.1424 v 1.0976 h -9.0975 v -1.0553 c 0,-1.3615 0.3909,-2.412 1.1775,-3.1612 0.7869,-0.7492 2.0322,-1.1259 3.7412,-1.1259"
       style="fill:#004b9d;fill-opacity:1;fill-rule:nonzero;stroke:none"
       id="path184" />
    <path
       d="m 126.2948,355.8609 c 0,1.2013 0.1664,2.3178 0.4949,3.3494 0.3334,1.0366 0.7189,1.9128 1.1671,2.6336 l -1.0681,0.9519 v 1.1872 l 7.8156,0.1695 v -1.1872 c -0.7398,-0.2684 -1.5216,-0.6077 -2.3445,-1.0222 -0.8184,-0.4147 -1.5528,-0.8903 -2.2042,-1.4368 -0.6826,-0.5607 -1.2348,-1.1875 -1.6571,-1.8845 -0.4269,-0.6928 -0.6407,-1.5032 -0.6407,-2.4358 0,-1.2484 0.3388,-2.2096 1.0109,-2.8786 0.6772,-0.6644 1.5264,-0.9986 2.5531,-0.9986 0.8388,0 1.5475,0.2826 2.1203,0.8478 0.5732,0.5652 1.0684,1.4417 1.4905,2.6288 0.2761,0.7773 0.5315,1.4888 0.7656,2.1343 0.2347,0.6499 0.4743,1.258 0.7195,1.8326 0.5833,1.3144 1.4119,2.2943 2.4956,2.9304 1.0789,0.6406 2.2876,0.961 3.6213,0.961 0.8441,0 1.6571,-0.165 2.4383,-0.4992 0.7818,-0.3297 1.48,-0.8153 2.1002,-1.4511 0.5834,-0.608 1.0576,-1.3853 1.4224,-2.332 0.3697,-0.9468 0.5519,-1.9786 0.5519,-3.0952 0,-1.0885 -0.1664,-2.1061 -0.5051,-3.0532 -0.3336,-0.9468 -0.667,-1.696 -1.0057,-2.2377 l 0.917,-0.8433 v -1.1871 l -7.378,-0.1131 v 1.1874 c 0.792,0.2778 1.6047,0.5981 2.4332,0.9703 0.8286,0.3722 1.5217,0.7679 2.0687,1.1823 0.5888,0.4479 1.063,0.9709 1.412,1.5594 0.3492,0.5845 0.5264,1.2767 0.5264,2.0684 0,0.9941 -0.3127,1.8043 -0.9326,2.431 -0.6202,0.6313 -1.3916,0.9471 -2.3086,0.9471 -0.8648,0 -1.5732,-0.2733 -2.1206,-0.8198 -0.5521,-0.5513 -1.0369,-1.404 -1.4536,-2.5631 -0.2554,-0.6831 -0.5105,-1.3754 -0.7608,-2.0869 -0.2551,-0.7069 -0.5,-1.3382 -0.7344,-1.8893 -0.5732,-1.3379 -1.3601,-2.3507 -2.3658,-3.048 -1.0001,-0.6926 -2.2454,-1.0412 -3.7358,-1.0412 -0.9377,0 -1.8445,0.1978 -2.7199,0.5936 -0.8753,0.3957 -1.6047,0.928 -2.1883,1.6018 -0.6409,0.735 -1.1358,1.5877 -1.48,2.5535 -0.3489,0.9703 -0.5207,2.0965 -0.5207,3.3826"
       style="fill:#004b9d;fill-opacity:1;fill-rule:nonzero;stroke:none"
       id="path186" />
    <path
       d="m 126.8887,334.7654 v 10.8264 h 1.188 c 0.0207,-0.2495 0.0521,-0.6123 0.0938,-1.0928 0.0366,-0.4807 0.0989,-0.8107 0.1823,-0.9941 0.1513,-0.3393 0.3543,-0.57 0.6046,-0.6976 0.2446,-0.1224 0.5678,-0.1834 0.9533,-0.1834 h 15.3604 c 0.3492,0 0.6567,0.061 0.917,0.1789 0.2656,0.1179 0.4793,0.3535 0.6409,0.7021 0.104,0.2166 0.2086,0.5417 0.3126,0.9751 0.1095,0.4286 0.1823,0.8008 0.224,1.1118 h 1.188 v -10.8264 h -1.188 c -0.0312,0.2733 -0.0729,0.6174 -0.1301,1.0318 -0.0573,0.4099 -0.1355,0.7586 -0.2345,1.0412 -0.1355,0.358 -0.3387,0.5984 -0.6199,0.716 -0.2818,0.1179 -0.5995,0.1795 -0.9539,0.1795 h -15.3498 c -0.3646,0 -0.6772,-0.0616 -0.9377,-0.184 -0.2606,-0.1273 -0.4743,-0.3628 -0.6356,-0.7115 -0.0941,-0.1885 -0.1828,-0.5088 -0.2659,-0.9516 -0.0884,-0.4476 -0.1408,-0.8198 -0.1615,-1.1214 z"
       style="fill:#004b9d;fill-opacity:1;fill-rule:nonzero;stroke:none"
       id="path188" />
    <path
       d="m 142.3636,315.3614 v 1.0741 c 0.9224,0.2826 1.9071,0.7398 2.9596,1.3711 1.0525,0.6264 1.6206,1.2107 1.7036,1.743 0.0417,0.292 0.0732,0.6548 0.1043,1.0882 0.0312,0.4289 0.0471,0.8011 0.0471,1.1166 v 0.6454 h -16.9809 c -0.3646,0 -0.688,-0.0612 -0.9692,-0.1788 -0.2812,-0.1179 -0.5,-0.3535 -0.6616,-0.7022 -0.0938,-0.2072 -0.1877,-0.5368 -0.2812,-0.9796 -0.0992,-0.4476 -0.167,-0.8246 -0.2086,-1.1356 h -1.188 v 10.8831 h 1.188 c 0.0314,-0.2639 0.0731,-0.6409 0.1304,-1.1214 0.0569,-0.4805 0.125,-0.8059 0.2029,-0.9799 0.1667,-0.3581 0.3855,-0.5984 0.6565,-0.7164 0.2761,-0.1176 0.5993,-0.1788 0.9797,-0.1788 h 17.132 v 0.6454 c 0,0.3158 -0.0159,0.6877 -0.0471,1.1166 -0.0311,0.4334 -0.0626,0.7962 -0.1043,1.0882 -0.083,0.5324 -0.6511,1.1166 -1.7036,1.7433 -1.0525,0.631 -2.0372,1.0882 -2.9596,1.3709 v 1.0743 h 6.19 v -18.9675 z"
       style="fill:#004b9d;fill-opacity:1;fill-rule:nonzero;stroke:none"
       id="path190" />
    <path
       d="m 147.3656,292.4756 c -0.0417,0.33 -0.1092,0.6361 -0.1979,0.9094 -0.0938,0.2781 -0.2188,0.5417 -0.3804,0.7869 -0.2449,0.3954 -0.5576,0.7489 -0.9431,1.0553 -0.3804,0.311 -0.8076,0.6123 -1.2713,0.9045 -0.9692,0.5984 -2.0217,1.2249 -3.1575,1.8845 -1.1359,0.6594 -2.3811,1.3757 -3.7463,2.1481 -0.8651,0.5043 -1.5318,0.8153 -1.9956,0.9284 -0.4637,0.1179 -1.2662,0.1743 -2.4021,0.1743 h -3.0741 c -0.3646,0 -0.6826,-0.0615 -0.9587,-0.184 -0.2761,-0.1273 -0.5003,-0.3628 -0.6721,-0.7112 -0.0731,-0.1553 -0.167,-0.4856 -0.2812,-0.9893 -0.1202,-0.5043 -0.1879,-0.8716 -0.2086,-1.112 h -1.188 v 10.8828 h 1.188 c 0.0207,-0.2543 0.0623,-0.6262 0.1199,-1.107 0.0623,-0.4804 0.1355,-0.8152 0.2188,-1.0083 0.1613,-0.339 0.375,-0.57 0.646,-0.6973 0.2707,-0.1224 0.5993,-0.1837 0.9848,-0.1837 h 3.8194 c 0.3333,0 0.6304,0.005 0.8855,0.0142 0.2554,0.009 0.4689,0.0425 0.6409,0.0941 0.1931,0.0661 0.4428,0.1795 0.7399,0.3345 0.3024,0.1556 0.693,0.358 1.167,0.608 1.3759,0.7113 2.6785,1.3944 3.9132,2.0586 1.2297,0.6644 2.3865,1.2957 3.4648,1.8938 0.563,0.3158 1.0108,0.6315 1.355,0.947 0.3387,0.3204 0.6148,0.641 0.8285,0.9754 0.1562,0.2498 0.2707,0.5511 0.3544,0.9046 0.0779,0.3532 0.1301,0.6735 0.1508,0.9609 h 1.188 v -11.2218 h -1.188 c -0.0312,1.0316 -0.1092,1.7243 -0.2345,2.0824 -0.1301,0.3625 -0.3072,0.5417 -0.5312,0.5417 -0.1097,0 -0.3336,-0.0709 -0.6721,-0.2027 -0.3336,-0.1318 -0.8549,-0.3722 -1.5582,-0.7115 -0.6619,-0.3158 -1.5681,-0.7725 -2.73,-1.3757 -1.1622,-0.6029 -2.522,-1.3283 -4.0802,-2.1812 3.064,-1.7476 5.2055,-2.9492 6.4247,-3.604 1.2141,-0.6548 1.959,-0.9799 2.2351,-0.9799 0.3493,0 0.6098,0.1933 0.7974,0.5748 0.1823,0.3864 0.2971,1.008 0.349,1.8703 h 1.188 v -7.2649 z"
       style="fill:#004b9d;fill-opacity:1;fill-rule:nonzero;stroke:none"
       id="path192" />
    <path
       d="m 161.621,479.3391 c 0,1.4636 0.2551,2.8358 0.771,4.1165 0.5159,1.2756 1.2612,2.3879 2.2408,3.3364 0.9584,0.934 2.1413,1.6656 3.5532,2.2003 1.4123,0.5343 2.9648,0.8039 4.6528,0.8039 1.6832,0 3.2412,-0.2696 4.6741,-0.8139 1.4275,-0.5391 2.6728,-1.2997 3.7202,-2.2768 1.0315,-0.9632 1.8286,-2.1138 2.3916,-3.4616 0.568,-1.3482 0.8492,-2.7876 0.8492,-4.3237 0,-1.1072 -0.146,-2.1183 -0.443,-3.0331 -0.2914,-0.9147 -0.6251,-1.6849 -0.9899,-2.3156 l 0.8391,-0.8762 v -1.2132 l -7.9095,-0.1157 v 1.2422 c 2.4227,0.703 4.1995,1.5502 5.3356,2.5373 1.1305,0.987 1.6985,2.1855 1.6985,3.6059 0,1.7668 -0.8441,3.1102 -2.5324,4.0297 -1.6881,0.9196 -4.059,1.3816 -7.1122,1.3816 -1.7246,0 -3.1992,-0.1587 -4.4186,-0.4716 -1.2189,-0.313 -2.1989,-0.7271 -2.9435,-1.2325 -0.7767,-0.5443 -1.3445,-1.1892 -1.7093,-1.9307 -0.3594,-0.7416 -0.5417,-1.5599 -0.5417,-2.465 0,-1.3142 0.3906,-2.4843 1.167,-3.5099 0.7764,-1.0301 1.9486,-1.9689 3.5223,-2.8117 l -0.7971,-1.2129 c -0.8966,0.4045 -1.6988,0.8665 -2.4023,1.3819 -0.7087,0.5147 -1.3181,1.112 -1.8286,1.7906 -0.5579,0.7416 -0.9956,1.5602 -1.3133,2.4605 -0.3178,0.8952 -0.474,1.9545 -0.474,3.1773"
       style="fill:#004b9d;fill-opacity:1;fill-rule:nonzero;stroke:none"
       id="path194" />
    <path
       d="m 162.2149,445.2364 v 10.8323 h 1.188 c 0.0207,-0.2358 0.0521,-0.5825 0.0938,-1.0349 0.0366,-0.4527 0.0989,-0.7657 0.1823,-0.9341 0.1513,-0.3469 0.3543,-0.5876 0.6046,-0.7222 0.25,-0.1301 0.5681,-0.1976 0.9533,-0.1976 h 7.4823 v 8.5796 h -7.3103 c -0.3492,0 -0.6618,-0.0674 -0.9326,-0.2072 -0.276,-0.1346 -0.4898,-0.3705 -0.646,-0.6979 -0.0782,-0.1828 -0.1666,-0.4864 -0.2605,-0.9195 -0.0887,-0.4383 -0.1462,-0.7898 -0.1669,-1.0639 h -1.188 v 10.8323 h 1.188 c 0.0105,-0.2358 0.0416,-0.5828 0.0989,-1.04 0.0573,-0.4572 0.1253,-0.7943 0.2086,-1.0012 0.1301,-0.3373 0.3334,-0.5729 0.599,-0.7078 0.271,-0.1301 0.589,-0.1973 0.9589,-0.1973 h 15.3292 c 0.3595,0 0.6565,0.0576 0.9012,0.178 0.2452,0.1157 0.4586,0.3612 0.6412,0.7271 0.1355,0.2741 0.2551,0.6353 0.3594,1.0783 0.1091,0.4431 0.1721,0.7656 0.1928,0.9629 h 1.188 V 458.871 h -1.188 c -0.0207,0.2934 -0.0732,0.6401 -0.1511,1.0494 -0.0834,0.4042 -0.1616,0.7175 -0.2296,0.934 -0.1352,0.3657 -0.3436,0.6115 -0.6356,0.7268 -0.2863,0.1205 -0.5938,0.1783 -0.9221,0.1783 h -6.4715 v -8.5796 h 6.3204 c 0.3544,0 0.6565,0.0629 0.9015,0.1831 0.2398,0.1253 0.4532,0.3708 0.6409,0.7367 0.1196,0.2455 0.2344,0.5729 0.3384,0.9871 0.1097,0.409 0.1772,0.7364 0.2087,0.9819 h 1.188 v -10.8323 h -1.188 c -0.0207,0.303 -0.0624,0.6403 -0.1304,1.0205 -0.0675,0.3755 -0.1511,0.7171 -0.2503,1.0207 -0.1352,0.3563 -0.3436,0.5967 -0.6251,0.722 -0.2866,0.1205 -0.5989,0.1831 -0.9326,0.1831 h -15.3499 c -0.3648,0 -0.6774,-0.0626 -0.9328,-0.1831 -0.2554,-0.1253 -0.4689,-0.3657 -0.6407,-0.722 -0.0992,-0.2265 -0.193,-0.5587 -0.2763,-0.987 -0.078,-0.4286 -0.1304,-0.7798 -0.1511,-1.0542 z"
       style="fill:#004b9d;fill-opacity:1;fill-rule:nonzero;stroke:none"
       id="path196" />
    <path
       d="m 181.4675,425.3264 c -0.9797,-0.9819 -2.1569,-1.7671 -3.543,-2.3445 -1.3859,-0.5777 -2.9597,-0.8666 -4.7313,-0.8666 -1.5784,0 -3.079,0.2455 -4.5017,0.7316 -1.4276,0.4913 -2.6521,1.194 -3.6837,2.1138 -1.0681,0.9675 -1.8966,2.1084 -2.4959,3.4132 -0.5941,1.3048 -0.8909,2.8599 -0.8909,4.6653 0,1.4587 0.2602,2.8358 0.7764,4.1306 0.521,1.2952 1.2765,2.4364 2.2612,3.4231 0.9692,0.9774 2.1416,1.7527 3.5274,2.3256 1.3859,0.5729 2.9231,0.8617 4.627,0.8617 1.7663,0 3.3764,-0.2792 4.8147,-0.8376 1.4377,-0.5584 2.6728,-1.3289 3.6992,-2.3063 1.0108,-0.9674 1.7872,-2.1183 2.3289,-3.4469 0.5471,-1.3292 0.8181,-2.7442 0.8181,-4.2514 0,-1.4925 -0.2659,-2.8933 -0.792,-4.2029 -0.5315,-1.3145 -1.2713,-2.4458 -2.2144,-3.4087 z m -15.5169,3.6204 c 0.9329,-0.4235 1.98,-0.7271 3.1578,-0.9147 1.1722,-0.1877 2.4957,-0.2841 3.9756,-0.2841 1.2555,0 2.4801,0.082 3.6681,0.2458 1.188,0.1636 2.2459,0.4476 3.1733,0.8422 0.9326,0.4045 1.6776,0.9388 2.2352,1.6083 0.5626,0.669 0.8441,1.4973 0.8441,2.4937 0,1.7045 -0.8756,2.9993 -2.626,3.8854 -1.751,0.881 -4.2208,1.3238 -7.4146,1.3238 -1.36,0 -2.6368,-0.0961 -3.8455,-0.2888 -1.2033,-0.1925 -2.2507,-0.4958 -3.1521,-0.91 -0.9068,-0.4235 -1.6154,-0.9578 -2.1206,-1.6078 -0.5057,-0.65 -0.7554,-1.4493 -0.7554,-2.4026 0,-0.9292 0.2551,-1.7283 0.7656,-2.3976 0.5108,-0.6644 1.2087,-1.1987 2.0945,-1.5936"
       style="fill:#004b9d;fill-opacity:1;fill-rule:nonzero;stroke:none"
       id="path198" />
    <path
       d="m 182.7232,397.6747 c -0.0311,0.2645 -0.0884,0.6404 -0.1717,1.1265 -0.0783,0.4861 -0.2761,0.9292 -0.5942,1.3241 -0.2761,0.3464 -0.7449,0.5918 -1.4173,0.7412 -0.667,0.1446 -1.6464,0.2166 -2.9438,0.2166 h -15.5063 v 2.5472 l 16.7516,12.3874 h -10.1707 c -1.2612,0 -2.2198,-0.0771 -2.8763,-0.231 -0.6565,-0.159 -1.141,-0.4093 -1.4434,-0.7557 -0.224,-0.2554 -0.4218,-0.6597 -0.599,-1.2136 -0.1721,-0.5536 -0.2866,-0.9963 -0.3492,-1.3237 h -1.188 v 8.6369 h 1.188 c 0.0314,-0.3657 0.1043,-0.7847 0.2242,-1.2615 0.1145,-0.4717 0.2971,-0.8711 0.5417,-1.1891 0.2971,-0.3657 0.7401,-0.6163 1.3391,-0.7557 0.5941,-0.1349 1.5945,-0.2021 3.0064,-0.2021 h 10.275 c 0.5105,0 0.9953,0.072 1.4488,0.2165 0.4533,0.1443 0.8439,0.3708 1.167,0.6787 0.349,0.3274 0.62,0.6984 0.8178,1.1267 0.2033,0.4235 0.3597,0.9051 0.4692,1.4443 h 1.188 v -7.549 l -14.6727,-10.8518 h 8.2272 c 1.308,0 2.2822,0.0819 2.9177,0.2406 0.6412,0.159 1.1152,0.4142 1.4174,0.7657 0.2398,0.2744 0.4376,0.6786 0.6097,1.2177 0.1667,0.5346 0.2812,0.9681 0.3438,1.3 h 1.1569 v -8.6369 z"
       style="fill:#004b9d;fill-opacity:1;fill-rule:nonzero;stroke:none"
       id="path200" />
    <path
       d="m 171.0309,374.6358 c -0.0312,0.2934 -0.0675,0.5485 -0.1091,0.775 -0.0366,0.2262 -0.1202,0.5103 -0.2401,0.8476 -0.1352,0.3898 -0.3544,0.6401 -0.6563,0.7651 -0.3072,0.1204 -0.6307,0.1831 -0.964,0.1831 h -2.5217 c -0.5108,0 -0.917,-0.005 -1.2297,-0.0145 -0.3126,-0.01 -0.6931,-0.0241 -1.1514,-0.0433 -0.6151,0.9388 -1.1883,2.33 -1.73,4.1643 -0.5366,1.8392 -0.8076,3.5246 -0.8076,5.065 0,1.4493 0.2395,2.8068 0.7192,4.0731 0.4793,1.271 1.1931,2.3831 2.1515,3.3412 0.9484,0.9581 2.1262,1.7141 3.5277,2.2629 1.4068,0.5488 3.0166,0.8232 4.8299,0.8232 1.6883,0 3.2514,-0.26 4.6897,-0.7753 1.438,-0.5196 2.6727,-1.2663 3.7097,-2.2434 1.0318,-0.9581 1.8238,-2.1279 2.3862,-3.5047 0.5578,-1.3771 0.839,-2.9033 0.839,-4.5785 0,-1.1364 -0.1511,-2.1909 -0.4583,-3.1587 -0.3025,-0.9674 -0.6305,-1.7668 -0.9746,-2.3972 l 0.8391,-0.8765 v -1.2132 l -7.9095,-0.1154 v 1.2418 c 2.3811,0.7127 4.1476,1.5696 5.3041,2.5663 1.1515,0.9918 1.73,2.2532 1.73,3.7746 0,1.8005 -0.8546,3.1918 -2.5636,4.174 -1.7144,0.9822 -4.0694,1.4731 -7.0708,1.4731 -3.1887,0 -5.6792,-0.4813 -7.482,-1.4442 -1.8029,-0.9629 -2.7043,-2.3253 -2.7043,-4.0921 0,-0.8283 0.1355,-1.5647 0.4014,-2.2051 0.2707,-0.6451 0.5834,-1.146 0.9377,-1.5023 h 4.3926 c 0.3648,0 0.6721,0.0629 0.9167,0.1831 0.2503,0.1253 0.4691,0.3659 0.6514,0.7319 0.1409,0.2837 0.2554,0.6352 0.3492,1.059 0.0939,0.4238 0.1562,0.775 0.1979,1.059 h 1.188 v -10.3989 z"
       style="fill:#004b9d;fill-opacity:1;fill-rule:nonzero;stroke:none"
       id="path202" />
    <path
       d="m 181.4675,355.621 c -0.9797,-0.9819 -2.1626,-1.7671 -3.5484,-2.3445 -1.3805,-0.5777 -2.9594,-0.8665 -4.731,-0.8665 -2.5166,0 -4.726,0.5822 -6.6328,1.7427 -1.9018,1.1602 -3.2723,2.802 -4.106,4.93 -1.2138,-0.0289 -2.2663,-0.3659 -3.1521,-1.0159 -0.891,-0.6497 -1.334,-1.4202 -1.334,-2.306 0,-0.544 0.0365,-1.0256 0.1043,-1.4349 0.0728,-0.409 0.1511,-0.7798 0.2398,-1.1072 h -1.3343 c -0.2395,0.5343 -0.4841,1.3334 -0.7344,2.3879 -0.2449,1.0545 -0.3702,2.1569 -0.3702,3.3171 0,1.5792 0.5108,2.884 1.5321,3.9047 1.0264,1.0205 2.4542,1.5934 4.2829,1.7138 0.1409,1.3286 0.5003,2.5662 1.0681,3.712 0.5731,1.1458 1.3391,2.1569 2.3082,3.0283 0.959,0.8572 2.0948,1.5361 3.4075,2.0366 1.3133,0.5055 2.7567,0.7558 4.3354,0.7558 1.7716,0 3.3817,-0.2792 4.8194,-0.8377 1.4434,-0.5584 2.6785,-1.3289 3.7049,-2.3062 1.0108,-0.9675 1.7872,-2.1184 2.3289,-3.447 0.5471,-1.3291 0.8181,-2.7442 0.8181,-4.2514 0,-1.4924 -0.2659,-2.8933 -0.792,-4.2029 -0.5315,-1.3144 -1.2713,-2.4457 -2.2144,-3.4087 z m -15.5426,3.6204 c 0.9325,-0.4234 1.9851,-0.727 3.1575,-0.9147 1.1775,-0.1876 2.5061,-0.284 3.9858,-0.284 1.2611,0 2.4857,0.0819 3.6737,0.2457 1.1931,0.1636 2.2507,0.4476 3.1835,0.8422 0.9273,0.4045 1.6722,0.9388 2.2352,1.6084 0.5626,0.669 0.8441,1.4973 0.8441,2.4936 0,1.7045 -0.8756,2.9994 -2.6314,3.8855 -1.7507,0.881 -4.2256,1.3238 -7.4248,1.3238 -1.36,0 -2.6419,-0.0961 -3.8505,-0.2889 -1.2039,-0.1925 -2.2561,-0.4958 -3.1576,-0.9099 -0.9065,-0.4235 -1.6151,-0.9578 -2.1208,-1.6078 -0.5052,-0.65 -0.7606,-1.4494 -0.7606,-2.4027 0,-0.9292 0.2554,-1.7283 0.7659,-2.3975 0.5108,-0.6645 1.2141,-1.1988 2.1,-1.5937"
       style="fill:#004b9d;fill-opacity:1;fill-rule:nonzero;stroke:none"
       id="path204" />
    <path
       d="m 162.2149,339.9574 v 11.0639 h 1.188 c 0.0207,-0.2552 0.0521,-0.6259 0.0938,-1.1169 0.0366,-0.4912 0.0989,-0.8283 0.1823,-1.0159 0.1513,-0.347 0.3543,-0.5825 0.6046,-0.7127 0.2446,-0.1252 0.5681,-0.1876 0.9533,-0.1876 h 15.3606 c 0.349,0 0.6565,0.0624 0.9168,0.1828 0.2659,0.1202 0.4793,0.3612 0.6412,0.7175 0.104,0.2214 0.2083,0.5533 0.3123,0.9964 0.1095,0.4382 0.1826,0.8186 0.2243,1.1364 h 1.188 v -11.0639 h -1.188 c -0.0315,0.2795 -0.0732,0.6309 -0.1304,1.0544 -0.0573,0.419 -0.1355,0.7753 -0.2345,1.0642 -0.1355,0.3659 -0.3387,0.6114 -0.6199,0.7316 -0.2815,0.1205 -0.5992,0.1831 -0.9536,0.1831 h -15.3499 c -0.3648,0 -0.6774,-0.0626 -0.9379,-0.1876 -0.2605,-0.1302 -0.4743,-0.3708 -0.6356,-0.7271 -0.0941,-0.1928 -0.1825,-0.5202 -0.2656,-0.9726 -0.0887,-0.4575 -0.1411,-0.8376 -0.1618,-1.146 z"
       style="fill:#004b9d;fill-opacity:1;fill-rule:nonzero;stroke:none"
       id="path206" />
    <path
       d="m 182.7232,315.6041 c -0.0311,0.2644 -0.0884,0.6403 -0.1717,1.1265 -0.0783,0.4861 -0.2761,0.9291 -0.5942,1.324 -0.2761,0.3464 -0.7449,0.5919 -1.4173,0.7413 -0.667,0.1445 -1.6464,0.2165 -2.9438,0.2165 h -15.5063 v 2.5473 l 16.7516,12.3874 h -10.1707 c -1.2612,0 -2.2198,-0.0771 -2.8763,-0.2311 -0.6565,-0.159 -1.141,-0.4093 -1.4434,-0.7557 -0.224,-0.2554 -0.4218,-0.6596 -0.599,-1.2135 -0.1721,-0.5536 -0.2866,-0.9964 -0.3492,-1.3238 h -1.188 v 8.6369 h 1.188 c 0.0314,-0.3657 0.1043,-0.7846 0.2242,-1.2614 0.1145,-0.4717 0.2971,-0.8711 0.5417,-1.1891 0.2971,-0.3657 0.7401,-0.6163 1.3391,-0.7558 0.5941,-0.1349 1.5945,-0.2021 3.0064,-0.2021 h 10.275 c 0.5105,0 0.9953,0.072 1.4488,0.2166 0.4533,0.1443 0.8439,0.3708 1.167,0.6786 0.349,0.3274 0.62,0.6985 0.8178,1.1268 0.2033,0.4235 0.3597,0.9051 0.4692,1.4442 h 1.188 v -7.5489 l -14.6727,-10.8519 h 8.2272 c 1.308,0 2.2822,0.0819 2.9177,0.2407 0.6412,0.159 1.1152,0.4141 1.4174,0.7656 0.2398,0.2744 0.4376,0.6786 0.6097,1.2178 0.1667,0.5346 0.2812,0.968 0.3438,1.2999 h 1.1569 v -8.6368 z"
       style="fill:#004b9d;fill-opacity:1;fill-rule:nonzero;stroke:none"
       id="path208" />
    <path
       d="m 171.0309,292.5652 c -0.0312,0.2934 -0.0675,0.5485 -0.1091,0.775 -0.0366,0.2262 -0.1202,0.5102 -0.2401,0.8475 -0.1352,0.3898 -0.3544,0.6401 -0.6563,0.7651 -0.3072,0.1205 -0.6307,0.1831 -0.964,0.1831 h -2.5217 c -0.5108,0 -0.917,-0.005 -1.2297,-0.0144 -0.3126,-0.01 -0.6931,-0.0241 -1.1514,-0.0434 -0.6151,0.9388 -1.1883,2.3301 -1.73,4.1644 -0.5366,1.8391 -0.8076,3.5246 -0.8076,5.0649 0,1.4494 0.2395,2.8069 0.7192,4.0731 0.4793,1.2711 1.1931,2.3831 2.1515,3.3412 0.9484,0.9581 2.1262,1.7141 3.5277,2.2629 1.4068,0.5488 3.0166,0.8232 4.8299,0.8232 1.6883,0 3.2514,-0.2599 4.6897,-0.7753 1.438,-0.5196 2.6727,-1.2662 3.7097,-2.2433 1.0318,-0.9581 1.8238,-2.128 2.3862,-3.5048 0.5578,-1.377 0.839,-2.9032 0.839,-4.5785 0,-1.1364 -0.1511,-2.1909 -0.4583,-3.1586 -0.3025,-0.9675 -0.6305,-1.7669 -0.9746,-2.3973 l 0.8391,-0.8765 v -1.2132 l -7.9095,-0.1154 v 1.2419 c 2.3811,0.7126 4.1476,1.5695 5.3041,2.5662 1.1515,0.9919 1.73,2.2533 1.73,3.7746 0,1.8006 -0.8546,3.1918 -2.5636,4.174 -1.7144,0.9822 -4.0694,1.4732 -7.0708,1.4732 -3.1887,0 -5.6792,-0.4813 -7.482,-1.4442 -1.8029,-0.963 -2.7043,-2.3253 -2.7043,-4.0921 0,-0.8283 0.1355,-1.5648 0.4014,-2.2051 0.2707,-0.6452 0.5834,-1.1461 0.9377,-1.5024 h 4.3926 c 0.3648,0 0.6721,0.063 0.9167,0.1831 0.2503,0.1253 0.4691,0.366 0.6514,0.7319 0.1409,0.2838 0.2554,0.6353 0.3492,1.0591 0.0939,0.4238 0.1562,0.775 0.1979,1.059 h 1.188 v -10.3989 z"
       style="fill:#004b9d;fill-opacity:1;fill-rule:nonzero;stroke:none"
       id="path210" />
    <path
       d="m 153.2815,564.3655 c 1.1676,0.1131 2.3454,0.1139 3.5132,0.002 l 0.8005,2.2646 0.0358,-0.005 c 1.8824,-0.2341 3.7253,-0.7302 5.4745,-1.4632 l 0.0332,-0.0139 -0.4408,-2.3687 c 1.0664,-0.4872 2.0863,-1.076 3.0416,-1.7557 l 1.8269,1.5621 0.0286,-0.0215 c 1.4749,-1.1157 2.7944,-2.4313 3.9226,-3.8962 l 0.0309,-0.0403 h -1.6373 l 0.0485,0.0564 c -0.6843,0.8042 -1.4329,1.5531 -2.2368,2.2374 l -1.8066,-1.5443 -0.0286,0.0235 c -1.4051,1.1364 -2.9843,2.0458 -4.6684,2.6997 l -0.0345,0.0134 0.4345,2.338 c -0.9944,0.3549 -2.0174,0.6281 -3.0557,0.8172 l -0.7929,-2.2425 -0.0366,0.006 c -0.8912,0.1434 -1.794,0.2103 -2.6966,0.2103 -0.9025,0 -1.8053,-0.0669 -2.6966,-0.2103 l -0.0365,-0.006 -0.7926,2.2425 c -1.0386,-0.1891 -2.0616,-0.4623 -3.0557,-0.8169 l 0.4345,-2.3383 -0.0346,-0.0134 c -1.6843,-0.6539 -3.2632,-1.563 -4.6683,-2.6997 l -0.029,-0.0235 -1.8062,1.5443 c -0.8039,-0.6845 -1.5528,-1.4332 -2.2371,-2.2371 l 0.0485,-0.0567 h -1.637 l 0.0309,0.0403 c 1.1282,1.4649 2.4474,2.7805 3.9223,3.8962 l 0.0286,0.0215 1.8244,-1.5599 c 0.9555,0.6809 1.9763,1.2688 3.0441,1.7547 l -0.4405,2.3675 0.0332,0.0139 c 1.7492,0.733 3.592,1.2291 5.4745,1.4632 l 0.0354,0.005 0.8017,-2.2668 z"
       style="fill:#004b9d;fill-opacity:1;fill-rule:evenodd;stroke:none"
       id="path212" />
    <path
       d="m 155.0375,562.0399 c 3.7157,0 7.1357,-1.2639 9.8547,-3.3845 h -1.0142 c -2.5042,1.7526 -5.552,2.7819 -8.8405,2.7819 -3.2884,0 -6.336,-1.0293 -8.8401,-2.7819 h -1.0145 c 2.7193,2.1206 6.1393,3.3845 9.8546,3.3845"
       style="fill:#004b9d;fill-opacity:1;fill-rule:evenodd;stroke:none"
       id="path214" />
    <path
       d="m 175.5519,553.7353 c 1.2149,-1.3553 2.0086,-2.9764 1.9783,-5.3 0.6196,0.4839 0.8467,2.511 1.9185,3.2729 0.2565,-2.8737 -0.8538,-4.9274 -2.5943,-6.7592 -0.1208,1.8414 -1.5647,0.6911 -1.965,5.2101 0.7277,-0.4227 0.7506,-1.5611 1.8655,-2.1855 -1.2881,2.3227 -1.1619,3.4115 -1.203,5.7617 z m -3.4467,-22.2696 c 0.0193,-0.252 0.055,-0.4986 0.0802,-0.6375 -0.6488,-0.1885 -1.2823,-0.4325 -1.8827,-0.8388 0.9346,1.2102 1.296,3.0538 1.0862,4.3716 -1.5315,-2.1619 -3.6547,-3.8367 -3.4469,-6.203 -0.0184,-0.1474 -0.0136,-0.421 -0.005,-0.6333 -0.7495,-0.2236 -1.4604,-0.5576 -2.147,-1.1072 -0.1284,-0.1026 -0.2916,-0.3067 -0.322,-0.263 -0.0306,0.0439 0.1503,0.2301 0.2611,0.3713 0.8708,1.11 1.4253,2.6161 1.9122,3.793 -3.249,-2.503 -4.1074,-2.404 -5.8132,-4.5663 -0.4851,-0.6145 -2.6419,-1.0573 -3.3421,-1.1971 -0.167,-0.0334 -0.1664,-0.2619 -0.006,-0.2477 0.7959,0.0692 2.224,-0.0258 2.7708,-0.2353 2.8415,-1.0893 5.061,-0.5142 8.0278,1.0644 -1.5622,-0.136 -3.1264,-0.0419 -4.6934,0.3929 0.2583,0.0859 0.5043,0.3197 0.775,0.2577 3.3965,-0.7813 5.7572,0.4904 8.0856,2.9273 -2.0211,-0.5145 -3.5847,-0.6984 -5.1461,-1.0905 l 0.003,0.008 c 0.0992,0.2993 0.5686,0.5241 0.5698,0.5247 2.3224,1.0128 4.875,0.1125 7.2734,4.0073 -1.2113,-0.7551 -2.4582,-0.9289 -3.6947,-1.2645 0.003,0.1927 -0.0181,0.4357 0.1148,0.6783 1.7702,1.7223 4.0147,0.9757 6.2093,5.8266 -1.1259,-0.1573 -2.2654,-1.1137 -3.2363,-1.8397 0.0677,0.2478 0.1987,0.5746 0.3586,0.8643 1.9105,1.6914 3.7732,2.9568 4.0657,5.6721 -0.6046,-0.6077 -1.6364,-1.2163 -2.4015,-1.6579 1.3714,2.0556 2.6858,4.4212 2.4083,7.423 -0.5389,-2.4704 -2.058,-2.7521 -2.9347,-4.6372 -0.4947,1.446 -1.0514,2.2454 -1.8391,3.1794 -0.2228,-4.2333 1.4034,-4.0728 1.5417,-7.1223 l -0.6111,-0.4817 c 0.001,1.4695 -0.5105,2.9744 -1.2475,4.2013 -0.1038,-2.2179 -0.9573,-4.8722 0.3634,-6.7527 0.1122,-0.377 0.0983,-0.6732 0.0654,-0.8586 -0.5108,-0.3711 -0.9629,-0.6523 -1.3235,-0.6803 0.2248,1.2914 0.2231,2.7496 -0.2794,4.0549 -0.3479,-2.3729 -1.971,-4.2803 -1.5991,-7.3032"
       style="fill:#004b9d;fill-opacity:1;fill-rule:evenodd;stroke:none"
       id="path216" />
    <path
       d="m 134.5235,553.7353 c -1.2152,-1.3553 -2.0086,-2.9764 -1.9783,-5.3 -0.6199,0.4839 -0.847,2.511 -1.9188,3.2729 -0.2565,-2.8737 0.8541,-4.9274 2.5943,-6.7592 0.1207,1.8414 1.5647,0.6911 1.965,5.2101 -0.7277,-0.4227 -0.7504,-1.5611 -1.8655,-2.1855 1.2881,2.3227 1.1619,3.4115 1.2033,5.7617 z m 3.4464,-22.2696 c -0.019,-0.252 -0.055,-0.4986 -0.0803,-0.6375 0.6489,-0.1885 1.2824,-0.4325 1.8828,-0.8388 -0.9346,1.2102 -1.296,3.0538 -1.0859,4.3716 1.5312,-2.1619 3.6544,-3.8367 3.4466,-6.203 0.0187,-0.1474 0.0136,-0.421 0.006,-0.6333 0.7492,-0.2236 1.4601,-0.5576 2.1466,-1.1072 0.1285,-0.1026 0.2917,-0.3067 0.3223,-0.263 0.0304,0.0439 -0.1505,0.2301 -0.2613,0.3713 -0.8708,1.11 -1.4253,2.6161 -1.9123,3.793 3.2494,-2.503 4.1074,-2.404 5.8133,-4.5663 0.485,-0.6145 2.6419,-1.0573 3.3421,-1.1971 0.1669,-0.0334 0.1664,-0.2619 0.006,-0.2477 -0.796,0.0692 -2.224,-0.0258 -2.7708,-0.2353 -2.8415,-1.0893 -5.061,-0.5142 -8.0278,1.0644 1.5622,-0.136 3.1264,-0.0419 4.6934,0.3929 -0.2583,0.0859 -0.5043,0.3197 -0.775,0.2577 -3.3965,-0.7813 -5.7572,0.4904 -8.0856,2.9273 2.0211,-0.5145 3.5847,-0.6984 5.146,-1.0905 l -0.002,0.008 c -0.0989,0.2993 -0.5686,0.5241 -0.5698,0.5247 -2.3224,1.0128 -4.875,0.1125 -7.2731,4.0073 1.2112,-0.7551 2.4582,-0.9289 3.6947,-1.2645 -0.003,0.1927 0.0178,0.4357 -0.1151,0.6783 -1.7703,1.7223 -4.0147,0.9757 -6.2093,5.8266 1.1259,-0.1573 2.2654,-1.1137 3.2363,-1.8397 -0.0677,0.2478 -0.1987,0.5746 -0.3586,0.8643 -1.9102,1.6914 -3.7732,2.9568 -4.0657,5.6721 0.6046,-0.6077 1.6364,-1.2163 2.4015,-1.6579 -1.3714,2.0556 -2.6858,4.4212 -2.4083,7.423 0.5389,-2.4704 2.0579,-2.7521 2.9347,-4.6372 0.4949,1.446 1.0514,2.2454 1.8391,3.1794 0.2228,-4.2333 -1.4034,-4.0728 -1.5418,-7.1223 l 0.6115,-0.4817 c -0.002,1.4695 0.5102,2.9744 1.2472,4.2013 0.1038,-2.2179 0.9573,-4.8722 -0.3634,-6.7527 -0.1122,-0.377 -0.0983,-0.6732 -0.0655,-0.8586 0.5108,-0.3711 0.963,-0.6523 1.3235,-0.6803 -0.2247,1.2914 -0.223,2.7496 0.2795,4.0549 0.3478,-2.3729 1.971,-4.2803 1.5991,-7.3032"
       style="fill:#004b9d;fill-opacity:1;fill-rule:evenodd;stroke:none"
       id="path218" />
    <path
       d="m 155.0395,524.1495 1.1308,1.959 h -2.2618 z m 22.0059,34.5059 -22.0059,-38.122 -22.0099,38.122 c 14.6722,0 29.344,0 44.0158,0 z m -22.022,-27.1225 -1.044,1.8082 h -3.1198 l -0.5636,-0.9759 0.4805,-0.8323 z m -1.3921,2.4109 -1.2118,2.099 -1.2118,-2.099 z m -3.8157,0 1.044,1.8082 h -2.5189 l 1.044,-1.8082 z m 1.3921,2.4108 0.5159,0.8938 -0.5281,0.9145 h -2.7896 l -0.7285,-1.2617 0.3155,-0.5466 z m -0.36,2.4109 -1.044,1.8082 h -0.006 l -1.0437,-1.8082 z m -3.4855,0 1.0437,1.8082 h -2.8491 l 1.044,-1.8082 v 0 z m 1.3918,2.4109 1.0437,1.8082 h -5.6327 l 1.044,-1.8082 z m 1.0497,1.8082 1.044,-1.8082 h 3.1436 l 1.044,1.8082 z m 1.3918,-2.4109 1.224,-2.1197 1.224,2.1197 z m 3.8457,2.4109 1.0437,-1.8082 h 3.144 l 1.0437,1.8082 z m 1.3918,-2.4109 1.224,-2.1197 1.224,2.1197 z m 3.8455,2.4109 1.044,-1.8082 h 3.5473 l 1.044,1.8082 z m 1.3921,-2.4109 1.0437,-1.8082 v 0 h 0.7637 l 1.044,1.8082 z m 0.7297,-3.6748 -0.7297,1.264 h -2.7898 l -0.5279,-0.9145 0.516,-0.8938 h 3.217 z m -1.0778,1.8666 -1.044,1.8082 h -0.006 l -1.0437,-1.8082 h 2.0936 z m -2.1056,-3.0135 1.0438,-1.8082 h 0.4334 l 1.044,1.8082 z m 0.5647,-3.3888 -0.5647,0.9779 h -3.1198 l -1.044,-1.8082 h 4.2492 z m -0.9127,1.5806 -1.2119,2.0993 -1.2121,-2.0993 z m -5.7535,3.3046 0.5162,-0.8938 h 2.8133 l 0.516,0.8938 -0.5279,0.9145 h -2.7898 z m 0.864,-1.4964 1.044,-1.8082 h 0.0297 l 1.044,1.8082 z m 2.1055,3.0135 -1.0437,1.8082 h -0.006 l -1.044,-1.8082 h 2.0936 z m -19.9233,18.0816 h 37.7558 l -4.1757,-7.2325 h -29.4046 z m 5.2195,-9.0408 h 27.3166 l -1.044,-1.8079 h -25.2286 z m 15.1373,-21.0951 1.044,1.8082 h -5.046 l 1.044,-1.8082 z m 1.3918,2.4108 1.044,1.8083 h -7.8296 l 1.044,-1.8083 z m 8.3514,14.4652 h -22.4444 l -1.044,1.8083 h 24.5324 z"
       style="fill:#004b9d;fill-opacity:1;fill-rule:evenodd;stroke:none"
       id="path220" />
    <path
       d="m 155.0375,586.4 c 22.3113,0 40.398,-18.0867 40.398,-40.3979 0,-22.3112 -18.0867,-40.398 -40.398,-40.398 -22.3112,0 -40.3979,18.0868 -40.3979,40.398 0,22.3112 18.0867,40.3979 40.3979,40.3979 z m 0,-2.4108 c -20.9806,0 -37.987,-17.0065 -37.987,-37.9871 0,-20.9807 17.0064,-37.9871 37.987,-37.9871 20.9807,0 37.9871,17.0064 37.9871,37.9871 0,20.9806 -17.0064,37.9871 -37.9871,37.9871"
       style="fill:#004b9d;fill-opacity:1;fill-rule:evenodd;stroke:none"
       id="path222" />
    <path
       d="m 162.7974,574.7717 c -0.1253,-0.424 -0.2506,-0.7228 -0.3047,-1.0621 -0.021,-0.1341 0.862,0.0893 0.9476,0.0989 0.0102,10e-4 0.0198,0.002 0.0292,0.003 0.0127,0.003 0.0255,0.006 0.0382,0.01 0.1582,0.0377 0.3277,0.0533 0.4876,0.0981 l 0.4073,0.1329 0.0723,0.029 0.0814,0.0258 c 0.0263,0.0107 0.0646,0.0345 0.0666,0.0652 0.002,0.0303 -10e-4,0.0612 0.001,0.0867 0.003,0.0264 -0.032,0.0357 -0.001,0.053 0.0275,0.006 -0.0357,0.0754 0.0522,0.055 l 0.0632,-0.0292 0.0521,-0.0278 c 0.0437,-0.0283 0.0862,-0.0796 0.1225,-0.1193 0.0601,-0.0664 0.1094,-0.123 0.14,-0.1936 0.0247,-0.0553 0.0663,-0.2047 0.0689,-0.2625 l -0.007,-0.003 -0.003,-0.0357 c 0.004,-0.009 -0.0552,-0.1502 -0.0601,-0.1531 -5e-4,-0.0289 -0.0144,-0.0742 -0.0447,-0.0861 l 0.002,-0.005 c -0.0377,-0.0318 -0.0558,-0.0187 -0.1037,-0.0403 -0.0201,-0.0739 -0.2341,-0.1284 -0.2931,-0.1238 -0.004,0.0104 -0.3438,-0.0562 -0.6497,-0.1032 -0.4448,-0.0972 -0.9062,-0.1624 -1.1625,-0.2024 l -0.0261,-0.0105 -0.0124,0.004 c -0.0394,-0.006 -0.0726,-0.011 -0.099,-0.0158 -0.0697,-0.0131 -0.2174,-0.0153 -0.1973,-0.0834 0.0443,-0.1536 0.005,-0.3191 0.1817,-0.6511 0.0525,-0.0964 0.1058,-0.4663 0.148,-0.5987 0.0505,-0.1587 0.1536,-0.4597 0.2103,-0.6117 0.0488,-0.1304 0.1429,-0.3146 0.2021,-0.4507 0.0434,-0.1 0.0726,-0.2092 0.1197,-0.3047 0.1292,-0.2631 0.2242,-0.4147 0.3807,-0.6148 0.0521,-0.0658 0.1459,-0.1888 0.2015,-0.2455 0.0553,-0.0559 0.1366,-0.1262 0.1942,-0.1738 0.1309,-0.108 0.2962,-0.1871 0.4272,-0.2582 0.2352,-0.1279 0.4269,-0.2109 0.585,-0.2597 0.0768,-0.0232 0.1721,-0.0448 0.216,-0.0612 0.1117,-0.0422 0.0678,-0.0658 -0.1669,-0.1185 -0.144,-0.0317 -0.3804,-0.1145 -0.7087,-0.1346 -0.1142,-0.007 -0.2727,-0.009 -0.4093,-0.0341 -0.1619,-0.0309 -0.3782,0.0624 -0.5239,0.1477 -0.163,0.0958 -0.2607,0.1551 -0.3937,0.3354 -0.0595,0.0799 -0.108,0.2066 -0.1599,0.2939 -0.1766,0.2985 -0.3208,0.5545 -0.3875,0.7881 -0.0677,0.2134 -0.1139,0.4736 -0.1664,0.6465 -0.161,0.5276 -0.2622,0.8779 -0.3659,1.1313 -0.0354,0.0862 -0.0422,0.114 -0.1049,0.1262 -0.0527,0.0102 -0.0706,-0.0476 -0.0856,-0.0712 -0.1525,-0.2338 -0.2673,-0.5156 -0.4331,-0.7494 -0.146,-0.2047 -0.3391,-0.3646 -0.5191,-0.5315 -0.2253,-0.2087 -0.4728,-0.3929 -0.8212,-0.4439 -0.1091,-0.0154 -0.2664,-0.0139 -0.3909,-0.009 -0.2259,0.009 -0.4685,0.0932 -0.7996,0.1655 -0.3512,0.0766 -0.9403,0.1273 -1.3082,0.252 -0.364,0.1225 -0.3866,0.1908 -0.199,0.2707 0.4249,0.009 1.4465,-0.01 1.8425,0.0494 0.3807,0.0567 0.6704,0.2083 0.9893,0.4481 0.1596,0.1205 0.2778,0.2721 0.421,0.4453 0.1142,0.1375 0.2815,0.3368 0.3376,0.5196 0.034,0.0202 0.1678,0.2611 0.2905,0.5199 -0.0966,-0.007 -0.1837,0.003 -0.2608,-0.008 -0.1423,-0.0202 -0.2503,-0.0162 -0.3404,-0.0352 -0.1794,-0.0385 -0.273,-0.0913 -0.3266,-0.0972 -0.0926,-0.0105 -0.1051,-0.0108 -0.2225,-0.0255 -0.0915,-0.0116 -0.1012,-0.0559 -0.193,-0.0706 -0.0868,-0.0139 -0.0924,-0.0198 -0.1588,-0.0451 -0.045,-0.0167 -0.1145,-0.021 -0.1343,-0.0456 -0.0981,-0.0814 -0.2174,-0.0516 -0.2977,-0.1009 -0.0782,-0.007 -0.2383,0.0516 -0.2979,0.1698 -0.001,0.003 -0.0618,0.1451 -0.068,0.1598 -0.0434,0.1038 -0.0907,0.1792 -0.0978,0.1817 0.007,0.2634 0.2276,0.3569 0.3813,0.3819 l 0.2843,0.0459 c 0.1593,-0.0159 0.3673,0.0612 0.6395,0.1088 0.3603,0.063 0.792,0.061 1.1837,0.1644 0.0785,0.0207 0.1463,0.0386 0.2064,0.0536 0.0717,0.1809 0.1553,0.3776 0.2395,0.5854 0.1488,0.5765 0.6633,1.9338 0.8337,2.732 l 0.1496,0.9507 -0.013,0.002 c 0.0193,0.1204 -0.1281,0.3038 -0.1105,0.4158 v 0 l 0.013,-0.0179 c 0.004,0.025 0.008,0.0428 -0.003,0.0672 l 8e-4,10e-4 0.005,-0.007 c 0.0108,0.0686 0.0576,0.1346 0.1129,0.174 l 0.0867,-0.009 -0.004,9e-4 c 0.2254,-0.0326 0.457,-0.1386 0.6597,-0.2282 l -0.002,-0.0108 0.0422,-0.03 c 0.015,-0.003 0.0414,-0.0556 0.0422,-0.0757 0.0403,-0.0173 0.0814,-0.0567 0.0808,-0.1038 0.036,-0.0224 0.0822,-0.0734 0.0746,-0.1204 l 0.008,-10e-4 c 0.0116,-0.0706 0.0584,-0.0901 0.0502,-0.1664 0.0774,-0.0802 -0.0879,-0.3526 -0.1383,-0.4229 l -0.0156,0.002 c -0.0182,-0.1148 -0.0706,-0.2741 -0.1412,-0.3671 l -0.0507,-0.1327 c 2e-4,-2e-4 -0.009,-0.0181 -0.0105,-0.026 -0.2126,-0.4326 -0.5097,-1.408 -0.6869,-1.9693 l 0.008,-0.002 z"
       style="fill:#004b9d;fill-opacity:1;fill-rule:evenodd;stroke:none"
       id="path226" />
    <path
       d="m 172.821,570.4988 c 0.1579,-0.0913 0.1207,-0.1891 0.1448,-0.3217 0.0131,-0.0703 0.0581,-0.1279 0.0408,-0.2121 -0.0266,-0.134 -0.3027,-0.4223 -0.3889,-0.4396 -0.1114,-0.0218 -0.1922,-0.007 -0.3123,-0.0136 -0.0757,-0.0267 -0.1517,-0.0542 -0.2277,-0.0811 -0.2622,-0.0944 -0.5468,0.4802 -0.4671,0.7022 0.1774,0.1184 0.3708,0.1048 0.572,0.153 0.1035,0.0247 0.1769,0.11 0.2767,0.1449 0.1046,0.0368 0.2545,0.0453 0.3617,0.068 z m 6.8009,0.5471 c -0.5086,-0.1219 -1.1713,-0.2271 -1.4366,-0.309 -0.0528,-0.0139 -0.0842,-0.1315 -0.0712,-0.1678 0.0306,-0.0879 0.0802,-0.1945 0.0782,-0.2798 -0.0388,-0.032 -0.2488,-0.007 -0.3308,-0.0241 -0.1366,-0.0303 -0.1967,-0.0122 -0.3628,-0.0147 -0.2418,-0.004 -0.3308,0.0136 -0.4297,-0.0729 -0.0655,-0.0572 0.0346,-0.5173 -0.0581,-0.6718 -0.1015,-0.1678 -0.4181,-0.121 -0.4513,-0.3143 0.0836,-0.0885 0.1054,-0.1735 0.0626,-0.2747 0.0913,-0.0329 0.2719,0.007 0.4377,0.0227 0.1072,0.01 0.1758,-0.0238 0.2483,0.0391 0.0148,0.0136 0.0306,0.0269 0.0459,0.0402 -0.0255,0.1959 -0.0652,0.3663 0.0437,0.5672 0.0181,0.0343 0.0842,0.2373 0.2582,0.307 0.1134,0.0454 0.1559,0.2356 0.2557,0.2543 0.1514,0.0289 0.2758,-0.007 0.3756,-0.0507 0.2129,-0.1922 -0.0119,-0.4536 0.1015,-0.7025 0.1454,-0.0878 0.8297,0.2039 0.9907,0.2648 0.002,0.007 0.003,0.015 0.005,0.0218 -0.2639,0.2123 -0.5882,0.4042 -0.5686,0.6738 0.242,0.2634 0.7486,-0.0949 1.0386,-0.2134 0.2168,-0.0882 0.3399,0.0224 0.5142,-0.0505 0.2523,-0.1046 0.3702,-1.2866 0.0504,-1.4091 -0.6562,0.2084 -2.1225,-0.0981 -2.8825,-0.2803 -0.006,-0.0131 -0.0119,-0.0253 -0.0176,-0.0377 0.0372,-0.0601 0.0204,-0.0879 0.007,-0.1503 0.3124,-0.2545 0.6945,-0.4476 1.0415,-0.7041 0.1108,-0.0822 0.2344,-0.275 0.3603,-0.6712 0.0773,-0.243 -0.2322,-0.3198 -0.2929,-0.3932 -0.1355,-0.091 -0.261,-0.0193 -0.5283,-0.0113 -0.1551,0.004 -0.368,0.0807 -0.5511,0.1247 -0.1808,0.0439 -0.3317,0.0553 -0.5338,0.1239 -0.1618,0.0549 -0.4643,0.0977 -0.6355,0.1544 -0.3506,0.1163 -0.7092,0.2019 -1.0448,0.3045 -0.0641,0.006 -0.1245,0.0144 -0.1409,0.0272 -0.0377,-0.003 -0.0763,0.0241 -0.1038,0.047 l -0.006,-0.007 -0.1103,0.0494 0.004,-0.001 c -0.004,0.004 -0.0113,0.009 -0.0184,0.0133 -0.0303,0.0116 -0.0595,0.0232 -0.0884,0.0357 -0.0542,0.023 -0.1069,0.0465 -0.1593,0.0692 -0.0525,0.0147 -0.0978,0.0201 -0.1205,0.008 l -0.053,0.0436 -0.0596,-0.072 0.144,-0.1184 0.002,0.003 9e-4,-3e-4 c 0.0215,-0.091 0.2744,-0.1102 0.3441,-0.1672 l 0.008,0.01 0.1843,-0.07 c 0.0156,-0.0332 0.1709,-0.1179 0.2049,-0.1454 0.003,-0.0264 0.009,-0.0513 0.0301,-0.0698 v 0 l -0.004,0.003 0.009,-0.083 -2e-4,-9e-4 c 0.0252,-0.0207 0.0187,-0.0742 0.0379,-0.1003 l -0.0255,-0.0306 c 0.0465,-0.0386 0.0355,-0.0332 0.04,-0.0834 v 0 c 0.001,-0.0147 -0.0179,-0.0371 -0.0275,-0.0484 l 0.007,-0.005 -0.004,-0.1262 -0.0496,-0.072 0.009,-0.007 -0.0593,-0.0723 -0.01,0.008 -0.01,-0.0122 -0.1216,-5e-4 -0.004,-0.006 -0.1227,-0.0108 -0.004,0.003 -0.03,-0.0133 -0.0681,-0.0266 -0.0334,0.0272 c -0.0408,-0.0493 -0.0457,-0.0281 -0.1049,-0.0346 l -0.0264,0.0218 -0.0133,-0.0161 c -0.1936,0.0192 -0.2265,0.0414 -0.4102,0.0399 -0.0394,-8e-4 -0.1051,-0.003 -0.1559,-0.0249 -0.0408,-0.0173 -0.0473,-0.0439 -0.0751,-0.0709 -0.0326,-0.0312 -0.0799,-0.068 -0.0575,-0.1114 0.0212,-0.0405 0.1255,-0.0842 0.1542,-0.0949 l -9e-4,2e-4 c -0.0108,0.009 0.0204,-0.0119 0.034,-0.0153 l -0.005,0.004 c 0.0369,-0.0295 0.0947,-0.0272 0.1299,-0.0561 v 0 c 0.002,0.003 0.2959,-0.1117 0.5561,-0.2282 0.2764,-0.1239 0.6333,-0.3087 0.6406,-0.3104 l -0.005,0.004 c 0.2474,-0.1973 0.1564,-0.1584 0.2695,-0.441 l -0.0147,-0.0187 c 0.0405,-0.0341 0.0388,-0.0454 0.0436,-0.093 l -0.0311,-0.0383 0.0391,-0.032 c -0.002,-0.0904 0.0932,-0.2733 0.0238,-0.3492 -0.1732,-0.19 -0.0952,-0.1508 -0.3419,-0.0658 -0.0946,0.032 -0.2395,0.1508 -0.3282,0.191 -0.1862,0.0845 -0.347,0.1874 -0.529,0.2674 -0.2148,0.0941 -0.3911,0.2315 -0.5839,0.3157 -0.2018,0.0885 -0.2925,0.2186 -0.4592,0.2727 v 0 c 0.007,0.009 -0.1176,0.006 -0.1332,0.0185 -0.3547,-0.3943 -0.8876,-1.2751 -1.2005,-1.6731 -0.0822,-0.2437 -0.2653,-0.3364 -0.4487,-0.4776 l -0.007,0.006 -0.1599,-0.1908 0.004,0.002 c -0.0116,-0.006 -0.019,-0.0119 -0.0264,-0.0213 l 0.004,0.002 -0.1749,-0.1054 -0.0156,0.0127 c -0.051,-0.0621 -0.1123,-0.1219 -0.1471,-0.089 -0.0964,0.091 -0.3867,0.3617 -0.6829,0.6256 l 0.002,0.006 -0.0504,0.1514 0.0141,0.0173 -0.0382,0.0309 c -0.003,0.0289 -0.0644,0.1378 -0.0465,0.1596 l -0.004,0.003 c -0.003,0.038 -0.0558,0.1573 -0.0825,0.1854 l 0.002,0.002 -0.049,0.0791 c 0,0 -0.095,0.1168 -0.0998,0.1644 v 0 c -0.0167,0.1783 -0.0791,0.7132 -0.2123,0.8237 0.001,0.0233 -0.009,0.0451 -0.0264,0.0601 l 6e-4,-5e-4 -0.0383,0.1777 0.0318,0.0556 -0.0491,0.0518 c 0.002,0.01 0.004,0.019 0.007,0.0292 0.0776,0.015 0.2077,-0.1457 0.4028,-0.3518 0.1244,-0.1315 0.2574,-0.214 0.3889,-0.3574 0.1026,-0.112 0.1607,-0.2571 0.2443,-0.3606 0.0596,-0.0742 0.1072,-0.136 0.1576,-0.1746 0.0323,-0.0244 0.0771,-0.036 0.0905,-0.0473 0.015,0.0187 0.03,0.0374 0.0459,0.0572 0.2001,0.2588 0.4427,0.6582 0.6069,0.8711 0.1434,0.1865 0.3622,0.4513 0.5627,0.6667 -0.192,0.1579 -1.518,0.6866 -1.5806,0.6594 l 0.0206,0.009 c -0.1703,0.1401 -0.6071,0.2322 -0.6315,0.5069 v -3e-4 c -0.0108,-0.005 -0.005,0.0235 -0.0116,0.0331 l 0.008,0.01 c -0.0567,0.0467 -0.0646,0.1128 -0.1026,0.1695 l 0.0176,0.0212 c -0.0448,0.0394 -0.1375,0.2733 -0.0973,0.322 l -2e-4,6e-4 -0.0193,0.1228 0.007,0.008 -0.027,0.0558 v 0 c -0.0167,-0.021 -0.003,0.0544 0.0142,0.0754 l -0.0159,0.0133 c -0.002,0.0253 -0.002,0.0377 -0.013,0.0621 0.0289,0.0227 0.0907,0.1534 0.1412,0.1418 0.119,0.144 0.3461,-0.1429 0.451,-0.1429 0.492,-0.2429 0.4379,-0.3283 0.8515,-0.536 0.4583,-0.2305 1.0533,-0.5588 1.1248,-0.6174 l 0.0365,-0.017 v 0 c 0.0905,-0.0749 0.4068,-0.1517 0.5993,-0.1565 0.2282,-0.005 0.3396,0.1463 0.4612,0.2341 l 0.0878,0.007 c 0.0658,0.0108 0.1268,0.0411 0.1806,0.093 l 0.1457,0.1222 c -0.1321,0.1088 -0.1925,0.2466 -0.3155,0.3509 l 0.001,-6e-4 -0.0674,0.0675 0.008,0.0102 c -0.1469,0.1213 -0.2719,0.1811 -0.305,0.3631 l 0.005,0.005 -0.007,0.005 0.0397,0.1182 c 0.036,-0.008 0.1434,0.002 0.1717,0.0264 0.0409,-0.0222 0.201,-0.0491 0.2413,-0.0454 v 0 c 0.0286,0.004 0.0598,-0.0371 0.0791,-0.0527 l 0.0306,0.0357 -6e-4,6e-4 v 0 c 0.0777,-0.0633 0.4485,-0.0358 0.5431,-0.0241 l 0.0244,-0.0202 0.0136,0.0162 c 0.0593,-0.0196 0.116,-0.0176 0.167,-0.0471 0.0124,6e-4 0.0252,10e-4 0.0374,0.002 l 0.005,0.006 0.0247,-0.003 c 0.0603,0.005 0.1216,0.0122 0.1831,0.0122 0.066,0 0.1369,-0.025 0.1959,-0.0388 0.8299,-0.1962 1.7033,-0.2736 2.4667,-0.2923 0.007,0.008 0.013,0.0156 0.0195,0.0235 -3e-4,0.005 -5e-4,0.009 -0.001,0.0139 -0.5337,0.4649 -1.4513,0.6472 -2.1197,0.8788 -0.438,0.1519 -0.9825,0.3486 -1.3601,0.4816 -0.057,0.008 -0.1244,0.049 -0.1911,0.1077 v 0 c -0.01,0.006 -0.0195,0.01 -0.0297,0.0119 -0.0128,0.01 -0.0244,0.017 -0.0442,0.0187 -0.005,0.001 -0.0102,0.003 -0.0159,0.004 -0.009,0.007 -0.0255,0.0142 -0.036,0.0173 -0.006,0.003 -0.0116,0.007 -0.019,0.009 -0.008,0.007 -0.0156,0.0128 -0.0264,0.017 l -0.1723,0.1426 -0.0108,-0.0139 c -0.0252,0.0213 -0.0465,0.0417 -0.0757,0.0564 l -0.0884,0.0732 c -0.004,0.005 -0.009,0.011 -0.0136,0.0156 -0.006,0.0215 -0.0176,0.0357 -0.0346,0.0498 l 10e-4,0.002 -0.3254,0.2676 c -0.003,0.009 -0.008,0.0158 -0.0147,0.0223 -0.003,0.01 -0.01,0.019 -0.017,0.027 -0.005,0.0147 -0.0142,0.0337 -0.0236,0.0445 -0.002,0.0184 -0.0107,0.036 -0.0258,0.0487 v 0 l 0.0154,-0.0127 c -6e-4,0.009 -0.001,0.0173 -0.004,0.0263 l 0.0125,0.0154 -6e-4,8e-4 0.0839,0.102 c 0.006,0.008 0.0108,0.0162 0.0133,0.0241 0.006,0.007 0.01,0.0145 0.0122,0.0227 l 0.0428,0.0516 -0.0241,-0.002 v 0 c 0.0139,0.002 0.0275,0.007 0.0394,0.0162 0.005,0.003 0.0102,0.004 0.0156,0.007 h 3e-4 c 0.013,0.0153 0.0516,0.0159 0.0692,0.0173 v 0 c 0.005,5e-4 0.0204,-0.004 0.0297,-0.004 0.0136,-0.003 0.0292,-0.006 0.0431,-0.006 l 0.0672,-0.055 0.0281,0.0343 c 0.009,-10e-4 0.0181,-10e-4 0.0272,2e-4 0.009,-0.004 0.0198,-0.007 0.0309,-0.007 0.007,-0.005 0.0207,-0.01 0.0292,-0.0125 0.008,-0.006 0.0161,-0.0122 0.0266,-0.0153 0.0147,-0.0122 0.0318,-0.0286 0.0496,-0.0346 0.005,-0.004 0.01,-0.007 0.015,-0.0102 l 0.076,-0.0635 0.0167,0.021 c 0.006,-0.003 0.0128,-0.005 0.0216,-0.007 0.013,-0.009 0.0462,-0.0201 0.0623,-0.0238 0.0102,-0.005 0.0216,-0.008 0.0338,-0.008 0.0102,-0.005 0.0221,-0.008 0.0348,-0.008 0.019,-0.004 0.0241,-0.009 0.0394,-0.0218 l 0.007,0.009 c 0.007,-10e-4 0.0139,-0.002 0.0207,-0.002 0.008,-0.003 0.0164,-0.004 0.0255,-0.005 0.0108,-0.006 0.0235,-0.008 0.0366,-0.007 0.0116,-0.004 0.0195,-0.008 0.0317,-0.0104 0.0114,-0.006 0.0241,-0.009 0.0374,-0.008 0.008,-0.002 0.0165,-0.004 0.0241,-0.006 0.009,-0.007 0.0173,-0.0119 0.0255,-0.019 l 0.003,0.003 c 0.007,-0.002 0.015,-0.003 0.0221,-0.003 0.008,-0.004 0.0173,-0.007 0.0269,-0.007 0.008,-0.003 0.0185,-0.007 0.0258,-0.009 0.0182,-0.005 0.0346,-0.0153 0.055,-0.0159 0.006,-0.004 0.0142,-0.007 0.0224,-0.009 0.0502,-0.01 0.0995,-0.0205 0.1471,-0.0278 0.6197,-0.0939 1.3088,-0.741 1.7533,0.108 -0.0125,0.0587 0.0289,0.2729 -0.061,0.3004 -0.1312,-0.005 -0.3438,-0.0391 -0.4748,-0.0442 -0.1273,0.006 -0.4028,-0.0235 -0.5944,0.0253 -0.0797,0.0201 -0.15,0.0433 -0.1979,0.0686 -2e-4,0.005 -0.001,0.01 -0.001,0.0144 0.0519,0.0646 0.1114,0.1415 0.1794,0.1874 0.2957,0.1964 0.7189,0.2233 1.0403,0.3075 -0.0204,0.1001 -0.0581,0.2316 -0.0663,0.3663 -0.0159,0.2574 -0.1859,0.0714 -0.3228,0.1026 -0.1375,0.0317 0.0484,-0.0397 10e-4,-0.1962 -0.0477,-0.157 -0.4391,-0.1766 -0.5434,-0.2049 -0.1049,-0.0281 -0.2002,0.034 -0.2897,-0.0553 -0.1857,-0.1842 -0.3615,-0.6483 -0.7008,-0.4337 -0.0623,0.0386 -0.4458,0.5355 -0.3815,0.5763 0.0386,0.0927 0.1658,0.2596 0.2013,0.303 0.1318,0.1602 0.3393,0.4663 0.4005,0.7146 0.0252,0.1026 -0.006,0.1996 -0.021,0.2741 -0.01,0.0448 0.0352,0.0567 0.0581,0.0638 0.1951,-0.1315 0.3717,-0.4881 0.3836,-0.699 0.1295,-0.2724 0.5153,0.4791 0.6789,0.6041 0.1329,0.1026 0.2846,-0.0281 0.3186,-0.1049 0.0343,-0.0771 5e-4,-0.3756 -0.0873,-0.4822 -0.0879,-0.1069 0.1315,-0.1573 0.1315,-0.1573 l 0.2222,0.29 c 0,0 0.0454,0.1743 -0.0745,0.3055 -0.0825,0.0905 -0.1384,0.404 -0.095,0.5361 0.0556,0.1732 0.2863,-0.1032 0.3311,-0.0927 0.1559,-0.0148 0.2656,-0.0666 0.4158,-0.1429 0.1089,-0.0555 0.1579,-0.104 0.2543,-0.1633 0.216,-0.1318 0.01,-0.6114 0.2594,-0.6273 0.6097,0.188 1.2781,0.3648 1.887,0.5953 v -3e-4 l 0.0626,0.0241 c 0.0556,0.009 0.2098,0.0258 0.2322,0.0595 0.009,0.003 0.0173,0.008 0.0244,0.0137 0.0125,0.005 0.0402,0.0215 0.049,0.0297 0.0635,0.0369 0.1304,0.0462 0.1922,0.095 0.008,0.004 0.0238,0.0124 0.0312,0.0187 0.0153,0.006 0.0343,0.0178 0.0442,0.0303 0.0692,0.0482 0.2112,0.152 0.2095,0.2361 -9e-4,0.023 0.008,0.0301 0.0207,0.0499 0.0867,0.1415 0.0649,0.0468 0.0958,0.1846 0.008,0.011 0.0215,0.0272 0.0252,0.0402 l 0.0204,0.0315 c 0.004,-0.002 0.008,-0.003 0.0125,-0.004 0.1091,-0.0723 0.0394,-0.002 0.1284,-0.0604 0.005,-0.007 0.0119,-0.0142 0.0199,-0.0198 0.004,-0.006 0.009,-0.0111 0.0141,-0.0159 0.0196,-0.0388 0.1642,-0.161 0.1746,-0.1675 0.003,-0.005 0.006,-0.009 0.009,-0.0119 0.005,-0.0142 0.0142,-0.0247 0.0247,-0.0321 0.051,-0.0396 0.021,-0.0139 0.0536,-0.0669 0.0198,-0.0328 0.0501,-0.0643 0.0768,-0.0824 0.009,-0.008 0.013,-0.0156 0.0238,-0.0236 0.004,-0.008 0.009,-0.015 0.0156,-0.0215 0.002,-0.005 0.006,-0.0102 0.009,-0.015 0.003,-0.021 0.0151,-0.0363 0.0278,-0.0525 0.004,-0.009 0.009,-0.0181 0.017,-0.0261 0.004,-0.0147 0.0131,-0.0283 0.0258,-0.0391 0.006,-0.0139 0.0159,-0.028 0.0275,-0.0382 0.005,-0.006 0.01,-0.0114 0.0156,-0.0165 0.005,-0.008 0.0122,-0.0147 0.0204,-0.0204 0.002,-0.003 0.005,-0.006 0.007,-0.009 0.002,-0.006 0.004,-0.0111 0.007,-0.0162 0.005,-0.0215 0.007,-0.0317 0.0179,-0.0507 0.002,-0.004 0.004,-0.019 0.006,-0.0238 0.004,-0.0187 0.0138,-0.0326 0.0181,-0.0493 0.003,-0.017 0.006,-0.0363 0.0145,-0.0513 0.005,-0.0281 0.0141,-0.0176 0.007,-0.0434 -0.003,-0.0113 -0.004,-0.023 -0.003,-0.034 -0.002,-0.0176 0.004,-0.0332 0.006,-0.0505 -0.002,-0.0142 -0.003,-0.0261 0,-0.0402 0,-0.004 -5e-4,-0.008 -5e-4,-0.0114 -0.003,-0.0102 -0.003,-0.0209 -0.002,-0.0323 -0.001,-0.008 -0.001,-0.0224 -6e-4,-0.0317 -0.003,-0.0102 -0.004,-0.0202 -0.003,-0.0307 -0.006,-0.0181 -0.006,-0.0379 2e-4,-0.0561 6e-4,-0.011 -0.007,-0.0238 -0.004,-0.0439 -0.003,-0.0128 -0.003,-0.0261 -3e-4,-0.0383 -6e-4,-0.008 -0.002,-0.0153 -0.002,-0.0229 -0.003,-0.0136 -0.008,-0.0275 -0.007,-0.0414 -0.003,-0.009 -0.004,-0.0199 -0.005,-0.0289 l -0.0497,-0.0757 c -0.0167,-0.006 -0.0269,-0.0196 -0.0379,-0.0357 -0.007,-0.0105 -0.0162,-0.0151 -0.0241,-0.0261 -0.0159,-0.008 -0.0369,-0.0479 -0.0672,-0.0681 -0.0173,-0.009 -0.0366,-0.0328 -0.055,-0.0365 v 0 c -0.0136,-0.003 -0.0272,-0.005 -0.0394,-0.0122 -0.004,-9e-4 -0.009,-0.002 -0.0133,-0.004 -0.0519,-0.003 -0.1687,-0.007 -0.2152,-0.0309 -0.0113,6e-4 -0.0411,-0.002 -0.0516,-0.006 -0.0278,0.002 -0.0243,0.004 -0.049,-0.0111 -0.01,0.002 -0.0269,-5e-4 -0.036,-0.004 -0.0133,0.004 -0.0269,0.004 -0.0394,6e-4 -0.0108,3e-4 -0.0213,-6e-4 -0.0323,-6e-4 -0.1296,0.0295 -0.2574,0.0196 -0.3923,0.003 -0.0142,10e-4 -0.0326,0.008 -0.0479,0.007 -0.007,0 -0.0154,0.002 -0.0227,0.002 -0.009,0.003 -0.0176,0.005 -0.0258,0.004 l -0.0848,0.002 0.001,-10e-4 z"
       style="fill:#004b9d;fill-opacity:1;fill-rule:evenodd;stroke:none"
       id="path230" />
    <path
       d="m 149.8669,572.1486 c 0.2168,0.0399 0.3937,0.1477 0.5734,0.2537 0.1111,0.0657 0.2282,0.1389 0.3515,0.163 0.4079,0.0788 0.6857,-0.2906 0.5315,-0.694 -0.1006,-0.2633 -0.2061,-0.5247 -0.3064,-0.7883 -0.0349,-0.0924 -0.0604,-0.1885 -0.0987,-0.3107 0.1191,-0.0433 0.2189,-0.0841 0.3215,-0.1159 0.1054,-0.0326 0.2143,-0.0558 0.3209,-0.085 0.3089,-0.0848 0.3741,-0.1452 0.3809,-0.3498 0.008,-0.2296 -0.172,-0.4808 -0.3911,-0.5531 -0.2518,-0.0827 -0.476,-0.0362 -0.6764,0.135 -0.1131,0.0961 -0.227,0.1913 -0.3407,0.2871 -0.2432,-0.2846 -0.4751,-0.5482 -0.6987,-0.8186 -0.2024,-0.2447 -0.5894,-0.3121 -0.8604,-0.1403 -0.017,0.0107 -0.0323,0.024 -0.0484,0.036 -0.3459,0.2559 -0.3368,0.3441 0.0294,0.57 0.2566,0.1582 0.5055,0.3305 0.749,0.5085 0.0941,0.0689 0.1644,0.1707 0.2469,0.2591 -0.0499,0.1191 -0.0987,0.2177 -0.133,0.3212 -0.0632,0.1925 -0.01,0.2656 0.1891,0.2696 0.1083,0.002 0.2168,-9e-4 0.3441,-10e-4 0.0556,0.2087 0.1063,0.3989 0.1539,0.5769 -0.1454,0.1227 -0.2746,0.1341 -0.4169,0.0669 -0.063,-0.0301 -0.1372,-0.078 -0.1965,-0.0663 -0.2826,0.055 -0.3719,-0.1415 -0.5077,-0.326 -0.4079,-0.5539 -0.7356,-1.1515 -1.0496,-1.7598 -0.1336,-0.2579 -0.2923,-0.5034 -0.4505,-0.7477 -0.0524,-0.0811 -0.1343,-0.1457 -0.21,-0.2092 -0.1009,-0.0845 -0.2084,-0.0766 -0.2957,0.0195 -0.1142,0.1262 -0.2333,0.2514 -0.324,0.3943 -0.0825,0.1298 -0.0952,0.2815 -0.0337,0.4354 0.1327,0.33 0.3104,0.6358 0.5777,0.8671 0.481,0.4167 0.8442,0.9148 1.1245,1.4814 0.0663,0.1338 0.1607,0.2534 0.2563,0.4017 -0.0576,0.0847 -0.1163,0.1755 -0.1789,0.263 -0.0468,0.065 -0.11,0.1205 -0.1471,0.1905 -0.1128,0.2132 -0.0233,0.4051 0.2109,0.4485 0.138,0.0258 0.2809,0.0263 0.4198,0.049 0.2934,0.0482 0.4878,0.239 0.5584,0.5244 0.0249,0.1018 0.0147,0.1809 -0.0848,0.2282 -0.0904,0.0431 -0.1425,-0.009 -0.2029,-0.0748 -0.3359,-0.362 -0.6015,-0.3938 -1.0001,-0.1284 0.0649,0.1556 0.1301,0.3118 0.1933,0.4631 -0.2191,0.1599 -0.2236,0.1647 -0.3778,0.01 -0.1086,-0.1094 -0.216,-0.1752 -0.3881,-0.0785 0.0165,0.1071 0.0372,0.2128 0.0482,0.3194 0.0108,0.1072 0.0116,0.2152 0.0165,0.3175 -0.1551,0.0468 -0.2075,-0.0536 -0.2679,-0.1275 -0.044,-0.0539 -0.0834,-0.1166 -0.106,-0.1818 -0.3084,-0.8824 -0.8422,-1.648 -1.2731,-2.4669 -0.3087,-0.5877 -0.6131,-1.1781 -0.9116,-1.7708 -0.235,-0.4672 -0.4467,-0.9457 -0.6888,-1.4086 -0.2047,-0.3917 -0.4368,-0.7685 -0.6594,-1.1506 -0.03,-0.0516 -0.0697,-0.0983 -0.1097,-0.1431 -0.265,-0.2942 -0.3866,-0.271 -0.5428,0.1 -0.0235,0.055 -0.049,0.1129 -0.0873,0.1579 -0.2044,0.2407 -0.1755,0.5015 -0.0694,0.7674 0.1046,0.2613 0.2313,0.515 0.3177,0.7821 0.0445,0.1372 0.169,0.07 0.2291,0.142 0.1544,0.1854 0.3407,0.3506 0.464,0.5539 1.065,1.7569 2.118,3.5206 3.1765,5.2812 0.0731,0.1219 0.1293,0.2353 0.1202,0.3909 -0.0125,0.2126 0.1525,0.3572 0.3073,0.4552 0.1187,0.0752 0.193,0.1644 0.2641,0.273 0.2095,0.3192 0.4241,0.6353 0.6313,0.9561 0.0397,0.0607 0.0559,0.1369 0.1089,0.2722 -0.2027,-0.0797 -0.3405,-0.1299 -0.4754,-0.1877 -0.3963,-0.1706 -0.7923,-0.3427 -1.1866,-0.5182 -0.1009,-0.045 -0.1944,-0.1051 -0.2919,-0.1579 -0.4173,-0.2259 -0.8493,-0.3132 -1.3046,-0.123 -0.28,0.1168 -0.3653,0.2509 -0.3497,0.5097 0.5439,0.1378 1.0955,0.2443 1.6242,0.4209 0.5275,0.1763 1.0604,0.3583 1.5866,0.6755 -0.3564,0.2296 -0.6704,0.4377 -0.9908,0.6358 -0.1578,0.0978 -0.2571,0.2243 -0.2616,0.4122 -0.003,0.1522 0.0791,0.2293 0.2273,0.1894 0.3549,-0.0953 0.7147,-0.0908 1.0772,-0.1024 0.2143,-0.007 0.4397,-0.072 0.6355,-0.1633 0.2781,-0.1301 0.3243,-0.2959 0.218,-0.6358 0.1024,0.0338 0.1829,0.0516 0.2554,0.0865 0.2444,0.1173 0.4802,0.254 0.7297,0.3589 0.3914,0.1644 0.5278,0.0382 0.6395,-0.2529 0.0218,-0.0564 0.051,-0.11 0.0711,-0.167 0.1077,-0.303 -0.0139,-0.5453 -0.3209,-0.6326 -0.2885,-0.082 -0.5808,-0.1506 -0.8665,-0.2404 -0.0995,-0.0312 -0.2123,-0.0879 -0.2716,-0.1681 -0.4308,-0.582 -0.8498,-1.1727 -1.271,-1.7617 -0.023,-0.0321 -0.0338,-0.0726 -0.0536,-0.1168 0.0408,-0.0553 0.0762,-0.1177 0.125,-0.1661 0.1429,-0.1421 0.2163,-0.1313 0.3291,0.0343 0.0734,0.108 0.1454,0.2182 0.2299,0.3174 0.3223,0.3804 0.5992,0.7813 0.6174,1.3043 0.1882,0.1179 0.3631,0.0558 0.5181,-0.0363 0.0593,-0.0355 0.1089,-0.154 0.0987,-0.2257 -0.0289,-0.2055 -0.091,-0.4062 -0.1415,-0.6157 0.2033,-0.1454 0.2294,-0.1536 0.3909,0.004 0.1216,0.1182 0.2416,0.2478 0.324,0.3937 0.0684,0.1217 0.1523,0.1463 0.2679,0.1392 0.2155,-0.0136 0.3977,-0.1729 0.4802,-0.4033 0.0777,-0.2175 -0.01,-0.3705 -0.1789,-0.4958 -0.1615,-0.1196 -0.3132,-0.2574 -0.4881,-0.3532 -0.3518,-0.1928 -0.5683,-0.5037 -0.7792,-0.824 -0.021,-0.0321 -0.0275,-0.074 -0.0431,-0.1183 0.1207,-0.1173 0.2319,-0.1088 0.3359,0.009 0.0935,0.1052 0.1715,0.2268 0.2741,0.3215 0.0935,0.0862 0.2027,0.1704 0.32,0.212 0.18,0.0635 0.2968,-0.0207 0.3702,-0.2026 0.044,-0.1083 0.1001,-0.2146 0.1676,-0.3099 0.1176,-0.1658 0.1159,-0.3058 -0.0443,-0.4495 -0.1193,-0.1072 -0.2562,-0.1951 -0.3821,-0.2957 -0.1956,-0.1568 -0.2058,-0.1959 -0.1306,-0.4346 0.0762,-0.2423 0.0396,-0.3475 -0.184,-0.4728 -0.1928,-0.1085 -0.3946,-0.2012 -0.5879,-0.3087 -0.2276,-0.1264 -0.3552,-0.3166 -0.3923,-0.5782 z m -0.4198,2.6699 c 0.119,0.2118 0.2318,0.3898 0.3186,0.5797 0.0252,0.0553 -9e-4,0.1729 -0.0457,0.2089 -0.0382,0.0303 -0.1528,0.006 -0.2069,-0.032 -0.1979,-0.1381 -0.2784,-0.3575 -0.3838,-0.5822 0.102,-0.0562 0.1882,-0.1035 0.3178,-0.1744 z m -1.2229,-1.7634 c -0.0408,-0.1548 -0.0683,-0.258 -0.0856,-0.3237 0.0737,-0.1917 0.199,-0.3606 0.1825,-0.5145 -0.0187,-0.1718 -0.1408,-0.3521 -0.2627,-0.4881 -0.2262,-0.2529 -0.5287,-0.3036 -0.9811,0.0581 0.1346,0.5876 0.4652,0.9649 1.1469,1.2682"
       style="fill:#004b9d;fill-opacity:1;fill-rule:evenodd;stroke:none"
       id="path234" />
    <path
       d="m 133.1152,575.2837 c 0.0304,0.002 0.019,0.0295 0.1497,0.008 0.1055,-0.0507 0.1103,-0.0431 0.2171,-0.0717 0.1072,-0.0286 0.3022,-0.1726 0.4862,-0.2999 0.184,-0.1276 0.4416,-0.4584 0.5125,-0.743 0.0711,-0.2848 0.0519,-0.6383 -0.0116,-0.8869 -0.0156,-0.061 -0.1092,-0.2897 -0.1766,-0.5806 -0.0783,-0.3359 -0.1372,-0.7616 -0.2529,-1.2155 -0.0564,-0.2205 -0.1556,-0.4824 -0.2075,-0.6882 -0.0572,-0.2279 -0.0861,-0.4569 -0.1324,-0.6299 -0.0544,-0.2049 -0.119,-0.3614 -0.1425,-0.4331 -0.1301,-0.3971 -0.2954,-0.9377 -0.3994,-1.0094 0,0 0.0388,0.7086 0.0635,1.2418 0.0104,0.2305 0.0184,0.4284 0.0192,0.5219 -0.008,0.2707 0.0525,0.5556 0.0564,0.8226 0.0114,0.7251 -0.008,1.4295 -0.0138,2.2099 0.01,0.2874 -0.029,0.5437 -0.0842,0.8175 -0.0559,0.2764 -0.2138,0.8348 -0.0837,0.9366 z m 4.0394,-8.3302 0.2846,-0.2985 0.0221,-0.0139 c 0.1063,-0.1658 0.2061,-0.3676 0.269,-0.5184 0.034,-0.0811 0.0831,-0.1327 0.1154,-0.1687 0.0454,-0.0507 0.1037,-0.0241 0.2316,0.0241 0.0689,0.0261 0.1307,-0.005 0.1919,0.003 0.0811,0.0114 0.1366,-0.0306 0.167,-0.0553 0.036,-0.0289 0.1397,-0.1116 0.1706,-0.1987 0.038,-0.106 0.0403,-0.2239 0.0533,-0.2934 0.0235,-0.1261 0.0173,-0.2148 0.0173,-0.2148 -0.004,-0.1681 -0.004,-0.2506 0.0229,-0.4014 0.036,-0.205 0.0312,-0.3575 0.0312,-0.3575 0.0814,-0.0303 0.1282,0.0233 0.1857,0.0791 0.1514,0.1466 0.2721,0.4493 0.2721,0.4493 0.0842,0.2778 0.201,0.2897 0.2821,0.3484 0.0791,0.0573 0.3846,0.002 0.5471,-0.1307 0.1763,-0.1437 0.1771,-0.39 0.117,-0.4751 -0.1624,-0.2301 -0.3177,-0.3994 -0.4836,-0.6287 -0.1204,-0.1667 -0.2514,-0.3926 -0.3702,-0.5615 -0.0105,-0.0377 -0.2007,-0.1914 -0.246,-0.4184 -0.0397,-0.1987 -0.3646,-0.3566 -0.4638,-0.3354 -0.1851,0.0397 -0.6672,0.1639 -0.7339,0.3626 -0.0547,0.163 -0.1337,0.4388 -0.1536,0.483 -0.0247,0.0541 -0.006,0.5236 -0.1318,0.7909 -0.0831,0.1771 -0.1505,0.2823 -0.1902,0.3991 -0.0267,0.0779 -0.0536,0.0969 -0.1142,0.1154 0,0 -0.1097,-0.007 -0.2356,-0.0162 -0.0794,-0.006 -0.1701,-0.0833 -0.2537,-0.0777 -0.0533,0.004 -0.1888,0 -0.2302,0.0136 -0.0524,0.0176 -0.0708,0.0769 -0.0156,0.1727 0.0168,0.0289 0.0289,0.1153 0.0581,0.1496 0.0256,0.0295 0.0576,0.0644 0.0774,0.0876 0.0134,0.0159 0.0479,0.0502 0.0581,0.0607 0.1284,0.1338 0.311,0.2231 0.311,0.2231 l -0.0142,0.0385 c -0.0235,0.0516 -0.0348,0.0873 -0.091,0.1446 -0.0431,0.0445 -0.1386,0.1154 -0.2162,0.2061 -0.0638,0.0745 -0.2665,0.4396 -0.3728,0.6777 l -0.1454,0.2107 3e-4,2e-4 -0.002,0.003 -0.0638,-0.0754 c -0.0505,-0.0893 -0.0499,-0.2288 -0.1417,-0.2985 0.0127,-0.0182 -0.1143,-0.1704 -0.0856,-0.2118 l -0.0275,-0.0983 -0.0139,-0.01 c 0.0229,-0.0465 -0.008,-0.0691 0.001,-0.1151 -0.0303,-0.0209 -0.2458,-0.7852 -0.2752,-0.7426 v 0 c -0.002,-0.0117 -0.004,-0.021 -0.003,-0.0318 -0.0915,-0.0771 -0.1791,-0.0927 -0.2942,-0.123 -0.0244,0.0351 -0.1191,-0.0264 -0.1593,-0.0423 l -0.0672,0.0346 -0.004,-0.002 c -0.2602,0.1794 -0.3234,0.4708 -0.2959,0.7557 0.006,0.005 0.0416,0.2307 0.0345,0.2557 0.0205,0.062 -0.047,0.0796 -0.0116,0.2242 l -5e-4,8e-4 c 0.026,0.0681 0.0484,0.1778 0.0263,0.2489 l -0.002,0.0513 c 0.0227,0.0729 0.0281,0.1372 -0.003,0.2299 0.006,0.0292 6e-4,0.0536 0.0215,0.0788 -0.005,0.0136 0.0403,0.2214 0.0465,0.2639 0.008,0.0751 0.0318,0.1897 0.0479,0.2653 0.0233,0.0159 0.044,0.2265 0.0491,0.2659 0.003,0.002 0.007,0.4221 0.009,0.47 l 0.002,0.0221 0.0337,0.1191 c -0.0309,0.0487 0.046,0.269 0.0434,0.2727 0.006,0.032 0.0388,0.2792 0.0386,0.2798 l 0.017,0.0958 c -0.0148,0.0294 -0.0111,0.0578 -0.0258,0.0873 -0.0139,0.028 -0.0465,0.0572 -0.0604,0.0853 l -0.0785,-0.0541 c 0.0258,-0.0375 -0.0627,-0.1594 -0.1029,-0.1868 0.004,-0.006 -0.1539,-0.3385 -0.2055,-0.3739 0.0127,-0.0182 -0.0956,-0.2982 -0.127,-0.3198 0.01,-0.0139 -0.2121,-0.3642 -0.1766,-0.4155 -0.0122,-0.0542 -0.1457,-0.2926 -0.142,-0.298 -0.0505,-0.0414 -0.1449,-0.2939 -0.1236,-0.3248 -0.0136,-0.0301 -0.0151,-0.0896 -0.0414,-0.1077 l 0.003,-0.005 c -0.0224,-0.0422 -0.1083,-0.1791 -0.0896,-0.206 -0.0167,-0.0284 -0.0113,-0.0891 -0.0405,-0.1092 l 0.002,-0.002 c -0.0357,-0.116 -0.1023,-0.1877 -0.1199,-0.3113 l -0.009,-0.006 0.005,-0.008 -0.0281,-0.0776 c -0.017,-0.0927 -0.0745,-0.2381 -0.1066,-0.3515 l -0.007,-0.0369 c -0.0131,-0.0448 -0.0664,-0.2395 -0.0488,-0.2647 -0.0173,-0.0287 -0.007,-0.0905 -0.0388,-0.112 l 0.003,-0.004 c -0.0391,-0.2128 -0.2449,-0.5615 -0.2716,-0.7222 v 0 c -0.0218,-0.1188 -0.3909,-0.4034 -0.5051,-0.4198 -0.005,0.007 -0.1828,-0.0261 -0.2089,-0.0332 -0.004,0.006 -0.2492,-0.0765 -0.2906,-0.0828 -0.002,0.002 -0.5147,-0.1522 -0.5842,-0.1607 -0.01,0.0145 -0.1976,-0.0635 -0.2228,0.0539 l -0.0584,0.2701 c 0.0377,0.0502 0.0354,0.3438 0.0862,0.379 l -0.003,0.005 c 0.0119,0.0479 0.1196,0.3305 0.1162,0.3357 0.0147,0.0303 0.1154,0.1683 0.1083,0.1785 l 0.0346,0.0417 5e-4,-8e-4 c 0.1531,0.1394 1.3388,2.1662 1.3388,2.1662 0.127,0.1596 0.2234,0.5017 0.387,0.6145 l -0.004,0.006 c 0.0232,0.0499 0.2834,0.4283 0.2815,0.4314 0.026,0.0621 0.2814,0.4318 0.2794,0.4346 0.0278,0.0363 0.1914,0.2265 0.1806,0.2421 0.1134,0.0782 0.1233,0.2925 0.2169,0.3571 l -0.003,0.005 c 0.0295,0.0572 0.0491,0.1431 0.1061,0.1822 l -0.003,0.005 c 0.0246,0.0354 0.0493,0.0839 0.0221,0.1241 l 0.005,0.004 -0.334,0.4839 c 0.0162,0.0309 0.131,0.3143 0.1284,0.3177 0.0131,0.0459 0.4054,0.7124 0.4241,0.7254 -0.0502,0.009 0.0797,0.0323 0.1157,0.0746 l 0.0773,-0.042 c 0.0137,-0.0315 0.048,-0.0422 0.0667,-0.0694 0.0178,0.0121 0.0779,-0.0859 0.0907,-0.1024 l 0.004,0.0216 c -0.005,-0.0255 0.1962,-0.3408 0.2308,-0.3909 l 0.0592,0.0822 c 0.0842,0.0249 0.5403,0.4314 0.5086,0.4776 0.1921,0.1324 0.1485,0.1021 0.343,0.1256 l 0.1122,-0.0777 c 0.2752,-0.1479 0.034,-0.4212 0.0598,-0.4589 -0.021,-0.0621 -0.0255,-0.2137 -0.0652,-0.241 0.0269,-0.0391 -0.0538,-0.3852 -0.0728,-0.3982 l 0.007,-0.0105 -0.2318,-0.4159 -9e-4,-5e-4 c 0.007,-0.0108 -0.0419,-0.3725 -0.0728,-0.3983 0.008,-0.0125 0.0802,-0.5533 0.2041,-0.7327 -0.002,-0.002 0.0929,-0.1571 0.1009,-0.1704 l 0.1389,0.3025 -3e-4,2e-4 c 0.1114,0.0769 0.1071,0.3992 0.2228,0.4788 -0.023,0.0335 0.3365,0.2971 0.3217,0.2999 0.2597,0.1026 0.6599,0.1545 0.8445,-0.1131 0.006,0.034 0.1241,-0.2174 0.0459,-0.2715 0.021,-0.0301 -0.003,-0.0661 -0.007,-0.1205 l 0.001,-0.6103 c -0.005,-0.003 3e-4,-0.1009 0.007,-0.1114 -0.0235,-0.0162 -0.0425,-0.3362 -0.0445,-0.3983 l -0.004,-0.1188 c -0.0218,-0.015 -0.004,-0.2763 -0.005,-0.3415 -0.0488,-0.1185 -0.0533,-0.1874 -0.1052,-0.2795 -0.0467,-0.0834 -0.1454,-0.1619 -0.2248,-0.2642 -0.1142,-0.1959 -0.1683,-0.2089 -0.3424,-0.328 z m 0.0131,1.6333 c -0.0219,-0.2055 0.0235,-0.2871 -0.0375,-0.4498 0.0321,-0.0462 -0.0816,-0.2855 -0.1139,-0.3388 l -0.001,-0.007 -0.15,-0.1094 -0.2837,0.4113 c 0.0158,0.0111 0.009,0.0709 0.0671,0.1582 l 0.002,-0.006 0.144,0.379 0.0913,0.1474 -8e-4,-0.002 0.0657,0.1315 0.0785,0.0541 0.1018,-0.0473 c -0.01,-0.0958 0.0232,-0.2058 0.0369,-0.3212 z m -1.8766,-2.1268 c -0.0745,0.1539 -0.0244,0.5479 -0.0317,0.6942 -0.004,0.108 0.0623,0.3297 0.0728,0.3983 l 0.001,8e-4 c 0.01,0.0598 0.0847,0.3782 0.0717,0.3974 l 0.0337,0.0426 0.0445,0.0116 0.0544,-0.0678 0.1627,-0.2466 c 0.0434,-0.1 0.1415,-0.1808 0.0295,-0.3719 -0.0161,-0.0417 -0.007,-0.1057 -0.0723,-0.2378 -0.003,-0.002 -0.053,-0.0941 -0.102,-0.2078 -0.0315,-0.0737 -0.0533,-0.155 -0.0938,-0.2316 -0.04,-0.0748 -0.0822,-0.1428 -0.1231,-0.1876 -0.028,-0.0176 -0.0354,-0.0185 -0.0476,0.006"
       style="fill:#004b9d;fill-opacity:1;fill-rule:evenodd;stroke:none"
       id="path238" />
    <path
       d="m 141.4956,550.7328 v 0.5528 c 0.3141,0.005 0.5272,0.0459 0.6392,0.123 0.1123,0.0774 0.1684,0.2188 0.1684,0.4238 v 2.4023 c 0,0.2211 -0.0474,0.3651 -0.1403,0.432 -0.0933,0.0681 -0.3152,0.1046 -0.6673,0.1117 v 0.5182 c 0.3186,0.005 0.6007,0.0289 0.8478,0.0726 0.2472,0.0436 0.4666,0.2721 0.6594,0.3597 h 0.6148 v -3.8965 c 0,-0.2047 0.0581,-0.3467 0.1738,-0.4238 0.1162,-0.0771 0.3384,-0.1185 0.6672,-0.123 v -0.5528 z"
       style="fill:#004b9d;fill-opacity:1;fill-rule:evenodd;stroke:none"
       id="path240" />
    <path
       d="m 151.2607,552.8222 c -0.2158,-0.1335 -0.4371,-0.2321 -0.6622,-0.2948 -0.2237,-0.0637 -0.4635,-0.0952 -0.7194,-0.0952 -0.569,0 -1.0341,0.1451 -1.3936,0.4343 -0.3611,0.2888 -0.5408,0.6627 -0.5408,1.1202 0,0.4969 0.2117,0.8997 0.6352,1.2073 0.4238,0.309 0.9797,0.4632 1.6657,0.4632 0.7565,0 1.3402,-0.2044 1.7504,-0.614 0.4118,-0.4088 0.6168,-0.9916 0.6168,-1.7462 0,-0.8115 -0.2262,-1.4419 -0.6803,-1.891 -0.4547,-0.4492 -1.0902,-0.6735 -1.9094,-0.6735 -0.5315,0 -0.9675,0.0907 -1.3097,0.2705 -0.3427,0.18 -0.513,0.3994 -0.513,0.6584 0,0.1613 0.0558,0.2889 0.1678,0.3841 0.112,0.0953 0.2611,0.1429 0.449,0.1429 0.2931,0 0.5009,-0.1777 0.6197,-0.534 0.0158,-0.0454 0.028,-0.0791 0.0357,-0.0987 0.0306,-0.0975 0.0813,-0.1638 0.1494,-0.1998 0.0691,-0.0346 0.1851,-0.0522 0.3463,-0.0522 0.4011,0 0.7166,0.1347 0.9463,0.404 0.2301,0.2692 0.3461,0.6409 0.3461,1.1145 z m -0.0706,1.211 c 0,0.3064 -0.0785,0.5431 -0.2359,0.7104 -0.1573,0.1683 -0.3798,0.252 -0.6661,0.252 -0.2999,0 -0.5315,-0.0825 -0.6968,-0.2486 -0.1652,-0.1647 -0.2477,-0.3992 -0.2477,-0.6999 0,-0.2925 0.0799,-0.5236 0.2384,-0.6931 0.1584,-0.1684 0.3744,-0.2531 0.6477,-0.2531 0.3155,0 0.5539,0.0788 0.7166,0.2381 0.1627,0.159 0.2438,0.39 0.2438,0.6942"
       style="fill:#004b9d;fill-opacity:1;fill-rule:nonzero;stroke:none"
       id="path242" />
    <path
       d="m 167.8538,552.8222 c -0.2154,-0.1335 -0.4368,-0.2321 -0.6619,-0.2948 -0.2239,-0.0637 -0.4634,-0.0952 -0.7197,-0.0952 -0.5686,0 -1.0338,0.1451 -1.3932,0.4343 -0.3611,0.2888 -0.5411,0.6627 -0.5411,1.1202 0,0.4969 0.212,0.8997 0.6355,1.2073 0.4238,0.309 0.9794,0.4632 1.6656,0.4632 0.7566,0 1.3402,-0.2044 1.7504,-0.614 0.4119,-0.4088 0.6168,-0.9916 0.6168,-1.7462 0,-0.8115 -0.2265,-1.4419 -0.6806,-1.891 -0.4544,-0.4492 -1.0899,-0.6735 -1.9091,-0.6735 -0.5315,0 -0.9675,0.0907 -1.3099,0.2705 -0.3424,0.18 -0.5131,0.3994 -0.5131,0.6584 0,0.1613 0.0562,0.2889 0.1681,0.3841 0.1117,0.0953 0.2611,0.1429 0.4488,0.1429 0.2931,0 0.5011,-0.1777 0.6199,-0.534 0.0159,-0.0454 0.0278,-0.0791 0.0357,-0.0987 0.0306,-0.0975 0.0814,-0.1638 0.1494,-0.1998 0.0692,-0.0346 0.1851,-0.0522 0.3464,-0.0522 0.4011,0 0.7166,0.1347 0.9459,0.404 0.2305,0.2692 0.3461,0.6409 0.3461,1.1145 z m -0.0706,1.211 c 0,0.3064 -0.0782,0.5431 -0.2358,0.7104 -0.157,0.1683 -0.3796,0.252 -0.6659,0.252 -0.2999,0 -0.5315,-0.0825 -0.6967,-0.2486 -0.1653,-0.1647 -0.248,-0.3992 -0.248,-0.6999 0,-0.2925 0.0802,-0.5236 0.2386,-0.6931 0.1582,-0.1684 0.3742,-0.2531 0.6477,-0.2531 0.3155,0 0.5539,0.0788 0.7166,0.2381 0.1628,0.159 0.2435,0.39 0.2435,0.6942"
       style="fill:#004b9d;fill-opacity:1;fill-rule:nonzero;stroke:none"
       id="path244" />
    <path
       d="m 156.1003,550.7325 c 0.3903,1.5951 0.9422,1.764 2.3306,2.3171 0.6843,0.2727 0.8949,0.7951 0.8949,1.2112 0,0.2517 -0.1545,0.4462 -0.3042,0.584 -0.1496,0.138 -0.3597,0.2075 -0.6304,0.2075 -0.2129,0 -0.3977,-0.0446 -0.5525,-0.1319 -0.155,-0.0875 -0.2318,-0.1859 -0.2318,-0.2928 0,-0.0167 0.0323,-0.0802 0.0997,-0.1916 0.0672,-0.1117 0.101,-0.2242 0.101,-0.3396 0,-0.1582 -0.0618,-0.2866 -0.1874,-0.3824 -0.125,-0.0961 -0.2908,-0.144 -0.4998,-0.144 -0.2021,0 -0.3622,0.0612 -0.4796,0.1823 -0.1171,0.1224 -0.1752,0.288 -0.1752,0.4952 0,1.021 1.3315,1.4814 2.1365,1.4814 0.6602,0 1.2722,-0.1653 1.6673,-0.4354 0.7702,-0.5273 0.794,-1.8771 -0.0603,-2.3587 -0.6957,-0.3923 -2.6728,-0.3855 -2.7009,-1.0616 -0.007,-0.1607 0.0493,-0.3594 0.4434,-0.3438 0.3483,0.0136 1.8564,0.0223 2.1123,0.2191 0.1596,0.123 0.2696,0.3316 0.3935,0.5955 l 0.4875,-8e-4 0.1069,-1.6107 z"
       style="fill:#004b9d;fill-opacity:1;fill-rule:evenodd;stroke:none"
       id="path246" />
    <path
       d="m 181.4046,557.7704 c 0.0365,-0.0768 0.0771,-0.146 0.1196,-0.2055 0.0439,-0.0604 0.0935,-0.1151 0.1494,-0.1622 0.087,-0.0773 0.1856,-0.1397 0.2962,-0.1848 0.1097,-0.0468 0.229,-0.0879 0.3557,-0.1239 0.2637,-0.072 0.548,-0.1445 0.8533,-0.2191 0.3053,-0.0745 0.6398,-0.1545 1.0051,-0.2389 0.2328,-0.0573 0.4057,-0.0825 0.5174,-0.0751 0.1119,0.007 0.2933,0.0532 0.5436,0.1386 l 0.6775,0.231 c 0.0802,0.0275 0.1452,0.0663 0.1959,0.1168 0.0502,0.0513 0.0799,0.1253 0.0884,0.2228 0.003,0.0431 -0.004,0.1301 -0.0207,0.2608 -0.0155,0.1312 -0.0314,0.2253 -0.047,0.2851 l 0.2619,0.0893 0.9097,-2.6373 -0.2617,-0.0893 c -0.0258,0.0601 -0.066,0.1471 -0.1188,0.2591 -0.0541,0.1119 -0.098,0.1873 -0.1326,0.2279 -0.0641,0.0703 -0.1304,0.11 -0.2007,0.1204 -0.07,0.009 -0.1474,-5e-4 -0.2322,-0.0294 l -0.8416,-0.2872 c -0.0734,-0.0249 -0.1386,-0.0485 -0.1941,-0.07 -0.0553,-0.0215 -0.0998,-0.0456 -0.1333,-0.0712 -0.0368,-0.0303 -0.0825,-0.0765 -0.1349,-0.1366 -0.0536,-0.0604 -0.123,-0.1386 -0.2064,-0.235 -0.2437,-0.2758 -0.4736,-0.5391 -0.6902,-0.7931 -0.2152,-0.2534 -0.4175,-0.4935 -0.6049,-0.7194 -0.0978,-0.1188 -0.1701,-0.2291 -0.2194,-0.3314 -0.0479,-0.1032 -0.0819,-0.2016 -0.1012,-0.2988 -0.0133,-0.0723 -0.0133,-0.1539 -0.002,-0.2457 0.0125,-0.0916 0.0275,-0.173 0.0471,-0.2444 l -0.262,-0.0893 -0.9382,2.7199 0.2619,0.0892 c 0.093,-0.2477 0.1681,-0.4096 0.2259,-0.4869 0.059,-0.0783 0.1128,-0.1083 0.1622,-0.0916 0.0243,0.008 0.0677,0.0422 0.1312,0.0998 0.0624,0.057 0.157,0.1545 0.2838,0.2894 0.1193,0.1264 0.2809,0.3053 0.4867,0.5389 0.2055,0.2333 0.4444,0.5113 0.7163,0.8353 -0.8209,0.1931 -1.3932,0.3232 -1.7167,0.3904 -0.3223,0.0674 -0.5136,0.0901 -0.5746,0.0694 -0.0768,-0.0264 -0.1182,-0.0927 -0.1275,-0.1993 -0.008,-0.1074 0.019,-0.2664 0.0793,-0.4796 l -0.2616,-0.0893 -0.6075,1.7606 0.262,0.0896 z M 163.48,518.2665 c -0.0666,-0.0201 -0.1613,-0.0547 -0.2838,-0.1043 -0.1241,-0.0488 -0.2228,-0.1123 -0.2971,-0.1882 -0.0779,-0.0754 -0.1204,-0.192 -0.1267,-0.3493 -0.008,-0.1564 0.019,-0.3869 0.0777,-0.686 l 0.3594,-1.8303 c 0.1058,-0.5383 0.007,-1.0071 -0.2965,-1.4068 -0.3036,-0.3994 -0.7588,-0.6594 -1.3637,-0.7767 -0.7061,-0.1369 -1.2841,-0.0848 -1.7323,0.1565 -0.4493,0.2412 -0.729,0.6454 -0.8401,1.2118 l -0.4941,2.5163 c -0.0159,0.0808 -0.0451,0.1474 -0.0873,0.1995 -0.0434,0.0508 -0.1131,0.0913 -0.2104,0.1202 -0.0669,0.019 -0.1454,0.0284 -0.2372,0.0301 -0.0919,8e-4 -0.1656,0 -0.2231,-0.004 l -0.053,0.2701 2.5874,0.5032 0.0531,-0.2704 c -0.0743,-0.0193 -0.148,-0.0425 -0.2226,-0.0703 -0.0745,-0.0278 -0.1485,-0.0618 -0.2236,-0.1024 -0.0825,-0.0456 -0.133,-0.1034 -0.1514,-0.1734 -0.017,-0.0709 -0.0181,-0.1469 -0.002,-0.2279 L 160.2,514.601 c 0.0958,-0.4876 0.2741,-0.8223 0.5343,-1.0018 0.2617,-0.1791 0.5981,-0.229 1.0111,-0.1491 0.406,0.0788 0.7005,0.2628 0.8833,0.5528 0.1831,0.2903 0.2276,0.6741 0.1344,1.1503 l -0.3277,1.6682 c -0.0581,0.2962 -0.1222,0.5139 -0.1911,0.6528 -0.0691,0.1386 -0.1533,0.2322 -0.2494,0.2812 -0.0706,0.0377 -0.1845,0.0638 -0.343,0.0771 -0.1582,0.0122 -0.2679,0.0167 -0.3305,0.0145 l -0.0544,0.2772 2.1585,0.4195 z m 6.3657,2.8018 c -0.0578,-0.0346 -0.138,-0.0862 -0.2409,-0.1548 -0.1038,-0.0681 -0.1857,-0.1562 -0.2449,-0.2648 -0.0522,-0.0944 -0.0627,-0.2188 -0.0309,-0.3761 0.032,-0.1551 0.1114,-0.3691 0.2384,-0.6415 l 1.5171,-3.2593 -0.5828,-0.2684 -4.4731,2.2144 0.9952,-2.1376 c 0.1233,-0.2648 0.2348,-0.4584 0.3342,-0.5803 0.1007,-0.121 0.2053,-0.1967 0.3141,-0.2236 0.0805,-0.0201 0.1925,-0.019 0.3362,0.002 0.1437,0.0224 0.2563,0.0448 0.3373,0.0663 l 0.1163,-0.2497 -1.9761,-0.9108 -0.1162,0.2497 c 0.0805,0.0451 0.1692,0.1046 0.2665,0.18 0.0969,0.0737 0.1703,0.1542 0.2191,0.2396 0.0547,0.1009 0.0686,0.2202 0.0419,0.3608 -0.0272,0.1392 -0.11,0.3566 -0.248,0.6534 l -1.0052,2.1597 c -0.0499,0.1072 -0.1142,0.2016 -0.1913,0.2815 -0.0771,0.0799 -0.1672,0.1383 -0.2696,0.1738 -0.1088,0.0388 -0.2202,0.0566 -0.3376,0.053 -0.1168,-0.002 -0.2423,-0.0199 -0.3764,-0.0539 l -0.1162,0.25 1.7271,0.796 3.9183,-1.9395 -0.805,1.7292 c -0.1278,0.2749 -0.2421,0.4711 -0.3404,0.5879 -0.099,0.1182 -0.2039,0.1907 -0.3138,0.2174 -0.0862,0.0212 -0.1982,0.0201 -0.3385,-6e-4 -0.1383,-0.0212 -0.2489,-0.0428 -0.3308,-0.0646 l -0.1134,0.2429 1.976,0.9111 z m 5.7521,-1.8301 -2.2995,-1.571 -0.1564,0.2268 c 0.0501,0.0406 0.123,0.0989 0.2196,0.1766 0.0973,0.0768 0.1591,0.1364 0.1868,0.1792 0.0522,0.0779 0.0746,0.1502 0.0686,0.2165 -0.006,0.0644 -0.036,0.1352 -0.0867,0.2087 l -2.0251,2.933 c -0.0459,0.0666 -0.0995,0.1165 -0.159,0.1491 -0.0601,0.0337 -0.1383,0.0402 -0.2336,0.0207 -0.0598,-0.0117 -0.1425,-0.0389 -0.2483,-0.082 -0.1054,-0.0413 -0.1942,-0.0813 -0.2659,-0.1184 l -0.1564,0.2267 2.2994,1.571 0.1565,-0.2268 c -0.0539,-0.0456 -0.1213,-0.1037 -0.2018,-0.1749 -0.0794,-0.07 -0.1432,-0.1358 -0.1902,-0.1956 -0.0584,-0.0779 -0.0825,-0.1516 -0.0703,-0.2222 0.0119,-0.0709 0.0408,-0.1406 0.0876,-0.2081 l 2.0239,-2.931 c 0.0479,-0.0697 0.1023,-0.1205 0.1627,-0.1525 0.0612,-0.0312 0.1395,-0.038 0.2347,-0.0181 0.0525,0.009 0.1321,0.0388 0.2373,0.0873 0.1066,0.0479 0.1924,0.0921 0.2593,0.1318 z m 2.1402,8.5646 c -0.0502,-0.0595 -0.0944,-0.1213 -0.1293,-0.1859 -0.0354,-0.0655 -0.0644,-0.1395 -0.0876,-0.2248 -0.0309,-0.1134 -0.0425,-0.2129 -0.0346,-0.3002 0.008,-0.087 0.0346,-0.1914 0.0791,-0.3138 0.0624,-0.1661 0.1568,-0.4074 0.2823,-0.7234 0.1262,-0.315 0.2696,-0.6744 0.4298,-1.0769 0.1448,-0.3611 0.305,-0.7549 0.4804,-1.1829 0.1761,-0.4272 0.3447,-0.8365 0.5057,-1.2277 l -0.5091,-0.4992 c -0.807,0.3447 -1.6273,0.6945 -2.4616,1.0497 -0.8339,0.3549 -1.415,0.599 -1.7444,0.7336 -0.1225,0.0462 -0.2237,0.0726 -0.3025,0.0799 -0.0779,0.007 -0.1802,-0.006 -0.3041,-0.0371 -0.0893,-0.0249 -0.1616,-0.0519 -0.2177,-0.083 -0.057,-0.0301 -0.1259,-0.0757 -0.2087,-0.1367 l -0.1941,0.1962 1.9451,1.9063 0.1891,-0.1905 c -0.1593,-0.2004 -0.2591,-0.3441 -0.3002,-0.4317 -0.04,-0.0868 -0.0422,-0.15 -0.006,-0.1868 0.0187,-0.0187 0.042,-0.0352 0.0675,-0.0508 0.0266,-0.015 0.0643,-0.034 0.1103,-0.0581 0.2009,-0.0944 0.538,-0.2404 1.0119,-0.4365 0.4743,-0.1965 1.192,-0.5012 2.151,-0.915 -0.2444,0.5853 -0.453,1.0777 -0.6257,1.4777 -0.1732,0.3997 -0.3257,0.7534 -0.46,1.059 -0.0641,0.1491 -0.1284,0.2843 -0.1936,0.4053 -0.0644,0.1199 -0.1205,0.2041 -0.1673,0.2512 -0.0527,0.0533 -0.1366,0.0607 -0.2503,0.0207 -0.1145,-0.0411 -0.2854,-0.1559 -0.5133,-0.3473 l -0.1993,0.2013 1.4576,1.4287 0.1993,-0.2013 z m 3.5158,3.7823 -0.1446,-0.2345 c -0.1998,0.0409 -0.428,0.0426 -0.6837,0.002 -0.2563,-0.0394 -0.4422,-0.1216 -0.5596,-0.2426 -0.0507,-0.0524 -0.1122,-0.1312 -0.1811,-0.2364 -0.0692,-0.1052 -0.1256,-0.1942 -0.1687,-0.2642 l -0.3829,-0.6205 1.6636,-1.014 0.2719,0.4405 c 0.0683,0.1112 0.117,0.2203 0.1471,0.3266 0.0289,0.1069 0.0289,0.2203 3e-4,0.3399 -0.0182,0.0745 -0.0718,0.1723 -0.1593,0.2911 -0.0893,0.1179 -0.1727,0.2115 -0.2506,0.2786 l 0.1445,0.2347 1.7938,-1.0933 -0.1446,-0.2347 c -0.0924,0.0394 -0.2179,0.0734 -0.3761,0.1032 -0.1588,0.0289 -0.277,0.0357 -0.3518,0.0204 -0.1142,-0.021 -0.2126,-0.07 -0.2954,-0.1443 -0.0839,-0.0734 -0.1613,-0.1692 -0.235,-0.2885 l -0.2718,-0.4405 1.2416,-0.7569 c 0.1301,-0.0794 0.2384,-0.1327 0.326,-0.159 0.0878,-0.0281 0.168,-0.0275 0.2409,3e-4 0.0692,0.0272 0.1378,0.0805 0.203,0.161 0.0663,0.0799 0.1462,0.1956 0.2395,0.3469 0.0431,0.07 0.0941,0.1551 0.1531,0.2551 0.0589,0.1001 0.106,0.1903 0.1414,0.2708 0.0428,0.0901 0.076,0.1788 0.1009,0.2656 0.0255,0.085 0.0292,0.1579 0.0131,0.2171 -0.0397,0.1573 -0.1245,0.3591 -0.254,0.6038 -0.129,0.2457 -0.2319,0.4175 -0.3099,0.5176 l 0.1372,0.2222 1.2904,-0.8986 -2.4786,-4.0195 -0.2359,0.1437 c 0.0306,0.0593 0.0695,0.1403 0.1182,0.2449 0.0474,0.1046 0.0746,0.1812 0.0836,0.2325 0.0148,0.0958 0.006,0.1718 -0.0269,0.229 -0.0337,0.0559 -0.0884,0.1077 -0.1652,0.1542 l -3.0351,1.8502 c -0.0734,0.0448 -0.1403,0.07 -0.2015,0.0774 -0.0616,0.006 -0.137,-0.0213 -0.2274,-0.0825 -0.057,-0.0371 -0.1244,-0.0981 -0.2035,-0.1803 -0.078,-0.0828 -0.1358,-0.1463 -0.1721,-0.191 l -0.2358,0.1437 2.3423,3.7984 1.0987,-0.6698 z m 1.9913,4.5156 c -0.3144,0.1221 -0.5783,0.1236 -0.792,0.004 -0.2146,-0.1188 -0.3855,-0.3416 -0.5128,-0.6653 l -0.1029,-0.2619 1.9738,-0.7665 0.0989,0.252 c 0.1279,0.3249 0.1415,0.6086 0.0411,0.8538 -0.1006,0.2449 -0.3353,0.4397 -0.7061,0.5837 z m 4.3756,0.8832 -0.7044,-1.7926 c -0.5979,-0.1256 -1.0786,-0.2344 -1.4409,-0.3308 -0.3628,-0.095 -0.7889,-0.2239 -1.2796,-0.3847 l -0.0728,-0.1856 1.4255,-0.5533 c 0.0791,-0.0309 0.1517,-0.042 0.2189,-0.0332 0.0669,0.008 0.1357,0.047 0.2058,0.1156 0.0345,0.0346 0.0788,0.0941 0.1318,0.1761 0.0541,0.0813 0.0964,0.153 0.1284,0.2143 l 0.2577,-0.1001 -0.9808,-2.4965 -0.2577,0.1001 c 0.0181,0.0669 0.0422,0.1548 0.0711,0.2642 0.0287,0.1094 0.0431,0.1893 0.0426,0.2412 -0.002,0.0967 -0.0244,0.1704 -0.0669,0.2205 -0.0434,0.0491 -0.1066,0.0905 -0.1902,0.1231 l -3.3169,1.2875 c -0.0802,0.0312 -0.1505,0.0442 -0.2128,0.0411 -0.063,-0.004 -0.1324,-0.0445 -0.2081,-0.1214 -0.0573,-0.0592 -0.1137,-0.1335 -0.1715,-0.2211 -0.0573,-0.0892 -0.1018,-0.159 -0.1324,-0.2106 l -0.2576,0.1001 1.0318,2.626 c 0.2304,0.5868 0.4983,0.9961 0.8022,1.2294 0.3041,0.2333 0.6429,0.2767 1.017,0.1315 0.3291,-0.1278 0.5576,-0.3254 0.684,-0.5907 0.1262,-0.2656 0.1696,-0.6129 0.1316,-1.0415 0.2531,0.0743 0.5465,0.1613 0.8801,0.2611 0.3337,0.0998 0.6772,0.205 1.0284,0.3161 0.1129,0.0354 0.2543,0.0867 0.4252,0.1564 0.1701,0.0686 0.2878,0.1423 0.3518,0.2226 0.0357,0.0445 0.0743,0.1031 0.1151,0.1768 0.042,0.0732 0.0706,0.1268 0.0859,0.1585 z m 0.6936,2.9821 c -0.042,-0.3053 -0.1196,-0.5834 -0.2316,-0.8351 -0.1131,-0.2526 -0.2327,-0.4629 -0.3614,-0.6318 l 0.2132,-0.275 -0.0417,-0.3016 -1.8097,0.2021 0.0417,0.3013 c 0.1803,0.0451 0.3725,0.1069 0.5769,0.1863 0.2032,0.0793 0.3894,0.1771 0.559,0.2956 0.1771,0.1208 0.3265,0.2625 0.4484,0.4263 0.1227,0.1625 0.2004,0.3615 0.233,0.5982 0.0439,0.3169 -6e-4,0.5717 -0.1324,0.7625 -0.1329,0.1899 -0.3174,0.3013 -0.5541,0.3336 -0.1936,0.0264 -0.3671,-0.0232 -0.5193,-0.1485 -0.152,-0.1259 -0.2968,-0.3325 -0.436,-0.6208 -0.0907,-0.1888 -0.1746,-0.3611 -0.2514,-0.5176 -0.0769,-0.1579 -0.1534,-0.3045 -0.2299,-0.4428 -0.1809,-0.3155 -0.4062,-0.538 -0.6787,-0.6656 -0.2715,-0.1289 -0.5615,-0.1723 -0.8693,-0.1304 -0.1951,0.0264 -0.3768,0.0939 -0.5454,0.2033 -0.1687,0.1083 -0.313,0.2534 -0.4337,0.4343 -0.1134,0.1726 -0.1956,0.3846 -0.2466,0.6366 -0.0522,0.252 -0.0584,0.5196 -0.0193,0.8031 0.0383,0.2763 0.1122,0.5292 0.2236,0.7591 0.11,0.2299 0.2132,0.4096 0.3104,0.5366 l -0.182,0.2429 0.0414,0.3013 1.7068,-0.2026 -0.0417,-0.3016 c -0.1925,-0.0457 -0.3912,-0.1015 -0.5953,-0.1701 -0.2043,-0.0683 -0.3781,-0.1471 -0.519,-0.235 -0.1514,-0.0953 -0.2792,-0.2132 -0.3804,-0.3518 -0.1009,-0.1372 -0.1661,-0.3076 -0.1939,-0.5085 -0.0349,-0.2523 0.009,-0.4677 0.1301,-0.6463 0.1211,-0.1797 0.288,-0.2841 0.4998,-0.313 0.1995,-0.0272 0.3724,0.0201 0.5181,0.1418 0.1466,0.1224 0.2883,0.324 0.425,0.6049 0.083,0.1655 0.1661,0.333 0.2485,0.506 0.084,0.1714 0.1625,0.324 0.2359,0.4566 0.1791,0.3215 0.396,0.5539 0.6525,0.6996 0.2554,0.1443 0.5548,0.1936 0.8986,0.1468 0.2166,-0.0292 0.419,-0.108 0.6072,-0.2358 0.1879,-0.1281 0.3379,-0.286 0.449,-0.4754 0.1222,-0.2066 0.2064,-0.4388 0.252,-0.6947 0.0465,-0.2574 0.0468,-0.5485 0.002,-0.8748 z m 0.3362,6.2081 -0.0768,-2.7731 -0.2767,0.008 c -0.003,0.064 -0.008,0.1573 -0.0142,0.2806 -0.005,0.1233 -0.0173,0.2081 -0.0354,0.2557 -0.0326,0.0879 -0.0782,0.1482 -0.1358,0.1825 -0.0561,0.0329 -0.1309,0.0505 -0.2205,0.0533 l -3.5771,0.0978 c -0.081,0.002 -0.153,-0.0116 -0.2145,-0.04 -0.063,-0.0286 -0.1143,-0.0875 -0.1542,-0.1757 -0.0258,-0.0547 -0.0525,-0.1375 -0.0797,-0.2478 -0.0286,-0.1091 -0.0482,-0.204 -0.0601,-0.2834 l -0.2766,0.008 0.0768,2.7729 0.2766,-0.008 c 0.005,-0.07 0.0125,-0.1584 0.023,-0.265 0.0102,-0.1052 0.0261,-0.195 0.047,-0.2682 0.0292,-0.0924 0.0749,-0.1553 0.1395,-0.187 0.0646,-0.0321 0.1381,-0.0499 0.2205,-0.0522 l 3.5745,-0.0978 c 0.0851,-0.003 0.1582,0.0113 0.2197,0.0408 0.0615,0.0312 0.1131,0.0902 0.1531,0.1783 0.0232,0.0476 0.0462,0.1293 0.0686,0.2421 0.0238,0.1139 0.0385,0.2092 0.0456,0.286 l 0.2767,-0.007 z m -4.1505,5.7099 0.0346,-0.273 c -0.2044,-0.0984 -0.4173,-0.2429 -0.6406,-0.4337 -0.2231,-0.1894 -0.336,-0.3543 -0.3382,-0.4921 -3e-4,-0.0754 0.004,-0.1684 0.0108,-0.2795 0.006,-0.11 0.0147,-0.2049 0.0249,-0.2852 l 0.0204,-0.1641 3.9251,0.4873 c 0.0845,0.0105 0.1571,0.0351 0.2183,0.0731 0.0612,0.0383 0.1043,0.1043 0.1307,0.1976 0.015,0.0556 0.0261,0.142 0.0337,0.2574 0.008,0.1165 0.0122,0.2143 0.0119,0.2945 l 0.2747,0.034 0.3472,-2.7669 -0.2746,-0.034 c -0.0156,0.066 -0.0372,0.1607 -0.0658,0.2812 -0.0286,0.1208 -0.0547,0.2013 -0.0782,0.2435 -0.0502,0.0862 -0.1083,0.1409 -0.1746,0.1633 -0.0678,0.0218 -0.1443,0.028 -0.2322,0.0173 l -3.96,-0.4918 0.0204,-0.1639 c 0.0102,-0.0802 0.0255,-0.1746 0.0465,-0.2826 0.021,-0.1091 0.04,-0.2007 0.059,-0.2735 0.0362,-0.1333 0.1859,-0.2654 0.4492,-0.3946 0.2637,-0.1301 0.5057,-0.2183 0.728,-0.2637 l 0.0343,-0.2729 -1.4309,-0.1778 -0.6052,4.8226 z"
       style="fill:#004b9d;fill-opacity:1;fill-rule:evenodd;stroke:none"
       id="path248" />
    <path
       d="m 122.8516,555.9273 c 0.1176,0.3478 0.2846,0.6551 0.5014,0.921 0.2166,0.265 0.4706,0.4742 0.7631,0.6273 0.2869,0.1508 0.6069,0.2373 0.9615,0.2599 0.3549,0.0224 0.7192,-0.0283 1.0919,-0.1533 0.3716,-0.1245 0.6936,-0.3036 0.9663,-0.5389 0.2719,-0.2336 0.4853,-0.5065 0.6381,-0.8161 0.1503,-0.3053 0.2336,-0.6378 0.2492,-0.9995 0.017,-0.3623 -0.0369,-0.7251 -0.1605,-1.0902 -0.089,-0.263 -0.2026,-0.4924 -0.3418,-0.688 -0.1381,-0.1955 -0.2736,-0.354 -0.4048,-0.4767 l 0.1145,-0.2705 -0.0975,-0.288 -1.7555,0.5573 0.1001,0.2951 c 0.5913,-0.0122 1.0516,0.0578 1.3819,0.2084 0.3291,0.1508 0.551,0.3937 0.6653,0.731 0.1423,0.4198 0.064,0.8016 -0.2348,1.1449 -0.2987,0.3433 -0.7849,0.6285 -1.4587,0.8544 -0.3809,0.1275 -0.7191,0.1987 -1.0133,0.2146 -0.2946,0.0158 -0.544,-0.01 -0.7492,-0.0751 -0.2152,-0.0718 -0.3924,-0.1832 -0.5327,-0.3323 -0.1389,-0.1496 -0.2452,-0.3305 -0.318,-0.5456 -0.1058,-0.3124 -0.1137,-0.6191 -0.0247,-0.9202 0.0885,-0.3024 0.2716,-0.612 0.5511,-0.9286 l -0.2736,-0.2293 c -0.1652,0.1624 -0.3053,0.3314 -0.4192,0.506 -0.1148,0.1749 -0.2013,0.3617 -0.2594,0.5607 -0.0635,0.2174 -0.0941,0.4444 -0.0918,0.6817 0.002,0.2364 0.0527,0.4995 0.1511,0.79 z m -0.0851,-15.5928 c 0.2288,-0.0788 0.4802,-0.1242 0.7583,-0.1372 0.2769,-0.013 0.5856,10e-4 0.9278,0.0434 0.2902,0.036 0.5706,0.0915 0.8402,0.1664 0.2695,0.0748 0.5051,0.1757 0.7072,0.3007 0.203,0.1273 0.3586,0.2815 0.4666,0.4643 0.1091,0.1826 0.1482,0.3966 0.1173,0.6446 -0.0535,0.4241 -0.2962,0.7212 -0.7285,0.8912 -0.4323,0.169 -1.017,0.2084 -1.7552,0.1165 -0.3143,-0.0388 -0.6063,-0.0995 -0.8799,-0.1822 -0.2721,-0.0822 -0.5048,-0.188 -0.7001,-0.3167 -0.1965,-0.1315 -0.3436,-0.2848 -0.4399,-0.4609 -0.0967,-0.1763 -0.1296,-0.3824 -0.0998,-0.6193 0.0292,-0.2313 0.1131,-0.4227 0.252,-0.5746 0.1389,-0.1505 0.3166,-0.2636 0.534,-0.3362 z m 3.6995,-0.4555 c -0.1956,-0.2724 -0.4433,-0.5018 -0.7455,-0.6852 -0.3025,-0.1834 -0.6571,-0.3004 -1.0667,-0.3515 -0.3648,-0.0453 -0.7194,-0.0272 -1.0635,0.053 -0.3453,0.0811 -0.6503,0.2209 -0.9173,0.4201 -0.2773,0.2101 -0.5043,0.4703 -0.6837,0.7776 -0.1781,0.3075 -0.2951,0.686 -0.3515,1.1353 -0.0457,0.3628 -0.0284,0.7129 0.0504,1.0499 0.08,0.337 0.2189,0.6426 0.4159,0.9164 0.1933,0.271 0.4402,0.4975 0.7426,0.6798 0.3025,0.1825 0.6489,0.2985 1.0426,0.3472 0.4082,0.0508 0.7892,0.0275 1.1393,-0.0703 0.3495,-0.0975 0.6593,-0.2539 0.9269,-0.4674 0.2639,-0.2117 0.4793,-0.4759 0.646,-0.7909 0.1681,-0.3149 0.275,-0.6593 0.3217,-1.034 0.0468,-0.3714 0.0292,-0.7277 -0.0515,-1.0687 -0.082,-0.3421 -0.2175,-0.6449 -0.4057,-0.9113 z m 2.715,-6.9115 c -0.0311,0.059 -0.0779,0.1418 -0.1408,0.2483 -0.0618,0.1069 -0.1455,0.1936 -0.2506,0.2591 -0.0919,0.0576 -0.216,0.0754 -0.3756,0.0533 -0.1579,-0.0224 -0.377,-0.0884 -0.6585,-0.1981 l -3.3636,-1.3096 -0.2341,0.5947 2.4953,4.3069 -2.2062,-0.8589 c -0.2735,-0.1065 -0.4742,-0.2055 -0.6026,-0.297 -0.1279,-0.0924 -0.2101,-0.1919 -0.2435,-0.2982 -0.0253,-0.0786 -0.0312,-0.1897 -0.0188,-0.334 0.0137,-0.1437 0.0295,-0.2568 0.046,-0.3387 l -0.2574,-0.1003 -0.794,2.0165 0.2577,0.1004 c 0.0405,-0.0825 0.0946,-0.1744 0.1647,-0.2756 0.068,-0.1003 0.1445,-0.1783 0.2267,-0.2318 0.0981,-0.0604 0.2172,-0.0814 0.3597,-0.0632 0.1415,0.0184 0.3646,0.0873 0.671,0.2066 l 2.2286,0.8677 c 0.1108,0.0431 0.2092,0.1009 0.2945,0.1729 0.0851,0.072 0.1488,0.1579 0.1908,0.2571 0.0456,0.106 0.0703,0.2154 0.0737,0.3322 0.005,0.116 -0.005,0.2415 -0.0309,0.3768 l 0.2577,0.1003 0.6939,-1.7626 -2.1855,-3.7726 1.7847,0.6948 c 0.2837,0.1105 0.4875,0.212 0.6108,0.3027 0.1245,0.0913 0.2039,0.1908 0.237,0.2982 0.0267,0.0845 0.0326,0.1956 0.0201,0.3362 -0.0127,0.1386 -0.0277,0.2494 -0.0447,0.3325 l 0.2508,0.0975 0.794,-2.0166 z m 1.1744,-6.9196 c -0.0462,0.0581 -0.0878,0.1074 -0.1267,0.1499 -0.038,0.0434 -0.093,0.093 -0.1621,0.1491 -0.0794,0.0655 -0.1565,0.091 -0.2327,0.08 -0.0769,-0.0131 -0.1486,-0.04 -0.2141,-0.0817 l -0.4952,-0.3149 c -0.1,-0.0635 -0.1791,-0.1154 -0.2392,-0.1565 -0.0601,-0.0408 -0.1327,-0.0915 -0.22,-0.1528 -0.2483,0.1216 -0.5496,0.3442 -0.9051,0.6639 -0.3552,0.3215 -0.6369,0.6438 -0.8461,0.9692 -0.197,0.3061 -0.3342,0.6228 -0.4122,0.9502 -0.0785,0.3282 -0.0896,0.6522 -0.0314,0.9742 0.0561,0.3206 0.1845,0.6273 0.3852,0.9182 0.2012,0.2916 0.4802,0.5504 0.8359,0.7767 0.3314,0.2106 0.6735,0.3509 1.0259,0.4215 0.3526,0.0694 0.6964,0.066 1.0326,-0.0111 0.3325,-0.0737 0.6469,-0.2219 0.9443,-0.4425 0.2965,-0.2214 0.5589,-0.5085 0.7863,-0.8626 0.1545,-0.2401 0.2679,-0.4816 0.339,-0.7242 0.072,-0.2421 0.1162,-0.4521 0.1344,-0.6282 l 0.2837,-0.0805 0.1647,-0.2562 -1.5366,-1.0114 -0.1687,0.2625 c 0.3705,0.4476 0.6007,0.8489 0.6925,1.2038 0.0913,0.3532 0.0334,0.692 -0.1729,1.0134 -0.2446,0.3804 -0.6015,0.5675 -1.0701,0.5618 -0.4697,-0.007 -0.9989,-0.1967 -1.588,-0.5711 -0.6256,-0.398 -1.0491,-0.8105 -1.2722,-1.2391 -0.223,-0.4283 -0.2148,-0.8285 0.025,-1.2018 0.1125,-0.1749 0.2392,-0.3136 0.3781,-0.4156 0.1409,-0.1026 0.2702,-0.1692 0.3881,-0.2004 l 0.8623,0.5482 c 0.0714,0.0456 0.1233,0.097 0.155,0.1531 0.0321,0.0575 0.0423,0.1358 0.0284,0.2358 -0.0111,0.0777 -0.0363,0.1661 -0.0754,0.2673 -0.0391,0.1012 -0.0746,0.1831 -0.1049,0.2486 l 0.2333,0.1483 1.4122,-2.1969 z m 2.7661,-4.354 c 0.2273,0.0827 0.4518,0.2063 0.6746,0.3702 0.224,0.1647 0.4553,0.3707 0.6934,0.6188 0.2029,0.2111 0.3849,0.4303 0.5462,0.6579 0.1622,0.2279 0.2806,0.4544 0.3586,0.6792 0.0757,0.2253 0.0981,0.4425 0.0666,0.6528 -0.0315,0.21 -0.1372,0.4008 -0.3189,0.5734 -0.3104,0.2951 -0.6874,0.3728 -1.1316,0.2319 -0.4422,-0.1406 -0.9212,-0.4785 -1.436,-1.0145 -0.2188,-0.2276 -0.4073,-0.4592 -0.5669,-0.6951 -0.1585,-0.235 -0.2727,-0.4637 -0.3422,-0.6865 -0.0686,-0.2251 -0.0853,-0.4366 -0.0482,-0.6336 0.0375,-0.1973 0.1418,-0.3784 0.3155,-0.5436 0.1695,-0.1608 0.3563,-0.2566 0.5604,-0.2869 0.2033,-0.0295 0.4139,-0.004 0.6285,0.076 z m 3.1609,1.9763 c 0.0215,-0.3339 -0.0258,-0.6682 -0.1434,-1.0004 -0.1171,-0.3313 -0.3184,-0.6457 -0.6035,-0.9425 -0.4048,-0.4215 -0.8666,-0.6908 -1.385,-0.8093 -0.5174,-0.1176 -1.0372,-0.0629 -1.5594,0.1661 -0.1899,-0.2086 -0.2979,-0.443 -0.322,-0.7041 -0.0249,-0.2619 0.0442,-0.4694 0.2058,-0.6228 0.0992,-0.0944 0.1928,-0.1715 0.2784,-0.2313 0.0864,-0.0584 0.1664,-0.1097 0.2403,-0.1513 l -0.2145,-0.2237 c -0.1361,0.0524 -0.3212,0.15 -0.5537,0.2905 -0.2315,0.1418 -0.4526,0.3119 -0.6641,0.5126 -0.288,0.2735 -0.4436,0.585 -0.4652,0.9328 -0.021,0.349 0.1043,0.6872 0.3765,1.0146 -0.2194,0.2534 -0.3872,0.528 -0.5046,0.8217 -0.1168,0.2943 -0.1777,0.5978 -0.1806,0.9111 -0.002,0.3089 0.057,0.6168 0.1769,0.9235 0.1191,0.3076 0.3059,0.5927 0.5599,0.8572 0.2848,0.2968 0.5949,0.5182 0.928,0.6622 0.3342,0.1451 0.6732,0.2185 1.0165,0.2211 0.339,0.002 0.6738,-0.0675 1.0032,-0.2067 0.3305,-0.1386 0.6321,-0.3384 0.9068,-0.5992 0.2719,-0.2585 0.4847,-0.5457 0.6387,-0.8606 0.1542,-0.3166 0.2412,-0.6367 0.265,-0.9615 z m 1.4287,-6.4299 -2.3483,1.4967 0.1491,0.2316 c 0.057,-0.0303 0.1395,-0.0742 0.2489,-0.1326 0.1089,-0.0596 0.1882,-0.0927 0.2387,-0.1018 0.0924,-0.0176 0.1681,-0.01 0.2271,0.0213 0.0575,0.0309 0.1114,0.0856 0.1598,0.1607 l 1.9307,2.9959 c 0.0439,0.0681 0.0692,0.1367 0.0765,0.2036 0.008,0.0683 -0.0164,0.1425 -0.0717,0.2222 -0.034,0.0502 -0.0913,0.1154 -0.1723,0.1959 -0.0794,0.0805 -0.1508,0.1462 -0.2129,0.1973 l 0.1491,0.2318 2.3485,-1.4969 -0.1494,-0.2316 c -0.0632,0.0314 -0.1431,0.0711 -0.2404,0.117 -0.0958,0.0457 -0.1814,0.0786 -0.2551,0.0984 -0.0947,0.0232 -0.1723,0.0167 -0.2333,-0.0221 -0.0609,-0.0386 -0.1142,-0.0919 -0.1587,-0.161 l -1.9293,-2.9943 c -0.0459,-0.0711 -0.072,-0.1406 -0.0779,-0.208 -0.005,-0.0686 0.019,-0.1429 0.0742,-0.2225 0.029,-0.0443 0.0873,-0.1061 0.173,-0.1834 0.0858,-0.0791 0.1601,-0.1406 0.223,-0.1866 z m 8.9265,0.9684 c -0.0637,0.0207 -0.1556,0.047 -0.2752,0.0796 -0.1193,0.0335 -0.2401,0.0374 -0.3614,0.0108 -0.106,-0.0227 -0.2072,-0.0964 -0.3059,-0.2231 -0.0969,-0.1259 -0.2075,-0.3251 -0.3316,-0.5995 l -1.4834,-3.2752 -0.5856,0.2622 -1.2447,4.8141 -0.9729,-2.1484 c -0.1207,-0.2664 -0.1947,-0.4768 -0.2222,-0.6312 -0.0261,-0.1551 -0.015,-0.2832 0.0357,-0.383 0.0371,-0.0734 0.1114,-0.157 0.2217,-0.2514 0.1108,-0.0933 0.2015,-0.163 0.271,-0.2101 l -0.1137,-0.2509 -1.9854,0.8896 0.1137,0.2508 c 0.087,-0.0312 0.1902,-0.0589 0.3112,-0.0825 0.1196,-0.0246 0.2288,-0.0272 0.3251,-0.008 0.1129,0.0252 0.2126,0.093 0.3019,0.2052 0.0879,0.1114 0.199,0.3158 0.3342,0.614 l 0.9831,2.1705 c 0.0488,0.1077 0.0785,0.2177 0.0887,0.3283 0.0102,0.1105 -0.004,0.2165 -0.0442,0.3163 -0.042,0.1074 -0.1012,0.203 -0.1808,0.2889 -0.078,0.0867 -0.1735,0.1692 -0.2872,0.2477 l 0.1137,0.2512 1.7353,-0.7776 1.0905,-4.2168 0.7872,1.7382 c 0.1253,0.2761 0.1996,0.4904 0.2239,0.6409 0.0247,0.1517 0.0114,0.2781 -0.0405,0.3782 -0.04,0.0788 -0.1139,0.1624 -0.2217,0.2542 -0.1068,0.0902 -0.1953,0.1591 -0.2658,0.2067 l 0.1108,0.2443 1.9851,-0.8895 -0.1106,-0.2443 z m 5.7221,-3.7279 c -0.0743,0.006 -0.1463,0.0131 -0.2041,0.0136 -0.0579,0.002 -0.1319,-0.005 -0.2203,-0.0167 -0.1023,-0.0133 -0.1735,-0.0522 -0.2171,-0.1154 -0.0425,-0.0649 -0.0715,-0.1355 -0.0853,-0.2117 l -0.1046,-0.5749 c -0.0213,-0.1162 -0.0369,-0.2092 -0.0474,-0.2809 -0.0108,-0.0717 -0.0229,-0.159 -0.0371,-0.2645 -0.2585,-0.0983 -0.6273,-0.1666 -1.105,-0.2083 -0.4785,-0.0403 -0.9076,-0.0269 -1.29,0.0419 -0.3594,0.0647 -0.6863,0.18 -0.9805,0.3459 -0.2954,0.1658 -0.5417,0.3781 -0.7396,0.6395 -0.1981,0.259 -0.337,0.5612 -0.415,0.9051 -0.0779,0.3452 -0.0791,0.7245 -0.004,1.1381 0.07,0.3846 0.1992,0.7293 0.3869,1.0343 0.1885,0.3048 0.4249,0.5528 0.7104,0.7455 0.2803,0.1925 0.6035,0.3209 0.9686,0.3878 0.3645,0.0655 0.7548,0.0615 1.1704,-0.0133 0.2817,-0.0507 0.5371,-0.1324 0.7645,-0.2455 0.2276,-0.1122 0.4121,-0.2225 0.5544,-0.3294 l 0.252,0.1525 0.3011,-0.0541 -0.2994,-1.8085 -0.3081,0.0556 c -0.0779,0.5745 -0.2174,1.0156 -0.4167,1.3237 -0.1981,0.3067 -0.487,0.495 -0.8645,0.5627 -0.4468,0.0805 -0.8275,-0.0521 -1.1418,-0.398 -0.315,-0.3469 -0.5344,-0.862 -0.6588,-1.5463 -0.1324,-0.7268 -0.1162,-1.3161 0.0479,-1.7699 0.1641,-0.4541 0.4646,-0.7203 0.9031,-0.7994 0.2055,-0.0368 0.3937,-0.0388 0.5638,-0.007 0.1712,0.0329 0.3084,0.0819 0.4113,0.1468 l 0.1823,1.0012 c 0.015,0.0831 0.0122,0.1559 -0.007,0.2175 -0.0207,0.0623 -0.0711,0.123 -0.1545,0.1811 -0.0646,0.0445 -0.1471,0.0864 -0.2483,0.1267 -0.1012,0.0402 -0.1859,0.0703 -0.2545,0.0924 l 0.0493,0.2707 2.5398,-0.464 -0.002,-0.275 z m -30.9977,31.4113 0.2072,2.7079 0.2758,-0.0207 c 3e-4,-0.0592 8e-4,-0.1465 0.002,-0.2605 -3e-4,-0.1136 0.009,-0.193 0.0246,-0.2367 0.0284,-0.0892 0.0709,-0.153 0.1264,-0.1913 0.0556,-0.0366 0.1282,-0.0592 0.2177,-0.066 l 1.738,-0.1313 0.1641,2.1447 -1.698,0.1284 c -0.081,0.006 -0.155,-0.005 -0.2208,-0.0354 -0.0666,-0.0286 -0.1207,-0.0839 -0.1633,-0.163 -0.0218,-0.0445 -0.0481,-0.1188 -0.0782,-0.2254 -0.0289,-0.108 -0.0487,-0.1947 -0.0589,-0.263 l -0.2759,0.021 0.207,2.7079 0.2761,-0.0207 c -0.002,-0.0592 -0.002,-0.1466 0.003,-0.2619 0.004,-0.1151 0.0139,-0.2007 0.0292,-0.254 0.0238,-0.0865 0.0663,-0.1491 0.1256,-0.1874 0.0603,-0.0371 0.1329,-0.0598 0.2188,-0.066 l 3.5606,-0.2696 c 0.0836,-0.006 0.1536,0.003 0.2129,0.0289 0.0592,0.0244 0.1134,0.0822 0.1627,0.1704 0.0368,0.066 0.0714,0.1542 0.104,0.2633 0.034,0.1089 0.0547,0.1882 0.0632,0.2373 l 0.2761,-0.021 -0.2072,-2.7079 -0.2761,0.0207 c 9e-4,0.0739 -0.004,0.1612 -0.0147,0.265 -0.0117,0.1026 -0.0238,0.1823 -0.0355,0.2375 -0.0246,0.0939 -0.0683,0.1591 -0.1338,0.1931 -0.0643,0.0351 -0.1346,0.055 -0.2109,0.0606 l -1.5029,0.1137 -0.1641,-2.1447 1.4681,-0.1111 c 0.0822,-0.006 0.1536,0.004 0.2128,0.0298 0.0579,0.0272 0.1123,0.0847 0.1627,0.1729 0.0326,0.0595 0.0655,0.1392 0.0976,0.2409 0.0334,0.1004 0.0552,0.1809 0.0671,0.2418 l 0.2761,-0.021 -0.2072,-2.7082 -0.2758,0.021 c 9e-4,0.0762 -0.002,0.1613 -0.0108,0.2577 -0.008,0.0949 -0.0212,0.1819 -0.0385,0.2593 -0.0247,0.0916 -0.0686,0.1554 -0.1315,0.1917 -0.0641,0.0351 -0.1355,0.0561 -0.2129,0.062 l -3.5657,0.2696 c -0.0845,0.006 -0.1585,-0.004 -0.22,-0.0292 -0.0618,-0.0269 -0.1159,-0.0833 -0.1627,-0.1692 -0.0272,-0.055 -0.0556,-0.1364 -0.0831,-0.2418 -0.0263,-0.106 -0.045,-0.1928 -0.0552,-0.2611 l -0.2758,0.021 z"
       style="fill:#004b9d;fill-opacity:1;fill-rule:evenodd;stroke:none"
       id="path250" />
  </g>
</svg>
