<?xml version="1.0" encoding="UTF-8" standalone="no"?>
<!-- Created with Inkscape (http://www.inkscape.org/) -->

<svg
   version="1.1"
   id="svg2"
   width="383.39023"
   height="116.88946"
   viewBox="0 0 383.39023 116.88946"
   xmlns="http://www.w3.org/2000/svg"
   xmlns:svg="http://www.w3.org/2000/svg">
  <defs
     id="defs6" />
  <g
     id="g10"
     transform="matrix(1.3333333,0,0,-1.3333333,-203.47999,673.78809)">
    <path
       d="m 194.538,481.4325 c 1.2671,0.1228 2.545,0.1236 3.8121,0.003 l 0.8688,2.4571 0.0385,-0.005 c 2.0427,-0.2539 4.042,-0.7922 5.94,-1.5874 l 0.036,-0.0153 -0.4782,-2.5701 c 1.1574,-0.5287 2.2638,-1.1674 3.3001,-1.9052 l 1.9826,1.6951 0.0312,-0.0235 c 1.6001,-1.2104 3.0316,-2.6379 4.2559,-4.2273 l 0.0337,-0.044 h -1.7767 l 0.0527,0.0615 c -0.7424,0.8726 -1.5548,1.685 -2.4273,2.4276 l -1.9599,-1.6755 -0.0312,0.0252 c -1.5244,1.2334 -3.238,2.2198 -5.0655,2.9296 l -0.0374,0.0145 0.4714,2.5367 c -1.0786,0.3849 -2.1886,0.6817 -3.3154,0.8867 l -0.8603,-2.433 -0.0397,0.006 c -0.9672,0.1557 -1.9465,0.2282 -2.9259,0.2282 -0.9794,0 -1.9587,-0.0725 -2.9259,-0.2282 l -0.0397,-0.006 -0.86,2.433 c -1.1268,-0.205 -2.2369,-0.5018 -3.3157,-0.8864 l 0.4717,-2.537 -0.0375,-0.0145 c -1.8277,-0.7098 -3.541,-1.6962 -5.0658,-2.9296 l -0.0311,-0.0252 -1.9596,1.6755 c -0.8725,-0.7426 -1.6849,-1.555 -2.4276,-2.4273 l 0.0527,-0.0618 h -1.7765 l 0.0338,0.044 c 1.224,1.5894 2.6555,3.0169 4.2559,4.2273 l 0.0309,0.0235 1.9797,-1.6926 c 1.0366,0.7388 2.1441,1.3768 3.3027,1.9041 l -0.4777,2.5687 0.0357,0.0153 c 1.8981,0.7952 3.8977,1.3335 5.9403,1.5874 l 0.0386,0.005 0.8696,-2.4597 z"
       style="fill:#231916;fill-opacity:1;fill-rule:evenodd;stroke:none"
       id="path240" />
    <path
       d="m 196.4435,478.9094 c 4.0317,0 7.7425,-1.3714 10.6928,-3.6725 h -1.1006 c -2.7171,1.9017 -6.024,3.0186 -9.5922,3.0186 -3.568,0 -6.8749,-1.1169 -9.5919,-3.0186 h -1.1007 c 2.9503,2.3011 6.6612,3.6725 10.6926,3.6725"
       style="fill:#231916;fill-opacity:1;fill-rule:evenodd;stroke:none"
       id="path242" />
    <path
       d="m 218.7023,469.8984 c 1.3184,-1.4704 2.1795,-3.2295 2.1466,-5.7507 0.6724,0.525 0.9188,2.7244 2.0818,3.5513 0.2784,-3.1181 -0.9266,-5.3465 -2.8148,-7.3341 -0.1312,1.9978 -1.6979,0.7497 -2.1322,5.6531 0.7897,-0.4586 0.8144,-1.694 2.0239,-2.3714 -1.3975,2.5202 -1.2605,3.7017 -1.3053,6.2518 z m -3.7395,-24.1634 c 0.0207,-0.2736 0.0595,-0.5411 0.087,-0.6919 -0.7041,-0.2044 -1.3915,-0.4692 -2.0429,-0.91 1.014,1.313 1.4063,3.3135 1.1784,4.7435 -1.6614,-2.3459 -3.9651,-4.1632 -3.7401,-6.7306 -0.0198,-0.1601 -0.0144,-0.4569 -0.006,-0.6871 -0.813,-0.2429 -1.5843,-0.6052 -2.3293,-1.2013 -0.1394,-0.1117 -0.3166,-0.3331 -0.3495,-0.2854 -0.0331,0.0473 0.1633,0.2494 0.2835,0.4028 0.9448,1.2044 1.5463,2.8386 2.0747,4.1156 -3.5255,-2.7159 -4.4567,-2.6087 -6.3077,-4.9547 -0.5261,-0.6667 -2.8664,-1.1475 -3.6261,-1.2991 -0.1814,-0.036 -0.1808,-0.284 -0.007,-0.2687 0.8638,0.0754 2.4132,-0.0278 3.0065,-0.2552 3.0832,-1.182 5.4912,-0.5581 8.7103,1.1549 -1.6949,-0.1474 -3.3923,-0.0457 -5.0925,0.4263 0.2804,0.0933 0.5471,0.347 0.8411,0.2795 3.6853,-0.8476 6.2467,0.5324 8.7732,3.1762 -2.1932,-0.5578 -3.8894,-0.7577 -5.5837,-1.1829 l 0.003,0.008 c 0.1075,0.3248 0.6169,0.5689 0.6183,0.5697 2.52,1.0987 5.2894,0.1219 7.8916,4.3481 -1.3141,-0.8195 -2.6671,-1.008 -4.0087,-1.3723 0.003,0.2092 -0.0196,0.4729 0.1247,0.7359 1.9208,1.8689 4.3563,1.0588 6.7371,6.3224 -1.2214,-0.1706 -2.4579,-1.2084 -3.5113,-1.9964 0.0734,0.269 0.2155,0.6236 0.3889,0.938 2.073,1.8351 4.0941,3.2082 4.4116,6.1545 -0.6559,-0.6596 -1.7756,-1.3201 -2.6056,-1.7991 1.4876,2.2306 2.914,4.7973 2.613,8.0543 -0.5845,-2.6804 -2.2329,-2.986 -3.1845,-5.0314 -0.5366,1.5686 -1.1406,2.4363 -1.9953,3.4497 -0.2418,-4.5932 1.5228,-4.4192 1.6727,-7.7281 l -0.6633,-0.5224 c 0.002,1.5945 -0.5536,3.2272 -1.3535,4.5584 -0.1125,-2.4063 -1.0386,-5.2863 0.3943,-7.327 0.1222,-0.409 0.1069,-0.7305 0.0711,-0.9318 -0.5541,-0.4025 -1.0448,-0.7075 -1.436,-0.7378 0.2438,1.4012 0.2421,2.9832 -0.3033,4.3994 -0.3773,-2.5745 -2.1385,-4.644 -1.7348,-7.924"
       style="fill:#231916;fill-opacity:1;fill-rule:evenodd;stroke:none"
       id="path244" />
    <path
       d="m 174.1847,469.8984 c -1.3184,-1.4704 -2.1795,-3.2295 -2.1464,-5.7507 -0.6726,0.525 -0.919,2.7244 -2.082,3.5513 -0.2784,-3.1181 0.9266,-5.3465 2.8148,-7.3341 0.1312,1.9978 1.6982,0.7497 2.1322,5.6531 -0.7894,-0.4586 -0.8141,-1.694 -2.0239,-2.3714 1.3975,2.5202 1.2605,3.7017 1.3053,6.2518 z m 3.7395,-24.1634 c -0.0207,-0.2736 -0.0595,-0.5411 -0.087,-0.6919 0.7041,-0.2044 1.3915,-0.4692 2.0429,-0.91 -1.014,1.313 -1.406,3.3135 -1.1784,4.7435 1.6614,-2.3459 3.9651,-4.1632 3.7401,-6.7306 0.0201,-0.1601 0.0144,-0.4569 0.006,-0.6871 0.813,-0.2429 1.5843,-0.6052 2.3292,-1.2013 0.1395,-0.1117 0.3167,-0.3331 0.3496,-0.2854 0.0331,0.0473 -0.1633,0.2494 -0.2835,0.4028 -0.9448,1.2044 -1.5463,2.8386 -2.0747,4.1156 3.5255,-2.7159 4.4566,-2.6087 6.3077,-4.9547 0.5261,-0.6667 2.8664,-1.1475 3.626,-1.2991 0.1815,-0.036 0.1809,-0.284 0.007,-0.2687 -0.8635,0.0754 -2.4132,-0.0278 -3.0065,-0.2552 -3.0829,-1.182 -5.4913,-0.5581 -8.7103,1.1549 1.6949,-0.1474 3.3922,-0.0457 5.0925,0.4263 -0.2804,0.0933 -0.5471,0.347 -0.8408,0.2795 -3.6856,-0.8476 -6.247,0.5324 -8.7735,3.1762 2.1932,-0.5578 3.8897,-0.7577 5.5837,-1.1829 l -0.003,0.008 c -0.1074,0.3248 -0.6168,0.5689 -0.6179,0.5697 -2.5203,1.0987 -5.2897,0.1219 -7.8919,4.3481 1.3141,-0.8195 2.6674,-1.008 4.009,-1.3723 -0.003,0.2092 0.0193,0.4729 -0.125,0.7359 -1.9205,1.8689 -4.356,1.0588 -6.7371,6.3224 1.2214,-0.1706 2.4579,-1.2084 3.5113,-1.9964 -0.0735,0.269 -0.2155,0.6236 -0.3889,0.938 -2.073,1.8351 -4.0941,3.2082 -4.4116,6.1545 0.6559,-0.6596 1.7759,-1.3201 2.6059,-1.7991 -1.4879,2.2306 -2.9143,4.7973 -2.613,8.0543 0.5845,-2.6804 2.2329,-2.986 3.1842,-5.0314 0.5368,1.5686 1.1406,2.4363 1.9953,3.4497 0.242,-4.5932 -1.5225,-4.4192 -1.6728,-7.7281 l 0.6634,-0.5224 c -0.002,1.5945 0.5536,3.2272 1.3535,4.5584 0.1125,-2.4063 1.0386,-5.2863 -0.3943,-7.327 -0.1222,-0.409 -0.1069,-0.7305 -0.0712,-0.9318 0.5542,-0.4025 1.0449,-0.7075 1.4361,-0.7378 -0.2438,1.4012 -0.2421,2.9832 0.3033,4.3994 0.3773,-2.5745 2.1387,-4.644 1.7348,-7.924"
       style="fill:#231916;fill-opacity:1;fill-rule:evenodd;stroke:none"
       id="path246" />
    <path
       d="m 196.4455,437.7966 1.2271,2.1257 h -2.4542 z m 23.8776,37.4403 -23.8776,-41.364 -23.8813,41.364 c 15.9196,0 31.8393,0 47.7589,0 z m -23.8949,-29.4291 -1.133,1.9622 H 191.91 l -0.6111,-1.059 0.5213,-0.9032 z m -1.5106,2.6161 -1.315,2.2774 -1.3147,-2.2774 z m -4.14,0 1.1327,1.9619 h -2.7331 l 1.1327,-1.9619 z m 1.5103,2.6158 0.5598,0.9698 -0.5728,0.9921 h -3.0272 l -0.7903,-1.3691 0.3422,-0.5928 z m -0.3906,2.6159 -1.1327,1.9618 h -0.007 l -1.1327,-1.9618 h 2.272 z m -3.782,0 1.1327,1.9618 h -3.0914 l 1.1327,-1.9618 v 0 z m 1.51,2.6161 1.1327,1.9618 h -6.1117 l 1.1327,-1.9618 z m 1.1393,1.9618 1.1327,-1.9618 h 3.4112 l 1.1327,1.9618 z m 1.5103,-2.6161 1.328,-2.3 1.328,2.3 z m 4.1726,2.6161 1.1327,-1.9618 h 3.4109 l 1.1327,1.9618 z m 1.5103,-2.6161 1.328,-2.3 1.328,2.3 z m 4.1723,2.6161 1.1327,-1.9618 h 3.8492 l 1.1327,1.9618 z m 1.5103,-2.6161 1.1327,-1.9618 h 3e-4 0.8283 l 1.1327,1.9618 z m 0.792,-3.9872 -0.792,1.3714 h -3.0269 l -0.5726,-0.9921 0.5596,-0.9698 h 3.4909 z m -1.1696,2.0254 -1.1327,1.9618 h -0.006 l -1.1327,-1.9618 h 2.2717 z m -2.2844,-3.2698 1.1324,-1.9619 h 0.4703 l 1.1327,1.9619 z m 0.6125,-3.6771 -0.6125,1.0613 h -3.3852 l -1.133,-1.9622 h 4.6106 z m -0.9904,1.7152 -1.3147,2.2777 -1.3153,-2.2777 z m -6.2425,3.5856 0.5599,-0.9698 h 3.0529 l 0.5596,0.9698 -0.5726,0.9921 h -3.0272 z m 0.9375,-1.6237 1.1327,-1.9619 h 0.032 l 1.133,1.9619 z m 2.2847,3.2698 -1.1327,1.9618 h -0.007 l -1.1324,-1.9618 h 2.2717 z M 175.962,473.275 h 40.9669 l -4.5309,-7.8477 h -31.9051 z m 5.6637,-9.8096 h 29.6396 l -1.1327,-1.9618 h -27.3742 z m 16.4245,-22.8892 1.1327,1.9619 h -5.4748 l 1.1327,-1.9619 z m 1.5103,2.6158 1.1327,1.9619 h -8.4954 l 1.1327,-1.9619 z m 9.0618,15.6955 h -24.3536 l -1.1327,1.9618 h 26.619 z"
       style="fill:#231916;fill-opacity:1;fill-rule:evenodd;stroke:none"
       id="path248" />
    <path
       d="m 196.4435,505.3411 c 24.2087,0 43.8335,-19.6248 43.8335,-43.8336 0,-24.2087 -19.6248,-43.8335 -43.8335,-43.8335 -24.2087,0 -43.8335,19.6248 -43.8335,43.8335 0,24.2088 19.6248,43.8336 43.8335,43.8336 z m 0,-2.6158 c -22.7648,0 -41.2177,-18.453 -41.2177,-41.2178 0,-22.7647 18.4529,-41.2177 41.2177,-41.2177 22.7648,0 41.2177,18.453 41.2177,41.2177 0,22.7648 -18.4529,41.2178 -41.2177,41.2178"
       style="fill:#231916;fill-opacity:1;fill-rule:evenodd;stroke:none"
       id="path250" />
    <path
       d="m 204.8632,492.7241 c -0.136,-0.4604 -0.2718,-0.7847 -0.3308,-1.1526 -0.0226,-0.1457 0.9355,0.0969 1.0285,0.1071 0.011,10e-4 0.0215,0.002 0.0317,0.003 0.0139,0.004 0.0275,0.007 0.0417,0.0105 0.1715,0.0411 0.3551,0.0578 0.5289,0.1066 l 0.4419,0.144 0.0786,0.0314 0.0878,0.0281 c 0.0287,0.0116 0.0703,0.0374 0.0726,0.0706 0.002,0.0328 -0.002,0.0666 0.001,0.0944 0.003,0.0286 -0.0348,0.0388 -0.001,0.0575 0.0298,0.006 -0.0388,0.0816 0.0567,0.0595 l 0.0683,-0.0317 0.0567,-0.0304 c 0.0473,-0.0306 0.0933,-0.0861 0.1329,-0.1292 0.0652,-0.072 0.1185,-0.1335 0.152,-0.2101 0.0266,-0.0601 0.072,-0.2222 0.0748,-0.2848 l -0.007,-0.003 -0.003,-0.0388 c 0.004,-0.01 -0.0601,-0.1627 -0.0652,-0.1658 -6e-4,-0.0315 -0.0156,-0.0808 -0.0487,-0.0939 l 0.002,-0.006 c -0.0408,-0.0343 -0.0606,-0.0202 -0.1125,-0.0437 -0.0218,-0.0802 -0.254,-0.1395 -0.3183,-0.1343 -0.005,0.0113 -0.3728,-0.061 -0.705,-0.112 -0.4825,-0.1055 -0.9831,-0.176 -1.2612,-0.2194 l -0.0283,-0.0116 -0.0133,0.005 c -0.0428,-0.006 -0.0791,-0.0122 -0.1075,-0.0176 -0.0756,-0.0142 -0.2361,-0.0164 -0.2143,-0.0901 0.0482,-0.167 0.005,-0.3464 0.1973,-0.7067 0.057,-0.1043 0.1148,-0.506 0.1605,-0.6494 0.055,-0.1724 0.1669,-0.4989 0.2284,-0.6639 0.0528,-0.1415 0.1548,-0.3413 0.2195,-0.4893 0.047,-0.1083 0.0785,-0.2267 0.1295,-0.3305 0.1403,-0.2852 0.2432,-0.4498 0.4133,-0.667 0.0564,-0.0714 0.1584,-0.2049 0.2185,-0.2662 0.0598,-0.0606 0.1483,-0.1371 0.2107,-0.1887 0.142,-0.1174 0.3214,-0.203 0.4634,-0.2801 0.2554,-0.1389 0.4635,-0.229 0.635,-0.2821 0.0833,-0.0249 0.1865,-0.0484 0.2344,-0.0663 0.121,-0.0456 0.0734,-0.0714 -0.1811,-0.1284 -0.1565,-0.0343 -0.413,-0.1241 -0.7691,-0.146 -0.1241,-0.008 -0.2959,-0.009 -0.4442,-0.0371 -0.1757,-0.0335 -0.4101,0.0677 -0.5683,0.1604 -0.1769,0.1041 -0.2832,0.1681 -0.4275,0.364 -0.0643,0.0865 -0.117,0.2239 -0.1732,0.3186 -0.1916,0.324 -0.3483,0.6018 -0.4206,0.8552 -0.0734,0.2316 -0.1233,0.5139 -0.1806,0.7013 -0.1746,0.5726 -0.2843,0.953 -0.3971,1.2277 -0.0383,0.0935 -0.0457,0.1239 -0.1134,0.1369 -0.0573,0.0111 -0.0768,-0.0516 -0.0933,-0.0774 -0.1652,-0.2534 -0.2897,-0.5592 -0.4697,-0.8129 -0.1584,-0.2223 -0.3679,-0.3955 -0.5632,-0.5769 -0.2447,-0.2262 -0.5131,-0.4263 -0.891,-0.4816 -0.1184,-0.0164 -0.2891,-0.015 -0.4243,-0.01 -0.2449,0.01 -0.5082,0.1012 -0.8677,0.1794 -0.381,0.083 -1.0202,0.1383 -1.4196,0.2733 -0.3946,0.1332 -0.4192,0.2072 -0.2157,0.2939 0.4612,0.01 1.5696,-0.0108 1.9993,0.0536 0.413,0.0612 0.7274,0.2259 1.0735,0.4864 0.1729,0.1304 0.3013,0.2951 0.4566,0.483 0.1239,0.1494 0.3056,0.3651 0.3663,0.5638 0.0368,0.0219 0.1822,0.2832 0.3155,0.5641 -0.1049,-0.008 -0.1993,0.003 -0.2832,-0.009 -0.1542,-0.0218 -0.2716,-0.0175 -0.3691,-0.0382 -0.195,-0.0417 -0.2965,-0.0989 -0.3546,-0.1052 -0.1006,-0.0116 -0.1142,-0.0119 -0.2412,-0.0278 -0.0995,-0.0127 -0.11,-0.0603 -0.2095,-0.0768 -0.0941,-0.015 -0.1004,-0.0212 -0.1724,-0.0487 -0.0487,-0.0182 -0.1244,-0.0227 -0.1457,-0.0494 -0.1065,-0.0881 -0.2361,-0.0561 -0.3231,-0.1094 -0.0848,-0.008 -0.2585,0.0559 -0.3232,0.184 -0.001,0.003 -0.0669,0.1573 -0.0737,0.1735 -0.047,0.1125 -0.0983,0.1944 -0.1063,0.197 0.007,0.286 0.2469,0.3875 0.4139,0.4144 l 0.3084,0.0499 c 0.1729,-0.0173 0.3986,0.0663 0.6939,0.1182 0.3909,0.068 0.8595,0.066 1.2844,0.1786 0.085,0.0221 0.1587,0.0416 0.2239,0.0581 0.0777,0.1961 0.1684,0.4093 0.26,0.6347 0.1613,0.6259 0.7197,2.0985 0.9045,2.9644 l 0.1624,1.0316 -0.0141,0.002 c 0.0209,0.1309 -0.1392,0.3296 -0.1202,0.4512 v 0 l 0.0142,-0.0192 c 0.004,0.0269 0.009,0.0462 -0.004,0.0728 l 10e-4,0.001 0.006,-0.008 c 0.0113,0.0748 0.0623,0.1466 0.1224,0.1891 l 0.0939,-0.009 -0.004,9e-4 c 0.2443,-0.0352 0.4958,-0.1503 0.7155,-0.2475 l -0.002,-0.0116 0.0459,-0.0326 c 0.0164,-0.003 0.0448,-0.0604 0.0459,-0.0819 0.0437,-0.019 0.0882,-0.0618 0.0876,-0.1126 0.0391,-0.0246 0.089,-0.0796 0.0808,-0.1306 l 0.009,-0.002 c 0.0124,-0.0766 0.0632,-0.0975 0.0544,-0.1806 0.0839,-0.0867 -0.0955,-0.3824 -0.15,-0.4589 l -0.0172,0.002 c -0.0196,-0.1244 -0.0766,-0.2973 -0.1531,-0.3982 l -0.055,-0.144 c 3e-4,0 -0.009,-0.0196 -0.0116,-0.0281 -0.2305,-0.4694 -0.5528,-1.5279 -0.745,-2.1368 l 0.008,-0.002 z"
       style="fill:#231916;fill-opacity:1;fill-rule:evenodd;stroke:none"
       id="path254" />
    <path
       d="m 215.7395,488.0877 c 0.1712,-0.0992 0.131,-0.2055 0.157,-0.3492 0.0142,-0.0763 0.063,-0.1386 0.0445,-0.2302 -0.0292,-0.1454 -0.3288,-0.4581 -0.4223,-0.4768 -0.1208,-0.0238 -0.2084,-0.008 -0.339,-0.0147 -0.082,-0.0292 -0.1645,-0.059 -0.2469,-0.0882 -0.2844,-0.1026 -0.5933,0.521 -0.5069,0.762 0.1928,0.1284 0.4025,0.1139 0.6208,0.1661 0.1123,0.0266 0.1919,0.1193 0.2999,0.157 0.1137,0.04 0.2764,0.0491 0.3929,0.074 z m 7.3791,0.5933 c -0.5519,-0.1321 -1.271,-0.2463 -1.5587,-0.335 -0.0573,-0.0154 -0.0913,-0.1426 -0.0774,-0.1823 0.0332,-0.0953 0.087,-0.2106 0.085,-0.3033 -0.0422,-0.0349 -0.2698,-0.007 -0.3588,-0.0264 -0.1486,-0.0329 -0.2135,-0.013 -0.3938,-0.0159 -0.2625,-0.005 -0.3588,0.0148 -0.4663,-0.0788 -0.0711,-0.0623 0.0377,-0.5615 -0.0632,-0.7293 -0.11,-0.182 -0.4535,-0.1313 -0.4895,-0.341 0.0907,-0.0958 0.1145,-0.1882 0.0677,-0.2979 0.0992,-0.0358 0.2951,0.007 0.4751,0.0243 0.1162,0.0108 0.1908,-0.0258 0.2693,0.0426 0.0162,0.0147 0.0332,0.0291 0.0499,0.0436 -0.0275,0.2126 -0.0706,0.3974 0.0476,0.6154 0.0196,0.0374 0.091,0.2577 0.2801,0.3334 0.123,0.0493 0.1689,0.2556 0.2775,0.2758 0.1641,0.0312 0.299,-0.008 0.4076,-0.055 0.2307,-0.2086 -0.0133,-0.4921 0.11,-0.7623 0.1576,-0.0952 0.9,0.2211 1.0749,0.2872 0.002,0.008 0.004,0.0164 0.005,0.0238 -0.2863,0.2302 -0.6381,0.4388 -0.6168,0.7311 0.2627,0.2857 0.8124,-0.1032 1.127,-0.2316 0.2353,-0.0958 0.3688,0.0241 0.5579,-0.0547 0.2738,-0.1137 0.4016,-1.3961 0.0547,-1.529 -0.7121,0.2259 -2.3032,-0.1066 -3.1278,-0.3042 -0.007,-0.0139 -0.013,-0.0275 -0.0192,-0.0408 0.0405,-0.0652 0.0221,-0.0956 0.008,-0.163 0.339,-0.2764 0.7535,-0.4859 1.1299,-0.7642 0.1205,-0.089 0.2543,-0.2982 0.3912,-0.7283 0.0839,-0.2636 -0.2523,-0.3469 -0.3181,-0.4266 -0.1468,-0.0986 -0.2831,-0.0207 -0.5731,-0.0122 -0.1681,0.004 -0.3992,0.0876 -0.5979,0.1353 -0.1964,0.0479 -0.36,0.0598 -0.5794,0.1343 -0.1754,0.0598 -0.5034,0.1063 -0.6893,0.1675 -0.3805,0.1262 -0.7697,0.2194 -1.1336,0.3306 -0.0695,0.007 -0.1352,0.0158 -0.1528,0.0297 -0.0411,-0.004 -0.0831,0.0258 -0.1128,0.0508 l -0.006,-0.007 -0.1196,0.0536 0.005,-10e-4 c -0.005,0.004 -0.0122,0.009 -0.0198,0.0141 -0.0329,0.0131 -0.0646,0.0255 -0.0958,0.0391 -0.0587,0.0247 -0.116,0.0502 -0.1732,0.0749 -0.0567,0.0159 -0.1057,0.0218 -0.1307,0.009 l -0.0575,0.0476 -0.0644,-0.0782 0.1562,-0.1287 0.003,0.003 8e-4,-6e-4 c 0.0233,-0.0986 0.2979,-0.1196 0.3733,-0.1814 l 0.009,0.0108 0.1998,-0.076 c 0.0171,-0.0363 0.1857,-0.1278 0.2223,-0.1576 0.003,-0.0286 0.0102,-0.0558 0.0329,-0.076 v 0 l -0.005,0.004 0.0102,-0.0901 -3e-4,-9e-4 c 0.0275,-0.0224 0.0202,-0.0805 0.0411,-0.1088 l -0.0274,-0.0335 c 0.0504,-0.0416 0.0382,-0.0357 0.0433,-0.0904 v 0 c 10e-4,-0.0156 -0.0195,-0.0402 -0.0297,-0.0524 l 0.008,-0.006 -0.004,-0.1369 -0.0541,-0.0783 0.0105,-0.008 -0.0646,-0.0782 -0.0102,0.008 -0.0111,-0.0133 -0.1315,-9e-4 -0.005,-0.006 -0.1333,-0.0117 -0.005,0.004 -0.0326,-0.0144 -0.074,-0.0289 -0.0363,0.0294 c -0.0442,-0.0535 -0.0493,-0.0303 -0.1136,-0.0374 l -0.0287,0.0238 -0.0144,-0.0178 c -0.2101,0.021 -0.2455,0.045 -0.4451,0.0433 -0.0428,-8e-4 -0.1142,-0.003 -0.1689,-0.0269 -0.0445,-0.019 -0.0513,-0.0479 -0.0817,-0.0771 -0.0354,-0.0337 -0.0867,-0.0737 -0.0623,-0.1207 0.0229,-0.0437 0.136,-0.0913 0.1672,-0.1029 l -8e-4,2e-4 c -0.0119,0.01 0.0221,-0.0127 0.0365,-0.0167 l -0.005,0.005 c 0.0399,-0.0318 0.1029,-0.0295 0.1408,-0.061 v 0 c 0.003,0.004 0.3212,-0.121 0.6035,-0.2472 0.2999,-0.1346 0.6872,-0.3353 0.6951,-0.337 l -0.006,0.005 c 0.2688,-0.214 0.1698,-0.1718 0.2929,-0.4785 l -0.0162,-0.0201 c 0.0442,-0.0368 0.0422,-0.0496 0.0473,-0.1012 l -0.034,-0.0414 0.0425,-0.0348 c -0.002,-0.0978 0.1015,-0.2965 0.0261,-0.3787 -0.1879,-0.2061 -0.1034,-0.1639 -0.371,-0.0715 -0.1029,0.0349 -0.26,0.1636 -0.3563,0.2075 -0.2022,0.0916 -0.3765,0.203 -0.5738,0.2897 -0.233,0.1024 -0.4243,0.2515 -0.6338,0.343 -0.2188,0.0955 -0.3172,0.237 -0.4981,0.2957 v 0 c 0.008,0.01 -0.1275,0.006 -0.1445,0.0198 -0.3847,-0.4277 -0.963,-1.3833 -1.3025,-1.815 -0.0893,-0.2648 -0.288,-0.3654 -0.487,-0.5182 l -0.008,0.006 -0.1735,-0.2069 0.005,0.002 c -0.0125,-0.007 -0.0204,-0.0131 -0.0286,-0.0233 l 0.005,0.002 -0.1899,-0.1145 -0.017,0.0139 c -0.0553,-0.0672 -0.1216,-0.1324 -0.1596,-0.0967 -0.1046,0.099 -0.4196,0.3926 -0.741,0.6789 l 0.002,0.007 -0.0547,0.1641 0.0153,0.0188 -0.0414,0.0334 c -0.003,0.0315 -0.0697,0.1497 -0.0507,0.1735 l -0.005,0.003 c -0.003,0.0414 -0.0606,0.1709 -0.0893,0.2013 l 0.002,0.002 -0.0533,0.0857 c 0,0 -0.1029,0.1267 -0.108,0.1785 v 0 c -0.0184,0.1934 -0.0861,0.7739 -0.2304,0.8935 0.001,0.0255 -0.01,0.0493 -0.0287,0.0652 l 6e-4,-3e-4 -0.0417,0.1928 0.0343,0.0601 -0.053,0.0564 c 0.003,0.0108 0.004,0.0207 0.007,0.0317 0.0842,0.0162 0.2257,-0.1581 0.4371,-0.3818 0.135,-0.1426 0.2792,-0.2321 0.4221,-0.3878 0.1114,-0.1213 0.1746,-0.2789 0.265,-0.3912 0.0647,-0.0805 0.1163,-0.1474 0.1713,-0.1896 0.0348,-0.0261 0.0836,-0.0391 0.098,-0.051 0.0162,0.0201 0.0323,0.0402 0.0496,0.0618 0.2175,0.2809 0.4805,0.7143 0.6588,0.9453 0.1556,0.2024 0.3929,0.4896 0.6103,0.7234 -0.2083,0.1715 -1.6469,0.7447 -1.7149,0.7155 l 0.0223,0.0102 c -0.1848,0.1517 -0.6587,0.252 -0.6851,0.5499 v -3e-4 c -0.0119,-0.005 -0.005,0.0256 -0.0127,0.036 l 0.009,0.0105 c -0.0618,0.0508 -0.07,0.1225 -0.1114,0.184 l 0.0193,0.0232 c -0.0487,0.0428 -0.1494,0.2965 -0.1057,0.3496 l -3e-4,5e-4 -0.0207,0.133 0.007,0.009 -0.0292,0.0604 v 0 c -0.0182,-0.0227 -0.003,0.0593 0.0153,0.0819 l -0.017,0.0145 c -0.003,0.0272 -0.003,0.0408 -0.0142,0.0675 0.0315,0.0246 0.0984,0.1664 0.1534,0.1539 0.1289,0.1559 0.3753,-0.1554 0.4889,-0.1551 0.5341,-0.2639 0.4751,-0.3563 0.9241,-0.5819 0.4972,-0.25 1.143,-0.6061 1.2203,-0.6699 l 0.0397,-0.0184 v 0 c 0.0981,-0.081 0.4414,-0.1644 0.6503,-0.1695 0.2475,-0.005 0.3685,0.1585 0.5006,0.254 l 0.095,0.008 c 0.0714,0.0117 0.1377,0.0445 0.1961,0.1009 l 0.1579,0.1324 c -0.1431,0.1182 -0.2086,0.2676 -0.3421,0.3807 l 0.001,-6e-4 -0.0729,0.0732 0.009,0.0113 c -0.1596,0.1315 -0.2948,0.1965 -0.3311,0.3938 l 0.005,0.006 -0.007,0.006 0.0428,0.1281 c 0.0394,-0.008 0.1557,0.003 0.1866,0.0286 0.0445,-0.0241 0.2182,-0.0533 0.2619,-0.049 v 0 c 0.0309,0.004 0.0649,-0.0403 0.0856,-0.0573 l 0.0331,0.0386 -5e-4,8e-4 v 0 c 0.0845,-0.0686 0.4867,-0.0388 0.5893,-0.0263 l 0.0264,-0.0219 0.015,0.0176 c 0.0641,-0.0212 0.1258,-0.019 0.1811,-0.051 0.0136,8e-4 0.0272,10e-4 0.0403,0.002 l 0.006,0.006 0.0267,-0.004 c 0.0655,0.005 0.1321,0.0134 0.1984,0.0134 0.0717,0 0.1486,-0.0273 0.2126,-0.042 0.9006,-0.2129 1.8485,-0.2971 2.6768,-0.3172 0.007,0.008 0.0141,0.0167 0.0209,0.0255 -2e-4,0.005 -5e-4,0.0102 -0.001,0.015 -0.5791,0.5046 -1.5749,0.7022 -2.3,0.9536 -0.4754,0.165 -1.0658,0.3782 -1.476,0.5224 -0.0615,0.009 -0.1346,0.0533 -0.2072,0.1168 v 0 c -0.0105,0.006 -0.0213,0.0105 -0.032,0.0131 -0.0139,0.0107 -0.0267,0.0184 -0.0482,0.0201 -0.006,0.002 -0.0111,0.003 -0.017,0.004 -0.0102,0.007 -0.0278,0.0154 -0.0392,0.0188 -0.006,0.004 -0.0124,0.007 -0.0207,0.01 -0.009,0.008 -0.0167,0.0139 -0.0283,0.0187 l -0.1874,0.1548 -0.0116,-0.0154 c -0.0272,0.0233 -0.0505,0.0454 -0.0819,0.0613 l -0.0961,0.0796 c -0.005,0.005 -0.01,0.0117 -0.0147,0.0168 -0.007,0.0232 -0.019,0.0388 -0.0375,0.0541 l 10e-4,10e-4 -0.3529,0.2903 c -0.004,0.009 -0.009,0.0173 -0.0162,0.0244 -0.004,0.0107 -0.0105,0.0207 -0.0187,0.0294 -0.006,0.0159 -0.015,0.0363 -0.0252,0.0482 -0.002,0.0199 -0.0117,0.0389 -0.0281,0.0528 v 0 l 0.0167,-0.0137 c -8e-4,0.01 -0.002,0.0188 -0.004,0.0284 l 0.0133,0.0167 -6e-4,9e-4 0.0913,0.1108 c 0.007,0.008 0.0116,0.0176 0.0145,0.0261 0.006,0.008 0.0102,0.0156 0.013,0.0246 l 0.0462,0.0559 -0.0261,-0.002 v 0 c 0.015,10e-4 0.0301,0.007 0.0428,0.0173 0.006,0.003 0.0111,0.005 0.017,0.008 h 3e-4 c 0.0139,0.0168 0.0559,0.0171 0.0749,0.0188 v 0 c 0.006,5e-4 0.0223,-0.004 0.0325,-0.004 0.0148,-0.003 0.0315,-0.007 0.0468,-0.007 l 0.0726,-0.0598 0.0306,0.0374 c 0.01,-0.001 0.0198,-0.002 0.0295,3e-4 0.0102,-0.005 0.0215,-0.008 0.0334,-0.008 0.008,-0.005 0.0227,-0.0105 0.0318,-0.0134 0.009,-0.007 0.0178,-0.0133 0.0289,-0.0167 0.0162,-0.013 0.0343,-0.0309 0.0539,-0.0374 0.005,-0.004 0.0107,-0.008 0.0161,-0.0114 l 0.0825,-0.0685 0.0181,0.0226 c 0.007,-0.003 0.0139,-0.005 0.0236,-0.007 0.0141,-0.009 0.0501,-0.0219 0.0677,-0.0258 0.0108,-0.005 0.0233,-0.009 0.0366,-0.009 0.011,-0.005 0.0241,-0.008 0.0377,-0.008 0.0207,-0.005 0.0263,-0.0102 0.0428,-0.0238 l 0.008,0.01 c 0.007,-0.001 0.015,-0.002 0.0224,-0.002 0.009,-0.003 0.0182,-0.005 0.0278,-0.005 0.0116,-0.006 0.0255,-0.009 0.0397,-0.008 0.0125,-0.004 0.0212,-0.008 0.0346,-0.0113 0.0122,-0.006 0.026,-0.009 0.0402,-0.009 0.009,-0.002 0.0182,-0.004 0.0264,-0.006 0.009,-0.007 0.0187,-0.0128 0.0278,-0.0207 l 0.002,0.004 c 0.008,-0.002 0.0164,-0.004 0.0244,-0.004 0.008,-0.004 0.0184,-0.007 0.0292,-0.008 0.008,-0.003 0.0198,-0.008 0.0278,-0.01 0.0195,-0.005 0.0374,-0.0164 0.0598,-0.017 0.006,-0.005 0.0153,-0.007 0.0244,-0.01 0.0541,-0.0108 0.108,-0.0221 0.1593,-0.0301 0.6723,-0.1017 1.4201,-0.8039 1.9026,0.1171 -0.0139,0.0635 0.0312,0.2962 -0.0664,0.326 -0.1423,-0.006 -0.373,-0.0423 -0.515,-0.0479 -0.1381,0.007 -0.4374,-0.0255 -0.6449,0.0275 -0.0865,0.0218 -0.1627,0.047 -0.2149,0.0745 -2e-4,0.005 -0.001,0.0105 -0.001,0.0156 0.0564,0.07 0.1211,0.1534 0.1948,0.203 0.3208,0.2131 0.7801,0.2423 1.1287,0.3339 -0.0221,0.1086 -0.0629,0.2514 -0.072,0.3974 -0.0173,0.2792 -0.2018,0.0774 -0.3503,0.1114 -0.1491,0.0343 0.0527,-0.0434 0.002,-0.2129 -0.0516,-0.1703 -0.4763,-0.1919 -0.5897,-0.2222 -0.1139,-0.0306 -0.2171,0.0368 -0.3143,-0.0601 -0.2016,-0.2001 -0.3923,-0.7036 -0.7603,-0.4708 -0.0674,0.0419 -0.4838,0.5811 -0.4138,0.6253 0.0416,0.1006 0.1797,0.2817 0.2182,0.3291 0.1432,0.1735 0.368,0.506 0.4346,0.775 0.0275,0.1114 -0.006,0.2165 -0.023,0.2976 -0.0105,0.0488 0.0386,0.0615 0.0632,0.0692 0.2118,-0.1426 0.4034,-0.5295 0.4162,-0.7586 0.1406,-0.2953 0.5592,0.5199 0.7367,0.6557 0.1443,0.1114 0.3087,-0.0306 0.3458,-0.114 0.0372,-0.0836 6e-4,-0.4073 -0.0949,-0.5232 -0.0953,-0.1157 0.1428,-0.1704 0.1428,-0.1704 l 0.2413,0.3144 c 0,0 0.0493,0.189 -0.0811,0.3316 -0.0896,0.0981 -0.15,0.4382 -0.1029,0.5817 0.0604,0.1879 0.3107,-0.112 0.3589,-0.1009 0.1695,-0.0156 0.2885,-0.072 0.4515,-0.1548 0.1179,-0.0604 0.1715,-0.1128 0.2758,-0.1772 0.2345,-0.1428 0.0105,-0.6633 0.2815,-0.6806 0.6613,0.2041 1.3867,0.3957 2.0475,0.646 v -5e-4 l 0.068,0.0263 c 0.0601,0.0102 0.2276,0.0278 0.2517,0.0647 0.01,0.003 0.019,0.008 0.0267,0.0147 0.0136,0.005 0.0436,0.0233 0.053,0.032 0.0691,0.0403 0.1414,0.0502 0.2086,0.1032 0.009,0.004 0.0261,0.0136 0.0337,0.0201 0.0168,0.007 0.0372,0.0196 0.0482,0.0332 0.0749,0.0522 0.2291,0.165 0.2271,0.2563 -6e-4,0.0249 0.009,0.0326 0.0227,0.0538 0.0938,0.1534 0.0703,0.051 0.1037,0.2004 0.008,0.0119 0.0235,0.0295 0.0275,0.0437 l 0.0224,0.034 c 0.004,-0.002 0.008,-0.003 0.0133,-0.004 0.1185,-0.0782 0.0428,-0.002 0.1395,-0.0654 0.006,-0.008 0.0127,-0.0154 0.0215,-0.0216 0.005,-0.006 0.009,-0.0119 0.0153,-0.017 0.021,-0.0425 0.178,-0.1749 0.1894,-0.182 0.003,-0.005 0.006,-0.009 0.01,-0.013 0.005,-0.015 0.0153,-0.0267 0.0267,-0.0349 0.0552,-0.0428 0.0229,-0.0147 0.0581,-0.0723 0.0215,-0.0357 0.0544,-0.07 0.0833,-0.0895 0.009,-0.008 0.0145,-0.0168 0.0261,-0.0256 0.004,-0.008 0.0102,-0.0164 0.0167,-0.0232 0.003,-0.006 0.006,-0.0113 0.01,-0.0162 0.003,-0.0229 0.0165,-0.0394 0.0304,-0.0572 0.004,-0.01 0.01,-0.0196 0.0181,-0.0281 0.005,-0.0161 0.0142,-0.0309 0.0281,-0.0425 0.007,-0.015 0.0173,-0.0303 0.03,-0.0414 0.005,-0.007 0.0105,-0.0125 0.0167,-0.0178 0.006,-0.009 0.0134,-0.0162 0.0221,-0.0224 0.003,-0.003 0.005,-0.006 0.008,-0.009 0.002,-0.006 0.004,-0.0119 0.007,-0.0176 0.005,-0.0235 0.008,-0.0343 0.0195,-0.055 0.002,-0.004 0.005,-0.0207 0.006,-0.0261 0.004,-0.0201 0.015,-0.0351 0.0195,-0.0532 0.004,-0.0185 0.007,-0.0394 0.0156,-0.0559 0.006,-0.0303 0.0153,-0.019 0.007,-0.047 -0.003,-0.0125 -0.004,-0.0247 -0.003,-0.0369 -0.002,-0.019 0.004,-0.036 0.007,-0.0547 -0.002,-0.0153 -0.004,-0.0284 2e-4,-0.0437 -2e-4,-0.004 -8e-4,-0.008 -8e-4,-0.0121 -0.003,-0.0114 -0.004,-0.023 -0.002,-0.0352 -10e-4,-0.009 -10e-4,-0.0244 -6e-4,-0.0346 -0.003,-0.011 -0.004,-0.0218 -0.003,-0.0331 -0.007,-0.0199 -0.007,-0.0414 0,-0.061 8e-4,-0.0119 -0.007,-0.0255 -0.004,-0.0476 -0.003,-0.0136 -0.003,-0.0284 0,-0.0414 -8e-4,-0.008 -0.002,-0.0167 -0.002,-0.0252 -0.004,-0.0145 -0.008,-0.0295 -0.008,-0.0448 -0.003,-0.009 -0.005,-0.0216 -0.005,-0.0315 l -0.0536,-0.0819 c -0.0181,-0.006 -0.0295,-0.0213 -0.0411,-0.0388 -0.007,-0.0114 -0.0176,-0.0162 -0.0263,-0.0284 -0.0173,-0.009 -0.0403,-0.0519 -0.0729,-0.0737 -0.0187,-0.009 -0.0397,-0.0357 -0.0598,-0.0399 v 0 c -0.0148,-0.003 -0.0295,-0.005 -0.0425,-0.0131 -0.005,-8e-4 -0.01,-0.002 -0.0148,-0.004 -0.0561,-0.003 -0.1828,-0.008 -0.2333,-0.0334 -0.0122,8e-4 -0.0447,-0.003 -0.0561,-0.007 -0.03,0.002 -0.0264,0.005 -0.053,-0.0125 -0.0105,0.002 -0.0295,-6e-4 -0.0391,-0.004 -0.0145,0.003 -0.0292,0.004 -0.0428,3e-4 -0.0116,3e-4 -0.023,-6e-4 -0.0352,-3e-4 -0.1406,0.0318 -0.2792,0.021 -0.4254,0.003 -0.0156,0.002 -0.0358,0.009 -0.0519,0.008 -0.008,3e-4 -0.0167,0.002 -0.0247,0.002 -0.01,0.003 -0.019,0.005 -0.028,0.004 l -0.0922,0.002 10e-4,-0.002 z"
       style="fill:#231916;fill-opacity:1;fill-rule:evenodd;stroke:none"
       id="path258" />
    <path
       d="m 190.8332,489.8775 c 0.2352,0.0434 0.4271,0.1602 0.6219,0.2753 0.1207,0.0714 0.2477,0.151 0.3815,0.1768 0.4428,0.0856 0.7441,-0.3152 0.5769,-0.7528 -0.1094,-0.2858 -0.224,-0.5692 -0.3325,-0.8553 -0.038,-0.1003 -0.0655,-0.2046 -0.1072,-0.3373 0.1293,-0.047 0.2376,-0.0913 0.349,-0.1256 0.1145,-0.0354 0.2324,-0.0606 0.3481,-0.0924 0.3353,-0.0921 0.4059,-0.1573 0.4133,-0.3795 0.008,-0.2492 -0.1866,-0.5216 -0.4244,-0.5998 -0.273,-0.0902 -0.5162,-0.0397 -0.7339,0.146 -0.1227,0.1043 -0.2463,0.2077 -0.3696,0.3118 -0.2642,-0.3087 -0.5154,-0.595 -0.7583,-0.8881 -0.2197,-0.2656 -0.6395,-0.3388 -0.9334,-0.1525 -0.0185,0.0116 -0.0349,0.0263 -0.0525,0.0391 -0.3753,0.2778 -0.3656,0.3733 0.0318,0.6185 0.2786,0.1715 0.5485,0.3586 0.8127,0.5516 0.102,0.0749 0.1785,0.1854 0.2678,0.2812 -0.0541,0.1293 -0.1071,0.2364 -0.1442,0.3487 -0.0686,0.2086 -0.0108,0.288 0.2049,0.2922 0.1176,0.003 0.2353,-5e-4 0.3736,-0.001 0.0604,0.2262 0.1154,0.4329 0.167,0.6259 -0.1576,0.1335 -0.2982,0.1457 -0.4524,0.0726 -0.0684,-0.0323 -0.1489,-0.0845 -0.2132,-0.072 -0.3064,0.0598 -0.4034,-0.1534 -0.5508,-0.3538 -0.4425,-0.6007 -0.7982,-1.2492 -1.1389,-1.9091 -0.1449,-0.2801 -0.3172,-0.5465 -0.4887,-0.8116 -0.057,-0.0879 -0.1457,-0.1579 -0.2279,-0.227 -0.1095,-0.0916 -0.2262,-0.0831 -0.3209,0.0215 -0.1239,0.1369 -0.2532,0.2727 -0.3515,0.4278 -0.0893,0.1406 -0.1035,0.3052 -0.0366,0.4722 0.1437,0.358 0.3368,0.69 0.6268,0.9411 0.5221,0.4521 0.9158,0.9924 1.22,1.6073 0.072,0.1451 0.1746,0.2749 0.2781,0.4356 -0.0624,0.0922 -0.1259,0.1905 -0.1939,0.2855 -0.051,0.0706 -0.1194,0.1309 -0.1596,0.2069 -0.1228,0.231 -0.0255,0.4394 0.2287,0.4864 0.15,0.0281 0.3048,0.0287 0.4556,0.053 0.3183,0.0525 0.5292,0.2594 0.6057,0.5695 0.0272,0.1103 0.0162,0.1962 -0.0918,0.2475 -0.0981,0.0465 -0.1548,-0.0105 -0.2203,-0.0814 -0.3645,-0.3928 -0.6525,-0.4271 -1.0853,-0.1391 0.0705,0.1689 0.1414,0.3381 0.21,0.5023 -0.2375,0.1737 -0.2426,0.1788 -0.4099,0.0107 -0.1179,-0.1187 -0.2344,-0.1905 -0.4212,-0.0853 0.0178,0.1162 0.0405,0.231 0.0521,0.3467 0.0117,0.1162 0.0128,0.2333 0.0182,0.3444 -0.1684,0.0507 -0.2254,-0.0581 -0.2909,-0.1383 -0.0476,-0.0584 -0.0904,-0.1267 -0.115,-0.1973 -0.3345,-0.9576 -0.9136,-1.7881 -1.3811,-2.6768 -0.3353,-0.6375 -0.6656,-1.2781 -0.9893,-1.9216 -0.2548,-0.5065 -0.4847,-1.0259 -0.7472,-1.5282 -0.2222,-0.4249 -0.4742,-0.8339 -0.7154,-1.2483 -0.0326,-0.0562 -0.0757,-0.1066 -0.1191,-0.1551 -0.2877,-0.3194 -0.4195,-0.2942 -0.589,0.1083 -0.0256,0.0598 -0.0533,0.1225 -0.0947,0.1712 -0.222,0.2614 -0.1905,0.5443 -0.0754,0.8328 0.1134,0.2835 0.2508,0.5587 0.3447,0.8484 0.0482,0.1491 0.1831,0.076 0.2486,0.1542 0.1675,0.201 0.3696,0.3805 0.5034,0.6013 1.1554,1.906 2.2981,3.8197 3.4467,5.7299 0.0793,0.1324 0.1403,0.2554 0.1303,0.4244 -0.0136,0.2304 0.1653,0.3875 0.3334,0.4938 0.1287,0.0816 0.2095,0.1786 0.2866,0.2962 0.2276,0.3464 0.4603,0.6894 0.6851,1.0375 0.0428,0.066 0.0607,0.1485 0.1182,0.2953 -0.2199,-0.0864 -0.3696,-0.1408 -0.5159,-0.2038 -0.43,-0.1851 -0.8597,-0.3719 -1.2875,-0.5621 -0.1094,-0.049 -0.2112,-0.1142 -0.3169,-0.1715 -0.4527,-0.2449 -0.9215,-0.3399 -1.4153,-0.1335 -0.3039,0.127 -0.3963,0.2724 -0.3796,0.5533 0.5902,0.1494 1.1889,0.2648 1.7623,0.4567 0.5726,0.1913 1.1506,0.3889 1.7215,0.7327 -0.3867,0.2492 -0.7274,0.4751 -1.0749,0.6903 -0.1712,0.106 -0.2789,0.2432 -0.284,0.447 -0.004,0.165 0.0858,0.2489 0.2469,0.2055 0.3852,-0.1034 0.7752,-0.0986 1.1687,-0.1111 0.2327,-0.008 0.4771,-0.0779 0.6897,-0.1772 0.3016,-0.1408 0.3517,-0.3208 0.2364,-0.6896 0.1108,0.0365 0.1984,0.0558 0.2772,0.0935 0.265,0.1273 0.521,0.2755 0.7917,0.3895 0.4246,0.1783 0.5726,0.0417 0.6939,-0.2744 0.0236,-0.0612 0.0553,-0.1193 0.0771,-0.1811 0.1168,-0.3289 -0.015,-0.5919 -0.3483,-0.6866 -0.313,-0.0887 -0.6302,-0.1633 -0.9403,-0.2608 -0.1077,-0.0337 -0.2302,-0.0952 -0.2945,-0.1822 -0.4675,-0.6313 -0.9221,-1.2725 -1.3791,-1.9114 -0.0249,-0.0349 -0.0368,-0.0788 -0.0581,-0.127 0.0442,-0.0601 0.0825,-0.1276 0.1355,-0.1803 0.1551,-0.1542 0.235,-0.1423 0.3572,0.0374 0.0796,0.1171 0.1579,0.2367 0.2494,0.3444 0.3498,0.4127 0.6503,0.8479 0.6696,1.4151 0.2046,0.1281 0.3943,0.0606 0.5624,-0.0394 0.0643,-0.0383 0.1182,-0.167 0.1071,-0.2447 -0.0312,-0.2231 -0.0986,-0.4408 -0.1536,-0.6681 0.2208,-0.1579 0.2489,-0.1667 0.4243,0.004 0.1318,0.1284 0.2622,0.2687 0.3515,0.4274 0.0743,0.1315 0.1653,0.1585 0.2906,0.1508 0.2338,-0.015 0.4317,-0.1876 0.521,-0.4379 0.0844,-0.2359 -0.0105,-0.4017 -0.1939,-0.5378 -0.1752,-0.1298 -0.3399,-0.2795 -0.5298,-0.3829 -0.3816,-0.2092 -0.6165,-0.5468 -0.8453,-0.8946 -0.023,-0.0346 -0.0298,-0.08 -0.0468,-0.1282 0.131,-0.1272 0.2515,-0.1179 0.3643,0.009 0.1017,0.1142 0.1862,0.246 0.2976,0.3489 0.1015,0.0936 0.2197,0.1849 0.3473,0.2299 0.1953,0.0689 0.322,-0.0224 0.4016,-0.2199 0.0477,-0.1177 0.1086,-0.233 0.1817,-0.3362 0.1276,-0.1797 0.1256,-0.3317 -0.0479,-0.4879 -0.1295,-0.1162 -0.2781,-0.2117 -0.4144,-0.3209 -0.2123,-0.1697 -0.2234,-0.2126 -0.142,-0.4714 0.0828,-0.2627 0.0431,-0.377 -0.1996,-0.513 -0.2092,-0.1177 -0.4283,-0.218 -0.6381,-0.3348 -0.2469,-0.1372 -0.3852,-0.3436 -0.4254,-0.6276 z m -0.4556,2.897 c 0.1293,0.2299 0.2515,0.4232 0.3459,0.6293 0.0272,0.0598 -9e-4,0.1874 -0.0496,0.2265 -0.0417,0.0329 -0.1659,0.007 -0.2245,-0.0346 -0.2146,-0.1499 -0.3022,-0.388 -0.4167,-0.6318 0.1108,-0.061 0.2043,-0.1123 0.3449,-0.1894 z m -1.3271,-1.9134 c -0.0443,-0.1678 -0.0737,-0.2797 -0.0927,-0.3512 0.0802,-0.2078 0.216,-0.3912 0.1981,-0.5581 -0.0201,-0.1863 -0.1528,-0.3821 -0.2852,-0.5298 -0.2454,-0.2741 -0.5734,-0.3294 -1.0644,0.0632 0.146,0.6375 0.5049,1.0468 1.2442,1.3759"
       style="fill:#231916;fill-opacity:1;fill-rule:evenodd;stroke:none"
       id="path262" />
    <path
       d="m 172.6569,493.2794 c 0.0328,0.002 0.0206,0.032 0.1624,0.008 0.1145,-0.055 0.1196,-0.0465 0.2355,-0.0777 0.1163,-0.0309 0.328,-0.1874 0.5276,-0.3257 0.1995,-0.1383 0.479,-0.4969 0.5561,-0.8059 0.0771,-0.3092 0.0564,-0.6928 -0.0127,-0.9623 -0.0168,-0.0664 -0.1185,-0.3144 -0.1917,-0.6299 -0.0847,-0.3645 -0.1488,-0.8266 -0.2744,-1.319 -0.0612,-0.2395 -0.1686,-0.5235 -0.225,-0.7469 -0.0621,-0.2472 -0.0936,-0.4955 -0.1435,-0.6834 -0.0592,-0.2223 -0.1295,-0.3921 -0.155,-0.47 -0.1412,-0.4306 -0.3203,-1.0174 -0.4334,-1.095 0,0 0.0425,0.7687 0.0691,1.3473 0.0114,0.2503 0.0202,0.4649 0.021,0.5663 -0.009,0.294 0.0567,0.603 0.0612,0.8927 0.0122,0.7866 -0.008,1.5511 -0.0153,2.3975 0.0105,0.3121 -0.0311,0.5902 -0.0912,0.8872 -0.0607,0.3 -0.2322,0.906 -0.0907,1.0163 z m 4.3829,-9.0386 0.3087,-0.324 0.0241,-0.015 c 0.1153,-0.1797 0.2233,-0.3988 0.2917,-0.5624 0.0368,-0.0882 0.0901,-0.1443 0.1252,-0.1834 0.0494,-0.055 0.1129,-0.0258 0.2512,0.0264 0.0751,0.0283 0.142,-0.005 0.2086,0.004 0.0876,0.0122 0.1483,-0.0331 0.1812,-0.0598 0.0388,-0.0317 0.1513,-0.1213 0.1851,-0.2157 0.0411,-0.1151 0.0436,-0.2429 0.0575,-0.3183 0.0255,-0.1369 0.0187,-0.233 0.0187,-0.233 -0.004,-0.1826 -0.004,-0.2721 0.025,-0.4357 0.0391,-0.2222 0.034,-0.3878 0.034,-0.3878 0.0884,-0.0329 0.1389,0.0252 0.2012,0.0856 0.1644,0.1593 0.2954,0.4879 0.2954,0.4879 0.0916,0.301 0.218,0.314 0.3061,0.3778 0.0856,0.0624 0.4173,0.002 0.5936,-0.1417 0.1914,-0.1559 0.1922,-0.4235 0.127,-0.5156 -0.176,-0.2498 -0.3447,-0.4334 -0.5247,-0.6823 -0.1307,-0.1806 -0.2727,-0.4258 -0.4017,-0.6092 -0.0113,-0.0408 -0.2177,-0.2078 -0.267,-0.4541 -0.0431,-0.2154 -0.3954,-0.3867 -0.5031,-0.3637 -0.201,0.0431 -0.724,0.1777 -0.7963,0.3935 -0.0595,0.1768 -0.1451,0.4759 -0.1669,0.5238 -0.0267,0.059 -0.007,0.5683 -0.1429,0.8583 -0.0901,0.1922 -0.1633,0.3065 -0.2064,0.4329 -0.0289,0.0847 -0.0581,0.1051 -0.1238,0.1256 0,0 -0.1191,-0.007 -0.2554,-0.0179 -0.0862,-0.007 -0.1849,-0.0904 -0.2756,-0.0842 -0.0578,0.004 -0.2049,0 -0.2497,0.015 -0.0567,0.019 -0.0768,0.0831 -0.0167,0.1871 0.0178,0.0312 0.0314,0.1253 0.0629,0.1622 0.0275,0.0323 0.0626,0.07 0.0839,0.0955 0.0145,0.017 0.0522,0.0541 0.0629,0.0655 0.1395,0.1451 0.3376,0.242 0.3376,0.242 l -0.0155,0.042 c -0.0256,0.0558 -0.0377,0.0944 -0.0987,0.157 -0.0468,0.0479 -0.1505,0.1248 -0.2347,0.2234 -0.0692,0.0808 -0.2889,0.4771 -0.4045,0.7356 l -0.1576,0.2285 3e-4,3e-4 -0.002,0.003 -0.0692,-0.082 c -0.0547,-0.0969 -0.0541,-0.248 -0.1536,-0.324 0.0136,-0.0195 -0.1239,-0.1848 -0.093,-0.2299 l -0.03,-0.1065 -0.0148,-0.0102 c 0.025,-0.0508 -0.009,-0.0754 0.001,-0.125 -0.0332,-0.023 -0.2668,-0.8519 -0.2988,-0.8059 v 0 c -0.002,-0.0128 -0.004,-0.023 -0.003,-0.0346 -0.0994,-0.0836 -0.1944,-0.1004 -0.3194,-0.1335 -0.0264,0.0385 -0.1293,-0.0284 -0.1729,-0.0457 l -0.0729,0.0374 -0.004,-0.002 c -0.2823,0.1947 -0.3512,0.5111 -0.3211,0.8201 0.007,0.005 0.045,0.2505 0.0374,0.2778 0.0221,0.0669 -0.0513,0.0861 -0.0125,0.2429 l -6e-4,0.001 c 0.0281,0.0737 0.0525,0.1925 0.0284,0.2699 l -0.002,0.0555 c 0.0244,0.0794 0.0303,0.1491 -0.003,0.2498 0.007,0.0317 5e-4,0.0581 0.0232,0.0853 -0.006,0.015 0.044,0.2401 0.0505,0.2866 0.009,0.0813 0.0346,0.2058 0.0521,0.2877 0.0253,0.0173 0.0477,0.2458 0.053,0.2883 0.003,0.002 0.008,0.4583 0.01,0.5102 l 0.002,0.0238 0.0369,0.1293 c -0.0335,0.053 0.0499,0.2919 0.047,0.2959 0.006,0.0346 0.0423,0.303 0.042,0.3036 l 0.0184,0.104 c -0.0161,0.0321 -0.0119,0.0627 -0.028,0.0947 -0.0151,0.0303 -0.0505,0.0621 -0.0658,0.0924 l -0.0851,-0.0587 c 0.0281,-0.0405 -0.068,-0.1726 -0.1114,-0.2026 0.005,-0.007 -0.1672,-0.3674 -0.223,-0.4057 0.0136,-0.0198 -0.1038,-0.3237 -0.1378,-0.3469 0.0105,-0.0151 -0.2302,-0.3955 -0.1916,-0.451 -0.0136,-0.0587 -0.1585,-0.3172 -0.1545,-0.3232 -0.0547,-0.0448 -0.1568,-0.3189 -0.1338,-0.3523 -0.015,-0.0329 -0.0165,-0.0972 -0.0451,-0.1171 l 0.003,-0.005 c -0.0241,-0.0456 -0.1173,-0.1942 -0.0969,-0.2234 -0.0182,-0.0309 -0.0125,-0.0963 -0.0442,-0.1182 l 0.002,-0.003 c -0.0386,-0.1259 -0.1109,-0.2035 -0.1299,-0.3376 l -0.01,-0.006 0.006,-0.009 -0.0303,-0.0842 c -0.0184,-0.1006 -0.0811,-0.2582 -0.1159,-0.3815 l -0.008,-0.04 c -0.0144,-0.0485 -0.072,-0.2599 -0.0533,-0.2872 -0.0184,-0.0311 -0.008,-0.098 -0.0419,-0.1216 l 0.003,-0.004 c -0.0422,-0.231 -0.2656,-0.6095 -0.2945,-0.7838 v 0 c -0.0235,-0.1287 -0.4241,-0.4377 -0.548,-0.4555 -0.006,0.008 -0.1984,-0.0284 -0.2267,-0.036 -0.005,0.007 -0.2702,-0.0831 -0.3152,-0.0896 -0.002,0.002 -0.5585,-0.1652 -0.6342,-0.1746 -0.0107,0.0156 -0.214,-0.0689 -0.2415,0.0584 l -0.0632,0.2934 c 0.0406,0.0541 0.038,0.373 0.0933,0.411 l -0.003,0.005 c 0.013,0.0519 0.1298,0.3586 0.1261,0.364 0.0162,0.0329 0.1253,0.1828 0.1177,0.1939 l 0.0374,0.045 5e-4,-8e-4 c 0.1662,0.1514 1.4528,2.3505 1.4525,2.3505 0.1381,0.1732 0.2427,0.5442 0.4201,0.6667 l -0.004,0.006 c 0.0252,0.0544 0.3078,0.4649 0.3055,0.468 0.0284,0.0675 0.3053,0.4686 0.3033,0.4717 0.0304,0.0391 0.2075,0.2458 0.1959,0.2628 0.123,0.0847 0.1338,0.3172 0.2356,0.3875 l -0.003,0.005 c 0.0317,0.0624 0.053,0.1553 0.1148,0.1978 l -0.003,0.005 c 0.0263,0.0383 0.0533,0.091 0.0238,0.135 l 0.006,0.004 -0.3622,0.5253 c 0.0173,0.0335 0.1417,0.341 0.1392,0.3447 0.0141,0.0499 0.4396,0.773 0.46,0.7869 -0.0547,0.01 0.0865,0.0354 0.1256,0.0811 l 0.0839,-0.0457 c 0.0145,-0.034 0.0519,-0.0459 0.0723,-0.0754 0.0195,0.0136 0.0845,-0.0929 0.0983,-0.1108 l 0.004,0.0232 c -0.005,-0.0277 0.2129,-0.3696 0.2506,-0.424 l 0.064,0.089 c 0.0913,0.0272 0.5865,0.4683 0.5519,0.5184 0.2084,0.1438 0.1613,0.1106 0.3722,0.1364 l 0.1216,-0.0845 c 0.2988,-0.1604 0.0369,-0.4569 0.0652,-0.4977 -0.0229,-0.0675 -0.0277,-0.2319 -0.0708,-0.2617 0.0292,-0.0422 -0.0584,-0.4178 -0.0791,-0.432 l 0.008,-0.0116 -0.2514,-0.451 -0.001,-6e-4 c 0.008,-0.0119 -0.0454,-0.4042 -0.0789,-0.4323 0.009,-0.0133 0.0868,-0.6003 0.2214,-0.7951 -0.002,-0.002 0.1007,-0.1703 0.1095,-0.1845 l 0.1508,0.328 -3e-4,5e-4 c 0.1207,0.0834 0.1162,0.4329 0.2415,0.5193 -0.025,0.0363 0.3654,0.3226 0.3492,0.3255 0.2818,0.1114 0.716,0.1678 0.9165,-0.1228 0.006,0.0369 0.1343,-0.2361 0.0496,-0.2945 0.0226,-0.0329 -0.003,-0.0717 -0.007,-0.1307 l 0.001,-0.6624 c -0.005,-0.003 0,-0.1095 0.007,-0.1208 -0.0253,-0.0176 -0.0459,-0.3648 -0.0482,-0.4323 l -0.004,-0.1287 c -0.0235,-0.0161 -0.004,-0.3002 -0.005,-0.3705 -0.0533,-0.1287 -0.0581,-0.2035 -0.1142,-0.3036 -0.0508,-0.0904 -0.1576,-0.1754 -0.2441,-0.2862 -0.1239,-0.2126 -0.1825,-0.2271 -0.3713,-0.3561 z m 0.0139,1.7722 c -0.0233,-0.223 0.0255,-0.3118 -0.0403,-0.4881 0.0346,-0.0502 -0.0887,-0.3098 -0.1236,-0.3676 l -0.002,-0.007 -0.1627,-0.1188 -0.3081,0.4465 c 0.0176,0.0119 0.01,0.0768 0.0731,0.1715 l 0.002,-0.007 0.1565,0.411 0.0989,0.1599 -0.001,-0.002 0.0717,0.1425 0.085,0.059 0.1106,-0.0516 c -0.0108,-0.1037 0.0252,-0.2231 0.0397,-0.3484 z m -2.0359,-2.3076 c -0.081,0.1669 -0.0266,0.5944 -0.0346,0.7531 -0.004,0.1174 0.0678,0.3578 0.0791,0.432 l 0.001,0.001 c 0.0105,0.0646 0.0919,0.4101 0.0777,0.4311 l 0.0366,0.0459 0.0485,0.0128 0.0589,-0.0734 0.1763,-0.2676 c 0.0474,-0.1086 0.1537,-0.1965 0.0323,-0.4034 -0.0178,-0.0454 -0.008,-0.1148 -0.0785,-0.2582 -0.003,-0.002 -0.0575,-0.1021 -0.1108,-0.2254 -0.0343,-0.0799 -0.0578,-0.1684 -0.1018,-0.2514 -0.0433,-0.0814 -0.0893,-0.1551 -0.1335,-0.2038 -0.0303,-0.019 -0.0385,-0.0196 -0.0516,0.007"
       style="fill:#231916;fill-opacity:1;fill-rule:evenodd;stroke:none"
       id="path266" />
    <path
       d="m 181.7501,466.6405 v 0.5998 c 0.3405,0.005 0.5718,0.0499 0.6934,0.1338 0.1216,0.0836 0.1825,0.2373 0.1825,0.4598 v 2.6064 c 0,0.2401 -0.051,0.3963 -0.1522,0.4686 -0.1009,0.074 -0.3419,0.1137 -0.7237,0.1213 v 0.5624 c 0.3453,0.005 0.6514,0.0312 0.9199,0.0785 0.2681,0.0477 0.5059,0.2954 0.7151,0.3904 h 0.667 v -4.2276 c 0,-0.2222 0.0635,-0.3765 0.1888,-0.4598 0.1262,-0.0839 0.3674,-0.129 0.724,-0.1338 v -0.5998 z"
       style="fill:#231916;fill-opacity:1;fill-rule:evenodd;stroke:none"
       id="path268" />
    <path
       d="m 192.3457,468.9082 c -0.2341,-0.1451 -0.4742,-0.252 -0.7186,-0.32 -0.2426,-0.0695 -0.5028,-0.1035 -0.7803,-0.1035 -0.6177,0 -1.1223,0.1576 -1.5126,0.4711 -0.3917,0.3138 -0.5868,0.7195 -0.5868,1.2158 0,0.5392 0.2296,0.9763 0.6894,1.3102 0.4598,0.3351 1.0627,0.5026 1.8074,0.5026 0.8212,0 1.4544,-0.2217 1.8995,-0.6664 0.447,-0.4434 0.6695,-1.0758 0.6695,-1.8947 0,-0.8805 -0.246,-1.5645 -0.7387,-2.052 -0.4929,-0.4876 -1.1826,-0.7308 -2.0718,-0.7308 -0.5769,0 -1.0497,0.0984 -1.4213,0.2937 -0.3714,0.195 -0.5565,0.4331 -0.5565,0.714 0,0.1752 0.0607,0.3138 0.182,0.417 0.1216,0.1035 0.2835,0.1551 0.4876,0.1551 0.3178,0 0.5434,-0.1928 0.6721,-0.5794 0.0173,-0.0494 0.03,-0.0859 0.0388,-0.1072 0.0332,-0.1057 0.0882,-0.1777 0.1622,-0.2166 0.0751,-0.038 0.2009,-0.0567 0.3755,-0.0567 0.4355,0 0.7782,0.146 1.0268,0.4383 0.2503,0.2922 0.3758,0.6953 0.3758,1.2095 z m -0.0765,1.3139 c 0,0.3325 -0.0856,0.5896 -0.256,0.771 -0.1703,0.1826 -0.4121,0.2733 -0.7228,0.2733 -0.3254,0 -0.5769,-0.0896 -0.756,-0.2696 -0.1792,-0.1789 -0.269,-0.4334 -0.269,-0.7597 0,-0.3175 0.0867,-0.5681 0.2585,-0.752 0.1721,-0.1826 0.4065,-0.2747 0.7027,-0.2747 0.343,0 0.6015,0.0856 0.7778,0.2582 0.1766,0.1727 0.2648,0.4232 0.2648,0.7535"
       style="fill:#231916;fill-opacity:1;fill-rule:nonzero;stroke:none"
       id="path270" />
    <path
       d="m 210.3503,468.9082 c -0.2342,-0.1451 -0.4743,-0.252 -0.7186,-0.32 -0.2427,-0.0695 -0.5029,-0.1035 -0.7804,-0.1035 -0.6177,0 -1.1222,0.1576 -1.5126,0.4711 -0.3914,0.3138 -0.5867,0.7195 -0.5867,1.2158 0,0.5392 0.2296,0.9763 0.6894,1.3102 0.46,0.3351 1.0627,0.5026 1.8073,0.5026 0.8212,0 1.4545,-0.2217 1.8995,-0.6664 0.447,-0.4434 0.6696,-1.0758 0.6696,-1.8947 0,-0.8805 -0.2458,-1.5645 -0.7387,-2.052 -0.493,-0.4876 -1.1827,-0.7308 -2.0716,-0.7308 -0.5771,0 -1.05,0.0984 -1.4213,0.2937 -0.3716,0.195 -0.5567,0.4331 -0.5567,0.714 0,0.1752 0.0606,0.3138 0.1822,0.417 0.1214,0.1035 0.2832,0.1551 0.4873,0.1551 0.3178,0 0.5434,-0.1928 0.6721,-0.5794 0.0173,-0.0494 0.0303,-0.0859 0.0391,-0.1072 0.0332,-0.1057 0.0882,-0.1777 0.1619,-0.2166 0.0751,-0.038 0.201,-0.0567 0.3759,-0.0567 0.4351,0 0.7778,0.146 1.0267,0.4383 0.25,0.2922 0.3756,0.6953 0.3756,1.2095 z m -0.0766,1.3139 c 0,0.3325 -0.0853,0.5896 -0.2559,0.771 -0.1704,0.1826 -0.4122,0.2733 -0.7229,0.2733 -0.3254,0 -0.5768,-0.0896 -0.756,-0.2696 -0.1791,-0.1789 -0.269,-0.4334 -0.269,-0.7597 0,-0.3175 0.0868,-0.5681 0.2585,-0.752 0.1721,-0.1826 0.4065,-0.2747 0.7027,-0.2747 0.343,0 0.6016,0.0856 0.7779,0.2582 0.1766,0.1727 0.2647,0.4232 0.2647,0.7535"
       style="fill:#231916;fill-opacity:1;fill-rule:nonzero;stroke:none"
       id="path272" />
    <path
       d="m 197.5966,466.6405 c 0.4232,1.7303 1.0225,1.914 2.5288,2.5138 0.7427,0.2959 0.9712,0.8628 0.9712,1.3144 0,0.273 -0.1678,0.4839 -0.3303,0.6335 -0.1621,0.1497 -0.39,0.2254 -0.684,0.2254 -0.231,0 -0.4314,-0.0485 -0.5995,-0.1434 -0.1681,-0.0947 -0.2514,-0.2016 -0.2514,-0.3175 0,-0.0182 0.0351,-0.087 0.1083,-0.2081 0.0728,-0.121 0.1097,-0.2432 0.1097,-0.3682 0,-0.1718 -0.0672,-0.311 -0.2036,-0.4153 -0.1358,-0.104 -0.3158,-0.1559 -0.5422,-0.1559 -0.2194,0 -0.3932,0.0663 -0.5205,0.1976 -0.127,0.1326 -0.1899,0.3124 -0.1899,0.5374 0,1.1078 1.4445,1.6076 2.3179,1.6076 0.7166,0 1.3807,-0.1795 1.8091,-0.4726 0.8359,-0.5723 0.8617,-2.0367 -0.0652,-2.5594 -0.7552,-0.4257 -2.9002,-0.4184 -2.9308,-1.1517 -0.007,-0.1746 0.0536,-0.39 0.4813,-0.3733 0.3779,0.015 2.0143,0.0244 2.2919,0.2378 0.1732,0.1332 0.2925,0.36 0.4269,0.6463 l 0.5292,-10e-4 0.1159,-1.7473 h -5.3728 z"
       style="fill:#231916;fill-opacity:1;fill-rule:evenodd;stroke:none"
       id="path274" />
    <path
       d="m 225.0527,474.2765 c 0.04,-0.0834 0.0839,-0.1582 0.1299,-0.2228 0.0476,-0.0655 0.1014,-0.1248 0.1624,-0.1761 0.0944,-0.0839 0.2012,-0.1513 0.3211,-0.2004 0.1191,-0.051 0.2486,-0.0952 0.3861,-0.1343 0.2858,-0.0783 0.5944,-0.1571 0.9258,-0.2379 0.3314,-0.0807 0.6939,-0.1675 1.0905,-0.2593 0.2526,-0.0621 0.4402,-0.0893 0.5613,-0.0814 0.1216,0.007 0.3186,0.0576 0.5901,0.1503 l 0.7351,0.2508 c 0.087,0.0298 0.1576,0.0717 0.2123,0.1264 0.0544,0.0562 0.0867,0.1364 0.0964,0.2421 0.003,0.0468 -0.004,0.1412 -0.0227,0.2829 -0.017,0.1423 -0.0343,0.2446 -0.051,0.3096 l 0.284,0.0969 0.9873,-2.8619 -0.284,-0.0969 c -0.0281,0.0652 -0.0718,0.1596 -0.129,0.2812 -0.0587,0.1213 -0.1066,0.2035 -0.1437,0.2475 -0.0695,0.0759 -0.1418,0.119 -0.218,0.1306 -0.0757,0.01 -0.1599,-5e-4 -0.252,-0.032 l -0.9131,-0.3118 c -0.0796,-0.0272 -0.1502,-0.0527 -0.2106,-0.076 -0.0601,-0.0232 -0.1083,-0.0493 -0.1445,-0.0771 -0.0403,-0.0329 -0.0896,-0.083 -0.1466,-0.1482 -0.0581,-0.0655 -0.1332,-0.1505 -0.2239,-0.2551 -0.2642,-0.2991 -0.5137,-0.5851 -0.7487,-0.8604 -0.2335,-0.2752 -0.4529,-0.5354 -0.6567,-0.7806 -0.1058,-0.129 -0.1843,-0.2486 -0.2379,-0.3597 -0.0518,-0.112 -0.089,-0.2186 -0.1097,-0.324 -0.0144,-0.0786 -0.0147,-0.167 -0.002,-0.2668 0.0133,-0.0992 0.03,-0.1876 0.0513,-0.265 l -0.2843,-0.097 -1.018,2.9512 0.2841,0.0969 c 0.1009,-0.269 0.1825,-0.4447 0.2449,-0.5286 0.0641,-0.0848 0.1227,-0.1174 0.176,-0.099 0.0264,0.009 0.0734,0.0457 0.1426,0.108 0.0678,0.0618 0.1704,0.1676 0.3079,0.3141 0.1295,0.1369 0.3047,0.3311 0.528,0.5845 0.2228,0.2534 0.4822,0.5551 0.7773,0.9065 -0.8909,0.2095 -1.512,0.3507 -1.8629,0.4235 -0.3495,0.0732 -0.5573,0.0981 -0.6234,0.0754 -0.0833,-0.0286 -0.1281,-0.1006 -0.1383,-0.2162 -0.008,-0.1163 0.0204,-0.2892 0.0862,-0.5202 l -0.2841,-0.0969 -0.659,1.9102 0.284,0.097 z m -19.4488,-42.8633 c -0.0722,-0.0221 -0.1749,-0.0595 -0.3078,-0.1131 -0.1347,-0.053 -0.2418,-0.1219 -0.3223,-0.2041 -0.0848,-0.0819 -0.131,-0.2083 -0.1378,-0.3792 -0.008,-0.1696 0.0207,-0.4196 0.0845,-0.7441 l 0.3901,-1.9863 c 0.1145,-0.5839 0.008,-1.0927 -0.3218,-1.5264 -0.3294,-0.4334 -0.8234,-0.7152 -1.4797,-0.8425 -0.7662,-0.1485 -1.3935,-0.0921 -1.8796,0.1698 -0.4876,0.2614 -0.7912,0.7002 -0.9119,1.3147 l -0.5358,2.7303 c -0.0173,0.0876 -0.049,0.1599 -0.0949,0.2163 -0.0471,0.055 -0.1228,0.0992 -0.2282,0.1307 -0.0726,0.0207 -0.1576,0.0306 -0.2574,0.0326 -0.0995,9e-4 -0.1797,-3e-4 -0.2421,-0.004 l -0.0575,0.2931 2.8074,0.5456 0.0575,-0.2934 c -0.0805,-0.0207 -0.1604,-0.0459 -0.2412,-0.0759 -0.0811,-0.0304 -0.1613,-0.0675 -0.2426,-0.1114 -0.0896,-0.0494 -0.1443,-0.112 -0.1642,-0.188 -0.0184,-0.0771 -0.0198,-0.1593 -0.002,-0.2474 l 0.5289,-2.6944 c 0.1041,-0.5289 0.2974,-0.8923 0.58,-1.0868 0.2835,-0.1947 0.6489,-0.2486 1.097,-0.1618 0.4405,0.0853 0.76,0.2851 0.9584,0.5998 0.1984,0.3149 0.2469,0.7313 0.1454,1.2481 l -0.3552,1.8099 c -0.0632,0.3215 -0.1326,0.5579 -0.2075,0.7084 -0.0751,0.1505 -0.1663,0.252 -0.2707,0.305 -0.0765,0.0411 -0.2001,0.0692 -0.3719,0.0839 -0.1717,0.0133 -0.2908,0.0181 -0.3588,0.0156 l -0.059,0.301 2.342,0.455 0.0592,-0.3008 z m 6.9069,3.0402 c -0.0623,-0.0377 -0.1494,-0.0936 -0.2613,-0.1681 -0.1123,-0.0737 -0.2013,-0.1695 -0.2656,-0.2872 -0.0567,-0.1026 -0.0681,-0.2375 -0.0338,-0.4081 0.0352,-0.1684 0.1214,-0.4006 0.2588,-0.6962 l 1.6464,-3.5363 -0.6324,-0.2914 -4.8535,2.4027 1.0797,-2.3193 c 0.1338,-0.2872 0.2549,-0.4975 0.3629,-0.6296 0.1091,-0.1315 0.2225,-0.2134 0.3407,-0.2426 0.0873,-0.0219 0.2086,-0.0207 0.3648,0.002 0.1559,0.0241 0.2778,0.0485 0.3657,0.0717 l 0.1261,-0.2707 -2.1441,-0.9884 -0.1261,0.271 c 0.0875,0.0487 0.1839,0.1134 0.2894,0.1953 0.1051,0.0802 0.1848,0.1675 0.2378,0.2596 0.0592,0.1097 0.0743,0.2393 0.0454,0.3921 -0.0295,0.1508 -0.1194,0.3866 -0.2691,0.7086 l -1.0907,2.3434 c -0.0542,0.1163 -0.1239,0.2189 -0.2075,0.3056 -0.0839,0.0865 -0.1817,0.15 -0.2926,0.1885 -0.1182,0.0423 -0.2389,0.0615 -0.3662,0.0576 -0.127,-0.002 -0.263,-0.0216 -0.4085,-0.0584 l -0.1261,0.271 1.874,0.864 4.2514,-2.1048 -0.8734,1.8763 c -0.1386,0.2985 -0.2625,0.5114 -0.3693,0.6381 -0.1075,0.1281 -0.2211,0.2069 -0.3405,0.2355 -0.0938,0.0233 -0.2151,0.0221 -0.3671,-3e-4 -0.1505,-0.0232 -0.2704,-0.0464 -0.3594,-0.0703 l -0.1227,0.264 2.1441,0.9881 0.1227,-0.2636 z m 6.2414,-1.986 -2.4948,-1.7044 -0.1701,0.246 c 0.0544,0.0439 0.1338,0.1074 0.2384,0.1916 0.1054,0.0834 0.1726,0.148 0.203,0.1945 0.0567,0.0845 0.0807,0.163 0.0742,0.235 -0.007,0.07 -0.0391,0.1465 -0.0941,0.2262 l -2.1974,3.1827 c -0.0496,0.072 -0.108,0.1264 -0.1723,0.1616 -0.0652,0.0366 -0.15,0.0439 -0.2535,0.0224 -0.0649,-0.0125 -0.1547,-0.042 -0.2695,-0.0887 -0.1146,-0.0451 -0.2107,-0.0885 -0.2883,-0.1287 l -0.1701,0.246 2.4951,1.7048 0.17,-0.2464 c -0.0584,-0.0493 -0.1318,-0.1122 -0.2191,-0.1893 -0.0862,-0.0763 -0.1556,-0.1474 -0.2066,-0.2126 -0.063,-0.0845 -0.0893,-0.1644 -0.0763,-0.2412 0.0131,-0.0769 0.0445,-0.1525 0.0953,-0.2257 l 2.196,-3.1804 c 0.0518,-0.0754 0.1111,-0.1304 0.1766,-0.1653 0.0666,-0.034 0.1513,-0.0411 0.2548,-0.0198 0.0567,0.0104 0.1431,0.0425 0.2574,0.0949 0.1156,0.0522 0.2089,0.0998 0.2815,0.1432 z m 2.3224,9.2931 c -0.0547,-0.0643 -0.1026,-0.1318 -0.1403,-0.2018 -0.0386,-0.0709 -0.07,-0.1514 -0.095,-0.2438 -0.0334,-0.123 -0.0465,-0.2313 -0.0377,-0.3257 0.008,-0.0946 0.0377,-0.2078 0.0859,-0.3404 0.0675,-0.1803 0.1698,-0.4422 0.3061,-0.7849 0.1372,-0.3419 0.2926,-0.7319 0.4663,-1.1685 0.1574,-0.392 0.3311,-0.8192 0.5213,-1.2838 0.1914,-0.4634 0.3742,-0.9073 0.5491,-1.332 l -0.5528,-0.5414 c -0.8753,0.3736 -1.7657,0.7535 -2.6705,1.1387 -0.9054,0.3852 -1.5355,0.65 -1.893,0.7962 -0.1329,0.0499 -0.2426,0.0786 -0.3282,0.0865 -0.0848,0.007 -0.1956,-0.006 -0.33,-0.04 -0.0969,-0.0272 -0.1754,-0.0564 -0.2364,-0.0901 -0.0615,-0.0329 -0.1363,-0.0825 -0.2262,-0.1486 l -0.2109,0.2129 2.1107,2.0688 0.2052,-0.2073 c -0.1729,-0.2174 -0.2812,-0.373 -0.3257,-0.468 -0.0436,-0.0941 -0.0459,-0.1627 -0.006,-0.2029 0.0201,-0.0204 0.0454,-0.0383 0.0731,-0.055 0.0289,-0.0162 0.0698,-0.0366 0.1199,-0.0629 0.218,-0.1027 0.5837,-0.2608 1.0979,-0.474 0.5145,-0.2129 1.2932,-0.5434 2.334,-0.9927 -0.2653,0.6353 -0.4915,1.1696 -0.6791,1.6033 -0.1877,0.434 -0.3532,0.8178 -0.4989,1.1494 -0.0698,0.1616 -0.1395,0.3084 -0.2104,0.4394 -0.0697,0.1304 -0.1304,0.2217 -0.1811,0.273 -0.0573,0.0575 -0.1485,0.0657 -0.2718,0.0221 -0.1242,-0.0445 -0.3096,-0.1692 -0.557,-0.3767 l -0.2163,0.2185 1.5817,1.55 0.2163,-0.2183 z m 3.8146,4.104 -0.1571,-0.2545 c -0.2165,0.0442 -0.464,0.0462 -0.7415,0.002 -0.2781,-0.0425 -0.4799,-0.1315 -0.6072,-0.2631 -0.0553,-0.0569 -0.1216,-0.1423 -0.1967,-0.2565 -0.0751,-0.1142 -0.1361,-0.2106 -0.1829,-0.2866 l -0.4155,-0.6735 1.8051,-1.1001 0.2948,0.4779 c 0.0743,0.1208 0.1273,0.239 0.1599,0.3546 0.0314,0.1159 0.0314,0.239 2e-4,0.3685 -0.0195,0.0811 -0.0776,0.1871 -0.1729,0.3161 -0.0969,0.1281 -0.1873,0.2293 -0.2718,0.3024 l 0.157,0.2546 1.9463,-1.1863 -0.157,-0.2546 c -0.1004,0.0426 -0.2367,0.0794 -0.4082,0.112 -0.1724,0.0312 -0.3005,0.0386 -0.3816,0.0221 -0.1238,-0.0229 -0.231,-0.076 -0.3206,-0.1565 -0.091,-0.0799 -0.1749,-0.1836 -0.2551,-0.3135 l -0.2948,-0.4779 1.347,-0.8209 c 0.1415,-0.0865 0.2588,-0.144 0.3538,-0.1726 0.0955,-0.0307 0.1825,-0.0298 0.2613,2e-4 0.0754,0.0295 0.1494,0.0874 0.2203,0.1747 0.0723,0.0867 0.1587,0.2123 0.2602,0.3764 0.0468,0.076 0.1021,0.1684 0.1658,0.2769 0.0638,0.1086 0.1151,0.2064 0.1534,0.2937 0.0465,0.0978 0.0828,0.1942 0.11,0.288 0.0272,0.0924 0.0315,0.1715 0.0139,0.2359 -0.0431,0.1706 -0.135,0.3897 -0.2756,0.655 -0.1397,0.2668 -0.2517,0.4533 -0.3361,0.5616 l 0.1485,0.2412 1.4003,-0.9751 -2.6895,-4.3614 -0.256,0.1562 c 0.0335,0.0641 0.0754,0.1522 0.1284,0.2659 0.0516,0.1131 0.0811,0.1964 0.0907,0.252 0.0162,0.104 0.007,0.1865 -0.0291,0.2483 -0.0366,0.0607 -0.0961,0.1171 -0.1792,0.1675 l -3.2933,2.0075 c -0.0796,0.0485 -0.1522,0.076 -0.2185,0.0839 -0.0667,0.007 -0.1486,-0.0229 -0.2467,-0.0893 -0.062,-0.0405 -0.1352,-0.1065 -0.2211,-0.1955 -0.0844,-0.0899 -0.1474,-0.1591 -0.1865,-0.2075 l -0.2559,0.1559 2.5415,4.1215 1.192,-0.7268 z m 2.1608,4.8997 c -0.341,0.1324 -0.6276,0.1338 -0.8594,0.005 -0.2328,-0.129 -0.4184,-0.3705 -0.5565,-0.722 l -0.1117,-0.2843 2.1416,-0.8314 0.1074,0.2732 c 0.1386,0.3526 0.1537,0.6605 0.0445,0.9264 -0.1088,0.2659 -0.3636,0.4773 -0.7659,0.6335 z m 4.7475,0.9581 -0.7642,-1.9448 c -0.6486,-0.1364 -1.1702,-0.2546 -1.5633,-0.3592 -0.3938,-0.1029 -0.8561,-0.2429 -1.3885,-0.4172 l -0.0788,-0.2016 1.5466,-0.6004 c 0.0859,-0.0331 0.1644,-0.0453 0.2376,-0.036 0.0725,0.009 0.1474,0.0514 0.2231,0.1259 0.0374,0.0374 0.0856,0.1018 0.1428,0.1905 0.059,0.0884 0.1049,0.1661 0.1395,0.2327 l 0.2798,-0.1085 -1.0644,-2.7088 -0.2798,0.1085 c 0.0201,0.0726 0.0462,0.1678 0.0774,0.2866 0.0311,0.1188 0.0467,0.2055 0.0464,0.2619 -0.003,0.1049 -0.0266,0.1846 -0.0728,0.2393 -0.0471,0.0533 -0.1157,0.0981 -0.2064,0.1335 l -3.5988,1.3969 c -0.0871,0.0337 -0.1633,0.0479 -0.2311,0.0448 -0.0683,-0.005 -0.1437,-0.0485 -0.2256,-0.1318 -0.0624,-0.0644 -0.1236,-0.1449 -0.1862,-0.2398 -0.0621,-0.097 -0.1103,-0.1727 -0.1435,-0.2285 l -0.2797,0.1086 1.1194,2.8491 c 0.2503,0.6369 0.5408,1.0811 0.8708,1.334 0.3296,0.2531 0.6973,0.3001 1.1035,0.1425 0.3569,-0.1383 0.6049,-0.3529 0.7418,-0.6409 0.1372,-0.288 0.184,-0.665 0.1429,-1.1299 0.2747,0.0805 0.593,0.1749 0.9553,0.2832 0.3619,0.1083 0.7347,0.2225 1.1157,0.343 0.1224,0.0383 0.2758,0.0941 0.4612,0.1698 0.1845,0.0746 0.3121,0.1545 0.3818,0.2412 0.0386,0.0485 0.0808,0.1123 0.125,0.1922 0.0454,0.0794 0.0765,0.1375 0.093,0.1718 z m 0.7529,3.2358 c -0.0457,-0.3311 -0.1299,-0.633 -0.2512,-0.906 -0.123,-0.2744 -0.2528,-0.5026 -0.3923,-0.6857 l 0.231,-0.2985 -0.045,-0.3271 -1.9636,0.2194 0.0453,0.3271 c 0.1956,0.0488 0.404,0.1157 0.6259,0.2019 0.2206,0.0861 0.4227,0.1922 0.6066,0.3206 0.1922,0.1312 0.3541,0.2851 0.4865,0.4626 0.1332,0.1763 0.2177,0.3923 0.2528,0.6491 0.0476,0.3441 -5e-4,0.6202 -0.1437,0.8274 -0.1443,0.2061 -0.3444,0.3272 -0.6015,0.362 -0.2101,0.0287 -0.398,-0.0252 -0.563,-0.1613 -0.1652,-0.1363 -0.3223,-0.3608 -0.4731,-0.6735 -0.0986,-0.2046 -0.1896,-0.392 -0.2729,-0.5618 -0.0834,-0.1712 -0.1664,-0.3302 -0.2495,-0.4802 -0.1961,-0.3424 -0.4408,-0.5839 -0.7364,-0.7223 -0.2946,-0.1397 -0.6095,-0.1868 -0.9434,-0.1414 -0.2115,0.0286 -0.4085,0.1018 -0.5916,0.2205 -0.1831,0.1174 -0.3396,0.275 -0.4705,0.4711 -0.1234,0.1874 -0.2124,0.4176 -0.2679,0.6909 -0.0564,0.2735 -0.0632,0.5638 -0.0207,0.8716 0.0414,0.2996 0.1219,0.574 0.2426,0.8235 0.1194,0.2494 0.2313,0.4444 0.3368,0.5822 l -0.1976,0.2636 0.0451,0.3269 1.8519,-0.22 -0.0451,-0.3271 c -0.2089,-0.0493 -0.4246,-0.11 -0.646,-0.1846 -0.2217,-0.0742 -0.4105,-0.1596 -0.563,-0.2551 -0.1644,-0.1032 -0.303,-0.231 -0.413,-0.3815 -0.1097,-0.1491 -0.1803,-0.3337 -0.2103,-0.5516 -0.0377,-0.2742 0.01,-0.5077 0.1411,-0.7016 0.1316,-0.195 0.3124,-0.3081 0.542,-0.3393 0.2169,-0.0295 0.4045,0.0218 0.5624,0.1536 0.1593,0.133 0.313,0.3515 0.4612,0.6565 0.0899,0.1794 0.1803,0.3614 0.2699,0.5488 0.0907,0.1862 0.176,0.3518 0.2557,0.4955 0.1944,0.3489 0.4297,0.6012 0.7081,0.7591 0.2769,0.1565 0.602,0.2103 0.9751,0.1596 0.2347,-0.032 0.4544,-0.1173 0.6585,-0.2562 0.2043,-0.1387 0.3668,-0.3102 0.4872,-0.5157 0.1327,-0.2242 0.224,-0.4759 0.2736,-0.7537 0.0504,-0.2792 0.0507,-0.5953 0.002,-0.9493 z m 0.3645,6.7359 -0.0833,-3.0086 -0.3002,0.008 c -0.003,0.0697 -0.008,0.1706 -0.0153,0.3044 -0.005,0.1338 -0.0187,0.2259 -0.0383,0.2775 -0.0354,0.0953 -0.085,0.161 -0.1474,0.1979 -0.061,0.0357 -0.142,0.055 -0.2395,0.0578 l -3.8809,0.1063 c -0.0882,0.002 -0.1664,-0.0125 -0.2331,-0.0434 -0.068,-0.0309 -0.1238,-0.0949 -0.1675,-0.1907 -0.0278,-0.0596 -0.0567,-0.1491 -0.0862,-0.2688 -0.0309,-0.1184 -0.0524,-0.2213 -0.0654,-0.3075 l -0.3002,0.008 0.0836,3.0087 0.3002,-0.008 c 0.006,-0.076 0.0136,-0.1721 0.0249,-0.2877 0.0111,-0.1143 0.0284,-0.2118 0.0511,-0.2909 0.0314,-0.1003 0.081,-0.1686 0.1513,-0.2032 0.07,-0.0346 0.1497,-0.0542 0.2393,-0.0564 l 3.8783,-0.1063 c 0.0922,-0.003 0.1718,0.0124 0.2384,0.0445 0.0669,0.0337 0.1228,0.0978 0.1661,0.1933 0.0253,0.0519 0.0502,0.1403 0.0746,0.2628 0.0258,0.1238 0.0417,0.2267 0.0493,0.3104 l 0.3002,-0.008 z m -4.5031,6.1957 0.0371,-0.2962 c -0.2214,-0.1069 -0.4527,-0.2636 -0.6948,-0.4705 -0.2423,-0.2056 -0.3645,-0.3844 -0.367,-0.5341 -3e-4,-0.0819 0.005,-0.1828 0.0116,-0.3033 0.007,-0.1193 0.0159,-0.2225 0.0269,-0.3095 l 0.0224,-0.1781 4.2588,0.5287 c 0.0915,0.0116 0.1703,0.0386 0.2369,0.0797 0.0664,0.0413 0.1132,0.1131 0.1418,0.2143 0.0161,0.0601 0.0283,0.1539 0.0365,0.2792 0.009,0.1264 0.0134,0.2324 0.0131,0.3194 l 0.2979,0.0372 0.3767,-3.0025 -0.2979,-0.0368 c -0.017,0.0717 -0.0405,0.1743 -0.0714,0.3053 -0.0312,0.1306 -0.0593,0.2182 -0.0851,0.2639 -0.0541,0.0935 -0.1173,0.153 -0.1893,0.1771 -0.0734,0.0238 -0.1565,0.0309 -0.2517,0.0187 l -4.2971,-0.5332 0.0224,-0.178 c 0.0108,-0.087 0.0278,-0.1893 0.0505,-0.3067 0.0227,-0.1185 0.0433,-0.2177 0.0638,-0.2968 0.0394,-0.1443 0.2021,-0.288 0.4875,-0.428 0.286,-0.1415 0.5488,-0.2367 0.79,-0.286 l 0.0372,-0.2962 -1.5526,-0.1928 -0.6568,5.2325 z"
       style="fill:#231916;fill-opacity:1;fill-rule:evenodd;stroke:none"
       id="path276" />
    <path
       d="m 161.5201,472.2769 c 0.1278,0.3773 0.309,0.7107 0.5442,0.9995 0.235,0.2874 0.5106,0.5142 0.8283,0.6803 0.311,0.1639 0.6582,0.2574 1.0432,0.2821 0.3849,0.0243 0.7804,-0.0306 1.1846,-0.1661 0.4033,-0.1353 0.7529,-0.3297 1.0485,-0.5848 0.2948,-0.2537 0.5267,-0.5499 0.6922,-0.8859 0.163,-0.331 0.2535,-0.6916 0.2707,-1.0845 0.0182,-0.3929 -0.0399,-0.7866 -0.1743,-1.1826 -0.0966,-0.2855 -0.22,-0.5343 -0.371,-0.7464 -0.1497,-0.2123 -0.2968,-0.3843 -0.4391,-0.5176 l 0.1244,-0.2931 -0.106,-0.3129 -1.9046,0.6049 0.1083,0.3203 c 0.6417,-0.0133 1.1415,0.0627 1.4998,0.2259 0.3569,0.1636 0.5975,0.4272 0.7217,0.7934 0.1542,0.4556 0.0694,0.8694 -0.2548,1.2422 -0.324,0.3725 -0.8516,0.6817 -1.5829,0.9269 -0.413,0.1384 -0.7801,0.2157 -1.0996,0.233 -0.3191,0.017 -0.5901,-0.011 -0.8127,-0.0813 -0.2333,-0.078 -0.4257,-0.199 -0.5779,-0.3609 -0.1508,-0.1621 -0.2659,-0.3586 -0.345,-0.5919 -0.1148,-0.339 -0.1233,-0.6718 -0.027,-0.9986 0.0959,-0.328 0.2949,-0.6639 0.5982,-1.0074 l -0.2971,-0.2489 c -0.1794,0.1763 -0.3311,0.3597 -0.4547,0.5491 -0.1247,0.1896 -0.2185,0.3926 -0.2815,0.6086 -0.0689,0.2358 -0.1023,0.4818 -0.0997,0.7395 0.002,0.2563 0.0572,0.542 0.1638,0.8572 z m -0.0921,-16.9191 c 0.2483,-0.0854 0.521,-0.1347 0.8229,-0.1486 0.3004,-0.0144 0.6355,9e-4 1.0065,0.0471 0.315,0.0391 0.6194,0.0992 0.912,0.1806 0.2922,0.081 0.5479,0.1904 0.767,0.3259 0.2203,0.1384 0.3892,0.3059 0.5063,0.504 0.1185,0.1982 0.161,0.4303 0.1273,0.6993 -0.0579,0.4601 -0.3212,0.7824 -0.7903,0.9669 -0.4692,0.1837 -1.1036,0.2262 -1.9046,0.1267 -0.3411,-0.0422 -0.658,-0.108 -0.9545,-0.1975 -0.2956,-0.0896 -0.5479,-0.2041 -0.7599,-0.3439 -0.2129,-0.1426 -0.3725,-0.3089 -0.4774,-0.5 -0.1049,-0.1913 -0.1406,-0.415 -0.1083,-0.6724 0.0318,-0.2506 0.1228,-0.4583 0.2736,-0.6233 0.1505,-0.1633 0.3435,-0.2857 0.5794,-0.3648 z m 4.0141,-0.4941 c -0.2123,-0.2957 -0.481,-0.5443 -0.809,-0.7433 -0.328,-0.1992 -0.7129,-0.3262 -1.1574,-0.3815 -0.3957,-0.049 -0.7806,-0.0295 -1.1537,0.0575 -0.3747,0.0882 -0.7055,0.2396 -0.9955,0.4559 -0.3008,0.2279 -0.5471,0.5102 -0.7418,0.8438 -0.1931,0.3337 -0.3204,0.7441 -0.3816,1.2317 -0.0493,0.3937 -0.0306,0.7736 0.0547,1.1389 0.0871,0.366 0.2379,0.6976 0.4513,0.9947 0.21,0.294 0.4779,0.5397 0.8059,0.7376 0.3282,0.1979 0.7041,0.3237 1.1313,0.3767 0.4431,0.055 0.8563,0.0298 1.2359,-0.0762 0.3796,-0.1061 0.7155,-0.2756 1.006,-0.5074 0.2863,-0.2296 0.5202,-0.5162 0.701,-0.8581 0.1823,-0.3416 0.2982,-0.7152 0.3493,-1.1219 0.0504,-0.4031 0.0314,-0.7895 -0.0565,-1.1594 -0.0887,-0.3713 -0.2358,-0.6999 -0.4399,-0.989 z m 2.9458,-7.4994 c -0.0338,0.0644 -0.0845,0.154 -0.1528,0.2696 -0.0669,0.116 -0.1576,0.2101 -0.2719,0.2809 -0.0995,0.0627 -0.2344,0.082 -0.4076,0.0581 -0.1712,-0.0246 -0.409,-0.096 -0.7143,-0.2148 l -3.6496,-1.421 -0.254,0.6451 2.7074,4.6732 -2.3939,-0.932 c -0.2968,-0.1157 -0.5145,-0.2231 -0.6537,-0.3223 -0.1389,-0.1001 -0.2279,-0.2081 -0.2644,-0.3234 -0.0272,-0.0854 -0.0335,-0.2058 -0.0202,-0.3626 0.0148,-0.1559 0.0321,-0.2786 0.0499,-0.3674 l -0.2795,-0.1088 -0.8614,2.1881 0.2798,0.1088 c 0.0439,-0.0896 0.1026,-0.1891 0.1786,-0.2988 0.0737,-0.1091 0.1567,-0.1936 0.246,-0.2517 0.1063,-0.0655 0.2356,-0.0884 0.3903,-0.0689 0.1534,0.0205 0.3955,0.095 0.728,0.2245 l 2.4182,0.9414 c 0.1202,0.0468 0.2271,0.1094 0.3195,0.1877 0.0921,0.0782 0.1615,0.1712 0.2069,0.2789 0.0496,0.1148 0.0762,0.2336 0.0802,0.3603 0.006,0.1261 -0.006,0.2622 -0.0337,0.409 l 0.2798,0.1089 0.7526,-1.9125 -2.3712,-4.0936 1.9363,0.7541 c 0.3079,0.1199 0.529,0.2298 0.6628,0.3282 0.1352,0.0989 0.2211,0.2069 0.2574,0.3237 0.0289,0.0916 0.0351,0.2121 0.0218,0.3646 -0.0139,0.1505 -0.0301,0.271 -0.0485,0.3608 l 0.2721,0.106 0.8615,-2.188 z m 1.2744,-7.5081 c -0.0501,0.0632 -0.0952,0.1168 -0.1374,0.163 -0.0412,0.0468 -0.1007,0.1006 -0.1761,0.1616 -0.0862,0.0711 -0.1698,0.0989 -0.2525,0.0867 -0.0831,-0.0141 -0.1613,-0.0433 -0.2322,-0.0887 l -0.5372,-0.3416 c -0.1085,-0.0689 -0.1944,-0.125 -0.2596,-0.1698 -0.0652,-0.0442 -0.144,-0.0992 -0.2387,-0.1655 -0.2693,0.1318 -0.5964,0.373 -0.9822,0.7203 -0.3852,0.3486 -0.6911,0.6981 -0.9181,1.0513 -0.2138,0.3323 -0.3626,0.6758 -0.4471,1.031 -0.0853,0.3563 -0.0972,0.7078 -0.034,1.0573 0.0607,0.3478 0.2001,0.6806 0.4178,0.9961 0.2186,0.3164 0.521,0.5973 0.9071,0.8428 0.3595,0.2284 0.7308,0.3807 1.1129,0.4575 0.383,0.0754 0.7557,0.0717 1.1205,-0.0119 0.3609,-0.0803 0.7019,-0.241 1.0248,-0.4805 0.3214,-0.2401 0.6063,-0.5516 0.8532,-0.9357 0.1672,-0.2605 0.2905,-0.5224 0.3676,-0.7861 0.0783,-0.2627 0.1262,-0.4904 0.1458,-0.6814 l 0.3081,-0.0873 0.1786,-0.2781 -1.6674,-1.0973 -0.1831,0.2846 c 0.4022,0.4859 0.652,0.9213 0.7515,1.3065 0.0992,0.3832 0.0365,0.7506 -0.1877,1.0993 -0.2653,0.4127 -0.6525,0.6157 -1.1611,0.6097 -0.5096,-0.007 -1.0836,-0.2134 -1.7229,-0.6199 -0.6789,-0.4318 -1.1383,-0.8793 -1.3804,-1.3442 -0.2421,-0.4646 -0.2333,-0.8992 0.0272,-1.3042 0.1219,-0.1897 0.2594,-0.3402 0.4104,-0.451 0.1528,-0.1112 0.2931,-0.1834 0.421,-0.2172 l 0.9354,0.5947 c 0.0777,0.0494 0.1338,0.1055 0.1684,0.1661 0.0346,0.0627 0.0459,0.1474 0.0309,0.256 -0.0122,0.0842 -0.0394,0.18 -0.0819,0.29 -0.0425,0.1097 -0.0808,0.1987 -0.114,0.2696 l 0.2532,0.161 1.5321,-2.3837 z m 3.0014,-4.7242 c 0.2466,0.0899 0.4903,0.2239 0.7321,0.402 0.2427,0.1785 0.4938,0.4019 0.7521,0.6709 0.2202,0.2293 0.4178,0.4672 0.5927,0.7141 0.176,0.2474 0.3044,0.4932 0.3892,0.737 0.0819,0.2443 0.1063,0.4802 0.0723,0.7083 -0.034,0.228 -0.1488,0.4349 -0.3461,0.6223 -0.3371,0.32 -0.7458,0.4045 -1.2277,0.2517 -0.4799,-0.1528 -0.9998,-0.5193 -1.5582,-1.101 -0.2376,-0.2472 -0.4422,-0.4981 -0.6151,-0.754 -0.1721,-0.2551 -0.296,-0.5032 -0.3714,-0.745 -0.0745,-0.2443 -0.0924,-0.4736 -0.0521,-0.6877 0.0402,-0.214 0.1536,-0.4104 0.3424,-0.5896 0.1837,-0.1746 0.3864,-0.2783 0.608,-0.3112 0.2206,-0.0323 0.449,-0.005 0.6818,0.0822 z m 3.4296,2.1447 c 0.0232,-0.3626 -0.0281,-0.7251 -0.1556,-1.0857 -0.127,-0.3594 -0.3453,-0.7007 -0.6548,-1.0227 -0.4394,-0.4575 -0.9403,-0.7495 -1.5027,-0.8782 -0.5615,-0.1275 -1.1253,-0.0683 -1.692,0.1803 -0.2063,-0.2262 -0.3234,-0.4808 -0.3495,-0.7639 -0.0269,-0.2841 0.0482,-0.5094 0.2234,-0.6758 0.1077,-0.1024 0.2092,-0.1863 0.3019,-0.2509 0.0938,-0.0635 0.1805,-0.119 0.261,-0.1644 l -0.233,-0.2426 c -0.1477,0.0569 -0.3483,0.1627 -0.6006,0.3152 -0.2512,0.1539 -0.4913,0.3381 -0.7206,0.5564 -0.3124,0.2965 -0.4813,0.6347 -0.5048,1.012 -0.0227,0.3784 0.1131,0.7455 0.4087,1.1007 -0.2384,0.2752 -0.4204,0.5731 -0.5479,0.8918 -0.1265,0.3194 -0.1928,0.6485 -0.1959,0.9884 -0.002,0.3353 0.0621,0.6693 0.1922,1.002 0.1292,0.3337 0.3316,0.6432 0.6072,0.9301 0.3095,0.322 0.6457,0.5624 1.0074,0.7189 0.3623,0.1573 0.7305,0.2369 1.1027,0.2398 0.3679,0.002 0.731,-0.0732 1.0885,-0.2245 0.3586,-0.1503 0.6857,-0.3668 0.9839,-0.65 0.2951,-0.2807 0.5258,-0.5922 0.6928,-0.934 0.1672,-0.3436 0.2619,-0.6906 0.2877,-1.0429 z m 1.5503,-6.9769 -2.5481,1.6239 0.1619,0.2515 c 0.0617,-0.0329 0.1513,-0.0808 0.2701,-0.1443 0.1179,-0.0643 0.2041,-0.1003 0.2588,-0.1103 0.1003,-0.019 0.1826,-0.0105 0.2466,0.0233 0.0624,0.0334 0.1208,0.0927 0.1732,0.174 l 2.0951,3.2511 c 0.0473,0.0737 0.0751,0.1479 0.0828,0.2208 0.009,0.074 -0.0179,0.1545 -0.0777,0.2409 -0.0369,0.0547 -0.0992,0.1253 -0.1871,0.2126 -0.0859,0.0873 -0.1635,0.1588 -0.231,0.2141 l 0.1621,0.2517 2.5481,-1.6243 -0.1621,-0.2514 c -0.0686,0.0343 -0.1554,0.0771 -0.2608,0.1273 -0.1041,0.0493 -0.197,0.085 -0.277,0.1065 -0.1026,0.025 -0.1868,0.0182 -0.2531,-0.0238 -0.0661,-0.0419 -0.1239,-0.1 -0.1721,-0.1749 l -2.0934,-3.2488 c -0.0499,-0.0771 -0.0779,-0.1525 -0.0847,-0.2259 -0.006,-0.0742 0.0207,-0.1547 0.0808,-0.2412 0.0314,-0.0482 0.0949,-0.1151 0.1876,-0.199 0.0933,-0.0859 0.1738,-0.1528 0.2418,-0.2024 z m 9.6857,1.0508 c -0.0695,0.0221 -0.169,0.051 -0.2988,0.0862 -0.1296,0.0365 -0.2605,0.0405 -0.392,0.0119 -0.1151,-0.0247 -0.2251,-0.1046 -0.332,-0.2421 -0.1051,-0.1366 -0.2251,-0.3529 -0.3597,-0.6506 l -1.6095,-3.5538 -0.6355,0.2846 -1.3505,5.2234 -1.0559,-2.3309 c -0.1306,-0.2891 -0.2111,-0.5176 -0.2409,-0.6851 -0.0284,-0.1684 -0.0162,-0.3073 0.0388,-0.4153 0.0403,-0.0799 0.1208,-0.1704 0.2404,-0.273 0.1202,-0.1012 0.2188,-0.1769 0.294,-0.2279 l -0.1234,-0.2721 -2.1543,0.9649 0.1233,0.2724 c 0.0947,-0.0337 0.2067,-0.0641 0.3382,-0.0896 0.1295,-0.0266 0.248,-0.0294 0.3526,-0.009 0.1222,0.0272 0.2305,0.1006 0.3277,0.2225 0.0953,0.121 0.2157,0.3427 0.3626,0.6664 l 1.0664,2.355 c 0.053,0.1168 0.0853,0.2361 0.0963,0.3561 0.0111,0.1201 -0.005,0.2349 -0.0479,0.3432 -0.0456,0.1168 -0.11,0.2203 -0.1961,0.3135 -0.0848,0.0939 -0.1885,0.1834 -0.3118,0.2688 l 0.1236,0.2724 1.8827,-0.8436 1.1835,-4.5754 0.8541,1.8859 c 0.1357,0.2996 0.2162,0.532 0.2426,0.6956 0.0269,0.1647 0.0125,0.3016 -0.0436,0.4102 -0.0437,0.0856 -0.1239,0.1763 -0.2407,0.2758 -0.1159,0.0981 -0.212,0.1726 -0.2886,0.2242 l 0.1202,0.265 2.1543,-0.9649 -0.1201,-0.265 z m 6.2087,-4.0451 c -0.0805,0.006 -0.1588,0.0142 -0.2217,0.0148 -0.0626,0.002 -0.1429,-0.005 -0.2389,-0.0182 -0.1112,-0.0144 -0.1883,-0.0564 -0.2356,-0.1252 -0.0462,-0.0703 -0.0777,-0.1469 -0.0927,-0.2297 l -0.1134,-0.6236 c -0.0229,-0.1264 -0.04,-0.2273 -0.0513,-0.305 -0.0116,-0.0777 -0.0249,-0.1726 -0.0402,-0.2869 -0.2804,-0.1065 -0.6806,-0.1811 -1.1988,-0.2262 -0.5193,-0.0436 -0.9851,-0.0289 -1.3998,0.0457 -0.39,0.0703 -0.7446,0.1953 -1.0641,0.375 -0.3203,0.1803 -0.5876,0.4107 -0.8025,0.6942 -0.2151,0.2809 -0.3656,0.6089 -0.4501,0.9822 -0.0845,0.3745 -0.0859,0.7861 -0.004,1.2345 0.076,0.4175 0.2163,0.7917 0.4196,1.1225 0.2046,0.3305 0.4612,0.5998 0.7707,0.809 0.3044,0.2087 0.6551,0.3478 1.0511,0.4207 0.3954,0.0709 0.8189,0.0666 1.2702,-0.0145 0.3056,-0.055 0.5828,-0.1434 0.8294,-0.2664 0.2469,-0.1216 0.447,-0.2415 0.6015,-0.3572 l 0.2736,0.1653 0.3265,-0.059 -0.3248,-1.9621 -0.3345,0.0603 c -0.0845,0.6234 -0.2356,1.1019 -0.4519,1.4364 -0.2151,0.3328 -0.5286,0.5371 -0.9382,0.6105 -0.4845,0.0874 -0.8975,-0.0566 -1.2388,-0.4317 -0.3416,-0.3764 -0.5797,-0.9354 -0.7149,-1.6778 -0.1434,-0.7886 -0.1258,-1.4281 0.0522,-1.9208 0.178,-0.4923 0.5043,-0.7815 0.9799,-0.8671 0.2228,-0.0399 0.4272,-0.0422 0.6115,-0.007 0.1859,0.0357 0.3347,0.0887 0.4467,0.1593 l 0.1976,1.0865 c 0.0164,0.0898 0.0133,0.1692 -0.008,0.2355 -0.0224,0.0678 -0.0774,0.1338 -0.1678,0.1965 -0.07,0.0485 -0.1596,0.0938 -0.2693,0.1377 -0.11,0.0437 -0.2018,0.0763 -0.2763,0.1004 l 0.0535,0.2937 2.7559,-0.5038 -0.002,-0.2982 z m -33.6342,34.0827 0.2248,2.9384 0.2996,-0.0227 c 3e-4,-0.0643 8e-4,-0.159 0.002,-0.2826 -3e-4,-0.1236 0.009,-0.2095 0.0266,-0.2568 0.0309,-0.097 0.0771,-0.1661 0.1375,-0.2075 0.0601,-0.04 0.1389,-0.0644 0.2361,-0.0717 l 1.8856,-0.1426 0.178,2.3272 -1.8422,0.1395 c -0.0881,0.007 -0.1684,-0.006 -0.2395,-0.0386 -0.0723,-0.0311 -0.131,-0.091 -0.1772,-0.1768 -0.0235,-0.0482 -0.0521,-0.1287 -0.0847,-0.2447 -0.0315,-0.117 -0.053,-0.2112 -0.0641,-0.2851 l -0.2993,0.0224 0.2247,2.9383 0.2994,-0.0223 c -0.002,-0.0644 -0.002,-0.1591 0.003,-0.2841 0.005,-0.1253 0.0153,-0.218 0.032,-0.2755 0.0258,-0.0941 0.072,-0.1619 0.1361,-0.2035 0.0658,-0.0406 0.1443,-0.0649 0.2375,-0.0718 l 3.8634,-0.2922 c 0.0907,-0.007 0.1667,0.003 0.231,0.0312 0.0641,0.0266 0.123,0.089 0.1766,0.1848 0.04,0.0717 0.0774,0.1675 0.1128,0.2857 0.0369,0.1179 0.0595,0.2041 0.0686,0.2574 l 0.2996,-0.0227 -0.2247,-2.9384 -0.2997,0.0227 c 9e-4,0.08 -0.005,0.1752 -0.0161,0.2877 -0.0125,0.1112 -0.0258,0.1976 -0.0386,0.2577 -0.0263,0.1018 -0.0737,0.1724 -0.1448,0.2092 -0.0698,0.0383 -0.1463,0.0595 -0.2288,0.0661 l -1.631,0.1233 -0.1781,-2.3273 1.5928,-0.1205 c 0.0893,-0.007 0.167,0.004 0.2311,0.0324 0.0629,0.0294 0.1218,0.0918 0.1768,0.1876 0.0352,0.0644 0.0709,0.1508 0.1058,0.2614 0.0363,0.1088 0.0601,0.1964 0.0728,0.2622 l 0.2996,-0.0224 -0.2247,-2.9387 -0.2994,0.0227 c 9e-4,0.0827 -0.002,0.1749 -0.0116,0.2795 -0.009,0.1029 -0.0232,0.1975 -0.042,0.2815 -0.0269,0.0992 -0.0742,0.1686 -0.1425,0.2077 -0.0698,0.0383 -0.1472,0.0613 -0.2313,0.0675 l -3.8688,0.2925 c -0.0918,0.007 -0.1717,-0.004 -0.2386,-0.0314 -0.0672,-0.0292 -0.1259,-0.0905 -0.1766,-0.184 -0.0295,-0.0592 -0.0601,-0.1477 -0.0902,-0.2622 -0.0283,-0.1148 -0.049,-0.2092 -0.0598,-0.2832 l -0.2996,0.0227 z"
       style="fill:#231916;fill-opacity:1;fill-rule:evenodd;stroke:none"
       id="path278" />
    <path
       d="m 278.5714,456.1852 c -0.2486,-0.0286 -0.606,-0.0904 -1.0723,-0.1902 -0.4709,-0.095 -0.8629,-0.2659 -1.1767,-0.5034 -0.3268,-0.233 -0.5581,-0.6512 -0.6888,-1.2547 -0.135,-0.5983 -0.2004,-1.506 -0.2004,-2.7082 v -7.3406 c 0,-2.162 -0.6713,-3.8962 -2.018,-5.2123 -1.347,-1.3161 -3.1295,-1.9766 -5.3436,-1.9766 -2.5846,0 -4.585,0.6366 -5.9973,1.9054 -1.4167,1.2685 -2.1228,3.0408 -2.1228,5.3119 v 10.0919 c 0,0.3231 -0.0567,0.6035 -0.1701,0.8362 -0.1174,0.2282 -0.3354,0.4371 -0.6579,0.6225 -0.2226,0.1236 -0.4927,0.2185 -0.815,0.2945 -0.3229,0.0712 -0.5842,0.1236 -0.7889,0.1519 v 1.0834 h 9.4666 v -1.0834 c -0.2747,-0.0189 -0.5491,-0.0521 -0.8322,-0.1043 -0.2835,-0.0524 -0.5667,-0.1284 -0.8587,-0.2282 -0.3228,-0.1139 -0.5408,-0.2993 -0.6539,-0.5558 -0.1091,-0.2614 -0.1656,-0.5511 -0.1656,-0.8791 v -9.9586 c 0,-1.9576 0.3966,-3.3832 1.19,-4.2716 0.7974,-0.8886 1.948,-1.3351 3.4606,-1.3351 1.4862,0 2.6498,0.4893 3.4954,1.4729 0.8455,0.9836 1.2685,2.4327 1.2685,4.3427 v 6.6897 c 0,1.188 -0.074,2.0764 -0.2223,2.6657 -0.1482,0.5891 -0.3792,1.012 -0.6845,1.2734 -0.222,0.1995 -0.6058,0.3849 -1.1549,0.5558 -0.549,0.1664 -0.9326,0.2662 -1.1548,0.3042 v 1.1117 h 7.8976 z"
       style="fill:#231916;fill-opacity:1;fill-rule:nonzero;stroke:none"
       id="path280" />
    <path
       d="m 300.4631,456.2422 c -0.2398,-0.0287 -0.58,-0.0808 -1.0202,-0.1568 -0.4402,-0.0714 -0.841,-0.252 -1.1985,-0.5417 -0.3138,-0.2517 -0.536,-0.6794 -0.671,-1.2923 -0.1309,-0.6083 -0.1964,-1.5015 -0.1964,-2.6847 v -14.1398 h -2.3057 l -11.2144,15.2754 v -9.2744 c 0,-1.15 0.0697,-2.0242 0.2092,-2.6229 0.1437,-0.5987 0.3705,-1.0406 0.6843,-1.3161 0.231,-0.2041 0.5972,-0.3847 1.0984,-0.5463 0.5012,-0.1567 0.902,-0.2613 1.1985,-0.3183 v -1.0834 h -7.8191 v 1.0834 c 0.3314,0.0283 0.7104,0.0949 1.1418,0.2041 0.4272,0.1046 0.7889,0.271 1.0766,0.4943 0.3311,0.2707 0.5578,0.6747 0.6843,1.2209 0.1219,0.5417 0.1831,1.4539 0.1831,2.7417 v 9.3696 c 0,0.4658 -0.0652,0.9074 -0.1962,1.321 -0.1307,0.4133 -0.3356,0.7696 -0.6145,1.0641 -0.2965,0.3183 -0.6319,0.5655 -1.0199,0.7461 -0.3836,0.1854 -0.8195,0.3277 -1.3074,0.4274 v 1.0834 h 6.8341 l 9.8243,-13.3798 v 7.5025 c 0,1.1925 -0.0743,2.0809 -0.218,2.6606 -0.144,0.5845 -0.375,1.0168 -0.6933,1.2926 -0.2484,0.2185 -0.6143,0.3991 -1.1024,0.5559 -0.4839,0.1519 -0.8762,0.2565 -1.177,0.3135 v 1.0547 h 7.8194 z"
       style="fill:#231916;fill-opacity:1;fill-rule:nonzero;stroke:none"
       id="path282" />
    <path
       d="m 311.7589,437.5409 h -10.0157 v 1.0834 c 0.2308,0.019 0.5667,0.0473 1.0108,0.0853 0.4448,0.0335 0.7498,0.0904 0.9199,0.1664 0.3138,0.1378 0.5272,0.3231 0.6452,0.5511 0.1133,0.2233 0.17,0.5178 0.17,0.8696 v 14.0069 c 0,0.3183 -0.0567,0.5986 -0.1658,0.8362 -0.1088,0.2423 -0.3271,0.4371 -0.6494,0.5845 -0.2004,0.0949 -0.5015,0.1899 -0.9023,0.2851 -0.3965,0.0998 -0.741,0.1662 -1.0284,0.2041 v 1.0834 h 10.0157 v -1.0834 c -0.2526,-0.0283 -0.5709,-0.0663 -0.9545,-0.1187 -0.3792,-0.0522 -0.7015,-0.1233 -0.9632,-0.2138 -0.3313,-0.1236 -0.5536,-0.3087 -0.6624,-0.5655 -0.1092,-0.2565 -0.1659,-0.5462 -0.1659,-0.8694 v -13.9974 c 0,-0.3325 0.0567,-0.6177 0.1701,-0.8553 0.1177,-0.2375 0.3356,-0.4322 0.6582,-0.5796 0.1744,-0.0856 0.4706,-0.1664 0.8805,-0.2424 0.4141,-0.0808 0.7582,-0.1281 1.0372,-0.1471 z"
       style="fill:#231916;fill-opacity:1;fill-rule:nonzero;stroke:none"
       id="path284" />
    <path
       d="m 333.2412,456.1852 c -0.2789,-0.0286 -0.5493,-0.0808 -0.8019,-0.1664 -0.2571,-0.0856 -0.5187,-0.2137 -0.7934,-0.3895 -0.3662,-0.233 -0.6494,-0.4799 -0.8501,-0.7461 -0.2004,-0.2661 -0.3966,-0.6318 -0.5925,-1.0975 -0.2616,-0.6367 -0.6321,-1.5727 -1.1114,-2.8032 -0.4751,-1.2308 -1.0202,-2.6323 -1.6302,-4.2004 -0.5448,-1.4111 -1.133,-2.9551 -1.7694,-4.6372 -0.6321,-1.6821 -1.2382,-3.2927 -1.8176,-4.8322 h -2.5673 c -1.19,3.1836 -2.4015,6.419 -3.6352,9.7072 -1.2331,3.2879 -2.1007,5.5684 -2.6019,6.8514 -0.1962,0.4654 -0.3878,0.8172 -0.5709,1.0547 -0.1831,0.2328 -0.4751,0.48 -0.8719,0.7317 -0.292,0.1757 -0.5446,0.2993 -0.7671,0.3659 -0.2222,0.0712 -0.5142,0.133 -0.8804,0.1899 v 1.0834 h 9.8067 v -1.0547 c -0.9153,-0.1236 -1.5341,-0.2517 -1.8609,-0.385 -0.3226,-0.1329 -0.4882,-0.3041 -0.4882,-0.5082 0,-0.1046 0.0176,-0.214 0.0434,-0.328 0.0306,-0.1139 0.0785,-0.2707 0.1352,-0.4654 0.2747,-0.8173 0.7674,-2.1527 1.482,-4.0057 0.7149,-1.853 1.7781,-4.68 3.1819,-8.4761 0.8586,2.3139 1.5735,4.2667 2.1441,5.8631 0.5712,1.5962 1.0769,3.0076 1.5083,4.2333 0.2135,0.5939 0.3923,1.1497 0.5318,1.6679 0.1392,0.5131 0.2092,0.9026 0.2092,1.1639 0,0.2945 -0.1965,0.5465 -0.5885,0.7461 -0.3968,0.1996 -1.1245,0.3467 -2.1923,0.4371 v 1.1117 h 7.3485 z"
       style="fill:#231916;fill-opacity:1;fill-rule:nonzero;stroke:none"
       id="path286" />
    <path
       d="m 349.8676,452.251 h -0.9936 c -0.2486,0.7506 -0.6715,1.5157 -1.277,2.2853 -0.6018,0.7747 -1.2033,1.226 -1.7957,1.3686 -0.2571,0.0617 -0.6149,0.1045 -1.0681,0.1187 -0.4533,0.0142 -0.8323,0.019 -1.1288,0.019 h -2.628 v -7.6402 h 1.8655 c 0.4705,0 0.8974,0.0618 1.281,0.1806 0.3838,0.1236 0.7324,0.3563 1.0462,0.6984 0.1962,0.2137 0.3969,0.5939 0.5973,1.1308 0.1962,0.5417 0.3268,1.0122 0.3878,1.4113 h 0.9938 v -8.2389 h -0.9938 c -0.0525,0.3895 -0.1831,0.8791 -0.3878,1.4681 -0.2095,0.5893 -0.4099,0.9978 -0.5973,1.2163 -0.2789,0.3374 -0.6145,0.5656 -0.998,0.6891 -0.3836,0.1282 -0.8238,0.19 -1.3292,0.19 h -1.8655 v -5.7016 c 0,-0.5987 0.0388,-1.069 0.1219,-1.4159 0.0785,-0.3515 0.2307,-0.6177 0.4533,-0.8031 0.2134,-0.1758 0.5054,-0.2945 0.8759,-0.3467 0.3705,-0.057 0.8762,-0.0856 1.5168,-0.0856 0.2965,0 0.6539,0.005 1.0723,0.0142 0.4184,0.01 0.7847,0.038 1.0985,0.0856 0.3571,0.0428 0.693,0.1139 1.0068,0.2092 0.3096,0.0901 0.5403,0.2279 0.6931,0.4036 0.4093,0.4561 0.8714,1.1546 1.3813,2.0906 0.5145,0.9363 0.8501,1.6345 1.0114,2.1002 h 0.9414 l -0.3444,-6.1577 h -17.0201 v 1.0834 c 0.2398,0.019 0.5621,0.057 0.9763,0.1091 0.4096,0.057 0.6973,0.1236 0.8719,0.1996 0.3223,0.1474 0.5403,0.3325 0.6537,0.5607 0.1088,0.2282 0.1655,0.5179 0.1655,0.8694 v 13.9405 c 0,0.3373 -0.0479,0.6128 -0.1394,0.8314 -0.0958,0.2185 -0.3226,0.4135 -0.6798,0.5893 -0.2225,0.1139 -0.5363,0.2137 -0.9374,0.3087 -0.4008,0.0904 -0.7058,0.1522 -0.9108,0.1805 v 1.0834 h 16.083 z"
       style="fill:#231916;fill-opacity:1;fill-rule:nonzero;stroke:none"
       id="path288" />
    <path
       d="m 373.6599,437.5409 h -6.9477 c -1.2031,2.0004 -2.1966,3.5969 -2.9943,4.7798 -0.7931,1.188 -1.7824,2.5562 -2.9639,4.1147 h -0.7189 v -5.9916 c 0,-0.3325 0.0565,-0.6128 0.1741,-0.8455 0.1134,-0.233 0.3359,-0.4278 0.6582,-0.5845 0.1613,-0.076 0.4184,-0.152 0.7628,-0.2279 0.3444,-0.0808 0.6406,-0.1333 0.8892,-0.1616 v -1.0834 h -9.676 v 1.0834 c 0.2483,0.0283 0.5751,0.0663 0.9805,0.1188 0.4053,0.0521 0.693,0.1139 0.8677,0.1899 0.3223,0.1474 0.5402,0.3325 0.6536,0.5607 0.1089,0.2282 0.1656,0.5179 0.1656,0.8694 v 13.9405 c 0,0.3373 -0.0479,0.6128 -0.1395,0.8362 -0.0958,0.2233 -0.3226,0.4181 -0.6797,0.5845 -0.2747,0.1236 -0.5976,0.2234 -0.9678,0.3087 -0.375,0.0808 -0.667,0.1426 -0.8804,0.1805 v 1.0834 h 10.1772 c 2.2751,0 4.0011,-0.3894 5.1823,-1.1641 1.1809,-0.7745 1.7694,-1.948 1.7694,-3.5207 0,-1.3827 -0.366,-2.4993 -1.0939,-3.34 -0.7277,-0.8411 -1.8391,-1.4967 -3.3299,-1.9721 0.5797,-0.8172 1.2552,-1.7626 2.0268,-2.8363 0.7713,-1.0738 1.5732,-2.1762 2.4061,-3.2976 0.2656,-0.3611 0.623,-0.803 1.0808,-1.3255 0.4533,-0.5227 0.8541,-0.8458 1.2073,-0.9646 0.1961,-0.0666 0.4445,-0.1236 0.7452,-0.1664 0.3008,-0.0473 0.5185,-0.076 0.6452,-0.0853 z m -8.6825,14.6911 c 0,1.3209 -0.3399,2.2853 -1.0197,2.8936 -0.68,0.6129 -1.652,0.917 -2.9072,0.917 h -1.0154 v -8.2959 h 0.976 c 1.2597,0 2.2317,0.3564 2.9248,1.0738 0.6928,0.7175 1.0415,1.853 1.0415,3.4115"
       style="fill:#231916;fill-opacity:1;fill-rule:nonzero;stroke:none"
       id="path290" />
    <path
       d="m 381.5124,436.9992 c -1.1115,0 -2.1444,0.1522 -3.0988,0.4515 -0.959,0.3039 -1.7697,0.6557 -2.4364,1.0642 l -0.8804,-0.974 h -1.0985 l -0.1567,7.1268 h 1.0981 c 0.2486,-0.6746 0.5624,-1.3872 0.9459,-2.1378 0.3836,-0.7461 0.8238,-1.4159 1.3292,-2.0098 0.5187,-0.6225 1.0984,-1.1262 1.7436,-1.5112 0.6406,-0.3894 1.3904,-0.5842 2.2533,-0.5842 1.1548,0 2.0443,0.3087 2.6631,0.9216 0.6146,0.6176 0.9238,1.3923 0.9238,2.3283 0,0.7648 -0.2613,1.4111 -0.7843,1.9338 -0.523,0.5225 -1.3337,0.974 -2.4322,1.3587 -0.7191,0.252 -1.377,0.4847 -1.9746,0.6984 -0.6012,0.2141 -1.1636,0.4326 -1.6954,0.656 -1.2158,0.532 -2.1226,1.2875 -2.711,2.2756 -0.5925,0.9837 -0.889,2.086 -0.889,3.3024 0,0.7696 0.1525,1.5109 0.4621,2.2235 0.305,0.7126 0.7537,1.3496 1.3422,1.9148 0.5627,0.5321 1.2815,0.9646 2.1574,1.2971 0.8762,0.3374 1.8306,0.5037 2.8639,0.5037 1.0068,0 1.9482,-0.1522 2.8241,-0.4609 0.8762,-0.3041 1.569,-0.6083 2.0705,-0.917 l 0.78,0.8362 h 1.0985 l 0.1046,-6.728 h -1.0982 c -0.2574,0.7223 -0.5536,1.4635 -0.898,2.219 -0.3441,0.7554 -0.7103,1.3875 -1.0939,1.8864 -0.4141,0.5369 -0.898,0.9692 -1.4428,1.2875 -0.5406,0.3184 -1.1812,0.4799 -1.9134,0.4799 -0.9198,0 -1.6693,-0.2851 -2.249,-0.8504 -0.5839,-0.5655 -0.8762,-1.2687 -0.8762,-2.105 0,-0.7886 0.2529,-1.4349 0.7586,-1.9338 0.5099,-0.5037 1.2985,-0.9453 2.3711,-1.3254 0.6319,-0.2331 1.2725,-0.4658 1.9307,-0.694 0.654,-0.2327 1.2379,-0.4561 1.7479,-0.6698 1.2376,-0.5227 2.175,-1.2402 2.8199,-2.1572 0.6406,-0.9121 0.9632,-2.0477 0.9632,-3.4066 0,-0.8552 -0.1831,-1.6818 -0.5491,-2.4801 -0.3662,-0.7982 -0.8586,-1.4635 -1.4819,-1.9956 -0.6801,-0.5845 -1.469,-1.0357 -2.3624,-1.3495 -0.8981,-0.3184 -1.9395,-0.4751 -3.1295,-0.4751"
       style="fill:#231916;fill-opacity:1;fill-rule:nonzero;stroke:none"
       id="path292" />
    <path
       d="M 401.0287,437.5409 H 391.013 v 1.0834 c 0.2307,0.019 0.5667,0.0473 1.0108,0.0853 0.4448,0.0335 0.7498,0.0904 0.9199,0.1664 0.3138,0.1378 0.5272,0.3231 0.6452,0.5511 0.1133,0.2233 0.17,0.5178 0.17,0.8696 v 14.0069 c 0,0.3183 -0.0567,0.5986 -0.1658,0.8362 -0.1088,0.2423 -0.3271,0.4371 -0.6494,0.5845 -0.2004,0.0949 -0.5015,0.1899 -0.9023,0.2851 -0.3965,0.0998 -0.741,0.1662 -1.0284,0.2041 v 1.0834 h 10.0157 v -1.0834 c -0.2526,-0.0283 -0.5709,-0.0663 -0.9545,-0.1187 -0.3792,-0.0522 -0.7015,-0.1233 -0.9632,-0.2138 -0.3313,-0.1236 -0.5536,-0.3087 -0.6624,-0.5655 -0.1092,-0.2565 -0.1659,-0.5462 -0.1659,-0.8694 v -13.9974 c 0,-0.3325 0.0567,-0.6177 0.1701,-0.8553 0.1177,-0.2375 0.3356,-0.4322 0.6582,-0.5796 0.1744,-0.0856 0.4706,-0.1664 0.8805,-0.2424 0.4141,-0.0808 0.7582,-0.1281 1.0372,-0.1471 z"
       style="fill:#231916;fill-opacity:1;fill-rule:nonzero;stroke:none"
       id="path294" />
    <path
       d="m 418.9805,451.6523 h -0.9939 c -0.2613,0.8411 -0.6842,1.7391 -1.2682,2.6989 -0.5799,0.9598 -1.1202,1.4777 -1.6126,1.5537 -0.2701,0.0379 -0.6061,0.0666 -1.0069,0.0949 -0.3965,0.0286 -0.7412,0.0428 -1.0332,0.0428 h -0.597 v -15.4845 c 0,-0.3328 0.0567,-0.6273 0.1656,-0.8839 0.1091,-0.2565 0.3268,-0.4561 0.6494,-0.6035 0.1919,-0.0853 0.4969,-0.1709 0.9068,-0.2565 0.4138,-0.0901 0.7625,-0.1519 1.0502,-0.1899 v -1.0834 h -10.0681 v 1.0834 c 0.2441,0.0283 0.5928,0.0663 1.0372,0.1188 0.4445,0.0521 0.7453,0.1139 0.9068,0.1851 0.3311,0.1522 0.5534,0.3517 0.6622,0.5986 0.1089,0.252 0.1655,0.5466 0.1655,0.8935 v 15.6223 h -0.5969 c -0.292,0 -0.6364,-0.0142 -1.033,-0.0428 -0.4011,-0.0283 -0.7364,-0.057 -1.0066,-0.0949 -0.4929,-0.076 -1.0332,-0.5939 -1.6129,-1.5537 -0.5839,-0.9598 -1.0068,-1.8578 -1.2682,-2.6989 h -0.9938 v 5.6446 h 17.5476 z"
       style="fill:#231916;fill-opacity:1;fill-rule:nonzero;stroke:none"
       id="path296" />
    <path
       d="m 440.1527,456.2135 c -0.305,-0.0379 -0.5884,-0.0997 -0.841,-0.1805 -0.2574,-0.0853 -0.5015,-0.1996 -0.728,-0.3467 -0.3662,-0.2234 -0.693,-0.5085 -0.9765,-0.86 -0.2874,-0.347 -0.5663,-0.7365 -0.8365,-1.1594 -0.5536,-0.8838 -1.1333,-1.8434 -1.7436,-2.8792 -0.61,-1.036 -1.2727,-2.1716 -1.9874,-3.4163 -0.4663,-0.7888 -0.7543,-1.3969 -0.8586,-1.8198 -0.1091,-0.4229 -0.1613,-1.1546 -0.1613,-2.1903 v -2.8032 c 0,-0.3328 0.0567,-0.6225 0.1698,-0.8742 0.1177,-0.252 0.3357,-0.4564 0.6582,-0.6132 0.144,-0.0663 0.4491,-0.1519 0.9153,-0.2565 0.4663,-0.1091 0.8062,-0.1709 1.0287,-0.1899 v -1.0834 h -10.0683 v 1.0834 c 0.2355,0.019 0.5796,0.057 1.0244,0.1091 0.4445,0.057 0.754,0.1236 0.9326,0.1996 0.3141,0.1474 0.5275,0.3421 0.6449,0.5893 0.1134,0.2469 0.1701,0.5462 0.1701,0.898 v 3.4827 c 0,0.3041 -0.004,0.5748 -0.0131,0.8076 -0.009,0.233 -0.0391,0.4277 -0.087,0.5845 -0.0612,0.1757 -0.1655,0.4039 -0.3095,0.6746 -0.144,0.2755 -0.3311,0.6318 -0.5624,1.0644 -0.6582,1.2543 -1.2901,2.4421 -1.9046,3.5683 -0.6146,1.1213 -1.1985,2.1761 -1.7521,3.1595 -0.292,0.5133 -0.5842,0.9218 -0.8762,1.2353 -0.2962,0.309 -0.5925,0.5607 -0.902,0.7554 -0.231,0.1426 -0.5102,0.2472 -0.8371,0.3232 -0.3268,0.0714 -0.6233,0.1188 -0.8889,0.1377 v 1.0834 h 10.3819 v -1.0834 c -0.9545,-0.0283 -1.5954,-0.0997 -1.9262,-0.2137 -0.3359,-0.1188 -0.5014,-0.2803 -0.5014,-0.4847 0,-0.0998 0.0652,-0.3039 0.1874,-0.6129 0.1221,-0.3041 0.3444,-0.7792 0.6582,-1.4207 0.2919,-0.6032 0.7149,-1.4301 1.2727,-2.4897 0.5579,-1.0595 1.2291,-2.2994 2.018,-3.7201 1.6169,2.7938 2.7286,4.7466 3.3341,5.8583 0.6058,1.1069 0.9068,1.7864 0.9068,2.0384 0,0.3183 -0.1786,0.5559 -0.5318,0.7268 -0.3577,0.1664 -0.9329,0.271 -1.7302,0.3183 v 1.0834 h 6.7206 z"
       style="fill:#231916;fill-opacity:1;fill-rule:nonzero;stroke:none"
       id="path298" />
    <path
       d="m 267.2768,465.1767 c -1.3542,0 -2.6235,0.2327 -3.8084,0.7033 -1.1803,0.4702 -2.2093,1.1497 -3.0866,2.0429 -0.8643,0.8745 -1.5409,1.9528 -2.0356,3.2406 -0.4941,1.2875 -0.7438,2.7034 -0.7438,4.2429 0,1.5346 0.2497,2.9554 0.7529,4.2619 0.4989,1.3019 1.2024,2.4375 2.1067,3.3925 0.8906,0.9408 1.9553,1.6676 3.2026,2.1809 1.2472,0.5179 2.5789,0.7745 3.9997,0.7745 1.0244,0 1.9598,-0.133 2.806,-0.404 0.8464,-0.2662 1.559,-0.57 2.1424,-0.9028 l 0.8107,0.7651 h 1.1222 l 0.1072,-7.2125 h -1.1492 c -0.6502,2.2093 -1.4343,3.8296 -2.3473,4.8654 -0.9131,1.0309 -2.0223,1.5488 -3.3361,1.5488 -1.6345,0 -2.8775,-0.7696 -3.7282,-2.3091 -0.8506,-1.5395 -1.2784,-3.7012 -1.2784,-6.4857 0,-1.5726 0.1471,-2.9171 0.4368,-4.0291 0.2894,-1.1118 0.6724,-2.005 1.1401,-2.6844 0.5035,-0.7081 1.1001,-1.226 1.7861,-1.5585 0.6857,-0.3277 1.4431,-0.4941 2.2805,-0.4941 1.2161,0 2.2983,0.3563 3.2468,1.0644 0.9533,0.7078 1.8218,1.7768 2.6014,3.2117 l 1.1225,-0.7268 c -0.3742,-0.8173 -0.8019,-1.5489 -1.2782,-2.1904 -0.4767,-0.6463 -1.0289,-1.2021 -1.6571,-1.6679 -0.686,-0.5082 -1.4431,-0.9073 -2.2759,-1.1973 -0.8286,-0.2897 -1.8085,-0.4323 -2.9398,-0.4323"
       style="fill:#231916;fill-opacity:1;fill-rule:nonzero;stroke:none"
       id="path300" />
    <path
       d="M 298.8269,465.7184 H 288.805 v 1.0834 c 0.2183,0.019 0.5389,0.0473 0.9579,0.0853 0.4184,0.0335 0.7081,0.0904 0.8637,0.1664 0.3209,0.1378 0.5434,0.3232 0.6684,0.5511 0.1202,0.2282 0.1825,0.5179 0.1825,0.8696 v 6.823 h -7.937 v -6.6662 c 0,-0.3183 0.0621,-0.6035 0.1914,-0.8504 0.1247,-0.252 0.343,-0.4467 0.646,-0.5893 0.1692,-0.0712 0.4498,-0.152 0.8504,-0.2376 0.4056,-0.0808 0.7305,-0.1329 0.9845,-0.1519 v -1.0834 h -10.0217 v 1.0834 c 0.2183,0.009 0.5389,0.038 0.9618,0.0901 0.4235,0.0525 0.7351,0.114 0.9267,0.1902 0.3118,0.1188 0.5301,0.3039 0.6548,0.5463 0.1202,0.2472 0.1825,0.5369 0.1825,0.8742 v 13.9785 c 0,0.3279 -0.0532,0.5986 -0.1646,0.822 -0.1072,0.2234 -0.334,0.4181 -0.6727,0.5845 -0.254,0.1233 -0.5879,0.2327 -0.9978,0.3277 -0.4096,0.0998 -0.7081,0.1568 -0.8907,0.1758 v 1.0834 h 10.0217 v -1.0834 c -0.2719,-0.019 -0.5925,-0.0664 -0.9709,-0.1378 -0.3742,-0.076 -0.6639,-0.1471 -0.864,-0.2089 -0.3388,-0.1236 -0.5658,-0.3138 -0.6727,-0.5797 -0.1114,-0.2614 -0.1647,-0.5417 -0.1647,-0.841 v -5.9012 h 7.937 v 5.7634 c 0,0.3231 -0.0578,0.5987 -0.1692,0.822 -0.1159,0.2186 -0.343,0.4133 -0.6817,0.5843 -0.2268,0.1094 -0.5298,0.214 -0.9131,0.3089 -0.3787,0.0998 -0.6811,0.1616 -0.9085,0.19 v 1.0834 h 10.0219 v -1.0834 c -0.2806,-0.019 -0.5927,-0.057 -0.9445,-0.1188 -0.3472,-0.0618 -0.6636,-0.1378 -0.9442,-0.2279 -0.3297,-0.1236 -0.5525,-0.3138 -0.6681,-0.5704 -0.1114,-0.2613 -0.1692,-0.5462 -0.1692,-0.8503 v -13.9975 c 0,-0.3325 0.0578,-0.6177 0.1692,-0.8504 0.1156,-0.233 0.3384,-0.4278 0.6681,-0.5845 0.2092,-0.0902 0.5168,-0.1758 0.913,-0.2517 0.3966,-0.0715 0.7217,-0.1188 0.9757,-0.1378 z"
       style="fill:#231916;fill-opacity:1;fill-rule:nonzero;stroke:none"
       id="path302" />
    <path
       d="m 317.2459,483.2745 c 0.9088,-0.8932 1.6347,-1.967 2.1691,-3.2309 0.5346,-1.2637 0.8019,-2.6986 0.8019,-4.3141 0,-1.4397 -0.2271,-2.808 -0.6769,-4.1051 -0.4544,-1.302 -1.1047,-2.4185 -1.9557,-3.3594 -0.8951,-0.9739 -1.9505,-1.7294 -3.1577,-2.2759 -1.207,-0.5414 -2.6456,-0.8124 -4.3161,-0.8124 -1.3496,0 -2.6234,0.2375 -3.8214,0.7081 -1.1982,0.4751 -2.2541,1.1639 -3.1671,2.0619 -0.904,0.8839 -1.6211,1.9528 -2.1512,3.2168 -0.5301,1.2636 -0.7974,2.6654 -0.7974,4.2191 0,1.6106 0.2585,3.0789 0.775,4.3903 0.5167,1.3113 1.2294,2.4375 2.1336,3.3735 0.8952,0.9218 1.9596,1.6296 3.1893,2.1237 1.2291,0.4989 2.5387,0.7461 3.9328,0.7461 1.3807,0 2.677,-0.2424 3.8882,-0.7223 1.2161,-0.4847 2.2629,-1.1594 3.1536,-2.0194 z m -3.3494,-14.1494 c 0.392,0.8504 0.6726,1.8056 0.8461,2.8794 0.1738,1.0689 0.2628,2.2759 0.2628,3.6252 0,1.1449 -0.0757,2.2615 -0.2271,3.3449 -0.1513,1.0834 -0.4141,2.0478 -0.7795,2.8936 -0.3742,0.8504 -0.8682,1.5299 -1.4873,2.0384 -0.6194,0.5131 -1.3853,0.7696 -2.3074,0.7696 -1.5767,0 -2.7749,-0.7982 -3.5944,-2.3947 -0.8152,-1.5965 -1.2251,-3.8486 -1.2251,-6.7612 0,-1.2399 0.089,-2.404 0.2673,-3.5064 0.1783,-1.0976 0.4589,-2.0526 0.8419,-2.8747 0.392,-0.8265 0.8864,-1.4728 1.4876,-1.9338 0.6015,-0.4606 1.3405,-0.6888 2.2227,-0.6888 0.8594,0 1.599,0.2328 2.2184,0.6985 0.6145,0.4657 1.1086,1.1024 1.474,1.91"
       style="fill:#231916;fill-opacity:1;fill-rule:nonzero;stroke:none"
       id="path304" />
    <path
       d="m 342.828,484.4197 c -0.2452,-0.0286 -0.5927,-0.0808 -1.0426,-0.1568 -0.4498,-0.0714 -0.8597,-0.252 -1.2248,-0.5417 -0.3206,-0.2517 -0.548,-0.6794 -0.6857,-1.2923 -0.1338,-0.6083 -0.2007,-1.5015 -0.2007,-2.6847 v -14.1398 h -2.3562 l -11.4602,15.2754 v -9.2744 c 0,-1.15 0.0712,-2.0242 0.2138,-2.6229 0.1468,-0.5987 0.3784,-1.0406 0.6993,-1.3161 0.2358,-0.2041 0.61,-0.3847 1.1225,-0.5463 0.5119,-0.1567 0.9218,-0.2613 1.2246,-0.3183 v -1.0834 h -7.9903 v 1.0834 c 0.3384,0.0283 0.7259,0.095 1.1667,0.2041 0.4365,0.1046 0.8062,0.271 1.1001,0.4944 0.3385,0.2707 0.5704,0.6746 0.6993,1.2208 0.1248,0.5417 0.1871,1.4539 0.1871,2.7417 v 9.3696 c 0,0.4658 -0.0666,0.9074 -0.2004,1.321 -0.1335,0.4133 -0.343,0.7696 -0.6282,1.0641 -0.3027,0.3183 -0.6457,0.5655 -1.042,0.7461 -0.392,0.1854 -0.8373,0.3277 -1.3362,0.4275 v 1.0834 h 6.984 l 10.0394,-13.3799 v 7.5025 c 0,1.1925 -0.0756,2.0809 -0.2225,2.6606 -0.1474,0.5845 -0.3832,1.0168 -0.7086,1.2926 -0.2537,0.2186 -0.6279,0.3991 -1.1265,0.5559 -0.4947,0.1519 -0.8952,0.2565 -1.2028,0.3135 v 1.0548 h 7.9909 z"
       style="fill:#231916;fill-opacity:1;fill-rule:nonzero;stroke:none"
       id="path306" />
    <path
       d="m 364.1426,473.7577 c -0.2719,-0.0286 -0.508,-0.0618 -0.7175,-0.0997 -0.2092,-0.0335 -0.472,-0.1095 -0.7838,-0.2186 -0.3608,-0.1236 -0.5924,-0.3231 -0.7081,-0.5987 -0.1114,-0.2803 -0.1692,-0.5748 -0.1692,-0.879 v -2.2997 c 0,-0.4655 0.005,-0.8363 0.013,-1.1214 0.009,-0.2849 0.0224,-0.6319 0.0403,-1.05 -0.8685,-0.5607 -2.1555,-1.0834 -3.8529,-1.5775 -1.7013,-0.4892 -3.2601,-0.7364 -4.6856,-0.7364 -1.3405,0 -2.5966,0.2185 -3.7681,0.6556 -1.1758,0.4371 -2.2048,1.0883 -3.0912,1.9625 -0.8861,0.8645 -1.5857,1.9386 -2.0934,3.2164 -0.5077,1.283 -0.7617,2.7514 -0.7617,4.4048 0,1.5392 0.2407,2.9648 0.7172,4.2761 0.481,1.3113 1.1716,2.4375 2.0758,3.3828 0.8861,0.9408 1.9684,1.6631 3.2423,2.1762 1.2742,0.5085 2.6858,0.7651 4.2358,0.7651 1.0514,0 2.0268,-0.1378 2.9219,-0.4182 0.8955,-0.2755 1.6348,-0.5748 2.2182,-0.8886 l 0.8107,0.7651 h 1.1225 l 0.1069,-7.2125 h -1.1492 c -0.6591,2.1713 -1.4522,3.782 -2.374,4.8367 -0.9176,1.0503 -2.0846,1.5775 -3.492,1.5775 -1.6657,0 -2.9529,-0.7792 -3.8617,-2.3377 -0.9088,-1.563 -1.3631,-3.7108 -1.3631,-6.4474 0,-2.9078 0.4456,-5.1789 1.3365,-6.823 0.8906,-1.6441 2.1509,-2.4659 3.7857,-2.4659 0.7662,0 1.4479,0.1233 2.0401,0.3657 0.5969,0.2472 1.0601,0.5324 1.3895,0.8552 v 4.0057 c 0,0.3325 -0.0575,0.6128 -0.1689,0.8362 -0.116,0.2279 -0.3385,0.4274 -0.6772,0.5938 -0.2628,0.1282 -0.588,0.2328 -0.98,0.3184 -0.392,0.0856 -0.7169,0.1425 -0.9796,0.1805 v 1.0832 h 9.6208 z"
       style="fill:#231916;fill-opacity:1;fill-rule:nonzero;stroke:none"
       id="path308" />
    <path
       d="m 381.7332,483.2745 c 0.9088,-0.8932 1.6348,-1.9718 2.1691,-3.2355 0.5346,-1.2591 0.8019,-2.6988 0.8019,-4.3143 0,-2.2949 -0.5391,-4.3095 -1.6123,-6.0486 -1.0735,-1.7342 -2.5926,-2.9837 -4.561,-3.744 0.0267,-1.1069 0.3385,-2.0667 0.9397,-2.8746 0.6012,-0.8124 1.3139,-1.2163 2.1334,-1.2163 0.5034,0 0.949,0.0334 1.3274,0.0952 0.3787,0.0663 0.7217,0.1378 1.0245,0.2186 v -1.2164 c -0.4944,-0.2185 -1.2337,-0.4419 -2.2091,-0.6701 -0.9757,-0.2231 -1.9956,-0.3373 -3.069,-0.3373 -1.461,0 -2.668,0.4657 -3.6122,1.3969 -0.9442,0.936 -1.4743,2.2379 -1.5857,3.9056 -1.2294,0.1284 -2.374,0.4561 -3.4339,0.974 -1.0602,0.5227 -1.9956,1.2211 -2.8018,2.105 -0.7928,0.8742 -1.4207,1.9099 -1.8839,3.1073 -0.4677,1.1974 -0.6996,2.5135 -0.6996,3.9532 0,1.6155 0.2585,3.0835 0.775,4.3948 0.5168,1.3162 1.2294,2.4424 2.1337,3.3784 0.8951,0.9218 1.9595,1.6296 3.1892,2.1237 1.2291,0.4989 2.5387,0.7461 3.9328,0.7461 1.3808,0 2.677,-0.2424 3.8883,-0.7223 1.216,-0.4847 2.2629,-1.1594 3.1535,-2.0194 z m -3.3494,-14.1732 c 0.392,0.8506 0.6727,1.8104 0.8462,2.8794 0.1737,1.0738 0.2627,2.2853 0.2627,3.6349 0,1.1497 -0.0757,2.2663 -0.227,3.3497 -0.1514,1.0879 -0.4142,2.0525 -0.7796,2.9029 -0.3741,0.8456 -0.8682,1.5251 -1.4873,2.0384 -0.6194,0.5131 -1.3853,0.7696 -2.3074,0.7696 -1.5766,0 -2.7748,-0.7982 -3.5943,-2.3995 -0.8153,-1.5965 -1.2252,-3.8531 -1.2252,-6.7706 0,-1.2401 0.089,-2.4088 0.2673,-3.5112 0.1783,-1.0976 0.459,-2.0574 0.8419,-2.8792 0.3921,-0.8268 0.8864,-1.4731 1.4877,-1.9338 0.6015,-0.4609 1.3405,-0.6939 2.2226,-0.6939 0.8595,0 1.599,0.233 2.2184,0.6985 0.6145,0.4657 1.1086,1.1072 1.474,1.9148"
       style="fill:#231916;fill-opacity:1;fill-rule:nonzero;stroke:none"
       id="path310" />
    <path
       d="m 396.2245,465.7184 h -10.2356 v 1.0834 c 0.2361,0.019 0.5791,0.0473 1.0332,0.0853 0.4544,0.0335 0.7662,0.0904 0.94,0.1664 0.3206,0.1378 0.5388,0.3232 0.6593,0.5511 0.1157,0.2233 0.1738,0.5179 0.1738,0.8696 v 14.0069 c 0,0.3183 -0.0581,0.5986 -0.1692,0.8362 -0.1114,0.2424 -0.3345,0.4371 -0.6639,0.5845 -0.205,0.095 -0.5122,0.1899 -0.9221,0.2852 -0.4054,0.0997 -0.7572,0.1661 -1.0511,0.2041 v 1.0834 h 10.2356 v -1.0834 c -0.2582,-0.0284 -0.5836,-0.0664 -0.9757,-0.1188 -0.3872,-0.0522 -0.7169,-0.1233 -0.9842,-0.2137 -0.3384,-0.1236 -0.5658,-0.3087 -0.6769,-0.5656 -0.1114,-0.2565 -0.1695,-0.5462 -0.1695,-0.8693 v -13.9975 c 0,-0.3325 0.0581,-0.6177 0.1738,-0.8552 0.1202,-0.2376 0.343,-0.4323 0.6726,-0.5797 0.178,-0.0856 0.4811,-0.1664 0.8997,-0.2424 0.4233,-0.0808 0.775,-0.1281 1.0602,-0.1471 z"
       style="fill:#231916;fill-opacity:1;fill-rule:nonzero;stroke:none"
       id="path312" />
    <path
       d="m 418.7548,484.4197 c -0.2452,-0.0286 -0.5927,-0.0808 -1.0425,-0.1568 -0.4499,-0.0714 -0.8598,-0.252 -1.2249,-0.5417 -0.3206,-0.2517 -0.5479,-0.6794 -0.6857,-1.2923 -0.1338,-0.6083 -0.2007,-1.5015 -0.2007,-2.6847 v -14.1398 h -2.3561 l -11.4602,15.2754 v -9.2744 c 0,-1.15 0.0711,-2.0242 0.2137,-2.6229 0.1468,-0.5987 0.3784,-1.0406 0.6993,-1.3161 0.2358,-0.2041 0.61,-0.3847 1.1225,-0.5463 0.512,-0.1567 0.9218,-0.2613 1.2246,-0.3183 v -1.0834 h -7.9903 v 1.0834 c 0.3384,0.0283 0.7259,0.095 1.1667,0.2041 0.4366,0.1046 0.8062,0.271 1.1002,0.4944 0.3384,0.2707 0.5703,0.6746 0.6993,1.2208 0.1247,0.5417 0.187,1.4539 0.187,2.7417 v 9.3696 c 0,0.4658 -0.0666,0.9074 -0.2004,1.321 -0.1335,0.4133 -0.343,0.7696 -0.6281,1.0641 -0.3028,0.3183 -0.6458,0.5655 -1.042,0.7461 -0.3921,0.1854 -0.8374,0.3277 -1.3363,0.4275 v 1.0834 h 6.984 l 10.0395,-13.3799 v 7.5025 c 0,1.1925 -0.0757,2.0809 -0.2225,2.6606 -0.1474,0.5845 -0.3833,1.0168 -0.7087,1.2926 -0.2537,0.2186 -0.6279,0.3991 -1.1265,0.5559 -0.4946,0.1519 -0.8952,0.2565 -1.2027,0.3135 v 1.0548 h 7.9908 z"
       style="fill:#231916;fill-opacity:1;fill-rule:nonzero;stroke:none"
       id="path314" />
    <path
       d="m 440.0694,473.7577 c -0.2719,-0.0286 -0.508,-0.0618 -0.7175,-0.0997 -0.2092,-0.0335 -0.4719,-0.1095 -0.7837,-0.2186 -0.3609,-0.1236 -0.5925,-0.3231 -0.7081,-0.5987 -0.1114,-0.2803 -0.1693,-0.5748 -0.1693,-0.879 v -2.2997 c 0,-0.4655 0.005,-0.8363 0.0131,-1.1214 0.009,-0.2849 0.0224,-0.6319 0.0402,-1.05 -0.8685,-0.5607 -2.1554,-1.0834 -3.8528,-1.5775 -1.7014,-0.4892 -3.2602,-0.7364 -4.6857,-0.7364 -1.3405,0 -2.5965,0.2185 -3.7681,0.6556 -1.1758,0.4371 -2.2048,1.0883 -3.0912,1.9625 -0.8861,0.8645 -1.5857,1.9386 -2.0934,3.2164 -0.5076,1.283 -0.7616,2.7514 -0.7616,4.4048 0,1.5392 0.2406,2.9648 0.7171,4.2761 0.4811,1.3113 1.1716,2.4375 2.0759,3.3828 0.8861,0.9408 1.9683,1.6631 3.2422,2.1762 1.2742,0.5085 2.6858,0.7651 4.2358,0.7651 1.0514,0 2.0268,-0.1378 2.922,-0.4182 0.8954,-0.2755 1.6347,-0.5748 2.2181,-0.8886 l 0.8107,0.7651 h 1.1225 l 0.1069,-7.2125 h -1.1492 c -0.659,2.1713 -1.4522,3.782 -2.374,4.8367 -0.9176,1.0503 -2.0846,1.5775 -3.492,1.5775 -1.6656,0 -2.9528,-0.7792 -3.8616,-2.3377 -0.9088,-1.563 -1.3632,-3.7108 -1.3632,-6.4474 0,-2.9078 0.4456,-5.1789 1.3365,-6.823 0.8907,-1.6441 2.151,-2.4659 3.7857,-2.4659 0.7662,0 1.4479,0.1233 2.0401,0.3657 0.597,0.2472 1.0601,0.5324 1.3895,0.8552 v 4.0057 c 0,0.3325 -0.0575,0.6128 -0.1689,0.8362 -0.116,0.2279 -0.3385,0.4274 -0.6772,0.5938 -0.2628,0.1282 -0.5879,0.2328 -0.9799,0.3184 -0.3921,0.0856 -0.7169,0.1425 -0.9797,0.1805 v 1.0832 h 9.6208 z"
       style="fill:#231916;fill-opacity:1;fill-rule:nonzero;stroke:none"
       id="path316" />
  </g>
</svg>
